<?xml version="1.0" encoding="UTF-8" standalone="no"?>
<!-- Created with Inkscape (http://www.inkscape.org/) -->

<svg
   xmlns:dc="http://purl.org/dc/elements/1.1/"
   xmlns:cc="http://creativecommons.org/ns#"
   xmlns:rdf="http://www.w3.org/1999/02/22-rdf-syntax-ns#"
   xmlns:svg="http://www.w3.org/2000/svg"
   xmlns="http://www.w3.org/2000/svg"
   xmlns:sodipodi="http://sodipodi.sourceforge.net/DTD/sodipodi-0.dtd"
   xmlns:inkscape="http://www.inkscape.org/namespaces/inkscape"
   width="24"
   height="24"
   viewBox="0 0 6.3499999 6.3500002"
   version="1.1"
   id="svg7836"
   inkscape:version="0.92.1 r15371"
   sodipodi:docname="brosseur.svg">
  <defs
     id="defs7830" />
  <sodipodi:namedview
     id="base"
     pagecolor="#ffffff"
     bordercolor="#666666"
     borderopacity="1.0"
     inkscape:pageopacity="0.0"
     inkscape:pageshadow="2"
     inkscape:zoom="2.8"
     inkscape:cx="-24.874742"
     inkscape:cy="29.002165"
     inkscape:document-units="mm"
     inkscape:current-layer="layer1"
     showgrid="false"
     units="px"
     inkscape:window-width="1366"
     inkscape:window-height="738"
     inkscape:window-x="0"
     inkscape:window-y="30"
     inkscape:window-maximized="1" />
  <metadata
     id="metadata7833">
    <rdf:RDF>
      <cc:Work
         rdf:about="">
        <dc:format>image/svg+xml</dc:format>
        <dc:type
           rdf:resource="http://purl.org/dc/dcmitype/StillImage" />
        <dc:title></dc:title>
      </cc:Work>
    </rdf:RDF>
  </metadata>
  <g
     inkscape:label="Calque 1"
     inkscape:groupmode="layer"
     id="layer1"
     transform="translate(0,-290.64998)">
    <path
       style="fill:#000000;fill-opacity:1;stroke-width:0.09360259"
       d="m 0.94375993,296.36226 c 0.08697,0.0684 0.19736997,0.11672 0.24535987,0.10739 0.04798,-0.009 0.4659631,-0.50116 0.9288371,-1.09296 l 0.84159,-1.07599 -0.09731,-0.16954 c -0.0964,-0.16798 -0.0949,-0.17272 0.163075,-0.51491 0.143212,-0.18995 0.5761979,-0.74309 0.962216,-1.2292 0.386007,-0.48611 0.7147121,-0.91731 0.7304651,-0.95823 0.0351,-0.0912 -0.08841,-0.24967 -0.1946002,-0.24967 -0.1329248,0 -2.0141309,2.40472 -2.8808999,3.68263 -0.351693,0.51851 -0.68836297,1.00599 -0.74813797,1.08328 -0.146703,0.18965 -0.137137,0.27046 0.0494,0.4172 z M 3.4396349,294.0977 c 0.3577121,0.27526 0.4944181,0.301 0.5688229,0.10712 0.02754,-0.0718 -0.04328,-0.17138 -0.2517629,-0.35402 -0.336754,-0.29502 -0.468818,-0.352 -0.587515,-0.2535 -0.147817,0.12267 -0.09611,0.21833 0.270455,0.5004 z m 0.2439471,-0.41436 c 0.4226068,0.32831 0.4545899,0.34352 0.5521058,0.26258 0.1576271,-0.13081 0.08741,-0.273 -0.2756599,-0.55825 -0.2835219,-0.22275 -0.3814871,-0.27072 -0.4566499,-0.22362 -0.1883191,0.11799 -0.1336831,0.27544 0.180204,0.51929 z m 0.3378208,-0.36223 c 0.383209,0.30107 0.4736571,0.32712 0.5746171,0.16546 0.08363,-0.13393 0.06625,-0.15879 -0.326925,-0.46755 -0.3372229,-0.26482 -0.4132091,-0.2906 -0.5255419,-0.17827 -0.1234242,0.12342 -0.07923,0.19984 0.2778498,0.48036 z m 0.3137091,-0.37677 c 0.2022101,0.16362 0.392177,0.28931 0.422148,0.27932 0.02996,-0.01 0.09172,-0.0743 0.1372499,-0.14281 0.07778,-0.11716 0.06036,-0.14256 -0.289569,-0.42197 -0.2047838,-0.16351 -0.4045508,-0.29819 -0.44392,-0.29929 -0.06271,-0.002 -0.19357,0.17171 -0.19357,0.2566 0,0.0169 0.1654522,0.16453 0.3676611,0.32815 z m -0.021791,-0.65807 c 0.06761,0.10939 0.6686409,0.5427 0.752762,0.5427 0.06576,0 0.1976602,-0.17204 0.1976602,-0.25783 0,-0.0623 -0.7022441,-0.56708 -0.7889012,-0.56708 -0.1123228,0 -0.2198349,0.18785 -0.161521,0.28221 z m 0.34647,-0.32857 c 0.05671,0.0494 0.2324531,0.1871 0.390529,0.30606 0.2727491,0.20526 0.2930511,0.2112 0.3977272,0.11647 0.060671,-0.0549 0.1096478,-0.12886 0.1088329,-0.16435 -9.279e-4,-0.0355 -0.1735569,-0.1942 -0.3839009,-0.3527 -0.3718361,-0.28019 -0.3856802,-0.28525 -0.4993701,-0.18237 -0.1432491,0.12964 -0.1449059,0.16279 -0.01382,0.27689 z"
       id="path4578-7"
       inkscape:connector-curvature="0"
       sodipodi:nodetypes="ccscssssssccscscsscscssscsscssccscsssssccssccc" />
  </g>
</svg>
