<?xml version="1.0" encoding="UTF-8" standalone="no"?>
<!-- Created with Inkscape (http://www.inkscape.org/) -->

<svg
   xmlns:dc="http://purl.org/dc/elements/1.1/"
   xmlns:cc="http://creativecommons.org/ns#"
   xmlns:rdf="http://www.w3.org/1999/02/22-rdf-syntax-ns#"
   xmlns:svg="http://www.w3.org/2000/svg"
   xmlns="http://www.w3.org/2000/svg"
   xmlns:sodipodi="http://sodipodi.sourceforge.net/DTD/sodipodi-0.dtd"
   xmlns:inkscape="http://www.inkscape.org/namespaces/inkscape"
   width="24"
   height="24"
   viewBox="0 0 6.3499999 6.3500002"
   version="1.1"
   id="svg7987"
   inkscape:version="0.92.1 r15371"
   sodipodi:docname="climb_2.svg">
  <defs
     id="defs7981" />
  <sodipodi:namedview
     id="base"
     pagecolor="#ffffff"
     bordercolor="#666666"
     borderopacity="1.0"
     inkscape:pageopacity="0.0"
     inkscape:pageshadow="2"
     inkscape:zoom="2.8"
     inkscape:cx="2.2377864"
     inkscape:cy="-18.148036"
     inkscape:document-units="mm"
     inkscape:current-layer="layer1"
     showgrid="false"
     units="px"
     inkscape:window-width="1366"
     inkscape:window-height="738"
     inkscape:window-x="0"
     inkscape:window-y="30"
     inkscape:window-maximized="1" />
  <metadata
     id="metadata7984">
    <rdf:RDF>
      <cc:Work
         rdf:about="">
        <dc:format>image/svg+xml</dc:format>
        <dc:type
           rdf:resource="http://purl.org/dc/dcmitype/StillImage" />
        <dc:title></dc:title>
      </cc:Work>
    </rdf:RDF>
  </metadata>
  <g
     inkscape:label="Calque 1"
     inkscape:groupmode="layer"
     id="layer1"
     transform="translate(0,-290.64998)">
    <path
       style="fill:#000000;fill-opacity:1;fill-rule:evenodd;stroke:none;stroke-width:0.02258079px;stroke-linecap:butt;stroke-linejoin:miter;stroke-opacity:1"
       d="m 3.0162217,291.18055 c 0.42626,-0.0157 0.7569501,0.10305 1.0407599,0.19273 0.45412,0.14356 0.7031802,0.22048 0.7819501,0.61895 0.18625,0.55276 0.1657199,1.27695 -0.19549,1.61235 l -0.4559501,0.42348 C 3.4944417,294.6716 2.8963817,295.442 2.3311917,296.47081 H 1.2397616 c -0.20232,-0.17092 -0.43082002,-0.36741 -0.42346002,-0.63492 0.0925,-3.36129 0.47576002,-4.08804 1.31940012,-4.44609 0.33481,-0.14209 0.62476,-0.19983 0.88052,-0.20925 z m 1.1729201,4.53309 0.1145399,0.35078 -1.2368,0.40363 -0.11454,-0.35022 z m 1.3447299,0.38877 v 0.3684 h -1.30123 v -0.3684 z"
       id="path8919-4-7"
       inkscape:connector-curvature="0"
       sodipodi:nodetypes="cccccccccccccccccccc" />
  </g>
</svg>
