<?xml version="1.0" encoding="UTF-8" standalone="no"?>
<!-- Created with Inkscape (http://www.inkscape.org/) -->

<svg
   xmlns:dc="http://purl.org/dc/elements/1.1/"
   xmlns:cc="http://creativecommons.org/ns#"
   xmlns:rdf="http://www.w3.org/1999/02/22-rdf-syntax-ns#"
   xmlns:svg="http://www.w3.org/2000/svg"
   xmlns="http://www.w3.org/2000/svg"
   xmlns:sodipodi="http://sodipodi.sourceforge.net/DTD/sodipodi-0.dtd"
   xmlns:inkscape="http://www.inkscape.org/namespaces/inkscape"
   width="24"
   height="24"
   viewBox="0 0 6.3499999 6.3500002"
   version="1.1"
   id="svg8188"
   inkscape:version="0.92.1 r15371"
   sodipodi:docname="climb_5.svg">
  <defs
     id="defs8182" />
  <sodipodi:namedview
     id="base"
     pagecolor="#ffffff"
     bordercolor="#666666"
     borderopacity="1.0"
     inkscape:pageopacity="0.0"
     inkscape:pageshadow="2"
     inkscape:zoom="5.6"
     inkscape:cx="11.464093"
     inkscape:cy="28.988417"
     inkscape:document-units="mm"
     inkscape:current-layer="layer1"
     showgrid="false"
     units="px"
     inkscape:window-width="1366"
     inkscape:window-height="738"
     inkscape:window-x="0"
     inkscape:window-y="30"
     inkscape:window-maximized="1" />
  <metadata
     id="metadata8185">
    <rdf:RDF>
      <cc:Work
         rdf:about="">
        <dc:format>image/svg+xml</dc:format>
        <dc:type
           rdf:resource="http://purl.org/dc/dcmitype/StillImage" />
        <dc:title></dc:title>
      </cc:Work>
    </rdf:RDF>
  </metadata>
  <g
     inkscape:label="Calque 1"
     inkscape:groupmode="layer"
     id="layer1"
     transform="translate(0,-290.64998)">
    <path
       style="fill:#000000;fill-opacity:1;fill-rule:evenodd;stroke:none;stroke-width:0.01903867px;stroke-linecap:butt;stroke-linejoin:miter;stroke-opacity:1"
       d="m 0.98531758,291.38718 c -0.0129,4.4e-4 -0.0259,10e-4 -0.0393,0.002 -0.2300801,0.02 -0.3044501,0.14042 -0.2727501,0.26442 -0.0374,0.0279 -0.0595,0.0653 -0.0677,0.10765 -0.0971,0.0682 -0.0999,0.21677 -0.0189,0.35116 0.15289,0.25339 0.49409002,0.35748 0.74912002,0.56157 l -10e-4,6e-4 -0.005,0.0137 0.60365,0.66769 0.0279,-0.0254 c 0.5258903,0.61585 1.0518903,1.23137 1.5662302,1.90114 l -0.1557898,0.15939 0.5259398,0.84607 c 0.0191,0.0307 0.0667,0.0383 0.1280501,0 l 0.4756401,-0.29726 0.0503,-0.33386 -0.5396402,-0.46191 -0.21433,0.0221 c -0.5433499,-0.60782 -1.1473999,-1.28601 -1.6754799,-1.94611 l -0.0164,-0.0209 0.0312,-0.0284 -0.57169,-0.65629 -0.0427,0.0295 c -0.0365,-0.0505 -0.0676,-0.10488 -0.0963,-0.16085 0.0374,0.0162 0.0741,0.0337 0.10981,0.0528 l -10e-4,10e-4 -0.002,0.0143 0.71535,0.5464 0.0228,-0.03 c 0.62939,0.50961 1.25877,1.01891 1.8866299,1.58363 l -0.1241001,0.18511 0.6714201,0.73595 c 0.024299,0.0267 0.0726,0.0256 0.12592,-0.0233 l 0.4134501,-0.37904 -0.011401,-0.33742 -0.6148401,-0.35575 -0.20672,0.0608 C 3.766568,293.93901 3.0489981,293.38233 2.4093781,292.82961 l -0.0199,-0.0175 0.0254,-0.0336 -0.6817699,-0.541 -0.0365,0.0368 c -0.0708,-0.0675 -0.1301,-0.14679 -0.18807,-0.22694 0.0657,0.0129 0.13081,0.0283 0.19414,0.0487 l -9.71e-4,10e-4 5.609e-4,0.0144 0.80124,0.41025 0.0171,-0.0336 c 0.71012,0.38934 1.42015,0.77838 2.1385702,1.22222 l -0.0891,0.20425 0.7918,0.6046 c 0.0287,0.0219 0.076,0.0122 0.1197399,-0.0454 l 0.3393,-0.4466 -0.0714,-0.32999 -0.6683801,-0.24054 -0.1925799,0.0967 C 4.1649281,293.17851 3.359638,292.75857 2.6318081,292.32863 l -0.0228,-0.0137 0.0191,-0.0376 -0.76725,-0.4109 -0.0294,0.0427 c -0.28128,-0.18483 -0.45302,-0.53337 -0.84604002,-0.52203 z m 0.0481,0.0682 c 0.27057,0.007 0.4893099,0.32732 0.75822,0.5119 l -0.0496,0.0722 c -0.10112,-0.0328 -0.19948,-0.055 -0.2930801,-0.073 -0.12903,-0.17571 -0.26882,-0.33646 -0.53100004,-0.36074 -0.075,-0.007 -0.13553,-2.9e-4 -0.18284,0.016 -0.006,-0.0815 0.085,-0.14191 0.24196,-0.16333 0.0191,-0.002 0.0378,-0.004 0.0564,-0.003 z m -0.14401014,0.22322 c 0.0149,-3e-4 0.0306,-1.6e-4 0.0468,5.8e-4 0.16142004,0.007 0.28331014,0.12303 0.40017014,0.26661 -0.0632,-0.0113 -0.12426,-0.0223 -0.1811101,-0.0348 -0.0688,-0.0734 -0.15606004,-0.13242 -0.27585004,-0.16632 -0.033,-0.009 -0.0635,-0.0153 -0.0918,-0.0184 -0.009,-0.01 -0.0161,-0.019 -0.0226,-0.0283 0.0338,-0.0116 0.0755,-0.0182 0.12432,-0.0193 z m -0.1331,0.12538 c 0.003,0 0.006,3e-4 0.009,4.4e-4 0.0117,0.0115 0.0242,0.0226 0.0376,0.0332 0.0884,0.0694 0.19461,0.10895 0.30932014,0.13687 0.0631,0.0773 0.1153999,0.17496 0.1674399,0.27707 -0.20826,-0.0791 -0.39207004,-0.1361 -0.50796004,-0.25577 -0.0669,-0.0691 -0.0993,-0.12892 -0.10301,-0.17745 0.0241,-0.009 0.0535,-0.0141 0.0877,-0.0143 z m 0.1691801,0.0287 c 0.0199,0.007 0.0389,0.0162 0.057,0.0267 -0.0197,-0.008 -0.0388,-0.017 -0.057,-0.0267 z m -0.3152901,0.0311 c 0.0135,0.0531 0.0431,0.10787 0.0871,0.15741 0.15061,0.16954 0.39398004,0.23264 0.62910004,0.32222 0.0426,0.0834 0.0869,0.16649 0.13881,0.24123 l -0.0721,0.0499 c -0.28884,-0.23159 -0.59319004,-0.32913 -0.72866004,-0.53327 -0.0716,-0.1079 -0.0848,-0.18785 -0.0543,-0.23753 z m 0.61491004,0.13454 c 0.058,0.0109 0.11744,0.0206 0.17706,0.0307 0.0776,0.10102 0.1558401,0.20762 0.2449401,0.29587 l -0.0617,0.0623 c -0.0689,-0.037 -0.13727,-0.0681 -0.2040401,-0.0955 -0.0482,-0.10142 -0.0944,-0.20359 -0.15622,-0.29335 z m 1.3555701,0.37249 c 0.70096,0.44285 1.50018,0.85664 2.22506,1.22532 l -0.1164299,0.0584 c -0.7013102,-0.45916 -1.4181902,-0.846 -2.1354701,-1.2309 z m -0.229,0.49171 c 0.61085,0.56065 1.3235499,1.11021 1.97117,1.60213 l -0.1250101,0.0368 c -0.6083199,-0.57672 -1.2448199,-1.0851 -1.8820699,-1.59162 z m -0.29175,0.37922 c 0.49836,0.66265 1.0989,1.33296 1.64595,1.93474 l -0.1296101,0.0133 c -0.4929499,-0.67799 -1.0260499,-1.29391 -1.5602299,-1.90815 z"
       id="path9906-2-1"
       inkscape:connector-curvature="0" />
  </g>
</svg>
