<?xml version="1.0" encoding="UTF-8" standalone="no"?>
<!-- Created with Inkscape (http://www.inkscape.org/) -->

<svg
   xmlns:dc="http://purl.org/dc/elements/1.1/"
   xmlns:cc="http://creativecommons.org/ns#"
   xmlns:rdf="http://www.w3.org/1999/02/22-rdf-syntax-ns#"
   xmlns:svg="http://www.w3.org/2000/svg"
   xmlns="http://www.w3.org/2000/svg"
   xmlns:sodipodi="http://sodipodi.sourceforge.net/DTD/sodipodi-0.dtd"
   xmlns:inkscape="http://www.inkscape.org/namespaces/inkscape"
   width="24"
   height="24"
   viewBox="0 0 6.3499997 6.3500002"
   version="1.1"
   id="svg8255"
   inkscape:version="0.92.1 r15371"
   sodipodi:docname="climb_6.svg">
  <defs
     id="defs8249" />
  <sodipodi:namedview
     id="base"
     pagecolor="#ffffff"
     bordercolor="#666666"
     borderopacity="1.0"
     inkscape:pageopacity="0.0"
     inkscape:pageshadow="2"
     inkscape:zoom="3.959798"
     inkscape:cx="20.396864"
     inkscape:cy="4.339028"
     inkscape:document-units="mm"
     inkscape:current-layer="layer1"
     showgrid="false"
     units="px"
     inkscape:window-width="1366"
     inkscape:window-height="738"
     inkscape:window-x="0"
     inkscape:window-y="30"
     inkscape:window-maximized="1" />
  <metadata
     id="metadata8252">
    <rdf:RDF>
      <cc:Work
         rdf:about="">
        <dc:format>image/svg+xml</dc:format>
        <dc:type
           rdf:resource="http://purl.org/dc/dcmitype/StillImage" />
        <dc:title></dc:title>
      </cc:Work>
    </rdf:RDF>
  </metadata>
  <g
     inkscape:label="Calque 1"
     inkscape:groupmode="layer"
     id="layer1"
     transform="translate(0,-290.64996)">
    <path
       inkscape:connector-curvature="0"
       id="path9702-8-6"
       style="fill:#000000;stroke-width:0.00389829"
       d="m 5.0688128,295.49256 c -0.013399,-0.002 -0.48538,0.12159 -0.78496,0.20619 -0.1959999,0.0554 -0.5260499,0.15372 -0.9973599,0.29765 -0.2237701,0.0684 -0.4445001,0.13543 -0.4909201,0.14883 -0.0464,0.0134 -0.088,0.0302 -0.092,0.0372 -0.004,0.007 0.0113,0.0268 0.0336,0.0434 0.0349,0.026 0.0736,0.0348 0.12196,0.0367 l 0.003,5.3e-4 0.008,-10e-4 c 0.0268,3.7e-4 0.0504,0.002 0.0904,-0.003 0.2454201,-0.03 1.3745501,-0.27926 1.5451299,-0.34106 0.0519,-0.0188 0.10257,-0.0325 0.1126501,-0.0305 0.010099,0.002 0.0284,0.0173 0.0408,0.0346 0.0473,0.0661 0.0542,0.0666 0.3017899,0.009 0.3061001,-0.0709 0.3081401,-0.0718 0.3038602,-0.12454 -0.005,-0.0617 -0.15772,-0.30771 -0.1953401,-0.31471 z m -0.19533,0.23461 c 0.0832,-0.009 0.16989,0.024 0.1514099,0.0574 -0.013499,0.0244 -0.0859,0.057 -0.1348798,0.061 -0.06,0.005 -0.0827,3.2e-4 -0.1260901,-0.0238 -0.020201,-0.0112 -0.0306,-0.0241 -0.0258,-0.0331 0.0141,-0.0256 0.0798,-0.0555 0.1354,-0.0615 z m 0.8051199,0.22014 c -0.012898,-0.004 -0.5034899,0.0664 -0.8159699,0.11679 -0.2044399,0.033 -0.54941,0.0935 -1.0428399,0.18345 -0.23427,0.0427 -0.46571,0.084 -0.5141801,0.092 -0.0485,0.008 -0.0924,0.0199 -0.0977,0.0269 -0.005,0.007 0.007,0.0281 0.0264,0.047 0.0304,0.0292 0.0674,0.0418 0.11524,0.0491 l 0.003,10e-4 h 0.008 c 0.0266,0.003 0.0495,0.008 0.0899,0.007 0.2493801,-0.002 1.41502,-0.12378 1.5952499,-0.16588 0.0549,-0.0129 0.1080903,-0.0206 0.1178201,-0.0176 0.010001,0.003 0.025199,0.0203 0.0346,0.0388 0.036,0.0703 0.0426,0.0716 0.29869,0.0424 0.31667,-0.036 0.3194201,-0.037 0.3240101,-0.0894 0.005,-0.0614 -0.1058201,-0.32076 -0.1421101,-0.33176 z m -0.2335799,0.20981 c 0.0843,4e-4 0.1650902,0.0425 0.14108,0.0734 -0.0176,0.0227 -0.0953,0.047 -0.1447001,0.045 -0.0605,-0.002 -0.0823,-0.009 -0.1214397,-0.0372 -0.018201,-0.0133 -0.0263,-0.0277 -0.020201,-0.0357 0.018399,-0.0236 0.0889,-0.0457 0.14521,-0.0455 z m -1.6042699,-4.978 -0.4482099,0.49521 0.2086498,0.18939 c 0.1550602,0.14027 0.2364,0.29629 0.3121099,0.45107 l -0.7070198,0.78175 -0.0413,-0.0374 -2.35717997,2.60374 -0.18915,0.12211 c -0.13964,0.13331 -0.097,0.26111 -0.002,0.3469 l 0.27194997,0.2458 c 0.20395,0.18457 0.32493,0.0586 0.41806,-0.0672 l 0.10289,-0.18672 2.3148099,-2.5588 -0.0436,-0.04 0.7070299,-0.78176 c 0.0917,0.0809 0.1909303,0.12982 0.2995102,0.13648 0.17344,0.14687 0.3037499,0.3107 0.4224399,0.47891 l 0.3496101,0.31617 c 0.041,0.0371 0.0302,0.0783 -0.0147,0.12896 0.0402,0.0735 0.0945,0.12217 0.1476301,0.17289 l 0.1221801,-0.13515 c -0.1395399,-0.5657 -0.38056,-1.06575 -0.6505599,-1.54587 -0.1023199,-0.18196 -0.2329701,-0.37251 -0.46478,-0.58299 -0.1803101,-0.1638 -0.4212101,-0.33975 -0.7582102,-0.53346 z m 0.75545,0.76336 a 0.21612625,0.21612625 0 0 1 0.0887,0.0482 0.21612625,0.21612625 0 0 1 0.0151,0.30527 0.21612625,0.21612625 0 0 1 -0.3052702,0.0151 0.21612625,0.21612625 0 0 1 -0.0679,-0.19566 0.21612625,0.21612625 0 0 1 0.005,-0.0209 0.21612625,0.21612625 0 0 1 0.0481,-0.0887 0.21612625,0.21612625 0 0 1 0.2165702,-0.0633 z m -3.5088701,3.95319 a 0.06450707,0.06450707 0 0 1 0.033,0.0159 0.06450707,0.06450707 0 0 1 0.005,0.0909 0.06450707,0.06450707 0 0 1 -0.0909,0.004 0.06450707,0.06450707 0 0 1 -0.005,-0.0909 0.06450707,0.06450707 0 0 1 0.0579,-0.0205 z" />
  </g>
</svg>
