<?xml version="1.0" encoding="UTF-8" standalone="no"?>
<!-- Created with Inkscape (http://www.inkscape.org/) -->

<svg
   xmlns:dc="http://purl.org/dc/elements/1.1/"
   xmlns:cc="http://creativecommons.org/ns#"
   xmlns:rdf="http://www.w3.org/1999/02/22-rdf-syntax-ns#"
   xmlns:svg="http://www.w3.org/2000/svg"
   xmlns="http://www.w3.org/2000/svg"
   xmlns:sodipodi="http://sodipodi.sourceforge.net/DTD/sodipodi-0.dtd"
   xmlns:inkscape="http://www.inkscape.org/namespaces/inkscape"
   width="24"
   height="24"
   viewBox="0 0 6.3499999 6.3500002"
   version="1.1"
   id="svg7427"
   inkscape:version="0.92.1 r15371"
   sodipodi:docname="depart_5.svg">
  <defs
     id="defs7421" />
  <sodipodi:namedview
     id="base"
     pagecolor="#ffffff"
     bordercolor="#666666"
     borderopacity="1.0"
     inkscape:pageopacity="0.0"
     inkscape:pageshadow="2"
     inkscape:zoom="5.6"
     inkscape:cx="30.019519"
     inkscape:cy="2.0326222"
     inkscape:document-units="mm"
     inkscape:current-layer="layer1"
     showgrid="false"
     units="px"
     inkscape:window-width="1366"
     inkscape:window-height="738"
     inkscape:window-x="0"
     inkscape:window-y="30"
     inkscape:window-maximized="1" />
  <metadata
     id="metadata7424">
    <rdf:RDF>
      <cc:Work
         rdf:about="">
        <dc:format>image/svg+xml</dc:format>
        <dc:type
           rdf:resource="http://purl.org/dc/dcmitype/StillImage" />
        <dc:title></dc:title>
      </cc:Work>
    </rdf:RDF>
  </metadata>
  <g
     inkscape:label="Calque 1"
     inkscape:groupmode="layer"
     id="layer1"
     transform="translate(0,-290.64998)">
    <path
       inkscape:connector-curvature="0"
       d="m 3.802595,292.16364 c 0.2707301,0 0.4922501,-0.2215 0.4922501,-0.49224 0,-0.27073 -0.22152,-0.49225 -0.4922501,-0.49225 -0.27074,0 -0.49224,0.22152 -0.49224,0.49225 0,0.27074 0.2215,0.49224 0.49224,0.49224 z m -0.88605,3.42113 0.24613,-1.08295 0.51686,0.49225 v 1.47674 h 0.49225 v -1.84592 l -0.51687,-0.49225 0.14768,-0.73837 c 0.3199601,0.36919 0.81221,0.61531 1.35368,0.61531 v -0.49225 c -0.4676399,0 -0.8614299,-0.24612 -1.0583299,-0.5907 l -0.2461202,-0.3938 c -0.0985,-0.14767 -0.2461199,-0.24612 -0.4184099,-0.24612 -0.0739,0 -0.12306,0.0246 -0.19691,0.0246 l -1.2798399,0.54148 v 1.15678 H 2.448915 v -0.83682 l 0.44302,-0.17224 -0.3938,1.9936 -1.20601,-0.24612 -0.0984,0.49225 z"
       id="path4-6-3"
       style="stroke-width:0.24612397" />
  </g>
</svg>
