<?xml version="1.0" encoding="UTF-8" standalone="no"?>
<!-- Created with Inkscape (http://www.inkscape.org/) -->

<svg
   xmlns:dc="http://purl.org/dc/elements/1.1/"
   xmlns:cc="http://creativecommons.org/ns#"
   xmlns:rdf="http://www.w3.org/1999/02/22-rdf-syntax-ns#"
   xmlns:svg="http://www.w3.org/2000/svg"
   xmlns="http://www.w3.org/2000/svg"
   xmlns:sodipodi="http://sodipodi.sourceforge.net/DTD/sodipodi-0.dtd"
   xmlns:inkscape="http://www.inkscape.org/namespaces/inkscape"
   width="24"
   height="24"
   viewBox="0 0 6.3499998 6.3499998"
   version="1.1"
   id="svg7293"
   inkscape:version="0.92.1 r15371"
   sodipodi:docname="depart_3.svg">
  <defs
     id="defs7287" />
  <sodipodi:namedview
     id="base"
     pagecolor="#ffffff"
     bordercolor="#666666"
     borderopacity="1.0"
     inkscape:pageopacity="0.0"
     inkscape:pageshadow="2"
     inkscape:zoom="1.979899"
     inkscape:cx="32.396452"
     inkscape:cy="19.766156"
     inkscape:document-units="mm"
     inkscape:current-layer="layer1"
     showgrid="false"
     units="px"
     inkscape:window-width="1366"
     inkscape:window-height="738"
     inkscape:window-x="0"
     inkscape:window-y="30"
     inkscape:window-maximized="1" />
  <metadata
     id="metadata7290">
    <rdf:RDF>
      <cc:Work
         rdf:about="">
        <dc:format>image/svg+xml</dc:format>
        <dc:type
           rdf:resource="http://purl.org/dc/dcmitype/StillImage" />
        <dc:title></dc:title>
      </cc:Work>
    </rdf:RDF>
  </metadata>
  <g
     inkscape:label="Calque 1"
     inkscape:groupmode="layer"
     id="layer1"
     transform="translate(0,-290.65)">
    <path
       style="stroke-width:0.24928708"
       id="path7012-1-2"
       d="m 2.69562,292.16684 c 0.26901,-0.0531 0.44565,-0.31672 0.39251,-0.58574 -0.0532,-0.269 -0.31673,-0.44564 -0.58575,-0.3925 -0.26901,0.0531 -0.44563,0.31673 -0.3925,0.58574 0.0532,0.26903 0.31672,0.44564 0.58574,0.3925 z m -0.20894,4.30398 0.032,-1.85504 0.61018,0.38769 0.28986,1.46735 0.48913,-0.0966 -0.36232,-1.83421 -0.6102,-0.38767 0.002,-0.76267 c 0.3904,0.30405 1.07857,0.13377 1.45749,-0.24888 l -0.0966,-0.48912 c -0.41442,0.31788 -0.89589,0.51903 -1.15918,0.21535 l -0.32186,-0.34299 c -0.12681,-0.1274 -0.29286,-0.19625 -0.46406,-0.16244 -0.0734,0.0145 -0.128,0.0226 -0.19082,0.0631 -0.18408,0.11888 -0.20712,0.47895 -0.20712,0.75245 v 3.2937 z"
       inkscape:connector-curvature="0"
       sodipodi:nodetypes="ccccccccccccccccccsccc" />
  </g>
</svg>
