<?xml version="1.0" encoding="UTF-8" standalone="no"?>
<!-- Created with Inkscape (http://www.inkscape.org/) -->

<svg
   xmlns:dc="http://purl.org/dc/elements/1.1/"
   xmlns:cc="http://creativecommons.org/ns#"
   xmlns:rdf="http://www.w3.org/1999/02/22-rdf-syntax-ns#"
   xmlns:svg="http://www.w3.org/2000/svg"
   xmlns="http://www.w3.org/2000/svg"
   xmlns:sodipodi="http://sodipodi.sourceforge.net/DTD/sodipodi-0.dtd"
   xmlns:inkscape="http://www.inkscape.org/namespaces/inkscape"
   width="24"
   height="24"
   viewBox="0 0 6.3499999 6.3500002"
   version="1.1"
   id="svg7543"
   inkscape:version="0.92.1 r15371"
   sodipodi:docname="inclinaison_1.svg">
  <defs
     id="defs7537" />
  <sodipodi:namedview
     id="base"
     pagecolor="#ffffff"
     bordercolor="#666666"
     borderopacity="1.0"
     inkscape:pageopacity="0.0"
     inkscape:pageshadow="2"
     inkscape:zoom="7.9195959"
     inkscape:cx="21.391137"
     inkscape:cy="6.0470586"
     inkscape:document-units="mm"
     inkscape:current-layer="layer1"
     showgrid="false"
     units="px"
     inkscape:window-width="1366"
     inkscape:window-height="738"
     inkscape:window-x="0"
     inkscape:window-y="30"
     inkscape:window-maximized="1" />
  <metadata
     id="metadata7540">
    <rdf:RDF>
      <cc:Work
         rdf:about="">
        <dc:format>image/svg+xml</dc:format>
        <dc:type
           rdf:resource="http://purl.org/dc/dcmitype/StillImage" />
        <dc:title></dc:title>
      </cc:Work>
    </rdf:RDF>
  </metadata>
  <g
     inkscape:label="Calque 1"
     inkscape:groupmode="layer"
     id="layer1"
     transform="translate(0,-290.64998)">
    <path
       inkscape:connector-curvature="0"
       d="m 4.3224147,295.19605 h 0.5500502 v 0.68824 H 4.3224147 Z M 4.856205,294.79774 H 4.3386749 v -0.41728 q 0,-0.27367 0.0759,-0.4498 0.0759,-0.17612 0.3197299,-0.40915 l 0.2438699,-0.24116 q 0.1544503,-0.14361 0.2221902,-0.27096 0.0704,-0.12735 0.0704,-0.26012 0,-0.24116 -0.1788398,-0.39019 -0.1761201,-0.14902 -0.4687602,-0.14902 -0.2140598,0 -0.4579299,0.0948 -0.24115,0.0948 -0.50399,0.27638 v -0.50941 q 0.2547101,-0.15444 0.5148299,-0.23031 0.2628302,-0.0759 0.5419201,-0.0759 0.49857,0 0.7993402,0.26283 0.30348,0.26283 0.30348,0.69366 0,0.20593 -0.0975,0.3929 -0.0975,0.18425 -0.3414101,0.41728 l -0.2384499,0.23303 q -0.12735,0.12735 -0.1815402,0.20051 -0.0515,0.0704 -0.0732,0.13819 -0.016301,0.0569 -0.0244,0.13819 -0.008,0.0813 -0.008,0.22219 z m -4.3270202,-3.61858 h 2.64583 v 5.29165 h -2.64583 z"
       style="font-style:normal;font-weight:normal;font-size:medium;line-height:125%;font-family:sans-serif;letter-spacing:0px;word-spacing:0px;fill:#000000;fill-opacity:1;stroke:none;stroke-width:0.13873237px;stroke-linecap:butt;stroke-linejoin:miter;stroke-opacity:1"
       id="path8212" />
  </g>
</svg>
