<?xml version="1.0" encoding="UTF-8" standalone="no"?>
<!-- Created with Inkscape (http://www.inkscape.org/) -->

<svg
   xmlns:dc="http://purl.org/dc/elements/1.1/"
   xmlns:cc="http://creativecommons.org/ns#"
   xmlns:rdf="http://www.w3.org/1999/02/22-rdf-syntax-ns#"
   xmlns:svg="http://www.w3.org/2000/svg"
   xmlns="http://www.w3.org/2000/svg"
   xmlns:sodipodi="http://sodipodi.sourceforge.net/DTD/sodipodi-0.dtd"
   xmlns:inkscape="http://www.inkscape.org/namespaces/inkscape"
   width="24"
   height="24"
   viewBox="0 0 6.3499999 6.3500002"
   version="1.1"
   id="svg6897"
   inkscape:version="0.92.1 r15371"
   sodipodi:docname="nb_point.svg">
  <defs
     id="defs6891" />
  <sodipodi:namedview
     id="base"
     pagecolor="#ffffff"
     bordercolor="#666666"
     borderopacity="1.0"
     inkscape:pageopacity="0.0"
     inkscape:pageshadow="2"
     inkscape:zoom="0.35"
     inkscape:cx="-70"
     inkscape:cy="560"
     inkscape:document-units="mm"
     inkscape:current-layer="layer1"
     showgrid="false"
     units="px"
     inkscape:window-width="1366"
     inkscape:window-height="738"
     inkscape:window-x="0"
     inkscape:window-y="30"
     inkscape:window-maximized="1" />
  <metadata
     id="metadata6894">
    <rdf:RDF>
      <cc:Work
         rdf:about="">
        <dc:format>image/svg+xml</dc:format>
        <dc:type
           rdf:resource="http://purl.org/dc/dcmitype/StillImage" />
        <dc:title></dc:title>
      </cc:Work>
    </rdf:RDF>
  </metadata>
  <g
     inkscape:label="Calque 1"
     inkscape:groupmode="layer"
     id="layer1"
     transform="translate(0,-290.64998)">
    <path
       inkscape:connector-curvature="0"
       id="path7565-6"
       style="color:#000000;font-style:normal;font-variant:normal;font-weight:normal;font-stretch:normal;font-size:medium;line-height:normal;font-family:sans-serif;text-indent:0;text-align:start;text-decoration:none;text-decoration-line:none;text-decoration-style:solid;text-decoration-color:#000000;letter-spacing:normal;word-spacing:normal;text-transform:none;writing-mode:lr-tb;direction:ltr;baseline-shift:baseline;text-anchor:start;white-space:normal;clip-rule:nonzero;display:inline;overflow:visible;visibility:visible;opacity:1;isolation:auto;mix-blend-mode:normal;color-interpolation:sRGB;color-interpolation-filters:linearRGB;solid-color:#000000;solid-opacity:1;fill:#000000;fill-opacity:1;fill-rule:evenodd;stroke:none;stroke-width:0.23802851;stroke-linecap:butt;stroke-linejoin:miter;stroke-miterlimit:4;stroke-dasharray:none;stroke-dashoffset:0;stroke-opacity:1;color-rendering:auto;image-rendering:auto;shape-rendering:auto;text-rendering:auto;enable-background:accumulate"
       d="m 4.223004,291.17922 c -0.114758,0 -0.207242,0.0659 -0.262538,0.14165 -0.0553,0.0757 -0.08365,0.16264 -0.08365,0.25032 v 0.24789 l 0.03358,0.0952 c 10e-4,0.007 0.0014,0.0152 0.0043,0.0232 l 0.02381,0.0678 -0.05678,0.0214 0.189271,0.50981 0.04579,-0.0165 0.09464,0.27231 c 0.0035,0.0101 0.01046,0.0179 0.01771,0.025 l 0.09036,0.25705 c 0.04275,0.1268 0.160473,0.22852 0.314435,0.25765 v 0.98177 c -0.07888,0.0178 -0.147794,0.0637 -0.195377,0.12455 -0.0612,0.0782 -0.0928,0.1782 -0.0928,0.28513 v 1.27178 c 0,0.0905 0.01024,0.19774 0.06716,0.29673 0.05695,0.099 0.176606,0.17889 0.324815,0.17889 h 0.736325 c 0.114758,0 0.207243,-0.0659 0.262539,-0.14165 0.0553,-0.0757 0.08426,-0.16264 0.08426,-0.25032 v -0.2485 l -0.03358,-0.0953 c -0.001,-0.007 -0.002,-0.0146 -0.0049,-0.0226 l -0.0232,-0.0678 0.05678,-0.022 -0.189271,-0.5092 -0.04579,0.0165 -0.09463,-0.27292 c -0.0035,-0.0101 -0.01046,-0.0173 -0.01771,-0.0244 l -0.09036,-0.25704 v -6.4e-4 c -0.0433,-0.12843 -0.163591,-0.23017 -0.32054,-0.25764 v -0.98054 c 0.08132,-0.0167 0.152734,-0.0628 0.201486,-0.12516 0.0612,-0.0782 0.0928,-0.17881 0.0928,-0.28574 v -1.27178 c 0,-0.0905 -0.01085,-0.19774 -0.06777,-0.29673 -0.05694,-0.099 -0.176606,-0.17828 -0.324815,-0.17828 z m 0,0.2375 H 4.95933 c 0.07856,0 0.09546,0.0199 0.118447,0.0598 0.02299,0.04 0.03602,0.11053 0.03602,0.17767 v 1.27178 c 0,0.0591 -0.01853,0.10845 -0.04213,0.1386 -0.02357,0.0302 -0.04679,0.0421 -0.07815,0.0421 h -0.27658 c -0.106488,0 -0.152235,-0.0494 -0.172176,-0.10867 l -6.35e-4,-6.1e-4 -0.0867,-0.24667 c 0.002,-0.0136 0.0014,-0.028 -0.0043,-0.044 l -0.09766,-0.27291 0.05007,-0.0183 -0.189271,-0.51714 -0.04518,0.0171 -0.02564,-0.0714 c -0.0035,-0.01 -0.0092,-0.0182 -0.01648,-0.025 l -0.01466,-0.0409 v -0.20698 c 0,-0.0281 0.0151,-0.0779 0.03846,-0.10989 0.02336,-0.032 0.04421,-0.0446 0.07021,-0.0446 z m 0.481115,3.12665 h 0.27658 c 0.106488,0 0.152235,0.0487 0.172176,0.10806 l 6.35e-4,10e-4 0.0867,0.24666 c -0.002,0.0136 -0.0014,0.028 0.0043,0.044 l 0.09769,0.27292 -0.05007,0.0183 0.189272,0.51714 0.04518,-0.0171 0.02564,0.0714 c 0.0035,0.01 0.0092,0.0182 0.01648,0.025 l 0.01465,0.0409 v 0.20698 c 0,0.0281 -0.0151,0.0779 -0.03846,0.1099 -0.02336,0.032 -0.04421,0.0446 -0.07021,0.0446 H 5.474047 4.73833 c -0.07856,0 -0.09546,-0.0199 -0.118447,-0.0598 -0.02299,-0.04 -0.03602,-0.11114 -0.03602,-0.17828 v -1.27179 c 0,-0.0591 0.01853,-0.10845 0.04213,-0.1386 0.02357,-0.0302 0.04679,-0.0415 0.07815,-0.0415 z m -2.154956,-3.36415 c -0.114757,0 -0.207241,0.0659 -0.262537,0.14165 -0.0553,0.0757 -0.08365,0.16264 -0.08365,0.25032 v 0.24789 l 0.03358,0.0952 c 10e-4,0.007 0.0014,0.0152 0.0043,0.0232 l 0.02381,0.0678 -0.05678,0.0214 0.189271,0.50981 0.04579,-0.0165 0.09464,0.27231 c 0.0035,0.0101 0.01046,0.0179 0.01771,0.025 l 0.09036,0.25705 c 0.04275,0.1268 0.160472,0.22852 0.314435,0.25765 v 0.98177 c -0.07888,0.0178 -0.147795,0.0637 -0.195377,0.12455 -0.0612,0.0782 -0.0928,0.1782 -0.0928,0.28513 v 1.27178 c 0,0.0905 0.01024,0.19774 0.06716,0.29673 0.05694,0.099 0.176605,0.17889 0.324814,0.17889 h 0.736326 c 0.114758,0 0.207242,-0.0659 0.262538,-0.14165 0.0553,-0.0757 0.08426,-0.16264 0.08426,-0.25032 v -0.2485 l -0.03358,-0.0953 c -10e-4,-0.007 -0.002,-0.0146 -0.0049,-0.0226 l -0.0232,-0.0678 0.05678,-0.022 -0.189271,-0.5092 -0.04579,0.0165 -0.09464,-0.27292 c -0.0035,-0.0101 -0.01046,-0.0173 -0.01771,-0.0244 l -0.09036,-0.25704 v -6.4e-4 c -0.0433,-0.12843 -0.163589,-0.23017 -0.320539,-0.25764 v -0.98054 c 0.08132,-0.0167 0.152734,-0.0628 0.201485,-0.12516 0.0612,-0.0782 0.0928,-0.17881 0.0928,-0.28574 v -1.27178 c 0,-0.0905 -0.01085,-0.19774 -0.06777,-0.29673 -0.05695,-0.099 -0.176605,-0.17828 -0.324814,-0.17828 z m 0,0.2375 H 3.28549 c 0.07856,0 0.09546,0.0199 0.118447,0.0598 0.02299,0.04 0.03602,0.11053 0.03602,0.17767 v 1.27178 c 0,0.0591 -0.01853,0.10845 -0.04213,0.1386 -0.02357,0.0302 -0.04679,0.0421 -0.07815,0.0421 H 3.043096 c -0.106487,0 -0.152235,-0.0494 -0.172175,-0.10867 l -6.24e-4,-6.1e-4 -0.0867,-0.24667 c 0.002,-0.0136 0.0014,-0.028 -0.0043,-0.044 l -0.09767,-0.27291 0.05007,-0.0183 -0.189271,-0.51714 -0.04518,0.0171 -0.02564,-0.0714 c -0.0035,-0.01 -0.0092,-0.0182 -0.01648,-0.025 l -0.01465,-0.0409 v -0.20698 c 0,-0.0281 0.0151,-0.0779 0.03846,-0.10989 0.02336,-0.032 0.04421,-0.0446 0.07021,-0.0446 z m 0.481116,3.12665 h 0.27658 c 0.106488,0 0.152235,0.0487 0.172176,0.10806 l 6.35e-4,10e-4 0.0867,0.24666 c -0.002,0.0136 -0.0014,0.028 0.0043,0.044 l 0.09769,0.27292 -0.05007,0.0183 0.189271,0.51714 0.04518,-0.0171 0.02564,0.0714 c 0.0035,0.01 0.0092,0.0182 0.01648,0.025 l 0.01465,0.0409 v 0.20698 c 0,0.0281 -0.0151,0.0779 -0.03846,0.1099 -0.02336,0.032 -0.04421,0.0446 -0.07021,0.0446 H 3.800206 3.06449 c -0.07856,0 -0.09546,-0.0199 -0.118447,-0.0598 -0.02299,-0.04 -0.03602,-0.11114 -0.03602,-0.17828 v -1.27179 c 0,-0.0591 0.01853,-0.10845 0.04213,-0.1386 0.02357,-0.0302 0.04679,-0.0415 0.07815,-0.0415 z m -2.154946,-3.36415 c -0.114757,0 -0.207241,0.0659 -0.262537,0.14165 -0.0553,0.0757 -0.08365,0.16264 -0.08365,0.25032 v 0.24789 l 0.03358,0.0952 c 0.001,0.007 0.0014,0.0152 0.0043,0.0232 l 0.02381,0.0678 -0.05678,0.0214 0.189272,0.50981 0.04579,-0.0165 0.09464,0.27231 c 0.0035,0.0101 0.01046,0.0179 0.01771,0.025 l 0.09036,0.25705 c 0.04275,0.1268 0.160473,0.22852 0.314435,0.25765 v 0.98177 c -0.07888,0.0178 -0.147795,0.0637 -0.195377,0.12455 -0.0612,0.0782 -0.0928,0.1782 -0.0928,0.28513 v 1.27178 c 0,0.0905 0.01024,0.19774 0.06716,0.29673 0.05694,0.099 0.176605,0.17889 0.324814,0.17889 h 0.736326 c 0.114758,0 0.207242,-0.0659 0.262538,-0.14165 0.0553,-0.0757 0.08426,-0.16264 0.08426,-0.25032 v -0.2485 l -0.03358,-0.0953 c -10e-4,-0.007 -0.002,-0.0146 -0.0049,-0.0226 l -0.0232,-0.0678 0.05678,-0.022 -0.189271,-0.5092 -0.04579,0.0165 -0.09464,-0.27292 c -0.0035,-0.0101 -0.01046,-0.0173 -0.01771,-0.0244 l -0.09036,-0.25705 v -6.4e-4 c -0.0433,-0.12842 -0.163591,-0.23016 -0.32054,-0.25763 v -0.98054 c 0.08133,-0.0167 0.152733,-0.0628 0.201485,-0.12516 0.0612,-0.0782 0.0928,-0.17881 0.0928,-0.28574 v -1.27178 c 0,-0.0905 -0.01085,-0.19774 -0.06777,-0.29673 -0.05694,-0.099 -0.176605,-0.17828 -0.324814,-0.17828 z m 0,0.2375 H 1.61166 c 0.07856,0 0.09546,0.0199 0.118447,0.0598 0.02299,0.04 0.03602,0.11053 0.03602,0.17767 v 1.27178 c 0,0.0591 -0.01853,0.10845 -0.04213,0.1386 -0.02357,0.0302 -0.04679,0.0421 -0.07815,0.0421 h -0.27658 c -0.106488,0 -0.152236,-0.0494 -0.172176,-0.10867 l -6.24e-4,-6.1e-4 -0.0867,-0.24667 c 0.002,-0.0136 0.0014,-0.028 -0.0043,-0.044 l -0.09767,-0.27291 0.05007,-0.0183 -0.189271,-0.51714 -0.04518,0.0171 -0.02564,-0.0714 c -0.0035,-0.01 -0.0092,-0.0182 -0.01648,-0.025 l -0.01465,-0.0409 v -0.20698 c 0,-0.0281 0.0151,-0.0779 0.03846,-0.10989 0.02336,-0.032 0.04421,-0.0446 0.07021,-0.0446 z m 0.481116,3.12665 h 0.27658 c 0.106488,0 0.152236,0.0487 0.172176,0.10806 l 6.25e-4,10e-4 0.0867,0.24666 c -0.002,0.0136 -0.0014,0.028 0.0043,0.044 l 0.09769,0.27292 -0.05007,0.0183 0.189271,0.51714 0.04518,-0.0171 0.02564,0.0714 c 0.0035,0.01 0.0092,0.0182 0.01648,0.025 l 0.01465,0.0409 v 0.20698 c 0,0.0281 -0.0151,0.0779 -0.03846,0.1099 -0.02336,0.032 -0.04421,0.0446 -0.07021,0.0446 H 2.126379 1.390663 c -0.07856,0 -0.09546,-0.0199 -0.118447,-0.0598 -0.02299,-0.04 -0.03602,-0.11115 -0.03602,-0.17829 v -1.27178 c 0,-0.0591 0.01853,-0.10845 0.04213,-0.1386 0.02357,-0.0302 0.04679,-0.0415 0.07815,-0.0415 z" />
  </g>
</svg>
