<?xml version="1.0" encoding="UTF-8" standalone="no"?>
<!-- Created with Inkscape (http://www.inkscape.org/) -->

<svg
   xmlns:dc="http://purl.org/dc/elements/1.1/"
   xmlns:cc="http://creativecommons.org/ns#"
   xmlns:rdf="http://www.w3.org/1999/02/22-rdf-syntax-ns#"
   xmlns:svg="http://www.w3.org/2000/svg"
   xmlns="http://www.w3.org/2000/svg"
   xmlns:sodipodi="http://sodipodi.sourceforge.net/DTD/sodipodi-0.dtd"
   xmlns:inkscape="http://www.inkscape.org/namespaces/inkscape"
   width="24"
   height="24"
   viewBox="0 0 6.3499999 6.3500002"
   version="1.1"
   id="svg7870"
   inkscape:version="0.92.1 r15371"
   sodipodi:docname="opener.svg">
  <defs
     id="defs7864" />
  <sodipodi:namedview
     id="base"
     pagecolor="#ffffff"
     bordercolor="#666666"
     borderopacity="1.0"
     inkscape:pageopacity="0.0"
     inkscape:pageshadow="2"
     inkscape:zoom="2.8"
     inkscape:cx="-23.435967"
     inkscape:cy="30.861472"
     inkscape:document-units="mm"
     inkscape:current-layer="layer1"
     showgrid="false"
     units="px"
     inkscape:window-width="1366"
     inkscape:window-height="738"
     inkscape:window-x="0"
     inkscape:window-y="30"
     inkscape:window-maximized="1" />
  <metadata
     id="metadata7867">
    <rdf:RDF>
      <cc:Work
         rdf:about="">
        <dc:format>image/svg+xml</dc:format>
        <dc:type
           rdf:resource="http://purl.org/dc/dcmitype/StillImage" />
        <dc:title></dc:title>
      </cc:Work>
    </rdf:RDF>
  </metadata>
  <g
     inkscape:label="Calque 1"
     inkscape:groupmode="layer"
     id="layer1"
     transform="translate(0,-290.64998)">
    <path
       style="fill:#000000;fill-opacity:1;stroke-width:0.07105408"
       d="m 3.0339421,295.07747 c 0,-0.0434 0.02169,-0.0651 0.06509,-0.0651 0.06236,0 0.06508,-0.0217 0.06508,-0.51849 0,-0.49469 -0.0031,-0.51947 -0.06694,-0.53974 -0.03946,-0.0125 -0.06265,-0.0435 -0.0565,-0.0754 0.01553,-0.0807 0.524237,-0.0807 0.5397689,0 0.0062,0.0319 -0.01705,0.0629 -0.0565,0.0754 -0.06387,0.0202 -0.06694,0.0451 -0.06694,0.53974 0,0.42975 0.008,0.51849 0.0469,0.51849 0.05749,0 0.09425,0.0535 0.067,0.0976 -0.01106,0.0179 -0.1364031,0.0326 -0.2785322,0.0326 -0.2367309,0 -0.2584239,-0.005 -0.2584239,-0.0651 z m -2.27800799,-0.14838 c -0.08055,-0.0119 -0.164746,-0.0365 -0.187121,-0.0545 -0.04998,-0.0404 -0.05377,-0.1778 -0.0053,-0.19395 0.01943,-0.007 0.120415,-0.45246 0.22441,-0.99107 0.103995,-0.53861 0.2055809,-1.01014 0.22575999,-1.04783 0.02017,-0.0377 0.06467,-0.0835 0.09888,-0.10183 0.03919,-0.021 0.499318,-0.033 1.244022,-0.0325 1.1037469,6.8e-4 1.191115,0.005 1.3224939,0.0646 0.07737,0.0351 0.1835401,0.0944 0.235935,0.13167 l 0.09526,0.0678 v 0.35343 c 0,0.40628 -0.005,0.41568 -0.2923519,0.55048 l -0.1795182,0.0842 -1.0672179,0.01 -1.067218,0.01 -0.03111,0.0818 c -0.04067,0.10699 -0.03979,0.11143 0.01771,0.0894 0.07234,-0.0278 0.0681,0.25715 -0.0048,0.31758 -0.04583,0.0381 -0.05858,0.0365 -0.0886,-0.0111 -0.02885,-0.0457 -0.04796,-0.0122 -0.107931,0.18948 -0.04356,0.1465 -0.06519,0.28344 -0.05379,0.34047 0.02498,0.12493 -0.03795,0.20112 -0.14878099,0.18012 -0.04638,-0.009 -0.150208,-0.0257 -0.230755,-0.0376 z m 3.30310509,-1.8286 c 0,-0.18347 -0.01342,-0.33357 -0.02983,-0.33357 0.2413352,0.0554 0.1277691,0.0327 0.3289591,0.0623 0.2525609,0.0235 0.3029169,0.0459 0.3029169,0.13481 0,0.0348 0.021971,0.0632 0.04881,0.0632 0.03409,0 0.04881,0.0344 0.04881,0.1139 0,0.0771 -0.015039,0.11389 -0.04655,0.11389 -0.025609,0 -0.05123,0.0329 -0.05695,0.0732 -0.0085,0.0598 -0.03724,0.0769 -0.156845,0.0935 -0.08055,0.0112 -0.2123451,0.0184 -0.2928842,0.0163 l -0.1464429,-0.004 v -0.33356 z m 1.4811499,0.1139 c 0.00111,-0.10696 0.04442,-0.18712 0.100983,-0.18712 0.06948,0 0.07471,0.0256 0.02955,0.14432 -0.03222,0.0848 -0.131344,0.11725 -0.130533,0.0428 z m -0.1836679,-0.0325 c 0.01079,-0.0403 0.01982,-0.0915 0.020071,-0.1139 0,-0.0224 0.02973,-0.0407 0.06553,-0.0407 0.06802,0 0.07734,0.0323 0.04458,0.15458 -0.01206,0.045 -0.04472,0.0732 -0.08471,0.0732 -0.05161,0 -0.06102,-0.0151 -0.04546,-0.0732 z m -0.180072,-0.0252 c 0.013459,-0.099 0.04887,-0.13898 0.110141,-0.12428 0.07285,0.0175 0.0081,0.23055 -0.06561,0.21588 -0.03828,-0.008 -0.05208,-0.036 -0.044531,-0.0916 z m -0.1899341,0.036 c 0,-0.10575 0.03668,-0.16538 0.1017281,-0.16538 0.05137,0 0.0585,0.0156 0.04084,0.0895 -0.02888,0.12085 -0.04096,0.13831 -0.09567,0.13831 -0.025789,0 -0.0469,-0.0281 -0.0469,-0.0624 z m -0.194809,0.0218 c 0.00119,-0.10697 0.04442,-0.18712 0.1009751,-0.18712 0.06948,0 0.07471,0.0256 0.02955,0.14432 -0.03222,0.0848 -0.1313442,0.11725 -0.1305251,0.0428 z m 0.910757,-0.006 c 0,-0.008 0.015669,-0.0554 0.03483,-0.10577 0.03138,-0.0825 0.03808,-0.0858 0.06766,-0.0329 0.02299,0.0411 0.021101,0.0728 -0.0062,0.10576 -0.03662,0.0441 -0.09621,0.0646 -0.09621,0.033 z"
       id="path5095"
       inkscape:connector-curvature="0"
       sodipodi:nodetypes="ssscsscsscsscccscscsccssccccscccccccccssssscccccssssscsssssccssssssssssssccs" />
  </g>
</svg>
