<?xml version="1.0" encoding="UTF-8" standalone="no"?>
<!-- Created with Inkscape (http://www.inkscape.org/) -->

<svg
   xmlns:dc="http://purl.org/dc/elements/1.1/"
   xmlns:cc="http://creativecommons.org/ns#"
   xmlns:rdf="http://www.w3.org/1999/02/22-rdf-syntax-ns#"
   xmlns:svg="http://www.w3.org/2000/svg"
   xmlns="http://www.w3.org/2000/svg"
   xmlns:sodipodi="http://sodipodi.sourceforge.net/DTD/sodipodi-0.dtd"
   xmlns:inkscape="http://www.inkscape.org/namespaces/inkscape"
   width="24"
   height="24"
   viewBox="0 0 6.3499998 6.3499998"
   version="1.1"
   id="svg7912"
   inkscape:version="0.92.1 r15371"
   sodipodi:docname="open_year.svg">
  <defs
     id="defs7906" />
  <sodipodi:namedview
     id="base"
     pagecolor="#ffffff"
     bordercolor="#666666"
     borderopacity="1.0"
     inkscape:pageopacity="0.0"
     inkscape:pageshadow="2"
     inkscape:zoom="5.6"
     inkscape:cx="11.538059"
     inkscape:cy="30.795532"
     inkscape:document-units="mm"
     inkscape:current-layer="layer1"
     showgrid="false"
     units="px"
     inkscape:window-width="1366"
     inkscape:window-height="738"
     inkscape:window-x="0"
     inkscape:window-y="30"
     inkscape:window-maximized="1" />
  <metadata
     id="metadata7909">
    <rdf:RDF>
      <cc:Work
         rdf:about="">
        <dc:format>image/svg+xml</dc:format>
        <dc:type
           rdf:resource="http://purl.org/dc/dcmitype/StillImage" />
        <dc:title></dc:title>
      </cc:Work>
    </rdf:RDF>
  </metadata>
  <g
     inkscape:label="Calque 1"
     inkscape:groupmode="layer"
     id="layer1"
     transform="translate(0,-290.65)">
    <path
       inkscape:connector-curvature="0"
       d="M 2.381204,293.56041 H 1.852037 v 0.52917 h 0.529167 z m 1.058333,0 H 2.910371 v 0.52917 h 0.529166 z m 1.0583342,0 H 3.968704 v 0.52917 H 4.4978712 Z M 5.027037,291.70833 H 4.762454 v -0.52917 H 4.233287 v 0.52917 H 2.116621 v -0.52917 H 1.587454 v 0.52917 H 1.322871 c -0.293688,0 -0.526521,0.23812 -0.526521,0.52916 l -0.0026,3.70417 c 0,0.29104 0.235479,0.52917 0.529167,0.52917 h 3.7041661 c 0.2910419,0 0.5291669,-0.23813 0.5291669,-0.52917 v -3.70417 c 0,-0.29104 -0.238125,-0.52916 -0.5291669,-0.52916 z m 0,4.23333 H 1.322871 v -2.91042 h 3.704166 z"
       id="path2"
       style="stroke-width:0.26458332" />
  </g>
</svg>
