<?xml version="1.0" encoding="UTF-8" standalone="no"?>
<!-- Created with Inkscape (http://www.inkscape.org/) -->

<svg
   xmlns:dc="http://purl.org/dc/elements/1.1/"
   xmlns:cc="http://creativecommons.org/ns#"
   xmlns:rdf="http://www.w3.org/1999/02/22-rdf-syntax-ns#"
   xmlns:svg="http://www.w3.org/2000/svg"
   xmlns="http://www.w3.org/2000/svg"
   xmlns:sodipodi="http://sodipodi.sourceforge.net/DTD/sodipodi-0.dtd"
   xmlns:inkscape="http://www.inkscape.org/namespaces/inkscape"
   width="24"
   height="24"
   viewBox="0 0 6.3499999 6.3500002"
   version="1.1"
   id="svg6883"
   inkscape:version="0.92.1 r15371"
   sodipodi:docname="point_1.svg">
  <defs
     id="defs6877" />
  <sodipodi:namedview
     id="base"
     pagecolor="#ffffff"
     bordercolor="#666666"
     borderopacity="1.0"
     inkscape:pageopacity="0.0"
     inkscape:pageshadow="2"
     inkscape:zoom="3.959798"
     inkscape:cx="-7.7562552"
     inkscape:cy="31.923882"
     inkscape:document-units="mm"
     inkscape:current-layer="layer1"
     showgrid="false"
     units="px"
     inkscape:window-width="1366"
     inkscape:window-height="738"
     inkscape:window-x="0"
     inkscape:window-y="30"
     inkscape:window-maximized="1" />
  <metadata
     id="metadata6880">
    <rdf:RDF>
      <cc:Work
         rdf:about="">
        <dc:format>image/svg+xml</dc:format>
        <dc:type
           rdf:resource="http://purl.org/dc/dcmitype/StillImage" />
        <dc:title></dc:title>
      </cc:Work>
    </rdf:RDF>
  </metadata>
  <g
     inkscape:label="Calque 1"
     inkscape:groupmode="layer"
     id="layer1"
     transform="translate(0,-290.64998)">
    <path
       inkscape:connector-curvature="0"
       id="path8302-1"
       style="font-style:normal;font-weight:normal;font-size:4.67730379px;line-height:125%;font-family:sans-serif;letter-spacing:0px;word-spacing:0px;fill:#000000;fill-opacity:1;stroke:none;stroke-width:0.11693259px;stroke-linecap:butt;stroke-linejoin:miter;stroke-opacity:1"
       d="m 4.5578871,295.89199 h 0.46362 v 0.58009 h -0.46362 z m 0.44992,-0.33573 h -0.43622 v -0.35171 q 0,-0.23066 0.0639,-0.37911 0.064,-0.14845 0.26949,-0.34486 l 0.20555,-0.20327 q 0.13018,-0.12104 0.18727,-0.22838 0.0594,-0.10734 0.0594,-0.21925 0,-0.20326 -0.15073,-0.32887 -0.14845,-0.12561 -0.3951,-0.12561 -0.18043,0 -0.38597,0.0799 -0.20326,0.0799 -0.4248,0.23295 v -0.42936 q 0.21468,-0.13018 0.43393,-0.19412 0.22154,-0.0639 0.45677,-0.0639 0.42023,0 0.67373,0.22153 0.25579,0.22153 0.25579,0.58466 0,0.17358 -0.0822,0.33116 -0.0822,0.1553 -0.28777,0.35171 l -0.20098,0.19641 q -0.10734,0.10734 -0.15301,0.16901 -0.0434,0.0594 -0.0617,0.11647 -0.0137,0.048 -0.0206,0.11648 -0.007,0.0685 -0.007,0.18727 z m -2.88589,-4.37732 c -0.22635,-0.003 -0.53064,-4.8e-4 -0.79973,0.017 -0.13454,0.009 -0.25999,0.0214 -0.36677998,0.0399 -0.10679,0.0186 -0.18782,0.0225 -0.28426,0.10414 -0.069,0.0584 -0.0797,0.10958 -0.0943,0.16047 -0.0146,0.0508 -0.0226,0.10492 -0.0295,0.16374 -0.0137,0.11762 -0.02,0.25545 -0.0177,0.39364 0.002,0.13821 0.0131,0.27531 0.0275,0.39102 0.007,0.0578 0.0138,0.11149 0.0249,0.15851 0.0111,0.047 0.016,0.0845 0.0589,0.14344 0.0511,0.0701 0.0758,0.0726 0.12183,0.10414 0.046,0.0316 0.10479,0.0688 0.17029,0.10872 0.13100998,0.0799 0.29393998,0.17322 0.45585998,0.26461 0.27972,0.15789 0.48227,0.26667 0.55149,0.30391 l -0.0196,2.93691 0.32422,0.003 v -2.91763 l 0.0452,-0.0239 c 0.0755,-0.0389 0.27102,-0.13852 0.55149,-0.29212 0.16485,-0.0902 0.33232,-0.18552 0.46568,-0.26723 0.0667,-0.0408 0.12525,-0.0767 0.17292,-0.11135 0.0477,-0.0346 0.0806,-0.0389 0.12903,-0.13099 0.0309,-0.0588 0.0304,-0.0867 0.0373,-0.12903 0.007,-0.0422 0.0123,-0.0891 0.017,-0.14344 0.009,-0.10875 0.0158,-0.24111 0.0177,-0.37399 0.002,-0.13288 8.73e-4,-0.26601 -0.008,-0.37858 -0.004,-0.0563 -0.0106,-0.10649 -0.0197,-0.15326 -0.009,-0.0468 -0.0103,-0.0855 -0.057,-0.14868 -0.0554,-0.0749 -0.10002,-0.0817 -0.14344,-0.0969 -0.0434,-0.0152 -0.0896,-0.0265 -0.14147,-0.0367 -0.10364,-0.0202 -0.23102,-0.0343 -0.36875,-0.0471 -0.27546,-0.0255 -0.59241,-0.0394 -0.82134,-0.0419 z m -0.005,0.3563 c 0.21831,0.003 0.53271,0.0156 0.79448,0.04 0.13089,0.0127 0.24896,0.0284 0.33208,0.0445 0.0281,0.005 0.0438,0.01 0.0616,0.0144 0.004,0.0253 0.009,0.0565 0.0125,0.0969 0.007,0.0954 0.009,0.22147 0.007,0.34648 -0.002,0.12497 -0.006,0.24958 -0.0144,0.34649 -0.004,0.0484 -0.0104,0.0903 -0.0151,0.11855 -3.18e-4,0.002 -9.26e-4,0.003 -10e-4,0.005 0.0154,-0.0166 0.0231,-0.0258 10e-4,0.0157 -0.0163,0.031 -0.007,0.01 -10e-4,-0.0157 -0.007,0.008 -0.0126,0.0149 -0.0236,0.0229 -0.0347,0.0252 -0.0865,0.0588 -0.14866,0.0969 -0.12425,0.0762 -0.28785,0.16861 -0.44997,0.25741 -0.282703,0.15483 -0.493593,0.26249 -0.559993,0.2967 -0.0674,-0.0365 -0.26958,-0.14541 -0.54691,-0.30194 -0.16005,-0.0904 -0.32328,-0.18402 -0.448,-0.26003 -0.0624,-0.038 -0.11443,-0.0709 -0.15129998,-0.0963 -0.013,-0.009 -0.0213,-0.0178 -0.0301,-0.0262 0.007,0.018 0.0136,0.0281 -0.004,0.004 -0.0208,-0.0285 -0.0123,-0.0194 0.004,-0.004 -0.002,-0.004 -0.003,-0.006 -0.004,-0.0111 -0.007,-0.0276 -0.0142,-0.0693 -0.0203,-0.11855 -0.0123,-0.0985 -0.0221,-0.2276 -0.0242,-0.35435 -0.002,-0.12674 0.004,-0.25359 0.0144,-0.34648 0.005,-0.0421 0.009,-0.0744 0.0151,-0.0963 -0.008,0.0101 0.0244,-0.009 0.0989,-0.0229 0.0856,-0.015 0.20251,-0.0258 0.32945,-0.0341 0.25389,-0.0165 0.55233,-0.0201 0.77222,-0.0177 z" />
  </g>
</svg>
