<?xml version="1.0" encoding="UTF-8" standalone="no"?>
<!-- Created with Inkscape (http://www.inkscape.org/) -->

<svg
   xmlns:dc="http://purl.org/dc/elements/1.1/"
   xmlns:cc="http://creativecommons.org/ns#"
   xmlns:rdf="http://www.w3.org/1999/02/22-rdf-syntax-ns#"
   xmlns:svg="http://www.w3.org/2000/svg"
   xmlns="http://www.w3.org/2000/svg"
   xmlns:sodipodi="http://sodipodi.sourceforge.net/DTD/sodipodi-0.dtd"
   xmlns:inkscape="http://www.inkscape.org/namespaces/inkscape"
   width="24"
   height="24"
   viewBox="0 0 6.3499999 6.3500002"
   version="1.1"
   id="svg7828"
   inkscape:version="0.92.1 r15371"
   sodipodi:docname="point.svg">
  <defs
     id="defs7822" />
  <sodipodi:namedview
     id="base"
     pagecolor="#ffffff"
     bordercolor="#666666"
     borderopacity="1.0"
     inkscape:pageopacity="0.0"
     inkscape:pageshadow="2"
     inkscape:zoom="3.959798"
     inkscape:cx="-29.331394"
     inkscape:cy="3.6297007"
     inkscape:document-units="mm"
     inkscape:current-layer="layer1"
     showgrid="false"
     units="px"
     inkscape:window-width="1366"
     inkscape:window-height="738"
     inkscape:window-x="0"
     inkscape:window-y="30"
     inkscape:window-maximized="1" />
  <metadata
     id="metadata7825">
    <rdf:RDF>
      <cc:Work
         rdf:about="">
        <dc:format>image/svg+xml</dc:format>
        <dc:type
           rdf:resource="http://purl.org/dc/dcmitype/StillImage" />
        <dc:title></dc:title>
      </cc:Work>
    </rdf:RDF>
  </metadata>
  <g
     inkscape:label="Calque 1"
     inkscape:groupmode="layer"
     id="layer1"
     transform="translate(0,-290.64998)">
    <path
       style="color:#000000;font-style:normal;font-variant:normal;font-weight:normal;font-stretch:normal;font-size:medium;line-height:normal;font-family:sans-serif;font-variant-ligatures:normal;font-variant-position:normal;font-variant-caps:normal;font-variant-numeric:normal;font-variant-alternates:normal;font-feature-settings:normal;text-indent:0;text-align:start;text-decoration:none;text-decoration-line:none;text-decoration-style:solid;text-decoration-color:#000000;letter-spacing:normal;word-spacing:normal;text-transform:none;writing-mode:lr-tb;direction:ltr;text-orientation:mixed;dominant-baseline:auto;baseline-shift:baseline;text-anchor:start;white-space:normal;shape-padding:0;clip-rule:nonzero;display:inline;overflow:visible;visibility:visible;opacity:1;isolation:auto;mix-blend-mode:normal;color-interpolation:sRGB;color-interpolation-filters:linearRGB;solid-color:#000000;solid-opacity:1;vector-effect:none;fill:#000000;fill-opacity:1;fill-rule:evenodd;stroke:none;stroke-width:0.35652831;stroke-linecap:butt;stroke-linejoin:miter;stroke-miterlimit:4;stroke-dasharray:none;stroke-dashoffset:0;stroke-opacity:1;color-rendering:auto;image-rendering:auto;shape-rendering:auto;text-rendering:auto;enable-background:accumulate"
       d="m 3.1912119,291.17894 c -0.2263459,-0.003 -0.5306427,-4.8e-4 -0.7997244,0.017 -0.1345408,0.009 -0.2599974,0.0214 -0.3667858,0.0399 -0.1067882,0.0186 -0.1878152,0.0225 -0.2842592,0.10414 -0.069019,0.0584 -0.079671,0.10958 -0.094316,0.16047 -0.014645,0.0508 -0.022636,0.10492 -0.029474,0.16374 -0.013676,0.11762 -0.019975,0.25545 -0.017684,0.39364 0.00229,0.13821 0.013095,0.27531 0.027509,0.39102 0.00721,0.0578 0.013767,0.11149 0.024889,0.15851 0.011128,0.047 0.015991,0.0845 0.058948,0.14344 0.051054,0.0701 0.075793,0.0726 0.1218254,0.10414 0.046034,0.0316 0.104788,0.0688 0.1702934,0.10872 0.1310099,0.0799 0.293936,0.17322 0.4558625,0.26461 0.2797121,0.15789 0.4822715,0.26667 0.5514892,0.30391 l -0.019649,2.93691 0.3242126,0.003 v -2.91763 l 0.045193,-0.0239 c 0.075482,-0.0389 0.2710169,-0.13852 0.5514891,-0.29212 0.1648563,-0.0902 0.332323,-0.18552 0.4656869,-0.26723 0.066682,-0.0408 0.1252434,-0.0767 0.1729134,-0.11135 0.04767,-0.0346 0.080582,-0.0389 0.1290302,-0.13099 0.030944,-0.0588 0.030422,-0.0867 0.037334,-0.12903 0.00691,-0.0422 0.012285,-0.0891 0.017029,-0.14344 0.00949,-0.10875 0.01583,-0.24111 0.017685,-0.37399 0.00185,-0.13288 8.731e-4,-0.26601 -0.00786,-0.37858 -0.00437,-0.0563 -0.010581,-0.10649 -0.019649,-0.15326 -0.00907,-0.0468 -0.010287,-0.0855 -0.056983,-0.14868 -0.055383,-0.0749 -0.1000268,-0.0817 -0.1434399,-0.0969 -0.043414,-0.0152 -0.089652,-0.0265 -0.1414745,-0.0367 -0.1036447,-0.0202 -0.2310199,-0.0343 -0.3687507,-0.0471 -0.2754618,-0.0255 -0.5924139,-0.0394 -0.8213386,-0.0419 z m -0.00524,0.3563 c 0.2183157,0.003 0.5327144,0.0156 0.7944847,0.04 0.130885,0.0127 0.248958,0.0284 0.332072,0.0445 0.028058,0.005 0.043777,0.01 0.061568,0.0144 0.00421,0.0253 0.0093,0.0565 0.012443,0.0969 0.00741,0.0954 0.00894,0.22147 0.0072,0.34648 -0.00175,0.12497 -0.00594,0.24958 -0.014409,0.34649 -0.00423,0.0484 -0.010427,0.0903 -0.015063,0.11855 -3.175e-4,0.002 -9.261e-4,0.003 -0.00132,0.005 0.015372,-0.0166 0.02313,-0.0258 0.00132,0.0157 -0.016277,0.031 -0.00651,0.01 -0.00132,-0.0157 -0.00713,0.008 -0.012583,0.0149 -0.02358,0.0229 -0.034673,0.0252 -0.086544,0.0588 -0.1486662,0.0969 -0.1242448,0.0762 -0.2878493,0.16861 -0.4499678,0.25741 -0.2827084,0.15483 -0.4936015,0.26249 -0.5600036,0.2967 -0.067439,-0.0365 -0.2695778,-0.14541 -0.5469039,-0.30194 -0.1600573,-0.0904 -0.3232795,-0.18402 -0.448003,-0.26003 -0.062361,-0.038 -0.1144333,-0.0709 -0.1512992,-0.0963 -0.012997,-0.009 -0.021281,-0.0178 -0.030129,-0.0262 0.00662,0.018 0.013649,0.0281 -0.00393,0.004 -0.020757,-0.0285 -0.012319,-0.0194 0.00393,-0.004 -0.00158,-0.004 -0.00267,-0.006 -0.00393,-0.0111 -0.00655,-0.0276 -0.014174,-0.0693 -0.020304,-0.11855 -0.012256,-0.0985 -0.022134,-0.2276 -0.024234,-0.35435 -0.0021,-0.12674 0.0036,-0.25359 0.014409,-0.34648 0.00489,-0.0421 0.00939,-0.0744 0.015064,-0.0963 -0.00786,0.0101 0.024376,-0.009 0.098901,-0.0229 0.085568,-0.015 0.2025074,-0.0258 0.3294524,-0.0341 0.2538901,-0.0165 0.5523253,-0.0201 0.7722154,-0.0177 z"
       id="path5324"
       inkscape:connector-curvature="0"
       sodipodi:nodetypes="ccccccccccccccccccccccccccccccccccccccccccccccccccccccccccccccc" />
  </g>
</svg>
