<?xml version="1.0" encoding="UTF-8" standalone="no"?>
<!-- Created with Inkscape (http://www.inkscape.org/) -->

<svg
   xmlns:dc="http://purl.org/dc/elements/1.1/"
   xmlns:cc="http://creativecommons.org/ns#"
   xmlns:rdf="http://www.w3.org/1999/02/22-rdf-syntax-ns#"
   xmlns:svg="http://www.w3.org/2000/svg"
   xmlns="http://www.w3.org/2000/svg"
   xmlns:sodipodi="http://sodipodi.sourceforge.net/DTD/sodipodi-0.dtd"
   xmlns:inkscape="http://www.inkscape.org/namespaces/inkscape"
   width="24"
   height="24"
   viewBox="0 0 6.3499999 6.3500002"
   version="1.1"
   id="svg7998"
   inkscape:version="0.92.1 r15371"
   sodipodi:docname="ponderation.svg">
  <defs
     id="defs7992" />
  <sodipodi:namedview
     id="base"
     pagecolor="#ffffff"
     bordercolor="#666666"
     borderopacity="1.0"
     inkscape:pageopacity="0.0"
     inkscape:pageshadow="2"
     inkscape:zoom="3.959798"
     inkscape:cx="39.20474"
     inkscape:cy="39.488754"
     inkscape:document-units="px"
     inkscape:current-layer="layer1"
     showgrid="false"
     units="px"
     inkscape:window-width="1366"
     inkscape:window-height="738"
     inkscape:window-x="0"
     inkscape:window-y="30"
     inkscape:window-maximized="1" />
  <metadata
     id="metadata7995">
    <rdf:RDF>
      <cc:Work
         rdf:about="">
        <dc:format>image/svg+xml</dc:format>
        <dc:type
           rdf:resource="http://purl.org/dc/dcmitype/StillImage" />
        <dc:title></dc:title>
      </cc:Work>
    </rdf:RDF>
  </metadata>
  <g
     inkscape:label="Calque 1"
     inkscape:groupmode="layer"
     id="layer1"
     transform="translate(0,-290.64998)">
    <path
       inkscape:connector-curvature="0"
       style="font-style:normal;font-variant:normal;font-weight:600;font-stretch:normal;font-size:medium;line-height:125%;font-family:Lato;-inkscape-font-specification:'Lato Semi-Bold';letter-spacing:0px;word-spacing:0px;fill:#000000;fill-opacity:1;stroke:none;stroke-width:0.08857302px;stroke-linecap:butt;stroke-linejoin:miter;stroke-opacity:1"
       d="m 1.66447,291.17915 c -0.0449,0 -0.0854,0.009 -0.12196,0.0263 -0.0354,0.0177 -0.0627,0.0393 -0.0816,0.0641 l -0.62684,0.8413 c -0.10392,0.13935 -0.18088,0.27205 -0.23048,0.39842 -0.0496,0.12639 -0.0744,0.24758 -0.0744,0.36332 0,0.13345 0.0203,0.25464 0.0605,0.36328 0.0401,0.10866 0.0972,0.20163 0.17157,0.27957 0.0756,0.0768 0.16656,0.13679 0.27285,0.17932 0.10629,0.0425 0.22533,0.0636 0.3576,0.0636 0.13227,0 0.25308,-0.022 0.36173,-0.0656 0.10983,-0.0449 0.2037,-0.10476 0.28164,-0.18035 0.0779,-0.0768 0.13784,-0.16649 0.18035,-0.26923 0.0437,-0.10275 0.0656,-0.21316 0.0656,-0.33125 0,-0.12401 -0.0207,-0.23367 -0.062,-0.32814 -0.0413,-0.0956 -0.0967,-0.17495 -0.1664,-0.23875 -0.0685,-0.065 -0.14833,-0.11334 -0.23926,-0.14521 -0.0909,-0.0331 -0.18605,-0.0496 -0.28526,-0.0496 -0.0756,0 -0.14588,0.009 -0.21083,0.0264 -0.0638,0.0177 -0.12241,0.0425 -0.17674,0.0744 l 0.0496,-0.0636 c 0.0177,-0.0225 0.0359,-0.0456 0.0548,-0.0693 l 0.75654,-0.93896 z m 3.08457,0 v 0.78341 H 4.00851 v 0.30335 h 0.74053 v 0.78548 h 0.32763 v -0.78548 h 0.74414 v -0.30335 H 5.07667 v -0.78341 z m -1.55908,0.7152 c -0.14054,0 -0.2646,0.0235 -0.37207,0.0708 -0.10747,0.0461 -0.19757,0.1106 -0.27079,0.19327 -0.072,0.0827 -0.12705,0.18103 -0.16484,0.29559 -0.0378,0.11337 -0.0568,0.23706 -0.0568,0.37052 0,0.14762 0.0207,0.27907 0.062,0.39481 0.0425,0.11455 0.10005,0.21218 0.17209,0.29248 0.0732,0.0791 0.15844,0.13989 0.25528,0.18242 0.098,0.0413 0.20303,0.062 0.31522,0.062 0.065,0 0.12899,-0.005 0.19276,-0.016 0.0638,-0.009 0.12543,-0.0251 0.18448,-0.0475 0.059,-0.0236 0.11532,-0.0538 0.16847,-0.0904 0.0531,-0.0366 0.10151,-0.0817 0.14521,-0.13488 l -0.10801,-0.1396 c -0.0165,-0.0236 -0.0406,-0.0357 -0.0713,-0.0357 -0.0248,0 -0.0484,0.009 -0.0708,0.0269 -0.0212,0.0177 -0.0473,0.0371 -0.078,0.0584 -0.0307,0.0213 -0.0687,0.0407 -0.11472,0.0584 -0.0461,0.0177 -0.1061,0.0263 -0.17932,0.0263 -0.0744,0 -0.1413,-0.014 -0.20153,-0.0424 -0.059,-0.0283 -0.10993,-0.0697 -0.15245,-0.12402 -0.0413,-0.0543 -0.0732,-0.12086 -0.0956,-0.19999 -0.0224,-0.0791 -0.0336,-0.16974 -0.0336,-0.2713 0,-0.098 0.01,-0.18561 0.03,-0.26355 0.0213,-0.0791 0.0527,-0.14617 0.094,-0.20051 0.0425,-0.0555 0.0941,-0.0981 0.15555,-0.12764 0.0626,-0.0295 0.1354,-0.0439 0.21807,-0.0439 0.0638,0 0.11665,0.007 0.15917,0.0212 0.0425,0.0141 0.0785,0.0298 0.108,0.0476 0.0307,0.0165 0.0568,0.0323 0.078,0.0465 0.0224,0.0142 0.044,0.0212 0.0641,0.0212 0.0201,0 0.0354,-0.004 0.046,-0.0124 0.0106,-0.008 0.0218,-0.0203 0.0336,-0.0357 l 0.10077,-0.13849 c -0.0779,-0.0779 -0.16678,-0.13833 -0.26717,-0.18087 -0.0992,-0.0425 -0.21462,-0.0636 -0.34571,-0.0636 z m -1.79111,0.54622 c 0.0744,0 0.1422,0.0115 0.20361,0.0351 0.0626,0.0224 0.11598,0.0551 0.15968,0.0977 0.0449,0.0425 0.0792,0.095 0.10284,0.15761 0.0248,0.0614 0.0372,0.13083 0.0372,0.20878 0,0.072 -0.0124,0.1391 -0.0372,0.2005 -0.0248,0.0614 -0.0604,0.1143 -0.10646,0.15916 -0.0449,0.0449 -0.099,0.0805 -0.16278,0.10646 -0.0638,0.0248 -0.13408,0.0372 -0.21084,0.0372 -0.0791,0 -0.14943,-0.0124 -0.21084,-0.0372 -0.0602,-0.0248 -0.11111,-0.0592 -0.15244,-0.10284 -0.0413,-0.0449 -0.0728,-0.0986 -0.0941,-0.16123 -0.0213,-0.0626 -0.0315,-0.13164 -0.0315,-0.20722 0,-0.0674 0.0115,-0.131 0.0351,-0.1912 0.0236,-0.0602 0.0576,-0.11275 0.10129,-0.15762 0.0437,-0.0449 0.0962,-0.0804 0.15761,-0.10645 0.0626,-0.026 0.13201,-0.0388 0.20877,-0.0388 z m 2.50321,1.70791 v 0.26355 h 1.91823 v -0.26355 z m 0.96067,0.30644 -0.9493,0.94723 0.33021,0.33021 0.38447,-0.38551 v 1.12397 h 0.46716 v -1.12293 l 0.38447,0.38447 0.33021,-0.33021 z"
       id="path7807-6" />
  </g>
</svg>
