<?xml version="1.0" encoding="UTF-8" standalone="no"?>
<!-- Created with Inkscape (http://www.inkscape.org/) -->

<svg
   xmlns:dc="http://purl.org/dc/elements/1.1/"
   xmlns:cc="http://creativecommons.org/ns#"
   xmlns:rdf="http://www.w3.org/1999/02/22-rdf-syntax-ns#"
   xmlns:svg="http://www.w3.org/2000/svg"
   xmlns="http://www.w3.org/2000/svg"
   xmlns:sodipodi="http://sodipodi.sourceforge.net/DTD/sodipodi-0.dtd"
   xmlns:inkscape="http://www.inkscape.org/namespaces/inkscape"
   width="24"
   height="24"
   viewBox="0 0 6.3499999 6.3500002"
   version="1.1"
   id="svg7476"
   inkscape:version="0.92.1 r15371"
   sodipodi:docname="relais_5.svg">
  <defs
     id="defs7470" />
  <sodipodi:namedview
     id="base"
     pagecolor="#ffffff"
     bordercolor="#666666"
     borderopacity="1.0"
     inkscape:pageopacity="0.0"
     inkscape:pageshadow="2"
     inkscape:zoom="3.959798"
     inkscape:cx="52.077755"
     inkscape:cy="23.108406"
     inkscape:document-units="mm"
     inkscape:current-layer="layer1"
     showgrid="false"
     units="px"
     inkscape:window-width="1366"
     inkscape:window-height="738"
     inkscape:window-x="0"
     inkscape:window-y="30"
     inkscape:window-maximized="1" />
  <metadata
     id="metadata7473">
    <rdf:RDF>
      <cc:Work
         rdf:about="">
        <dc:format>image/svg+xml</dc:format>
        <dc:type
           rdf:resource="http://purl.org/dc/dcmitype/StillImage" />
        <dc:title></dc:title>
      </cc:Work>
    </rdf:RDF>
  </metadata>
  <g
     inkscape:label="Calque 1"
     inkscape:groupmode="layer"
     id="layer1"
     transform="translate(0,-290.64998)">
    <path
       style="fill:#000000;fill-opacity:1;fill-rule:evenodd;stroke:none;stroke-width:0.01903867px;stroke-linecap:butt;stroke-linejoin:miter;stroke-opacity:1"
       d="m 0.98531733,291.38718 c -0.0129,4.4e-4 -0.0259,10e-4 -0.0393,0.002 -0.23008,0.02 -0.30445,0.14042 -0.27275,0.26442 -0.0374,0.0279 -0.0595,0.0653 -0.0677,0.10765 -0.0971,0.0682 -0.0999,0.21677 -0.0189,0.35116 0.15289,0.25339 0.49408997,0.35748 0.74911997,0.56157 l -0.001,6e-4 -0.005,0.0137 0.60365,0.66769 0.0279,-0.0254 c 0.52589,0.61585 1.05189,1.23137 1.56623,1.90114 l -0.15579,0.15939 0.52594,0.84607 c 0.0191,0.0307 0.0667,0.0383 0.12805,0 l 0.47564,-0.29726 0.0503,-0.33386 -0.53964,-0.46191 -0.21433,0.0221 c -0.54335,-0.60782 -1.1474,-1.28601 -1.67548,-1.94611 l -0.0164,-0.0209 0.0312,-0.0284 -0.57169,-0.65629 -0.0427,0.0295 c -0.0365,-0.0505 -0.0676,-0.10488 -0.0963,-0.16085 0.0374,0.0162 0.0741,0.0337 0.10981,0.0528 l -0.001,10e-4 -0.002,0.0143 0.71535,0.5464 0.0228,-0.03 c 0.62939,0.50961 1.25877,1.01891 1.88663,1.58363 l -0.124101,0.18511 0.67142,0.73595 c 0.0243,0.0267 0.0726,0.0256 0.12592,-0.0233 l 0.41345,-0.37904 -0.0114,-0.33742 -0.61484,-0.35575 -0.20672,0.0608 c -0.645118,-0.49866 -1.362688,-1.05534 -2.002308,-1.60806 l -0.0199,-0.0175 0.0254,-0.0336 -0.68177,-0.541 -0.0365,0.0368 c -0.0708,-0.0675 -0.1301,-0.14679 -0.18807,-0.22694 0.0657,0.0129 0.13081,0.0283 0.19414,0.0487 l -9.71e-4,10e-4 5.61e-4,0.0144 0.80124,0.41025 0.0171,-0.0336 c 0.71012,0.38934 1.42015,0.77838 2.13857,1.22222 l -0.0891,0.20425 0.7918,0.6046 c 0.0287,0.0219 0.076,0.0122 0.11974,-0.0454 l 0.3393,-0.4466 -0.0714,-0.32999 -0.66838,-0.24054 -0.19258,0.0967 c -0.72363,-0.37485 -1.52892,-0.79479 -2.25675,-1.22473 l -0.0228,-0.0137 0.0191,-0.0376 -0.76725,-0.4109 -0.0294,0.0427 c -0.28128,-0.18483 -0.45302,-0.53337 -0.84603997,-0.52203 z m 0.0481,0.0682 c 0.27057,0.007 0.48931,0.32732 0.75822,0.5119 l -0.0496,0.0722 c -0.10112,-0.0328 -0.19948,-0.055 -0.29308,-0.073 -0.12903,-0.17571 -0.26882,-0.33646 -0.53099994,-0.36074 -0.075,-0.007 -0.13553,-2.9e-4 -0.18284,0.016 -0.006,-0.0815 0.085,-0.14191 0.24196,-0.16333 0.0191,-0.002 0.0378,-0.004 0.0564,-0.003 z m -0.14400994,0.22322 c 0.0149,-3e-4 0.0306,-1.6e-4 0.0468,5.8e-4 0.16141994,0.007 0.28330994,0.12303 0.40016994,0.26661 -0.0632,-0.0113 -0.12426,-0.0223 -0.18111,-0.0348 -0.0688,-0.0734 -0.15605994,-0.13242 -0.27584994,-0.16632 -0.033,-0.009 -0.0635,-0.0153 -0.0918,-0.0184 -0.009,-0.01 -0.0161,-0.019 -0.0226,-0.0283 0.0338,-0.0116 0.0755,-0.0182 0.12432,-0.0193 z m -0.1331,0.12538 c 0.003,0 0.006,3e-4 0.009,4.4e-4 0.0117,0.0115 0.0242,0.0226 0.0376,0.0332 0.0884,0.0694 0.19461,0.10895 0.30931994,0.13687 0.0631,0.0773 0.1154,0.17496 0.16744,0.27707 -0.20826,-0.0791 -0.39206994,-0.1361 -0.50795994,-0.25577 -0.0669,-0.0691 -0.0993,-0.12892 -0.10301,-0.17745 0.0241,-0.009 0.0535,-0.0141 0.0877,-0.0143 z m 0.16918,0.0287 c 0.0199,0.007 0.0389,0.0162 0.057,0.0267 -0.0197,-0.008 -0.0388,-0.017 -0.057,-0.0267 z m -0.31529,0.0311 c 0.0135,0.0531 0.0431,0.10787 0.0871,0.15741 0.15061,0.16954 0.39397994,0.23264 0.62909994,0.32222 0.0426,0.0834 0.0869,0.16649 0.13881,0.24123 l -0.0721,0.0499 c -0.28884,-0.23159 -0.59318994,-0.32913 -0.72865994,-0.53327 -0.0716,-0.1079 -0.0848,-0.18785 -0.0543,-0.23753 z m 0.61490994,0.13454 c 0.058,0.0109 0.11744,0.0206 0.17706,0.0307 0.0776,0.10102 0.15584,0.20762 0.24494,0.29587 l -0.0617,0.0623 c -0.0689,-0.037 -0.13727,-0.0681 -0.20404,-0.0955 -0.0482,-0.10142 -0.0944,-0.20359 -0.15622,-0.29335 z m 1.35557,0.37249 c 0.70096,0.44285 1.50018,0.85664 2.22506,1.22532 l -0.11643,0.0584 c -0.70131,-0.45916 -1.41819,-0.846 -2.13547,-1.2309 z m -0.229,0.49171 c 0.61085,0.56065 1.32355,1.11021 1.97117,1.60213 l -0.12501,0.0368 c -0.60832,-0.57672 -1.24482,-1.0851 -1.88207,-1.59162 z m -0.29175,0.37922 c 0.49836,0.66265 1.0989,1.33296 1.64595,1.93474 l -0.12961,0.0133 c -0.49295,-0.67799 -1.02605,-1.29391 -1.56023,-1.90815 z"
       id="path9906-2"
       inkscape:connector-curvature="0" />
  </g>
</svg>
