<?xml version="1.0" encoding="UTF-8" standalone="no"?>
<!-- Created with Inkscape (http://www.inkscape.org/) -->

<svg
   xmlns:dc="http://purl.org/dc/elements/1.1/"
   xmlns:cc="http://creativecommons.org/ns#"
   xmlns:rdf="http://www.w3.org/1999/02/22-rdf-syntax-ns#"
   xmlns:svg="http://www.w3.org/2000/svg"
   xmlns="http://www.w3.org/2000/svg"
   xmlns:sodipodi="http://sodipodi.sourceforge.net/DTD/sodipodi-0.dtd"
   xmlns:inkscape="http://www.inkscape.org/namespaces/inkscape"
   width="24"
   height="24"
   viewBox="0 0 6.3499999 6.3500002"
   version="1.1"
   id="svg7247"
   inkscape:version="0.92.1 r15371"
   sodipodi:docname="relais_2.svg">
  <defs
     id="defs7241" />
  <sodipodi:namedview
     id="base"
     pagecolor="#ffffff"
     bordercolor="#666666"
     borderopacity="1.0"
     inkscape:pageopacity="0.0"
     inkscape:pageshadow="2"
     inkscape:zoom="15.839192"
     inkscape:cx="22.829716"
     inkscape:cy="7.1040153"
     inkscape:document-units="mm"
     inkscape:current-layer="layer1"
     showgrid="false"
     units="px"
     inkscape:window-width="1366"
     inkscape:window-height="738"
     inkscape:window-x="0"
     inkscape:window-y="30"
     inkscape:window-maximized="1" />
  <metadata
     id="metadata7244">
    <rdf:RDF>
      <cc:Work
         rdf:about="">
        <dc:format>image/svg+xml</dc:format>
        <dc:type
           rdf:resource="http://purl.org/dc/dcmitype/StillImage" />
        <dc:title />
      </cc:Work>
    </rdf:RDF>
  </metadata>
  <g
     inkscape:label="Calque 1"
     inkscape:groupmode="layer"
     id="layer1"
     transform="translate(0,-290.64997)">
    <path
       style="color:#000000;font-style:normal;font-variant:normal;font-weight:normal;font-stretch:normal;font-size:medium;line-height:normal;font-family:sans-serif;font-variant-ligatures:normal;font-variant-position:normal;font-variant-caps:normal;font-variant-numeric:normal;font-variant-alternates:normal;font-feature-settings:normal;text-indent:0;text-align:start;text-decoration:none;text-decoration-line:none;text-decoration-style:solid;text-decoration-color:#000000;letter-spacing:normal;word-spacing:normal;text-transform:none;writing-mode:lr-tb;direction:ltr;text-orientation:mixed;dominant-baseline:auto;baseline-shift:baseline;text-anchor:start;white-space:normal;shape-padding:0;clip-rule:nonzero;display:inline;overflow:visible;visibility:visible;opacity:1;isolation:auto;mix-blend-mode:normal;color-interpolation:sRGB;color-interpolation-filters:linearRGB;solid-color:#000000;solid-opacity:1;vector-effect:none;fill:#000000;fill-opacity:1;fill-rule:nonzero;stroke:none;stroke-width:1.21322834;stroke-linecap:butt;stroke-linejoin:miter;stroke-miterlimit:4;stroke-dasharray:none;stroke-dashoffset:0;stroke-opacity:1;color-rendering:auto;image-rendering:auto;shape-rendering:auto;text-rendering:auto;enable-background:accumulate"
       d="M 2 4.03125 L 2 5.25 C 2.7649836 5.25 3.4482898 5.5573774 3.75 5.921875 C 3.9497598 6.163356 4.0042119 6.3689995 3.9394531 6.5859375 C 3.920383 6.5948032 3.8996707 6.5954156 3.8808594 6.6054688 C 3.6156167 6.7472316 3.4437376 6.9835617 3.3359375 7.2539062 C 2.9862334 7.4575602 2.5172426 7.6054688 2 7.6054688 L 2 8.8222656 C 2.4510954 8.8222656 2.8843775 8.7406864 3.2890625 8.6074219 C 3.3524965 8.860829 3.4498403 9.1182324 3.5839844 9.3691406 C 3.8639045 9.8927564 4.2479988 10.302315 4.6757812 10.550781 C 4.969898 10.72176 5.3040327 10.810112 5.625 10.779297 C 5.5284735 10.977809 5.4714571 11.201395 5.4570312 11.431641 C 5.4260769 11.925436 5.5521119 12.472478 5.8320312 12.996094 C 6.1119317 13.519634 6.4979807 13.92923 6.9257812 14.177734 C 7.0734041 14.263559 7.2316989 14.32318 7.3925781 14.365234 C 7.4532781 14.667079 7.5593796 14.973621 7.7207031 15.275391 C 8.0006036 15.798931 8.3788737 16.214349 8.8066406 16.462891 C 8.8402632 16.482408 8.8774634 16.494217 8.9121094 16.511719 C 9.0055768 18.427745 10.589161 19.96875 12.527344 19.96875 C 14.525107 19.96875 16.158203 18.335636 16.158203 16.337891 C 16.158203 15.656748 15.958475 15.024755 15.628906 14.478516 C 15.82157 14.33009 16.005205 14.155665 16.173828 13.953125 C 16.488322 13.575374 16.699152 13.164403 16.804688 12.755859 C 16.83641 12.746951 16.869022 12.744863 16.900391 12.734375 C 17.36956 12.577525 17.829125 12.25314 18.208984 11.796875 C 18.523933 11.41857 18.733867 11.003939 18.837891 10.59375 C 18.868833 10.584984 18.901073 10.582485 18.931641 10.572266 C 19.400785 10.415415 19.860351 10.09103 20.240234 9.6347656 C 20.502685 9.3195247 20.691194 8.9791021 20.808594 8.6367188 C 21.185801 8.7493709 21.583344 8.8222656 21.998047 8.8222656 L 21.998047 7.6054688 C 21.560493 7.6054688 21.159881 7.4979822 20.832031 7.34375 C 20.761158 7.1649832 20.661327 6.9985678 20.505859 6.8691406 C 20.377005 6.7618521 20.228199 6.6999414 20.074219 6.65625 C 19.970614 6.4123289 20.026609 6.1895596 20.248047 5.921875 C 20.549757 5.5573774 21.233063 5.25 21.998047 5.25 L 21.998047 4.03125 C 20.932044 4.03125 19.92433 4.4048655 19.310547 5.1464844 C 18.92015 5.6181914 18.780491 6.2260339 18.886719 6.796875 C 18.507874 6.9750714 18.145626 7.2584864 17.833984 7.6328125 C 17.519471 8.0105949 17.308664 8.4215763 17.203125 8.8300781 C 17.171479 8.8389773 17.138632 8.8411034 17.107422 8.8515625 C 16.638252 9.0084129 16.178711 9.3327601 15.798828 9.7890625 C 15.484335 10.166814 15.276075 10.582551 15.171875 10.992188 C 15.140314 11.001096 15.107344 11.003251 15.076172 11.013672 C 14.607032 11.1709 14.147437 11.494907 13.767578 11.951172 C 13.548104 12.21477 13.382517 12.495808 13.263672 12.78125 C 13.025327 12.731594 12.779876 12.705078 12.527344 12.705078 C 11.682859 12.705078 10.913486 13.010015 10.294922 13.498047 C 10.040164 13.119906 9.7290439 12.816852 9.3886719 12.619141 C 9.2405486 12.533032 9.0827711 12.476564 8.921875 12.435547 C 8.8613567 12.132486 8.7557416 11.824502 8.59375 11.521484 C 8.3138306 10.997906 7.9356127 10.584479 7.5078125 10.335938 C 7.2129681 10.164536 6.8772748 10.078725 6.5546875 10.113281 C 6.6504456 9.9132182 6.706274 9.6892836 6.7207031 9.4589844 C 6.7516953 8.9652647 6.6236731 8.4161561 6.34375 7.8925781 C 6.0638457 7.3690002 5.6797356 6.9594036 5.2519531 6.7109375 C 5.2125786 6.6880461 5.1695116 6.6743475 5.1289062 6.6542969 C 5.1885796 6.1262259 5.04554 5.5790954 4.6875 5.1464844 C 4.0737172 4.4048655 3.0660024 4.03125 2 4.03125 z M 4.9003906 7.3886719 C 5.1720264 7.5547308 5.4665185 7.8493141 5.6796875 8.2480469 C 5.9000906 8.6603177 5.9869984 9.0879893 5.9667969 9.4101562 C 5.9465764 9.732172 5.8348658 9.9155009 5.6914062 9.9921875 C 5.5479505 10.068912 5.3337799 10.058626 5.0546875 9.8964844 C 4.7755769 9.7343426 4.4684512 9.4259427 4.2480469 9.0136719 C 4.1138502 8.7626587 4.0447644 8.5142204 4.0039062 8.2792969 C 4.2597993 8.1203714 4.497245 7.9388766 4.6875 7.7089844 C 4.7707825 7.6083561 4.8397089 7.500014 4.9003906 7.3886719 z M 19.179688 7.5175781 C 19.221579 7.5821718 19.260491 7.6485034 19.310547 7.7089844 C 19.524417 7.967412 19.798499 8.163302 20.09375 8.3320312 C 20.011317 8.5956493 19.881155 8.8763458 19.65625 9.1464844 C 19.413995 9.4375943 19.137492 9.6299353 18.876953 9.7558594 C 18.825168 9.4745249 18.706911 9.2139436 18.480469 9.0253906 C 18.343172 8.9110638 18.183638 8.8481307 18.017578 8.8066406 C 18.104644 8.577404 18.223063 8.3403542 18.412109 8.1132812 C 18.649385 7.8284325 18.92221 7.6433983 19.179688 7.5175781 z M 17.910156 9.578125 C 17.935533 9.5913411 17.973688 9.5923093 17.994141 9.609375 C 18.058194 9.6626287 18.1053 9.7441576 18.132812 9.8515625 C 18.107335 9.838665 18.069523 9.8372678 18.048828 9.8203125 C 17.984775 9.7670588 17.937669 9.685535 17.910156 9.578125 z M 17.162109 9.6679688 C 17.215277 9.9514756 17.335489 10.215303 17.5625 10.404297 C 17.699447 10.518333 17.858793 10.580341 18.023438 10.621094 C 17.934677 10.848642 17.813762 11.083813 17.625 11.310547 C 17.382585 11.601565 17.106416 11.793933 16.845703 11.919922 C 16.792895 11.635249 16.673145 11.371308 16.445312 11.181641 C 16.308374 11.067605 16.149015 11.005596 15.984375 10.964844 C 16.073148 10.737429 16.194198 10.50194 16.382812 10.275391 C 16.625151 9.9841797 16.901494 9.7938848 17.162109 9.6679688 z M 6.7539062 10.855469 C 6.8602538 10.868508 6.983491 10.911117 7.1230469 10.992188 C 7.4021272 11.154329 7.7092832 11.462729 7.9296875 11.875 C 8.0357453 12.07338 8.1073857 12.274935 8.1542969 12.466797 C 8.109627 12.483756 8.0629095 12.490488 8.0195312 12.513672 C 7.6348807 12.719238 7.4306185 13.116713 7.3652344 13.546875 C 7.3431423 13.53556 7.3276638 13.536785 7.3046875 13.523438 C 7.0255732 13.361296 6.7242928 13.050905 6.5039062 12.638672 C 6.2835031 12.226401 6.1907359 11.802636 6.2109375 11.480469 C 6.2311202 11.158453 6.3428686 10.975124 6.4863281 10.898438 C 6.558056 10.860075 6.6475587 10.842429 6.7539062 10.855469 z M 15.876953 11.734375 C 15.901651 11.747533 15.938683 11.748743 15.958984 11.765625 C 16.023988 11.819669 16.071136 11.903337 16.099609 12.011719 C 16.075589 11.999245 16.039224 11.998556 16.019531 11.982422 L 16.019531 11.980469 C 15.955169 11.926958 15.905842 11.843759 15.876953 11.734375 z M 15.132812 11.824219 C 15.186865 12.107631 15.309054 12.370667 15.537109 12.560547 C 15.672696 12.673441 15.830151 12.735406 15.992188 12.777344 C 15.903679 13.007488 15.784012 13.246473 15.595703 13.472656 C 15.463751 13.631231 15.31644 13.756693 15.169922 13.867188 C 14.837104 13.511517 14.438875 13.219537 13.988281 13.019531 C 14.076426 12.825943 14.195534 12.627257 14.353516 12.4375 C 14.595018 12.147272 14.871746 11.951718 15.132812 11.824219 z M 8.9492188 13.25 C 8.9719077 13.261576 8.9880952 13.259714 9.0117188 13.273438 C 9.2623697 13.419072 9.5226535 13.697342 9.734375 14.048828 C 9.3625796 14.501118 9.0858286 15.032906 8.9667969 15.626953 C 8.7567098 15.45176 8.5480891 15.227372 8.3847656 14.921875 C 8.2795488 14.725064 8.2086848 14.525594 8.1601562 14.335938 C 8.2061645 14.318802 8.2542441 14.312889 8.2988281 14.289062 C 8.6837118 14.083356 8.8846138 13.68166 8.9492188 13.25 z M 12.527344 13.841797 C 12.721974 13.841797 12.908388 13.868629 13.089844 13.910156 C 13.13246 14.220472 13.254383 14.51067 13.501953 14.716797 C 13.811405 14.974458 14.214296 15.028922 14.607422 14.957031 C 14.868775 15.351767 15.021484 15.825742 15.021484 16.337891 C 15.021484 17.722861 13.912325 18.832031 12.527344 18.832031 C 11.236963 18.832031 10.196253 17.865036 10.058594 16.613281 C 10.101097 16.596947 10.146328 16.592316 10.1875 16.570312 C 10.622404 16.337872 10.826435 15.858992 10.857422 15.365234 C 10.873623 15.1068 10.8451 14.833434 10.775391 14.556641 C 11.22485 14.114624 11.842379 13.841797 12.527344 13.841797 z "
       transform="matrix(0.26458333,0,0,0.26458333,0,290.64997)"
       id="path7592-5-5" />
  </g>
</svg>
