<?xml version="1.0" encoding="UTF-8" standalone="no"?>
<!-- Created with Inkscape (http://www.inkscape.org/) -->

<svg
   xmlns:dc="http://purl.org/dc/elements/1.1/"
   xmlns:cc="http://creativecommons.org/ns#"
   xmlns:rdf="http://www.w3.org/1999/02/22-rdf-syntax-ns#"
   xmlns:svg="http://www.w3.org/2000/svg"
   xmlns="http://www.w3.org/2000/svg"
   xmlns:sodipodi="http://sodipodi.sourceforge.net/DTD/sodipodi-0.dtd"
   xmlns:inkscape="http://www.inkscape.org/namespaces/inkscape"
   width="24"
   height="24"
   viewBox="0 0 6.3499999 6.3500002"
   version="1.1"
   id="svg7194"
   inkscape:version="0.92.1 r15371"
   sodipodi:docname="relais_1.svg">
  <defs
     id="defs7188" />
  <sodipodi:namedview
     id="base"
     pagecolor="#ffffff"
     bordercolor="#666666"
     borderopacity="1.0"
     inkscape:pageopacity="0.0"
     inkscape:pageshadow="2"
     inkscape:zoom="3.959798"
     inkscape:cx="52.615118"
     inkscape:cy="18.491458"
     inkscape:document-units="mm"
     inkscape:current-layer="layer1"
     showgrid="false"
     units="px"
     inkscape:window-width="1366"
     inkscape:window-height="738"
     inkscape:window-x="0"
     inkscape:window-y="30"
     inkscape:window-maximized="1" />
  <metadata
     id="metadata7191">
    <rdf:RDF>
      <cc:Work
         rdf:about="">
        <dc:format>image/svg+xml</dc:format>
        <dc:type
           rdf:resource="http://purl.org/dc/dcmitype/StillImage" />
        <dc:title></dc:title>
      </cc:Work>
    </rdf:RDF>
  </metadata>
  <g
     inkscape:label="Calque 1"
     inkscape:groupmode="layer"
     id="layer1"
     transform="translate(0,-290.64998)">
    <g
       transform="translate(-144.55826,44.508375)"
       aria-label="?"
       style="font-style:normal;font-weight:normal;font-size:6.59092999px;line-height:125%;font-family:sans-serif;letter-spacing:0px;word-spacing:0px;fill:#000000;fill-opacity:1;stroke:none;stroke-width:0.16477324px;stroke-linecap:butt;stroke-linejoin:miter;stroke-opacity:1"
       id="text8218">
      <path
         inkscape:connector-curvature="0"
         id="path8279"
         style="stroke-width:0.16477324px"
         d="m 147.09318,250.94502 h 0.6533 v 0.81743 h -0.6533 z m 0.63399,-0.47308 h -0.61468 v -0.49561 q 0,-0.32504 0.0901,-0.53422 0.0901,-0.20919 0.37975,-0.48595 l 0.28964,-0.28643 q 0.18344,-0.17056 0.2639,-0.32182 0.0837,-0.15125 0.0837,-0.30895 0,-0.28642 -0.2124,-0.46342 -0.20919,-0.17701 -0.55676,-0.17701 -0.25424,0 -0.54388,0.11264 -0.28642,0.11264 -0.59859,0.32826 v -0.60502 q 0.30252,-0.18344 0.61147,-0.27355 0.31216,-0.0901 0.64364,-0.0901 0.59216,0 0.94938,0.31216 0.36044,0.31217 0.36044,0.82387 0,0.24458 -0.11586,0.46664 -0.11585,0.21884 -0.40549,0.49561 l -0.28321,0.27677 q -0.15125,0.15125 -0.21562,0.23815 -0.0611,0.0837 -0.0869,0.16413 -0.0193,0.0676 -0.029,0.16413 -0.01,0.0965 -0.01,0.26389 z m 2.65176,-3.19347 c -0.28204,0 -0.54867,0.0989 -0.71106,0.29507 -0.1033,0.1248 -0.14025,0.28563 -0.11214,0.43667 -0.10004,0.0472 -0.19572,0.1218 -0.27802,0.22065 -0.0832,0.1 -0.13951,0.20921 -0.16743,0.3173 -0.008,0.002 -0.0171,0.003 -0.0253,0.006 -0.0757,0.0253 -0.14999,0.0685 -0.21962,0.12454 -0.11699,0.17649 -0.14847,0.2206 -0.29249,0.44132 -0.14263,0.21859 -0.28058,0.43264 -0.39222,0.60875 l 0.008,0.41186 c 0.0711,0.0355 0.15256,0.0415 0.23358,0.0264 0.0698,0.10475 0.11059,0.23074 0.11059,0.36691 0,0.2434 -0.13069,0.4525 -0.32504,0.56689 l 0.006,0.32814 c 0.36079,-0.13856 0.6196,-0.48635 0.6196,-0.89452 0,-0.18059 -0.053,-0.34827 -0.14056,-0.49299 0.0513,-0.039 0.10005,-0.0844 0.14469,-0.13798 0.0828,-0.0995 0.13817,-0.20889 0.16588,-0.31677 0.009,-0.002 0.0181,-0.003 0.0269,-0.006 0.12414,-0.0415 0.24418,-0.12835 0.34469,-0.24909 0.0831,-0.0998 0.13894,-0.20884 0.16691,-0.31677 0.008,-0.002 0.017,-0.003 0.0253,-0.006 0.12413,-0.0416 0.24573,-0.12681 0.34624,-0.24752 0.0694,-0.0834 0.11931,-0.17401 0.15037,-0.26459 0.0998,0.0298 0.20496,0.0496 0.31471,0.0496 v -0.32246 c -0.11551,0 -0.22134,-0.0281 -0.30799,-0.0687 -0.0188,-0.0475 -0.045,-0.0912 -0.0863,-0.12557 -0.0342,-0.0285 -0.0738,-0.0453 -0.11472,-0.0568 -0.0271,-0.0644 -0.0124,-0.12321 0.046,-0.19378 0.0798,-0.0965 0.26062,-0.17984 0.46302,-0.17984 z m -5.29115,5.1e-4 v 0.31885 c 0.2024,0 0.38319,0.0833 0.46302,0.17983 0.0529,0.0638 0.0673,0.11828 0.0501,0.1757 -0.005,0.002 -0.0109,0.003 -0.016,0.006 -0.0702,0.0375 -0.11565,0.10007 -0.14418,0.17157 -0.0925,0.0537 -0.21641,0.092 -0.35295,0.092 v 0.32246 c 0.11916,0 0.23362,-0.0217 0.34055,-0.0568 0.0168,0.0672 0.0425,0.13551 0.078,0.20205 0.0741,0.13853 0.17568,0.2469 0.28887,0.31265 0.0778,0.0452 0.16571,0.0686 0.25064,0.0605 -0.0254,0.0529 -0.0401,0.11206 -0.0439,0.1726 -0.008,0.13064 0.0272,0.27437 0.10128,0.41289 0.0741,0.13854 0.17363,0.24793 0.28681,0.31368 0.0393,0.0228 0.0821,0.0384 0.12506,0.0491 0.0156,0.0801 0.0431,0.16156 0.0858,0.24133 0.0582,0.10888 0.13357,0.19837 0.21807,0.26407 l 0.004,-0.29043 c -0.0159,-0.0216 -0.0323,-0.042 -0.046,-0.0677 -0.0281,-0.0526 -0.047,-0.1062 -0.0594,-0.1571 0.0124,-0.005 0.0252,-0.007 0.0372,-0.0129 0.0281,-0.015 0.0515,-0.0346 0.0724,-0.0563 l 0.009,-0.66663 c -0.001,-0.002 -0.002,-0.004 -0.003,-0.006 -0.0741,-0.13853 -0.17621,-0.2474 -0.28938,-0.31316 -0.0778,-0.0452 -0.16572,-0.0686 -0.25064,-0.0605 0.0253,-0.0528 0.0408,-0.11167 0.0445,-0.17208 0.008,-0.13064 -0.0257,-0.2754 -0.0997,-0.41393 -0.0741,-0.13852 -0.17568,-0.24741 -0.28887,-0.31316 -0.0108,-0.006 -0.0224,-0.0101 -0.0336,-0.0155 0.0155,-0.13942 -0.0223,-0.28373 -0.11679,-0.39791 -0.1624,-0.19622 -0.42903,-0.29507 -0.71107,-0.29508 z m 0.76791,0.88574 c 0.0719,0.0439 0.14862,0.12315 0.20516,0.22893 0.0583,0.10907 0.0829,0.2212 0.0775,0.30644 -0.005,0.0852 -0.0365,0.13474 -0.0744,0.15503 -0.038,0.0203 -0.0946,0.0176 -0.16846,-0.0253 -0.0738,-0.0429 -0.15357,-0.12553 -0.21188,-0.23461 -0.0356,-0.0667 -0.0544,-0.13172 -0.0656,-0.19378 0.0677,-0.042 0.13053,-0.0906 0.18087,-0.15141 0.0222,-0.0268 0.0408,-0.0556 0.0568,-0.0853 z m 3.77704,0.0336 c 0.0112,0.0174 0.0216,0.0354 0.0351,0.0517 0.0566,0.0684 0.1291,0.12072 0.20722,0.16536 -0.0218,0.0697 -0.0563,0.14456 -0.11576,0.21601 -0.0641,0.077 -0.13723,0.1274 -0.20619,0.16071 -0.014,-0.0751 -0.0458,-0.14475 -0.10593,-0.19482 -0.0362,-0.0302 -0.0784,-0.0466 -0.12196,-0.0574 0.0235,-0.0602 0.0555,-0.12243 0.10542,-0.18242 0.0629,-0.0756 0.13424,-0.12559 0.20206,-0.15916 z m -0.3359,0.54467 c 0.007,0.003 0.0163,0.004 0.0217,0.008 0.0172,0.0143 0.0301,0.0367 0.0377,0.0661 -0.007,-0.003 -0.0164,-0.004 -0.0217,-0.008 v -5.1e-4 c -0.0171,-0.0142 -0.0301,-0.0365 -0.0377,-0.0656 z m -0.19689,0.0253 c 0.014,0.0751 0.0458,0.14475 0.10594,0.19482 0.0363,0.0302 0.0783,0.0466 0.12195,0.0574 -0.0235,0.0602 -0.0555,0.12196 -0.10542,0.1819 -0.0644,0.0774 -0.13798,0.12851 -0.20722,0.16175 -0.0135,-0.075 -0.0451,-0.14459 -0.10542,-0.19482 -0.0362,-0.0301 -0.078,-0.0466 -0.12144,-0.0574 0.0235,-0.0603 0.0554,-0.12232 0.10542,-0.18242 0.0641,-0.077 0.13723,-0.12791 0.20619,-0.16123 z m -2.75332,0.31368 v 5.1e-4 c 0.0281,0.003 0.0607,0.0147 0.0977,0.0362 0.0738,0.0429 0.15305,0.12554 0.21136,0.23461 0.028,0.0524 0.0476,0.10557 0.0605,0.15606 -0.0121,0.005 -0.0244,0.007 -0.0362,0.0129 -0.10176,0.0544 -0.15458,0.15868 -0.17156,0.27233 -0.006,-0.003 -0.01,-0.002 -0.016,-0.006 -0.0738,-0.0429 -0.1551,-0.1245 -0.21343,-0.23357 -0.0583,-0.10908 -0.0813,-0.22224 -0.076,-0.30748 0.005,-0.0852 0.0349,-0.13371 0.0729,-0.154 0.019,-0.0102 0.0427,-0.0148 0.0708,-0.0114 z m 2.41226,0.23306 c 0.007,0.003 0.0168,0.004 0.0222,0.008 0.0169,0.014 0.0299,0.0359 0.0372,0.0641 -0.007,-0.003 -0.0168,-0.004 -0.0222,-0.008 -0.0169,-0.0142 -0.03,-0.0351 -0.0372,-0.0636 z m -0.19637,0.0248 c 0.014,0.0741 0.046,0.14281 0.10593,0.19275 0.0361,0.0301 0.078,0.0466 0.12144,0.0579 -0.023,0.0608 -0.0548,0.12373 -0.1049,0.18397 -0.0351,0.0421 -0.0737,0.0756 -0.11266,0.1049 -0.0881,-0.0942 -0.19378,-0.17084 -0.31315,-0.22376 0.023,-0.0518 0.0536,-0.10503 0.0956,-0.15554 0.0642,-0.0772 0.13834,-0.12722 0.20774,-0.1602 z m -0.92088,2.09393 0.009,0.0274 c 0.0244,0.006 0.0477,0.0146 0.0729,0.0186 z" />
    </g>
  </g>
</svg>
