<?xml version="1.0" encoding="UTF-8" standalone="no"?>
<!-- Created with Inkscape (http://www.inkscape.org/) -->

<svg
   xmlns:dc="http://purl.org/dc/elements/1.1/"
   xmlns:cc="http://creativecommons.org/ns#"
   xmlns:rdf="http://www.w3.org/1999/02/22-rdf-syntax-ns#"
   xmlns:svg="http://www.w3.org/2000/svg"
   xmlns="http://www.w3.org/2000/svg"
   xmlns:sodipodi="http://sodipodi.sourceforge.net/DTD/sodipodi-0.dtd"
   xmlns:inkscape="http://www.inkscape.org/namespaces/inkscape"
   width="24"
   height="24"
   viewBox="0 0 6.3499999 6.3500002"
   version="1.1"
   id="svg6839"
   inkscape:version="0.92.1 r15371"
   sodipodi:docname="route_height.svg">
  <defs
     id="defs6833" />
  <sodipodi:namedview
     id="base"
     pagecolor="#ffffff"
     bordercolor="#666666"
     borderopacity="1.0"
     inkscape:pageopacity="0.0"
     inkscape:pageshadow="2"
     inkscape:zoom="2.8"
     inkscape:cx="-22.217123"
     inkscape:cy="-45.095185"
     inkscape:document-units="mm"
     inkscape:current-layer="layer1"
     showgrid="false"
     units="px"
     inkscape:window-width="1366"
     inkscape:window-height="738"
     inkscape:window-x="0"
     inkscape:window-y="30"
     inkscape:window-maximized="1" />
  <metadata
     id="metadata6836">
    <rdf:RDF>
      <cc:Work
         rdf:about="">
        <dc:format>image/svg+xml</dc:format>
        <dc:type
           rdf:resource="http://purl.org/dc/dcmitype/StillImage" />
        <dc:title></dc:title>
      </cc:Work>
    </rdf:RDF>
  </metadata>
  <g
     inkscape:label="Calque 1"
     inkscape:groupmode="layer"
     id="layer1"
     transform="translate(0,-290.64998)">
    <path
       id="path7591"
       style="color:#000000;font-style:normal;font-variant:normal;font-weight:normal;font-stretch:normal;font-size:medium;line-height:normal;font-family:sans-serif;font-variant-ligatures:normal;font-variant-position:normal;font-variant-caps:normal;font-variant-numeric:normal;font-variant-alternates:normal;font-feature-settings:normal;text-indent:0;text-align:start;text-decoration:none;text-decoration-line:none;text-decoration-style:solid;text-decoration-color:#000000;letter-spacing:normal;word-spacing:normal;text-transform:none;writing-mode:lr-tb;direction:ltr;text-orientation:mixed;dominant-baseline:auto;baseline-shift:baseline;text-anchor:start;white-space:normal;shape-padding:0;clip-rule:nonzero;display:inline;overflow:visible;visibility:visible;opacity:1;isolation:auto;mix-blend-mode:normal;color-interpolation:sRGB;color-interpolation-filters:linearRGB;solid-color:#000000;solid-opacity:1;vector-effect:none;fill:#000000;fill-opacity:1;fill-rule:evenodd;stroke:none;stroke-width:0.46215817;stroke-linecap:butt;stroke-linejoin:miter;stroke-miterlimit:4;stroke-dasharray:none;stroke-dashoffset:0;stroke-opacity:1;color-rendering:auto;image-rendering:auto;shape-rendering:auto;text-rendering:auto;enable-background:accumulate"
       d="m 4.8325186,291.17966 -0.98857,0.98806 0.326079,0.32659 0.662491,-0.66249 0.661976,0.66249 0.326078,-0.32659 z m -0.230476,1.15239 v 2.98638 h 0.460953 v -2.98638 z m -0.432015,2.82205 -0.326079,0.32814 0.98857,0.98857 0.988054,-0.98857 -0.326078,-0.32814 -0.661976,0.66249 z m -1.730644,-3.97495 a 0.4771789,0.4771789 0 0 0 -0.476974,0.47697 0.4771789,0.4771789 0 0 0 0.0863,0.27337 l -0.362768,0.81029 a 0.4771789,0.4771789 0 0 0 -0.420646,0.47335 0.4771789,0.4771789 0 0 0 0.440283,0.47543 l 0.215491,0.43046 a 0.4771789,0.4771789 0 0 0 -0.07493,0.2558 0.4771789,0.4771789 0 0 0 0.02946,0.1633 l -0.800468,0.98392 a 0.4771789,0.4771789 0 0 0 -0.06873,-0.006 0.4771789,0.4771789 0 0 0 -0.47697405,0.47749 0.4771789,0.4771789 0 0 0 0.47697405,0.47698 0.4771789,0.4771789 0 0 0 0.47749,-0.47698 0.4771789,0.4771789 0 0 0 -0.02894,-0.16278 l 0.800984,-0.98443 a 0.4771789,0.4771789 0 0 0 0.06718,0.006 0.4771789,0.4771789 0 0 0 0.477491,-0.47748 0.4771789,0.4771789 0 0 0 -0.441317,-0.47542 l -0.215491,-0.42944 a 0.4771789,0.4771789 0 0 0 0.07596,-0.25684 0.4771789,0.4771789 0 0 0 -0.08733,-0.27388 l 0.362252,-0.80977 a 0.4771789,0.4771789 0 0 0 0.422197,-0.47336 0.4771789,0.4771789 0 0 0 -0.477491,-0.47697 z"
       inkscape:connector-curvature="0" />
  </g>
</svg>
