<?xml version="1.0" encoding="UTF-8" standalone="no"?>
<!-- Created with Inkscape (http://www.inkscape.org/) -->

<svg
   xmlns:dc="http://purl.org/dc/elements/1.1/"
   xmlns:cc="http://creativecommons.org/ns#"
   xmlns:rdf="http://www.w3.org/1999/02/22-rdf-syntax-ns#"
   xmlns:svg="http://www.w3.org/2000/svg"
   xmlns="http://www.w3.org/2000/svg"
   xmlns:sodipodi="http://sodipodi.sourceforge.net/DTD/sodipodi-0.dtd"
   xmlns:inkscape="http://www.inkscape.org/namespaces/inkscape"
   width="24"
   height="24"
   viewBox="0 0 6.3499999 6.3500002"
   version="1.1"
   id="svg6797"
   inkscape:version="0.92.1 r15371"
   sodipodi:docname="route.svg">
  <defs
     id="defs6791" />
  <sodipodi:namedview
     id="base"
     pagecolor="#ffffff"
     bordercolor="#666666"
     borderopacity="1.0"
     inkscape:pageopacity="0.0"
     inkscape:pageshadow="2"
     inkscape:zoom="5.6"
     inkscape:cx="19.526464"
     inkscape:cy="24.287956"
     inkscape:document-units="mm"
     inkscape:current-layer="layer1"
     showgrid="false"
     units="px"
     inkscape:window-width="1366"
     inkscape:window-height="738"
     inkscape:window-x="0"
     inkscape:window-y="30"
     inkscape:window-maximized="1" />
  <metadata
     id="metadata6794">
    <rdf:RDF>
      <cc:Work
         rdf:about="">
        <dc:format>image/svg+xml</dc:format>
        <dc:type
           rdf:resource="http://purl.org/dc/dcmitype/StillImage" />
        <dc:title></dc:title>
      </cc:Work>
    </rdf:RDF>
  </metadata>
  <g
     inkscape:label="Calque 1"
     inkscape:groupmode="layer"
     id="layer1"
     transform="translate(0,-290.64998)">
    <path
       style="color:#000000;font-style:normal;font-variant:normal;font-weight:normal;font-stretch:normal;font-size:medium;line-height:normal;font-family:sans-serif;font-variant-ligatures:normal;font-variant-position:normal;font-variant-caps:normal;font-variant-numeric:normal;font-variant-alternates:normal;font-feature-settings:normal;text-indent:0;text-align:start;text-decoration:none;text-decoration-line:none;text-decoration-style:solid;text-decoration-color:#000000;letter-spacing:normal;word-spacing:normal;text-transform:none;writing-mode:lr-tb;direction:ltr;text-orientation:mixed;dominant-baseline:auto;baseline-shift:baseline;text-anchor:start;white-space:normal;shape-padding:0;clip-rule:nonzero;display:inline;overflow:visible;visibility:visible;opacity:1;isolation:auto;mix-blend-mode:normal;color-interpolation:sRGB;color-interpolation-filters:linearRGB;solid-color:#000000;solid-opacity:1;vector-effect:none;fill:#000000;fill-opacity:1;fill-rule:evenodd;stroke:none;stroke-width:0.48994353;stroke-linecap:butt;stroke-linejoin:miter;stroke-miterlimit:4;stroke-dasharray:none;stroke-dashoffset:0;stroke-opacity:1;color-rendering:auto;image-rendering:auto;shape-rendering:auto;text-rendering:auto;enable-background:accumulate"
       d="m 3.8912416,291.17955 a 0.4771789,0.4771789 0 0 0 -0.476974,0.47697 0.4771789,0.4771789 0 0 0 0.0863,0.27337 l -0.362768,0.81029 a 0.4771789,0.4771789 0 0 0 -0.420646,0.47335 0.4771789,0.4771789 0 0 0 0.441833,0.47542 l 0.214457,0.42944 a 0.4771789,0.4771789 0 0 0 -0.07545,0.25683 0.4771789,0.4771789 0 0 0 0.02946,0.1633 l -0.800984,0.98391 a 0.4771789,0.4771789 0 0 0 -0.0677,-0.006 0.4771789,0.4771789 0 0 0 -0.477491,0.47697 0.4771789,0.4771789 0 0 0 0.477491,0.47749 0.4771789,0.4771789 0 0 0 0.476973,-0.47749 0.4771789,0.4771789 0 0 0 -0.02946,-0.16278 l 0.800985,-0.98391 a 0.4771789,0.4771789 0 0 0 0.06821,0.005 0.4771789,0.4771789 0 0 0 0.476973,-0.47697 0.4771789,0.4771789 0 0 0 -0.441833,-0.47542 l -0.214457,-0.42995 a 0.4771789,0.4771789 0 0 0 0.07545,-0.25632 0.4771789,0.4771789 0 0 0 -0.08682,-0.27337 l 0.363285,-0.81028 a 0.4771789,0.4771789 0 0 0 0.420646,-0.47336 0.4771789,0.4771789 0 0 0 -0.47749,-0.47697 z"
       id="path7515"
       inkscape:connector-curvature="0" />
  </g>
</svg>
