<?xml version="1.0" encoding="UTF-8" standalone="no"?>
<!-- Created with Inkscape (http://www.inkscape.org/) -->

<svg
   xmlns:dc="http://purl.org/dc/elements/1.1/"
   xmlns:cc="http://creativecommons.org/ns#"
   xmlns:rdf="http://www.w3.org/1999/02/22-rdf-syntax-ns#"
   xmlns:svg="http://www.w3.org/2000/svg"
   xmlns="http://www.w3.org/2000/svg"
   xmlns:sodipodi="http://sodipodi.sourceforge.net/DTD/sodipodi-0.dtd"
   xmlns:inkscape="http://www.inkscape.org/namespaces/inkscape"
   width="24"
   height="24"
   viewBox="0 0 6.3499999 6.3500002"
   version="1.1"
   id="svg8004"
   inkscape:version="0.92.1 r15371"
   sodipodi:docname="stronger-2.svg">
  <defs
     id="defs7998" />
  <sodipodi:namedview
     id="base"
     pagecolor="#ffffff"
     bordercolor="#666666"
     borderopacity="1.0"
     inkscape:pageopacity="0.0"
     inkscape:pageshadow="2"
     inkscape:zoom="2.8"
     inkscape:cx="49.979566"
     inkscape:cy="32.532287"
     inkscape:document-units="mm"
     inkscape:current-layer="layer1"
     showgrid="false"
     units="px"
     inkscape:window-width="1366"
     inkscape:window-height="738"
     inkscape:window-x="0"
     inkscape:window-y="30"
     inkscape:window-maximized="1" />
  <metadata
     id="metadata8001">
    <rdf:RDF>
      <cc:Work
         rdf:about="">
        <dc:format>image/svg+xml</dc:format>
        <dc:type
           rdf:resource="http://purl.org/dc/dcmitype/StillImage" />
        <dc:title></dc:title>
      </cc:Work>
    </rdf:RDF>
  </metadata>
  <g
     inkscape:label="Calque 1"
     inkscape:groupmode="layer"
     id="layer1"
     transform="translate(0,-290.64998)">
    <path
       inkscape:connector-curvature="0"
       id="path7720-9"
       style="fill:#000000;stroke:none;stroke-width:0.50751281;stroke-miterlimit:4;stroke-dasharray:none"
       d="m 4.314631,293.52819 -1.139436,1.0684 -8.36e-4,9e-5 a 0.36761576,0.36761576 0 0 0 -0.287488,0.13927 0.36761576,0.36761576 0 0 0 0.05991,0.51636 0.36761576,0.36761576 0 0 0 0.516461,-0.0591 0.36761576,0.36761576 0 0 0 0.06987,-0.31119 z m -3.785139,1.43689 c 0,-0.94466 0.504164,-1.82064 1.322265,-2.29297 0.818102,-0.47233 1.828383,-0.47233 2.646485,0 0.818102,0.47233 1.322266,1.34831 1.322266,2.29297 H 5.068554 c 0,-0.67719 -0.360798,-1.30203 -0.947265,-1.64062 -0.586468,-0.3386 -1.306111,-0.3386 -1.892578,0 -0.586468,0.33859 -0.947266,0.96343 -0.947266,1.64062 z" />
  </g>
</svg>
