<?xml version="1.0" encoding="UTF-8" standalone="no"?>
<!-- Created with Inkscape (http://www.inkscape.org/) -->

<svg
   xmlns:dc="http://purl.org/dc/elements/1.1/"
   xmlns:cc="http://creativecommons.org/ns#"
   xmlns:rdf="http://www.w3.org/1999/02/22-rdf-syntax-ns#"
   xmlns:svg="http://www.w3.org/2000/svg"
   xmlns="http://www.w3.org/2000/svg"
   xmlns:sodipodi="http://sodipodi.sourceforge.net/DTD/sodipodi-0.dtd"
   xmlns:inkscape="http://www.inkscape.org/namespaces/inkscape"
   width="24"
   height="24"
   viewBox="0 0 4.4449999 4.4449999"
   version="1.1"
   id="svg7956"
   inkscape:version="0.92.1 r15371"
   sodipodi:docname="type_grimpe.svg">
  <defs
     id="defs7950" />
  <sodipodi:namedview
     id="base"
     pagecolor="#ffffff"
     bordercolor="#666666"
     borderopacity="1.0"
     inkscape:pageopacity="0.0"
     inkscape:pageshadow="2"
     inkscape:zoom="0.35"
     inkscape:cx="-70"
     inkscape:cy="560"
     inkscape:document-units="mm"
     inkscape:current-layer="layer1"
     showgrid="false"
     scale-x="0.7"
     units="px"
     inkscape:window-width="1366"
     inkscape:window-height="738"
     inkscape:window-x="0"
     inkscape:window-y="30"
     inkscape:window-maximized="1" />
  <metadata
     id="metadata7953">
    <rdf:RDF>
      <cc:Work
         rdf:about="">
        <dc:format>image/svg+xml</dc:format>
        <dc:type
           rdf:resource="http://purl.org/dc/dcmitype/StillImage" />
        <dc:title></dc:title>
      </cc:Work>
    </rdf:RDF>
  </metadata>
  <g
     inkscape:label="Calque 1"
     inkscape:groupmode="layer"
     id="layer1"
     transform="translate(0,-203.45498)">
    <path
       style="fill:#000000;fill-opacity:1;stroke-width:0.03773395"
       d="m 3.7008263,208.31139 c -0.012,-0.006 -0.0603,-0.0505 -0.10734,-0.0985 -0.0904,-0.0924 -0.11534,-0.11178 -0.18983,-0.14718 -0.0255,-0.0122 -0.0549,-0.0262 -0.0654,-0.0311 -0.0278,-0.0132 -0.0358,-0.0406 -0.0247,-0.084 0.005,-0.0178 0.008,-0.0395 0.008,-0.0481 0,-0.009 -0.0205,-0.0667 -0.0456,-0.12923 -0.0251,-0.0625 -0.0544,-0.13692 -0.0651,-0.16545 -0.0107,-0.0285 -0.0332,-0.0875 -0.0501,-0.13104 -0.0168,-0.0436 -0.0392,-0.10372 -0.0498,-0.13379 -0.0105,-0.03 -0.0273,-0.0755 -0.0372,-0.101 -0.0381,-0.098 -0.0521,-0.13617 -0.0521,-0.14223 0,-0.003 -0.004,-0.014 -0.008,-0.0235 -0.004,-0.009 -0.0238,-0.0627 -0.0432,-0.11822 -0.0193,-0.0556 -0.0418,-0.11821 -0.0499,-0.13923 -0.008,-0.021 -0.0217,-0.0604 -0.0301,-0.0874 -0.008,-0.0271 -0.0243,-0.0738 -0.0353,-0.10376 -0.011,-0.03 -0.0237,-0.0693 -0.0283,-0.0874 -0.0175,-0.0691 -0.053,-0.18178 -0.0689,-0.2184 -0.0194,-0.0447 -0.0521,-0.0955 -0.0713,-0.11062 -0.0115,-0.009 -0.0253,-0.0112 -0.0942,-0.0136 -0.0963,-0.003 -0.12264,-0.0113 -0.23255,-0.0684 -0.1,-0.052 -0.33097,-0.19269 -0.42057,-0.25614 -0.0453,-0.0321 -0.16961,-0.0986 -0.21832,-0.11688 -0.0388,-0.0145 -0.0506,-0.0101 -0.0714,0.0262 -0.0674,0.11758 -0.13789,0.19759 -0.26385,0.29933 -0.14031,0.11334 -0.20608,0.17476 -0.24079,0.22482 -0.0175,0.0252 -0.0182,0.0284 -0.0185,0.0781 0,0.0592 -0.006,0.0765 -0.0323,0.0904 -0.0233,0.0125 -0.0619,0.009 -0.10335997,-0.0103 -0.0227,-0.0104 -0.0407,-0.0146 -0.0632,-0.0146 -0.0453,0 -0.18017,0.0149 -0.22155,0.0246 -0.0512,0.0119 -0.0708,0.0108 -0.0867,-0.005 -0.0102,-0.0103 -0.0134,-0.0191 -0.0134,-0.0382 0,-0.0214 0.003,-0.0276 0.0207,-0.0456 0.0327,-0.0327 0.14889,-0.0943 0.24643,-0.1306 0.0285,-0.0106 0.0565,-0.0232 0.0622,-0.0282 0.013,-0.0111 0.0853,-0.12226 0.11649997,-0.17925 0.0128,-0.0234 0.0392,-0.0635 0.0585,-0.089 0.0393,-0.0517 0.10713,-0.14484 0.12805,-0.17566 0.007,-0.0112 0.0296,-0.0401 0.0491,-0.0646 0.0628,-0.0789 0.13858,-0.17627 0.17171,-0.22057 0.0524,-0.07 0.12288,-0.1163 0.20215,-0.13251 0.0369,-0.008 0.0493,-0.008 0.0842,-0.002 0.0329,0.005 0.18822,0.0529 0.2699,0.0825 0.0797,0.0289 0.21641,0.0663 0.24481,0.0671 0.0463,0.001 0.047,-0.001 0.0413,-0.1247 -0.0132,-0.28253 -0.0379,-0.47121 -0.0827,-0.63337 -0.0204,-0.0738 -0.0269,-0.087 -0.0463,-0.0943 -0.0637,-0.0243 -0.1311,-0.0443 -0.16793,-0.0499 -0.0409,-0.006 -0.18504,-0.0347 -0.26446,-0.0524 -0.0195,-0.004 -0.0456,-0.008 -0.0579,-0.008 -0.0334,0 -0.0656,-0.0136 -0.0995,-0.0416 -0.0375,-0.0309 -0.0404,-0.0351 -0.0632,-0.0909 -0.0332,-0.0814 -0.13503,-0.2571 -0.22074,-0.38096 -0.099,-0.14305 -0.10949,-0.16034 -0.12309,-0.20344 -0.0182,-0.0576 -0.0183,-0.10585 0,-0.13383 0.0402,-0.0631 0.0898,-0.0945 0.16162,-0.10217 0.0464,-0.005 0.0534,0.002 0.0606,0.0609 0.004,0.0296 0.008,0.046 0.0157,0.0534 0.0104,0.0106 0.0107,0.0104 0.0323,-0.007 0.0451,-0.0363 0.11479,-0.0339 0.11479,0.004 0,0.0219 -0.0465,0.11249 -0.0635,0.12361 -0.0131,0.009 -0.0139,0.0117 -0.0119,0.043 0.001,0.0225 0.007,0.0429 0.0164,0.0611 0.008,0.015 0.0209,0.0432 0.029,0.0626 0.017,0.0407 0.0743,0.12531 0.11443,0.16908 0.0151,0.0165 0.0345,0.0392 0.043,0.0505 0.0101,0.0132 0.0225,0.0222 0.0353,0.0257 0.069,0.0181 0.18233,0.0388 0.24065,0.0439 0.0375,0.003 0.13038,0.012 0.20643,0.0194 0.18136,0.0177 0.20971,0.0177 0.2273,0 0.0174,-0.0174 0.0169,-0.028 -0.004,-0.0785 -0.0278,-0.0687 -0.0485,-0.13291 -0.0485,-0.15077 0,-0.009 0.003,-0.0254 0.006,-0.0358 0.003,-0.0105 0.008,-0.0395 0.011,-0.0646 0.008,-0.0679 0.0165,-0.0796 0.10328,-0.14138 0.0769,-0.0548 0.10711,-0.0678 0.17083,-0.0742 0.0644,-0.006 0.10462,0 0.13106,0.0199 0.009,0.007 0.0322,0.0206 0.0506,0.03 0.0367,0.0185 0.0525,0.0383 0.061,0.076 0.003,0.0125 0.0133,0.037 0.0232,0.0545 0.0265,0.0463 0.0257,0.0836 -0.004,0.19588 -0.002,0.007 0.002,0.0168 0.0107,0.0273 l 0.0137,0.0159 0.0198,-0.0191 c 0.0109,-0.0105 0.0378,-0.0461 0.0597,-0.0792 0.0219,-0.033 0.0481,-0.0702 0.0583,-0.0823 0.0101,-0.0123 0.0368,-0.0485 0.0593,-0.0806 0.0225,-0.0321 0.0703,-0.10025 0.10632,-0.15141 0.17632,-0.25077 0.22703,-0.32761 0.24633,-0.37331 0.009,-0.022 0.0153,-0.0501 0.0188,-0.0874 0.007,-0.0797 0.0148,-0.11629 0.03,-0.14619 0.0206,-0.0408 0.0302,-0.0479 0.0637,-0.0479 0.0361,0 0.0722,-0.0211 0.0976,-0.0573 0.0265,-0.0376 0.0409,-0.0351 0.0877,0.0149 0.0617,0.0658 0.0806,0.1182 0.0619,0.1714 -0.009,0.0264 -0.0538,0.10034 -0.0683,0.1134 -0.006,0.005 -0.0189,0.0139 -0.0288,0.0188 -0.0225,0.0114 -0.0876,0.0863 -0.13077,0.15061 -0.0418,0.0622 -0.10357,0.18709 -0.14679,0.29678 -0.0517,0.13112 -0.15494,0.3396 -0.19969,0.40312 -0.0831,0.11791 -0.12138,0.20375 -0.1466,0.32844 -0.0134,0.0662 -0.0136,0.0707 -0.008,0.16709 0.003,0.0545 0.007,0.10762 0.009,0.11814 0.004,0.0297 0.0281,0.13672 0.0491,0.2221 0.0105,0.0426 0.025,0.11875 0.0322,0.16926 0.0151,0.10522 0.0199,0.12103 0.0721,0.23656 0.0588,0.13015 0.0937,0.21146 0.1114,0.25936 0.009,0.0241 0.0184,0.046 0.0212,0.0489 0.003,0.003 0.005,0.0252 0.005,0.0495 0,0.0391 -0.002,0.0457 -0.0123,0.0556 -0.03,0.0274 -0.053,0.0298 -0.0956,0.0101 -0.021,-0.0101 -0.0321,-0.0122 -0.0411,-0.009 -0.0246,0.009 -0.0263,0.0163 -0.0203,0.083 0.003,0.0341 0.0106,0.13574 0.0168,0.22583 0.006,0.0901 0.0148,0.18714 0.0192,0.21568 0.0147,0.0952 0.058,0.30474 0.0909,0.43955 0.006,0.024 0.014,0.0621 0.0181,0.0847 0.004,0.0225 0.0249,0.12572 0.0462,0.22934 0.0213,0.10359 0.0434,0.21665 0.0491,0.25124 0.006,0.0346 0.0139,0.0776 0.0182,0.0955 0.004,0.018 0.0133,0.0597 0.02,0.0927 0.0264,0.12982 0.0611,0.2622 0.0764,0.29176 0.009,0.0167 0.025,0.0419 0.0364,0.056 0.0339,0.0418 0.11619,0.13586 0.15027,0.17175 0.024,0.0253 0.0351,0.0426 0.0452,0.0704 0.0166,0.0459 0.0169,0.0667 10e-4,0.0904 -0.0285,0.0424 -0.0759,0.0548 -0.12118,0.0316 z"
       id="path5934-3"
       inkscape:connector-curvature="0"
       inkscape:export-filename="/home/lucien/Documents/Carnet de croix web/Maquette/identifiant.png"
       inkscape:export-xdpi="18.164171"
       inkscape:export-ydpi="18.164171" />
  </g>
</svg>
