<?xml version="1.0" encoding="UTF-8" standalone="no"?>
<svg version="1.1" viewBox="0 0 25.89868 24.999999" height="7.0555553mm" width="7.3091831mm">
  <g transform="translate(-378.28044,-439.36014)">
    <path d="m 397.74521,464.36014 c 0.27167,-0.51062 0.24438,-1.02124 0.0818,-1.53186 -2.66948,0.0151 -3.05407,-1.99346 -3.92157,-3.57435 1.17395,0.51622 2.39626,0.87774 3.83987,0.53105 0.94308,-1.4991 2.27711,-2.8449 5.96405,-3.26798 -1.48418,-0.78978 -2.82675,-1.91616 -2.65524,-3.43137 0.16923,-1.49504 1.69741,-2.46467 3.125,-3.34967 -0.62803,-0.47239 -1.47844,-0.59204 -1.77696,-1.61356 -0.38102,-1.3039 0.28864,-2.628 0.8987,-3.942 -2.41053,1.5492 -4.77649,3.87511 -7.35294,3.67647 -2.23861,-0.17259 -0.95416,-3.85898 -1.30719,-5.88235 -1.04168,0.41208 -2.1091,0.78291 -3.125,0.55147 -1.57763,-0.3594 -1.9268,-2.00704 -2.69608,-3.16585 -0.17792,1.30462 0.0817,2.84678 -0.87827,3.79902 -0.98016,0.97224 -2.26034,0.82728 -3.39052,1.18464 1.0126,1.47039 2.58284,2.78652 2.36929,4.92239 -0.25331,2.53354 -5.74319,0.60138 -8.63971,0.87826 2.83012,2.34983 2.71656,3.85285 1.59313,5.06536 3.71006,0.76312 5.57929,2.34245 3.5335,5.65768 2.24508,-0.31162 4.47249,-0.89689 6.82189,0.4085 0.90551,-0.34462 1.811,-0.63656 2.71651,-1.61356 0.0882,2.18899 1.17198,3.79514 3.49264,4.67728 z" style="opacity:1;fill:#4d4d4d;fill-opacity:1;fill-rule:evenodd;stroke:none;stroke-width:1px;stroke-linecap:butt;stroke-linejoin:miter;stroke-opacity:1" />
  </g>
</svg>
