<?xml version="1.0" encoding="UTF-8" standalone="no"?>
<svg
   version="1.1"
   viewBox="0 0 100.61393 100.61393"
   height="28.395487mm"
   width="28.395487mm">
  <g
     transform="translate(-299.43062,-288.93568)"
     id="layer1">
    <path
       id="path6326"
       d="m 349.73758,288.93568 -11.20135,39.10561 11.20135,11.20135 0,-42.84708 9.54034,33.30673 1.66102,-1.661 z"
       style="fill:#4d4d4d;fill-rule:evenodd;stroke:none;stroke-width:1px;stroke-linecap:butt;stroke-linejoin:miter;stroke-opacity:1" />
    <path
       id="path6328"
       d="m 338.53623,328.04129 -39.10561,11.20135 39.10561,11.20136 11.20135,-11.20136 -42.84704,0 33.30671,-9.54033 z"
       style="fill:#4d4d4d;fill-opacity:1;fill-rule:evenodd;stroke:none;stroke-width:1px;stroke-linecap:butt;stroke-linejoin:miter;stroke-opacity:1" />
    <path
       style="fill:#4d4d4d;fill-rule:evenodd;stroke:none;stroke-width:1px;stroke-linecap:butt;stroke-linejoin:miter;stroke-opacity:1"
       d="m 400.04455,339.24264 -39.10561,-11.20135 -11.20136,11.20135 42.84709,0 -33.30672,9.54034 1.66099,1.66104 z"
       id="path6330" />
    <path
       id="path6332"
       d="m 349.73758,389.54961 11.20136,-39.10561 -11.20136,-11.20136 0,42.84708 -9.54033,-33.30671 -1.66102,1.66099 z"
       style="fill:#4d4d4d;fill-rule:evenodd;stroke:none;stroke-width:1px;stroke-linecap:butt;stroke-linejoin:miter;stroke-opacity:1" />
    <path
       id="path6334"
       d="m 330.74892,348.21342 -10.44405,20.46194 20.46195,-10.44405 -2.23059,-7.78731 z"
       style="fill:#4d4d4d;fill-opacity:1;fill-rule:evenodd;stroke:none;stroke-width:1px;stroke-linecap:butt;stroke-linejoin:miter;stroke-opacity:1" />
    <path
       style="fill:#4d4d4d;fill-opacity:1;fill-rule:evenodd;stroke:none;stroke-width:1px;stroke-linecap:butt;stroke-linejoin:miter;stroke-opacity:1"
       d="m 340.76682,320.25398 -20.46195,-10.44405 10.44405,20.46195 7.78731,-2.23059 z"
       id="path6336" />
    <path
       id="path6338"
       d="m 368.72625,330.27188 10.44405,-20.46195 -20.46194,10.44406 2.23058,7.7873 z"
       style="fill:#4d4d4d;fill-opacity:1;fill-rule:evenodd;stroke:none;stroke-width:1px;stroke-linecap:butt;stroke-linejoin:miter;stroke-opacity:1" />
    <path
       style="fill:#4d4d4d;fill-opacity:1;fill-rule:evenodd;stroke:none;stroke-width:1px;stroke-linecap:butt;stroke-linejoin:miter;stroke-opacity:1"
       d="m 358.70836,358.23133 20.46194,10.44403 -10.44405,-20.46194 -7.78731,2.23058 z"
       id="path6340" />
  </g>
</svg>
