<?xml version="1.0" encoding="UTF-8" standalone="no"?>
<!-- Created with Inkscape (http://www.inkscape.org/) -->

<svg
   xmlns:dc="http://purl.org/dc/elements/1.1/"
   xmlns:cc="http://creativecommons.org/ns#"
   xmlns:rdf="http://www.w3.org/1999/02/22-rdf-syntax-ns#"
   xmlns:svg="http://www.w3.org/2000/svg"
   xmlns="http://www.w3.org/2000/svg"
   xmlns:sodipodi="http://sodipodi.sourceforge.net/DTD/sodipodi-0.dtd"
   xmlns:inkscape="http://www.inkscape.org/namespaces/inkscape"
   height="297mm"
   width="210mm"
   viewBox="0 0 744.09448819 1052.3622047"
   id="svg2"
   version="1.1"
   inkscape:version="0.92.1 r15371"
   sodipodi:docname="logo.svg"
   inkscape:export-filename="/var/www/html/oblyk.org/resources/workfolder/logo.svg.png"
   inkscape:export-xdpi="184.48"
   inkscape:export-ydpi="184.48">
  <defs
     id="defs8" />
  <sodipodi:namedview
     pagecolor="#ffffff"
     bordercolor="#666666"
     borderopacity="1"
     objecttolerance="10"
     gridtolerance="10"
     guidetolerance="10"
     inkscape:pageopacity="0"
     inkscape:pageshadow="2"
     inkscape:window-width="1366"
     inkscape:window-height="738"
     id="namedview6"
     showgrid="false"
     inkscape:zoom="1.4142136"
     inkscape:cx="601.52161"
     inkscape:cy="878.5794"
     inkscape:window-x="0"
     inkscape:window-y="30"
     inkscape:window-maximized="1"
     inkscape:current-layer="svg2"
     showguides="false"
     inkscape:guide-bbox="true"
     inkscape:object-nodes="true"
     inkscape:snap-bbox="true"
     inkscape:snap-bbox-midpoints="false"
     inkscape:snap-center="true"
     inkscape:bbox-nodes="true">
    <sodipodi:guide
       position="318.039,839.71192"
       orientation="1,0"
       id="guide6265"
       inkscape:locked="false" />
    <sodipodi:guide
       position="262.91637,964.95569"
       orientation="0.49452406,0.86916394"
       id="guide6267"
       inkscape:locked="false" />
    <sodipodi:guide
       position="245.65422,839.71192"
       orientation="1,0"
       id="guide6269"
       inkscape:locked="false" />
    <sodipodi:guide
       position="562,768.50001"
       orientation="1,0"
       id="guide6271"
       inkscape:locked="false" />
    <sodipodi:guide
       position="256.0186,967.8304"
       orientation="0,1"
       id="guide6273"
       inkscape:locked="false" />
    <sodipodi:guide
       position="141.64806,1041.3536"
       orientation="0,1"
       id="guide7064"
       inkscape:locked="false" />
    <sodipodi:guide
       position="307.12477,1086.642"
       orientation="0,1"
       id="guide7066"
       inkscape:locked="false" />
    <sodipodi:guide
       position="141.64806,977.35773"
       orientation="0,1"
       id="guide7068"
       inkscape:locked="false" />
    <sodipodi:guide
       position="160.53291,901.03425"
       orientation="0,1"
       id="guide7122"
       inkscape:locked="false" />
    <sodipodi:guide
       position="100.88467,839.71192"
       orientation="1,0"
       id="guide7209"
       inkscape:locked="false" />
    <sodipodi:guide
       position="173.26944,839.71192"
       orientation="1,0"
       id="guide7211"
       inkscape:locked="false" />
    <sodipodi:guide
       position="379.36133,839.71192"
       orientation="1,0"
       id="guide7237"
       inkscape:locked="false" />
    <sodipodi:guide
       position="390.42377,804.81673"
       orientation="1,0"
       id="guide7249"
       inkscape:locked="false" />
    <sodipodi:guide
       position="41.670828,640.92428"
       orientation="1,0"
       id="guide7337"
       inkscape:locked="false" />
    <sodipodi:guide
       position="76.716482,640.92428"
       orientation="1,0"
       id="guide7339"
       inkscape:locked="false" />
    <sodipodi:guide
       position="59.193655,642.76974"
       orientation="1,0"
       id="guide7341"
       inkscape:locked="false" />
    <sodipodi:guide
       position="76.716482,640.92428"
       orientation="-0.70710678,0.70710678"
       id="guide7343"
       inkscape:locked="false" />
    <sodipodi:guide
       position="59.193655,640.99231"
       orientation="0.70710678,0.70710678"
       id="guide7345"
       inkscape:locked="false" />
    <sodipodi:guide
       position="59.193655,640.99231"
       orientation="-0.70710678,0.70710678"
       id="guide7347"
       inkscape:locked="false" />
    <sodipodi:guide
       position="41.670828,640.92428"
       orientation="0.70710678,0.70710678"
       id="guide7349"
       inkscape:locked="false" />
    <sodipodi:guide
       position="50.398227,632.19688"
       orientation="1,0"
       id="guide7351"
       inkscape:locked="false" />
    <sodipodi:guide
       position="67.989083,632.19688"
       orientation="1,0"
       id="guide7353"
       inkscape:locked="false" />
  </sodipodi:namedview>
  <metadata
     id="metadata4">
    <rdf:RDF>
      <cc:Work
         rdf:about="">
        <dc:format>image/svg+xml</dc:format>
        <dc:type
           rdf:resource="http://purl.org/dc/dcmitype/StillImage" />
        <dc:title />
      </cc:Work>
    </rdf:RDF>
  </metadata>
  <g
     id="g7057"
     transform="matrix(0.2977035,0,0,0.2977035,13.309342,11.7437)"
     inkscape:export-filename="/var/www/html/oblyk.org/resources/assets/img/fav_icon.png"
     inkscape:export-xdpi="184.47934"
     inkscape:export-ydpi="184.47934">
    <rect
       y="16.721855"
       x="18.951439"
       height="163.87421"
       width="163.87421"
       id="rect6242"
       style="fill:#ec4728" />
    <path
       sodipodi:nodetypes="cccccccc"
       inkscape:connector-curvature="0"
       id="path6250"
       d="m 18.951172,140.64648 0,39.94922 98.648438,0 52.58789,-52.58789 -58.77761,-3.61386 -24.622503,3.61444 -55.197543,-5.8e-4 z"
       style="fill:#000000;fill-opacity:0.21182269;fill-rule:evenodd;stroke:none;stroke-width:1px;stroke-linecap:butt;stroke-linejoin:miter;stroke-opacity:1" />
    <g
       style="fill:#ffffff"
       transform="matrix(1.1817327,0,0,1.1817327,-361.61786,-318.12571)"
       id="layer1">
      <path
         inkscape:connector-curvature="0"
         id="path4529"
         d="m 396.05664,314.61719 -30.4043,41.7539 13.79493,21.1543 10.61132,10.96484 10.22461,-14.02343 15.76953,16.29492 9.65235,-13.23633 24.3164,0 -53.96484,-62.9082 z M 379.44727,377.52539 362.78516,360.31055 352.80859,350 l -20.07031,27.52539 46.70899,0 z"
         style="fill:#ffffff;fill-opacity:1;fill-rule:evenodd;stroke:none;stroke-width:1px;stroke-linecap:butt;stroke-linejoin:miter;stroke-opacity:1" />
    </g>
  </g>
  <path
     style="fill:#4d4d4d;fill-rule:evenodd;stroke:none;stroke-width:1px;stroke-linecap:butt;stroke-linejoin:miter;stroke-opacity:1"
     d="m 141.64806,11.008594 -7.12467,24.873276 7.12467,7.124673 0,-27.25306 6.06817,21.184872 1.0565,-1.056483 z"
     id="path6326"
     inkscape:connector-curvature="0" />
  <path
     style="fill:#4d4d4d;fill-opacity:1;fill-rule:evenodd;stroke:none;stroke-width:1px;stroke-linecap:butt;stroke-linejoin:miter;stroke-opacity:1"
     d="m 134.52339,35.88187 -24.87328,7.124673 24.87328,7.124671 7.12467,-7.124671 -27.25304,0 21.18487,-6.068169 z"
     id="path6328"
     inkscape:connector-curvature="0" />
  <path
     inkscape:connector-curvature="0"
     id="path6330"
     d="m 173.64601,43.006544 -24.87328,-7.124672 -7.12467,7.124672 27.25306,0 -21.18487,6.068168 1.05648,1.056504 z"
     style="fill:#4d4d4d;fill-rule:evenodd;stroke:none;stroke-width:1px;stroke-linecap:butt;stroke-linejoin:miter;stroke-opacity:1" />
  <path
     style="fill:#4d4d4d;fill-rule:evenodd;stroke:none;stroke-width:1px;stroke-linecap:butt;stroke-linejoin:miter;stroke-opacity:1"
     d="m 141.64806,75.004491 7.12467,-24.873277 -7.12467,-7.124672 0,27.25306 -6.06817,-21.184873 -1.0565,1.056485 z"
     id="path6332"
     inkscape:connector-curvature="0" />
  <path
     style="fill:#4d4d4d;fill-opacity:1;fill-rule:evenodd;stroke:none;stroke-width:1px;stroke-linecap:butt;stroke-linejoin:miter;stroke-opacity:1"
     d="m 129.57024,48.71244 -6.64298,13.014903 13.01491,-6.642981 -1.41878,-4.953148 z"
     id="path6334"
     inkscape:connector-curvature="0" />
  <path
     inkscape:connector-curvature="0"
     id="path6336"
     d="m 135.94217,30.92872 -13.01491,-6.642978 6.64298,13.014906 4.95315,-1.418777 z"
     style="fill:#4d4d4d;fill-opacity:1;fill-rule:evenodd;stroke:none;stroke-width:1px;stroke-linecap:butt;stroke-linejoin:miter;stroke-opacity:1" />
  <path
     style="fill:#4d4d4d;fill-opacity:1;fill-rule:evenodd;stroke:none;stroke-width:1px;stroke-linecap:butt;stroke-linejoin:miter;stroke-opacity:1"
     d="m 153.72588,37.300648 6.64298,-13.014906 -13.0149,6.642984 1.41877,4.953145 z"
     id="path6338"
     inkscape:connector-curvature="0" />
  <path
     inkscape:connector-curvature="0"
     id="path6340"
     d="m 147.35396,55.084365 13.0149,6.642978 -6.64298,-13.014906 -4.95315,1.418777 z"
     style="fill:#4d4d4d;fill-opacity:1;fill-rule:evenodd;stroke:none;stroke-width:1px;stroke-linecap:butt;stroke-linejoin:miter;stroke-opacity:1" />
  <path
     style="fill:#4d4d4d;fill-opacity:1;fill-rule:evenodd;stroke:none;stroke-width:1px;stroke-linecap:butt;stroke-linejoin:miter;stroke-opacity:1"
     d="m 221.28784,11.008627 -6.40599,8.581998 -9.47968,-3.583609 -1.66614,10.118853 -9.86032,1.407589 3.20298,9.221158 -7.94281,7.045134 7.94281,6.147437 -3.71287,9.228339 10.37021,2.17602 1.66614,9.479694 9.47968,-3.332256 5.76682,7.684298 6.65735,-7.555031 9.99676,3.202989 1.40758,-9.738232 9.35042,-1.666128 -2.94444,-9.601779 8.19417,-5.766813 -8.32345,-7.303672 3.58362,-8.833351 -9.6018,-1.414774 -1.53685,-10.628747 -9.86749,3.712881 -6.2767,-8.581998 z m -0.10767,11.109916 a 21.211695,21.211695 0 0 1 21.20722,21.207223 21.211695,21.211695 0 0 1 -21.20722,21.214403 21.211695,21.211695 0 0 1 -21.21441,-21.214403 21.211695,21.211695 0 0 1 21.21441,-21.207223 z m 0,2.944449 A 18.265501,18.265501 0 0 0 202.9102,43.325766 18.265501,18.265501 0 0 0 221.18017,61.595719 18.265501,18.265501 0 0 0 239.44294,43.325766 18.265501,18.265501 0 0 0 221.18017,25.062992 Z"
     id="path6257"
     inkscape:connector-curvature="0" />
  <path
     style="fill:#4d4d4d;fill-opacity:1;fill-rule:evenodd;stroke:none;stroke-width:1px;stroke-linecap:butt;stroke-linejoin:miter;stroke-opacity:1"
     d="m 369.89999,11.00882 c -1.89763,-0.02028 -3.79338,1.133253 -3.79331,3.521856 l 0,5.693667 -4.05748,-3.206354 c -3.26625,-2.581424 -6.52157,2.336333 -3.66859,4.512379 l 7.72607,5.89177 0,8.929373 -7.93152,-4.571077 -1.50411,-9.560373 c -0.27012,-1.712767 -1.68608,-2.46507 -3.00094,-2.311217 -1.31482,0.153873 -2.52923,1.215506 -2.38456,3.132984 l 0.37417,4.974623 -4.58579,-2.648729 c -3.99688,-2.3076 -7.9379,4.18561 -3.80067,6.574131 l 4.9306,2.846832 -4.80584,1.907673 c -3.86871,1.537946 -1.22715,6.812258 2.08374,5.429527 l 8.95874,-3.74197 7.74075,4.468355 -7.93152,4.578413 -9.0321,-3.477832 c -3.23674,-1.244915 -5.44688,3.410437 -1.98103,5.07734 l 4.49768,2.164475 -4.59306,2.648729 c -3.99689,2.30761 -0.3366,8.962794 3.80067,6.574131 l 4.9306,-2.846832 -0.74841,5.114029 c -0.60245,4.119365 5.27968,4.475909 5.73768,0.917147 l 1.24,-9.633743 7.74076,-4.468355 0,9.156827 -7.52799,6.08254 c -2.69648,2.180635 0.22804,6.42364 3.40446,4.255574 l 4.12353,-2.817485 0,5.304795 c 0,4.615227 7.59398,4.777333 7.59398,0 l 0,-5.693665 4.05015,3.206355 c 3.26626,2.58141 6.52157,-2.343712 3.66859,-4.519715 l -7.71874,-5.884434 0,-8.936709 7.92419,4.578412 1.50413,9.553033 c 0.54024,3.425539 5.67483,3.020527 5.38549,-0.814426 l -0.37416,-4.981959 4.5931,2.656065 c 3.99688,2.307603 7.93054,-4.185633 3.79332,-6.574131 l -4.93061,-2.846836 4.80588,-1.915007 c 3.86871,-1.537948 1.23458,-6.812272 -2.07641,-5.42953 l -8.96607,3.741973 -7.74076,-4.468354 7.93153,-4.571077 9.03207,3.470496 c 3.23677,1.244904 5.44691,-3.403093 1.98106,-5.070004 l -4.49772,-2.164474 4.5931,-2.648728 c 3.99688,-2.307604 0.3366,-8.962833 -3.80067,-6.574133 l -4.9306,2.846832 0.7484,-5.121365 c 0.60246,-4.119372 -5.27966,-4.475931 -5.73768,-0.91715 l -1.23999,9.633743 -7.74076,4.468358 0,-9.149489 7.52799,-6.089878 c 2.69647,-2.180631 -0.22804,-6.423628 -3.40446,-4.255578 l -4.12353,2.817486 0,-5.297458 c 0,-2.307602 -1.89568,-3.501611 -3.79335,-3.521856 z"
     id="path6275"
     inkscape:connector-curvature="0" />
  <path
     style="opacity:1;fill:#4d4d4d;fill-opacity:1;fill-rule:evenodd;stroke:none;stroke-width:1px;stroke-linecap:butt;stroke-linejoin:miter;stroke-opacity:1"
     d="m 293.50932,11.008627 c -8.48261,5.743967 -6.88995,12.894811 -4.75555,20.122877 -6.37911,-5.643983 -13.16632,-7.791708 -20.82201,-2.526608 2.47837,9.866637 9.47634,10.900339 16.62713,11.650083 -7.64088,3.65875 -8.29078,10.372525 -7.76671,17.596269 5.66313,-0.966761 11.44254,-1.375773 15.75496,-8.645844 l 0,18.904568 c -6.32908,-5.926252 -8.91224,-5.525976 -12.00312,-5.980793 2.04463,4.272353 5.37261,7.586177 12.05156,8.382801 l -0.17306,4.492515 2.87965,0 0,-4.236393 c 5.37138,-1.311858 9.77599,-3.550886 11.21397,-8.680458 -3.71049,0.723774 -7.42039,0.941157 -11.1309,5.586228 l 0,-18.420013 c 2.95524,5.470458 7.48738,8.87789 14.97274,8.424335 0.5618,-11.020414 -3.02183,-14.837659 -7.28907,-17.464746 9.62041,-0.428064 13.89113,-5.053739 15.97645,-11.393964 -8.75853,-6.087787 -14.65995,-2.599704 -20.20592,2.097432 1.48475,-7.393377 2.95717,-14.787486 -5.33012,-19.908289 z m 0.24918,23.431696 a 4.1979488,4.1979488 0 0 1 4.20179,4.194859 4.1979488,4.1979488 0 0 1 -4.20179,4.194862 4.1979488,4.1979488 0 0 1 -4.19484,-4.194862 4.1979488,4.1979488 0 0 1 4.19484,-4.194859 z"
     id="path6255"
     inkscape:connector-curvature="0" />
  <path
     style="opacity:1;fill:#4d4d4d;fill-opacity:1;fill-rule:evenodd;stroke:none;stroke-width:1px;stroke-linecap:butt;stroke-linejoin:miter;stroke-opacity:1"
     d="m 479.16832,75.004495 c 0.69542,-1.307103 0.62555,-2.614212 0.20929,-3.921315 -6.83344,0.03863 -7.81793,-5.102915 -10.03859,-9.149737 3.00513,1.321447 6.13403,2.246867 9.82944,1.359389 2.41414,-3.837449 5.82903,-7.282456 15.26699,-8.365474 -3.79927,-2.021702 -7.23602,-4.905066 -6.79697,-8.783745 0.4332,-3.827053 4.34509,-6.309153 7.99948,-8.57461 -1.60765,-1.209241 -3.78458,-1.515505 -4.54872,-4.130451 -0.97537,-3.337746 0.73887,-6.727235 2.3005,-10.090854 -6.17054,3.965684 -12.22701,9.919642 -18.8223,9.411157 -5.73047,-0.44181 -2.44249,-9.878356 -3.3462,-15.057849 -2.66651,1.054852 -5.39894,2.004111 -7.99948,1.411674 -4.03847,-0.920016 -4.93229,-5.137697 -6.90152,-8.104053 -0.45544,3.33961 0.20928,7.287291 -2.24821,9.724863 -2.50906,2.488783 -5.78611,2.117698 -8.67917,3.032483 2.59209,3.76396 6.61163,7.13303 6.06497,12.600492 -0.64842,6.485447 -14.70162,1.539455 -22.11622,2.248221 7.24464,6.015174 6.95394,9.862654 4.07816,12.966483 9.49714,1.953452 14.28204,5.996275 9.04517,14.482726 5.74703,-0.797685 11.44884,-2.295913 17.46291,1.045683 2.31795,-0.882159 4.63587,-1.62949 6.95382,-4.130452 0.22583,5.603449 3.00008,9.71493 8.94058,11.973085 z"
     id="path7061"
     inkscape:connector-curvature="0"
     sodipodi:nodetypes="cccccscscscscscsccccccc" />
  <path
     sodipodi:nodetypes="cccccc"
     inkscape:connector-curvature="0"
     id="path6262"
     d="m -60.675979,129.75501 16.916026,-36.230687 9.682691,20.623617 6.020009,-10.03311 12.530288,25.64018 z"
     style="fill:#cccccc;fill-rule:evenodd;stroke:none;stroke-width:1px;stroke-linecap:butt;stroke-linejoin:miter;stroke-opacity:1" />
  <path
     style="fill:#ffcc00;fill-opacity:1;stroke:none"
     d="m 54.25,115.07031 -7.40039,0 A 7.4003067,7.4003067 0 0 0 54.25,122.4707 l 0,-7.40039 z"
     id="path6719"
     inkscape:connector-curvature="0" />
  <path
     style="fill:#3771c8;fill-opacity:1;stroke:none"
     d="m 54.25,107.66992 a 7.4003067,7.4003067 0 0 0 -7.40039,7.40039 l 7.40039,0 0,-7.40039 z"
     id="path6709"
     inkscape:connector-curvature="0" />
  <path
     style="fill:#87cdde;fill-opacity:1;stroke:none"
     d="m 61.65039,115.07031 -7.40039,0 0,7.40039 a 7.4003067,7.4003067 0 0 0 7.40039,-7.40039 z"
     id="path6716"
     inkscape:connector-curvature="0" />
  <path
     style="fill:#ff5555;fill-opacity:1;stroke:none"
     d="m 54.25,107.66992 0,7.40039 7.40039,0 A 7.4003067,7.4003067 0 0 0 54.25,107.66992 Z"
     id="circle6345-6"
     inkscape:connector-curvature="0" />
  <rect
     y="151.32797"
     x="28.499899"
     height="61.32233"
     width="61.32233"
     id="rect7110"
     style="fill:#333333;stroke:none" />
  <g
     id="g7370">
    <path
       style="fill:#ffffff;fill-rule:evenodd;stroke:none;stroke-width:1px;stroke-linecap:butt;stroke-linejoin:miter;stroke-opacity:1"
       d="m 54.801581,166.16039 -11.740506,25.14568 32.199986,0 -8.27022,-16.9255 -4.67255,7.7881 -7.51671,-16.00828 z"
       id="path7114"
       inkscape:connector-curvature="0" />
    <path
       sodipodi:nodetypes="ccccc"
       style="fill:#3771c8;fill-opacity:1;fill-rule:evenodd;stroke:none;stroke-width:1px;stroke-linecap:butt;stroke-linejoin:miter;stroke-opacity:1"
       d="m 74.912908,190.59271 -31.518784,0 -1.723296,3.69093 35.045653,0 z"
       id="path7112"
       inkscape:connector-curvature="0" />
  </g>
  <rect
     style="fill:#333333;stroke:none"
     id="rect7124"
     width="61.32233"
     height="61.32233"
     x="100.88467"
     y="151.32797" />
  <g
     id="g7374">
    <path
       inkscape:connector-curvature="0"
       id="path7126"
       d="m 127.18635,166.16039 -11.74051,25.14568 32.19999,0 -8.27022,-16.9255 -4.67255,7.7881 -7.51671,-16.00828 z"
       style="fill:#ffffff;fill-rule:evenodd;stroke:none;stroke-width:1px;stroke-linecap:butt;stroke-linejoin:miter;stroke-opacity:1" />
    <path
       inkscape:connector-curvature="0"
       id="path7128"
       d="m 147.29768,190.59271 -31.51879,0 -1.72329,3.69093 35.04565,0 z"
       style="fill:#ff5555;fill-opacity:1;fill-rule:evenodd;stroke:none;stroke-width:1px;stroke-linecap:butt;stroke-linejoin:miter;stroke-opacity:1"
       sodipodi:nodetypes="ccccc" />
  </g>
  <rect
     y="151.32797"
     x="173.26944"
     height="61.32233"
     width="61.32233"
     id="rect7130"
     style="fill:#333333;stroke:none" />
  <g
     id="g7378">
    <path
       style="fill:#ffffff;fill-rule:evenodd;stroke:none;stroke-width:1px;stroke-linecap:butt;stroke-linejoin:miter;stroke-opacity:1"
       d="m 199.57113,166.16039 -11.74051,25.14568 32.19999,0 -8.27022,-16.9255 -4.67255,7.7881 -7.51671,-16.00828 z"
       id="path7132"
       inkscape:connector-curvature="0" />
    <path
       sodipodi:nodetypes="ccccc"
       style="fill:#87cdde;fill-opacity:1;fill-rule:evenodd;stroke:none;stroke-width:1px;stroke-linecap:butt;stroke-linejoin:miter;stroke-opacity:1"
       d="m 219.68246,190.59271 -31.51879,0 -1.72329,3.69093 35.04565,0 z"
       id="path7134"
       inkscape:connector-curvature="0" />
  </g>
  <rect
     style="fill:#333333;stroke:none"
     id="rect7136"
     width="61.32233"
     height="61.32233"
     x="245.65422"
     y="151.32797" />
  <g
     id="g7382">
    <path
       inkscape:connector-curvature="0"
       id="path7138"
       d="m 271.95591,166.16039 -11.74051,25.14568 32.19999,0 -8.27022,-16.9255 -4.67255,7.7881 -7.51671,-16.00828 z"
       style="fill:#ffffff;fill-rule:evenodd;stroke:none;stroke-width:1px;stroke-linecap:butt;stroke-linejoin:miter;stroke-opacity:1" />
    <path
       inkscape:connector-curvature="0"
       id="path7140"
       d="m 292.06724,190.59271 -31.51879,0 -1.72329,3.69093 35.04565,0 z"
       style="fill:#ffcc00;fill-opacity:1;fill-rule:evenodd;stroke:none;stroke-width:1px;stroke-linecap:butt;stroke-linejoin:miter;stroke-opacity:1"
       sodipodi:nodetypes="ccccc" />
  </g>
  <rect
     y="151.32797"
     x="318.039"
     height="61.32233"
     width="61.32233"
     id="rect7142"
     style="fill:#333333;stroke:none" />
  <g
     id="g7386">
    <path
       style="fill:#ffffff;fill-rule:evenodd;stroke:none;stroke-width:1px;stroke-linecap:butt;stroke-linejoin:miter;stroke-opacity:1"
       d="m 344.34068,166.16039 -11.74051,25.14568 32.19999,0 -8.27022,-16.9255 -4.67255,7.7881 -7.51671,-16.00828 z"
       id="path7144"
       inkscape:connector-curvature="0" />
    <path
       sodipodi:nodetypes="ccccc"
       style="fill:#b8b8b8;fill-opacity:1;fill-rule:evenodd;stroke:none;stroke-width:1px;stroke-linecap:butt;stroke-linejoin:miter;stroke-opacity:1"
       d="m 364.45201,190.59271 -31.51879,0 -1.72329,3.69093 35.04565,0 z"
       id="path7146"
       inkscape:connector-curvature="0" />
  </g>
  <rect
     style="fill:#333333;stroke:none"
     id="rect7188"
     width="61.32233"
     height="61.32233"
     x="28.499899"
     y="223.71274" />
  <g
     id="g7390">
    <path
       inkscape:connector-curvature="0"
       id="path7190"
       d="m 54.801581,238.54516 -11.740506,25.14568 32.199986,0 -8.27022,-16.9255 -4.67255,7.7881 -7.51671,-16.00828 z"
       style="fill:#ffffff;fill-rule:evenodd;stroke:none;stroke-width:1px;stroke-linecap:butt;stroke-linejoin:miter;stroke-opacity:1" />
    <path
       inkscape:connector-curvature="0"
       id="path7199"
       d="m 59.193359,262.97781 -15.798828,0 -1.724609,3.6914 17.523437,0 0,-3.6914 z"
       style="fill:#3771c8;fill-opacity:1;fill-rule:evenodd;stroke:none;stroke-width:1px;stroke-linecap:butt;stroke-linejoin:miter;stroke-opacity:1" />
    <path
       inkscape:connector-curvature="0"
       id="path7192"
       d="m 59.193359,262.97781 0,3.6914 17.523438,0 -1.804688,-3.6914 -15.71875,0 z"
       style="fill:#ff5555;fill-opacity:1;fill-rule:evenodd;stroke:none;stroke-width:1px;stroke-linecap:butt;stroke-linejoin:miter;stroke-opacity:1" />
  </g>
  <rect
     y="223.71274"
     x="100.88467"
     height="61.32233"
     width="61.32233"
     id="rect7201"
     style="fill:#333333;stroke:none" />
  <g
     id="g7395">
    <path
       style="fill:#ffffff;fill-rule:evenodd;stroke:none;stroke-width:1px;stroke-linecap:butt;stroke-linejoin:miter;stroke-opacity:1"
       d="m 127.18636,238.54516 -11.74051,25.14568 32.19999,0 -8.27022,-16.9255 -4.67255,7.7881 -7.51671,-16.00828 z"
       id="path7203"
       inkscape:connector-curvature="0" />
    <path
       inkscape:connector-curvature="0"
       style="fill:#3771c8;fill-opacity:1;fill-rule:evenodd;stroke:none;stroke-width:1px;stroke-linecap:butt;stroke-linejoin:miter;stroke-opacity:1"
       d="m 131.57814,262.97781 -15.79883,0 -1.72461,3.6914 17.52344,0 0,-3.6914 z"
       id="path7205" />
    <path
       inkscape:connector-curvature="0"
       style="fill:#87cdde;fill-opacity:1;fill-rule:evenodd;stroke:none;stroke-width:1px;stroke-linecap:butt;stroke-linejoin:miter;stroke-opacity:1"
       d="m 131.57814,262.97781 0,3.6914 17.52344,0 -1.80469,-3.6914 -15.71875,0 z"
       id="path7207" />
  </g>
  <rect
     style="fill:#333333;stroke:none"
     id="rect7213"
     width="61.32233"
     height="61.32233"
     x="173.26944"
     y="223.71274" />
  <g
     id="g7400">
    <path
       inkscape:connector-curvature="0"
       id="path7215"
       d="m 199.57113,238.54516 -11.74051,25.14568 32.19999,0 -8.27022,-16.9255 -4.67255,7.7881 -7.51671,-16.00828 z"
       style="fill:#ffffff;fill-rule:evenodd;stroke:none;stroke-width:1px;stroke-linecap:butt;stroke-linejoin:miter;stroke-opacity:1" />
    <path
       id="path7217"
       d="m 203.96291,262.97781 -15.79883,0 -1.72461,3.6914 17.52344,0 0,-3.6914 z"
       style="fill:#3771c8;fill-opacity:1;fill-rule:evenodd;stroke:none;stroke-width:1px;stroke-linecap:butt;stroke-linejoin:miter;stroke-opacity:1"
       inkscape:connector-curvature="0" />
    <path
       id="path7219"
       d="m 203.96291,262.97781 0,3.6914 17.52344,0 -1.80469,-3.6914 -15.71875,0 z"
       style="fill:#ffcc00;fill-opacity:1;fill-rule:evenodd;stroke:none;stroke-width:1px;stroke-linecap:butt;stroke-linejoin:miter;stroke-opacity:1"
       inkscape:connector-curvature="0" />
  </g>
  <rect
     y="223.71274"
     x="245.65422"
     height="61.32233"
     width="61.32233"
     id="rect7221"
     style="fill:#333333;stroke:none" />
  <g
     id="g7405">
    <path
       style="fill:#ffffff;fill-rule:evenodd;stroke:none;stroke-width:1px;stroke-linecap:butt;stroke-linejoin:miter;stroke-opacity:1"
       d="m 271.95591,238.54516 -11.74051,25.14568 32.19999,0 -8.27022,-16.9255 -4.67255,7.7881 -7.51671,-16.00828 z"
       id="path7223"
       inkscape:connector-curvature="0" />
    <path
       inkscape:connector-curvature="0"
       style="fill:#ff5555;fill-opacity:1;fill-rule:evenodd;stroke:none;stroke-width:1px;stroke-linecap:butt;stroke-linejoin:miter;stroke-opacity:1"
       d="m 276.34769,262.97781 -15.79883,0 -1.72461,3.6914 17.52344,0 0,-3.6914 z"
       id="path7225" />
    <path
       inkscape:connector-curvature="0"
       style="fill:#87cdde;fill-opacity:1;fill-rule:evenodd;stroke:none;stroke-width:1px;stroke-linecap:butt;stroke-linejoin:miter;stroke-opacity:1"
       d="m 276.34769,262.97781 0,3.6914 17.52344,0 -1.80469,-3.6914 -15.71875,0 z"
       id="path7227" />
  </g>
  <rect
     style="fill:#333333;stroke:none"
     id="rect7229"
     width="61.32233"
     height="61.32233"
     x="318.039"
     y="223.71274" />
  <g
     id="g7410">
    <path
       inkscape:connector-curvature="0"
       id="path7231"
       d="m 344.34067,238.54516 -11.74051,25.14568 32.19999,0 -8.27022,-16.9255 -4.67255,7.7881 -7.51671,-16.00828 z"
       style="fill:#ffffff;fill-rule:evenodd;stroke:none;stroke-width:1px;stroke-linecap:butt;stroke-linejoin:miter;stroke-opacity:1" />
    <path
       id="path7233"
       d="m 348.73245,262.97781 -15.79883,0 -1.72461,3.6914 17.52344,0 0,-3.6914 z"
       style="fill:#ff5555;fill-opacity:1;fill-rule:evenodd;stroke:none;stroke-width:1px;stroke-linecap:butt;stroke-linejoin:miter;stroke-opacity:1"
       inkscape:connector-curvature="0" />
    <path
       id="path7235"
       d="m 348.73245,262.97781 0,3.6914 17.52344,0 -1.80469,-3.6914 -15.71875,0 z"
       style="fill:#ffcc00;fill-opacity:1;fill-rule:evenodd;stroke:none;stroke-width:1px;stroke-linecap:butt;stroke-linejoin:miter;stroke-opacity:1"
       inkscape:connector-curvature="0" />
  </g>
  <rect
     y="223.71274"
     x="390.42377"
     height="61.32233"
     width="61.32233"
     id="rect7241"
     style="fill:#333333;stroke:none" />
  <g
     id="g7415">
    <path
       style="fill:#ffffff;fill-rule:evenodd;stroke:none;stroke-width:1px;stroke-linecap:butt;stroke-linejoin:miter;stroke-opacity:1"
       d="m 416.72544,238.54516 -11.74051,25.14568 32.19999,0 -8.27022,-16.9255 -4.67255,7.7881 -7.51671,-16.00828 z"
       id="path7243"
       inkscape:connector-curvature="0" />
    <path
       inkscape:connector-curvature="0"
       style="fill:#87cdde;fill-opacity:1;fill-rule:evenodd;stroke:none;stroke-width:1px;stroke-linecap:butt;stroke-linejoin:miter;stroke-opacity:1"
       d="m 421.11722,262.97781 -15.79883,0 -1.72461,3.6914 17.52344,0 0,-3.6914 z"
       id="path7245" />
    <path
       inkscape:connector-curvature="0"
       style="fill:#ffcc00;fill-opacity:1;fill-rule:evenodd;stroke:none;stroke-width:1px;stroke-linecap:butt;stroke-linejoin:miter;stroke-opacity:1"
       d="m 421.11722,262.97781 0,3.6914 17.52344,0 -1.80469,-3.6914 -15.71875,0 z"
       id="path7247" />
  </g>
  <rect
     style="fill:#333333;stroke:none"
     id="rect7263"
     width="61.32233"
     height="61.32233"
     x="28.499899"
     y="296.0975" />
  <g
     id="g7420">
    <path
       inkscape:connector-curvature="0"
       id="path7265"
       d="m 54.801581,310.92992 -11.740506,25.14568 32.199986,0 -8.27022,-16.9255 -4.67255,7.7881 -7.51671,-16.00828 z"
       style="fill:#ffffff;fill-rule:evenodd;stroke:none;stroke-width:1px;stroke-linecap:butt;stroke-linejoin:miter;stroke-opacity:1" />
    <path
       id="path7294"
       d="M 53.353516 335.36133 L 43.394531 335.36133 L 41.669922 339.05273 L 53.353516 339.05273 L 53.353516 335.36133 z "
       style="fill:#3771c8;fill-opacity:1;fill-rule:evenodd;stroke:none;stroke-width:1px;stroke-linecap:butt;stroke-linejoin:miter;stroke-opacity:1" />
    <path
       id="path7297"
       d="M 65.035156 335.36133 L 53.353516 335.36133 L 53.353516 339.05273 L 65.035156 339.05273 L 65.035156 335.36133 z "
       style="fill:#ff5555;fill-opacity:1;fill-rule:evenodd;stroke:none;stroke-width:1px;stroke-linecap:butt;stroke-linejoin:miter;stroke-opacity:1" />
    <path
       id="path7267"
       d="M 65.035156 335.36133 L 65.035156 339.05273 L 76.716797 339.05273 L 74.912109 335.36133 L 65.035156 335.36133 z "
       style="fill:#87cdde;fill-opacity:1;fill-rule:evenodd;stroke:none;stroke-width:1px;stroke-linecap:butt;stroke-linejoin:miter;stroke-opacity:1" />
  </g>
  <rect
     y="296.0975"
     x="100.88467"
     height="61.32233"
     width="61.32233"
     id="rect7299"
     style="fill:#333333;stroke:none" />
  <g
     id="g7426">
    <path
       style="fill:#ffffff;fill-rule:evenodd;stroke:none;stroke-width:1px;stroke-linecap:butt;stroke-linejoin:miter;stroke-opacity:1"
       d="m 127.18635,310.92992 -11.7405,25.14568 32.19998,0 -8.27022,-16.9255 -4.67255,7.7881 -7.51671,-16.00828 z"
       id="path7301"
       inkscape:connector-curvature="0" />
    <path
       inkscape:connector-curvature="0"
       style="fill:#3771c8;fill-opacity:1;fill-rule:evenodd;stroke:none;stroke-width:1px;stroke-linecap:butt;stroke-linejoin:miter;stroke-opacity:1"
       d="m 125.73829,335.36133 -9.95899,0 -1.72461,3.6914 11.6836,0 0,-3.6914 z"
       id="path7303" />
    <path
       inkscape:connector-curvature="0"
       style="fill:#ff5555;fill-opacity:1;fill-rule:evenodd;stroke:none;stroke-width:1px;stroke-linecap:butt;stroke-linejoin:miter;stroke-opacity:1"
       d="m 137.41993,335.36133 -11.68164,0 0,3.6914 11.68164,0 0,-3.6914 z"
       id="path7305" />
    <path
       inkscape:connector-curvature="0"
       style="fill:#ffcc00;fill-opacity:1;fill-rule:evenodd;stroke:none;stroke-width:1px;stroke-linecap:butt;stroke-linejoin:miter;stroke-opacity:1"
       d="m 137.41993,335.36133 0,3.6914 11.68164,0 -1.80469,-3.6914 -9.87695,0 z"
       id="path7307" />
  </g>
  <rect
     style="fill:#333333;stroke:none"
     id="rect7309"
     width="61.32233"
     height="61.32233"
     x="173.26944"
     y="296.0975" />
  <g
     id="g7432">
    <path
       inkscape:connector-curvature="0"
       id="path7311"
       d="m 199.57113,310.92992 -11.7405,25.14568 32.19998,0 -8.27022,-16.9255 -4.67255,7.7881 -7.51671,-16.00828 z"
       style="fill:#ffffff;fill-rule:evenodd;stroke:none;stroke-width:1px;stroke-linecap:butt;stroke-linejoin:miter;stroke-opacity:1" />
    <path
       id="path7313"
       d="m 198.12307,335.36133 -9.95899,0 -1.72461,3.6914 11.6836,0 0,-3.6914 z"
       style="fill:#3771c8;fill-opacity:1;fill-rule:evenodd;stroke:none;stroke-width:1px;stroke-linecap:butt;stroke-linejoin:miter;stroke-opacity:1"
       inkscape:connector-curvature="0" />
    <path
       id="path7315"
       d="m 209.80471,335.36133 -11.68164,0 0,3.6914 11.68164,0 0,-3.6914 z"
       style="fill:#87cdde;fill-opacity:1;fill-rule:evenodd;stroke:none;stroke-width:1px;stroke-linecap:butt;stroke-linejoin:miter;stroke-opacity:1"
       inkscape:connector-curvature="0" />
    <path
       id="path7317"
       d="m 209.80471,335.36133 0,3.6914 11.68164,0 -1.80469,-3.6914 -9.87695,0 z"
       style="fill:#ffcc00;fill-opacity:1;fill-rule:evenodd;stroke:none;stroke-width:1px;stroke-linecap:butt;stroke-linejoin:miter;stroke-opacity:1"
       inkscape:connector-curvature="0" />
  </g>
  <rect
     y="296.0975"
     x="245.65422"
     height="61.32233"
     width="61.32233"
     id="rect7319"
     style="fill:#333333;stroke:none" />
  <g
     id="g7438">
    <path
       style="fill:#ffffff;fill-rule:evenodd;stroke:none;stroke-width:1px;stroke-linecap:butt;stroke-linejoin:miter;stroke-opacity:1"
       d="m 271.95591,310.92992 -11.7405,25.14568 32.19998,0 -8.27022,-16.9255 -4.67255,7.7881 -7.51671,-16.00828 z"
       id="path7321"
       inkscape:connector-curvature="0" />
    <path
       inkscape:connector-curvature="0"
       style="fill:#ff5555;fill-opacity:1;fill-rule:evenodd;stroke:none;stroke-width:1px;stroke-linecap:butt;stroke-linejoin:miter;stroke-opacity:1"
       d="m 270.50785,335.36133 -9.95899,0 -1.72461,3.6914 11.6836,0 0,-3.6914 z"
       id="path7323" />
    <path
       inkscape:connector-curvature="0"
       style="fill:#87cdde;fill-opacity:1;fill-rule:evenodd;stroke:none;stroke-width:1px;stroke-linecap:butt;stroke-linejoin:miter;stroke-opacity:1"
       d="m 282.18949,335.36133 -11.68164,0 0,3.6914 11.68164,0 0,-3.6914 z"
       id="path7325" />
    <path
       inkscape:connector-curvature="0"
       style="fill:#ffcc00;fill-opacity:1;fill-rule:evenodd;stroke:none;stroke-width:1px;stroke-linecap:butt;stroke-linejoin:miter;stroke-opacity:1"
       d="m 282.18949,335.36133 0,3.6914 11.68164,0 -1.80469,-3.6914 -9.87695,0 z"
       id="path7327" />
  </g>
  <rect
     style="fill:#333333;stroke:none"
     id="rect7329"
     width="61.32233"
     height="61.32233"
     x="28.499899"
     y="368.48227" />
  <g
     id="g7444">
    <path
       inkscape:connector-curvature="0"
       id="path7331"
       d="m 54.801581,383.31469 -11.740506,25.14568 32.199986,0 -8.27022,-16.9255 -4.67255,7.7881 -7.51671,-16.00828 z"
       style="fill:#ffffff;fill-rule:evenodd;stroke:none;stroke-width:1px;stroke-linecap:butt;stroke-linejoin:miter;stroke-opacity:1" />
    <path
       id="path7362"
       d="M 50.398438 407.74609 L 43.394531 407.74609 L 41.669922 411.4375 L 50.398438 411.4375 L 50.398438 407.74609 z "
       style="fill:#3771c8;fill-opacity:1;fill-rule:evenodd;stroke:none;stroke-width:1px;stroke-linecap:butt;stroke-linejoin:miter;stroke-opacity:1" />
    <path
       id="path7365"
       d="M 59.193359 407.74609 L 50.398438 407.74609 L 50.398438 411.4375 L 59.193359 411.4375 L 59.193359 407.74609 z "
       style="fill:#ff5555;fill-opacity:1;fill-rule:evenodd;stroke:none;stroke-width:1px;stroke-linecap:butt;stroke-linejoin:miter;stroke-opacity:1" />
    <path
       id="path7368"
       d="M 67.988281 407.74609 L 59.193359 407.74609 L 59.193359 411.4375 L 67.988281 411.4375 L 67.988281 407.74609 z "
       style="fill:#87cdde;fill-opacity:1;fill-rule:evenodd;stroke:none;stroke-width:1px;stroke-linecap:butt;stroke-linejoin:miter;stroke-opacity:1" />
    <path
       id="path7333"
       d="M 67.988281 407.74609 L 67.988281 411.4375 L 76.716797 411.4375 L 74.912109 407.74609 L 67.988281 407.74609 z "
       style="fill:#ffcc00;fill-opacity:1;fill-rule:evenodd;stroke:none;stroke-width:1px;stroke-linecap:butt;stroke-linejoin:miter;stroke-opacity:1" />
  </g>
  <circle
     style="fill:#3771c8;fill-opacity:1;fill-rule:evenodd"
     id="path6358"
     cx="554.72528"
     cy="178.89088"
     r="7.4246211"
     inkscape:export-filename="/var/www/html/oblyk.org/resources/assets/img/climb-3.png"
     inkscape:export-xdpi="181.82745"
     inkscape:export-ydpi="181.82745" />
  <circle
     r="7.4246211"
     cy="214.18044"
     cx="554.72528"
     id="circle6360"
     style="fill:#ff5555;fill-opacity:1;fill-rule:evenodd"
     inkscape:export-filename="/var/www/html/oblyk.org/resources/assets/img/climb-4.png"
     inkscape:export-xdpi="181.82745"
     inkscape:export-ydpi="181.82745" />
  <circle
     style="fill:#87cdde;fill-opacity:1;fill-rule:evenodd"
     id="circle6362"
     cx="554.72528"
     cy="320.0491"
     r="7.4246211"
     inkscape:export-filename="/var/www/html/oblyk.org/resources/assets/img/climb-7.png"
     inkscape:export-xdpi="181.82745"
     inkscape:export-ydpi="181.82745" />
  <circle
     r="7.4246211"
     cy="143.60133"
     cx="554.72528"
     id="circle6364"
     style="fill:#ffcc00;fill-opacity:1;fill-rule:evenodd"
     inkscape:export-filename="/var/www/html/oblyk.org/resources/assets/img/climb-2.png"
     inkscape:export-xdpi="181.82745"
     inkscape:export-ydpi="181.82745" />
  <circle
     r="7.4246211"
     cy="108.31179"
     cx="554.72528"
     id="circle6366"
     style="fill:#b8b8b8;fill-opacity:1;fill-rule:evenodd"
     inkscape:export-filename="/var/www/html/oblyk.org/resources/assets/img/climb-1.png"
     inkscape:export-xdpi="181.82745"
     inkscape:export-ydpi="181.82745" />
  <circle
     style="fill:#e92b2b;fill-opacity:1;fill-rule:evenodd"
     id="circle6368"
     cx="554.72528"
     cy="249.46999"
     r="7.4246211"
     inkscape:export-filename="/var/www/html/oblyk.org/resources/assets/img/climb-5.png"
     inkscape:export-xdpi="181.82745"
     inkscape:export-ydpi="181.82745" />
  <circle
     r="7.4246211"
     cy="284.75955"
     cx="554.72528"
     id="circle6370"
     style="fill:#d40000;fill-opacity:1;fill-rule:evenodd"
     inkscape:export-filename="/var/www/html/oblyk.org/resources/assets/img/climb-6.png"
     inkscape:export-xdpi="181.82745"
     inkscape:export-ydpi="181.82745" />
  <text
     xml:space="preserve"
     style="font-style:normal;font-weight:normal;line-height:0%;font-family:sans-serif;letter-spacing:0px;word-spacing:0px;fill:#000000;fill-opacity:1;stroke:none;stroke-width:1px;stroke-linecap:butt;stroke-linejoin:miter;stroke-opacity:1"
     x="580.51678"
     y="113.68666"
     id="text7172"><tspan
       sodipodi:role="line"
       id="tspan7174"
       x="580.51678"
       y="113.68666"
       style="font-size:14.41745758px;line-height:1.25">1-inconnu</tspan><tspan
       sodipodi:role="line"
       x="580.51678"
       y="131.70848"
       id="tspan7180"
       style="font-size:14.41745758px;line-height:1.25"> </tspan></text>
  <text
     id="text7176"
     y="148.9762"
     x="580.51678"
     style="font-style:normal;font-weight:normal;line-height:0%;font-family:sans-serif;letter-spacing:0px;word-spacing:0px;fill:#000000;fill-opacity:1;stroke:none;stroke-width:1px;stroke-linecap:butt;stroke-linejoin:miter;stroke-opacity:1"
     xml:space="preserve"><tspan
       y="148.9762"
       x="580.51678"
       id="tspan7178"
       sodipodi:role="line"
       style="font-size:14.41745758px;line-height:1.25">2-bloc</tspan></text>
  <text
     xml:space="preserve"
     style="font-style:normal;font-weight:normal;line-height:0%;font-family:sans-serif;letter-spacing:0px;word-spacing:0px;fill:#000000;fill-opacity:1;stroke:none;stroke-width:1px;stroke-linecap:butt;stroke-linejoin:miter;stroke-opacity:1"
     x="580.51678"
     y="184.26575"
     id="text7182"><tspan
       sodipodi:role="line"
       id="tspan7184"
       x="580.51678"
       y="184.26575"
       style="font-size:14.41745758px;line-height:1.25">3-voie</tspan></text>
  <text
     id="text7186"
     y="219.5553"
     x="580.51678"
     style="font-style:normal;font-weight:normal;line-height:0%;font-family:sans-serif;letter-spacing:0px;word-spacing:0px;fill:#000000;fill-opacity:1;stroke:none;stroke-width:1px;stroke-linecap:butt;stroke-linejoin:miter;stroke-opacity:1"
     xml:space="preserve"><tspan
       y="219.5553"
       x="580.51678"
       id="tspan7188"
       sodipodi:role="line"
       style="font-size:14.41745758px;line-height:1.25">4-grande-voie</tspan></text>
  <text
     xml:space="preserve"
     style="font-style:normal;font-weight:normal;line-height:0%;font-family:sans-serif;letter-spacing:0px;word-spacing:0px;fill:#000000;fill-opacity:1;stroke:none;stroke-width:1px;stroke-linecap:butt;stroke-linejoin:miter;stroke-opacity:1"
     x="580.51678"
     y="253.44746"
     id="text7190"><tspan
       sodipodi:role="line"
       id="tspan7192"
       x="580.51678"
       y="253.44746"
       style="font-size:14.41745758px;line-height:1.25">5-trad</tspan></text>
  <text
     id="text7194"
     y="290.13443"
     x="580.51678"
     style="font-style:normal;font-weight:normal;line-height:0%;font-family:sans-serif;letter-spacing:0px;word-spacing:0px;fill:#000000;fill-opacity:1;stroke:none;stroke-width:1px;stroke-linecap:butt;stroke-linejoin:miter;stroke-opacity:1"
     xml:space="preserve"><tspan
       y="290.13443"
       x="580.51678"
       id="tspan7196"
       sodipodi:role="line"
       style="font-size:14.41745758px;line-height:1.25">6-artif</tspan></text>
  <text
     xml:space="preserve"
     style="font-style:normal;font-weight:normal;line-height:0%;font-family:sans-serif;letter-spacing:0px;word-spacing:0px;fill:#000000;fill-opacity:1;stroke:none;stroke-width:1px;stroke-linecap:butt;stroke-linejoin:miter;stroke-opacity:1"
     x="580.51678"
     y="325.42398"
     id="text7198"><tspan
       sodipodi:role="line"
       id="tspan7200"
       x="580.51678"
       y="325.42398"
       style="font-size:14.41745758px;line-height:1.25">7-deep-water</tspan></text>
  <circle
     r="7.4246211"
     cy="356.0491"
     cx="554.72528"
     id="circle7202"
     style="fill:#37c871;fill-opacity:1;fill-rule:evenodd"
     inkscape:export-filename="/var/www/html/oblyk.org/resources/assets/img/climb-8.png"
     inkscape:export-xdpi="181.82745"
     inkscape:export-ydpi="181.82745" />
  <text
     id="text7204"
     y="360.02658"
     x="580.51678"
     style="font-style:normal;font-weight:normal;line-height:0%;font-family:sans-serif;letter-spacing:0px;word-spacing:0px;fill:#000000;fill-opacity:1;stroke:none;stroke-width:1px;stroke-linecap:butt;stroke-linejoin:miter;stroke-opacity:1"
     xml:space="preserve"><tspan
       y="360.02658"
       x="580.51678"
       id="tspan7206"
       sodipodi:role="line"
       style="font-size:14.41745758px;line-height:1.25">8-via-ferrata</tspan></text>
</svg>
