<?xml version="1.0" encoding="UTF-8" standalone="no"?>
<!-- Created with Inkscape (http://www.inkscape.org/) -->

<svg
   xmlns:dc="http://purl.org/dc/elements/1.1/"
   xmlns:cc="http://creativecommons.org/ns#"
   xmlns:rdf="http://www.w3.org/1999/02/22-rdf-syntax-ns#"
   xmlns:svg="http://www.w3.org/2000/svg"
   xmlns="http://www.w3.org/2000/svg"
   xmlns:sodipodi="http://sodipodi.sourceforge.net/DTD/sodipodi-0.dtd"
   xmlns:inkscape="http://www.inkscape.org/namespaces/inkscape"
   width="210mm"
   height="297mm"
   viewBox="0 0 210 297"
   version="1.1"
   id="svg8"
   inkscape:version="0.92.1 r15371"
   sodipodi:docname="social-networks.svg">
  <defs
     id="defs2" />
  <sodipodi:namedview
     id="base"
     pagecolor="#ffffff"
     bordercolor="#666666"
     borderopacity="1.0"
     inkscape:pageopacity="0.0"
     inkscape:pageshadow="2"
     inkscape:zoom="1.4"
     inkscape:cx="143.42539"
     inkscape:cy="120.79763"
     inkscape:document-units="mm"
     inkscape:current-layer="layer1"
     showgrid="false"
     inkscape:window-width="1366"
     inkscape:window-height="704"
     inkscape:window-x="0"
     inkscape:window-y="27"
     inkscape:window-maximized="1"
     showguides="true"
     inkscape:guide-bbox="true"
     inkscape:snap-page="true"
     inkscape:snap-bbox="true"
     inkscape:bbox-nodes="true"
     inkscape:snap-nodes="false">
    <sodipodi:guide
       position="9.9020151,274.25153"
       orientation="1,0"
       id="guide6771"
       inkscape:locked="false" />
  </sodipodi:namedview>
  <metadata
     id="metadata5">
    <rdf:RDF>
      <cc:Work
         rdf:about="">
        <dc:format>image/svg+xml</dc:format>
        <dc:type
           rdf:resource="http://purl.org/dc/dcmitype/StillImage" />
        <dc:title></dc:title>
      </cc:Work>
    </rdf:RDF>
  </metadata>
  <g
     inkscape:label="Calque 1"
     inkscape:groupmode="layer"
     id="layer1">
    <text
       xml:space="preserve"
       style="font-style:normal;font-weight:normal;font-size:10.58333302px;line-height:125%;font-family:sans-serif;letter-spacing:0px;word-spacing:0px;fill:#000000;fill-opacity:1;stroke:none;stroke-width:0.26458332px;stroke-linecap:butt;stroke-linejoin:miter;stroke-opacity:1"
       x="29.145002"
       y="18.962435"
       id="text6715"><tspan
         sodipodi:role="line"
         id="tspan6713"
         x="29.145002"
         y="18.962435"
         style="font-size:7.05555534px;stroke-width:0.26458332px">1. site web</tspan></text>
    <g
       id="g6767"
       transform="translate(-4.7959234,-15.803794)">
      <circle
         r="6.4163537"
         cy="32.135899"
         cx="21.114292"
         id="circle5422-6-6"
         style="color:#000000;display:inline;overflow:visible;visibility:visible;opacity:1;fill:#2196f3;fill-opacity:1;fill-rule:nonzero;stroke:none;stroke-width:27.41056824;stroke-linecap:round;stroke-linejoin:round;stroke-miterlimit:4;stroke-dasharray:none;stroke-dashoffset:0;stroke-opacity:1;marker:none;enable-background:accumulate" />
      <path
         style="fill:#ffffff;stroke-width:0.45829609"
         id="path4"
         d="m 21.10971,27.552938 c -2.529794,0 -4.578379,2.053166 -4.578379,4.582961 0,2.529795 2.048585,4.582961 4.578379,4.582961 2.534378,0 4.587544,-2.053166 4.587544,-4.582961 0,-2.529795 -2.053166,-4.582961 -4.587544,-4.582961 z m 3.175992,2.749777 h -1.351973 c -0.14666,-0.572871 -0.357471,-1.122827 -0.632448,-1.631535 0.843264,0.288726 1.544456,0.875345 1.984421,1.631535 z m -3.171409,-1.814852 c 0.380386,0.549955 0.678278,1.159487 0.875346,1.814852 h -1.750691 c 0.197066,-0.655365 0.49496,-1.264897 0.875345,-1.814852 z m -3.547212,4.564629 c -0.07332,-0.293311 -0.119154,-0.60037 -0.119154,-0.916593 0,-0.316225 0.04583,-0.623282 0.119154,-0.916593 h 1.549041 c -0.03667,0.302475 -0.06416,0.604951 -0.06416,0.916593 0,0.311642 0.02751,0.614118 0.06416,0.916593 z m 0.375802,0.916591 h 1.351975 c 0.146661,0.572869 0.35747,1.122826 0.632448,1.631535 -0.843264,-0.288728 -1.544458,-0.870762 -1.984423,-1.631535 z m 1.351975,-3.666368 h -1.351975 c 0.439965,-0.760773 1.141159,-1.342809 1.984423,-1.631535 -0.274978,0.508708 -0.485793,1.058664 -0.632448,1.631535 z m 1.819435,5.48122 C 20.733908,35.23398 20.436014,34.624446 20.238948,33.969083 h 1.750691 c -0.197068,0.655363 -0.49496,1.264897 -0.875346,1.814852 z m 1.072413,-2.731443 H 20.04188 c -0.04125,-0.302475 -0.07332,-0.604951 -0.07332,-0.916593 0,-0.311642 0.03208,-0.618701 0.07332,-0.916593 h 2.144826 c 0.04125,0.297892 0.07332,0.604951 0.07332,0.916593 0,0.311642 -0.03208,0.614118 -0.07332,0.916593 z m 0.114581,2.548126 c 0.274978,-0.508709 0.485794,-1.058666 0.632449,-1.631535 h 1.351972 c -0.439964,0.75619 -1.141156,1.342807 -1.984421,1.631535 z m 0.811184,-2.548126 c 0.03667,-0.302475 0.06416,-0.604951 0.06416,-0.916593 0,-0.311642 -0.02751,-0.614118 -0.06416,-0.916593 h 1.549041 c 0.07332,0.293311 0.119154,0.600368 0.119154,0.916593 0,0.316223 -0.04583,0.623282 -0.119154,0.916593 z"
         inkscape:connector-curvature="0" />
    </g>
    <g
       transform="matrix(0.9136856,0,0,0.9136856,-651.79627,-63.861707)"
       id="g5718">
      <circle
         r="7.0224962"
         cy="107.08392"
         cx="731.23035"
         id="path5364-7"
         style="color:#000000;display:inline;overflow:visible;visibility:visible;opacity:1;fill:#3a569c;fill-opacity:1;fill-rule:nonzero;stroke:none;stroke-width:30;stroke-linecap:round;stroke-linejoin:round;stroke-miterlimit:4;stroke-dasharray:none;stroke-dashoffset:0;stroke-opacity:1;marker:none;enable-background:accumulate" />
      <g
         id="g5705"
         transform="matrix(0.40004066,0,0,0.40004066,452.42459,66.509759)"
         style="fill:#ffffff">
        <path
           style="fill:#ffffff;fill-opacity:1;fill-rule:evenodd;stroke:none;stroke-width:1px;stroke-linecap:butt;stroke-linejoin:miter;stroke-opacity:1"
           d="m 700.52973,87.599251 c -1.67182,-0.004 -1.97271,0.0233 -2.7876,0.25759 -2.04811,0.5889 -3.48085,2.04385 -4.05196,4.11464 -0.24972,0.90547 -0.26628,1.10954 -0.29624,3.66772 l -0.0283,2.42053 -2.17625,0.0245 -2.17581,0.0245 v 2.493949 2.49394 l 2.17581,0.0245 2.17625,0.0245 0.0124,6.54033 0.0124,6.54032 5.23131,0.002 0.0124,-6.54161 0.0124,-6.54118 2.14962,-0.0129 c 1.18235,-0.007 2.16743,-0.0302 2.18869,-0.0515 0.0589,-0.0589 0.68215,-4.911089 0.63669,-4.956549 -0.0218,-0.0218 -1.15012,-0.0454 -2.50725,-0.0524 l -2.46775,-0.0124 -0.0133,-1.8096 c -0.008,-1.07075 0.007,-1.94335 0.0369,-2.13803 0.13843,-0.90343 0.54951,-1.38778 1.39444,-1.64217 0.18927,-0.057 0.64775,-0.0801 2.02942,-0.10261 l 1.78513,-0.0292 0.0124,-2.28272 c 0.0119,-2.14283 0.008,-2.28398 -0.073,-2.30805 -0.23715,-0.0706 -1.87377,-0.14431 -3.28905,-0.14811 z"
           id="path5711"
           inkscape:connector-curvature="0"
           sodipodi:nodetypes="sssscccccccccccccccccccsccccs" />
      </g>
    </g>
    <text
       id="text6775"
       y="36.609661"
       x="29.145002"
       style="font-style:normal;font-weight:normal;font-size:10.58333302px;line-height:125%;font-family:sans-serif;letter-spacing:0px;word-spacing:0px;fill:#000000;fill-opacity:1;stroke:none;stroke-width:0.26458332px;stroke-linecap:butt;stroke-linejoin:miter;stroke-opacity:1"
       xml:space="preserve"><tspan
         style="font-size:7.05555534px;stroke-width:0.26458332px"
         y="36.609661"
         x="29.145002"
         id="tspan6773"
         sodipodi:role="line">2. facebook</tspan></text>
    <g
       transform="matrix(0.9136856,0,0,0.9136856,-670.06998,-46.21448)"
       id="g5686">
      <circle
         style="color:#000000;display:inline;overflow:visible;visibility:visible;opacity:1;fill:#2ca9e0;fill-opacity:1;fill-rule:nonzero;stroke:none;stroke-width:30;stroke-linecap:round;stroke-linejoin:round;stroke-miterlimit:4;stroke-dasharray:none;stroke-dashoffset:0;stroke-opacity:1;marker:none;enable-background:accumulate"
         id="circle5377-6"
         cx="751.23035"
         cy="107.08392"
         r="7.0224962" />
      <path
         inkscape:connector-curvature="0"
         id="path5409-6"
         d="m 753.59966,102.9687 c -1.06716,0 -1.96126,0.75336 -2.1493,1.811 -0.0331,0.18616 -0.0336,0.55311 -0.002,0.72662 0.0117,0.063 0.017,0.11571 0.0117,0.12132 -0.0102,0.0112 -0.25836,-0.006 -0.45491,-0.0316 -0.56124,-0.0728 -1.1177,-0.22343 -1.63152,-0.44149 -0.56944,-0.24168 -1.12395,-0.58619 -1.613,-1.00218 -0.16652,-0.14165 -0.51433,-0.48846 -0.65276,-0.65088 -0.0572,-0.0671 -0.10895,-0.12199 -0.11506,-0.12199 -0.0345,0 -0.17325,0.32631 -0.22547,0.53001 -0.17348,0.67692 -0.0202,1.38664 0.41605,1.92563 0.0823,0.1017 0.27388,0.28772 0.36636,0.35573 0.0823,0.0606 0.0923,0.084 0.0319,0.0754 -0.0218,-0.003 -0.0684,-0.009 -0.10345,-0.0122 -0.19808,-0.0197 -0.47934,-0.10064 -0.67357,-0.19379 -0.0612,-0.0293 -0.11495,-0.0512 -0.11934,-0.0486 -0.0112,0.007 -0.01,0.0993 0.004,0.2279 0.0787,0.76909 0.54064,1.4241 1.2388,1.75676 0.11712,0.0557 0.32663,0.13082 0.40784,0.14606 0.0924,0.0174 0.0163,0.0442 -0.20827,0.0735 -0.15768,0.0206 -0.40111,0.0207 -0.55328,0 -0.0642,-0.009 -0.11788,-0.0157 -0.11933,-0.0157 -0.01,0 0.002,0.0495 0.0283,0.11806 0.0744,0.19313 0.2045,0.41763 0.33733,0.58197 0.084,0.10391 0.28397,0.29751 0.38591,0.37357 0.32788,0.24471 0.73382,0.39965 1.12003,0.42753 0.11811,0.009 0.12645,0.011 0.10907,0.032 -0.0234,0.0283 -0.24746,0.18257 -0.39365,0.27122 -0.43183,0.26186 -0.92265,0.45259 -1.41466,0.54965 -0.40395,0.0797 -0.78413,0.10053 -1.25169,0.0685 l -0.0955,-0.007 0.0212,0.0215 c 0.0695,0.0702 0.66979,0.38045 0.96651,0.49948 0.69062,0.27704 1.3699,0.42008 2.1415,0.45092 0.14596,0.006 0.51123,-0.004 0.71833,-0.0205 1.30106,-0.10028 2.45065,-0.56064 3.4186,-1.36898 0.16818,-0.14046 0.47811,-0.44256 0.62684,-0.61101 0.75996,-0.86076 1.27958,-1.91927 1.49853,-3.05263 0.0749,-0.38809 0.0978,-0.61951 0.10453,-1.05828 l 0.005,-0.3635 0.11266,-0.087 c 0.31684,-0.24461 0.59937,-0.53333 0.84696,-0.8655 0.0834,-0.11193 0.10521,-0.14722 0.0963,-0.15611 -0.004,-0.004 -0.0458,0.0107 -0.0946,0.0309 -0.22998,0.0952 -0.54016,0.18795 -0.7995,0.2391 -0.19273,0.038 -0.28108,0.0493 -0.28108,0.0358 0,-0.005 0.0394,-0.0368 0.0875,-0.0697 0.33195,-0.22649 0.62544,-0.60171 0.7777,-0.99423 0.0193,-0.0496 0.0311,-0.0942 0.0263,-0.0991 -0.004,-0.005 -0.0653,0.022 -0.13453,0.0597 -0.32352,0.17631 -0.69178,0.3177 -1.05601,0.40548 l -0.16645,0.0402 -0.10935,-0.0988 c -0.43527,-0.39307 -0.92482,-0.58573 -1.48835,-0.58573 z"
         style="fill:#ffffff;fill-rule:evenodd;stroke:none;stroke-width:0.01060753px;stroke-linecap:butt;stroke-linejoin:miter;stroke-opacity:1" />
    </g>
    <text
       xml:space="preserve"
       style="font-style:normal;font-weight:normal;font-size:10.58333302px;line-height:125%;font-family:sans-serif;letter-spacing:0px;word-spacing:0px;fill:#000000;fill-opacity:1;stroke:none;stroke-width:0.26458332px;stroke-linecap:butt;stroke-linejoin:miter;stroke-opacity:1"
       x="29.145002"
       y="54.256889"
       id="text6779"><tspan
         sodipodi:role="line"
         x="29.145002"
         y="54.256889"
         style="font-size:7.05555534px;stroke-width:0.26458332px"
         id="tspan6781">3. twitter</tspan></text>
    <g
       transform="matrix(0.9136856,0,0,0.9136856,-688.34369,-28.567253)"
       id="g5682">
      <circle
         r="7.0224962"
         cy="107.08392"
         cx="771.23035"
         id="circle5422-6"
         style="color:#000000;display:inline;overflow:visible;visibility:visible;opacity:1;fill:#bd2f1d;fill-opacity:1;fill-rule:nonzero;stroke:none;stroke-width:30;stroke-linecap:round;stroke-linejoin:round;stroke-miterlimit:4;stroke-dasharray:none;stroke-dashoffset:0;stroke-opacity:1;marker:none;enable-background:accumulate" />
      <path
         inkscape:connector-curvature="0"
         id="path5543"
         d="m 769.17006,112.29326 c -0.90034,-0.0357 -1.67569,-0.28758 -2.15542,-0.70046 -0.18639,-0.16044 -0.34288,-0.39697 -0.4153,-0.62777 -0.0261,-0.0833 -0.03,-0.12393 -0.0299,-0.31463 0,-0.24151 0.0107,-0.2985 0.0939,-0.50762 0.28922,-0.72749 1.10762,-1.28744 2.10856,-1.44266 0.16863,-0.0261 0.40749,-0.04 0.69266,-0.0402 0.18085,0 0.28429,-0.005 0.2898,-0.014 0.01,-0.0159 -0.005,-0.0381 -0.10656,-0.15867 -0.0858,-0.10213 -0.18402,-0.29073 -0.21415,-0.41142 -0.0457,-0.18302 -0.0211,-0.41078 0.0649,-0.60102 0.0533,-0.11802 0.0484,-0.12269 -0.12656,-0.11811 -0.38582,0.0101 -0.7602,-0.0649 -1.08037,-0.21654 -0.2153,-0.10194 -0.37179,-0.21328 -0.54914,-0.39067 -0.37979,-0.37991 -0.57077,-0.8441 -0.57368,-1.39434 -0.002,-0.30658 0.0457,-0.50013 0.19143,-0.78301 0.29607,-0.57469 0.9115,-1.0303 1.62345,-1.20187 0.29762,-0.0718 0.29664,-0.0718 1.87506,-0.072 0.84257,0 1.46319,0.005 1.46319,0.0115 0,0.01 -0.48133,0.3613 -0.55741,0.40747 -0.011,0.006 -0.20156,0.0151 -0.42358,0.0187 -0.28379,0.005 -0.40518,0.0112 -0.40871,0.0217 -0.003,0.009 0.0356,0.0373 0.0852,0.0644 0.28577,0.15655 0.50752,0.44443 0.63297,0.82175 0.10363,0.31164 0.13998,0.67831 0.0937,0.94509 -0.0845,0.48768 -0.33661,0.87257 -0.82892,1.26596 -0.36281,0.28993 -0.46864,0.44816 -0.47031,0.70327 -5.5e-4,0.11412 0.003,0.13301 0.0375,0.19908 0.12515,0.23865 0.34434,0.46272 0.74896,0.7657 0.34867,0.26108 0.59833,0.53367 0.73184,0.79907 0.0588,0.11675 0.12556,0.32667 0.15458,0.48567 0.0186,0.10187 0.0244,0.20057 0.0246,0.4247 0,0.26072 -0.003,0.30467 -0.0298,0.41068 -0.16031,0.6309 -0.63039,1.13186 -1.3224,1.40926 -0.47987,0.19235 -0.97754,0.26638 -1.62013,0.24097 z m 0.7432,-0.4565 c 0.92798,-0.10782 1.4384,-0.52647 1.51923,-1.24609 0.0465,-0.41414 -0.0427,-0.68469 -0.31503,-0.95565 -0.11982,-0.11921 -0.30541,-0.26091 -0.62075,-0.47397 -0.22488,-0.15194 -0.22693,-0.15297 -0.37161,-0.18662 -0.2268,-0.0528 -0.3774,-0.0667 -0.63989,-0.0591 -0.25586,0.007 -0.39565,0.0279 -0.61928,0.0909 -0.61712,0.17386 -1.10542,0.57474 -1.2592,1.03375 -0.0769,0.22947 -0.0598,0.54718 0.0435,0.80957 0.21974,0.55783 0.86169,0.96747 1.57947,1.0079 0.20696,0.0117 0.47539,0.003 0.68348,-0.0207 z m -0.0133,-4.77137 c 0.43079,-0.0747 0.76217,-0.47238 0.86539,-1.03832 0.0332,-0.18197 0.0296,-0.52669 -0.007,-0.72974 -0.16875,-0.91931 -0.84279,-1.62159 -1.55439,-1.61947 -0.42406,9.1e-4 -0.77597,0.26149 -0.95151,0.70358 -0.14535,0.36614 -0.15493,0.80945 -0.0277,1.27886 0.19533,0.72018 0.73955,1.30689 1.30428,1.4061 0.14408,0.0253 0.22111,0.0251 0.37161,-9.1e-4 z m 5.08553,0.27188 c -0.005,-0.005 -0.01,-0.40185 -0.01,-0.8818 0,-0.47994 -0.004,-0.88207 -0.007,-0.89361 -0.007,-0.0188 -0.0978,-0.021 -0.88586,-0.0212 -0.4828,0 -0.88544,-0.005 -0.89477,-0.011 -0.0129,-0.007 -0.0161,-0.0606 -0.0132,-0.21546 l 0.004,-0.20472 0.88432,-0.003 c 0.71872,-0.003 0.88708,-0.006 0.89906,-0.0211 0.0103,-0.0125 0.0157,-0.27771 0.0181,-0.89905 l 0.003,-0.88131 h 0.21236 0.21233 l 0.003,0.88131 c 0.002,0.62414 0.007,0.88651 0.0182,0.89915 0.0121,0.0146 0.17425,0.0179 0.89494,0.0179 0.57659,0 0.883,0.005 0.88842,0.0133 0.0106,0.0172 0.0105,0.39413 0,0.41144 -0.005,0.009 -0.32046,0.0132 -0.88828,0.0132 -0.7207,0 -0.88285,0.003 -0.89496,0.0179 -0.0104,0.0127 -0.0158,0.27501 -0.0182,0.89915 l -0.003,0.88131 -0.20649,0.004 c -0.11356,0.002 -0.21061,-5.5e-4 -0.21566,-0.005 z"
         style="fill:#ffffff" />
    </g>
    <text
       id="text6787"
       y="71.220268"
       x="29.145002"
       style="font-style:normal;font-weight:normal;font-size:10.58333302px;line-height:125%;font-family:sans-serif;letter-spacing:0px;word-spacing:0px;fill:#000000;fill-opacity:1;stroke:none;stroke-width:0.26458332px;stroke-linecap:butt;stroke-linejoin:miter;stroke-opacity:1"
       xml:space="preserve"><tspan
         id="tspan6785"
         style="font-size:7.05555534px;stroke-width:0.26458332px"
         y="71.220268"
         x="29.145002"
         sodipodi:role="line">4. google +</tspan></text>
    <g
       id="g6041"
       transform="matrix(0.9136856,0,0,0.9136856,-795.62301,25.244043)">
      <circle
         r="7.0224962"
         cy="86.817825"
         cx="888.64417"
         id="circle6023"
         style="color:#000000;display:inline;overflow:visible;visibility:visible;opacity:1;fill:#d73532;fill-opacity:1;fill-rule:nonzero;stroke:none;stroke-width:30;stroke-linecap:round;stroke-linejoin:round;stroke-miterlimit:4;stroke-dasharray:none;stroke-dashoffset:0;stroke-opacity:1;marker:none;enable-background:accumulate" />
      <path
         style="fill:#ffffff;fill-rule:evenodd;stroke:none;stroke-width:1px;stroke-linecap:butt;stroke-linejoin:miter;stroke-opacity:1"
         d="m 888.92213,81.011165 c -0.30737,-0.0028 -0.61826,0.01187 -0.85355,0.04531 -1.78363,0.253505 -3.17942,1.338524 -3.71551,2.888888 -0.17283,0.4998 -0.20966,0.758479 -0.1935,1.372802 0.009,0.357006 0.031,0.599915 0.0661,0.742127 0.16911,0.68582 0.51339,1.211523 0.98827,1.509959 0.33372,0.209722 0.5107,0.222645 0.5915,0.04409 0.0752,-0.166427 0.20075,-0.720012 0.17879,-0.78988 -0.0114,-0.03608 -0.0788,-0.140919 -0.15063,-0.232682 -0.27951,-0.357068 -0.39047,-0.723698 -0.38821,-1.289529 8.9e-4,-0.320972 0.0172,-0.456073 0.0833,-0.726201 0.22763,-0.930372 0.81133,-1.671891 1.64221,-2.086763 0.5725,-0.285847 1.27726,-0.402896 1.96552,-0.328195 1.33127,0.144488 2.16029,0.905613 2.34761,2.155339 0.10747,0.717053 -0.081,1.873261 -0.42862,2.625595 -0.32806,0.710055 -0.85898,1.185446 -1.44139,1.28953 -0.6826,0.12199 -1.30572,-0.354028 -1.30544,-0.996849 10e-5,-0.189444 0.0723,-0.486006 0.30616,-1.246667 0.37105,-1.206557 0.39369,-1.661144 0.0992,-2.075734 -0.14493,-0.204047 -0.38044,-0.308607 -0.69435,-0.308607 -0.21349,0 -0.26788,0.01222 -0.44454,0.09919 -0.39115,0.19256 -0.67598,0.604718 -0.78621,1.138903 -0.091,0.440887 -0.0647,0.86576 0.0808,1.326266 l 0.0723,0.230231 -0.43963,1.86388 c -0.24223,1.024982 -0.4608,1.999522 -0.48496,2.166356 -0.0559,0.386782 -0.0557,1.188229 0,1.70958 0.0538,0.503507 0.0946,0.57138 0.24738,0.406572 0.15517,-0.1674 0.66828,-0.971825 0.83642,-1.311569 0.21951,-0.443546 0.30236,-0.698236 0.56945,-1.743866 0.1193,-0.467039 0.22264,-0.854542 0.229,-0.860913 0.006,-0.0063 0.0807,0.0642 0.16533,0.156753 0.42004,0.45959 1.08636,0.680942 1.80509,0.600065 0.79086,-0.08899 1.4121,-0.389742 1.97165,-0.955209 0.67157,-0.678674 1.07594,-1.564284 1.243,-2.722336 0.0692,-0.479335 0.062,-1.200564 -0.0159,-1.583439 -0.31822,-1.562021 -1.62361,-2.763612 -3.31629,-3.052989 -0.21984,-0.03758 -0.52291,-0.05721 -0.8303,-0.06001 z"
         id="path6037"
         inkscape:connector-curvature="0" />
    </g>
    <text
       xml:space="preserve"
       style="font-style:normal;font-weight:normal;font-size:10.58333302px;line-height:125%;font-family:sans-serif;letter-spacing:0px;word-spacing:0px;fill:#000000;fill-opacity:1;stroke:none;stroke-width:0.26458332px;stroke-linecap:butt;stroke-linejoin:miter;stroke-opacity:1"
       x="29.145002"
       y="106.51472"
       id="text6791"><tspan
         sodipodi:role="line"
         x="29.145002"
         y="106.51472"
         style="font-size:7.05555534px;stroke-width:0.26458332px"
         id="tspan6789">6. pinterest</tspan></text>
    <g
       transform="matrix(0.9136856,0,0,0.9136856,-706.61741,24.374429)"
       id="g5753">
      <circle
         style="color:#000000;display:inline;overflow:visible;visibility:visible;opacity:1;fill:#be2729;fill-opacity:1;fill-rule:nonzero;stroke:none;stroke-width:30;stroke-linecap:round;stroke-linejoin:round;stroke-miterlimit:4;stroke-dasharray:none;stroke-dashoffset:0;stroke-opacity:1;marker:none;enable-background:accumulate"
         id="circle5463-2"
         cx="791.23035"
         cy="107.08392"
         r="7.0224962" />
      <path
         style="fill:#ffffff;fill-rule:evenodd;stroke:none;stroke-width:0.05461607px;stroke-linecap:butt;stroke-linejoin:miter;stroke-opacity:1"
         d="m 787.74529,102.56336 c -0.0304,-7e-5 -0.0382,0.92437 -0.0382,4.52057 0,4.10243 0.004,4.52056 0.0483,4.52056 0.0266,0 1.23266,-0.61362 2.68026,-1.36371 5.46863,-2.83364 5.97678,-3.10061 5.9761,-3.14001 -3.5e-4,-0.0176 -1.72759,-0.93248 -3.83845,-2.03286 -2.11085,-1.10038 -4.05206,-2.11399 -4.31388,-2.25253 -0.26179,-0.13851 -0.49313,-0.25198 -0.51415,-0.25202 z"
         id="path5742"
         inkscape:connector-curvature="0" />
      <path
         style="fill:#e5deda;fill-opacity:1;fill-rule:evenodd;stroke:none;stroke-width:1px;stroke-linecap:butt;stroke-linejoin:miter;stroke-opacity:1"
         d="m 795.35469,107.65074 -7.6094,-5.08738 8.66646,4.53741 z"
         id="path5747-4"
         inkscape:connector-curvature="0"
         sodipodi:nodetypes="cccc" />
    </g>
    <text
       id="text6795"
       y="124.16195"
       x="29.145002"
       style="font-style:normal;font-weight:normal;font-size:10.58333302px;line-height:125%;font-family:sans-serif;letter-spacing:0px;word-spacing:0px;fill:#000000;fill-opacity:1;stroke:none;stroke-width:0.26458332px;stroke-linecap:butt;stroke-linejoin:miter;stroke-opacity:1"
       xml:space="preserve"><tspan
         id="tspan6793"
         style="font-size:7.05555534px;stroke-width:0.26458332px"
         y="124.16195"
         x="29.145002"
         sodipodi:role="line">7. youtube</tspan></text>
    <g
       transform="matrix(0.9136856,0,0,0.9136856,-724.89112,42.021711)"
       id="g5690">
      <circle
         r="7.0224962"
         cy="107.08386"
         cx="811.23035"
         id="circle5508-5"
         style="color:#000000;display:inline;overflow:visible;visibility:visible;opacity:1;fill:#5ac7fd;fill-opacity:1;fill-rule:nonzero;stroke:none;stroke-width:30;stroke-linecap:round;stroke-linejoin:round;stroke-miterlimit:4;stroke-dasharray:none;stroke-dashoffset:0;stroke-opacity:1;marker:none;enable-background:accumulate" />
      <path
         inkscape:connector-curvature="0"
         id="path5514-9"
         d="m 814.99284,102.63161 c -0.18668,0 -0.38175,0.0156 -0.53324,0.0466 -0.99076,0.20218 -1.95102,0.91621 -2.30322,1.71254 -0.13016,0.29431 -0.20346,0.70384 -0.13368,0.74699 0.0137,0.009 0.1264,-0.003 0.25049,-0.0281 0.27547,-0.053 0.66891,-0.0598 0.83618,-0.0142 0.19662,0.0536 0.31431,0.1834 0.35199,0.38816 0.0434,0.23586 0.0111,0.66174 -0.0748,1.00482 -0.17772,0.70475 -0.74076,1.5301 -1.4551,2.13297 l -0.16659,0.1406 -0.0867,-0.0507 c -0.15728,-0.0916 -0.40751,-0.38838 -0.51717,-0.61335 -0.22557,-0.46255 -0.32841,-0.97256 -0.43638,-2.16383 -0.14469,-1.5967 -0.2175,-1.98464 -0.46559,-2.48116 -0.11756,-0.23527 -0.36326,-0.49212 -0.55706,-0.58233 -0.67189,-0.3127 -1.47649,-0.0402 -2.60261,0.8815 -0.96095,0.7865 -1.28007,1.13509 -1.35439,1.47946 -0.028,0.12996 0.06,0.31047 0.22569,0.46246 0.1178,0.10815 0.14795,0.12239 0.22632,0.10718 0.0498,-0.01 0.16119,-0.0688 0.24778,-0.13159 0.32,-0.23195 0.4019,-0.27024 0.60206,-0.28156 0.16995,-0.01 0.19681,-0.003 0.27848,0.0653 0.11941,0.10036 0.32767,0.41675 0.44744,0.67956 0.21535,0.47255 0.378,1.06348 0.67608,2.45617 0.36094,1.68651 0.60451,2.43448 0.96618,2.96705 0.2298,0.33841 0.59274,0.61475 0.91406,0.69605 0.16943,0.0429 0.59812,0.013 0.82444,-0.0575 1.01765,-0.3169 2.30268,-1.41096 3.4786,-2.96157 0.72095,-0.95067 1.1484,-1.77814 1.56846,-3.03594 0.22031,-0.65964 0.52038,-1.79282 0.52038,-1.96512 0,-0.0389 -0.0258,-0.1725 -0.0573,-0.29704 -0.16767,-0.66344 -0.57869,-1.09858 -1.18793,-1.25758 -0.11791,-0.0308 -0.29622,-0.0462 -0.48292,-0.046 z"
         style="fill:#ffffff;fill-rule:evenodd;stroke:none;stroke-width:1px;stroke-linecap:butt;stroke-linejoin:miter;stroke-opacity:1" />
    </g>
    <text
       xml:space="preserve"
       style="font-style:normal;font-weight:normal;font-size:10.58333302px;line-height:125%;font-family:sans-serif;letter-spacing:0px;word-spacing:0px;fill:#000000;fill-opacity:1;stroke:none;stroke-width:0.26458332px;stroke-linecap:butt;stroke-linejoin:miter;stroke-opacity:1"
       x="29.145002"
       y="142.49303"
       id="text6799"><tspan
         sodipodi:role="line"
         x="29.145002"
         y="142.49303"
         style="font-size:7.05555534px;stroke-width:0.26458332px"
         id="tspan6797">8. vimeo</tspan></text>
    <g
       transform="matrix(0.9136856,0,0,0.9136856,-761.51338,78.185717)"
       id="g5955">
      <circle
         style="color:#000000;display:inline;overflow:visible;visibility:visible;opacity:1;fill:#0065da;fill-opacity:1;fill-rule:nonzero;stroke:none;stroke-width:30;stroke-linecap:round;stroke-linejoin:round;stroke-miterlimit:4;stroke-dasharray:none;stroke-dashoffset:0;stroke-opacity:1;marker:none;enable-background:accumulate"
         id="circle5938"
         cx="851.31226"
         cy="86.817825"
         r="7.0224962" />
      <path
         inkscape:connector-curvature="0"
         id="path5934-3"
         d="m 849.6309,91.183586 c -2.12109,-1.056251 -2.65454,-3.693892 -1.10977,-5.487251 0.54231,-0.629599 1.13278,-0.979812 1.92053,-1.139099 0.78644,-0.159022 1.54786,-0.004 2.08171,0.424401 l 0.39088,0.313511 v -1.456705 -1.456704 l 0.59934,-0.124195 c 0.32963,-0.06835 0.76143,-0.164359 0.95953,-0.213459 0.25467,-0.06316 0.3845,-0.05185 0.44316,0.0385 0.0916,0.141084 0.10395,8.967033 0.013,9.204266 -0.0433,0.112725 -0.2787,0.148194 -0.98381,0.148194 h -0.92694 V 91.12234 c 0,-0.171981 -0.0244,-0.312697 -0.0541,-0.312697 -0.0299,0 -0.25261,0.128289 -0.49512,0.28508 -0.38292,0.247584 -0.5643,0.289236 -1.37901,0.31671 -0.82771,0.02791 -0.99943,10e-4 -1.45926,-0.227894 z m 2.63321,-1.798993 c 0.72229,-0.539264 0.9382,-1.363202 0.5602,-2.137756 -0.58933,-1.207583 -2.22791,-1.278002 -2.93969,-0.126343 -0.33633,0.544194 -0.25401,1.479502 0.16986,1.930032 0.16833,0.178906 0.44677,0.390694 0.61876,0.470628 0.41511,0.192954 1.24493,0.121729 1.59087,-0.136561 z"
         style="fill:#f5fbfb" />
    </g>
    <text
       id="text6803"
       y="159.45639"
       x="29.145002"
       style="font-style:normal;font-weight:normal;font-size:10.58333302px;line-height:125%;font-family:sans-serif;letter-spacing:0px;word-spacing:0px;fill:#000000;fill-opacity:1;stroke:none;stroke-width:0.26458332px;stroke-linecap:butt;stroke-linejoin:miter;stroke-opacity:1"
       xml:space="preserve"><tspan
         id="tspan6801"
         style="font-size:7.05555534px;stroke-width:0.26458332px"
         y="159.45639"
         x="29.145002"
         sodipodi:role="line">9. dailymotion</tspan></text>
    <g
       transform="matrix(0.28222223,0,0,0.28222223,211.33023,-55.315474)"
       inkscape:export-ydpi="49.48"
       inkscape:export-xdpi="49.48"
       inkscape:export-filename="/home/clucien/Documents/Carnet de croix web/Maquette/Maquette version 2/social_diaspora.png"
       id="g6703">
      <circle
         style="color:#000000;display:inline;overflow:visible;visibility:visible;opacity:1;fill:#333333;fill-opacity:1;fill-rule:nonzero;stroke:none;stroke-width:30;stroke-linecap:round;stroke-linejoin:round;stroke-miterlimit:4;stroke-dasharray:none;stroke-dashoffset:0;stroke-opacity:1;marker:none;enable-background:accumulate"
         id="circle6670"
         cx="-690.98688"
         cy="816.63525"
         r="22.735111" />
      <path
         inkscape:connector-curvature="0"
         id="path6696"
         d="m -700.16785,829.65643 c -1.36534,-0.98935 -2.5157,-1.89693 -2.55637,-2.01684 -0.0406,-0.11991 1.21372,-2.04898 2.78755,-4.28682 1.57384,-2.23784 2.81283,-4.19571 2.7533,-4.35082 -0.0596,-0.15511 -1.21237,-0.61771 -2.56188,-1.02802 -6.34688,-1.92966 -6.17763,-1.86447 -6.17243,-2.37808 0.002,-0.26464 0.39173,-1.69981 0.86454,-3.18926 0.60265,-1.89841 0.97211,-2.72988 1.2357,-2.78094 0.20681,-0.0401 2.14406,0.4931 4.305,1.18479 2.16094,0.6917 4.08884,1.25764 4.28422,1.25764 0.31102,0 0.3628,-0.63914 0.41589,-5.13411 l 0.0607,-5.13409 h 3.72362 3.72364 l 0.0607,5.13409 c 0.0542,4.58372 0.10038,5.13411 0.43082,5.13411 0.20361,0 2.13846,-0.56459 4.2997,-1.25466 2.16125,-0.69006 4.09678,-1.22244 4.30118,-1.18307 0.42324,0.0814 2.42354,6.01946 2.12748,6.3155 -0.0949,0.0949 -2.094,0.76757 -4.44242,1.49481 -2.34842,0.72724 -4.30863,1.43852 -4.356,1.58063 -0.0474,0.14212 1.19101,2.07984 2.75196,4.30606 1.56094,2.2262 2.83806,4.14002 2.83806,4.25293 0,0.2758 -5.08029,3.89727 -5.45745,3.89032 -0.16349,-0.002 -1.56167,-1.72942 -3.1071,-3.83645 -1.54542,-2.10706 -2.93214,-3.831 -3.08162,-3.831 -0.14946,0 -1.5762,1.7225 -3.17051,3.82778 -1.59432,2.10527 -3.05109,3.827 -3.23726,3.82605 -0.1862,-9.1e-4 -1.45561,-0.81119 -2.82094,-1.80055 z"
         style="fill:#ffffff"
         sodipodi:nodetypes="scssscssssscccssssssssscssscs" />
    </g>
    <text
       xml:space="preserve"
       style="font-style:normal;font-weight:normal;font-size:10.58333302px;line-height:125%;font-family:sans-serif;letter-spacing:0px;word-spacing:0px;fill:#000000;fill-opacity:1;stroke:none;stroke-width:0.26458332px;stroke-linecap:butt;stroke-linejoin:miter;stroke-opacity:1"
       x="29.145002"
       y="177.10362"
       id="text6807"><tspan
         sodipodi:role="line"
         x="29.145002"
         y="177.10362"
         style="font-size:7.05555534px;stroke-width:0.26458332px"
         id="tspan6805">10. diaspora</tspan></text>
    <g
       transform="matrix(0.28222223,0,0,0.28222223,156.01467,-37.668238)"
       inkscape:export-ydpi="49.48"
       inkscape:export-xdpi="49.48"
       inkscape:export-filename="/home/clucien/Documents/Carnet de croix web/Maquette/Maquette version 2/social_tumblr.png"
       id="g6850">
      <circle
         r="22.735111"
         cy="816.63525"
         cx="-494.98688"
         id="circle6804"
         style="color:#000000;display:inline;overflow:visible;visibility:visible;opacity:1;fill:#36465d;fill-opacity:1;fill-rule:nonzero;stroke:none;stroke-width:30;stroke-linecap:round;stroke-linejoin:round;stroke-miterlimit:4;stroke-dasharray:none;stroke-dashoffset:0;stroke-opacity:1;marker:none;enable-background:accumulate" />
      <path
         style="fill:#e6e6e6;fill-rule:evenodd;stroke:none;stroke-width:1px;stroke-linecap:butt;stroke-linejoin:miter;stroke-opacity:1"
         d="m -498.79063,798.0977 c -4.26842,-0.023 -4.44145,0.22808 -4.7416,1.93471 -0.61801,3.51388 -2.25809,5.87729 -4.96662,7.15862 l -1.59354,0.75428 0.0809,3.687 0.0812,3.6864 1.45075,0.0759 c 2.86502,0.14969 2.61139,-0.46857 2.61139,6.36748 0,6.01559 0.003,6.03804 0.80982,7.68169 0.94703,1.92849 2.33613,3.2417 4.45996,4.21403 3.21063,1.46986 8.1954,1.93221 12.04191,1.11697 3.05473,-0.64746 5.17513,-1.95708 5.17513,-3.19622 0,-0.33736 -0.43554,-1.9142 -0.96792,-3.50393 l -0.96794,-2.89076 -2.73152,-0.14514 -2.7315,-0.14514 v -4.64245 -4.64244 l 3.04661,-0.14513 3.0466,-0.14514 v -4.35229 -4.3523 l -3.0466,-0.14514 -3.04661,-0.14513 -0.14515,-4.06214 -0.14512,-4.06215 -5.62794,-0.0788 c -0.78924,-0.0114 -1.48249,-0.02 -2.09228,-0.0234 z m 3.12142,1.4519 c 0.25052,-0.001 0.527,0.003 0.83249,0.0147 l 2.31555,0.0855 0.14513,4.06212 0.14514,4.06215 3.0466,0.14513 3.04661,0.14514 v 2.90152 2.90152 l -3.04661,0.14514 -3.0466,0.14513 v 5.90168 5.90107 l 0.85458,0.73446 c 0.78202,0.67228 1.02511,0.72286 2.85904,0.59163 l 2.00443,-0.14334 0.40121,0.96001 c 0.22073,0.52824 0.56051,1.55539 0.75486,2.28211 0.32218,1.2046 0.30345,1.3591 -0.21364,1.74998 -1.4231,1.07579 -4.80801,1.68703 -7.29745,1.31816 -2.12075,-0.31425 -3.95487,-1.28474 -5.28622,-2.79724 -1.89887,-2.15724 -2.13073,-3.18215 -2.32236,-10.26019 l -0.16887,-6.2383 -1.88599,-0.14513 -1.88601,-0.14514 -0.0877,-1.87692 c -0.12185,-2.59937 0.0249,-2.9567 1.54597,-3.75781 0.73373,-0.38647 1.90656,-1.33953 2.60627,-2.11778 1.19486,-1.32894 2.46404,-3.96342 2.46404,-5.11449 0,-1.08554 0.46607,-1.44036 2.21977,-1.45135 z"
         id="path6847"
         inkscape:connector-curvature="0" />
    </g>
    <text
       id="text6811"
       y="195.43471"
       x="29.145002"
       style="font-style:normal;font-weight:normal;font-size:10.58333302px;line-height:125%;font-family:sans-serif;letter-spacing:0px;word-spacing:0px;fill:#000000;fill-opacity:1;stroke:none;stroke-width:0.26458332px;stroke-linecap:butt;stroke-linejoin:miter;stroke-opacity:1"
       xml:space="preserve"><tspan
         id="tspan6809"
         style="font-size:7.05555534px;stroke-width:0.26458332px"
         y="195.43471"
         x="29.145002"
         sodipodi:role="line">11. tumblr</tspan></text>
    <g
       inkscape:export-ydpi="49.48"
       inkscape:export-xdpi="49.48"
       inkscape:export-filename="/home/clucien/Documents/Carnet de croix web/Maquette/Maquette version 2/social_camptocamp.png"
       transform="matrix(0.28222223,0,0,0.28222223,137.53752,-36.954337)"
       id="g6934">
      <circle
         r="22.735111"
         cy="876.63525"
         cx="-429.51666"
         id="circle6922"
         style="color:#000000;display:inline;overflow:visible;visibility:visible;opacity:1;fill:#f58d20;fill-opacity:1;fill-rule:nonzero;stroke:none;stroke-width:30;stroke-linecap:round;stroke-linejoin:round;stroke-miterlimit:4;stroke-dasharray:none;stroke-dashoffset:0;stroke-opacity:1;marker:none;enable-background:accumulate" />
      <g
         transform="matrix(1.1040623,0,0,1.1040623,42.439639,-21.58422)"
         id="g6924">
        <path
           sodipodi:nodetypes="sssssssccsssssssscsssssscsscc"
           style="fill:#2e2a2b;fill-opacity:1"
           d="m -418.35609,819.17735 c -3.53529,-0.92955 -6.38783,-1.93713 -8.24218,-2.91132 -0.54795,-0.28787 -1.03319,-0.5234 -1.07831,-0.5234 l -1.26073,-0.78866 c 0,-0.05 -0.38565,-0.45788 -0.85699,-0.90643 -1.04851,-0.99779 -1.70185,-1.92566 -2.4002,-3.40873 -0.99663,-2.1165 -1.9977,-3.16475 -3.48261,-3.64675 -0.81084,-0.26319 -0.78848,-0.77555 0.0387,-0.8865 0.98521,-0.13214 2.63073,0.57565 4.04253,1.73883 0.81892,0.67471 1.41973,1.32491 3.14434,3.40282 0.39718,0.47855 0.99464,1.14326 1.32769,1.47715 0.15338,0.20439 0.95047,0.81843 1.5702,1.3196 0,0.0274 0.61968,0.49025 1.37706,1.02859 1.39498,0.99156 4.13081,2.45003 6.53004,3.48118 0.91084,0.39146 0.99243,0.44793 0.96676,0.66923 -0.0395,0.34109 -0.22477,0.33605 -1.67629,-0.0456 z m -29.1457,-2.1329 c -0.10072,-0.12136 -0.0897,-0.2468 0.0607,-0.69024 0.10107,-0.29805 0.27077,-0.60216 0.37711,-0.67579 0.10635,-0.0736 0.85098,-0.56501 1.65474,-1.09194 0.80376,-0.52692 1.91311,-1.31471 2.46523,-1.75064 1.30754,-1.03238 3.13527,-2.87829 3.60711,-3.64299 0.39418,-0.63883 0.50302,-0.6954 0.87235,-0.4534 0.35922,0.23537 0.36078,0.379 0.0128,1.17965 -0.1788,0.41144 -0.35724,0.85682 -0.39653,0.98975 -0.13871,0.46929 -0.97544,1.59504 -1.83511,2.469 -2.30122,2.33944 -6.18604,4.42852 -6.81838,3.6666 z"
           id="path6926"
           inkscape:connector-curvature="0" />
        <path
           style="fill:#2e2a2b"
           d="m -408.87711,818.57655 c -4.46702,-0.57587 -6.75496,-1.12528 -8.70081,-2.08935 -1.46718,-0.7269 -2.20596,-1.35169 -3.29389,-2.78561 -0.9807,-1.2926 -1.64961,-1.78088 -2.89246,-2.11146 -0.73971,-0.19674 -0.82743,-0.42711 -0.22447,-0.58951 0.78985,-0.21273 2.21259,0.18721 3.58414,1.00753 0.35951,0.21501 1.27309,0.89002 2.03019,1.50001 1.74261,1.404 2.38088,1.8148 4.0807,2.62635 1.30362,0.62239 3.17143,1.27589 5.46494,1.91204 0.70984,0.19688 1.0245,0.32888 1.04636,0.43895 0.0253,0.12764 -0.0478,0.15467 -0.38671,0.14292 -0.22988,-0.008 -0.54847,-0.0313 -0.70799,-0.0519 z m -22.76712,-1.65938 c 0,-0.0984 0.0465,-0.31224 0.10327,-0.47517 0.0881,-0.25269 0.21955,-0.34243 0.89425,-0.61038 0.43504,-0.17277 1.04409,-0.43961 1.35345,-0.59297 l 0.56246,-0.27885 0.43016,0.27057 c 0.24592,0.15469 0.41908,0.33269 0.40429,0.41559 -0.0142,0.0798 -0.4174,0.35086 -0.89595,0.60244 -1.46963,0.77262 -2.85193,1.09677 -2.85193,0.66877 z m 5.56672,-3.2381 c -0.25548,-0.20443 -0.26919,-0.24366 -0.14501,-0.41499 0.41474,-0.57226 0.73449,-0.90509 0.86953,-0.90509 0.22261,-10e-6 0.608,0.4429 0.51953,0.59706 -0.18571,0.32361 -0.7447,0.9497 -0.84752,0.94927 -0.0629,-2.5e-4 -0.24135,-0.10208 -0.39653,-0.22625 z"
           id="path6928"
           inkscape:connector-curvature="0"
           sodipodi:nodetypes="csscsssssccccscsscscsscscscc" />
      </g>
    </g>
    <text
       xml:space="preserve"
       style="font-style:normal;font-weight:normal;font-size:10.58333302px;line-height:125%;font-family:sans-serif;letter-spacing:0px;word-spacing:0px;fill:#000000;fill-opacity:1;stroke:none;stroke-width:0.26458332px;stroke-linecap:butt;stroke-linejoin:miter;stroke-opacity:1"
       x="29.145002"
       y="212.33609"
       id="text6815"><tspan
         sodipodi:role="line"
         x="29.145002"
         y="212.33609"
         style="font-size:7.05555534px;stroke-width:0.26458332px"
         id="tspan6813">12. camptocamp</tspan></text>
    <g
       transform="matrix(0.9136856,0,0,0.9136856,-779.78709,7.5968162)"
       id="g5975">
      <circle
         r="7.0224962"
         cy="86.817825"
         cx="871.31226"
         id="circle5961"
         style="color:#000000;display:inline;overflow:visible;visibility:visible;opacity:1;fill:#2e5e86;fill-opacity:1;fill-rule:nonzero;stroke:none;stroke-width:30;stroke-linecap:round;stroke-linejoin:round;stroke-miterlimit:4;stroke-dasharray:none;stroke-dashoffset:0;stroke-opacity:1;marker:none;enable-background:accumulate" />
      <path
         inkscape:connector-curvature="0"
         id="path5971"
         d="m 867.70239,91.292579 c -0.36589,-0.08662 -0.68936,-0.395624 -0.80756,-0.771468 l -0.0504,-0.160256 v -3.544992 -3.544992 l 0.051,-0.162289 c 0.0992,-0.315556 0.34931,-0.590303 0.65541,-0.719977 l 0.14887,-0.06306 h 3.61251 3.61252 l 0.14887,0.06306 c 0.30609,0.129674 0.55621,0.404421 0.65541,0.719977 l 0.051,0.162289 v 3.544992 3.544992 l -0.051,0.162288 c -0.0992,0.315556 -0.34932,0.590303 -0.65541,0.719978 l -0.14887,0.06306 -3.5675,0.0036 c -2.10374,0.0021 -3.60335,-0.0049 -3.65487,-0.01714 z m 6.81509,-1.039007 c 0.0484,-0.02766 0.11924,-0.0892 0.15756,-0.13676 l 0.0697,-0.08649 0.006,-2.023627 0.006,-2.023627 h -0.38298 c -0.21844,0 -0.38299,0.0089 -0.38299,0.02073 0,0.0114 0.0222,0.110155 0.0493,0.219452 0.0405,0.162677 0.0496,0.266083 0.0506,0.5701 8.9e-4,0.40298 -0.0212,0.563089 -0.12414,0.880943 -0.27305,0.843161 -0.95274,1.52285 -1.7959,1.7959 -0.31083,0.100656 -0.48015,0.125389 -0.85844,0.125389 -0.37828,0 -0.54761,-0.02473 -0.85843,-0.125389 -0.84316,-0.27305 -1.52285,-0.952739 -1.7959,-1.7959 -0.10294,-0.317854 -0.12549,-0.477963 -0.12414,-0.880943 8.9e-4,-0.304017 0.0102,-0.407423 0.0506,-0.5701 0.0271,-0.109297 0.0493,-0.20805 0.0493,-0.219452 0,-0.01179 -0.16025,-0.02073 -0.37197,-0.02073 h -0.37196 l 0.006,1.997575 c 0.007,2.199445 -0.003,2.048935 0.1448,2.198108 0.13008,0.131227 -0.0603,0.124026 3.29386,0.12458 l 3.09484,5.11e-4 0.0879,-0.05027 z m -2.85486,-1.639121 c 0.45959,-0.08449 0.91524,-0.393353 1.18112,-0.800639 0.20295,-0.310888 0.29165,-0.615204 0.29165,-1.000612 0,-0.62817 -0.30147,-1.185274 -0.8281,-1.53033 -0.30626,-0.200665 -0.61313,-0.290146 -0.99505,-0.290146 -0.38191,0 -0.68877,0.08948 -0.99503,0.290146 -0.52664,0.345056 -0.8281,0.90216 -0.8281,1.53033 0,0.269238 0.029,0.434233 0.11586,0.660086 0.21615,0.56179 0.72965,1.004582 1.31339,1.132534 0.16766,0.03675 0.56615,0.04138 0.74426,0.0086 z m 2.85486,-3.695248 c 0.0484,-0.02765 0.11924,-0.08917 0.15756,-0.13671 l 0.0697,-0.08644 0.007,-0.514259 c 0.006,-0.473776 0.003,-0.521012 -0.0372,-0.600053 -0.0553,-0.107788 -0.1269,-0.175167 -0.23365,-0.219767 -0.0663,-0.02771 -0.18051,-0.03484 -0.55787,-0.03484 -0.50543,0 -0.5434,0.0068 -0.64564,0.116334 -0.10655,0.114121 -0.11924,0.187954 -0.11924,0.693949 0,0.505845 0.0125,0.578669 0.11924,0.694781 0.11158,0.121369 0.19039,0.137012 0.69104,0.137147 0.43638,1.12e-4 0.46618,-0.0026 0.5493,-0.05014 z"
         style="fill:#ffffff"
         sodipodi:nodetypes="ccccccccccscccccscccccccccsscccssssccsscccscccsssssssccsacccccscsccca" />
    </g>
    <text
       id="text6819"
       y="88.867493"
       x="29.145002"
       style="font-style:normal;font-weight:normal;font-size:10.58333302px;line-height:125%;font-family:sans-serif;letter-spacing:0px;word-spacing:0px;fill:#000000;fill-opacity:1;stroke:none;stroke-width:0.26458332px;stroke-linecap:butt;stroke-linejoin:miter;stroke-opacity:1"
       xml:space="preserve"><tspan
         id="tspan6817"
         style="font-size:7.05555534px;stroke-width:0.26458332px"
         y="88.867493"
         x="29.145002"
         sodipodi:role="line">5. instagramme</tspan></text>
    <g
       transform="matrix(0.28222223,0,0,0.28222223,121.73307,-2.373773)"
       inkscape:export-ydpi="49.48"
       inkscape:export-xdpi="49.48"
       inkscape:export-filename="/home/clucien/Documents/Carnet de croix web/Maquette/Maquette version 2/social_i_love_climbing.png"
       id="g6984">
      <circle
         style="color:#000000;display:inline;overflow:visible;visibility:visible;opacity:1;fill:#3198d2;fill-opacity:1;fill-rule:nonzero;stroke:none;stroke-width:30;stroke-linecap:round;stroke-linejoin:round;stroke-miterlimit:4;stroke-dasharray:none;stroke-dashoffset:0;stroke-opacity:1;marker:none;enable-background:accumulate"
         id="circle6959"
         cx="-373.51666"
         cy="816.63525"
         r="22.735111" />
      <g
         id="g6951"
         transform="matrix(0.2880229,0,0,0.2880229,-275.5692,655.90942)"
         style="fill:#ffffff">
        <path
           style="fill:#ffffff"
           d="m -336.17471,597.9141 c -10.73741,-11.06542 -17.58511,-19.94679 -22.14016,-28.71546 -2.76407,-5.32097 -3.11967,-6.96196 -3.14212,-14.5 -0.0223,-7.49457 0.34823,-9.28844 3.13263,-15.16555 3.45225,-7.28675 5.83648,-9.23285 10.07154,-8.22077 4.99211,1.193 5.52372,2.29669 2.7144,5.63539 -3.88336,4.61511 -6.49421,10.38024 -7.12929,15.74252 -0.47928,4.04675 -0.0781,5.90788 2.41024,11.18161 3.32603,7.04909 9.36936,15.33032 17.72378,24.28706 5.08222,5.44863 5.69597,5.82373 7.14988,4.36982 0.87474,-0.87474 11.60498,-15.70685 23.84498,-32.96025 l 22.25455,-31.36983 5.23494,-0.30517 c 4.32716,-0.25225 5.17703,-0.0331 4.90099,1.2635 -0.57303,2.69173 -54.89396,78.54167 -56.24865,78.54167 -0.70576,0 -5.55574,-4.40304 -10.77771,-9.78454 z m -27.4864,0.0719 c -10.7694,-11.06431 -17.39505,-19.82466 -22.07445,-29.18656 -3.26562,-6.53338 -3.69104,-8.23648 -3.63555,-14.55412 0.14014,-15.95492 10.78385,-29.47927 26.83055,-34.09204 16.33607,-4.69595 35.7882,4.53284 42.77634,20.29463 2.98309,6.72836 3.57032,17.87549 1.26487,24.01051 -2.02078,5.3775 -9.23744,16.99881 -11.92964,19.21083 -1.61912,1.33034 -2.01648,1.18729 -4.16659,-1.5 -1.30723,-1.63382 -2.37902,-3.3395 -2.38175,-3.79041 -0.003,-0.4509 1.36384,-2.80932 3.03684,-5.24093 4.35764,-6.33362 7.93707,-14.44309 7.94842,-18.00774 0.0595,-18.68768 -20.47799,-32.05196 -37.61995,-24.48028 -14.34521,6.33634 -20.11792,21.24767 -13.41004,34.63906 3.1661,6.32068 13.24458,19.39098 19.9314,25.84807 l 4.07847,3.93836 2.3294,-2.18836 c 3.09466,-2.90729 4.15225,-2.76702 6.76104,0.89669 l 2.19675,3.08504 -4.84106,4.91496 c -2.66258,2.7032 -5.69011,4.91493 -6.72783,4.91493 -1.05577,0 -5.62189,-3.83739 -10.36722,-8.71267 z m 56.03174,-62.1667 c -3.57964,-3.34042 -6.62493,-5.18854 -10,-6.0688 -2.66911,-0.69614 -5.52793,-1.45725 -6.35293,-1.69136 -0.825,-0.23411 -3.3,-1.98695 -5.5,-3.89521 -4.73204,-4.10451 -3.84482,-5.42532 3.66091,-5.44998 11.36403,-0.0373 28.9037,9.35288 28.80582,15.42178 -0.0348,2.15769 -3.17835,6.59056 -4.62702,6.52479 -0.46184,-0.021 -3.15589,-2.19952 -5.98678,-4.84122 z"
           id="path6953"
           inkscape:connector-curvature="0"
           sodipodi:nodetypes="ssssssssssscsssscssssssscssssscsscssccsssssscs" />
      </g>
    </g>
    <text
       id="text6823"
       y="230.72917"
       x="29.145002"
       style="font-style:normal;font-weight:normal;font-size:10.58333302px;line-height:125%;font-family:sans-serif;letter-spacing:0px;word-spacing:0px;fill:#000000;fill-opacity:1;stroke:none;stroke-width:0.26458332px;stroke-linecap:butt;stroke-linejoin:miter;stroke-opacity:1"
       xml:space="preserve"><tspan
         id="tspan6821"
         style="font-size:7.05555534px;stroke-width:0.26458332px"
         y="230.72917"
         x="29.145002"
         sodipodi:role="line">13. ilooove.it</tspan></text>
    <g
       transform="matrix(0.28222223,0,0,0.28222223,192.70355,15.273455)"
       inkscape:export-ydpi="49.48"
       inkscape:export-xdpi="49.48"
       inkscape:export-filename="/home/clucien/Documents/Carnet de croix web/Maquette/Maquette version 2/social_behance.png"
       id="g6751">
      <circle
         r="22.735111"
         cy="816.63525"
         cx="-624.98688"
         id="circle6720"
         style="color:#000000;display:inline;overflow:visible;visibility:visible;opacity:1;fill:#1377ff;fill-opacity:1;fill-rule:nonzero;stroke:none;stroke-width:30;stroke-linecap:round;stroke-linejoin:round;stroke-miterlimit:4;stroke-dasharray:none;stroke-dashoffset:0;stroke-opacity:1;marker:none;enable-background:accumulate" />
      <path
         style="fill:#ffffff;fill-rule:evenodd;stroke:none;stroke-width:1px;stroke-linecap:butt;stroke-linejoin:miter;stroke-opacity:1"
         d="m -642.06765,805.06682 -0.0246,11.21507 c -0.0134,6.16829 -0.003,11.2707 0.0223,11.33864 0.0379,0.0996 1.3354,0.11782 6.68668,0.0937 6.54744,-0.0293 6.65012,-0.0329 7.40633,-0.24544 1.30146,-0.36583 2.29674,-0.92179 3.11942,-1.74262 1.30261,-1.2997 1.74406,-2.5109 1.74748,-4.79538 0.002,-1.55944 -0.16493,-2.39633 -0.68428,-3.42515 -0.51084,-1.01197 -1.49533,-1.81653 -2.43963,-1.99368 -0.19537,-0.0367 -0.37685,-0.10185 -0.40345,-0.14491 -0.0265,-0.043 0.23189,-0.21621 0.57457,-0.38492 1.59587,-0.78564 2.39299,-2.53552 2.15881,-4.73922 -0.25834,-2.43091 -1.57019,-4.08847 -3.88215,-4.90547 l -0.7659,-0.27072 h -6.75781 -6.75781 z m 23.77214,1.34196 -0.0269,1.19295 c -0.0149,0.65609 -0.005,1.24963 0.0213,1.31896 0.0392,0.10227 0.92246,0.12128 4.67594,0.1011 l 4.62764,-0.0248 v -1.29405 -1.29405 h -4.64898 -4.64899 z m -13.9814,2.64988 c 1.23115,-0.002 2.17419,0.0107 2.29679,0.0322 0.44957,0.0805 0.97531,0.66522 1.15551,1.28505 0.3134,1.07805 0.0408,2.8038 -0.52179,3.30309 -0.45497,0.40379 -0.7775,0.43761 -4.21707,0.44202 -2.56844,0.003 -3.29619,-0.0224 -3.33265,-0.11739 -0.0257,-0.0668 -0.035,-1.19914 -0.021,-2.5162 l 0.0257,-2.3947 3.30701,-0.0275 c 0.45471,-0.003 0.89714,-0.005 1.30752,-0.006 z m 19.02224,1.72727 c -4.32801,-0.0629 -7.30897,2.08649 -8.47721,6.12857 -1.03103,3.56734 -0.0674,7.44546 2.34752,9.44793 1.03964,0.86205 2.45393,1.47856 3.91659,1.70742 1.16134,0.18171 3.23183,0.17784 4.3206,-0.009 2.38871,-0.40823 4.13331,-1.51904 4.93075,-3.13927 0.35413,-0.7195 0.65134,-1.90435 0.60266,-2.40275 l -0.0289,-0.29468 -1.85682,-0.026 c -1.14906,-0.0162 -1.90126,0.0109 -1.97347,0.0707 -0.0641,0.0533 -0.16646,0.26298 -0.22727,0.46598 -0.31004,1.03482 -1.22052,1.64357 -2.76596,1.84934 -1.98476,0.26425 -3.63803,-0.43495 -4.34643,-1.83829 -0.28111,-0.55686 -0.53982,-1.70428 -0.44183,-1.95961 0.0473,-0.12331 0.83861,-0.14559 5.92917,-0.16699 l 5.87432,-0.0247 0.0283,-1.05441 c 0.0748,-2.80314 -0.83614,-5.34625 -2.45873,-6.86527 -1.26026,-1.17982 -2.83905,-1.77836 -4.95041,-1.87685 -0.14239,-0.006 -0.28331,-0.011 -0.42292,-0.0129 z m -0.1043,3.39238 c 0.99524,-0.005 1.1545,0.0193 1.63796,0.24601 0.61824,0.28991 1.15274,0.78792 1.43091,1.33317 0.24211,0.47458 0.51038,1.49958 0.44033,1.68216 -0.044,0.11466 -0.63246,0.13629 -3.69211,0.13629 -2.19058,0 -3.66225,-0.0361 -3.69605,-0.0908 -0.09,-0.14571 0.30321,-1.15226 0.6605,-1.69039 0.39326,-0.59227 0.99111,-1.10081 1.64002,-1.39514 0.40241,-0.18252 0.64682,-0.21687 1.57844,-0.2213 z m -23.53249,3.44556 h 3.54664 3.54665 l 0.50381,0.27914 c 0.99058,0.54886 1.31744,1.2527 1.31744,2.83615 0,1.01775 -0.0209,1.14518 -0.27295,1.65857 -0.30448,0.62007 -0.71719,0.95288 -1.45824,1.17591 -0.62652,0.18855 -7.11592,0.20324 -7.18766,0.0163 -0.0256,-0.0664 -0.0349,-1.43597 -0.021,-3.04341 l 0.0253,-2.92264 z"
         id="path6748"
         inkscape:connector-curvature="0" />
    </g>
    <text
       xml:space="preserve"
       style="font-style:normal;font-weight:normal;font-size:10.58333302px;line-height:125%;font-family:sans-serif;letter-spacing:0px;word-spacing:0px;fill:#000000;fill-opacity:1;stroke:none;stroke-width:0.26458332px;stroke-linecap:butt;stroke-linejoin:miter;stroke-opacity:1"
       x="29.145002"
       y="248.3764"
       id="text6827"><tspan
         sodipodi:role="line"
         x="29.145002"
         y="248.3764"
         style="font-size:7.05555534px;stroke-width:0.26458332px"
         id="tspan6825">14. behance</tspan></text>
    <g
       transform="matrix(0.28222223,0,0,0.28222223,175.77023,32.920682)"
       inkscape:export-ydpi="49.48"
       inkscape:export-xdpi="49.48"
       inkscape:export-filename="/home/clucien/Documents/Carnet de croix web/Maquette/Maquette version 2/social_flickr.png"
       id="g6796">
      <circle
         style="color:#000000;display:inline;overflow:visible;visibility:visible;opacity:1;fill:#ffffff;fill-opacity:1;fill-rule:nonzero;stroke:none;stroke-width:30;stroke-linecap:round;stroke-linejoin:round;stroke-miterlimit:4;stroke-dasharray:none;stroke-dashoffset:0;stroke-opacity:1;marker:none;enable-background:accumulate"
         id="circle6768"
         cx="-564.98688"
         cy="816.63525"
         r="22.735111" />
      <g
         id="g6792"
         transform="matrix(0.11247059,0,0,0.11247059,-495.31679,758.2504)">
        <circle
           r="69.485115"
           cy="519.11218"
           cx="-712.25"
           id="circle6768-5"
           style="color:#000000;display:inline;overflow:visible;visibility:visible;opacity:1;fill:#1377ff;fill-opacity:1;fill-rule:nonzero;stroke:none;stroke-width:30;stroke-linecap:round;stroke-linejoin:round;stroke-miterlimit:4;stroke-dasharray:none;stroke-dashoffset:0;stroke-opacity:1;marker:none;enable-background:accumulate" />
        <circle
           style="color:#000000;display:inline;overflow:visible;visibility:visible;opacity:1;fill:#ff0082;fill-opacity:1;fill-rule:nonzero;stroke:none;stroke-width:30;stroke-linecap:round;stroke-linejoin:round;stroke-miterlimit:4;stroke-dasharray:none;stroke-dashoffset:0;stroke-opacity:1;marker:none;enable-background:accumulate"
           id="circle6789"
           cx="-531.25"
           cy="519.11218"
           r="69.485115" />
      </g>
    </g>
    <text
       id="text6858"
       y="266.02362"
       x="29.145002"
       style="font-style:normal;font-weight:normal;font-size:10.58333302px;line-height:125%;font-family:sans-serif;letter-spacing:0px;word-spacing:0px;fill:#000000;fill-opacity:1;stroke:none;stroke-width:0.26458332px;stroke-linecap:butt;stroke-linejoin:miter;stroke-opacity:1"
       xml:space="preserve"><tspan
         id="tspan6856"
         style="font-size:7.05555534px;stroke-width:0.26458332px"
         y="266.02362"
         x="29.145002"
         sodipodi:role="line">15. flickr</tspan></text>
    <g
       transform="matrix(0.28222223,0,0,0.28222223,103.10641,50.56791)"
       inkscape:export-ydpi="49"
       inkscape:export-xdpi="49"
       inkscape:export-filename="/home/clucien/Documents/Carnet de croix web/Maquette/Maquette version 2/social_verticall.png"
       id="g7152">
      <circle
         r="22.735111"
         cy="816.63525"
         cx="-307.51666"
         id="circle7098"
         style="color:#000000;display:inline;overflow:visible;visibility:visible;opacity:1;fill:#ffffff;fill-opacity:1;fill-rule:nonzero;stroke:none;stroke-width:30;stroke-linecap:round;stroke-linejoin:round;stroke-miterlimit:4;stroke-dasharray:none;stroke-dashoffset:0;stroke-opacity:1;marker:none;enable-background:accumulate" />
      <g
         id="g7141"
         transform="matrix(0.41449422,0,0,0.41449422,-177.6034,448.71357)">
        <g
           transform="translate(137.88582,231.93102)"
           id="g7135">
          <circle
             r="27.938709"
             cy="646.06519"
             cx="-474.53702"
             id="circle7117"
             style="color:#000000;display:inline;overflow:visible;visibility:visible;opacity:1;fill:#b70079;fill-opacity:1;fill-rule:nonzero;stroke:none;stroke-width:1.98599994;stroke-linecap:round;stroke-linejoin:round;stroke-miterlimit:4;stroke-dasharray:none;stroke-dashoffset:0;stroke-opacity:1;marker:none;enable-background:accumulate" />
          <text
             xml:space="preserve"
             style="font-style:normal;font-variant:normal;font-weight:bold;font-stretch:normal;line-height:0%;font-family:Calibri;-inkscape-font-specification:'Calibri Bold';letter-spacing:0px;word-spacing:0px;fill:#ffffff;fill-opacity:1;stroke:none;stroke-width:1px;stroke-linecap:butt;stroke-linejoin:miter;stroke-opacity:1"
             x="-442.70773"
             y="726.04962"
             id="text7121"
             transform="scale(1.097864,0.91085963)"><tspan
               sodipodi:role="line"
               id="tspan7123"
               x="-442.70773"
               y="726.04962"
               style="font-size:48.65585327px;line-height:1">?</tspan></text>
          <path
             style="fill:#b70079;fill-opacity:1;fill-rule:evenodd;stroke:none;stroke-width:1px;stroke-linecap:butt;stroke-linejoin:miter;stroke-opacity:1"
             d="m -495.5,659.4872 -1.625,15.375 16,-5.5 z"
             id="path7125"
             inkscape:connector-curvature="0"
             sodipodi:nodetypes="cccc" />
        </g>
        <g
           transform="translate(137.88582,231.93102)"
           id="g7130">
          <circle
             style="color:#000000;display:inline;overflow:visible;visibility:visible;opacity:1;fill:#009cdf;fill-opacity:1;fill-rule:nonzero;stroke:none;stroke-width:1.98599994;stroke-linecap:round;stroke-linejoin:round;stroke-miterlimit:4;stroke-dasharray:none;stroke-dashoffset:0;stroke-opacity:1;marker:none;enable-background:accumulate"
             id="path7115"
             cx="-435.24417"
             cy="662.24194"
             r="27.938709" />
          <path
             style="fill:#ffffff;fill-rule:evenodd;stroke:none;stroke-width:1px;stroke-linecap:butt;stroke-linejoin:miter;stroke-opacity:1"
             d="m -448.375,670.1122 7.5,-22 8.125,10.375 5.625,-6.25 6.875,17.875 z"
             id="path7119"
             inkscape:connector-curvature="0"
             sodipodi:nodetypes="cccccc" />
          <path
             style="fill:#009cdf;fill-opacity:1;fill-rule:evenodd;stroke:none;stroke-width:1px;stroke-linecap:butt;stroke-linejoin:miter;stroke-opacity:1"
             d="m -426.56217,686.08089 13.7002,5.48008 -2.20971,-14.49569 z"
             id="path7127"
             inkscape:connector-curvature="0" />
        </g>
      </g>
    </g>
    <text
       xml:space="preserve"
       style="font-style:normal;font-weight:normal;font-size:10.58333302px;line-height:125%;font-family:sans-serif;letter-spacing:0px;word-spacing:0px;fill:#000000;fill-opacity:1;stroke:none;stroke-width:0.26458332px;stroke-linecap:butt;stroke-linejoin:miter;stroke-opacity:1"
       x="29.145002"
       y="283.67087"
       id="text6910"><tspan
         sodipodi:role="line"
         x="29.145002"
         y="283.67087"
         style="font-size:7.05555534px;stroke-width:0.26458332px"
         id="tspan6908">16. verticall</tspan></text>
  </g>
</svg>
