<?xml version="1.0" encoding="UTF-8" standalone="no"?>
<svg version="1.1" viewBox="0 0 19.96755 24.999999" height="7.0555553mm" width="5.6352863mm">
  <g transform="translate(-257.30034,-422.21728)">
    <path d="m 267.29222,422.21728 c -3.31373,2.24388 -2.69156,5.03736 -1.85776,7.86101 -2.492,-2.20482 -5.14342,-3.04384 -8.13412,-0.98702 0.96818,3.8544 3.70193,4.25822 6.49539,4.55111 -2.98491,1.42929 -3.23879,4.05202 -3.03407,6.87398 2.21231,-0.37767 4.47004,-0.53745 6.15468,-3.3775 l 0,7.38507 c -2.47245,-2.31509 -3.48157,-2.15872 -4.68902,-2.33639 0.79874,1.66899 2.09881,2.96354 4.70795,3.27474 l -0.0676,1.755 1.12494,0 0,-1.65495 c 2.09833,-0.51248 3.81899,-1.38715 4.38074,-3.39102 -1.44951,0.28274 -2.89878,0.36766 -4.34829,2.18226 l 0,-7.19578 c 1.15446,2.13703 2.92494,3.46815 5.8491,3.29097 0.21947,-4.30513 -1.18048,-5.79634 -2.84748,-6.82261 3.75822,-0.16722 5.42658,-1.97424 6.24121,-4.45105 -3.42152,-2.3782 -5.72691,-1.01558 -7.89345,0.81936 0.58002,-2.88822 1.15522,-5.77673 -2.08221,-7.77718 z m 0.0973,9.1536 a 1.6399296,1.6399296 0 0 1 1.64143,1.63872 1.6399296,1.6399296 0 0 1 -1.64143,1.63872 1.6399296,1.6399296 0 0 1 -1.63871,-1.63872 1.6399296,1.6399296 0 0 1 1.63871,-1.63872 z" style="opacity:1;fill:#4d4d4d;fill-opacity:1;fill-rule:evenodd;stroke:none;stroke-width:1px;stroke-linecap:butt;stroke-linejoin:miter;stroke-opacity:1" />
  </g>
</svg>
