<?xml version="1.0" encoding="UTF-8" standalone="no"?>
<svg version="1.1" viewBox="0 0 24.999991 24.999999" height="7.0555553mm" width="7.055553mm">
  <g transform="translate(-253.62697,-533.73525)">
    <path d="m 266.15215,533.73525 -2.49553,3.34322 -3.69292,-1.39604 -0.64907,3.94192 -3.8412,0.54834 1.24776,3.59222 -3.09422,2.74451 3.09422,2.39481 -1.4464,3.59501 4.03984,0.84769 0.64907,3.69293 3.69292,-1.29812 2.24653,2.99351 2.59345,-2.94315 3.89436,1.24776 0.54834,-3.79365 3.64256,-0.64906 -1.14704,-3.74048 3.19214,-2.24653 -3.2425,-2.84523 1.39604,-3.44114 -3.74049,-0.55114 -0.5987,-4.14056 -3.844,1.4464 -2.44516,-3.34322 z m -0.0419,4.328 a 8.2632674,8.2632674 0 0 1 8.26153,8.26153 8.2632674,8.2632674 0 0 1 -8.26153,8.26432 8.2632674,8.2632674 0 0 1 -8.26432,-8.26432 8.2632674,8.2632674 0 0 1 8.26432,-8.26153 z m 0,1.14705 a 7.1155426,7.1155426 0 0 0 -7.11728,7.11448 7.1155426,7.1155426 0 0 0 7.11728,7.11727 7.1155426,7.1155426 0 0 0 7.11448,-7.11727 7.1155426,7.1155426 0 0 0 -7.11448,-7.11448 z" style="fill:#4d4d4d;fill-opacity:1;fill-rule:evenodd;stroke:none;stroke-width:1px;stroke-linecap:butt;stroke-linejoin:miter;stroke-opacity:1" />
  </g>
</svg>
