<?xml version="1.0" encoding="UTF-8" standalone="no"?>
<!-- Created with Inkscape (http://www.inkscape.org/) -->

<svg
   xmlns:dc="http://purl.org/dc/elements/1.1/"
   xmlns:cc="http://creativecommons.org/ns#"
   xmlns:rdf="http://www.w3.org/1999/02/22-rdf-syntax-ns#"
   xmlns:svg="http://www.w3.org/2000/svg"
   xmlns="http://www.w3.org/2000/svg"
   xmlns:sodipodi="http://sodipodi.sourceforge.net/DTD/sodipodi-0.dtd"
   xmlns:inkscape="http://www.inkscape.org/namespaces/inkscape"
   width="109.30691mm"
   height="53.985027mm"
   viewBox="0 0 387.30794 191.28553"
   id="svg7357"
   version="1.1"
   inkscape:version="0.91 r13725"
   sodipodi:docname="svg-info-falaise.svg">
  <defs
     id="defs7359" />
  <sodipodi:namedview
     id="base"
     pagecolor="#ffffff"
     bordercolor="#666666"
     borderopacity="1.0"
     inkscape:pageopacity="0.0"
     inkscape:pageshadow="2"
     inkscape:zoom="0.98994949"
     inkscape:cx="262.69104"
     inkscape:cy="125.98559"
     inkscape:document-units="px"
     inkscape:current-layer="layer1"
     showgrid="false"
     fit-margin-top="0"
     fit-margin-left="0"
     fit-margin-right="0"
     fit-margin-bottom="0"
     inkscape:window-width="1366"
     inkscape:window-height="708"
     inkscape:window-x="1920"
     inkscape:window-y="402"
     inkscape:window-maximized="1" />
  <metadata
     id="metadata7362">
    <rdf:RDF>
      <cc:Work
         rdf:about="">
        <dc:format>image/svg+xml</dc:format>
        <dc:type
           rdf:resource="http://purl.org/dc/dcmitype/StillImage" />
        <dc:title></dc:title>
      </cc:Work>
    </rdf:RDF>
  </metadata>
  <g
     inkscape:label="Calque 1"
     inkscape:groupmode="layer"
     id="layer1"
     transform="translate(-115.00667,-70.734722)">
    <g
       transform="matrix(1.3624537,0,0,1.3624537,42.677297,37.142887)"
       id="g7195">
      <path
         inkscape:connector-curvature="0"
         id="path7371"
         d="m 337.35966,123.50239 -284.27207,0 c -0.0016,22.18953 63.63575,41.55092 142.13657,41.55083 78.5004,-7e-5 142.137,-19.36142 142.1355,-41.55083 z"
         style="opacity:1;fill:#502d16;fill-opacity:1;stroke:none" />
      <ellipse
         ry="30.291269"
         rx="142.13596"
         cy="123.50235"
         cx="195.224"
         id="path7223"
         style="opacity:1;fill:#2ca05a;fill-opacity:1;stroke:none" />
    </g>
    <g
       transform="matrix(1.3624537,0,0,1.3624537,42.677297,37.142887)"
       id="g7199">
      <g
         transform="matrix(0.32256265,0,0,0.32256265,105.00561,-61.71451)"
         id="g7264">
        <path
           sodipodi:nodetypes="cccccc"
           inkscape:connector-curvature="0"
           id="path7266"
           d="m 342.85714,553.79078 240,0 -84.43917,-145.90406 -35.51557,-38.15432 -40.26178,46.30276 z"
           style="opacity:1;fill:#374845;fill-rule:evenodd;stroke:none;stroke-width:1px;stroke-linecap:butt;stroke-linejoin:miter;stroke-opacity:1" />
        <path
           id="path7268"
           d="m 403.83203,553.79102 56.71875,0 -25.30469,-91.94532 -31.41406,91.94532 z"
           style="fill:#374845;fill-opacity:1;fill-rule:evenodd;stroke:none;stroke-width:1px;stroke-linecap:butt;stroke-linejoin:miter;stroke-opacity:1"
           inkscape:connector-curvature="0" />
        <path
           id="path7270"
           d="m 422.64062,416.03516 -13.1914,22.77734 9.43164,70.92969 16.36523,-47.89649 -12.60547,-45.81054 z"
           style="fill:#30423f;fill-opacity:1;fill-rule:evenodd;stroke:none;stroke-width:1px;stroke-linecap:butt;stroke-linejoin:miter;stroke-opacity:1"
           inkscape:connector-curvature="0" />
        <path
           id="path7272"
           d="m 409.45117,438.80859 -66.59375,114.98243 0.44531,0 71.87891,-71.88086 -5.73047,-43.10157 z"
           style="fill:#374845;fill-opacity:1;fill-rule:evenodd;stroke:none;stroke-width:1px;stroke-linecap:butt;stroke-linejoin:miter;stroke-opacity:1"
           inkscape:connector-curvature="0" />
        <path
           id="path7274"
           d="m 343.30078,553.79102 60.53125,0 15.04883,-44.04883 -3.69922,-27.83203 -71.88086,71.88086 z"
           style="fill:#445653;fill-opacity:1;fill-rule:evenodd;stroke:none;stroke-width:1px;stroke-linecap:butt;stroke-linejoin:miter;stroke-opacity:1"
           inkscape:connector-curvature="0" />
        <path
           sodipodi:nodetypes="ccccc"
           id="path7276"
           d="m 447.63556,393.32311 -24.99689,22.714 28.36524,103.06641 34.58984,-68.43164 z"
           style="fill:#50625f;fill-opacity:1;fill-rule:evenodd;stroke:none;stroke-width:1px;stroke-linecap:butt;stroke-linejoin:miter;stroke-opacity:1"
           inkscape:connector-curvature="0" />
        <path
           id="path7278"
           d="m 460.55078,553.79102 56.67969,0 16.48242,-30.41407 -48.11914,-72.70507 -34.58984,68.43164 9.54687,34.6875 z"
           style="fill:#30423f;fill-opacity:1;fill-rule:evenodd;stroke:none;stroke-width:1px;stroke-linecap:butt;stroke-linejoin:miter;stroke-opacity:1"
           inkscape:connector-curvature="0" />
        <path
           id="path7280"
           d="m 517.23047,553.79102 36.61328,0 -20.13086,-30.41407 -16.48242,30.41407 z"
           style="fill:#374845;fill-opacity:1;fill-rule:evenodd;stroke:none;stroke-width:1px;stroke-linecap:butt;stroke-linejoin:miter;stroke-opacity:1"
           inkscape:connector-curvature="0" />
        <path
           id="path7282"
           d="m 553.84375,553.79102 29.01367,0 -19.05078,-32.91797 -19.10547,19.10547 9.14258,13.8125 z"
           style="fill:#30423f;fill-opacity:1;fill-rule:evenodd;stroke:none;stroke-width:1px;stroke-linecap:butt;stroke-linejoin:miter;stroke-opacity:1"
           inkscape:connector-curvature="0" />
        <path
           sodipodi:nodetypes="ccccccc"
           id="path7284"
           d="m 477.76758,407.36133 -23.622,-4.20234 90.55559,136.81953 19.10547,-19.10547 -65.38867,-112.98633 -9.93555,16.43945 z"
           style="fill:#445653;fill-opacity:1;fill-rule:evenodd;stroke:none;stroke-width:1px;stroke-linecap:butt;stroke-linejoin:miter;stroke-opacity:1"
           inkscape:connector-curvature="0" />
        <path
           id="path7286"
           d="m 498.41797,407.88672 -35.51563,-61.36914 -40.26367,69.52148 5.84375,6.85938 9.10742,-15.625 10.44532,17.14258 10,-17.76758 10.17968,17.76758 9.55274,-17.05469 10.71484,16.96484 9.93555,-16.43945 z"
           style="fill:#e6e6e6;fill-opacity:1;fill-rule:evenodd;stroke:none;stroke-width:1px;stroke-linecap:butt;stroke-linejoin:miter;stroke-opacity:1"
           inkscape:connector-curvature="0" />
      </g>
      <g
         id="g7288"
         transform="matrix(0.43312199,0,0,0.43312199,-56.627225,-112.64669)">
        <path
           style="opacity:1;fill:#374845;fill-rule:evenodd;stroke:none;stroke-width:1px;stroke-linecap:butt;stroke-linejoin:miter;stroke-opacity:1"
           d="m 342.85714,553.79078 240,0 -84.43917,-145.90406 -35.51557,-38.15432 -40.26178,46.30276 z"
           id="path7290"
           inkscape:connector-curvature="0"
           sodipodi:nodetypes="cccccc" />
        <path
           inkscape:connector-curvature="0"
           style="fill:#374845;fill-opacity:1;fill-rule:evenodd;stroke:none;stroke-width:1px;stroke-linecap:butt;stroke-linejoin:miter;stroke-opacity:1"
           d="m 403.83203,553.79102 56.71875,0 -25.30469,-91.94532 -31.41406,91.94532 z"
           id="path7292" />
        <path
           inkscape:connector-curvature="0"
           style="fill:#30423f;fill-opacity:1;fill-rule:evenodd;stroke:none;stroke-width:1px;stroke-linecap:butt;stroke-linejoin:miter;stroke-opacity:1"
           d="m 422.64062,416.03516 -13.1914,22.77734 9.43164,70.92969 16.36523,-47.89649 -12.60547,-45.81054 z"
           id="path7294" />
        <path
           inkscape:connector-curvature="0"
           style="fill:#374845;fill-opacity:1;fill-rule:evenodd;stroke:none;stroke-width:1px;stroke-linecap:butt;stroke-linejoin:miter;stroke-opacity:1"
           d="m 409.45117,438.80859 -66.59375,114.98243 0.44531,0 71.87891,-71.88086 -5.73047,-43.10157 z"
           id="path7296" />
        <path
           inkscape:connector-curvature="0"
           style="fill:#445653;fill-opacity:1;fill-rule:evenodd;stroke:none;stroke-width:1px;stroke-linecap:butt;stroke-linejoin:miter;stroke-opacity:1"
           d="m 343.30078,553.79102 60.53125,0 15.04883,-44.04883 -3.69922,-27.83203 -71.88086,71.88086 z"
           id="path7298" />
        <path
           inkscape:connector-curvature="0"
           style="fill:#50625f;fill-opacity:1;fill-rule:evenodd;stroke:none;stroke-width:1px;stroke-linecap:butt;stroke-linejoin:miter;stroke-opacity:1"
           d="m 447.63556,393.32311 -24.99689,22.714 28.36524,103.06641 34.58984,-68.43164 z"
           id="path7300"
           sodipodi:nodetypes="ccccc" />
        <path
           inkscape:connector-curvature="0"
           style="fill:#30423f;fill-opacity:1;fill-rule:evenodd;stroke:none;stroke-width:1px;stroke-linecap:butt;stroke-linejoin:miter;stroke-opacity:1"
           d="m 460.55078,553.79102 56.67969,0 16.48242,-30.41407 -48.11914,-72.70507 -34.58984,68.43164 9.54687,34.6875 z"
           id="path7302" />
        <path
           inkscape:connector-curvature="0"
           style="fill:#374845;fill-opacity:1;fill-rule:evenodd;stroke:none;stroke-width:1px;stroke-linecap:butt;stroke-linejoin:miter;stroke-opacity:1"
           d="m 517.23047,553.79102 36.61328,0 -20.13086,-30.41407 -16.48242,30.41407 z"
           id="path7304" />
        <path
           inkscape:connector-curvature="0"
           style="fill:#30423f;fill-opacity:1;fill-rule:evenodd;stroke:none;stroke-width:1px;stroke-linecap:butt;stroke-linejoin:miter;stroke-opacity:1"
           d="m 553.84375,553.79102 29.01367,0 -19.05078,-32.91797 -19.10547,19.10547 9.14258,13.8125 z"
           id="path7306" />
        <path
           inkscape:connector-curvature="0"
           style="fill:#445653;fill-opacity:1;fill-rule:evenodd;stroke:none;stroke-width:1px;stroke-linecap:butt;stroke-linejoin:miter;stroke-opacity:1"
           d="m 477.76758,407.36133 -23.622,-4.20234 90.55559,136.81953 19.10547,-19.10547 -65.38867,-112.98633 -9.93555,16.43945 z"
           id="path7308"
           sodipodi:nodetypes="ccccccc" />
        <path
           inkscape:connector-curvature="0"
           style="fill:#e6e6e6;fill-opacity:1;fill-rule:evenodd;stroke:none;stroke-width:1px;stroke-linecap:butt;stroke-linejoin:miter;stroke-opacity:1"
           d="m 498.41797,407.88672 -35.51563,-61.36914 -40.26367,69.52148 5.84375,6.85938 9.10742,-15.625 10.44532,17.14258 10,-17.76758 10.17968,17.76758 9.55274,-17.05469 10.71484,16.96484 9.93555,-16.43945 z"
           id="path7310" />
      </g>
      <g
         transform="matrix(0.54368946,0,0,0.54368946,-51.618634,-163.74256)"
         id="g7251">
        <path
           style="opacity:1;fill:#374845;fill-rule:evenodd;stroke:none;stroke-width:1px;stroke-linecap:butt;stroke-linejoin:miter;stroke-opacity:1"
           d="m 342.85714,553.79078 240,0 -84.43917,-145.90406 -35.51557,-38.15432 -40.26178,46.30276 z"
           id="path6248"
           inkscape:connector-curvature="0"
           sodipodi:nodetypes="cccccc" />
        <path
           inkscape:connector-curvature="0"
           style="fill:#374845;fill-opacity:1;fill-rule:evenodd;stroke:none;stroke-width:1px;stroke-linecap:butt;stroke-linejoin:miter;stroke-opacity:1"
           d="m 403.83203,553.79102 56.71875,0 -25.30469,-91.94532 -31.41406,91.94532 z"
           id="path6279" />
        <path
           inkscape:connector-curvature="0"
           style="fill:#30423f;fill-opacity:1;fill-rule:evenodd;stroke:none;stroke-width:1px;stroke-linecap:butt;stroke-linejoin:miter;stroke-opacity:1"
           d="m 422.64062,416.03516 -13.1914,22.77734 9.43164,70.92969 16.36523,-47.89649 -12.60547,-45.81054 z"
           id="path7095" />
        <path
           inkscape:connector-curvature="0"
           style="fill:#374845;fill-opacity:1;fill-rule:evenodd;stroke:none;stroke-width:1px;stroke-linecap:butt;stroke-linejoin:miter;stroke-opacity:1"
           d="m 409.45117,438.80859 -66.59375,114.98243 0.44531,0 71.87891,-71.88086 -5.73047,-43.10157 z"
           id="path7097" />
        <path
           inkscape:connector-curvature="0"
           style="fill:#445653;fill-opacity:1;fill-rule:evenodd;stroke:none;stroke-width:1px;stroke-linecap:butt;stroke-linejoin:miter;stroke-opacity:1"
           d="m 343.30078,553.79102 60.53125,0 15.04883,-44.04883 -3.69922,-27.83203 -71.88086,71.88086 z"
           id="path7099" />
        <path
           inkscape:connector-curvature="0"
           style="fill:#50625f;fill-opacity:1;fill-rule:evenodd;stroke:none;stroke-width:1px;stroke-linecap:butt;stroke-linejoin:miter;stroke-opacity:1"
           d="m 447.63556,393.32311 -24.99689,22.714 28.36524,103.06641 34.58984,-68.43164 z"
           id="path7101"
           sodipodi:nodetypes="ccccc" />
        <path
           inkscape:connector-curvature="0"
           style="fill:#30423f;fill-opacity:1;fill-rule:evenodd;stroke:none;stroke-width:1px;stroke-linecap:butt;stroke-linejoin:miter;stroke-opacity:1"
           d="m 460.55078,553.79102 56.67969,0 16.48242,-30.41407 -48.11914,-72.70507 -34.58984,68.43164 9.54687,34.6875 z"
           id="path7103" />
        <path
           inkscape:connector-curvature="0"
           style="fill:#374845;fill-opacity:1;fill-rule:evenodd;stroke:none;stroke-width:1px;stroke-linecap:butt;stroke-linejoin:miter;stroke-opacity:1"
           d="m 517.23047,553.79102 36.61328,0 -20.13086,-30.41407 -16.48242,30.41407 z"
           id="path7107" />
        <path
           inkscape:connector-curvature="0"
           style="fill:#30423f;fill-opacity:1;fill-rule:evenodd;stroke:none;stroke-width:1px;stroke-linecap:butt;stroke-linejoin:miter;stroke-opacity:1"
           d="m 553.84375,553.79102 29.01367,0 -19.05078,-32.91797 -19.10547,19.10547 9.14258,13.8125 z"
           id="path7109" />
        <path
           inkscape:connector-curvature="0"
           style="fill:#445653;fill-opacity:1;fill-rule:evenodd;stroke:none;stroke-width:1px;stroke-linecap:butt;stroke-linejoin:miter;stroke-opacity:1"
           d="m 477.76758,407.36133 -23.622,-4.20234 90.55559,136.81953 19.10547,-19.10547 -65.38867,-112.98633 -9.93555,16.43945 z"
           id="path7111"
           sodipodi:nodetypes="ccccccc" />
        <path
           inkscape:connector-curvature="0"
           style="fill:#e6e6e6;fill-opacity:1;fill-rule:evenodd;stroke:none;stroke-width:1px;stroke-linecap:butt;stroke-linejoin:miter;stroke-opacity:1"
           d="m 498.41797,407.88672 -35.51563,-61.36914 -40.26367,69.52148 5.84375,6.85938 9.10742,-15.625 10.44532,17.14258 10,-17.76758 10.17968,17.76758 9.55274,-17.05469 10.71484,16.96484 9.93555,-16.43945 z"
           id="path6255" />
      </g>
    </g>
    <path
       style="fill:none;fill-rule:evenodd;stroke:#ec4728;stroke-width:0.74075174px;stroke-linecap:butt;stroke-linejoin:miter;stroke-opacity:1"
       d="m 343.48819,135.2625 20.39801,-35.330403 90.16896,0"
       id="path7351"
       inkscape:connector-curvature="0"
       sodipodi:nodetypes="ccc" />
    <g
       style="font-style:normal;font-variant:normal;font-weight:normal;font-stretch:normal;font-size:27.73702812px;line-height:125%;font-family:'Loved by the King';-inkscape-font-specification:'Loved by the King, Normal';text-align:start;letter-spacing:0px;word-spacing:0px;writing-mode:lr-tb;text-anchor:start;fill:#ec4728;fill-opacity:1;stroke:none;stroke-width:1px;stroke-linecap:butt;stroke-linejoin:miter;stroke-opacity:1"
       id="text7353">
      <path
         d="m 375.90935,73.511173 q 0.94805,0.284413 0.94805,1.300173 0,1.137652 -1.30018,5.999758 l 0.90742,0 q 3.19625,0 3.19625,3.385867 0,4.266194 -6.18936,8.586561 -0.90741,-0.108348 -0.90741,-0.9345 l -0.20316,0 q 0.36568,-0.866782 0.75844,-0.920956 l 0.55528,0.176066 q 4.68604,-3.507759 4.68604,-7.299931 0,-0.690717 -1.31371,-1.692934 -2.41074,0 -3.37233,2.993107 l -0.55528,0.582369 -0.39276,0 q -0.36568,-0.108348 -0.74489,-0.934499 3.37232,-5.769519 3.37232,-8.247974 l 0,-0.744891 -0.18961,-0.189608 0,-0.203152 q -1.32726,0 -1.69293,3.385867 l 0.20315,0.203152 q 0,0.541739 -1.11056,1.097021 -0.58237,-0.135434 -0.75844,-0.74489 1.39498,-5.796606 4.10367,-5.796606 z"
         id="path7489"
         inkscape:connector-curvature="0" />
      <path
         d="m 385.49813,73.511173 q 0.94804,0.284413 0.94804,1.300173 0,1.137652 -1.30017,5.999758 l 0.90741,0 q 3.19626,0 3.19626,3.385867 0,4.266194 -6.18936,8.586561 -0.90742,-0.108348 -0.90742,-0.9345 l -0.20315,0 q 0.36568,-0.866782 0.75844,-0.920956 l 0.55528,0.176066 q 4.68604,-3.507759 4.68604,-7.299931 0,-0.690717 -1.31372,-1.692934 -2.41074,0 -3.37232,2.993107 l -0.55528,0.582369 -0.39276,0 q -0.36568,-0.108348 -0.7449,-0.934499 3.37233,-5.769519 3.37233,-8.247974 l 0,-0.744891 -0.18961,-0.189608 0,-0.203152 q -1.32726,0 -1.69293,3.385867 l 0.20315,0.203152 q 0,0.541739 -1.11057,1.097021 -0.58237,-0.135434 -0.75843,-0.74489 1.39498,-5.796606 4.10367,-5.796606 z"
         id="path7491"
         inkscape:connector-curvature="0" />
      <path
         d="m 413.5602,77.194997 q 1.74711,0 2.46491,11.403602 l 0,3.751542 -0.58236,0.582369 q -0.79907,0 -1.13766,-0.758434 l 0.39276,-3.927607 q -0.41984,-8.383408 -1.30017,-8.627191 l -0.36567,0 q -1.72002,4.658954 -1.72002,11.972428 l -0.5282,0.392761 -0.74489,0 q -0.33859,0 -0.58237,-0.948043 0.74489,-1.300173 0.74489,-6.541496 -0.24378,-3.54839 -0.92095,-3.54839 l -0.2167,0 q -1.50332,0 -1.50332,8.410496 l 0,1.489782 0.23023,1.137651 q -0.41984,1.110565 -1.50332,1.110565 l -0.74489,-0.920956 0.36567,-2.437825 0,-0.934499 -0.58237,-8.437583 q 0,-1.05639 0.96159,-1.300173 0.75843,0.189609 0.75843,1.137652 l -0.39276,1.110564 0,0.379217 0.16252,0 q 1.47624,-2.830585 2.24822,-2.830585 1.00222,0 2.0857,2.085694 0.37921,0 1.30017,-3.196259 l 1.11056,-0.555282 z"
         id="path7493"
         inkscape:connector-curvature="0" />
      <path
         d="m 421.0362,77.452323 q 2.99311,0.880326 2.99311,2.993107 l 0,0.555282 q 0,4.184933 -3.75155,5.796606 l -1.27308,0 0,0.39276 q 0,3.358781 1.66585,4.686041 l 0.58236,0 q 1.0564,0 2.99311,-2.993107 l 0.16252,0.162522 0.20316,0 q -1.34081,4.320367 -3.75155,4.320367 -2.19404,0 -3.57547,-7.679148 -0.29796,0 -0.36568,-0.934499 0.75844,-0.582369 1.34081,-4.862106 1.43561,-2.437825 2.77641,-2.437825 z m -2.24822,6.934257 q 0.16252,0.920956 0.58237,0.920956 l 1.13765,0 q 2.24822,-1.056391 2.24822,-4.306824 l 0,-0.189608 q -0.28441,-1.855456 -1.72002,-1.855456 -2.24822,0 -2.24822,5.430932 z m -2.04506,-11.430689 q 0.94804,-0.66363 6.77173,2.275303 l -1.50332,1.191825 -5.59345,-2.410738 0.32504,-1.05639 z"
         id="path7495"
         inkscape:connector-curvature="0" />
      <path
         d="m 427.72667,70.761848 0.41985,-0.02709 0.0813,1.340803 0,0.189609 q 0,4.29328 0.55528,4.29328 l 1.82837,-0.609456 q 0.18961,0.39276 0.36568,0.812608 -0.33859,0.297956 -0.14898,0.379217 l -2.24822,1.110565 0.39276,9.737755 0,0.744891 q -0.0542,2.749325 -0.39276,4.415172 l -0.88032,-0.05417 -0.0542,-2.911846 0,-4.631867 0,-2.058608 q 0,-4.848563 -0.55528,-4.848563 l -1.72002,0.135435 -0.60946,-0.243782 0.0542,-0.446935 0.32504,-0.08126 0.36567,0 q 1.7742,-0.257326 1.7742,-1.245999 l -0.39276,-5.606997 0.20315,-0.162522 0.63654,-0.230239 z"
         id="path7497"
         inkscape:connector-curvature="0" />
      <path
         d="m 436.8008,78.251388 0.55528,0 0.75843,0.758434 0,0.379217 -0.39276,0.365674 -0.92095,-0.189609 q -2.99311,3.954694 -2.99311,7.48954 l 0,2.993107 0.17607,2.072151 q 0,0.758434 -0.92096,0.758434 l 0,0.162522 q -0.74489,-0.284413 -0.74489,-0.555282 l 0,-2.058608 q -0.70426,-8.979321 -1.13765,-8.979321 0.37922,-1.137652 0.74489,-1.137652 l 0.18961,0 q 0.75843,0.297957 0.75843,1.32726 l 0,2.058608 0.18961,0 q 1.85546,-4.049498 3.738,-5.444475 z"
         id="path7499"
         inkscape:connector-curvature="0" />
      <path
         d="m 442.97662,77.452323 q 2.99311,0.880326 2.99311,2.993107 l 0,0.555282 q 0,4.184933 -3.75154,5.796606 l -1.27309,0 0,0.39276 q 0,3.358781 1.66585,4.686041 l 0.58237,0 q 1.05639,0 2.9931,-2.993107 l 0.16253,0.162522 0.20315,0 q -1.34081,4.320367 -3.75154,4.320367 -2.19405,0 -3.57548,-7.679148 -0.29796,0 -0.36567,-0.934499 0.75843,-0.582369 1.3408,-4.862106 1.43561,-2.437825 2.77641,-2.437825 z m -2.24822,6.934257 q 0.16253,0.920956 0.58237,0.920956 l 1.13766,0 q 2.24821,-1.056391 2.24821,-4.306824 l 0,-0.189608 q -0.28441,-1.855456 -1.72002,-1.855456 -2.24822,0 -2.24822,5.430932 z"
         id="path7501"
         inkscape:connector-curvature="0" />
      <path
         d="m 453.85203,77.506497 0.20315,0.216695 0,0.365674 q -3.56193,2.519086 -3.56193,5.241323 l 0,0.392761 q 0,1.99089 3.19626,5.593453 l 0.16252,0.758435 q -1.35435,3.548389 -5.24133,3.548389 -2.04506,0 -2.04506,-1.503325 l 2.23467,0.203152 0.75844,0 q 2.62743,-0.636543 2.62743,-2.248216 l 0,-0.203152 q 0,-0.460478 -2.62743,-4.293281 l -0.55528,-2.085694 q 0,-3.440042 4.49643,-5.986214 l 0.35213,0 z"
         id="path7503"
         inkscape:connector-curvature="0" />
    </g>
    <circle
       style="opacity:1;fill:#ec4728;fill-opacity:1;stroke:none;stroke-width:0.54368949"
       id="path7377"
       cx="343.48822"
       cy="135.26248"
       r="2.797437" />
    <path
       sodipodi:nodetypes="ccc"
       inkscape:connector-curvature="0"
       id="path6373"
       d="m 267.55984,201.60752 -19.68146,-34.08932 -71.24194,0"
       style="fill:none;fill-rule:evenodd;stroke:#ec4728;stroke-width:0.74075174px;stroke-linecap:butt;stroke-linejoin:miter;stroke-opacity:1" />
    <circle
       r="2.8391798"
       cy="201.60751"
       cx="267.55984"
       id="circle6375"
       style="opacity:1;fill:#ec4728;fill-opacity:1;stroke:none;stroke-width:0.54368949" />
    <g
       style="font-style:normal;font-variant:normal;font-weight:normal;font-stretch:normal;font-size:27.72593307px;line-height:125%;font-family:'Loved by the King';-inkscape-font-specification:'Loved by the King';letter-spacing:0px;word-spacing:0px;fill:#ec4728;fill-opacity:1;stroke:none;stroke-width:1px;stroke-linecap:butt;stroke-linejoin:miter;stroke-opacity:1"
       id="text6377">
      <path
         d="m 186.01811,137.45172 q 0.90705,0 0.90705,1.85471 l -0.35199,1.1372 0.1083,3.04606 0.93413,14.41802 -0.18953,0.7446 0.36552,2.24731 q -0.36552,0.86644 -0.75813,0.94767 l -0.55506,0 q -0.69044,0 -2.23378,-5.63183 -4.57586,-12.6987 -5.44229,-13.07776 -0.50091,0 -0.7446,6.34935 l 0.18954,2.62638 -0.18954,1.69225 0.39261,5.79429 -0.55506,0.74459 -0.20307,0 q -1.00182,0 -1.1372,-0.55506 l 0.3926,-5.42876 -0.18953,-0.18953 0.18953,-0.94766 0,-7.85207 q 0,-2.23378 0.7446,-3.37098 l 0,-0.36553 -0.7446,-0.94766 0,-0.55506 q 0.36553,-0.74459 1.11012,-0.74459 0.82583,0 3.18145,5.98382 1.13719,2.19316 3.38451,9.54432 l 1.50272,2.99191 0.16246,0 0,-2.04424 -1.02889,-14.12019 0.17599,-2.59931 -0.17599,-0.94766 q 0.14892,-0.55506 0.75813,-0.74459 z"
         id="path7506"
         inkscape:connector-curvature="0" />
      <path
         d="m 193.30158,146.65759 q 1.74641,0 2.43685,5.00908 l -0.18953,0.23015 0,1.11012 q -0.47383,8.62374 -2.99191,8.62374 l -0.20307,0.16246 -0.18953,0 q -2.80238,-0.63629 -2.80238,-7.12102 0,-8.01453 3.93957,-8.01453 z m -2.80237,7.09394 q 0.41968,6.53888 1.66518,6.53888 l 0.18953,0 q 1.58395,0 2.05778,-6.72841 l 0,-2.63992 q 0,-2.51808 -1.66518,-2.7753 -2.24731,0.66336 -2.24731,5.60475 z"
         id="path7508"
         inkscape:connector-curvature="0" />
      <path
         d="m 202.2367,146.42745 0.55506,0 0.75813,0.75813 0,0.37906 -0.3926,0.36553 -0.92059,-0.18953 q -2.99191,3.95311 -2.99191,7.48654 l 0,2.99191 0.17599,2.07132 q 0,0.75813 -0.92058,0.75813 l 0,0.16246 q -0.7446,-0.2843 -0.7446,-0.55506 l 0,-2.05778 q -0.70398,-8.97573 -1.13719,-8.97573 0.37906,-1.1372 0.74459,-1.1372 l 0.18953,0 q 0.75813,0.29784 0.75813,1.32673 l 0,2.05778 0.18954,0 q 1.85471,-4.04787 3.7365,-5.44229 z"
         id="path7510"
         inkscape:connector-curvature="0" />
      <path
         d="m 211.00936,140.60608 q 1.05596,0 1.29965,0.92059 l -0.37907,1.32673 q 0.4603,18.99389 0.8529,18.54713 l -0.60921,0.44676 q -0.77167,-0.33845 -0.82582,-0.33845 l -0.176,-7.81146 -0.16245,-0.18953 -0.18954,0 q -1.13719,7.86561 -3.38451,7.86561 l -0.36553,0 q -2.24731,0 -2.24731,-4.49464 0,-3.26267 3.19498,-6.37642 2.62638,-0.60921 2.62638,-2.04425 l 0,-2.61284 -0.37907,-4.31864 q 0.35199,-0.83936 0.7446,-0.92059 z m -4.68417,15.52815 0,1.85471 q 0,1.44857 0.94766,1.89533 l 0.16246,0 q 1.11012,0 2.62638,-8.24467 l -0.16245,-0.18954 -0.7446,0 q -2.82945,1.71934 -2.82945,4.68417 z"
         id="path7512"
         inkscape:connector-curvature="0" />
      <path
         d="m 222.30009,149.12152 0.176,0 0.58214,0.55506 0,0.55506 q -5.02262,0.55506 -8.06868,1.29965 l -0.75814,-0.55506 0,-0.93412 8.06868,-0.92059 z"
         id="path7514"
         inkscape:connector-curvature="0" />
      <path
         d="m 230.43646,137.6954 q 0.94767,0.25722 0.94767,0.58214 l 0,0.55506 q 0,0.58213 -4.33218,1.39442 l -0.13538,6.53888 0,0.94766 q 0,0.37907 0.52798,0.37907 l 3.57405,-0.37907 0.16246,0.18953 0,0.18954 q 0,0.74459 -4.26449,1.50272 l -0.74459,8.23114 0,0.36552 q 0,2.04425 1.48918,2.04425 l 5.02262,-2.04425 0.32491,1.1372 q 0.25723,0.27076 -5.92966,2.40977 -1.82764,0 -2.40978,-3.75004 l 0.92059,-8.0416 -0.55506,-0.93413 q 0.74459,-1.42149 0.74459,-2.24731 l -0.18953,-4.73832 q 0,-1.86825 -0.3926,-1.86825 0,-1.48919 5.23922,-2.46393 z"
         id="path7516"
         inkscape:connector-curvature="0" />
      <path
         d="m 240.50878,145.68285 0.20307,0.21661 0,0.36553 q -3.56051,2.51808 -3.56051,5.23923 l 0,0.3926 q 0,1.99009 3.19498,5.59122 l 0.16246,0.75813 q -1.35381,3.54697 -5.23923,3.54697 -2.04425,0 -2.04425,-1.50273 l 2.23378,0.20307 0.75813,0 q 2.62639,-0.63629 2.62639,-2.24731 l 0,-0.20307 q 0,-0.4603 -2.62639,-4.29157 l -0.55506,-2.08486 q 0,-3.43866 4.49464,-5.98382 l 0.35199,0 z"
         id="path7518"
         inkscape:connector-curvature="0" />
      <path
         d="m 243.52776,138.9409 0.41968,-0.0271 0.0812,1.34026 0,0.18954 q 0,4.29156 0.55506,4.29156 l 1.82763,-0.60921 q 0.18954,0.3926 0.36553,0.81228 -0.33845,0.29784 -0.14892,0.37907 l -2.24732,1.11012 0.39261,9.73386 0,0.74459 q -0.0541,2.74822 -0.39261,4.4134 l -0.87997,-0.0541 -0.0541,-2.91068 0,-4.63001 0,-2.05779 q 0,-4.84662 -0.55506,-4.84662 l -1.71933,0.13538 -0.60922,-0.24369 0.0542,-0.44675 0.32491,-0.0812 0.36553,0 q 1.77348,-0.25722 1.77348,-1.2455 l -0.3926,-5.60475 0.20307,-0.16246 0.63629,-0.23015 z"
         id="path7520"
         inkscape:connector-curvature="0" />
    </g>
    <path
       style="fill:#ffffff;fill-opacity:0.59241704;fill-rule:evenodd;stroke:none;stroke-width:1px;stroke-linecap:butt;stroke-linejoin:miter;stroke-opacity:1"
       d="m 175.63621,142.95197 c -15.06957,-4.97475 -3.86408,-28.63594 13.93658,-10.94349 8.66748,-7.94505 17.33498,-8.04925 26.00246,-0.28059 5.71932,-4.94289 13.45345,-11.40687 26.47013,0.18706 5.33595,-5.99693 15.55065,-11.28887 27.0462,0.17974 9.12935,-9.59807 18.10429,-7.9242 26.98454,0.66139 15.50344,1.22983 3.37883,30.3708 -13.75682,10.05305 -7.5522,7.11086 -15.62542,11.71421 -27.1168,-0.13229 -8.14164,7.51815 -16.71072,10.57884 -26.58769,0 -7.03667,6.5605 -14.38869,11.93842 -26.32315,0.13229 -8.84236,9.69141 -17.81924,8.91365 -26.65545,0.14284 z"
       id="path7179"
       inkscape:connector-curvature="0"
       sodipodi:nodetypes="ccccccccccc" />
    <path
       sodipodi:nodetypes="ccccccccccc"
       inkscape:connector-curvature="0"
       id="path7183"
       d="m 329.01866,102.91108 c -15.06957,-4.974748 -3.8641,-28.635935 13.93656,-10.943481 8.66748,-7.945058 17.33498,-8.04926 26.00246,-0.280597 5.71932,-4.942888 13.45345,-11.406872 26.47013,0.187062 5.33595,-5.996934 15.55066,-11.28887 27.04621,0.179736 9.12936,-9.598067 18.10429,-7.924191 26.98454,0.661387 15.50345,1.229834 3.37883,30.370823 -13.75681,10.053063 -7.55219,7.11085 -15.62543,11.7142 -27.11681,-0.13228 -8.14165,7.51815 -16.71072,10.57883 -26.5877,0 -7.03666,6.56049 -14.38869,11.93841 -26.32313,0.13228 -8.84238,9.69139 -17.81926,8.91364 -26.65545,0.14283 z"
       style="fill:#ffffff;fill-opacity:0.59241704;fill-rule:evenodd;stroke:none;stroke-width:1px;stroke-linecap:butt;stroke-linejoin:miter;stroke-opacity:1" />
    <g
       style="font-style:normal;font-variant:normal;font-weight:normal;font-stretch:normal;font-size:36.79493713px;line-height:125%;font-family:'Loved by the King';-inkscape-font-specification:'Loved by the King, Normal';text-align:start;letter-spacing:0px;word-spacing:0px;writing-mode:lr-tb;text-anchor:start;fill:#30423f;fill-opacity:1;stroke:none;stroke-width:1px;stroke-linecap:butt;stroke-linejoin:miter;stroke-opacity:1"
       id="text7191">
      <path
         d="m 127.1878,70.734768 0.73662,0.988146 0,0.215595 q 0,0.664752 -4.70716,1.257639 -3.50343,1.095943 -3.50343,4.49157 l -0.25152,5.443782 0.25152,0.736618 4.97666,-1.221707 0.50306,0.485089 0,0.503056 q 0,0.556955 -3.73699,1.221707 0,0.485089 -1.47323,0.77255 -0.66476,0 -1.99426,14.606587 l -0.25153,1.76069 0,2.51528 -1.47323,0.98815 -1.25764,-0.98815 q 2.73087,-9.396362 2.73087,-17.409322 -1.74273,-0.556955 -1.74273,-1.25764 0,-0.574921 1.74273,-1.509167 l 0.25153,-0.988145 0,-4.671233 0.25153,-3.970547 -0.77255,-1.293572 q 0,-0.700685 1.77866,-1.68883 l 0.2156,0.215595 2.49731,0 q 3.86275,-1.203741 5.22818,-1.203741 z"
         id="path7474"
         inkscape:connector-curvature="0" />
      <path
         d="m 132.25429,84.407106 0.77255,0 0.73662,0.521022 -0.26949,3.683087 q 0.70068,13.205215 2.24578,13.205215 l 0.48509,0 0,0.21559 q 0,1.36544 -0.98814,1.77867 l -1.00611,0 q -0.98815,0 -1.72477,-5.479719 l -0.25153,0 q -1.4373,8.462119 -4.45563,8.462119 -1.72476,0 -1.72476,-5.26412 l 0,-2.694943 q 0,-11.444519 4.18614,-12.917754 0.70068,0 1.99425,-1.509167 z m -4.45563,13.654371 0,3.467493 q 0,2.74884 0.73662,2.74884 1.61696,0 3.23393,-12.899788 l 0,-0.269494 q -0.17967,-3.485458 -0.73662,-3.485458 l -0.77255,0 q -2.46138,0 -2.46138,10.438407 z"
         id="path7476"
         inkscape:connector-curvature="0" />
      <path
         d="m 139.97979,74.992776 0.84442,-0.215595 -0.19763,4.527502 -0.0719,4.042413 0.19763,11.624181 -0.23356,4.976659 0.52102,2.982404 q 0,0.46712 -1.29357,1.50917 l -1.20374,-1.00612 q 0.50306,-1.2756 0.50306,-5.228183 l 0,-0.467123 0.37729,-21.936825 q 0.43119,-0.808483 0.55695,-0.808483 z"
         id="path7478"
         inkscape:connector-curvature="0" />
      <path
         d="m 150.00498,84.407106 0.77255,0 0.73661,0.521022 -0.26949,3.683087 q 0.70069,13.205215 2.24579,13.205215 l 0.48508,0 0,0.21559 q 0,1.36544 -0.98814,1.77867 l -1.00611,0 q -0.98815,0 -1.72476,-5.479719 l -0.25153,0 q -1.4373,8.462119 -4.45564,8.462119 -1.72476,0 -1.72476,-5.26412 l 0,-2.694943 q 0,-11.444519 4.18614,-12.917754 0.70069,0 1.99426,-1.509167 z m -4.45564,13.654371 0,3.467493 q 0,2.74884 0.73662,2.74884 1.61696,0 3.23393,-12.899788 l 0,-0.269494 q -0.17966,-3.485458 -0.73662,-3.485458 l -0.77255,0 q -2.46138,0 -2.46138,10.438407 z"
         id="path7480"
         inkscape:connector-curvature="0" />
      <path
         d="m 157.982,80.81385 q 0.95222,0 1.7607,0.988146 0,0.736617 -1.7607,1.724762 -0.66475,0 -1.2217,-1.20374 0.48509,-1.365437 1.2217,-1.509168 z m 0,6.46786 0.77255,1.006112 q -0.98814,0.988145 -0.98814,5.443782 0.1078,4.707165 1.45527,9.162806 l 0,0.50305 -0.71865,0.77255 -0.73662,0 q -1.18578,0 -1.77866,-11.696045 0,-5.192255 1.50916,-5.192255 l 0.48509,0 z"
         id="path7482"
         inkscape:connector-curvature="0" />
      <path
         d="m 168.70787,83.311163 0.26949,0.28746 0,0.48509 q -4.72513,3.341728 -4.72513,6.952949 l 0,0.521023 q 0,2.641042 4.24004,7.420072 l 0.2156,1.006112 q -1.79663,4.707161 -6.95295,4.707161 -2.71291,0 -2.71291,-1.99425 l 2.96444,0.26949 1.00611,0 q 3.48546,-0.84441 3.48546,-2.982401 l 0,-0.269494 q 0,-0.610854 -3.48546,-5.69531 l -0.73662,-2.766807 q 0,-4.563435 5.96481,-7.941095 l 0.46712,0 z"
         id="path7484"
         inkscape:connector-curvature="0" />
      <path
         d="m 175.48116,83.239298 q 3.97054,1.167808 3.97054,3.970547 l 0,0.736618 q 0,5.55158 -4.97666,7.689567 l -1.68883,0 0,0.521022 q 0,4.455638 2.20986,6.216328 l 0.77255,0 q 1.40137,0 3.97054,-3.970544 l 0.2156,0.215596 0.26949,0 q -1.77866,5.731238 -4.97666,5.731238 -2.91053,0 -4.74309,-10.186875 -0.39526,0 -0.48509,-1.239673 1.00611,-0.77255 1.77866,-6.449894 1.90442,-3.23393 3.68309,-3.23393 z m -2.98241,9.198734 q 0.2156,1.221707 0.77255,1.221707 l 1.50917,0 q 2.9824,-1.40137 2.9824,-5.713276 l 0,-0.251528 q -0.37729,-2.46138 -2.28171,-2.46138 -2.98241,0 -2.98241,7.204477 z"
         id="path7486"
         inkscape:connector-curvature="0" />
    </g>
  </g>
</svg>
