<?xml version="1.0" encoding="UTF-8" standalone="no"?>
<svg
   xmlns:dc="http://purl.org/dc/elements/1.1/"
   xmlns:cc="http://creativecommons.org/ns#"
   xmlns:rdf="http://www.w3.org/1999/02/22-rdf-syntax-ns#"
   xmlns:svg="http://www.w3.org/2000/svg"
   xmlns="http://www.w3.org/2000/svg"
   version="1.1"
   id="svg12436"
   viewBox="0 0 284.27238 124.02218"
   height="35.001816mm"
   width="80.227982mm">
  <defs
     id="defs12438" />
  <metadata
     id="metadata12441">
    <rdf:RDF>
      <cc:Work
         rdf:about="">
        <dc:format>image/svg+xml</dc:format>
        <dc:type
           rdf:resource="http://purl.org/dc/dcmitype/StillImage" />
        <dc:title></dc:title>
      </cc:Work>
    </rdf:RDF>
  </metadata>
  <g
     transform="translate(-86.435246,-198.92254)"
     id="layer1">
    <g
       id="g12233"
       transform="translate(35.490513,-427.60275)">
      <g
         transform="translate(-2.1428571,585.49425)"
         id="g6649">
        <path
           id="path6651"
           d="m 337.35966,123.50239 -284.27207,0 c -0.0016,22.18953 63.63575,41.55092 142.13657,41.55083 78.5004,-7e-5 142.137,-19.36142 142.1355,-41.55083 z"
           style="opacity:1;fill:#502d16;fill-opacity:1;stroke:none" />
        <ellipse
           ry="30.291269"
           rx="142.13596"
           cy="123.50235"
           cx="195.224"
           id="ellipse6653"
           style="opacity:1;fill:#2ca05a;fill-opacity:1;stroke:none" />
      </g>
      <g
         transform="matrix(0.38083742,0,0,0.38083742,137.37974,645.81656)"
         id="use6655">
        <ellipse
           style="fill:#000000;fill-opacity:0.18719213;stroke:none"
           id="ellipse12148"
           cx="290.37888"
           cy="127.85368"
           rx="4.5456862"
           ry="1.0688003" />
        <path
           style="fill:#502d16;fill-rule:evenodd;stroke:none;stroke-width:1px;stroke-linecap:butt;stroke-linejoin:miter;stroke-opacity:1"
           d="m 288.95134,127.85368 2.85506,0 0,-5.2864 -2.85506,0 0,5.2864 z"
           id="path12150" />
        <path
           style="fill:#16502d;fill-rule:evenodd;stroke:none;stroke-width:1px;stroke-linecap:butt;stroke-linejoin:miter;stroke-opacity:1"
           d="m 290.37877,88.135437 -8.41855,28.782353 1.6947,0 -1.85636,5.60903 1.74525,0 -0.77962,1.93689 7.61458,0 0,-36.328273 z"
           id="path12152" />
        <path
           style="fill:#217844;fill-rule:evenodd;stroke:none;stroke-width:1px;stroke-linecap:butt;stroke-linejoin:miter;stroke-opacity:1"
           d="m 290.37877,88.135437 0,36.328273 7.60209,0 -0.80708,-2.09793 1.73526,0 -1.73526,-5.40742 1.69469,0 -8.4897,-28.822923 z"
           id="path12154" />
      </g>
      <g
         transform="matrix(0.62850245,0,0,0.62850245,-59.541115,627.42655)"
         id="use6681">
        <ellipse
           style="fill:#000000;fill-opacity:0.18719213;stroke:none"
           id="ellipse12118"
           cx="290.37888"
           cy="127.85368"
           rx="4.5456862"
           ry="1.0688003" />
        <path
           style="fill:#502d16;fill-rule:evenodd;stroke:none;stroke-width:1px;stroke-linecap:butt;stroke-linejoin:miter;stroke-opacity:1"
           d="m 288.95134,127.85368 2.85506,0 0,-5.2864 -2.85506,0 0,5.2864 z"
           id="path12120" />
        <path
           style="fill:#16502d;fill-rule:evenodd;stroke:none;stroke-width:1px;stroke-linecap:butt;stroke-linejoin:miter;stroke-opacity:1"
           d="m 290.37877,88.135437 -8.41855,28.782353 1.6947,0 -1.85636,5.60903 1.74525,0 -0.77962,1.93689 7.61458,0 0,-36.328273 z"
           id="path12122" />
        <path
           style="fill:#217844;fill-rule:evenodd;stroke:none;stroke-width:1px;stroke-linecap:butt;stroke-linejoin:miter;stroke-opacity:1"
           d="m 290.37877,88.135437 0,36.328273 7.60209,0 -0.80708,-2.09793 1.73526,0 -1.73526,-5.40742 1.69469,0 -8.4897,-28.822923 z"
           id="path12124" />
      </g>
      <g
         id="g6777"
         transform="matrix(0.27182763,0,0,0.23147946,97.28922,574.19184)">
        <path
           id="path6779"
           d="m 342.85714,553.79078 240,0 -84.43917,-145.90406 -35.51557,-38.15432 -40.26178,46.30276 z"
           style="opacity:1;fill:#374845;fill-rule:evenodd;stroke:none;stroke-width:1px;stroke-linecap:butt;stroke-linejoin:miter;stroke-opacity:1" />
        <path
           id="path6781"
           d="m 403.83203,553.79102 56.71875,0 -25.30469,-91.94532 -31.41406,91.94532 z"
           style="fill:#374845;fill-opacity:1;fill-rule:evenodd;stroke:none;stroke-width:1px;stroke-linecap:butt;stroke-linejoin:miter;stroke-opacity:1" />
        <path
           id="path6783"
           d="m 422.64062,416.03516 -13.1914,22.77734 9.43164,70.92969 16.36523,-47.89649 -12.60547,-45.81054 z"
           style="fill:#30423f;fill-opacity:1;fill-rule:evenodd;stroke:none;stroke-width:1px;stroke-linecap:butt;stroke-linejoin:miter;stroke-opacity:1" />
        <path
           id="path6785"
           d="m 409.45117,438.80859 -66.59375,114.98243 0.44531,0 71.87891,-71.88086 -5.73047,-43.10157 z"
           style="fill:#374845;fill-opacity:1;fill-rule:evenodd;stroke:none;stroke-width:1px;stroke-linecap:butt;stroke-linejoin:miter;stroke-opacity:1" />
        <path
           id="path6787"
           d="m 343.30078,553.79102 60.53125,0 15.04883,-44.04883 -3.69922,-27.83203 -71.88086,71.88086 z"
           style="fill:#445653;fill-opacity:1;fill-rule:evenodd;stroke:none;stroke-width:1px;stroke-linecap:butt;stroke-linejoin:miter;stroke-opacity:1" />
        <path
           id="path6789"
           d="m 447.63556,393.32311 -24.99689,22.714 28.36524,103.06641 34.58984,-68.43164 z"
           style="fill:#50625f;fill-opacity:1;fill-rule:evenodd;stroke:none;stroke-width:1px;stroke-linecap:butt;stroke-linejoin:miter;stroke-opacity:1" />
        <path
           id="path6791"
           d="m 460.55078,553.79102 56.67969,0 16.48242,-30.41407 -48.11914,-72.70507 -34.58984,68.43164 9.54687,34.6875 z"
           style="fill:#30423f;fill-opacity:1;fill-rule:evenodd;stroke:none;stroke-width:1px;stroke-linecap:butt;stroke-linejoin:miter;stroke-opacity:1" />
        <path
           id="path6793"
           d="m 517.23047,553.79102 36.61328,0 -20.13086,-30.41407 -16.48242,30.41407 z"
           style="fill:#374845;fill-opacity:1;fill-rule:evenodd;stroke:none;stroke-width:1px;stroke-linecap:butt;stroke-linejoin:miter;stroke-opacity:1" />
        <path
           id="path6795"
           d="m 553.84375,553.79102 29.01367,0 -19.05078,-32.91797 -19.10547,19.10547 9.14258,13.8125 z"
           style="fill:#30423f;fill-opacity:1;fill-rule:evenodd;stroke:none;stroke-width:1px;stroke-linecap:butt;stroke-linejoin:miter;stroke-opacity:1" />
        <path
           id="path6797"
           d="m 477.76758,407.36133 -23.622,-4.20234 90.55559,136.81953 19.10547,-19.10547 -65.38867,-112.98633 -9.93555,16.43945 z"
           style="fill:#445653;fill-opacity:1;fill-rule:evenodd;stroke:none;stroke-width:1px;stroke-linecap:butt;stroke-linejoin:miter;stroke-opacity:1" />
        <path
           id="path6799"
           d="m 498.41797,407.88672 -35.51563,-61.36914 -40.26367,69.52148 5.84375,6.85938 9.10742,-15.625 10.44532,17.14258 10,-17.76758 10.17968,17.76758 9.55274,-17.05469 10.71484,16.96484 9.93555,-16.43945 z"
           style="fill:#e6e6e6;fill-opacity:1;fill-rule:evenodd;stroke:none;stroke-width:1px;stroke-linecap:butt;stroke-linejoin:miter;stroke-opacity:1" />
      </g>
      <g
         transform="matrix(0.47821335,0,0,0.40723073,-36.31483,485.41268)"
         id="g6683">
        <path
           style="opacity:1;fill:#374845;fill-rule:evenodd;stroke:none;stroke-width:1px;stroke-linecap:butt;stroke-linejoin:miter;stroke-opacity:1"
           d="m 342.85714,553.79078 240,0 -84.43917,-145.90406 -35.51557,-38.15432 -40.26178,46.30276 z"
           id="path6685" />
        <path
           style="fill:#374845;fill-opacity:1;fill-rule:evenodd;stroke:none;stroke-width:1px;stroke-linecap:butt;stroke-linejoin:miter;stroke-opacity:1"
           d="m 403.83203,553.79102 56.71875,0 -25.30469,-91.94532 -31.41406,91.94532 z"
           id="path6687" />
        <path
           style="fill:#30423f;fill-opacity:1;fill-rule:evenodd;stroke:none;stroke-width:1px;stroke-linecap:butt;stroke-linejoin:miter;stroke-opacity:1"
           d="m 422.64062,416.03516 -13.1914,22.77734 9.43164,70.92969 16.36523,-47.89649 -12.60547,-45.81054 z"
           id="path6689" />
        <path
           style="fill:#374845;fill-opacity:1;fill-rule:evenodd;stroke:none;stroke-width:1px;stroke-linecap:butt;stroke-linejoin:miter;stroke-opacity:1"
           d="m 409.45117,438.80859 -66.59375,114.98243 0.44531,0 71.87891,-71.88086 -5.73047,-43.10157 z"
           id="path6691" />
        <path
           style="fill:#445653;fill-opacity:1;fill-rule:evenodd;stroke:none;stroke-width:1px;stroke-linecap:butt;stroke-linejoin:miter;stroke-opacity:1"
           d="m 343.30078,553.79102 60.53125,0 15.04883,-44.04883 -3.69922,-27.83203 -71.88086,71.88086 z"
           id="path6693" />
        <path
           style="fill:#50625f;fill-opacity:1;fill-rule:evenodd;stroke:none;stroke-width:1px;stroke-linecap:butt;stroke-linejoin:miter;stroke-opacity:1"
           d="m 447.63556,393.32311 -24.99689,22.714 28.36524,103.06641 34.58984,-68.43164 z"
           id="path6695" />
        <path
           style="fill:#30423f;fill-opacity:1;fill-rule:evenodd;stroke:none;stroke-width:1px;stroke-linecap:butt;stroke-linejoin:miter;stroke-opacity:1"
           d="m 460.55078,553.79102 56.67969,0 16.48242,-30.41407 -48.11914,-72.70507 -34.58984,68.43164 9.54687,34.6875 z"
           id="path6697" />
        <path
           style="fill:#374845;fill-opacity:1;fill-rule:evenodd;stroke:none;stroke-width:1px;stroke-linecap:butt;stroke-linejoin:miter;stroke-opacity:1"
           d="m 517.23047,553.79102 36.61328,0 -20.13086,-30.41407 -16.48242,30.41407 z"
           id="path6699" />
        <path
           style="fill:#30423f;fill-opacity:1;fill-rule:evenodd;stroke:none;stroke-width:1px;stroke-linecap:butt;stroke-linejoin:miter;stroke-opacity:1"
           d="m 553.84375,553.79102 29.01367,0 -19.05078,-32.91797 -19.10547,19.10547 9.14258,13.8125 z"
           id="path6701" />
        <path
           style="fill:#445653;fill-opacity:1;fill-rule:evenodd;stroke:none;stroke-width:1px;stroke-linecap:butt;stroke-linejoin:miter;stroke-opacity:1"
           d="m 477.76758,407.36133 -23.622,-4.20234 90.55559,136.81953 19.10547,-19.10547 -65.38867,-112.98633 -9.93555,16.43945 z"
           id="path6703" />
        <path
           style="fill:#e6e6e6;fill-opacity:1;fill-rule:evenodd;stroke:none;stroke-width:1px;stroke-linecap:butt;stroke-linejoin:miter;stroke-opacity:1"
           d="m 498.41797,407.88672 -35.51563,-61.36914 -40.26367,69.52148 5.84375,6.85938 9.10742,-15.625 10.44532,17.14258 10,-17.76758 10.17968,17.76758 9.55274,-17.05469 10.71484,16.96484 9.93555,-16.43945 z"
           id="path6705" />
      </g>
      <g
         transform="matrix(0.65850503,0,0,0.65850503,84.785437,624.40965)"
         id="use6721">
        <ellipse
           style="fill:#000000;fill-opacity:0.18719213;stroke:none"
           id="ellipse12168"
           cx="290.37888"
           cy="127.85368"
           rx="4.5456862"
           ry="1.0688003" />
        <path
           style="fill:#502d16;fill-rule:evenodd;stroke:none;stroke-width:1px;stroke-linecap:butt;stroke-linejoin:miter;stroke-opacity:1"
           d="m 288.95134,127.85368 2.85506,0 0,-5.2864 -2.85506,0 0,5.2864 z"
           id="path12170" />
        <path
           style="fill:#16502d;fill-rule:evenodd;stroke:none;stroke-width:1px;stroke-linecap:butt;stroke-linejoin:miter;stroke-opacity:1"
           d="m 290.37877,88.135437 -8.41855,28.782353 1.6947,0 -1.85636,5.60903 1.74525,0 -0.77962,1.93689 7.61458,0 0,-36.328273 z"
           id="path12172" />
        <path
           style="fill:#217844;fill-rule:evenodd;stroke:none;stroke-width:1px;stroke-linecap:butt;stroke-linejoin:miter;stroke-opacity:1"
           d="m 290.37877,88.135437 0,36.328273 7.60209,0 -0.80708,-2.09793 1.73526,0 -1.73526,-5.40742 1.69469,0 -8.4897,-28.822923 z"
           id="path12174" />
      </g>
      <g
         transform="matrix(0.81626394,0,0,0.81626394,-32.952396,628.08395)"
         id="use6723">
        <ellipse
           style="fill:#000000;fill-opacity:0.18719213;stroke:none"
           id="ellipse12138"
           cx="290.37888"
           cy="127.85368"
           rx="4.5456862"
           ry="1.0688003" />
        <path
           style="fill:#502d16;fill-rule:evenodd;stroke:none;stroke-width:1px;stroke-linecap:butt;stroke-linejoin:miter;stroke-opacity:1"
           d="m 288.95134,127.85368 2.85506,0 0,-5.2864 -2.85506,0 0,5.2864 z"
           id="path12140" />
        <path
           style="fill:#16502d;fill-rule:evenodd;stroke:none;stroke-width:1px;stroke-linecap:butt;stroke-linejoin:miter;stroke-opacity:1"
           d="m 290.37877,88.135437 -8.41855,28.782353 1.6947,0 -1.85636,5.60903 1.74525,0 -0.77962,1.93689 7.61458,0 0,-36.328273 z"
           id="path12142" />
        <path
           style="fill:#217844;fill-rule:evenodd;stroke:none;stroke-width:1px;stroke-linecap:butt;stroke-linejoin:miter;stroke-opacity:1"
           d="m 290.37877,88.135437 0,36.328273 7.60209,0 -0.80708,-2.09793 1.73526,0 -1.73526,-5.40742 1.69469,0 -8.4897,-28.822923 z"
           id="path12144" />
      </g>
      <ellipse
         style="fill:#000000;fill-opacity:0.27488152;stroke:none;stroke-width:0.30000001;stroke-miterlimit:4;stroke-dasharray:none"
         id="path7666"
         cx="161.67816"
         cy="718.45459"
         rx="4.8531723"
         ry="0.96116751" />
      <path
         id="path7654"
         d="m 161.67817,707.34076 0,11.11385"
         style="fill:#6c5d53;fill-rule:evenodd;stroke:#483e37;stroke-width:1.60000002;stroke-linecap:butt;stroke-linejoin:miter;stroke-miterlimit:4;stroke-dasharray:none;stroke-opacity:1" />
      <path
         id="path7656"
         d="m 141.30106,693.77106 40.75423,-0.44616 0.53576,0.44616 0,14.52095 -41.28999,0 -0.53577,-0.44618 z"
         style="fill:#6c5d53;fill-rule:evenodd;stroke:none;stroke-width:1px;stroke-linecap:butt;stroke-linejoin:miter;stroke-opacity:1" />
      <rect
         y="693.32489"
         x="140.76529"
         height="14.520943"
         width="41.289986"
         id="rect7658"
         style="fill:#ac9d93;fill-rule:evenodd;stroke:none;stroke-width:1px;stroke-linecap:butt;stroke-linejoin:miter;stroke-opacity:1" />
      <g
         style="font-style:normal;font-variant:normal;font-weight:normal;font-stretch:normal;font-size:10.23086357px;line-height:125%;font-family:'Loved by the King';-inkscape-font-specification:'Loved by the King';letter-spacing:0px;word-spacing:0px;fill:#241f1c;fill-opacity:1;stroke:none;stroke-width:1px;stroke-linecap:butt;stroke-linejoin:miter;stroke-opacity:1"
         id="text7660">
        <path
           d="m 147.75059,695.86458 q 0.3347,0 0.3347,0.68439 l -0.12989,0.41962 0.04,1.124 0.34469,5.32025 -0.0699,0.27475 0.13488,0.82926 q -0.13488,0.31972 -0.27975,0.34969 l -0.20481,0 q -0.25478,0 -0.82427,-2.07814 -1.68849,-4.68582 -2.0082,-4.82569 -0.18484,0 -0.27476,2.3429 l 0.0699,0.96914 -0.0699,0.62444 0.14487,2.13809 -0.20482,0.27476 -0.0749,0 q -0.36967,0 -0.41962,-0.20482 l 0.14487,-2.00321 -0.0699,-0.0699 0.0699,-0.34969 0,-2.89741 q 0,-0.82426 0.27475,-1.24389 l 0,-0.13488 -0.27475,-0.34969 0,-0.20481 q 0.13488,-0.27476 0.40963,-0.27476 0.30473,0 1.17395,2.20803 0.41963,0.80928 1.24889,3.52186 l 0.5545,1.10401 0.06,0 0,-0.75433 -0.37966,-5.21034 0.0649,-0.95915 -0.0649,-0.34968 q 0.0549,-0.20482 0.27975,-0.27476 z"
           id="path12215" />
        <path
           d="m 151.0926,695.9545 q 0.34969,0.0949 0.34969,0.21481 l 0,0.20482 q 0,0.2148 -1.59857,0.51454 l -0.05,2.41284 0,0.34969 q 0,0.13987 0.19483,0.13987 l 1.31882,-0.13987 0.0599,0.0699 0,0.0699 q 0,0.27476 -1.5736,0.55451 l -0.27475,3.03729 0,0.13488 q 0,0.75432 0.54951,0.75432 l 1.85334,-0.75432 0.1199,0.41962 q 0.0949,0.0999 -2.18805,0.88921 -0.6744,0 -0.88921,-1.38377 l 0.3397,-2.96735 -0.20482,-0.34469 q 0.27476,-0.52453 0.27476,-0.82926 l -0.0699,-1.74844 q 0,-0.68938 -0.14487,-0.68938 0,-0.54951 1.93327,-0.90919 z"
           id="path12217" />
        <path
           d="m 156.81749,696.59892 0.20482,0.0749 0,0.20481 q 0,0.19983 -0.27975,0.19983 l 0,0.0749 -0.27476,-0.0749 q -1.5636,0.20481 -1.65852,0.34968 l 0.0749,2.06816 0.02,3.08724 0.0599,0.40963 -0.0599,0.34969 0,0.75433 q 0,0.3297 -0.34969,0.5545 -0.31971,-0.13488 -0.3397,-0.27475 l 0,-0.20482 q 0.27975,-0.36967 0.27975,-0.62444 l 0,-0.27476 0.0599,-1.23889 -0.0599,-0.34969 0.04,-1.69848 q -0.15486,-2.55772 -0.3397,-2.55772 l -0.34469,0 -1.10901,0.0699 q -0.34469,-0.0899 -0.34469,-0.21481 l 0,-0.20481 0.20482,-0.19983 0.82925,0.12989 q 0.82926,-0.0599 1.10402,-0.27476 l 0.41962,0.14487 1.86334,-0.27975 z"
           id="path12219" />
        <path
           d="m 160.3943,696.59892 0.20481,0.0749 0,0.20481 q 0,0.19983 -0.27975,0.19983 l 0,0.0749 -0.27475,-0.0749 q -1.56361,0.20481 -1.65852,0.34968 l 0.0749,2.06816 0.02,3.08724 0.06,0.40963 -0.06,0.34969 0,0.75433 q 0,0.3297 -0.34968,0.5545 -0.31972,-0.13488 -0.3397,-0.27475 l 0,-0.20482 q 0.27975,-0.36967 0.27975,-0.62444 l 0,-0.27476 0.0599,-1.23889 -0.0599,-0.34969 0.04,-1.69848 q -0.15487,-2.55772 -0.3397,-2.55772 l -0.34469,0 -1.10901,0.0699 q -0.3447,-0.0899 -0.3447,-0.21481 l 0,-0.20481 0.20482,-0.19983 0.82926,0.12989 q 0.82926,-0.0599 1.10402,-0.27476 l 0.41962,0.14487 1.86334,-0.27975 z"
           id="path12221" />
        <path
           d="m 161.45335,696.91864 0.0699,0 q 0.37966,0 0.5545,0.62444 1.30883,1.01909 1.30883,3.5868 0,2.59268 -1.38376,3.46191 l -0.69438,0.0599 q -1.13399,0 -1.51365,-2.27297 l 0,-0.82926 q 0.47957,-3.86654 1.03408,-3.86654 0,-0.21481 0.62444,-0.76432 z m -1.30883,4.76574 0.0599,0.0699 0,0.0749 -0.0599,0.20482 q 0.20482,2.20803 1.2339,2.20803 1.58858,0 1.58858,-3.24211 l 0,-0.27475 q -0.35968,-2.97734 -1.44371,-2.97734 -0.90919,0 -1.37877,3.93648 z"
           id="path12223" />
        <path
           d="m 166.81856,696.16931 0.27475,0 0.27975,0.27975 q -0.33969,0.64442 -0.65441,4.41605 -0.53452,4.1463 -1.73345,4.1463 l 0,0.0699 q -0.95915,0 -1.10402,-0.75932 l 0,-0.0699 0.14487,0 0,-0.0699 0.62445,0.41963 q 1.55361,0 1.99322,-6.35433 l -0.06,0 -0.97413,1.65852 q -0.75433,0.95914 -0.95914,0.95914 l -0.21481,0 q -0.29974,0 -0.3397,-0.95914 l 0,-0.62444 q 0.04,-2.85745 0.68439,-3.31704 l 0.20482,0.0749 0,0.20482 q -0.40464,1.13399 -0.40464,3.45691 0.0699,0.47958 0.19982,0.47958 1.23889,-1.15397 2.03818,-4.01142 z"
           id="path12225" />
        <path
           d="m 170.11562,696.15932 q 0.74433,0.02 0.7743,6.87386 l 0.21481,2.21302 -0.34469,0.0599 -0.14487,0 -0.20482,-0.20482 0,-2.55771 -0.0699,-1.03408 -0.0649,0 q -1.65352,0.20482 -1.80838,0.69937 -0.26477,2.51276 -0.39965,2.54273 l -0.27475,0 -0.27975,-0.27475 q 0.3397,-2.62765 1.10901,-5.79982 0.52953,-2.61766 1.49367,-2.51775 z m -1.42373,4.87065 0.33969,0.26476 q 1.37877,-0.30473 1.37877,-0.46958 l 0,-1.24888 0.0699,-0.8992 -0.16985,-0.69438 q -0.19482,-0.82926 -0.40963,-0.82926 -0.43961,0 -1.20892,3.87654 z"
           id="path12227" />
        <path
           d="m 174.7265,695.97448 q 0.34469,0.0849 0.34469,0.20482 l 0,0.21481 q -2.10312,0 -2.51276,1.95325 -0.5545,1.76343 -0.5545,2.70259 l 0,1.38376 q 0.27475,1.99322 1.17895,1.99322 0.82426,-1.38376 0.82426,-3.23211 l 0,-0.35968 q 0,-0.79928 -0.82426,-1.10401 l -0.0749,-0.19483 q 0,-0.48956 1.38377,-0.5545 0.18483,0 0.34469,0.33969 l -0.48956,0.55451 0.14487,0.8992 q -0.3397,4.20624 -1.38377,4.20624 -1.58358,-0.72935 -1.58358,-2.68261 l 0,-0.5545 q 0,-2.94237 1.40874,-5.01053 0.83925,-0.75932 1.7934,-0.75932 z"
           id="path12229" />
        <path
           d="m 177.60892,695.9545 q 0.34969,0.0949 0.34969,0.21481 l 0,0.20482 q 0,0.2148 -1.59857,0.51454 l -0.05,2.41284 0,0.34969 q 0,0.13987 0.19483,0.13987 l 1.31882,-0.13987 0.0599,0.0699 0,0.0699 q 0,0.27476 -1.5736,0.55451 l -0.27475,3.03729 0,0.13488 q 0,0.75432 0.54951,0.75432 l 1.85334,-0.75432 0.1199,0.41962 q 0.0949,0.0999 -2.18805,0.88921 -0.6744,0 -0.88921,-1.38377 l 0.3397,-2.96735 -0.20482,-0.34469 q 0.27476,-0.52453 0.27476,-0.82926 l -0.0699,-1.74844 q 0,-0.68938 -0.14487,-0.68938 0,-0.54951 1.93327,-0.90919 z"
           id="path12231" />
      </g>
      <g
         transform="matrix(0.84740948,0,0,0.84740948,-107.37047,621.61055)"
         id="use6725">
        <ellipse
           style="fill:#000000;fill-opacity:0.18719213;stroke:none"
           id="ellipse12128"
           cx="290.37888"
           cy="127.85368"
           rx="4.5456862"
           ry="1.0688003" />
        <path
           style="fill:#502d16;fill-rule:evenodd;stroke:none;stroke-width:1px;stroke-linecap:butt;stroke-linejoin:miter;stroke-opacity:1"
           d="m 288.95134,127.85368 2.85506,0 0,-5.2864 -2.85506,0 0,5.2864 z"
           id="path12130" />
        <path
           style="fill:#16502d;fill-rule:evenodd;stroke:none;stroke-width:1px;stroke-linecap:butt;stroke-linejoin:miter;stroke-opacity:1"
           d="m 290.37877,88.135437 -8.41855,28.782353 1.6947,0 -1.85636,5.60903 1.74525,0 -0.77962,1.93689 7.61458,0 0,-36.328273 z"
           id="path12132" />
        <path
           style="fill:#217844;fill-rule:evenodd;stroke:none;stroke-width:1px;stroke-linecap:butt;stroke-linejoin:miter;stroke-opacity:1"
           d="m 290.37877,88.135437 0,36.328273 7.60209,0 -0.80708,-2.09793 1.73526,0 -1.73526,-5.40742 1.69469,0 -8.4897,-28.822923 z"
           id="path12134" />
      </g>
      <g
         transform="matrix(0.39760939,0,0,0.39760939,-22.86985,644.62709)"
         id="use6727">
        <ellipse
           style="fill:#000000;fill-opacity:0.18719213;stroke:none"
           id="ellipse12108"
           cx="290.37888"
           cy="127.85368"
           rx="4.5456862"
           ry="1.0688003" />
        <path
           style="fill:#502d16;fill-rule:evenodd;stroke:none;stroke-width:1px;stroke-linecap:butt;stroke-linejoin:miter;stroke-opacity:1"
           d="m 288.95134,127.85368 2.85506,0 0,-5.2864 -2.85506,0 0,5.2864 z"
           id="path12110" />
        <path
           style="fill:#16502d;fill-rule:evenodd;stroke:none;stroke-width:1px;stroke-linecap:butt;stroke-linejoin:miter;stroke-opacity:1"
           d="m 290.37877,88.135437 -8.41855,28.782353 1.6947,0 -1.85636,5.60903 1.74525,0 -0.77962,1.93689 7.61458,0 0,-36.328273 z"
           id="path12112" />
        <path
           style="fill:#217844;fill-rule:evenodd;stroke:none;stroke-width:1px;stroke-linecap:butt;stroke-linejoin:miter;stroke-opacity:1"
           d="m 290.37877,88.135437 0,36.328273 7.60209,0 -0.80708,-2.09793 1.73526,0 -1.73526,-5.40742 1.69469,0 -8.4897,-28.822923 z"
           id="path12114" />
      </g>
      <g
         transform="matrix(0.76995431,0,0,0.76995431,35.403855,629.94109)"
         id="use6729">
        <ellipse
           style="fill:#000000;fill-opacity:0.18719213;stroke:none"
           id="ellipse12158"
           cx="290.37888"
           cy="127.85368"
           rx="4.5456862"
           ry="1.0688003" />
        <path
           style="fill:#502d16;fill-rule:evenodd;stroke:none;stroke-width:1px;stroke-linecap:butt;stroke-linejoin:miter;stroke-opacity:1"
           d="m 288.95134,127.85368 2.85506,0 0,-5.2864 -2.85506,0 0,5.2864 z"
           id="path12160" />
        <path
           style="fill:#16502d;fill-rule:evenodd;stroke:none;stroke-width:1px;stroke-linecap:butt;stroke-linejoin:miter;stroke-opacity:1"
           d="m 290.37877,88.135437 -8.41855,28.782353 1.6947,0 -1.85636,5.60903 1.74525,0 -0.77962,1.93689 7.61458,0 0,-36.328273 z"
           id="path12162" />
        <path
           style="fill:#217844;fill-rule:evenodd;stroke:none;stroke-width:1px;stroke-linecap:butt;stroke-linejoin:miter;stroke-opacity:1"
           d="m 290.37877,88.135437 0,36.328273 7.60209,0 -0.80708,-2.09793 1.73526,0 -1.73526,-5.40742 1.69469,0 -8.4897,-28.822923 z"
           id="path12164" />
      </g>
      <g
         transform="matrix(0.45641369,0,0,0.45641369,175.39539,652.08088)"
         id="use6731">
        <ellipse
           style="fill:#000000;fill-opacity:0.18719213;stroke:none"
           id="ellipse12178"
           cx="290.37888"
           cy="127.85368"
           rx="4.5456862"
           ry="1.0688003" />
        <path
           style="fill:#502d16;fill-rule:evenodd;stroke:none;stroke-width:1px;stroke-linecap:butt;stroke-linejoin:miter;stroke-opacity:1"
           d="m 288.95134,127.85368 2.85506,0 0,-5.2864 -2.85506,0 0,5.2864 z"
           id="path12180" />
        <path
           style="fill:#16502d;fill-rule:evenodd;stroke:none;stroke-width:1px;stroke-linecap:butt;stroke-linejoin:miter;stroke-opacity:1"
           d="m 290.37877,88.135437 -8.41855,28.782353 1.6947,0 -1.85636,5.60903 1.74525,0 -0.77962,1.93689 7.61458,0 0,-36.328273 z"
           id="path12182" />
        <path
           style="fill:#217844;fill-rule:evenodd;stroke:none;stroke-width:1px;stroke-linecap:butt;stroke-linejoin:miter;stroke-opacity:1"
           d="m 290.37877,88.135437 0,36.328273 7.60209,0 -0.80708,-2.09793 1.73526,0 -1.73526,-5.40742 1.69469,0 -8.4897,-28.822923 z"
           id="path12184" />
      </g>
      <g
         transform="matrix(0.6897964,0,0,0.6897964,-116.3185,634.25493)"
         id="use6733">
        <ellipse
           style="fill:#000000;fill-opacity:0.18719213;stroke:none"
           id="ellipse12098"
           cx="290.37888"
           cy="127.85368"
           rx="4.5456862"
           ry="1.0688003" />
        <path
           style="fill:#502d16;fill-rule:evenodd;stroke:none;stroke-width:1px;stroke-linecap:butt;stroke-linejoin:miter;stroke-opacity:1"
           d="m 288.95134,127.85368 2.85506,0 0,-5.2864 -2.85506,0 0,5.2864 z"
           id="path12100" />
        <path
           style="fill:#16502d;fill-rule:evenodd;stroke:none;stroke-width:1px;stroke-linecap:butt;stroke-linejoin:miter;stroke-opacity:1"
           d="m 290.37877,88.135437 -8.41855,28.782353 1.6947,0 -1.85636,5.60903 1.74525,0 -0.77962,1.93689 7.61458,0 0,-36.328273 z"
           id="path12102" />
        <path
           style="fill:#217844;fill-rule:evenodd;stroke:none;stroke-width:1px;stroke-linecap:butt;stroke-linejoin:miter;stroke-opacity:1"
           d="m 290.37877,88.135437 0,36.328273 7.60209,0 -0.80708,-2.09793 1.73526,0 -1.73526,-5.40742 1.69469,0 -8.4897,-28.822923 z"
           id="path12104" />
      </g>
      <g
         style="font-style:normal;font-variant:normal;font-weight:normal;font-stretch:normal;font-size:10.23086357px;line-height:125%;font-family:'Loved by the King';-inkscape-font-specification:'Loved by the King';letter-spacing:0px;word-spacing:0px;fill:#241f1c;fill-opacity:1;stroke:none;stroke-width:1px;stroke-linecap:butt;stroke-linejoin:miter;stroke-opacity:1"
         id="text12191">
        <path
           d="m 148.57236,695.40499 0.20481,0.27476 0,0.0599 q 0,0.18484 -1.30883,0.34969 -0.97413,0.30473 -0.97413,1.24888 l -0.0699,1.51365 0.0699,0.20482 1.38377,-0.3397 0.13987,0.13488 0,0.13988 q 0,0.15486 -1.03907,0.33969 0,0.13488 -0.40964,0.21481 -0.18483,0 -0.5545,4.06138 l -0.0699,0.48956 0,0.69937 -0.40963,0.27476 -0.34969,-0.27476 q 0.75932,-2.61266 0.75932,-4.84067 -0.48456,-0.15486 -0.48456,-0.34969 0,-0.15986 0.48456,-0.41963 l 0.0699,-0.27475 0,-1.29884 0.0699,-1.10401 -0.21481,-0.35968 q 0,-0.19483 0.49456,-0.46958 l 0.0599,0.0599 0.69438,0 q 1.07404,-0.3347 1.45371,-0.3347 z"
           id="path12196" />
        <path
           d="m 150.22588,695.9545 q 0.34969,0.0949 0.34969,0.21481 l 0,0.20482 q 0,0.2148 -1.59858,0.51454 l -0.0499,2.41284 0,0.34969 q 0,0.13987 0.19483,0.13987 l 1.31882,-0.13987 0.0599,0.0699 0,0.0699 q 0,0.27476 -1.57359,0.55451 l -0.27476,3.03729 0,0.13488 q 0,0.75432 0.54951,0.75432 l 1.85335,-0.75432 0.11989,0.41962 q 0.0949,0.0999 -2.18804,0.88921 -0.6744,0 -0.88921,-1.38377 l 0.3397,-2.96735 -0.20482,-0.34469 q 0.27475,-0.52453 0.27475,-0.82926 l -0.0699,-1.74844 q 0,-0.68938 -0.14487,-0.68938 0,-0.54951 1.93327,-0.90919 z"
           id="path12198" />
        <path
           d="m 153.94256,696.82372 0.27475,0 q 0.61446,0 0.61446,0.97413 -0.57949,1.98323 -1.93328,2.89242 l 0,0.21481 q 1.26887,3.76664 1.87333,4.1463 l 0.27475,0.0599 0,0.27476 -0.34469,0.27975 q -0.42961,0 -1.38376,-2.54773 l -0.75433,-1.72845 -0.21481,0 0,0.0699 0.0799,1.16396 q 0,2.00821 -0.35968,2.00821 l -0.19482,0 q -0.15986,0 -0.21481,-0.34969 l 0.21481,-0.68439 0.13488,-4.97056 q -0.34969,0 -0.34969,-0.27975 0.27975,-0.41962 0.27975,-0.61944 l 0,-0.55451 0.21481,-0.20482 0.0599,0 0.48957,0.13488 1.23889,-0.27975 z m -1.4537,1.04407 -0.0599,1.86334 0,0.47957 0.13488,0.14487 0.13988,0 q 1.57859,-1.39376 1.57859,-2.48778 l 0,-0.34469 -0.27975,-0.27975 -0.06,0 q -0.77431,0 -1.4537,0.62444 z"
           id="path12200" />
        <path
           d="m 158.77325,695.99446 q 0.41962,0.16486 0.41962,0.49456 l 0.47957,7.17859 0,0.48457 q 0,0.35468 -0.20481,0.40963 l -0.14487,0 -0.20482,-0.13488 0.0749,-1.03407 0,-0.21481 q 0,-2.98733 -0.41962,-5.31026 l -0.0649,0 q -0.41962,1.29884 -0.89919,4.55593 l -0.41963,0.19982 q -0.37966,0 -0.47957,-1.7884 -0.75932,-2.30294 -0.96414,-2.48778 l -0.0699,0 0.0699,1.03408 0,1.24888 q 0,4.35112 -0.41962,4.35112 l -0.20482,0 -0.0699,-0.34969 0.27476,-2.83247 -0.0699,0 0.0699,-0.0649 0,-0.8992 q 0,-3.29206 -0.20482,-3.73167 0.13488,-0.31971 0.27975,-0.33969 l 0.20482,0 q 0.34469,0.02 0.82926,2.06815 0.34469,0.65442 0.75432,2.3529 l 0.21481,0 0.88921,-4.21624 0,-0.20481 -0.06,-0.41963 q 0,-0.27475 0.3397,-0.27475 l 0,-0.0749 z"
           id="path12202" />
        <path
           d="m 162.27512,695.9545 q 0.34969,0.0949 0.34969,0.21481 l 0,0.20482 q 0,0.2148 -1.59858,0.51454 l -0.0499,2.41284 0,0.34969 q 0,0.13987 0.19482,0.13987 l 1.31883,-0.13987 0.0599,0.0699 0,0.0699 q 0,0.27476 -1.57359,0.55451 l -0.27476,3.03729 0,0.13488 q 0,0.75432 0.54951,0.75432 l 1.85335,-0.75432 0.11989,0.41962 q 0.0949,0.0999 -2.18804,0.88921 -0.6744,0 -0.88921,-1.38377 l 0.3397,-2.96735 -0.20482,-0.34469 q 0.27475,-0.52453 0.27475,-0.82926 l -0.0699,-1.74844 q 0,-0.68938 -0.14487,-0.68938 0,-0.54951 1.93327,-0.90919 z"
           id="path12204" />
        <path
           d="m 168.00001,696.59892 0.20481,0.0749 0,0.20481 q 0,0.19983 -0.27975,0.19983 l 0,0.0749 -0.27475,-0.0749 q -1.5636,0.20481 -1.65852,0.34968 l 0.0749,2.06816 0.02,3.08724 0.0599,0.40963 -0.0599,0.34969 0,0.75433 q 0,0.3297 -0.34969,0.5545 -0.31972,-0.13488 -0.3397,-0.27475 l 0,-0.20482 q 0.27975,-0.36967 0.27975,-0.62444 l 0,-0.27476 0.06,-1.23889 -0.06,-0.34969 0.04,-1.69848 q -0.15487,-2.55772 -0.3397,-2.55772 l -0.34469,0 -1.10901,0.0699 q -0.34469,-0.0899 -0.34469,-0.21481 l 0,-0.20481 0.20481,-0.19983 0.82926,0.12989 q 0.82926,-0.0599 1.10402,-0.27476 l 0.41962,0.14487 1.86334,-0.27975 z"
           id="path12206" />
        <path
           d="m 167.91009,696.519 0.20481,0 0.13488,0.14487 0,0.0599 q -0.39964,2.6876 -0.39964,3.61178 l 0,0.40963 0.0599,0.0699 -0.0599,0.0699 0,0.33969 q 0.2248,2.90741 0.61445,2.90741 l 0.0699,0 q 0.99411,0 1.52364,-3.87155 l 0.0649,-0.82426 -0.21481,-2.49777 0.21481,-0.27475 q 0.54951,0 0.54951,0.82426 l -0.0599,1.87333 q -0.70437,5.39018 -2.14808,5.39018 -1.03407,0 -1.03407,-4.91061 0.16485,-3.32203 0.47957,-3.32203 z"
           id="path12208" />
        <path
           d="m 173.2653,696.82372 0.27476,0 q 0.61445,0 0.61445,0.97413 -0.57948,1.98323 -1.93327,2.89242 l 0,0.21481 q 1.26886,3.76664 1.87332,4.1463 l 0.27476,0.0599 0,0.27476 -0.34469,0.27975 q -0.42962,0 -1.38377,-2.54773 l -0.75432,-1.72845 -0.21481,0 0,0.0699 0.0799,1.16396 q 0,2.00821 -0.35968,2.00821 l -0.19483,0 q -0.15986,0 -0.21481,-0.34969 l 0.21481,-0.68439 0.13488,-4.97056 q -0.34969,0 -0.34969,-0.27975 0.27975,-0.41962 0.27975,-0.61944 l 0,-0.55451 0.21481,-0.20482 0.0599,0 0.48956,0.13488 1.23889,-0.27975 z m -1.4537,1.04407 -0.0599,1.86334 0,0.47957 0.13488,0.14487 0.13987,0 q 1.57859,-1.39376 1.57859,-2.48778 l 0,-0.34469 -0.27975,-0.27975 -0.06,0 q -0.7743,0 -1.4537,0.62444 z"
           id="path12210" />
        <path
           d="m 176.68225,695.9545 q 0.34969,0.0949 0.34969,0.21481 l 0,0.20482 q 0,0.2148 -1.59857,0.51454 l -0.05,2.41284 0,0.34969 q 0,0.13987 0.19483,0.13987 l 1.31882,-0.13987 0.0599,0.0699 0,0.0699 q 0,0.27476 -1.5736,0.55451 l -0.27475,3.03729 0,0.13488 q 0,0.75432 0.54951,0.75432 l 1.85334,-0.75432 0.1199,0.41962 q 0.0949,0.0999 -2.18805,0.88921 -0.6744,0 -0.88921,-1.38377 l 0.3397,-2.96735 -0.20482,-0.34469 q 0.27476,-0.52453 0.27476,-0.82926 l -0.0699,-1.74844 q 0,-0.68938 -0.14487,-0.68938 0,-0.54951 1.93327,-0.90919 z"
           id="path12212" />
      </g>
    </g>
  </g>
</svg>
