<?xml version="1.0" encoding="UTF-8" standalone="no"?>
<svg
   xmlns:dc="http://purl.org/dc/elements/1.1/"
   xmlns:cc="http://creativecommons.org/ns#"
   xmlns:rdf="http://www.w3.org/1999/02/22-rdf-syntax-ns#"
   xmlns:svg="http://www.w3.org/2000/svg"
   xmlns="http://www.w3.org/2000/svg"
   xmlns:sodipodi="http://sodipodi.sourceforge.net/DTD/sodipodi-0.dtd"
   xmlns:inkscape="http://www.inkscape.org/namespaces/inkscape"
   version="1.1"
   id="svg11663"
   viewBox="0 0 284.27238 132.44425"
   height="37.378712mm"
   width="80.227982mm"
   inkscape:version="0.91 r13725"
   sodipodi:docname="svg-partenaire.svg">
  <sodipodi:namedview
     pagecolor="#ffffff"
     bordercolor="#666666"
     borderopacity="1"
     objecttolerance="10"
     gridtolerance="10"
     guidetolerance="10"
     inkscape:pageopacity="0"
     inkscape:pageshadow="2"
     inkscape:window-width="1920"
     inkscape:window-height="1050"
     id="namedview135"
     showgrid="false"
     inkscape:zoom="4.0793803"
     inkscape:cx="147.38188"
     inkscape:cy="99.664942"
     inkscape:window-x="0"
     inkscape:window-y="0"
     inkscape:window-maximized="1"
     inkscape:current-layer="svg11663" />
  <defs
     id="defs11665" />
  <metadata
     id="metadata11668">
    <rdf:RDF>
      <cc:Work
         rdf:about="">
        <dc:format>image/svg+xml</dc:format>
        <dc:type
           rdf:resource="http://purl.org/dc/dcmitype/StillImage" />
        <dc:title />
      </cc:Work>
    </rdf:RDF>
  </metadata>
  <g
     id="g6652">
    <path
       style="fill:#ffebeb;fill-opacity:1;fill-rule:evenodd;stroke:none;stroke-width:1px;stroke-linecap:butt;stroke-linejoin:miter;stroke-opacity:1"
       d="m 174.57391,53.76317 0.028,-1.084181 -1.01617,-0.02801 0.028,0.896153 c 0.29572,0.181497 0.62195,0.225709 0.96016,0.216034 z"
       id="path8271"
       inkscape:connector-curvature="0" />
    <path
       style="fill:#ade8d6;fill-opacity:1;fill-rule:evenodd;stroke:none;stroke-width:1px;stroke-linecap:butt;stroke-linejoin:miter;stroke-opacity:1"
       d="m 174.75922,54.875923 -2.67049,0 0,-0.214998 2.70443,0 z"
       id="path8273"
       inkscape:connector-curvature="0" />
    <path
       style="fill:#803300;fill-opacity:1;fill-rule:evenodd;stroke:none;stroke-width:1px;stroke-linecap:butt;stroke-linejoin:miter;stroke-opacity:1"
       d="m 174.74224,54.672242 0.0962,-0.441308 -0.16407,-0.531836 c -0.39844,0.05999 -0.75554,-0.004 -1.05801,-0.23197 l -0.86565,0.639332 -0.68459,0.02829 0.0226,0.526176 z"
       id="path8275"
       inkscape:connector-curvature="0" />
    <path
       style="fill:#fff3eb;fill-opacity:1;fill-rule:evenodd;stroke:none;stroke-width:1px;stroke-linecap:butt;stroke-linejoin:miter;stroke-opacity:1"
       d="m 173.49345,53.519705 0.29828,0.25911 -0.0994,0.05724 -0.27117,-0.277184 z"
       id="path8277"
       inkscape:connector-curvature="0" />
    <path
       id="path8279"
       d="m 173.37281,53.605236 0.29828,0.259109 -0.0994,0.05724 -0.27117,-0.277184 z"
       style="fill:#fff3eb;fill-opacity:1;fill-rule:evenodd;stroke:none;stroke-width:1px;stroke-linecap:butt;stroke-linejoin:miter;stroke-opacity:1"
       inkscape:connector-curvature="0" />
    <path
       style="fill:#fff3eb;fill-opacity:1;fill-rule:evenodd;stroke:none;stroke-width:1px;stroke-linecap:butt;stroke-linejoin:miter;stroke-opacity:1"
       d="m 173.27422,53.680709 0.29827,0.25911 -0.0994,0.05724 -0.27116,-0.277184 z"
       id="path8281"
       inkscape:connector-curvature="0" />
    <path
       id="path8283"
       d="m 173.16106,53.765576 0.29828,0.259109 -0.0994,0.05724 -0.27116,-0.277184 z"
       style="fill:#fff3eb;fill-opacity:1;fill-rule:evenodd;stroke:none;stroke-width:1px;stroke-linecap:butt;stroke-linejoin:miter;stroke-opacity:1"
       inkscape:connector-curvature="0" />
    <path
       style="fill:#fff3eb;fill-opacity:1;fill-rule:evenodd;stroke:none;stroke-width:1px;stroke-linecap:butt;stroke-linejoin:miter;stroke-opacity:1"
       d="m 173.03759,53.893302 0.29828,0.259109 -0.0994,0.05724 -0.27116,-0.277185 z"
       id="path8285"
       inkscape:connector-curvature="0" />
    <path
       style="fill:#ffad8d;fill-opacity:1;fill-rule:evenodd;stroke:none;stroke-width:1px;stroke-linecap:butt;stroke-linejoin:miter;stroke-opacity:1"
       d="m 173.58574,52.650983 0.0476,-9.096331 0.99578,0.01698 -0.0272,9.107365 z"
       id="path8287"
       inkscape:connector-curvature="0" />
    <path
       style="fill:#ffa88c;fill-opacity:1;fill-rule:evenodd;stroke:none;stroke-width:1px;stroke-linecap:butt;stroke-linejoin:miter;stroke-opacity:1"
       d="m 170.20564,35.673325 c -0.18135,1.600268 0.0982,3.200539 0.30406,4.800808 l -0.048,1.13619 c 0.14092,0.191233 0.26426,0.388308 0.56009,0.528089 0.30619,-0.01095 0.5792,-0.07991 0.80014,-0.240041 l -0.016,-1.13619 c -0.15715,-0.173574 -0.34778,-0.313664 -0.38406,-0.608102 -0.0154,-1.572653 -0.11984,-3.239574 0.20803,-4.448749 z"
       id="path8289"
       inkscape:connector-curvature="0" />
    <path
       style="fill:#333333;fill-opacity:1;fill-rule:evenodd;stroke:none;stroke-width:1px;stroke-linecap:butt;stroke-linejoin:miter;stroke-opacity:1"
       d="m 173.44676,38.926675 3.917,0 0.50717,4.65198 -2.17636,-0.032 -0.096,-1.96033 -0.28805,0.168027 -0.048,1.816306 -2.32839,-0.01599 z"
       id="path8291"
       inkscape:connector-curvature="0" />
    <path
       style="fill:#f6e4e4;fill-opacity:1;fill-rule:evenodd;stroke:none;stroke-width:1px;stroke-linecap:butt;stroke-linejoin:miter;stroke-opacity:1"
       d="m 172.9341,43.554659 0.032,-0.384072 2.30439,0.05601 -0.008,0.344057 z"
       id="path8293"
       inkscape:connector-curvature="0" />
    <path
       id="path8295"
       d="m 177.19821,53.835184 0.028,-1.084182 -1.01617,-0.02801 0.028,0.896152 c 0.29573,0.181497 0.62196,0.22571 0.96017,0.216035 z"
       style="fill:#ffebeb;fill-opacity:1;fill-rule:evenodd;stroke:none;stroke-width:1px;stroke-linecap:butt;stroke-linejoin:miter;stroke-opacity:1"
       inkscape:connector-curvature="0" />
    <path
       id="path8297"
       d="m 177.3222,54.859921 -2.67048,0 0,-0.214998 2.70443,0 z"
       style="fill:#ade8d6;fill-opacity:1;fill-rule:evenodd;stroke:none;stroke-width:1px;stroke-linecap:butt;stroke-linejoin:miter;stroke-opacity:1"
       inkscape:connector-curvature="0" />
    <path
       id="path8299"
       d="m 177.30523,54.656241 0.0962,-0.441309 -0.16407,-0.531835 c -0.39845,0.05999 -0.75555,-0.004 -1.05801,-0.231971 l -0.86565,0.639332 -0.68459,0.02829 0.0226,0.526175 z"
       style="fill:#d45500;fill-opacity:1;fill-rule:evenodd;stroke:none;stroke-width:1px;stroke-linecap:butt;stroke-linejoin:miter;stroke-opacity:1"
       inkscape:connector-curvature="0" />
    <path
       id="path8301"
       d="m 176.04937,53.548702 0.29827,0.25911 -0.0994,0.05724 -0.27116,-0.277184 z"
       style="fill:#fff3eb;fill-opacity:1;fill-rule:evenodd;stroke:none;stroke-width:1px;stroke-linecap:butt;stroke-linejoin:miter;stroke-opacity:1"
       inkscape:connector-curvature="0" />
    <path
       style="fill:#fff3eb;fill-opacity:1;fill-rule:evenodd;stroke:none;stroke-width:1px;stroke-linecap:butt;stroke-linejoin:miter;stroke-opacity:1"
       d="m 175.92873,53.634235 0.29827,0.259107 -0.0994,0.05724 -0.27116,-0.277184 z"
       id="path8303"
       inkscape:connector-curvature="0" />
    <path
       id="path8305"
       d="m 175.83013,53.709709 0.29827,0.259109 -0.0994,0.05724 -0.27116,-0.277184 z"
       style="fill:#fff3eb;fill-opacity:1;fill-rule:evenodd;stroke:none;stroke-width:1px;stroke-linecap:butt;stroke-linejoin:miter;stroke-opacity:1"
       inkscape:connector-curvature="0" />
    <path
       style="fill:#fff3eb;fill-opacity:1;fill-rule:evenodd;stroke:none;stroke-width:1px;stroke-linecap:butt;stroke-linejoin:miter;stroke-opacity:1"
       d="m 175.71697,53.794573 0.29828,0.259109 -0.0994,0.05724 -0.27117,-0.277185 z"
       id="path8307"
       inkscape:connector-curvature="0" />
    <path
       id="path8309"
       d="m 175.55673,53.879865 0.29827,0.25911 -0.0994,0.05724 -0.27116,-0.277184 z"
       style="fill:#fff3eb;fill-opacity:1;fill-rule:evenodd;stroke:none;stroke-width:1px;stroke-linecap:butt;stroke-linejoin:miter;stroke-opacity:1"
       inkscape:connector-curvature="0" />
    <path
       id="path8311"
       d="m 176.21004,52.722997 0.0476,-9.168345 0.99578,0.01698 -0.0272,9.179379 z"
       style="fill:#ffad8d;fill-opacity:1;fill-rule:evenodd;stroke:none;stroke-width:1px;stroke-linecap:butt;stroke-linejoin:miter;stroke-opacity:1"
       inkscape:connector-curvature="0" />
    <path
       style="fill:#e6dbd9;fill-opacity:1;fill-rule:evenodd;stroke:none;stroke-width:1px;stroke-linecap:butt;stroke-linejoin:miter;stroke-opacity:1"
       d="m 175.69457,43.54665 2.17636,0.032 0,-0.312051 -2.20837,0.008 z"
       id="path8313"
       inkscape:connector-curvature="0" />
    <path
       sodipodi:nodetypes="cccccccccc"
       style="fill:#f9af8d;fill-opacity:1;fill-rule:evenodd;stroke:none;stroke-width:1px;stroke-linecap:butt;stroke-linejoin:miter;stroke-opacity:1"
       d="m 179.04141,28.721121 c 0.87121,-0.788463 2.00337,-2.188056 2.56646,-4.291808 L 181.1918,23.7572 c 0.0631,-0.242558 0.0932,-0.478254 0.048,-0.704118 l -0.096,-0.48008 c 0.20128,-0.188829 0.47085,-0.275227 0.80014,-0.272046 0.22818,0.2705 0.49502,0.486903 0.6241,0.896152 l -0.08,0.864144 c -0.52167,2.838091 -1.41963,4.193723 -2.23188,5.78361 z"
       id="path8315"
       inkscape:connector-curvature="0" />
    <path
       style="fill:#006680;fill-rule:evenodd;stroke:none;stroke-width:1px;stroke-linecap:butt;stroke-linejoin:miter;stroke-opacity:1"
       d="m 177.36376,38.926675 1.22729,-6.58191 1.97061,-2.375432 -1.42871,-1.651991 -1.29548,1.704239 c -0.32345,0.425502 -0.90124,0.734852 -1.34277,0.722913 -0.79142,0.618193 -1.55556,0.499881 -2.30438,-0.032 l -2.53875,0.210783 c -0.47987,0.03984 -0.60883,0.453789 -0.69661,0.76688 l -1.08537,3.871154 2.06435,0.624104 0.43254,-2.162913 1.08028,4.904178 z"
       id="path8317"
       inkscape:connector-curvature="0" />
    <g
       id="g8319"
       transform="matrix(-0.25346973,0,0,0.25346973,247.41863,-116.00927)">
      <path
         id="path8321"
         d="m 277.99836,569.08033 c -0.26138,-0.62351 0.30835,-1.08233 0.53571,-1.5625 l -2.85714,-3.01339 0.33482,-7.45536 c 0.0458,-1.01895 0.81365,-2.08 2.12054,-1.9866 l 0.9375,0.067 0.40178,-1.69643 c 0.25013,-1.05612 1.0124,-1.64995 1.96429,-1.67411 l 8.79464,-0.22321 c 0.74135,-1.09898 1.48098,-2.20012 2.87947,-2.47768 -0.13152,0.84077 -0.18252,1.68155 0.26785,2.52232 1.01411,0.45249 2.16757,0.34758 3.34822,0.13393 -0.0445,1.70195 -1.45701,3.0439 -3.08036,4.33036 1.09423,0.56621 2.20822,1.05994 3.05804,2.52232 -1.26644,-0.36035 -2.40539,-0.25329 -3.16965,1.22768 l 0.0415,-2.40716 -10.6066,1.9256 -0.69448,6.566 -2.80949,3.44083 c -0.53367,0.65359 -1.27722,0.21224 -1.46664,-0.2396 z"
         style="fill:#1f193d;fill-opacity:1;fill-rule:evenodd;stroke:none;stroke-width:1px;stroke-linecap:butt;stroke-linejoin:miter;stroke-opacity:1"
         inkscape:connector-curvature="0" />
      <path
         id="path8323"
         d="m 279.81222,578.97946 2.20971,-0.75761 3e-5,-4.95605 -2.55695,-3.94591 0.12627,-1.32583 -2.84106,0.0947 c -1.87836,0.0626 -2.20102,-2.83971 0.69448,-4.41941 0.77866,-0.3605 1.55732,-0.11657 2.33598,0.0947 l 0.0947,1.8309 2.05188,-0.78918 0.1894,-4.73509 c 0.0593,-1.48172 1.55384,-2.56893 3.25143,-2.58852 l 8.20749,-0.0947 0.0631,12.62691 c 0.0127,2.53289 -1.23955,4.80845 -3.91434,4.89292 l -2.99889,0.0947 0.22097,2.87262 1.95717,0.97858 c -2.34488,2.7963 -6.39565,2.71133 -9.09137,0.12627 z"
         style="fill:#ffaa8c;fill-opacity:1;fill-rule:evenodd;stroke:none;stroke-width:1px;stroke-linecap:butt;stroke-linejoin:miter;stroke-opacity:1"
         inkscape:connector-curvature="0" />
    </g>
    <path
       style="fill:#ffffff;fill-rule:evenodd;stroke:none;stroke-width:1px;stroke-linecap:butt;stroke-linejoin:miter;stroke-opacity:1"
       d="m 174.01976,34.807642 0.40042,-1.698498 0.67096,0.766406 0.74592,-1.528747 0.53133,2.410229 z"
       id="path8325"
       inkscape:connector-curvature="0" />
    <circle
       style="fill:#1f193d;fill-opacity:1;stroke:none;stroke-width:1.29999995;stroke-miterlimit:4;stroke-dasharray:none;stroke-opacity:1"
       id="circle8327"
       cx="173.5542"
       cy="26.810038"
       r="0.12802155" />
    <circle
       style="fill:#1f193d;fill-opacity:1;stroke:none;stroke-width:1.29999995;stroke-miterlimit:4;stroke-dasharray:none;stroke-opacity:1"
       id="circle8329"
       cx="174.81842"
       cy="26.794043"
       r="0.1360229" />
    <path
       style="fill:#f6eadc;fill-opacity:1;fill-rule:evenodd;stroke:none;stroke-width:1px;stroke-linecap:butt;stroke-linejoin:miter;stroke-opacity:1"
       d="m 173.56221,28.162269 1.10419,-0.024 c -0.38014,0.720526 -0.7453,0.55739 -1.10419,0.024 z"
       id="path8331"
       inkscape:connector-curvature="0" />
    <g
       transform="matrix(0.33567142,0,0,0.33567142,-0.882044,-172.75709)"
       id="g8018">
      <path
         inkscape:connector-curvature="0"
         id="path7667"
         d="m 334.86556,669.46704 -0.11048,-4.27736 4.00904,-0.11049 -0.11048,3.53554 c -1.16671,0.71605 -2.45377,0.89048 -3.78808,0.85231 z"
         style="fill:#ffebeb;fill-opacity:1;fill-rule:evenodd;stroke:none;stroke-width:1px;stroke-linecap:butt;stroke-linejoin:miter;stroke-opacity:1" />
      <g
         id="g7862">
        <path
           inkscape:connector-curvature="0"
           style="fill:#ade8d6;fill-opacity:1;fill-rule:evenodd;stroke:none;stroke-width:1px;stroke-linecap:butt;stroke-linejoin:miter;stroke-opacity:1"
           d="m 334.13448,673.85712 10.53571,0 0,-0.84822 -10.66964,0 z"
           id="path7665" />
        <path
           inkscape:connector-curvature="0"
           style="fill:#dc4447;fill-opacity:1;fill-rule:evenodd;stroke:none;stroke-width:1px;stroke-linecap:butt;stroke-linejoin:miter;stroke-opacity:1"
           d="m 334.20144,673.05355 -0.37946,-1.74107 0.64732,-2.09822 c 1.57195,0.23668 2.9808,-0.0159 4.17411,-0.91518 l 3.41518,2.52232 2.70089,0.11161 -0.0893,2.07589 z"
           id="path7677" />
        <path
           inkscape:connector-curvature="0"
           style="fill:#fff3eb;fill-opacity:1;fill-rule:evenodd;stroke:none;stroke-width:1px;stroke-linecap:butt;stroke-linejoin:miter;stroke-opacity:1"
           d="m 339.12822,668.50651 -1.17677,1.02225 0.39225,0.22584 1.0698,-1.09356 z"
           id="path7679" />
        <path
           inkscape:connector-curvature="0"
           id="path7681"
           d="m 339.60417,668.84395 -1.17677,1.02225 0.39225,0.22584 1.0698,-1.09356 z"
           style="fill:#fff3eb;fill-opacity:1;fill-rule:evenodd;stroke:none;stroke-width:1px;stroke-linecap:butt;stroke-linejoin:miter;stroke-opacity:1" />
        <path
           inkscape:connector-curvature="0"
           style="fill:#fff3eb;fill-opacity:1;fill-rule:evenodd;stroke:none;stroke-width:1px;stroke-linecap:butt;stroke-linejoin:miter;stroke-opacity:1"
           d="m 339.99317,669.14171 -1.17677,1.02225 0.39225,0.22584 1.0698,-1.09356 z"
           id="path7683" />
        <path
           inkscape:connector-curvature="0"
           id="path7685"
           d="m 340.43959,669.47653 -1.17677,1.02225 0.39225,0.22584 1.0698,-1.09356 z"
           style="fill:#fff3eb;fill-opacity:1;fill-rule:evenodd;stroke:none;stroke-width:1px;stroke-linecap:butt;stroke-linejoin:miter;stroke-opacity:1" />
        <path
           inkscape:connector-curvature="0"
           style="fill:#fff3eb;fill-opacity:1;fill-rule:evenodd;stroke:none;stroke-width:1px;stroke-linecap:butt;stroke-linejoin:miter;stroke-opacity:1"
           d="m 340.92671,669.98044 -1.17677,1.02225 0.39225,0.22584 1.0698,-1.09356 z"
           id="path7687" />
      </g>
      <path
         inkscape:connector-curvature="0"
         style="fill:#ffebeb;fill-opacity:1;fill-rule:evenodd;stroke:none;stroke-width:1px;stroke-linecap:butt;stroke-linejoin:miter;stroke-opacity:1"
         d="m 344.55671,669.81428 -0.11048,-4.27736 4.00904,-0.11049 -0.11048,3.53554 c -1.16671,0.71605 -2.45377,0.89048 -3.78808,0.85231 z"
         id="path7669" />
      <g
         id="g7671"
         transform="translate(-135.86552,124.75384)">
        <path
           inkscape:connector-curvature="0"
           id="path7673"
           d="m 479.93304,549.10328 10.53571,0 0,-0.84822 -10.66964,0 z"
           style="fill:#ade8d6;fill-opacity:1;fill-rule:evenodd;stroke:none;stroke-width:1px;stroke-linecap:butt;stroke-linejoin:miter;stroke-opacity:1" />
        <path
           inkscape:connector-curvature="0"
           id="path7675"
           d="m 480,548.29971 -0.37946,-1.74107 0.64732,-2.09822 c 1.57195,0.23668 2.9808,-0.0159 4.17411,-0.91518 l 3.41518,2.52232 2.70089,0.11161 -0.0893,2.07589 z"
           style="fill:#ba2b3f;fill-opacity:1;fill-rule:evenodd;stroke:none;stroke-width:1px;stroke-linecap:butt;stroke-linejoin:miter;stroke-opacity:1" />
      </g>
      <path
         inkscape:connector-curvature="0"
         id="path7689"
         d="m 338.76412,665.07919 -0.18768,-35.88725 -3.92857,0.067 0.10721,35.93078 z"
         style="fill:#ffad8d;fill-opacity:1;fill-rule:evenodd;stroke:none;stroke-width:1px;stroke-linecap:butt;stroke-linejoin:miter;stroke-opacity:1" />
      <path
         inkscape:connector-curvature="0"
         id="path7691"
         d="m 321.87966,597.67364 c -0.71549,6.31345 0.38742,12.62691 1.19956,18.94036 l -0.18941,4.48255 c 0.55599,0.75446 1.04259,1.53197 2.20971,2.08344 1.20797,-0.0432 2.28509,-0.31528 3.15673,-0.94702 l -0.0631,-4.48255 c -0.61999,-0.68479 -1.37208,-1.23748 -1.51523,-2.39911 -0.0608,-6.2045 -0.47281,-12.78091 0.82075,-17.5514 z"
         style="fill:#ffa88c;fill-opacity:1;fill-rule:evenodd;stroke:none;stroke-width:1px;stroke-linecap:butt;stroke-linejoin:miter;stroke-opacity:1" />
      <path
         inkscape:connector-curvature="0"
         id="path7693"
         d="m 333.95235,611.1339 15.45354,0 2.00092,18.3532 -8.5863,-0.12627 -0.3788,-7.73398 -1.13642,0.66291 -0.18941,7.16577 -9.18607,-0.0631 z"
         style="fill:#d84243;fill-opacity:1;fill-rule:evenodd;stroke:none;stroke-width:1px;stroke-linecap:butt;stroke-linejoin:miter;stroke-opacity:1" />
      <path
         inkscape:connector-curvature="0"
         id="path7695"
         d="m 331.92981,629.39243 0.12627,-1.51526 9.09137,0.22097 -0.0316,1.35739 z"
         style="fill:#f6e4e4;fill-opacity:1;fill-rule:evenodd;stroke:none;stroke-width:1px;stroke-linecap:butt;stroke-linejoin:miter;stroke-opacity:1" />
      <path
         inkscape:connector-curvature="0"
         style="fill:#fff3eb;fill-opacity:1;fill-rule:evenodd;stroke:none;stroke-width:1px;stroke-linecap:butt;stroke-linejoin:miter;stroke-opacity:1"
         d="m 349.08917,668.68404 -1.17677,1.02225 0.39225,0.22584 1.0698,-1.09356 z"
         id="path7697" />
      <path
         inkscape:connector-curvature="0"
         id="path7699"
         d="m 349.56512,669.02149 -1.17677,1.02224 0.39225,0.22584 1.0698,-1.09356 z"
         style="fill:#fff3eb;fill-opacity:1;fill-rule:evenodd;stroke:none;stroke-width:1px;stroke-linecap:butt;stroke-linejoin:miter;stroke-opacity:1" />
      <path
         inkscape:connector-curvature="0"
         style="fill:#fff3eb;fill-opacity:1;fill-rule:evenodd;stroke:none;stroke-width:1px;stroke-linecap:butt;stroke-linejoin:miter;stroke-opacity:1"
         d="m 349.95412,669.31925 -1.17677,1.02225 0.39225,0.22583 1.0698,-1.09356 z"
         id="path7701" />
      <path
         inkscape:connector-curvature="0"
         id="path7703"
         d="m 350.40054,669.65406 -1.17677,1.02225 0.39225,0.22584 1.0698,-1.09356 z"
         style="fill:#fff3eb;fill-opacity:1;fill-rule:evenodd;stroke:none;stroke-width:1px;stroke-linecap:butt;stroke-linejoin:miter;stroke-opacity:1" />
      <path
         inkscape:connector-curvature="0"
         style="fill:#fff3eb;fill-opacity:1;fill-rule:evenodd;stroke:none;stroke-width:1px;stroke-linecap:butt;stroke-linejoin:miter;stroke-opacity:1"
         d="m 351.03275,669.99056 -1.17677,1.02225 0.39225,0.22584 1.0698,-1.09356 z"
         id="path7705" />
      <path
         inkscape:connector-curvature="0"
         style="fill:#ffad8d;fill-opacity:1;fill-rule:evenodd;stroke:none;stroke-width:1px;stroke-linecap:butt;stroke-linejoin:miter;stroke-opacity:1"
         d="m 348.45527,665.42643 -0.18768,-36.17136 -3.92857,0.067 0.10721,36.21489 z"
         id="path7707" />
      <path
         inkscape:connector-curvature="0"
         id="path7709"
         d="m 342.82051,629.36083 8.5863,0.12627 0,-1.23112 -8.71256,0.0316 z"
         style="fill:#e6dbd9;fill-opacity:1;fill-rule:evenodd;stroke:none;stroke-width:1px;stroke-linecap:butt;stroke-linejoin:miter;stroke-opacity:1" />
      <path
         inkscape:connector-curvature="0"
         id="path7711"
         d="m 356.02461,597.51936 c 2.47,4.0778 1.8593,11.89644 2.14657,18.62469 l -1.64149,2.65165 c 0.24902,0.95695 0.36762,1.88683 0.1894,2.77792 l -0.37881,1.89403 c 0.7941,0.74498 1.85761,1.08584 3.15673,1.07329 0.90026,-1.06719 1.95298,-1.92095 2.46224,-3.53554 l -0.31567,-3.40926 c 1.20596,-8.65828 0.6603,-15.85687 -0.12627,-22.8547 z"
         style="fill:#f9af8d;fill-opacity:1;fill-rule:evenodd;stroke:none;stroke-width:1px;stroke-linecap:butt;stroke-linejoin:miter;stroke-opacity:1" />
      <path
         inkscape:connector-curvature="0"
         id="path7717"
         d="m 336.88587,578.72693 2.20971,-0.75761 0,-4.70352 -2.55695,-3.94591 0.12627,-1.32583 c -1.05721,-0.47623 -0.17371,-11.25018 0.2841,-2.39911 l 2.05188,-0.78918 0.1894,-4.73509 c 0.0593,-1.48172 1.55384,-2.56893 3.25143,-2.58852 l 8.20749,-0.0947 0.0631,12.62691 c 0.0127,2.53289 -1.23955,4.80845 -3.91434,4.89292 l -2.99889,0.0947 0.22097,2.87262 1.95717,0.97858 c -2.97028,0.48464 -5.44129,2.1068 -9.09134,-0.12626 z"
         style="fill:#ffaa8c;fill-opacity:1;fill-rule:evenodd;stroke:none;stroke-width:1px;stroke-linecap:butt;stroke-linejoin:miter;stroke-opacity:1" />
      <path
         inkscape:connector-curvature="0"
         id="path7713"
         d="m 349.40589,611.1339 3.27259,-21.44322 2.65165,9.78585 7.82868,-4.35628 -5.14297,-13.49412 c -0.5375,-1.41029 -1.51331,-2.23257 -2.62258,-2.28952 l -9.41602,-0.48341 -9.09137,-0.12627 -9.30167,0.20659 c -1.89925,0.0422 -2.40199,1.79031 -2.74831,3.02553 l -4.28206,15.27265 8.14436,2.46224 1.70649,-8.53322 3.54767,19.97318 z"
         style="fill:#2ca05a;fill-rule:evenodd;stroke:none;stroke-width:1px;stroke-linecap:butt;stroke-linejoin:miter;stroke-opacity:1" />
      <path
         inkscape:connector-curvature="0"
         id="path7715"
         d="m 332.75055,564.50444 0.33482,-7.45536 c 0.0458,-1.01895 0.81365,-2.08 2.12054,-1.9866 l 0.9375,0.067 0.40178,-1.69643 c 0.25013,-1.05612 1.0124,-1.64995 1.96429,-1.67411 l 8.79464,-0.22321 c 0.74135,-1.09898 1.48098,-2.20012 2.87947,-2.47768 -0.13152,0.84077 -0.18252,1.68155 0.26785,2.52232 1.01411,0.45249 2.16757,0.34758 3.34822,0.13393 -0.0445,1.70195 -1.45701,3.0439 -3.08036,4.33036 1.09423,0.56621 2.20822,1.05994 3.05804,2.52232 -1.26644,-0.36035 -2.36075,-1.68186 -3.12501,-0.20089 l -1.69957,-0.0411 c -1.10277,-0.0267 -1.43961,0.69349 -1.50736,1.66091 l -0.70638,10.08612 c -0.15547,2.21992 -2.72002,2.58404 -4.48912,3.26243 l -3.15432,-0.0686 c -5.33176,-3.15381 -6.02609,-4.14662 -6.34503,-8.76136 z"
         style="fill:#1f193d;fill-opacity:1;fill-rule:evenodd;stroke:none;stroke-width:1px;stroke-linecap:butt;stroke-linejoin:miter;stroke-opacity:1" />
    </g>
    <g
       id="g7427"
       transform="translate(-53.08759,-32.60896)">
      <path
         inkscape:connector-curvature="0"
         style="opacity:1;fill:#502d16;fill-opacity:1;stroke:none"
         d="m 337.35966,123.50239 -284.27207,0 c -0.0016,22.18953 63.63575,41.55092 142.13657,41.55083 78.5004,-7e-5 142.137,-19.36142 142.1355,-41.55083 z"
         id="path7429" />
      <ellipse
         style="opacity:1;fill:#2ca05a;fill-opacity:1;stroke:none"
         id="ellipse7431"
         cx="195.224"
         cy="123.50235"
         rx="142.13596"
         ry="30.291269" />
    </g>
    <path
       inkscape:connector-curvature="0"
       id="path7557"
       d="m 183.97598,54.04741 -17.9302,0 -17.13076,25.75889 21.84455,0 z"
       style="fill:#50625f;fill-opacity:1;fill-rule:evenodd;stroke:none;stroke-width:1px;stroke-linecap:butt;stroke-linejoin:miter;stroke-opacity:1" />
    <g
       transform="matrix(0.2436621,0,0,0.27280298,87.10971,-71.26954)"
       id="g7435">
      <path
         inkscape:connector-curvature="0"
         style="opacity:1;fill:#374845;fill-rule:evenodd;stroke:none;stroke-width:1px;stroke-linecap:butt;stroke-linejoin:miter;stroke-opacity:1"
         d="m 342.85714,553.79078 240,0 -84.43917,-145.90406 -35.51557,-38.15432 -40.26178,46.30276 z"
         id="path7437" />
      <path
         inkscape:connector-curvature="0"
         style="fill:#374845;fill-opacity:1;fill-rule:evenodd;stroke:none;stroke-width:1px;stroke-linecap:butt;stroke-linejoin:miter;stroke-opacity:1"
         d="m 403.83203,553.79102 56.71875,0 -25.30469,-91.94532 -31.41406,91.94532 z"
         id="path7439" />
      <path
         inkscape:connector-curvature="0"
         style="fill:#30423f;fill-opacity:1;fill-rule:evenodd;stroke:none;stroke-width:1px;stroke-linecap:butt;stroke-linejoin:miter;stroke-opacity:1"
         d="m 422.64062,416.03516 -13.1914,22.77734 9.43164,70.92969 16.36523,-47.89649 -12.60547,-45.81054 z"
         id="path7441" />
      <path
         inkscape:connector-curvature="0"
         style="fill:#374845;fill-opacity:1;fill-rule:evenodd;stroke:none;stroke-width:1px;stroke-linecap:butt;stroke-linejoin:miter;stroke-opacity:1"
         d="m 409.45117,438.80859 -66.59375,114.98243 0.44531,0 71.87891,-71.88086 -5.73047,-43.10157 z"
         id="path7443" />
      <path
         inkscape:connector-curvature="0"
         style="fill:#445653;fill-opacity:1;fill-rule:evenodd;stroke:none;stroke-width:1px;stroke-linecap:butt;stroke-linejoin:miter;stroke-opacity:1"
         d="m 343.30078,553.79102 60.53125,0 15.04883,-44.04883 -3.69922,-27.83203 -71.88086,71.88086 z"
         id="path7445" />
      <path
         inkscape:connector-curvature="0"
         style="fill:#50625f;fill-opacity:1;fill-rule:evenodd;stroke:none;stroke-width:1px;stroke-linecap:butt;stroke-linejoin:miter;stroke-opacity:1"
         d="m 447.63556,393.32311 -24.99689,22.714 28.36524,103.06641 34.58984,-68.43164 z"
         id="path7447" />
      <path
         inkscape:connector-curvature="0"
         style="fill:#30423f;fill-opacity:1;fill-rule:evenodd;stroke:none;stroke-width:1px;stroke-linecap:butt;stroke-linejoin:miter;stroke-opacity:1"
         d="m 460.55078,553.79102 56.67969,0 16.48242,-30.41407 -48.11914,-72.70507 -34.58984,68.43164 9.54687,34.6875 z"
         id="path7449" />
      <path
         inkscape:connector-curvature="0"
         style="fill:#374845;fill-opacity:1;fill-rule:evenodd;stroke:none;stroke-width:1px;stroke-linecap:butt;stroke-linejoin:miter;stroke-opacity:1"
         d="m 517.23047,553.79102 36.61328,0 -20.13086,-30.41407 -16.48242,30.41407 z"
         id="path7451" />
      <path
         inkscape:connector-curvature="0"
         style="fill:#30423f;fill-opacity:1;fill-rule:evenodd;stroke:none;stroke-width:1px;stroke-linecap:butt;stroke-linejoin:miter;stroke-opacity:1"
         d="m 553.84375,553.79102 29.01367,0 -19.05078,-32.91797 -19.10547,19.10547 9.14258,13.8125 z"
         id="path7453" />
      <path
         inkscape:connector-curvature="0"
         style="fill:#445653;fill-opacity:1;fill-rule:evenodd;stroke:none;stroke-width:1px;stroke-linecap:butt;stroke-linejoin:miter;stroke-opacity:1"
         d="m 477.76758,407.36133 -23.622,-4.20234 90.55559,136.81953 19.10547,-19.10547 -65.38867,-112.98633 -9.93555,16.43945 z"
         id="path7455" />
      <path
         inkscape:connector-curvature="0"
         style="fill:#e6e6e6;fill-opacity:1;fill-rule:evenodd;stroke:none;stroke-width:1px;stroke-linecap:butt;stroke-linejoin:miter;stroke-opacity:1"
         d="m 498.41797,407.88672 -35.51563,-61.36914 -40.26367,69.52148 5.84375,6.85938 9.10742,-15.625 10.44532,17.14258 10,-17.76758 10.17968,17.76758 9.55274,-17.05469 10.71484,16.96484 9.93555,-16.43945 z"
         id="path7457" />
    </g>
    <path
       inkscape:connector-curvature="0"
       id="path7555"
       d="m 104.94695,54.02343 16.32274,-2.07755 2.96401,39.96637 z"
       style="fill:#30423f;fill-opacity:1;fill-rule:evenodd;stroke:none;stroke-width:1px;stroke-linecap:butt;stroke-linejoin:miter;stroke-opacity:1" />
    <path
       inkscape:connector-curvature="0"
       id="path7581"
       d="M 124.2337,91.91225 115.48635,74.72807 122.0774,62.83699 Z"
       style="fill:#50625f;fill-opacity:1;fill-rule:evenodd;stroke:none;stroke-width:1px;stroke-linecap:butt;stroke-linejoin:miter;stroke-opacity:1" />
    <g
       id="g7461"
       transform="matrix(0.43427559,0,0,0.49373582,-121.50752,-171.08814)">
      <path
         inkscape:connector-curvature="0"
         id="path7463"
         d="m 342.85714,553.79078 240,0 -84.43917,-145.90406 -35.51557,-38.15432 -40.26178,46.30276 z"
         style="opacity:1;fill:#374845;fill-rule:evenodd;stroke:none;stroke-width:1px;stroke-linecap:butt;stroke-linejoin:miter;stroke-opacity:1" />
      <path
         inkscape:connector-curvature="0"
         id="path7465"
         d="m 403.83203,553.79102 56.71875,0 -25.30469,-91.94532 -31.41406,91.94532 z"
         style="fill:#374845;fill-opacity:1;fill-rule:evenodd;stroke:none;stroke-width:1px;stroke-linecap:butt;stroke-linejoin:miter;stroke-opacity:1" />
      <path
         inkscape:connector-curvature="0"
         id="path7467"
         d="m 422.64062,416.03516 -13.1914,22.77734 9.43164,70.92969 16.36523,-47.89649 -12.60547,-45.81054 z"
         style="fill:#30423f;fill-opacity:1;fill-rule:evenodd;stroke:none;stroke-width:1px;stroke-linecap:butt;stroke-linejoin:miter;stroke-opacity:1" />
      <path
         inkscape:connector-curvature="0"
         id="path7469"
         d="m 409.45117,438.80859 -66.59375,114.98243 0.44531,0 71.87891,-71.88086 -5.73047,-43.10157 z"
         style="fill:#374845;fill-opacity:1;fill-rule:evenodd;stroke:none;stroke-width:1px;stroke-linecap:butt;stroke-linejoin:miter;stroke-opacity:1" />
      <path
         inkscape:connector-curvature="0"
         id="path7471"
         d="m 343.30078,553.79102 60.53125,0 15.04883,-44.04883 -3.69922,-27.83203 -71.88086,71.88086 z"
         style="fill:#445653;fill-opacity:1;fill-rule:evenodd;stroke:none;stroke-width:1px;stroke-linecap:butt;stroke-linejoin:miter;stroke-opacity:1" />
      <path
         inkscape:connector-curvature="0"
         id="path7473"
         d="m 447.63556,393.32311 -24.99689,22.714 28.36524,103.06641 34.58984,-68.43164 z"
         style="fill:#50625f;fill-opacity:1;fill-rule:evenodd;stroke:none;stroke-width:1px;stroke-linecap:butt;stroke-linejoin:miter;stroke-opacity:1" />
      <path
         inkscape:connector-curvature="0"
         id="path7475"
         d="m 460.55078,553.79102 56.67969,0 16.48242,-30.41407 -48.11914,-72.70507 -34.58984,68.43164 9.54687,34.6875 z"
         style="fill:#30423f;fill-opacity:1;fill-rule:evenodd;stroke:none;stroke-width:1px;stroke-linecap:butt;stroke-linejoin:miter;stroke-opacity:1" />
      <path
         inkscape:connector-curvature="0"
         id="path7477"
         d="m 517.23047,553.79102 36.61328,0 -20.13086,-30.41407 -16.48242,30.41407 z"
         style="fill:#374845;fill-opacity:1;fill-rule:evenodd;stroke:none;stroke-width:1px;stroke-linecap:butt;stroke-linejoin:miter;stroke-opacity:1" />
      <path
         inkscape:connector-curvature="0"
         id="path7479"
         d="m 553.84375,553.79102 29.01367,0 -19.05078,-32.91797 -19.10547,19.10547 9.14258,13.8125 z"
         style="fill:#30423f;fill-opacity:1;fill-rule:evenodd;stroke:none;stroke-width:1px;stroke-linecap:butt;stroke-linejoin:miter;stroke-opacity:1" />
      <path
         inkscape:connector-curvature="0"
         id="path7481"
         d="m 477.76758,407.36133 -23.622,-4.20234 90.55559,136.81953 19.10547,-19.10547 -65.38867,-112.98633 -9.93555,16.43945 z"
         style="fill:#445653;fill-opacity:1;fill-rule:evenodd;stroke:none;stroke-width:1px;stroke-linecap:butt;stroke-linejoin:miter;stroke-opacity:1" />
      <path
         inkscape:connector-curvature="0"
         id="path7483"
         d="m 498.41797,407.88672 -35.51563,-61.36914 -40.26367,69.52148 5.84375,6.85938 9.10742,-15.625 10.44532,17.14258 10,-17.76758 10.17968,17.76758 9.55274,-17.05469 10.71484,16.96484 9.93555,-16.43945 z"
         style="fill:#e6e6e6;fill-opacity:1;fill-rule:evenodd;stroke:none;stroke-width:1px;stroke-linecap:butt;stroke-linejoin:miter;stroke-opacity:1" />
    </g>
    <g
       id="use7499"
       transform="matrix(0.88140356,0,0,0.88140356,-28.492538,-24.4505)">
      <ellipse
         ry="1.0688003"
         rx="4.5456862"
         cy="127.85368"
         cx="290.37888"
         id="ellipse11378"
         style="fill:#000000;fill-opacity:0.18719213;stroke:none" />
      <path
         inkscape:connector-curvature="0"
         id="path11380"
         d="m 288.95134,127.85368 2.85506,0 0,-5.2864 -2.85506,0 0,5.2864 z"
         style="fill:#502d16;fill-rule:evenodd;stroke:none;stroke-width:1px;stroke-linecap:butt;stroke-linejoin:miter;stroke-opacity:1" />
      <path
         inkscape:connector-curvature="0"
         id="path11382"
         d="m 290.37877,88.135437 -8.41855,28.782353 1.6947,0 -1.85636,5.60903 1.74525,0 -0.77962,1.93689 7.61458,0 0,-36.328273 z"
         style="fill:#16502d;fill-rule:evenodd;stroke:none;stroke-width:1px;stroke-linecap:butt;stroke-linejoin:miter;stroke-opacity:1" />
      <path
         inkscape:connector-curvature="0"
         id="path11384"
         d="m 290.37877,88.135437 0,36.328273 7.60209,0 -0.80708,-2.09793 1.73526,0 -1.73526,-5.40742 1.69469,0 -8.4897,-28.822923 z"
         style="fill:#217844;fill-rule:evenodd;stroke:none;stroke-width:1px;stroke-linecap:butt;stroke-linejoin:miter;stroke-opacity:1" />
    </g>
    <g
       id="use7501"
       transform="matrix(1.1010787,0,0,1.1010787,-178.37477,-41.63803)">
      <ellipse
         ry="1.0688003"
         rx="4.5456862"
         cy="127.85368"
         cx="290.37888"
         id="ellipse11358"
         style="fill:#000000;fill-opacity:0.18719213;stroke:none" />
      <path
         inkscape:connector-curvature="0"
         id="path11360"
         d="m 288.95134,127.85368 2.85506,0 0,-5.2864 -2.85506,0 0,5.2864 z"
         style="fill:#502d16;fill-rule:evenodd;stroke:none;stroke-width:1px;stroke-linecap:butt;stroke-linejoin:miter;stroke-opacity:1" />
      <path
         inkscape:connector-curvature="0"
         id="path11362"
         d="m 290.37877,88.135437 -8.41855,28.782353 1.6947,0 -1.85636,5.60903 1.74525,0 -0.77962,1.93689 7.61458,0 0,-36.328273 z"
         style="fill:#16502d;fill-rule:evenodd;stroke:none;stroke-width:1px;stroke-linecap:butt;stroke-linejoin:miter;stroke-opacity:1" />
      <path
         inkscape:connector-curvature="0"
         id="path11364"
         d="m 290.37877,88.135437 0,36.328273 7.60209,0 -0.80708,-2.09793 1.73526,0 -1.73526,-5.40742 1.69469,0 -8.4897,-28.822923 z"
         style="fill:#217844;fill-rule:evenodd;stroke:none;stroke-width:1px;stroke-linecap:butt;stroke-linejoin:miter;stroke-opacity:1" />
    </g>
    <g
       id="use7503"
       transform="matrix(1.2353575,0,0,1.2353575,-274.27636,-46.50788)">
      <ellipse
         ry="1.0688003"
         rx="4.5456862"
         cy="127.85368"
         cx="290.37888"
         id="ellipse11338"
         style="fill:#000000;fill-opacity:0.18719213;stroke:none" />
      <path
         inkscape:connector-curvature="0"
         id="path11340"
         d="m 288.95134,127.85368 2.85506,0 0,-5.2864 -2.85506,0 0,5.2864 z"
         style="fill:#502d16;fill-rule:evenodd;stroke:none;stroke-width:1px;stroke-linecap:butt;stroke-linejoin:miter;stroke-opacity:1" />
      <path
         inkscape:connector-curvature="0"
         id="path11342"
         d="m 290.37877,88.135437 -8.41855,28.782353 1.6947,0 -1.85636,5.60903 1.74525,0 -0.77962,1.93689 7.61458,0 0,-36.328273 z"
         style="fill:#16502d;fill-rule:evenodd;stroke:none;stroke-width:1px;stroke-linecap:butt;stroke-linejoin:miter;stroke-opacity:1" />
      <path
         inkscape:connector-curvature="0"
         id="path11344"
         d="m 290.37877,88.135437 0,36.328273 7.60209,0 -0.80708,-2.09793 1.73526,0 -1.73526,-5.40742 1.69469,0 -8.4897,-28.822923 z"
         style="fill:#217844;fill-rule:evenodd;stroke:none;stroke-width:1px;stroke-linecap:butt;stroke-linejoin:miter;stroke-opacity:1" />
    </g>
    <g
       id="use7507"
       transform="matrix(1.1538351,0,0,1.1538351,-138.36755,-38.66313)">
      <ellipse
         ry="1.0688003"
         rx="4.5456862"
         cy="127.85368"
         cx="290.37888"
         id="ellipse11368"
         style="fill:#000000;fill-opacity:0.18719213;stroke:none" />
      <path
         inkscape:connector-curvature="0"
         id="path11370"
         d="m 288.95134,127.85368 2.85506,0 0,-5.2864 -2.85506,0 0,5.2864 z"
         style="fill:#502d16;fill-rule:evenodd;stroke:none;stroke-width:1px;stroke-linecap:butt;stroke-linejoin:miter;stroke-opacity:1" />
      <path
         inkscape:connector-curvature="0"
         id="path11372"
         d="m 290.37877,88.135437 -8.41855,28.782353 1.6947,0 -1.85636,5.60903 1.74525,0 -0.77962,1.93689 7.61458,0 0,-36.328273 z"
         style="fill:#16502d;fill-rule:evenodd;stroke:none;stroke-width:1px;stroke-linecap:butt;stroke-linejoin:miter;stroke-opacity:1" />
      <path
         inkscape:connector-curvature="0"
         id="path11374"
         d="m 290.37877,88.135437 0,36.328273 7.60209,0 -0.80708,-2.09793 1.73526,0 -1.73526,-5.40742 1.69469,0 -8.4897,-28.822923 z"
         style="fill:#217844;fill-rule:evenodd;stroke:none;stroke-width:1px;stroke-linecap:butt;stroke-linejoin:miter;stroke-opacity:1" />
    </g>
    <g
       id="use7509"
       transform="matrix(0.63597084,0,0,0.63597084,73.80987,18.15233)">
      <ellipse
         ry="1.0688003"
         rx="4.5456862"
         cy="127.85368"
         cx="290.37888"
         id="ellipse11388"
         style="fill:#000000;fill-opacity:0.18719213;stroke:none" />
      <path
         inkscape:connector-curvature="0"
         id="path11390"
         d="m 288.95134,127.85368 2.85506,0 0,-5.2864 -2.85506,0 0,5.2864 z"
         style="fill:#502d16;fill-rule:evenodd;stroke:none;stroke-width:1px;stroke-linecap:butt;stroke-linejoin:miter;stroke-opacity:1" />
      <path
         inkscape:connector-curvature="0"
         id="path11392"
         d="m 290.37877,88.135437 -8.41855,28.782353 1.6947,0 -1.85636,5.60903 1.74525,0 -0.77962,1.93689 7.61458,0 0,-36.328273 z"
         style="fill:#16502d;fill-rule:evenodd;stroke:none;stroke-width:1px;stroke-linecap:butt;stroke-linejoin:miter;stroke-opacity:1" />
      <path
         inkscape:connector-curvature="0"
         id="path11394"
         d="m 290.37877,88.135437 0,36.328273 7.60209,0 -0.80708,-2.09793 1.73526,0 -1.73526,-5.40742 1.69469,0 -8.4897,-28.822923 z"
         style="fill:#217844;fill-rule:evenodd;stroke:none;stroke-width:1px;stroke-linecap:butt;stroke-linejoin:miter;stroke-opacity:1" />
    </g>
    <g
       id="use7511"
       transform="matrix(1.061294,0,0,1.061294,-277.06152,-30.26697)">
      <ellipse
         ry="1.0688003"
         rx="4.5456862"
         cy="127.85368"
         cx="290.37888"
         id="ellipse11328"
         style="fill:#000000;fill-opacity:0.18719213;stroke:none" />
      <path
         inkscape:connector-curvature="0"
         id="path11330"
         d="m 288.95134,127.85368 2.85506,0 0,-5.2864 -2.85506,0 0,5.2864 z"
         style="fill:#502d16;fill-rule:evenodd;stroke:none;stroke-width:1px;stroke-linecap:butt;stroke-linejoin:miter;stroke-opacity:1" />
      <path
         inkscape:connector-curvature="0"
         id="path11332"
         d="m 290.37877,88.135437 -8.41855,28.782353 1.6947,0 -1.85636,5.60903 1.74525,0 -0.77962,1.93689 7.61458,0 0,-36.328273 z"
         style="fill:#16502d;fill-rule:evenodd;stroke:none;stroke-width:1px;stroke-linecap:butt;stroke-linejoin:miter;stroke-opacity:1" />
      <path
         inkscape:connector-curvature="0"
         id="path11334"
         d="m 290.37877,88.135437 0,36.328273 7.60209,0 -0.80708,-2.09793 1.73526,0 -1.73526,-5.40742 1.69469,0 -8.4897,-28.822923 z"
         style="fill:#217844;fill-rule:evenodd;stroke:none;stroke-width:1px;stroke-linecap:butt;stroke-linejoin:miter;stroke-opacity:1" />
    </g>
    <path
       inkscape:connector-curvature="0"
       id="path7567"
       d="m 168.19776,54.04741 15.77822,0 -13.21641,25.75889 z"
       style="fill:#445653;fill-opacity:1;fill-rule:evenodd;stroke:none;stroke-width:1px;stroke-linecap:butt;stroke-linejoin:miter;stroke-opacity:1" />
    <path
       inkscape:connector-curvature="0"
       id="path7571"
       d="m 153.96598,79.67411 16.77608,-0.0439 -1.51355,-15.21863 z"
       style="fill:#30423f;fill-opacity:1;fill-rule:evenodd;stroke:none;stroke-width:1px;stroke-linecap:butt;stroke-linejoin:miter;stroke-opacity:1" />
    <g
       id="use7583"
       transform="matrix(0.49768173,0,0,0.49768173,-13.166237,5.0912)">
      <ellipse
         ry="1.0688003"
         rx="4.5456862"
         cy="127.85368"
         cx="290.37888"
         id="ellipse11348"
         style="fill:#000000;fill-opacity:0.18719213;stroke:none" />
      <path
         inkscape:connector-curvature="0"
         id="path11350"
         d="m 288.95134,127.85368 2.85506,0 0,-5.2864 -2.85506,0 0,5.2864 z"
         style="fill:#502d16;fill-rule:evenodd;stroke:none;stroke-width:1px;stroke-linecap:butt;stroke-linejoin:miter;stroke-opacity:1" />
      <path
         inkscape:connector-curvature="0"
         id="path11352"
         d="m 290.37877,88.135437 -8.41855,28.782353 1.6947,0 -1.85636,5.60903 1.74525,0 -0.77962,1.93689 7.61458,0 0,-36.328273 z"
         style="fill:#16502d;fill-rule:evenodd;stroke:none;stroke-width:1px;stroke-linecap:butt;stroke-linejoin:miter;stroke-opacity:1" />
      <path
         inkscape:connector-curvature="0"
         id="path11354"
         d="m 290.37877,88.135437 0,36.328273 7.60209,0 -0.80708,-2.09793 1.73526,0 -1.73526,-5.40742 1.69469,0 -8.4897,-28.822923 z"
         style="fill:#217844;fill-rule:evenodd;stroke:none;stroke-width:1px;stroke-linecap:butt;stroke-linejoin:miter;stroke-opacity:1" />
    </g>
  </g>
</svg>
