<?xml version="1.0" encoding="UTF-8" standalone="no"?>
<svg version="1.1" viewBox="0 0 22.150363 24.999997" height="7.0555549mm" width="6.2513247mm">
  <g transform="translate(-451.64934,-436.50304)">
    <path d="m 462.77611,436.50314 c -0.74131,-0.008 -1.48189,0.4427 -1.48186,1.37581 l 0,2.22423 -1.58505,-1.25257 c -1.27596,-1.00843 -2.54765,0.91269 -1.43314,1.76276 l 3.01819,2.30162 0,3.48826 -3.09845,-1.78569 -0.58758,-3.73476 c -0.10552,-0.66909 -0.65866,-0.96298 -1.17231,-0.90287 -0.51364,0.0601 -0.98805,0.47483 -0.93153,1.22389 l 0.14617,1.94334 -1.79144,-1.03472 c -1.56138,-0.90147 -3.10094,1.6351 -1.48473,2.56818 l 1.92614,1.11211 -1.8774,0.74523 c -1.51131,0.6008 -0.47939,2.66121 0.81401,2.12105 l 3.49973,-1.4618 3.02392,1.74556 -3.09844,1.78856 -3.52839,-1.35862 c -1.26443,-0.48632 -2.12782,1.33229 -0.77389,1.98347 l 1.75702,0.84555 -1.79428,1.03472 c -1.56139,0.90147 -0.13149,3.50131 1.48473,2.56818 l 1.92614,-1.11211 -0.29237,1.9978 c -0.23535,1.60922 2.06251,1.74851 2.24143,0.35828 l 0.4844,-3.76342 3.02393,-1.74556 0,3.57711 -2.94081,2.37614 c -1.05338,0.85187 0.0891,2.50939 1.32995,1.66244 l 1.61086,-1.10065 0,2.07232 c 0,1.80294 2.96658,1.86626 2.96658,0 l 0,-2.22423 1.58219,1.25256 c 1.27597,1.00843 2.54765,-0.91557 1.43314,-1.76563 l -3.01533,-2.29875 0,-3.49112 3.09559,1.78855 0.58759,3.7319 c 0.21104,1.33818 2.21687,1.17996 2.10384,-0.31816 l -0.14617,-1.9462 1.79429,1.03759 c 1.56138,0.90147 3.09807,-1.63512 1.48186,-2.56819 l -1.92614,-1.11211 1.87742,-0.7481 c 1.51131,-0.6008 0.48229,-2.66121 -0.81115,-2.12104 l -3.50259,1.4618 -3.02393,-1.74556 3.09845,-1.78569 3.52838,1.35575 c 1.26444,0.48632 2.12783,-1.32942 0.7739,-1.9806 l -1.75704,-0.84555 1.7943,-1.03473 c 1.56138,-0.90146 0.13149,-3.50133 -1.48473,-2.56818 l -1.92614,1.11211 0.29236,-2.00065 c 0.23535,-1.60924 -2.0625,-1.74853 -2.24142,-0.35829 l -0.4844,3.76342 -3.02393,1.74556 0,-3.57424 2.94081,-2.37901 c 1.05337,-0.85187 -0.0891,-2.50939 -1.32996,-1.66245 l -1.61085,1.10066 0,-2.06945 c 0,-0.90147 -0.74055,-1.36791 -1.48187,-1.37581 z" style="fill:#4d4d4d;fill-opacity:1;fill-rule:evenodd;stroke:none;stroke-width:1px;stroke-linecap:butt;stroke-linejoin:miter;stroke-opacity:1" />
  </g>
</svg>
