<?xml version="1.0" standalone="no"?>
<!DOCTYPE svg PUBLIC "-//W3C//DTD SVG 1.1//EN" "http://www.w3.org/Graphics/SVG/1.1/DTD/svg11.dtd" >
<svg xmlns="http://www.w3.org/2000/svg">
<metadata>Generated by IcoMoon</metadata>
<defs>
<font id="oblyk" horiz-adv-x="1024">
<font-face units-per-em="1024" ascent="960" descent="-64" />
<missing-glyph horiz-adv-x="1024" />
<glyph unicode="&#x20;" horiz-adv-x="512" d="" />
<glyph unicode="&#xe900;" glyph-name="boulder_height" d="M805.17 826.77l-133.567-133.497 44.057-44.126 89.51 89.509 89.44-89.509 44.057 44.126zM774.030 671.069v-403.491h62.28v403.491zM715.66 289.78l-44.057-44.335 133.567-133.567 133.497 133.567-44.057 44.335-89.44-89.509zM404.083 826.791l-318.75-396.167 157.917-153-105.333-20.499 27.417-145.25h146l-20.25 119.416 123.25-119.416h67.167l38.333 147.25 116.167 210.333-39.417 202.417z" />
<glyph unicode="&#xe901;" glyph-name="brosseur" d="M152.191 38.839c14.025-11.030 31.828-18.822 39.567-17.318 7.737 1.451 75.141 80.817 149.784 176.251l135.715 173.514-15.692 27.34c-15.545 27.088-15.304 27.853 26.297 83.034 23.094 30.631 92.918 119.831 155.167 198.221 62.247 78.39 115.254 147.925 117.795 154.524 5.66 14.707-14.257 40.262-31.381 40.262-21.435 0-324.798-387.785-464.573-593.86-56.714-83.615-111.005-162.226-120.645-174.69-23.657-30.583-22.115-43.614 7.966-67.278zM554.675 404.021c57.685-44.388 79.73-48.539 91.728-17.274 4.441 11.578-6.979 27.637-40.599 57.089-54.305 47.575-75.602 56.763-94.743 40.879-23.837-19.782-15.499-35.208 43.614-80.694zM594.014 470.841c68.15-52.943 73.307-55.396 89.032-42.344 25.419 21.094 14.096 44.024-44.453 90.023-45.721 35.921-61.519 43.656-73.639 36.061-30.368-19.027-21.558-44.417 29.060-83.741zM648.491 529.254c61.796-48.55 76.382-52.751 92.663-26.682 13.486 21.598 10.683 25.606-52.72 75.397-54.381 42.705-66.634 46.862-84.749 28.748-19.903-19.903-12.777-32.226 44.806-77.463zM699.079 590.012c32.608-26.385 63.242-46.654 68.076-45.043 4.831 1.613 14.791 11.982 22.133 23.030 12.543 18.893 9.734 22.989-46.696 68.047-33.023 26.368-65.238 48.086-71.586 48.263-10.113 0.323-31.215-27.69-31.215-41.379 0-2.725 26.681-26.532 59.289-52.917zM695.565 696.132c10.903-17.64 107.825-87.516 121.39-87.516 10.604 0 31.875 27.743 31.875 41.578 0 10.046-113.244 91.447-127.218 91.447-18.113 0-35.451-30.293-26.047-45.509zM751.437 749.117c9.145-7.966 37.485-30.172 62.977-49.355 43.983-33.1 47.257-34.058 64.137-18.782 9.784 8.853 17.682 20.78 17.55 26.503-0.15 5.725-27.988 31.317-61.908 56.876-59.962 45.183-62.195 45.999-80.528 29.409-23.1-20.906-23.368-26.251-2.229-44.651z" />
<glyph unicode="&#xe902;" glyph-name="climb_1" d="M422 874.665c-22.962 0-45.293-3.096-66.916-9.337-21.402-6.241-42.545-15.707-63.501-28.416v-62.917c21.625 14.933 42.326 26.281 62.167 34.084 20.064 7.805 38.888 11.756 56.499 11.756 24.078 0 43.343-6.16 57.834-18.417 14.707-12.256 22.083-28.325 22.083-48.167 0-10.917-2.87-21.606-8.66-32.083-5.58-10.482-14.707-21.601-27.417-33.416l-30.083-29.751c-20.064-19.172-33.258-36.009-39.501-50.5-6.241-14.481-9.337-32.984-9.337-55.499v-51.5h63.833v41.083c0 11.595 0.323 20.73 0.968 27.417 0.645 6.692 1.661 12.401 2.999 17.084 1.79 5.58 4.854 11.288 9.079 17.082 4.451 6.015 11.933 14.271 22.417 24.75l29.417 28.749c20.062 19.172 34.056 36.342 42.082 51.5 8.031 15.384 12.078 31.559 12.078 48.501 0 35.447-12.53 63.959-37.499 85.584-24.745 21.623-57.565 32.416-98.583 32.416zM589.583 486.748l-145.5-193.917 110.584-147.333-62.083-46.583c-65.552 87.272-174.501 232.75-174.501 232.75l-232.75-310.332h853.334zM373.166 451.332v-84.918h67.834v84.918z" />
<glyph unicode="&#xe903;" glyph-name="climb_2" d="M486.395 874.44c68.739 2.532 122.066-16.618 167.833-31.080 73.231-23.15 113.395-35.555 126.097-99.812 30.035-89.138 26.724-205.921-31.525-260.007l-73.526-68.29c-111.761-103.777-208.204-228.012-299.347-393.917h-176.004c-32.626 27.563-69.474 59.248-68.287 102.387 14.917 542.041 76.721 659.237 212.766 716.976 53.991 22.913 100.749 32.225 141.993 33.744zM675.54 143.435l18.471-56.567-199.446-65.089-18.471 56.476zM892.391 80.742v-59.408h-209.836v59.408z" />
<glyph unicode="&#xe904;" glyph-name="climb_3" d="M589.575 680.727l-145.453-193.939 110.545-147.393-62.061-46.546c-65.552 87.272-174.546 232.727-174.546 232.727l-232.727-310.303h853.334z" />
<glyph unicode="&#xe905;" glyph-name="climb_4" d="M589.575 874.665l-131.030-251.144 66.218-198.656-65.434-125.417-141.268 420.066-232.727-698.179h853.334z" />
<glyph unicode="&#xe906;" glyph-name="climb_5" d="M158.892 841.119c-2.080-0.071-4.177-0.161-6.338-0.323-37.103-3.225-49.096-22.644-43.984-42.64-6.031-4.499-9.595-10.53-10.917-17.36-15.658-10.998-16.11-34.956-3.048-56.628 24.655-40.862 79.677-57.647 120.803-90.559l-0.161-0.097-0.806-2.209 97.345-107.672 4.499 4.096c84.805-99.312 169.628-198.571 252.57-306.578l-25.123-25.703 84.813-136.437c3.080-4.951 10.756-6.176 20.649 0l76.702 47.936 8.111 53.838-87.022 74.488-34.563-3.564c-87.621 98.017-185.030 207.382-270.188 313.829l-2.645 3.37 5.031 4.58-92.191 105.833-6.886-4.757c-5.886 8.144-10.901 16.913-15.529 25.939 6.031-2.612 11.949-5.434 17.708-8.515l-0.161-0.161-0.323-2.306 115.357-88.112 3.677 4.838c101.495-82.18 202.989-164.309 304.238-255.376l-20.012-29.851 108.273-118.679c3.918-4.306 11.707-4.128 20.306 3.757l66.673 61.124-1.839 54.412-99.149 57.368-33.336-9.805c-104.032 80.414-219.747 170.184-322.892 259.315l-3.209 2.822 4.096 5.418-109.942 87.242-5.886-5.934c-11.417 10.885-20.98 23.671-30.328 36.596 10.595-2.080 21.094-4.564 31.307-7.853l-0.157-0.161 0.090-2.322 129.208-66.157 2.758 5.418c114.514-62.785 229.013-125.521 344.865-197.095l-14.368-32.937 127.686-97.498c4.628-3.532 12.256-1.967 19.309 7.321l54.715 72.019-11.514 53.214-107.783 38.789-31.055-15.594c-116.692 60.448-246.553 128.168-363.923 197.5l-3.677 2.209 3.080 6.063-123.727 66.262-4.741-6.886c-45.359 29.806-73.054 86.011-136.432 84.182zM166.649 830.121c43.632-1.129 78.906-52.784 122.27-82.549l-7.998-11.643c-16.307 5.289-32.168 8.869-47.262 11.772-20.807 28.335-43.35 54.257-85.629 58.173-12.094 1.129-21.856 0.047-29.485-2.58-0.968 13.143 13.707 22.884 39.018 26.339 3.080 0.323 6.096 0.645 9.095 0.484zM143.426 794.125c2.403 0.048 4.935 0.026 7.547-0.094 26.031-1.129 45.687-19.84 64.531-42.993-10.192 1.822-20.038 3.596-29.206 5.612-11.095 11.836-25.166 21.354-44.484 26.821-5.322 1.451-10.24 2.467-14.804 2.967-1.451 1.613-2.596 3.064-3.644 4.564 5.451 1.871 12.175 2.935 20.048 3.112zM121.962 773.906c0.484 0 0.968-0.048 1.451-0.071 1.887-1.854 3.902-3.644 6.063-5.354 14.255-11.191 31.383-17.569 49.881-22.072 10.175-12.465 18.609-28.214 27.001-44.68-33.584 12.756-63.225 21.947-81.914 41.245-10.788 11.143-16.013 20.79-16.611 28.616 3.886 1.451 8.627 2.274 14.142 2.306zM149.244 769.278c3.209-1.129 6.273-2.612 9.192-4.306-3.177 1.29-6.257 2.741-9.192 4.306zM98.4 764.263c2.177-8.563 6.95-17.395 14.046-25.384 24.287-27.34 63.533-37.515 101.449-51.961 6.87-13.449 14.013-26.848 22.384-38.901l-11.627-8.047c-46.578 37.346-95.658 53.075-117.504 85.995-11.546 17.4-13.675 30.293-8.756 38.304zM197.561 742.567c9.353-1.758 18.938-3.322 28.553-4.951 12.514-16.29 25.131-33.481 39.499-47.712l-9.95-10.046c-11.111 5.967-22.136 10.982-32.903 15.4-7.773 16.355-15.223 32.831-25.192 47.306zM416.16 682.499c113.037-71.414 241.919-138.142 358.813-197.595l-18.775-9.418c-113.093 74.044-228.697 136.426-344.366 198.495zM379.231 603.206c98.506-90.41 213.435-179.032 317.871-258.359l-20.159-5.934c-98.098 93.002-200.739 174.983-303.502 256.664zM332.184 542.053c80.365-106.859 177.208-214.953 265.426-311.996l-20.901-2.145c-79.493 109.333-165.461 208.656-251.602 307.708z" />
<glyph unicode="&#xe907;" glyph-name="climb_6" d="M817.396 179.083c-2.161 0.323-78.272-19.608-126.583-33.25-31.607-8.934-84.831-24.789-160.834-47.999-36.085-11.030-71.68-21.839-79.166-24-7.482-2.161-14.191-4.87-14.836-5.999s1.822-4.322 5.418-6.999c5.628-4.193 11.869-5.612 19.667-5.918l0.484-0.085 1.29 0.161c4.322-0.060 8.127-0.323 14.578 0.484 39.576 4.838 221.66 45.033 249.167 54.999 8.369 3.032 16.54 5.241 18.166 4.918 1.629-0.323 4.58-2.79 6.579-5.58 7.628-10.659 8.74-10.74 48.667-1.451 49.362 11.433 49.691 11.578 49 20.083-0.806 9.95-25.434 49.621-31.501 50.75zM785.897 141.25c13.417 1.451 27.396-3.87 24.416-9.256-2.177-3.935-13.852-9.192-21.751-9.837-9.676-0.806-13.336-0.052-20.333 3.838-3.258 1.806-4.935 3.886-4.161 5.338 2.274 4.128 12.869 8.95 21.835 9.917zM915.731 105.75c-2.080 0.645-81.193-10.708-131.583-18.834-32.968-5.322-88.598-15.078-168.168-29.583-37.778-6.886-75.1-13.546-82.917-14.836-7.821-1.29-14.9-3.209-15.755-4.338-0.806-1.129 1.129-4.531 4.257-7.579 4.902-4.709 10.869-6.741 18.584-7.918l0.484-0.161h1.29c4.29-0.484 7.982-1.29 14.497-1.129 40.215 0.323 228.186 19.961 257.25 26.75 8.853 2.080 17.431 3.322 19 2.838 1.613-0.484 4.064-3.274 5.58-6.257 5.805-11.337 6.87-11.546 48.167-6.837 51.066 5.805 51.51 5.967 52.25 14.417 0.806 9.901-17.065 51.726-22.917 53.5zM878.064 71.916c13.594-0.065 26.622-6.854 22.751-11.836-2.838-3.661-15.368-7.579-23.334-7.257-9.756 0.323-13.272 1.451-19.583 5.999-2.935 2.145-4.241 4.467-3.258 5.757 2.967 3.806 14.336 7.37 23.417 7.337zM619.359 874.668l-72.278-79.857 33.647-30.541c25.005-22.62 38.122-47.78 50.331-72.739l-114.014-126.065-6.66 6.031-380.118-419.879-30.502-19.691c-22.518-21.498-15.642-42.107-0.323-55.941l43.855-39.638c32.889-29.764 52.398-9.45 67.416 10.837l16.592 30.11 373.286 412.632-7.031 6.45 114.016 126.066c14.788-13.046 30.789-20.935 48.299-22.009 27.969-23.684 48.983-50.103 68.123-77.229l56.378-50.986c6.612-5.983 4.87-12.627-2.371-20.796 6.483-11.853 15.239-19.701 23.807-27.88l19.703 21.794c-22.502 91.225-61.369 171.863-104.909 249.287-16.5 29.343-37.569 60.071-74.95 94.013-29.077 26.414-67.924 54.788-122.269 86.026zM741.183 751.568c5.557-1.52 10.361-4.209 14.334-7.8l-0.030 0.027c7.048-6.401 11.455-15.602 11.455-25.831 0-9.018-3.425-17.237-9.046-23.425l0.026 0.029c-6.401-7.048-15.602-11.455-25.831-11.455-9.018 0-17.237 3.425-23.425 9.046l0.029-0.026c-7.031 6.4-11.427 15.589-11.427 25.805 0 2.030 0.174 4.019 0.507 5.954l-0.029-0.207c0.257 1.373 0.537 2.507 0.87 3.617l-0.064-0.247c1.515 5.556 4.198 10.36 7.784 14.335l-0.027-0.031c6.4 7.029 15.588 11.423 25.802 11.423 3.245 0 6.387-0.443 9.367-1.273l-0.245 0.058zM175.343 114.078c2.071-0.345 3.886-1.258 5.33-2.572l-0.008 0.008c2.119-1.912 3.446-4.668 3.446-7.734 0-2.664-1.001-5.094-2.648-6.934l0.009 0.010c-1.907-2.067-4.63-3.357-7.653-3.357-2.702 0-5.164 1.030-7.013 2.719l0.008-0.007c-2.119 1.912-3.446 4.668-3.446 7.734 0 2.664 1.001 5.094 2.648 6.934l-0.009-0.010c1.911 2.111 4.662 3.432 7.722 3.432 0.57 0 1.13-0.046 1.675-0.134l-0.060 0.008z" />
<glyph unicode="&#xe908;" glyph-name="climb_7" d="M271.875 797.916l-186.5-131.667 52.334-73.999 134.167 94.832 160-113.082 160.333 113.082 160.25-113.082 186.166 131.665-52.25 74.001-133.917-94.834-160.25 113.083-160.333-113.083zM271.875 560.166l-186.5-131.667 52.334-73.999 134.167 94.751 160-113.085 160.333 113.085 160.25-113.085 186.166 131.667-52.25 73.749-133.917-94.498-160.25 113.083-160.333-113.083zM271.875 322.333l-186.5-131.665 52.334-74.001 134.167 94.832 160-113.417 160.333 113.417 160.25-113.417 186.166 131.667-52.25 74.001-133.917-94.834-160.25 113.417-160.333-113.417z" />
<glyph unicode="&#xe909;" glyph-name="climb_8" d="M285.702 874.613v-192.123h368.819v192.123h-70.551v-121.572h-227.717v121.572zM406.33 526.582v-192.441h368.819v192.441h-70.551v-121.575h-227.717v121.575zM248.851 213.51v-192.125h368.819v192.125h-70.551v-121.574h-227.717v121.574z" />
<glyph unicode="&#xe90a;" glyph-name="cotation" d="M268.416 874.666c-7.241 0-13.755-1.451-19.667-4.241-5.709-2.854-10.111-6.338-13.159-10.337l-101.084-135.67c-16.76-22.472-29.169-43.871-37.167-64.249-7.998-20.38-11.998-39.923-11.998-58.587 0-21.52 3.274-41.063 9.756-58.582 6.483-17.522 15.674-32.516 27.667-45.085 12.191-12.385 26.859-22.057 44-28.916 17.14-6.854 36.337-10.256 57.667-10.256s40.812 3.548 58.333 10.579c17.713 7.241 32.849 16.895 45.417 29.085 12.578 12.385 22.228 26.848 29.083 43.416 7.047 16.568 10.579 34.373 10.579 53.417 0 19.998-3.338 37.68-9.998 52.914-6.66 15.416-15.594 28.214-26.834 38.502-11.046 10.482-23.92 18.277-38.583 23.415-14.659 5.338-30.002 7.998-45.999 7.998-12.191 0-23.526-1.451-34-4.257-10.288-2.854-19.74-6.854-28.501-11.998l7.998 10.256c2.854 3.628 5.789 7.353 8.837 11.175l122 151.417zM765.833 874.666v-126.333h-119.418v-48.918h119.418v-126.666h52.834v126.666h120v48.918h-120v126.333zM514.416 759.333c-22.663 0-42.669-3.79-60-11.417-17.331-7.434-31.86-17.837-43.668-31.168-11.611-13.336-20.488-29.193-26.582-47.667-6.096-18.282-9.176-38.228-9.176-59.75 0-23.805 3.338-45.003 9.998-63.667 6.854-18.472 16.134-34.216 27.751-47.165 11.804-12.756 25.55-22.559 41.166-29.417 15.803-6.66 32.741-9.998 50.834-9.998 10.466 0 20.798 0.806 31.083 2.58 10.288 1.451 20.228 4.048 29.749 7.66 9.514 3.806 18.596 8.676 27.167 14.578 8.563 5.902 16.371 13.175 23.417 21.751l-17.416 22.512c-2.661 3.806-6.547 5.757-11.498 5.757-3.999 0-7.805-1.451-11.417-4.338-3.419-2.854-7.628-5.983-12.578-9.418s-11.079-6.563-18.5-9.418c-7.434-2.854-17.11-4.241-28.917-4.241-11.998 0-22.788 2.258-32.499 6.837-9.514 4.564-17.729 11.24-24.584 19.999-6.66 8.756-11.804 19.49-15.416 32.25-3.612 12.756-5.418 27.372-5.418 43.75 0 15.803 1.613 29.931 4.838 42.5 3.435 12.756 8.498 23.571 15.175 32.334 6.854 8.95 15.175 15.82 25.084 20.583 10.095 4.757 21.835 7.079 35.166 7.079 10.288 0 18.811-1.129 25.668-3.419 6.854-2.274 12.659-4.806 17.416-7.676 4.951-2.661 9.16-5.209 12.578-7.499 3.612-2.29 7.095-3.419 10.337-3.419s5.709 0.645 7.418 2c1.709 1.29 3.515 3.274 5.418 5.757l16.25 22.333c-12.562 12.562-26.895 22.307-43.084 29.167-15.997 6.854-34.61 10.256-55.749 10.256zM225.582 671.25c11.998 0 22.931-1.854 32.834-5.66 10.095-3.612 18.705-8.885 25.75-15.755 7.241-6.854 12.772-15.32 16.584-25.416 3.999-9.901 5.999-21.098 5.999-33.668 0-11.611-2-22.431-5.999-32.333s-9.74-18.432-17.168-25.666c-7.241-7.241-15.965-12.981-26.25-17.168-10.288-3.999-21.62-5.999-34-5.999-12.756 0-24.095 2-34 5.999-9.708 3.999-17.918 9.547-24.582 16.584-6.66 7.241-11.74 15.9-15.175 26-3.435 10.095-5.080 21.228-5.080 33.416 0 10.869 1.854 21.125 5.66 30.833s9.289 18.182 16.334 25.418c7.047 7.241 15.513 12.965 25.416 17.166 10.095 4.193 21.288 6.257 33.666 6.257zM85.333 395.832v-42.5h543.917v42.5zM357.417 346.416l-153.084-152.75 53.25-53.25 62.333 62.333v-181.417h75v181.417l62.333-62.333 52.916 53.25z" />
<glyph unicode="&#xe90b;" glyph-name="crag" d="M589.576 680.727l-145.455-193.939 110.545-147.393-62.061-46.546c-65.551 87.272-174.545 232.727-174.545 232.727l-232.727-310.303h853.333z" />
<glyph unicode="&#xe90c;" glyph-name="depart_1" d="M189.758 874.642c-5.338 0.044-10.74-0.484-16.168-1.451-43.381-8.563-71.901-51.119-63.333-94.5 8.579-43.384 51.118-71.819 94.5-63.249 43.381 8.563 71.82 51.034 63.251 94.416-7.499 37.957-40.936 64.528-78.25 64.833zM710.174 874.642c-38.549 0-75.945-5.273-112.25-15.755-35.93-10.482-71.485-26.332-106.667-47.665v-105.585c36.304 25.078 71.108 44.151 104.417 57.25 33.684 13.094 65.265 19.667 94.832 19.667 40.421 0 72.839-10.24 97.167-30.833 24.702-20.585 36.999-47.525 36.999-80.835 0-18.338-4.854-36.325-14.578-53.916-9.353-17.59-24.666-36.33-45.999-56.167l-50.5-49.916c-33.684-32.187-55.772-60.506-66.25-84.834-10.482-24.328-15.755-55.365-15.755-93.166v-86.418h107.251v69c0 19.462 0.484 34.856 1.661 46.085 1.129 11.224 2.838 20.724 5.080 28.583 2.999 9.353 7.966 18.935 15.078 28.666 7.482 10.111 20.075 23.91 37.667 41.5l49.417 48.333c33.684 32.187 57.192 60.968 70.666 86.418 13.481 25.824 20.251 52.972 20.251 81.417 0 59.508-20.999 107.446-62.917 143.75-41.544 36.308-96.717 54.42-165.583 54.42zM170.007 685.058c-6.708 0.645-13.594 0.323-20.499-1.129-11.836-2.338-20.62-3.628-30.751-10.159-29.685-19.132-33.416-77.19-33.416-121.295v-531.166h85.75l5.080 299.166 98.417-62.499 46.751-236.667 78.916 15.578-58.416 295.751-98.417 62.583 0.323 122.917c62.956-49.031 173.895-21.539 234.999 40.167l-15.578 78.916c-66.829-51.261-144.458-83.721-186.916-34.75l-51.918 55.333c-15.336 15.416-34.197 25.465-54.333 27.25zM628.257 163.892v-142.583h113.917v142.583z" />
<glyph unicode="&#xe90d;" glyph-name="depart_2" d="M144.674 788.605c48.115 19.117 103.124-4.612 122.243-52.721 19.117-48.115-4.612-103.124-52.722-122.241-48.113-19.119-103.122 4.612-122.241 52.721-19.117 48.113 4.612 103.122 52.721 122.241zM243.878 574.791c14.868 5.902 30.801 7.757 45.919 6.676 13.465-0.806 26.972-3.967 38.931-9.853l88.122-43.527c74.054-7.757 116.138 107.425 147.042 197.893l66.962-43.008c-17.537-106.822-75.391-226.222-214.872-258.503l39.48-99.355c31.186-78.487 130.964-44.704 208.161-14.030l275.045-118.628-39.541-91.681-213.922 92.262-87.482-34.761c-76.002-30.199-161.686-72.651-236.633-51.985-34.492 14.159-63.183 41.757-77.782 78.498l-99.936 251.509c-21.552 54.238 5.080 115.96 59.14 137.95z" />
<glyph unicode="&#xe90e;" glyph-name="depart_3" d="M434.695 715.395c43.381 8.563 71.865 51.074 63.296 94.456-8.579 43.379-51.076 71.864-94.458 63.294-43.381-8.563-71.862-51.076-63.294-94.456 8.579-43.384 51.074-71.864 94.456-63.294zM401.002 21.335l5.16 299.143 98.398-62.519 46.743-236.625 78.877 15.578-58.428 295.784-98.401 62.516 0.323 122.988c62.956-49.031 173.93-21.572 235.035 40.134l-15.578 78.875c-66.829-51.261-144.471-83.699-186.929-34.727l-51.903 55.311c-20.449 20.545-47.227 31.647-74.834 26.195-11.836-2.338-20.641-3.644-30.772-10.175-29.685-19.171-33.4-77.235-33.4-121.34v-531.142z" />
<glyph unicode="&#xe90f;" glyph-name="depart_4" d="M584.694 874.666l-59.708-95.242c-11.337 30.186-43.189 48.873-75.803 42.431-36.269-7.16-60.113-42.668-52.95-78.937 6.434-32.557 35.772-54.904 67.929-53.996l-16.581-24.663c-6.063 0.806-12.272 0.806-18.534-0.484-9.901-1.951-17.239-3.032-25.708-8.482-24.82-16.045-27.938-64.594-27.938-101.468v-444.084h71.691l4.322 250.12 82.212-52.255-57.060-168.673 56.502-11.417 80.401 212.637-105.899 82.21 0.323 102.834c0.103 39.086 0.484 64.881 0.806 92.178l139.899 214.511zM375.402 46.553v-25.219h158.433v25.219z" />
<glyph unicode="&#xe910;" glyph-name="depart_5" d="M613.206 715.907c43.658 0 79.38 35.719 79.38 79.379 0 43.658-35.722 79.38-79.38 79.38s-79.379-35.722-79.379-79.38c0-43.659 35.719-79.379 79.379-79.379zM470.322 164.217l39.691 174.636 83.349-79.38v-238.139h79.38v297.673l-83.35 79.38 23.815 119.069c51.597-59.536 130.977-99.225 218.294-99.225v79.38c-75.412 0-138.914 39.689-170.666 95.256l-39.689 63.504c-15.884 23.813-39.689 39.689-67.473 39.689-11.917 0-19.845-3.967-31.754-3.967l-206.387-87.319v-186.542h79.38v134.945l71.441 27.775-63.504-321.488-194.481 39.689-15.868-79.38z" />
<glyph unicode="&#xe911;" glyph-name="inclinaison_1" d="M697.032 226.901h88.701v-110.985h-88.701zM783.111 291.133h-83.457v67.291q0 44.132 12.24 72.535 12.24 28.401 51.56 65.979l39.326 38.889q24.907 23.159 35.83 43.695 11.353 20.536 11.353 41.947 0 38.889-28.84 62.922-28.401 24.031-75.592 24.031-34.519 0-73.846-15.287-38.888-15.287-81.273-44.569v82.147q41.075 24.905 83.021 37.14 42.384 12.24 87.39 12.24 80.399 0 128.901-42.384 48.939-42.384 48.939-111.859 0-33.208-15.723-63.359-15.723-29.712-55.056-67.291l-38.452-37.578q-20.536-20.536-29.275-32.334-8.305-11.353-11.804-22.284-2.629-9.176-3.935-22.284-1.29-13.11-1.29-35.83zM85.336 874.665h426.666v-853.331h-426.666z" />
<glyph unicode="&#xe912;" glyph-name="inclinaison_2" d="M730.999 802.731l174.738-90.357-29.781-57.723-117.131 60.571-60.484-117.118-57.699 29.833zM811.124 658.031l127.542-400.5-61.819-19.682-127.542 400.5zM85.334 21.336h562.542l-271.752 853.331h-290.789z" />
<glyph unicode="&#xe913;" glyph-name="inclinaison_3" d="M799.602 739.256l-139.135-139.062 45.893-45.967 93.242 93.244 93.169-93.244 45.895 45.967zM767.165 577.066v-420.317h64.876v420.317zM85.334 874.665h426.666v-853.331h-426.666z" />
<glyph unicode="&#xe914;" glyph-name="inclinaison_4" d="M848.308 657.109l-174.738-90.355 29.783-57.725 117.129 60.571 60.484-117.118 57.699 29.833zM768.183 512.409l-127.542-400.498 61.819-19.682 127.542 400.498zM85.335 874.665h562.54l-271.75-853.331h-290.79z" />
<glyph unicode="&#xe915;" glyph-name="inclinaison_5" d="M938.666 454.192l-196.714 0.968-0.324-64.954 131.864-0.645-0.645-131.812 64.955-0.323zM800.579 363.14l-298.705-295.704 45.646-46.103 298.705 295.704zM85.334 874.665h853.332l-853.332-853.331z" />
<glyph unicode="&#xe916;" glyph-name="inclinaison_6" d="M803.257 160.396l-139.062 139.135-45.967-45.893 93.244-93.242-93.244-93.169 45.967-45.895zM641.067 192.835h-420.317v-64.878h420.317zM938.665 874.666v-426.666h-853.331v426.666z" />
<glyph unicode="&#xe917;" glyph-name="nb_longueur" d="M244.75 874.624l-159.417-159.334 52.583-52.666 106.833 106.833 106.75-106.833 52.583 52.666zM207.583 688.79v-481.582h74.333v481.582zM137.917 233.707l-52.583-52.916 159.417-159.415 159.333 159.415-52.583 52.916-106.75-106.833zM779.333 874.624l-159.417-159.334 52.583-52.666 106.833 106.833 106.75-106.833 52.583 52.666zM742.167 688.79v-481.582h74.333v481.582zM672.5 233.707l-52.583-52.916 159.417-159.415 159.333 159.415-52.583 52.916-106.75-106.833z" />
<glyph unicode="&#xe918;" glyph-name="nom" d="M85.333 874.624v-42.5h54.5v-768.25h-54.5v-42.5h151.833v42.5h-54.5v768.25h54.5v42.5zM559.583 730.708l-270.833-709.25h101.25l64.583 181.916h319.75l64.583-181.916h99.75l-270.333 709.25zM613.75 636.126l130.583-352.917h-260.75z" />
<glyph unicode="&#xe919;" glyph-name="note" d="M512 853.785l131.847-267.153 294.819-42.839-213.333-207.948 50.361-293.63-263.694 138.633-263.695-138.633 50.361 293.63-213.333 207.948 294.819 42.839z" />
<glyph unicode="&#xe91a;" glyph-name="opener" d="M489.253 246.024c0 6.999 3.498 10.498 10.496 10.498 10.056 0 10.495 3.499 10.495 83.612 0 79.774-0.5 83.77-10.795 87.038-6.363 2.016-10.103 7.015-9.111 12.159 2.504 13.014 84.538 13.014 87.043 0 1-5.144-2.749-10.143-9.111-12.159-10.3-3.257-10.795-7.273-10.795-87.038 0-69.301 1.29-83.612 7.563-83.612 9.271 0 15.199-8.627 10.804-15.739-1.784-2.887-21.996-5.257-44.916-5.257-38.175 0-41.673 0.806-41.673 10.498zM121.902 269.951c-12.989 1.919-26.567 5.886-30.175 8.789-8.060 6.515-8.671 28.672-0.855 31.276 3.133 1.129 19.418 72.964 36.188 159.82s33.152 162.895 36.406 168.973c3.253 6.079 10.429 13.465 15.945 16.421 6.32 3.386 80.52 5.322 200.611 5.241 177.99-0.11 192.079-0.806 213.265-10.417 12.477-5.66 29.598-15.223 38.047-21.233l15.362-10.933v-56.994c0-65.517-0.806-67.032-47.145-88.77l-28.949-13.578-344.199-3.225-5.017-13.191c-6.558-17.253-6.417-17.969 2.856-14.417 11.666 4.483 10.982-41.468-0.774-51.213-7.391-6.144-9.447-5.886-14.288 1.79-4.652 7.37-7.734 1.967-17.405-30.556-7.024-23.625-10.513-45.707-8.674-54.904 4.028-20.146-6.12-32.433-23.992-29.046-7.479 1.451-24.223 4.144-37.212 6.063zM654.56 564.831c0 29.586-2.164 53.791-4.81 53.791 38.918-8.934 20.604-5.273 53.048-10.046 40.728-3.79 48.848-7.402 48.848-21.739 0-5.612 3.543-10.192 7.871-10.192 5.497 0 7.871-5.547 7.871-18.367 0-12.433-2.425-18.366-7.507-18.366-4.13 0-8.261-5.305-9.184-11.804-1.371-9.643-6.005-12.401-25.293-15.078-12.989-1.806-34.243-2.967-47.23-2.629l-23.615 0.645v53.79zM893.41 546.464c0.179 17.248 7.163 30.175 16.285 30.175 11.204 0 12.048-4.128 4.765-23.273-5.196-13.675-21.181-18.908-21.050-6.902zM863.792 551.705c1.74 6.499 3.196 14.755 3.237 18.367 0 3.612 4.794 6.563 10.567 6.563 10.969 0 12.472-5.209 7.189-24.928-1.945-7.257-7.212-11.804-13.66-11.804-8.323 0-9.84 2.435-7.331 11.804zM834.753 555.768c2.17 15.965 7.881 22.412 17.761 20.041 11.748-2.822 1.306-37.178-10.58-34.813-6.173 1.29-8.398 5.805-7.181 14.771zM804.125 549.963c0 17.053 5.915 26.669 16.405 26.669 8.284 0 9.434-2.516 6.586-14.433-4.657-19.488-6.605-22.304-15.428-22.304-4.159 0-7.563 4.531-7.563 10.063zM772.71 546.448c0.192 17.25 7.163 30.175 16.283 30.175 11.204 0 12.048-4.128 4.765-23.273-5.196-13.675-21.181-18.908-21.048-6.902zM919.578 547.415c0 1.29 2.527 8.934 5.617 17.056 5.060 13.304 6.141 13.836 10.911 5.305 3.707-6.628 3.403-11.74-1-17.055-5.905-7.112-15.515-10.417-15.515-5.322z" />
<glyph unicode="&#xe91b;" glyph-name="open_year" d="M383.993 490.668h-85.333v-85.334h85.333zM554.659 490.668h-85.333v-85.334h85.333zM725.326 490.668h-85.333v-85.334h85.333zM810.659 789.334h-42.667v85.334h-85.333v-85.334h-341.333v85.334h-85.333v-85.334h-42.667c-47.36 0-84.907-38.399-84.907-85.332l-0.419-597.334c0-46.933 37.973-85.334 85.333-85.334h597.333c46.933 0 85.333 38.401 85.333 85.334v597.334c0 46.933-38.4 85.332-85.333 85.332zM810.659 106.668h-597.333v469.334h597.333z" />
<glyph unicode="&#xe91c;" glyph-name="point" d="M514.614 874.7c-36.501 0.484-85.571 0.077-128.963-2.741-21.696-1.451-41.927-3.451-59.148-6.434-17.221-2.999-30.287-3.628-45.84-16.794-11.13-9.418-12.848-17.671-15.209-25.877-2.362-8.192-3.65-16.919-4.753-26.405-2.205-18.967-3.221-41.194-2.852-63.478 0.369-22.288 2.112-44.396 4.436-63.056 1.163-9.321 2.22-17.979 4.014-25.561 1.794-7.579 2.579-13.626 9.506-23.131 8.233-11.304 12.222-11.707 19.646-16.794 7.423-5.096 16.898-11.095 27.461-17.532 21.127-12.885 47.4-27.933 73.512-42.671 45.106-25.461 77.771-43.003 88.933-49.008l-3.169-473.606 52.282-0.484v470.497l7.288 3.854c12.172 6.273 43.704 22.338 88.933 47.107 26.585 14.546 53.59 29.917 75.097 43.093 10.753 6.579 20.197 12.369 27.884 17.956 7.687 5.58 12.995 6.273 20.807 21.123 4.99 9.482 4.906 13.981 6.020 20.807 1.114 6.805 1.981 14.368 2.746 23.131 1.53 17.537 2.553 38.881 2.852 60.31s0.141 42.897-1.268 61.050c-0.705 9.079-1.706 17.173-3.169 24.715-1.463 7.547-1.659 13.788-9.189 23.976-8.931 12.078-16.13 13.175-23.131 15.626s-14.457 4.273-22.814 5.918c-16.714 3.257-37.254 5.531-59.465 7.595-44.421 4.112-95.533 6.354-132.449 6.757zM513.769 817.243c35.206-0.484 85.905-2.516 128.118-6.45 21.106-2.048 40.147-4.58 53.55-7.176 4.525-0.806 7.059-1.613 9.928-2.322 0.679-4.080 1.5-9.111 2.007-15.626 1.195-15.384 1.442-35.714 1.161-55.873-0.282-20.153-0.958-40.247-2.324-55.875-0.682-7.805-1.681-14.562-2.429-19.117-0.051-0.323-0.149-0.484-0.213-0.806 2.479 2.677 3.73 4.161 0.213-2.532-2.625-4.999-1.050-1.613-0.213 2.532-1.15-1.29-2.029-2.403-3.803-3.693-5.591-4.064-13.956-9.482-23.974-15.626-20.036-12.288-46.419-27.19-72.562-41.51-45.59-24.968-79.598-42.329-90.306-47.846-10.875 5.886-43.472 23.449-88.194 48.691-25.811 14.578-52.132 29.675-72.245 41.932-10.056 6.128-18.453 11.433-24.398 15.529-2.096 1.451-3.432 2.87-4.859 4.225 1.068-2.903 2.201-4.531-0.634-0.645-3.347 4.596-1.987 3.128 0.634 0.645-0.255 0.645-0.431 0.968-0.634 1.79-1.056 4.451-2.286 11.175-3.274 19.117-1.976 15.884-3.569 36.703-3.908 57.142-0.339 20.438 0.581 40.894 2.324 55.873 0.789 6.789 1.514 11.998 2.429 15.529-1.268-1.629 3.931 1.451 15.949 3.693 13.799 2.419 32.656 4.161 53.127 5.499 40.942 2.661 89.068 3.241 124.527 2.854z" />
<glyph unicode="&#xe91d;" glyph-name="point_1" d="M735.004 114.674h74.763v-93.545h-74.763zM807.558 168.814h-70.345v56.717q0 37.196 10.305 61.135 10.321 23.939 43.458 55.612l33.147 32.779q20.993 19.519 30.199 36.829 9.579 17.31 9.579 35.356 0 32.778-24.307 53.034-23.939 20.256-63.714 20.256-29.096 0-62.241-12.885-32.778-12.885-68.503-37.565v69.239q34.619 20.993 69.975 31.304 35.726 10.305 73.659 10.305 67.766 0 108.646-35.724 41.249-35.724 41.249-94.282 0-27.991-13.256-53.403-13.256-25.044-46.406-56.717l-32.41-31.673q-17.31-17.31-24.674-27.255-6.999-9.579-9.95-18.782-2.209-7.74-3.322-18.784-1.129-11.046-1.129-30.199zM342.18 874.7c-36.501 0.484-85.571 0.077-128.964-2.741-21.696-1.451-41.926-3.451-59.147-6.434-17.221-2.999-30.288-3.628-45.84-16.794-11.127-9.418-12.852-17.671-15.207-25.877-2.354-8.192-3.644-16.919-4.757-26.405-2.209-18.967-3.225-41.194-2.854-63.478 0.323-22.288 2.113-44.396 4.435-63.056 1.129-9.321 2.225-17.979 4.015-25.561 1.79-7.579 2.58-13.626 9.498-23.131 8.24-11.304 12.223-11.707 19.646-16.794 7.418-5.096 16.898-11.095 27.461-17.532 21.127-12.885 47.401-27.933 73.512-42.671 45.108-25.461 77.771-43.003 88.933-49.008l-3.161-473.606 52.284-0.484v470.497l7.289 3.854c12.175 6.273 43.705 22.338 88.933 47.107 26.584 14.546 53.59 29.917 75.095 43.093 10.756 6.579 20.198 12.369 27.885 17.956 7.692 5.58 12.998 6.273 20.807 21.123 4.983 9.482 4.902 13.981 6.015 20.807 1.129 6.805 1.983 14.368 2.741 23.131 1.451 17.537 2.548 38.881 2.854 60.31 0.323 21.428 0.141 42.897-1.29 61.050-0.645 9.079-1.709 17.173-3.177 24.715-1.451 7.547-1.661 13.788-9.192 23.976-8.934 12.078-16.129 13.175-23.131 15.626-6.999 2.451-14.449 4.273-22.813 5.918-16.713 3.257-37.254 5.531-59.465 7.595-44.421 4.112-95.532 6.354-132.449 6.757zM341.374 817.243c35.205-0.484 85.905-2.516 128.118-6.45 21.107-2.048 40.147-4.58 53.551-7.176 4.531-0.806 7.063-1.613 9.934-2.322 0.645-4.080 1.451-9.111 2.016-15.626 1.129-15.384 1.451-35.714 1.129-55.873-0.323-20.153-0.968-40.247-2.322-55.875-0.645-7.805-1.677-14.562-2.435-19.117-0.051-0.323-0.149-0.484-0.161-0.806 2.483 2.677 3.725 4.161 0.161-2.532-2.629-4.999-1.129-1.613-0.161 2.532-1.129-1.29-2.032-2.403-3.806-3.693-5.596-4.064-13.949-9.482-23.973-15.626-20.037-12.288-46.419-27.19-72.562-41.51-45.589-24.968-79.597-42.329-90.304-47.846-10.869 5.886-43.472 23.449-88.195 48.691-25.81 14.578-52.132 29.675-72.244 41.932-10.063 6.128-18.453 11.433-24.399 15.529-2.096 1.451-3.435 2.87-4.854 4.225 1.129-2.903 2.193-4.531-0.645-0.645-3.354 4.596-1.983 3.128 0.645 0.645-0.323 0.645-0.484 0.968-0.645 1.79-1.129 4.451-2.29 11.175-3.274 19.117-1.983 15.884-3.564 36.703-3.902 57.142-0.323 20.438 0.645 40.894 2.322 55.873 0.806 6.789 1.451 11.998 2.435 15.529-1.29-1.629 3.935 1.451 15.949 3.693 13.804 2.419 32.657 4.161 53.127 5.499 40.942 2.661 89.069 3.241 124.528 2.854z" />
<glyph unicode="&#xe91e;" glyph-name="point_2" d="M376.845 739.353c-160.383 0-291.511-131.127-291.511-291.511s131.128-291.195 291.511-291.195c140.415 0 258.116 100.294 285.262 232.893h276.559v116.921h-276.559c-27.235 132.543-144.927 232.891-285.262 232.891zM376.845 652.652c113.64 0 204.81-91.17 204.81-204.81s-91.17-204.808-204.81-204.808c-113.64 0-204.81 91.168-204.81 204.808s91.17 204.81 204.81 204.81z" />
<glyph unicode="&#xe91f;" glyph-name="point_3" d="M404.296 762.379c-40.66-3.515-89.307-21.578-116.917-43.584-102.568-81.751-201.555-171.097-201.999-286.667-0.484-114.245 50.99-225.272 161-278.749 69.082-33.582 131.493-19.914 188.332 0 40.846 14.304 47.322 52.322 46.833 81.083l-5.757 336.417h462.833v107.333h-464.667l-0.645 40.583c4.29 36.075-28.34 47.101-69 43.584zM294.798 555.963c53.387-0.001 96.666-60.89 96.666-136v0c0-75.11-43.279-135.999-96.666-136v0c0 0 0 0-0.001 0-53.388 0-96.667 60.889-96.667 136 0 0 0 0 0 0v0c0 75.111 43.279 136 96.667 136 0 0 0 0 0.001 0v0z" />
<glyph unicode="&#xe920;" glyph-name="point_4" d="M381.732 681.509c-182.6 0-294.575-112.258-296.063-233.072s109.082-234.015 292.913-234.015h560v91.025h-560c-149.581 0-202.717 74.86-201.89 142.047s56.973 142.991 205.039 142.991z" />
<glyph unicode="&#xe921;" glyph-name="point_5" d="M929.166 734.928c-233.374-19.163-431.135-22.567-579.528-52.598-74.197-15.013-137.421-36.59-186.142-76.85-48.721-40.262-77.481-101.821-77.481-172.284 0-71.096 23.863-133.257 70.237-174.174 46.372-40.916 107.688-60.401 179.842-72.123 144.31-23.45 341.406-16.495 595.591-25.829l4.096 107.402c-257.93 9.466-458.004 3.999-582.677 24.252-62.337 10.127-103.497 26.772-125.984 46.615-22.489 19.841-34.016 43.505-34.016 93.856 0 45.53 12.078 67.737 38.741 89.764 26.655 22.028 73.389 40.918 138.896 54.174 131.014 26.513 330.2 31.559 567.244 51.023z" />
<glyph unicode="&#xe922;" glyph-name="point_6" d="M191.526 874.666l-106.193-106.193 320.475-320.473-320.475-320.473 106.193-106.193 320.475 320.473 320.473-320.473 106.193 106.193-320.473 320.473 320.473 320.473-106.193 106.193-320.473-320.473z" />
<glyph unicode="&#xe923;" glyph-name="ponderation" d="M268.412 874.666c-7.241 0-13.772-1.451-19.667-4.241-5.709-2.854-10.111-6.338-13.159-10.337l-101.084-135.668c-16.758-22.472-29.169-43.871-37.167-64.249-7.998-20.382-11.998-39.925-11.998-58.589 0-21.52 3.274-41.063 9.756-58.582 6.467-17.522 15.674-32.515 27.667-45.083 12.191-12.385 26.859-22.059 44-28.917 17.14-6.854 36.337-10.256 57.667-10.256s40.812 3.548 58.333 10.579c17.711 7.241 32.849 16.894 45.417 29.083 12.562 12.385 22.228 26.848 29.083 43.416 7.047 16.569 10.579 34.374 10.579 53.417 0 19.998-3.338 37.682-9.998 52.916-6.66 15.416-15.594 28.212-26.834 38.501-11.046 10.482-23.92 18.277-38.583 23.417-14.659 5.338-30.002 7.998-46.001 7.998-12.191 0-23.525-1.451-33.998-4.257-10.288-2.854-19.74-6.854-28.501-11.998l7.998 10.256c2.854 3.628 5.789 7.353 8.837 11.175l122 151.417zM765.829 874.666v-126.333h-119.418v-48.918h119.418v-126.666h52.834v126.666h120v48.918h-120v126.333zM514.412 759.333c-22.663 0-42.669-3.79-60-11.417-17.331-7.434-31.86-17.835-43.668-31.167-11.611-13.336-20.488-29.193-26.582-47.667-6.096-18.282-9.16-38.228-9.16-59.75 0-23.805 3.338-45.003 9.998-63.667 6.854-18.472 16.134-34.216 27.751-47.165 11.804-12.756 25.55-22.559 41.166-29.417 15.803-6.66 32.741-9.998 50.832-9.998 10.482 0 20.801 0.806 31.084 2.58 10.288 1.451 20.227 4.048 29.749 7.66 9.514 3.806 18.596 8.676 27.167 14.578 8.563 5.902 16.369 13.175 23.417 21.751l-17.418 22.512c-2.661 3.806-6.547 5.757-11.498 5.757-3.999 0-7.805-1.451-11.417-4.338-3.419-2.854-7.628-5.983-12.578-9.418s-11.079-6.563-18.5-9.418c-7.434-2.854-17.11-4.241-28.917-4.241-11.998 0-22.786 2.258-32.499 6.837-9.514 4.564-17.727 11.24-24.584 19.999-6.66 8.756-11.804 19.49-15.416 32.25-3.612 12.756-5.418 27.372-5.418 43.75 0 15.803 1.613 29.931 4.838 42.5 3.435 12.756 8.498 23.571 15.158 32.334 6.854 8.95 15.175 15.82 25.084 20.583 10.095 4.757 21.835 7.079 35.166 7.079 10.288 0 18.811-1.129 25.668-3.419 6.854-2.274 12.659-4.806 17.416-7.676 4.951-2.661 9.16-5.209 12.578-7.499 3.612-2.29 7.095-3.419 10.337-3.419s5.709 0.645 7.418 2c1.709 1.29 3.515 3.274 5.418 5.757l16.25 22.333c-12.562 12.562-26.895 22.307-43.084 29.167-15.997 6.854-34.61 10.256-55.749 10.256zM225.578 671.25c11.998 0 22.931-1.854 32.834-5.66 10.095-3.612 18.703-8.885 25.75-15.755 7.241-6.854 12.772-15.32 16.584-25.416 3.999-9.901 5.999-21.098 5.999-33.668 0-11.611-2-22.431-5.999-32.333s-9.74-18.432-17.168-25.666c-7.241-7.241-15.965-12.981-26.25-17.168-10.288-3.999-21.622-5.999-34-5.999-12.756 0-24.097 2-34 5.999-9.708 3.999-17.918 9.547-24.582 16.584-6.66 7.241-11.74 15.9-15.175 26-3.435 10.095-5.080 21.228-5.080 33.416 0 10.869 1.854 21.125 5.66 30.833s9.289 18.182 16.334 25.418c7.047 7.241 15.513 12.965 25.416 17.166 10.095 4.193 21.288 6.257 33.666 6.257zM629.246 395.832v-42.5h309.333v42.5zM784.163 346.416l-153.084-152.75 53.25-53.25 62 62.167v-181.251h75.334v181.084l62-62 53.25 53.25z" />
<glyph unicode="&#xe924;" glyph-name="reception" d="M648.228 371.623l290.438 184.596v-42.595l-290.437-184.591zM376.643 371.619h271.586v-42.594h-271.586zM85.334 371.619h259.038v-42.594h-259.038zM667.080 566.973h271.586l-290.438-184.594h-271.586zM375.772 566.973h259.036l-290.438-184.594h-259.036z" />
<glyph unicode="&#xe925;" glyph-name="relais_1" d="M408.781 185.402h105.351v-131.819h-105.351zM511.018 261.691h-99.123v79.922q0 52.416 14.53 86.148 14.53 33.734 61.238 78.364l46.707 46.19q29.582 27.504 42.556 51.897 13.497 24.391 13.497 49.821 0 46.188-34.252 74.731-33.734 28.545-89.783 28.545-40.999 0-87.706-18.164-46.188-18.164-96.529-52.935v97.565q48.784 29.582 98.606 44.113 50.339 14.53 103.793 14.53 95.492 0 153.097-50.339 58.124-50.34 58.124-132.857 0-39.441-18.684-75.25-18.682-35.29-65.389-79.922l-45.67-44.632q-24.391-24.391-34.771-38.404-9.853-13.497-14.013-26.468-3.112-10.901-4.677-26.468-1.613-15.562-1.613-42.555zM938.64 776.669c-45.482 0-88.478-15.949-114.665-47.583-16.658-20.125-22.617-46.061-18.084-70.417-16.132-7.611-31.562-19.641-44.833-35.582-13.417-16.126-22.497-33.737-27-51.168-1.29-0.323-2.758-0.484-4.080-0.968-12.207-4.080-24.187-11.046-35.416-20.083-18.866-28.461-23.942-35.574-47.167-71.167-23-35.25-45.246-69.767-63.249-98.167l1.29-66.416c11.466-5.725 24.602-6.692 37.667-4.257 11.256-16.892 17.834-37.209 17.834-59.168 0-39.251-21.075-72.97-52.416-91.417l0.968-52.916c58.181 22.344 99.917 78.429 99.917 144.25 0 29.122-8.547 56.162-22.667 79.499 8.273 6.289 16.134 13.61 23.333 22.251 13.352 16.045 22.281 33.686 26.75 51.082 1.451 0.323 2.919 0.484 4.338 0.968 20.019 6.692 39.376 20.698 55.585 40.168 13.401 16.094 22.405 33.678 26.916 51.082 1.29 0.323 2.741 0.484 4.080 0.968 20.017 6.708 39.626 20.449 55.835 39.915 11.191 13.449 19.24 28.061 24.249 42.668 16.094-4.806 33.052-7.998 50.75-7.998v52c-18.627 0-35.693 4.531-49.666 11.079-3.032 7.66-7.257 14.707-13.917 20.249-5.515 4.596-11.901 7.305-18.5 9.16-4.37 10.385-2 19.869 7.418 31.249 12.869 15.562 42.028 29.001 74.667 29.001zM85.39 776.587v-51.418c32.639 0 61.793-13.433 74.667-28.999 8.531-10.288 10.853-19.074 8.079-28.333-0.806-0.323-1.758-0.484-2.58-0.968-11.32-6.047-18.65-16.137-23.25-27.667-14.917-8.66-34.898-14.836-56.917-14.836v-52c19.216 0 37.674 3.499 54.917 9.16 2.709-10.837 6.854-21.852 12.578-32.583 11.949-22.339 28.33-39.815 46.583-50.418 12.546-7.289 26.722-11.062 40.418-9.756-4.096-8.531-6.467-18.071-7.079-27.833-1.29-21.067 4.386-44.245 16.332-66.583 11.949-22.341 28-39.981 46.251-50.584 6.338-3.677 13.239-6.192 20.167-7.918 2.516-12.917 6.95-26.053 13.836-38.917 9.385-17.558 21.539-31.989 35.166-42.584l0.645 46.835c-2.564 3.483-5.209 6.773-7.418 10.917-4.531 8.482-7.579 17.126-9.579 25.334 2 0.806 4.064 1.129 5.999 2.080 4.531 2.419 8.305 5.58 11.675 9.079l1.451 107.501c-0.161 0.323-0.323 0.645-0.484 0.968-11.949 22.339-28.416 39.896-46.665 50.5-12.546 7.289-26.724 11.062-40.418 9.756 4.080 8.515 6.579 18.008 7.176 27.75 1.29 21.067-4.144 44.411-16.078 66.75-11.949 22.338-28.33 39.897-46.583 50.5-1.742 0.968-3.612 1.629-5.418 2.5 2.5 22.483-3.596 45.754-18.834 64.167-26.189 31.642-69.185 47.583-114.667 47.585zM209.223 633.753c11.595-7.079 23.966-19.859 33.084-36.917 9.401-17.589 13.368-35.671 12.498-49.416-0.806-13.739-5.886-21.728-11.998-25-6.128-3.274-15.255-2.838-27.166 4.080-11.901 6.918-24.765 20.243-34.168 37.833-5.741 10.756-8.773 21.241-10.579 31.249 10.917 6.773 21.049 14.61 29.167 24.416 3.58 4.322 6.579 8.966 9.16 13.755zM818.308 628.334c1.806-2.806 3.483-5.709 5.66-8.337 9.127-11.030 20.819-19.467 33.416-26.666-3.515-11.24-9.079-23.312-18.667-34.834-10.337-12.417-22.13-20.545-33.25-25.916-2.258 12.111-7.386 23.342-17.082 31.417-5.838 4.87-12.643 7.515-19.667 9.256 3.79 9.708 8.95 19.743 17 29.417 10.143 12.191 21.648 20.253 32.584 25.666zM764.141 540.501c1.129-0.484 2.629-0.645 3.499-1.29 2.774-2.306 4.854-5.918 6.079-10.659-1.129 0.484-2.645 0.645-3.499 1.29v0.082c-2.758 2.29-4.854 5.886-6.079 10.579zM732.391 536.421c2.258-12.111 7.386-23.342 17.084-31.417 5.854-4.87 12.627-7.515 19.666-9.256-3.79-9.708-8.95-19.667-17-29.333-10.385-12.482-22.251-20.724-33.416-26.084-2.177 12.094-7.273 23.317-17 31.417-5.838 4.854-12.578 7.515-19.583 9.256 3.79 9.724 8.934 19.725 17 29.417 10.337 12.417 22.13 20.627 33.25 26zM288.391 485.837v-0.082c4.531-0.484 9.788-2.371 15.755-5.838 11.901-6.918 24.681-20.245 34.084-37.833 4.515-8.45 7.676-17.024 9.756-25.166-1.951-0.806-3.935-1.129-5.838-2.080-16.41-8.773-24.928-25.589-27.666-43.916-0.968 0.484-1.613 0.323-2.58 0.968-11.901 6.918-25.011 20.077-34.418 37.665-9.401 17.59-13.11 35.838-12.256 49.584 0.806 13.739 5.628 21.562 11.756 24.834 3.064 1.645 6.886 2.387 11.417 1.838zM677.391 448.254c1.129-0.484 2.709-0.645 3.58-1.29 2.725-2.258 4.822-5.789 5.999-10.337-1.129 0.484-2.709 0.645-3.58 1.29-2.725 2.29-4.838 5.66-5.999 10.256zM645.725 444.255c2.258-11.949 7.418-23.030 17.082-31.083 5.821-4.854 12.578-7.515 19.583-9.337-3.709-9.805-8.837-19.953-16.916-29.667-5.66-6.789-11.885-12.191-18.168-16.916-14.207 15.191-31.249 27.55-50.499 36.084 3.709 8.353 8.644 16.937 15.416 25.082 10.353 12.449 22.309 20.515 33.5 25.834zM497.224 106.588l1.451-4.419c3.935-0.968 7.692-2.354 11.756-2.999z" />
<glyph unicode="&#xe926;" glyph-name="relais_2" d="M85.333 788v-52c32.639 0 61.794-13.115 74.667-28.667 8.523-10.303 10.846-19.077 8.083-28.333-0.814-0.378-1.697-0.404-2.5-0.833-11.317-6.049-18.651-16.132-23.25-27.667-14.921-8.689-34.931-15-57-15v-51.917c19.247 0 37.733 3.481 55 9.167 2.707-10.812 6.86-21.795 12.583-32.5 11.943-22.341 28.331-39.815 46.583-50.417 12.549-7.295 26.805-11.065 40.5-9.75-4.118-8.47-6.551-18.010-7.167-27.833-1.321-21.069 4.057-44.409 16-66.75 11.942-22.338 28.414-39.814 46.667-50.417 6.299-3.662 13.052-6.206 19.917-8 2.59-12.879 7.117-25.958 14-38.833 11.942-22.338 28.082-40.062 46.333-50.667 1.435-0.833 3.022-1.337 4.5-2.083 3.988-81.75 71.554-147.5 154.25-147.5 85.238 0 154.917 69.68 154.917 154.917 0 29.062-8.522 56.027-22.583 79.333 8.22 6.333 16.055 13.775 23.25 22.417 13.418 16.117 22.414 33.652 26.917 51.083 1.353 0.38 2.745 0.469 4.083 0.917 20.018 6.692 39.626 20.533 55.833 40 13.438 16.141 22.395 33.832 26.833 51.333 1.32 0.374 2.696 0.481 4 0.917 20.017 6.692 39.625 20.533 55.833 40 11.198 13.45 19.241 27.975 24.25 42.583 16.094-4.806 33.056-7.917 50.75-7.917v51.917c-18.669 0-35.762 4.586-49.75 11.167-3.024 7.627-7.283 14.728-13.917 20.25-5.498 4.578-11.847 7.219-18.417 9.083-4.42 10.407-2.031 19.912 7.417 31.333 12.873 15.552 42.027 28.667 74.667 28.667v52c-45.483 0-88.479-15.941-114.667-47.583-16.657-20.126-22.616-46.061-18.083-70.417-16.164-7.603-31.62-19.695-44.917-35.667-13.419-16.119-22.414-33.654-26.917-51.083-1.35-0.38-2.752-0.47-4.083-0.917-20.018-6.692-39.625-20.531-55.833-40-13.418-16.117-22.304-33.856-26.75-51.333-1.347-0.38-2.753-0.472-4.083-0.917-20.017-6.708-39.626-20.533-55.833-40-9.364-11.247-16.429-23.238-21.5-35.417-10.169 2.119-20.642 3.25-31.417 3.25-36.031 0-68.858-13.011-95.25-33.833-10.87 16.134-24.144 29.064-38.667 37.5-6.32 3.674-13.052 6.083-19.917 7.833-2.582 12.931-7.088 26.071-14 39-11.943 22.339-28.081 39.979-46.333 50.583-12.58 7.313-26.903 10.974-40.667 9.5 4.086 8.536 6.468 18.091 7.083 27.917 1.322 21.065-4.14 44.494-16.083 66.833s-28.331 39.815-46.583 50.417c-1.68 0.977-3.518 1.561-5.25 2.417 2.546 22.531-3.557 45.875-18.833 64.333-26.188 31.642-69.184 47.583-114.667 47.583zM209.083 644.75c11.59-7.085 24.155-19.654 33.25-36.667 9.404-17.59 13.112-35.838 12.25-49.583-0.863-13.739-5.629-21.561-11.75-24.833-6.121-3.274-15.259-2.835-27.167 4.083s-25.013 20.076-34.417 37.667c-5.726 10.71-8.673 21.31-10.417 31.333 10.918 6.781 21.049 14.525 29.167 24.333 3.553 4.293 6.494 8.916 9.083 13.667zM818.333 639.25c1.787-2.756 3.448-5.586 5.583-8.167 9.125-11.026 20.819-19.384 33.417-26.583-3.517-11.248-9.071-23.224-18.667-34.75-10.336-12.421-22.134-20.627-33.25-26-2.209 12.004-7.255 23.122-16.917 31.167-5.858 4.878-12.665 7.563-19.75 9.333 3.715 9.781 8.767 19.895 16.833 29.583 10.124 12.154 21.764 20.048 32.75 25.417zM764.167 551.333c1.083-0.564 2.711-0.605 3.583-1.333 2.733-2.272 4.743-5.751 5.917-10.333-1.087 0.55-2.7 0.61-3.583 1.333-2.733 2.272-4.743 5.751-5.917 10.333zM732.25 547.5c2.269-12.096 7.398-23.353 17.083-31.417 5.843-4.866 12.642-7.511 19.667-9.25-3.787-9.709-8.946-19.743-17-29.417-10.343-12.417-22.126-20.624-33.25-26-2.253 12.146-7.362 23.408-17.083 31.5-5.843 4.866-12.642 7.511-19.667 9.25 3.788 9.703 8.952 19.751 17 29.417 10.34 12.425 22.13 20.544 33.25 25.917zM288.167 496.833c4.537-0.556 9.796-2.374 15.75-5.833 11.907-6.918 25.013-20.076 34.417-37.667 4.525-8.464 7.582-17.064 9.583-25.25-1.906-0.724-3.899-1.011-5.75-2-16.412-8.771-25.127-25.73-27.917-44.083-0.943 0.483-1.603 0.431-2.583 1-11.909 6.918-24.764 20.161-34.167 37.75-9.404 17.59-13.362 35.671-12.5 49.417 0.861 13.739 5.629 21.561 11.75 24.833 3.060 1.637 6.879 2.39 11.417 1.833zM677.417 459.333c1.054-0.561 2.634-0.613 3.5-1.333 2.774-2.306 4.785-5.876 6-10.5-1.025 0.532-2.576 0.562-3.417 1.25v0.083c-2.746 2.283-4.851 5.833-6.083 10.5zM645.667 455.5c2.306-12.092 7.52-23.315 17.25-31.417 5.785-4.817 12.503-7.461 19.417-9.25-3.776-9.819-8.882-20.016-16.917-29.667-5.63-6.766-11.915-12.119-18.167-16.833-14.2 15.175-31.191 27.633-50.417 36.167 3.761 8.26 8.843 16.737 15.583 24.833 10.304 12.383 22.111 20.727 33.25 26.167zM381.833 394.667c0.968-0.494 1.659-0.414 2.667-1 10.694-6.214 21.8-18.087 30.833-33.083-15.863-19.298-27.671-41.987-32.75-67.333-8.964 7.475-17.865 17.049-24.833 30.083-4.489 8.397-7.513 16.908-9.583 25 1.963 0.731 4.014 0.983 5.917 2 16.422 8.777 24.994 25.916 27.75 44.333zM534.5 369.417c8.304 0 16.258-1.145 24-2.917 1.818-13.24 7.020-25.622 17.583-34.417 13.203-10.994 30.393-13.317 47.167-10.25 11.151-16.842 17.667-37.065 17.667-58.917 0-59.092-47.324-106.417-106.417-106.417-55.056 0-99.46 41.258-105.333 94.667 1.813 0.697 3.743 0.895 5.5 1.833 18.556 9.917 27.261 30.35 28.583 51.417 0.691 11.027-0.526 22.69-3.5 34.5 19.177 18.859 45.525 30.5 74.75 30.5z" />
<glyph unicode="&#xe927;" glyph-name="relais_3" d="M938.614 290.362c-75.707 0-147.275 26.385-190.866 79.054-43.59 52.671-43.59 129.377 0 182.048 43.59 52.669 115.159 79.054 190.866 79.054v-86.298c-54.328 0-102.982-21.985-124.409-47.875s-21.428-45.92 0-71.811c21.427-25.89 70.080-47.873 124.409-47.873zM85.386 265.48c81.252 0 157.939 28.511 204.724 85.039 46.783 56.53 46.783 138.432 0 194.962-46.785 56.528-123.472 85.039-204.724 85.039v-92.599c58.308 0 110.545-23.55 133.542-51.339 22.997-27.787 22.997-49.378 0-77.164-22.997-27.788-75.234-51.339-133.542-51.339z" />
<glyph unicode="&#xe928;" glyph-name="relais_4" d="M493.357 734.191c-132.373 0-216.54-107.988-251.302-163.869-10.724-17.227-21.933-39.204-30.705-59.111-52.469 6.015-98.601 7.886-126.021 7.886v-73.807c27.817 0 61.7-2.048 102.787-5.757-6.789-26.19-12.159-50.932-13.707-77.419-2.161-36.887 1.613-73.273 15.191-106.399 13.659-33.128 38.752-62.787 74.463-79.472 55.312-25.845 114.746-15.562 151.471 19.54 36.725 35.108 51.337 91.389 36.288 148.024-22.984 86.49-101.41 132.225-169.37 154.016 5.467 11.32 16.203 23.699 22.249 33.416 28.138 45.233 98.822 129.058 188.661 129.058h37.274c89.839 0 160.524-83.824 188.663-129.058 6.047-9.724 16.781-22.104 22.249-33.416-67.961-21.791-146.387-67.526-169.37-154.016-15.046-56.634-0.324-112.916 36.369-148.024 36.727-35.101 96.079-45.385 151.391-19.54 35.709 16.686 60.813 46.344 74.463 79.472 13.659 33.126 17.342 69.513 15.191 106.399-1.613 26.487-6.918 51.229-13.707 77.419 41.089 3.709 74.971 5.757 102.789 5.757v73.807c-27.421 0-73.552-1.854-126.021-7.886-8.773 19.908-19.988 41.884-30.705 59.111-34.764 55.881-118.929 163.869-251.304 163.869h-18.637zM258.227 423.695c51.066-16.061 106.301-40.329 121.917-99.094 9.031-34.010-0.484-60.706-15.852-75.449-15.416-14.739-36.196-21.183-68.881-5.902-18.617 8.708-29.602 21.18-37.52 40.392s-11.288 45.188-9.611 74.133c1.29 21.114 3.967 43.508 9.934 65.928zM765.76 423.695c5.967-22.42 8.789-44.814 10.014-65.928 1.693-28.945-1.693-54.92-9.611-74.133s-18.984-31.688-37.601-40.392c-32.684-15.271-53.461-8.837-68.881 5.902-15.416 14.739-24.882 41.439-15.852 75.449 15.61 58.765 70.849 83.029 121.917 99.094z" />
<glyph unicode="&#xe929;" glyph-name="relais_5" d="M158.892 841.119c-2.080-0.071-4.177-0.161-6.338-0.323-37.103-3.225-49.096-22.644-43.984-42.64-6.031-4.499-9.595-10.53-10.917-17.36-15.658-10.998-16.11-34.956-3.048-56.628 24.655-40.862 79.677-57.647 120.803-90.559l-0.161-0.097-0.806-2.209 97.345-107.672 4.499 4.096c84.805-99.312 169.628-198.571 252.57-306.578l-25.123-25.703 84.813-136.437c3.080-4.951 10.756-6.176 20.649 0l76.702 47.936 8.111 53.838-87.022 74.488-34.563-3.564c-87.621 98.017-185.030 207.382-270.188 313.829l-2.645 3.37 5.031 4.58-92.191 105.833-6.886-4.757c-5.886 8.144-10.901 16.913-15.529 25.939 6.031-2.612 11.949-5.434 17.708-8.515l-0.161-0.161-0.323-2.306 115.357-88.112 3.677 4.838c101.495-82.18 202.989-164.309 304.238-255.376l-20.013-29.851 108.273-118.679c3.919-4.306 11.707-4.128 20.306 3.757l66.673 61.124-1.838 54.412-99.149 57.368-33.336-9.805c-104.032 80.414-219.747 170.184-322.892 259.315l-3.209 2.822 4.096 5.418-109.942 87.242-5.886-5.934c-11.417 10.885-20.98 23.671-30.328 36.596 10.595-2.080 21.094-4.564 31.307-7.853l-0.157-0.161 0.090-2.322 129.208-66.157 2.758 5.418c114.514-62.785 229.013-125.521 344.865-197.095l-14.368-32.937 127.686-97.498c4.628-3.532 12.256-1.967 19.309 7.321l54.715 72.019-11.514 53.214-107.783 38.789-31.055-15.594c-116.692 60.448-246.553 128.168-363.923 197.5l-3.677 2.209 3.080 6.063-123.727 66.262-4.741-6.886c-45.359 29.806-73.054 86.011-136.432 84.182zM166.649 830.121c43.632-1.129 78.906-52.784 122.27-82.549l-7.998-11.643c-16.307 5.289-32.168 8.869-47.262 11.772-20.807 28.335-43.35 54.257-85.629 58.173-12.094 1.129-21.856 0.047-29.485-2.58-0.968 13.143 13.707 22.884 39.018 26.339 3.080 0.323 6.096 0.645 9.095 0.484zM143.426 794.125c2.403 0.048 4.935 0.026 7.547-0.094 26.031-1.129 45.687-19.84 64.531-42.993-10.192 1.822-20.038 3.596-29.206 5.612-11.095 11.836-25.166 21.354-44.484 26.821-5.322 1.451-10.24 2.467-14.804 2.967-1.451 1.613-2.596 3.064-3.644 4.564 5.451 1.871 12.175 2.935 20.048 3.112zM121.962 773.906c0.484 0 0.968-0.048 1.451-0.071 1.887-1.854 3.902-3.644 6.063-5.354 14.255-11.191 31.383-17.569 49.881-22.072 10.175-12.465 18.609-28.214 27.001-44.68-33.584 12.756-63.225 21.947-81.914 41.245-10.788 11.143-16.013 20.79-16.611 28.616 3.886 1.451 8.627 2.274 14.142 2.306zM149.244 769.278c3.209-1.129 6.273-2.612 9.192-4.306-3.177 1.29-6.257 2.741-9.192 4.306zM98.4 764.263c2.177-8.563 6.95-17.395 14.046-25.384 24.287-27.34 63.533-37.515 101.449-51.961 6.87-13.449 14.013-26.848 22.384-38.901l-11.627-8.047c-46.578 37.346-95.658 53.075-117.504 85.995-11.546 17.4-13.675 30.293-8.756 38.304zM197.561 742.567c9.353-1.758 18.938-3.322 28.553-4.951 12.514-16.29 25.131-33.481 39.499-47.712l-9.95-10.046c-11.111 5.967-22.136 10.982-32.903 15.4-7.773 16.355-15.223 32.831-25.192 47.306zM416.16 682.499c113.037-71.414 241.919-138.142 358.813-197.595l-18.775-9.418c-113.093 74.044-228.697 136.426-344.366 198.495zM379.231 603.206c98.506-90.41 213.435-179.032 317.871-258.359l-20.159-5.934c-98.098 93.002-200.739 174.983-303.502 256.664zM332.184 542.053c80.365-106.859 177.208-214.953 265.426-311.996l-20.901-2.145c-79.493 109.333-165.461 208.656-251.602 307.708z" />
<glyph unicode="&#xe92a;" glyph-name="relais_6" d="M191.526 874.666l-106.193-106.193 320.474-320.473-320.474-320.473 106.193-106.193 320.474 320.473 320.474-320.473 106.193 106.193-320.474 320.473 320.474 320.473-106.193 106.193-320.474-320.473z" />
<glyph unicode="&#xe92b;" glyph-name="route" d="M627.501 874.602c-42.472-0.019-76.898-34.444-76.917-76.914v-0.002c0.012-16.509 5.221-31.798 14.078-44.324l-0.162 0.241-58.5-130.667c-38.368-4.71-67.794-37.079-67.833-76.328v-0.004c0.039-40.462 31.301-73.609 70.989-76.65l0.261-0.016 34.583-69.251c-7.61-11.711-12.144-26.032-12.167-41.41v-0.006c0.036-9.463 1.775-18.51 4.926-26.864l-0.175 0.53-129.167-158.665c-3.235 0.549-7.007 0.899-10.848 0.967l-0.069 0.001c-0.015 0-0.033 0-0.050 0-42.486 0-76.931-34.432-76.95-76.914v-0.002c0-0.015 0-0.033 0-0.050 0-42.498 34.452-76.95 76.95-76.95 0.018 0 0.035 0 0.053 0h-0.003c42.484 0.019 76.917 34.463 76.917 76.95 0 0.018 0 0.035 0 0.053v-0.003c-0.047 9.436-1.785 18.452-4.926 26.78l0.175-0.53 129.167 158.665c3.301-0.508 7.114-0.8 10.993-0.806h0.006c42.472 0.019 76.897 34.444 76.917 76.914v0.002c-0.039 40.462-31.301 73.609-70.989 76.65l-0.261 0.016-34.583 69.334c7.596 11.689 12.127 25.978 12.167 41.324v0.011c-0.038 16.518-5.276 31.806-14.161 44.322l0.16-0.238 58.583 130.666c38.369 4.71 67.794 37.080 67.833 76.33v0.004c-0.019 42.484-34.463 76.916-76.95 76.916-0.018 0-0.035 0-0.053 0h0.003z" />
<glyph unicode="&#xe92c;" glyph-name="route_height" d="M779.291 874.584l-159.417-159.334 52.583-52.666 106.833 106.833 106.75-106.833 52.583 52.666zM742.125 688.75v-481.583h74.333v481.583zM672.458 233.666l-52.583-52.916 159.417-159.417 159.333 159.417-52.583 52.916-106.75-106.833zM393.375 874.666c-42.472-0.019-76.898-34.444-76.917-76.914v-0.002c0.012-16.509 5.221-31.798 14.078-44.324l-0.162 0.241-58.5-130.667c-38.368-4.71-67.794-37.079-67.833-76.328v-0.004c0.028-40.382 31.158-73.485 70.73-76.65l0.27-0.017 34.75-69.416c-7.553-11.673-12.053-25.933-12.083-41.242v-0.008c0.036-9.463 1.775-18.51 4.926-26.864l-0.175 0.53-129.083-158.667c-3.292 0.558-7.123 0.908-11.024 0.967l-0.060 0.001c-42.484-0.019-76.917-34.463-76.917-76.95 0-0.018 0-0.035 0-0.053v0.003c0.018-42.473 34.444-76.899 76.915-76.918h0.002c0.015 0 0.033 0 0.050 0 42.487 0 76.931 34.433 76.95 76.916v0.002c-0.018 9.425-1.727 18.446-4.841 26.781l0.174-0.531 129.167 158.749c3.207-0.545 6.949-0.894 10.759-0.966l0.074-0.001c0.015 0 0.033 0 0.050 0 42.498 0 76.95 34.452 76.95 76.95 0 0.017 0 0.034 0 0.051v-0.003c-0.036 40.435-31.254 73.567-70.902 76.65l-0.264 0.017-34.75 69.251c7.639 11.705 12.2 26.024 12.249 41.405v0.013c-0.046 16.556-5.314 31.873-14.242 44.401l0.159-0.235 58.417 130.583c38.476 4.592 68.029 37.003 68.083 76.328v0.006c-0.019 42.484-34.463 76.916-76.95 76.916-0.018 0-0.035 0-0.053 0h0.003z" />
<glyph unicode="&#xe92d;" glyph-name="sector" d="M589.583 680.75l-145.5-194 110.583-147.333-62.083-46.583c-23.89 31.805-35.54 47.425-63.583 84.834v-162.418h244.666v353.417zM318.083 525.582l-232.75-310.333h263v270.001c-5.752 7.676-30.25 40.333-30.25 40.333zM754.333 461.083v-245.834h184.333z" />
<glyph unicode="&#xe92e;" glyph-name="stronger" d="M384 832l-170.667-170.24h128v-299.093h85.333v299.093h128zM682.667 234.24v299.093h-85.333v-299.093h-128l170.667-170.24 170.667 170.24z" />
<glyph unicode="&#xe92f;" glyph-name="stronger-2" d="M695.777 495.86l-183.88-172.305c-18.734-0.032-35.426-8.749-46.268-22.339l-0.092-0.119c-7.982-10.009-12.807-22.842-12.807-36.802 0-18.775 8.728-35.512 22.348-46.374l0.12-0.092c10.022-8.017 22.883-12.865 36.876-12.865 18.743 0 35.454 8.698 46.317 22.278l0.091 0.118c7.977 10.007 12.799 22.837 12.799 36.793 0 4.749-0.558 9.367-1.613 13.793l0.081-0.403zM85.386 264.148c0 152.336 81.301 293.596 213.228 369.764s294.845 76.168 426.772 0c131.927-76.168 213.228-217.428 213.228-369.764h-121.26c0 109.204-58.182 209.965-152.756 264.566-94.574 54.603-210.623 54.603-305.197 0-94.574-54.601-152.756-155.363-152.756-264.566z" />
<glyph unicode="&#xe930;" glyph-name="type_anchor" d="M85.333 788v-52c32.639 0 61.794-13.115 74.667-28.667 8.523-10.303 10.846-19.077 8.083-28.333-0.814-0.378-1.697-0.404-2.5-0.833-11.317-6.049-18.651-16.132-23.25-27.667-14.921-8.689-34.931-15-57-15v-51.917c19.247 0.001 37.733 3.481 55 9.167 2.707-10.812 6.86-21.795 12.583-32.5 11.943-22.341 28.331-39.814 46.583-50.417 12.549-7.295 26.805-11.065 40.5-9.75-4.118-8.47-6.551-18.010-7.167-27.833-1.321-21.069 4.057-44.409 16-66.75 11.944-22.338 28.414-39.814 46.667-50.417 6.298-3.656 13.052-6.206 19.917-8 2.59-12.879 7.117-25.958 14-38.833 11.944-22.338 28.081-40.062 46.333-50.667 1.435-0.833 3.022-1.337 4.5-2.083 3.988-81.75 71.554-147.5 154.25-147.5 85.238 0 154.917 69.68 154.917 154.917 0 29.062-8.522 56.027-22.583 79.333 8.221 6.331 16.055 13.775 23.25 22.417 13.418 16.117 22.413 33.653 26.917 51.083 1.353 0.38 2.745 0.469 4.083 0.917 20.018 6.692 39.625 20.534 55.833 40 13.438 16.141 22.395 33.832 26.833 51.333 1.32 0.374 2.696 0.481 4 0.917 20.017 6.692 39.625 20.533 55.833 40 11.198 13.45 19.241 27.975 24.25 42.583 16.094-4.806 33.056-7.916 50.75-7.917v51.917c-18.669 0-35.762 4.586-49.75 11.167-3.024 7.627-7.283 14.728-13.917 20.25-5.497 4.578-11.847 7.219-18.417 9.083-4.42 10.407-2.031 19.912 7.417 31.333 12.873 15.552 42.027 28.667 74.667 28.667v52c-45.483 0-88.479-15.939-114.667-47.583-16.656-20.126-22.616-46.061-18.083-70.417-16.164-7.603-31.62-19.695-44.917-35.667-13.419-16.119-22.414-33.654-26.917-51.083-1.35-0.38-2.752-0.47-4.083-0.917-20.018-6.692-39.625-20.531-55.833-40-13.418-16.117-22.304-33.856-26.75-51.333-1.347-0.38-2.753-0.472-4.083-0.917-20.017-6.708-39.626-20.533-55.833-40-9.364-11.247-16.429-23.238-21.5-35.417-10.169 2.119-20.642 3.25-31.417 3.25-36.031 0-68.858-13.011-95.25-33.833-10.87 16.134-24.144 29.063-38.667 37.5-6.32 3.674-13.052 6.083-19.917 7.833-2.582 12.931-7.088 26.071-14 39-11.943 22.339-28.081 39.979-46.333 50.583-12.58 7.313-26.903 10.974-40.667 9.5 4.086 8.536 6.468 18.091 7.083 27.917 1.322 21.065-4.14 44.494-16.083 66.833s-28.331 39.815-46.583 50.417c-1.68 0.977-3.517 1.561-5.25 2.417 2.546 22.531-3.557 45.875-18.833 64.333-26.188 31.644-69.184 47.583-114.667 47.583zM209.083 644.75c11.59-7.085 24.155-19.654 33.25-36.667 9.405-17.59 13.112-35.838 12.25-49.583-0.863-13.739-5.629-21.561-11.75-24.833-6.121-3.274-15.259-2.835-27.167 4.083s-25.013 20.076-34.417 37.667c-5.726 10.71-8.673 21.31-10.417 31.333 10.918 6.781 21.049 14.525 29.167 24.333 3.553 4.293 6.494 8.916 9.083 13.667zM818.333 639.25c1.787-2.756 3.448-5.586 5.583-8.167 9.125-11.026 20.819-19.384 33.417-26.583-3.52-11.238-9.081-23.237-18.667-34.75-10.336-12.421-22.134-20.627-33.25-26-2.209 12.004-7.255 23.122-16.917 31.167-5.858 4.878-12.665 7.563-19.75 9.333 3.715 9.78 8.768 19.894 16.833 29.583 10.125 12.154 21.765 20.048 32.75 25.417zM764.167 551.333c1.083-0.564 2.711-0.605 3.583-1.333 2.733-2.272 4.743-5.751 5.917-10.333-1.087 0.55-2.7 0.61-3.583 1.333-2.733 2.272-4.743 5.751-5.917 10.333zM732.25 547.583c2.259-12.128 7.377-23.418 17.083-31.5 5.843-4.866 12.642-7.511 19.667-9.25-3.787-9.709-8.946-19.743-17-29.417-10.343-12.417-22.126-20.624-33.25-26-2.253 12.146-7.363 23.408-17.083 31.5-5.843 4.866-12.642 7.511-19.667 9.25 3.788 9.703 8.952 19.751 17 29.417 10.344 12.43 22.127 20.628 33.25 26zM288.167 496.833c4.537-0.556 9.796-2.374 15.75-5.833 11.907-6.918 25.013-20.076 34.417-37.667 4.525-8.464 7.582-17.064 9.583-25.25-1.906-0.724-3.899-1.011-5.75-2-16.387-8.758-25.113-25.678-27.917-44-0.935 0.479-1.612 0.352-2.583 0.917-11.909 6.918-24.764 20.161-34.167 37.75-9.404 17.59-13.362 35.671-12.5 49.417 0.861 13.739 5.629 21.561 11.75 24.833 3.060 1.637 6.879 2.39 11.417 1.833zM677.417 459.333c1.054-0.561 2.634-0.613 3.5-1.333 2.774-2.306 4.785-5.876 6-10.5-1.025 0.532-2.576 0.562-3.417 1.25v0.083c-2.746 2.283-4.851 5.833-6.083 10.5zM645.667 455.5c2.306-12.092 7.52-23.315 17.25-31.417 5.785-4.817 12.503-7.461 19.417-9.25-3.776-9.819-8.882-19.933-16.917-29.583-5.657-6.798-11.968-12.19-18.25-16.917-14.193 15.158-31.124 27.64-50.333 36.167 3.761 8.26 8.843 16.737 15.583 24.833 10.305 12.37 22.111 20.723 33.25 26.167zM381.833 394.667c0.968-0.494 1.659-0.414 2.667-1 10.697-6.215 21.799-18.080 30.833-33.083-15.863-19.298-27.671-41.987-32.75-67.333-8.964 7.475-17.865 17.049-24.833 30.083-4.489 8.397-7.513 16.908-9.583 25 1.963 0.731 4.014 0.983 5.917 2 16.422 8.777 24.993 25.917 27.75 44.333zM534.5 369.417c8.304 0 16.258-1.145 24-2.917 1.818-13.24 7.020-25.622 17.583-34.417 13.203-10.994 30.393-13.317 47.167-10.25 11.151-16.842 17.666-37.066 17.667-58.917 0-59.092-47.324-106.417-106.417-106.417-55.056 0-99.46 41.258-105.333 94.667 1.813 0.697 3.743 0.895 5.5 1.833 18.556 9.917 27.261 30.35 28.583 51.417 0.691 11.027-0.526 22.69-3.5 34.5 19.177 18.86 45.525 30.5 74.75 30.5z" />
<glyph unicode="&#xe931;" glyph-name="type_depart" d="M512.174 874.666l-283.145-282.867 82.639-82.36 142.025 142.025v-442.782h116.614v443.132l142.373-142.375 82.36 82.36zM155.58 137.597v-116.264h712.84v116.264z" />
<glyph unicode="&#xe932;" glyph-name="type_grimpe" d="M852.564-158.777c-2.764 1.382-13.891 11.634-24.728 22.692-20.826 21.286-26.571 25.751-43.731 33.906-5.874 2.811-12.647 6.036-15.066 7.165-6.404 3.041-8.247 9.353-5.69 19.351 1.152 4.101 1.843 9.1 1.843 11.081 0 2.073-4.723 15.366-10.505 29.771-5.782 14.398-12.532 31.542-14.997 38.115-2.465 6.566-7.648 20.157-11.542 30.188-3.87 10.044-9.031 23.894-11.472 30.821-2.419 6.911-6.289 17.393-8.57 23.267-8.777 22.576-12.002 31.37-12.002 32.766 0 0.691-0.921 3.225-1.843 5.414-0.921 2.073-5.483 14.444-9.952 27.234-4.446 12.809-9.63 27.232-11.496 32.075-1.843 4.838-4.999 13.914-6.934 20.134-1.843 6.243-5.598 17.001-8.132 23.903-2.534 6.911-5.46 15.965-6.52 20.134-4.031 15.919-12.21 41.877-15.873 50.313-4.469 10.298-12.002 22-16.425 25.484-2.649 2.073-5.828 2.58-21.701 3.133-22.185 0.691-28.253 2.603-53.573 15.757-23.037 11.979-76.246 44.39-96.887 59.007-10.436 7.395-39.073 22.715-50.295 26.926-8.938 3.34-11.657 2.327-16.449-6.036-15.527-27.087-31.766-45.519-60.783-68.957-32.323-26.11-47.475-40.26-55.471-51.792-4.031-5.805-4.193-6.543-4.262-17.992 0-13.638-1.382-17.623-7.441-20.826-5.368-2.88-14.26-2.073-23.811 2.373-5.229 2.396-9.376 3.363-14.559 3.363-10.436 0-41.506-3.433-51.039-5.667-11.795-2.741-16.31-2.488-19.973 1.152-2.35 2.373-3.087 4.4-3.087 8.8 0 4.93 0.691 6.358 4.769 10.505 7.533 7.533 34.3 21.724 56.77 30.086 6.566 2.442 13.016 5.345 14.329 6.496 2.995 2.557 19.651 28.165 26.838 41.294 2.949 5.391 9.031 14.629 13.477 20.503 9.054 11.91 24.68 33.367 29.499 40.467 1.613 2.58 6.819 9.238 11.311 14.882 14.467 18.176 31.925 40.608 39.557 50.813 12.071 16.126 28.308 26.792 46.57 30.526 8.501 1.843 11.357 1.843 19.397 0.461 7.579-1.152 43.36-12.187 62.177-19.006 18.361-6.658 49.855-15.274 56.397-15.458 10.666-0.23 10.827 0.23 9.514 28.727-3.041 65.087-8.731 108.553-19.052 145.91-4.7 17.001-6.197 20.042-10.666 21.724-14.675 5.598-30.202 10.205-38.686 11.496-9.422 1.382-42.628 7.994-60.924 12.071-4.492 0.921-10.505 1.843-13.338 1.843-7.694 0-15.112 3.133-22.922 9.583-8.639 7.118-9.307 8.086-14.559 20.941-7.648 18.752-31.107 59.228-50.852 87.762-22.807 32.955-25.223 36.938-28.356 46.867-4.193 13.269-4.216 24.385 0 30.831 9.261 14.536 20.687 21.77 37.233 23.537 10.689 1.152 12.302-0.461 13.96-14.030 0.921-6.819 1.843-10.597 3.617-12.302 2.396-2.442 2.465-2.396 7.441 1.613 10.39 8.362 26.444 7.81 26.444-0.921 0-5.045-10.712-25.914-14.629-28.476-3.018-2.073-3.202-2.695-2.741-9.906 0.23-5.183 1.613-9.883 3.778-14.076 1.843-3.456 4.815-9.952 6.681-14.421 3.916-9.376 17.117-28.868 26.361-38.951 3.479-3.801 7.948-9.031 9.906-11.634 2.327-3.041 5.183-5.114 8.132-5.921 15.896-4.17 42.004-8.938 55.439-10.113 8.639-0.691 30.036-2.764 47.556-4.469 41.78-4.078 48.311-4.078 52.363 0 4.008 4.008 3.893 6.45-0.921 18.084-6.404 15.827-11.173 30.619-11.173 34.733 0 2.073 0.691 5.851 1.382 8.247 0.691 2.419 1.843 9.1 2.534 14.882 1.843 15.642 3.801 18.338 23.793 32.57 17.716 12.624 24.675 15.619 39.354 17.094 14.836 1.382 24.101 0 30.192-4.584 2.073-1.613 7.418-4.746 11.657-6.911 8.455-4.262 12.094-8.823 14.053-17.508 0.691-2.88 3.064-8.524 5.345-12.555 6.105-10.666 5.921-19.259-0.921-45.125-0.461-1.613 0.461-3.87 2.465-6.289l3.156-3.663 4.561 4.4c2.511 2.419 8.708 10.62 13.753 18.245 5.045 7.602 11.081 16.172 13.431 18.96 2.327 2.834 8.478 11.173 13.661 18.568s16.195 23.095 24.493 34.881c40.619 57.77 52.301 75.472 56.747 86 2.073 5.068 3.525 11.542 4.331 20.134 1.613 18.361 3.409 26.79 6.911 33.678 4.746 9.399 6.957 11.035 14.675 11.035 8.316 0 16.633 4.861 22.484 13.2 6.105 8.662 9.422 8.086 20.204-3.433 14.214-15.158 18.568-27.23 14.26-39.486-2.073-6.082-12.394-23.115-15.734-26.124-1.382-1.152-4.354-3.202-6.635-4.331-5.183-2.626-20.181-19.881-30.126-34.696-9.63-14.329-23.86-43.1-33.816-68.37-11.91-30.206-35.694-78.234-46.003-92.867-19.144-27.163-27.962-46.938-33.772-75.663-3.087-15.251-3.133-16.287-1.843-38.493 0.691-12.555 1.613-24.793 2.073-27.216 0.921-6.842 6.473-31.496 11.311-51.165 2.419-9.814 5.759-27.357 7.418-38.993 3.479-24.24 4.584-27.882 16.61-54.497 13.546-29.983 21.586-48.714 25.663-59.749 2.073-5.552 4.239-10.597 4.884-11.265 0.691-0.691 1.152-5.805 1.152-11.403 0-9.008-0.461-10.528-2.834-12.809-6.911-6.312-12.21-6.865-22.023-2.327-4.838 2.327-7.395 2.811-9.468 2.073-5.667-2.073-6.059-3.755-4.677-19.121 0.691-7.856 2.442-31.271 3.87-52.025 1.382-20.756 3.409-43.112 4.423-49.686 3.386-21.931 13.362-70.203 20.941-101.26 1.382-5.529 3.225-14.306 4.17-19.512 0.921-5.183 5.736-28.962 10.643-52.833 4.907-23.864 9.998-49.91 11.311-57.878 1.382-7.971 3.202-17.877 4.193-22 0.921-4.147 3.064-13.753 4.607-21.355 6.082-29.907 14.076-60.403 17.6-67.213 2.073-3.847 5.759-9.653 8.386-12.901 7.81-9.63 26.767-31.298 34.618-39.566 5.529-5.828 8.086-9.814 10.413-16.218 3.824-10.574 3.893-15.366 0.23-20.826-6.566-9.768-17.485-12.624-27.916-7.28z" />
<glyph unicode="&#xe933;" glyph-name="inclinaison" d="M170.578 874.668v-824.776c0-0.032 0-0.070 0-0.107 0-15.713 12.738-28.451 28.451-28.451 7.939 0 15.119 3.252 20.28 8.497l634.113 634.192-40.115 40.117-585.778-585.697v756.226zM280.291 733.057l-8.547-71.853c114.978-13.465 220.229-58.484 306.824-126.147l44.385 56.71c-96.82 75.739-214.405 126.16-342.671 141.289z" />
<glyph unicode="&#xe934;" glyph-name="nb_point" d="M681.001 874.655c-18.506 0-33.42-10.627-42.337-22.842-8.918-12.207-13.489-26.227-13.489-40.367v-39.975l5.415-15.352c0.161-1.129 0.226-2.451 0.693-3.741l3.84-10.933-9.156-3.451 30.522-82.212 7.384 2.661 15.262-43.913c0.564-1.629 1.687-2.887 2.856-4.031l14.571-41.452c6.894-20.448 25.878-36.851 50.706-41.549v-158.32c-12.72-2.87-23.833-10.272-31.506-20.085-9.869-12.611-14.965-28.737-14.965-45.98v-205.087c0-14.594 1.651-31.888 10.83-47.851 9.184-15.965 28.479-28.848 52.38-28.848h118.74c18.506 0 33.42 10.627 42.337 22.842 8.918 12.207 13.588 26.227 13.588 40.367v40.073l-5.415 15.368c-0.161 1.129-0.323 2.354-0.79 3.644l-3.741 10.933 9.156 3.548-30.522 82.114-7.384-2.661-15.26 44.011c-0.564 1.629-1.687 2.79-2.856 3.935l-14.571 41.45v0.103c-6.983 20.711-26.381 37.117-51.69 41.547v158.122c13.114 2.693 24.63 10.127 32.492 20.183 9.869 12.611 14.965 28.835 14.965 46.078v205.087c0 14.594-1.75 31.888-10.929 47.851-9.182 15.965-28.479 28.749-52.38 28.749zM681.001 836.356h118.74c12.669 0 15.394-3.209 19.101-9.643 3.707-6.45 5.809-17.824 5.809-28.651v-205.087c0-9.53-2.988-17.489-6.794-22.351-3.801-4.87-7.545-6.789-12.602-6.789h-44.601c-17.172 0-24.549 7.966-27.765 17.524l-0.102 0.098-13.981 39.778c0.323 2.193 0.226 4.515-0.693 7.095l-15.749 44.009 8.074 2.951-30.522 83.394-7.286-2.758-4.135 11.514c-0.564 1.613-1.484 2.935-2.658 4.031l-2.364 6.596v33.378c0 4.531 2.435 12.562 6.202 17.721s7.129 7.192 11.322 7.192zM758.585 332.153h44.601c17.172 0 24.549-7.853 27.765-17.426l0.102-0.161 13.981-39.776c-0.323-2.193-0.226-4.515 0.693-7.095l15.753-44.011-8.074-2.951 30.522-83.394 7.286 2.758 4.135-11.514c0.564-1.613 1.484-2.935 2.658-4.031l2.362-6.596v-33.378c0-4.531-2.435-12.562-6.202-17.722s-7.129-7.192-11.322-7.192h-118.744c-12.669 0-15.394 3.209-19.101 9.643-3.707 6.45-5.809 17.922-5.809 28.749v205.089c0 9.53 2.988 17.489 6.794 22.351 3.801 4.87 7.545 6.692 12.602 6.692zM411.078 874.655c-18.506 0-33.42-10.627-42.337-22.842-8.918-12.207-13.489-26.227-13.489-40.367v-39.975l5.415-15.352c0.161-1.129 0.226-2.451 0.693-3.741l3.84-10.933-9.156-3.451 30.522-82.212 7.384 2.661 15.262-43.913c0.564-1.629 1.687-2.887 2.856-4.031l14.571-41.452c6.894-20.448 25.878-36.851 50.706-41.549v-158.32c-12.72-2.87-23.833-10.272-31.506-20.085-9.869-12.611-14.965-28.737-14.965-45.98v-205.087c0-14.594 1.651-31.888 10.83-47.851 9.182-15.965 28.479-28.848 52.379-28.848h118.74c18.506 0 33.42 10.627 42.337 22.842 8.918 12.207 13.588 26.227 13.588 40.367v40.073l-5.415 15.368c-0.161 1.129-0.323 2.354-0.79 3.644l-3.741 10.933 9.156 3.548-30.522 82.114-7.384-2.661-15.262 44.011c-0.564 1.629-1.687 2.79-2.856 3.935l-14.571 41.45v0.103c-6.983 20.711-26.38 37.117-51.69 41.547v158.122c13.114 2.693 24.63 10.127 32.491 20.183 9.869 12.611 14.965 28.835 14.965 46.078v205.087c0 14.594-1.75 31.888-10.929 47.851-9.184 15.965-28.479 28.749-52.379 28.749zM411.078 836.356h118.74c12.669 0 15.394-3.209 19.101-9.643 3.707-6.45 5.809-17.824 5.809-28.651v-205.087c0-9.53-2.988-17.489-6.794-22.351-3.801-4.87-7.545-6.789-12.602-6.789h-44.601c-17.172 0-24.549 7.966-27.765 17.524l-0.101 0.098-13.981 39.778c0.323 2.193 0.226 4.515-0.693 7.095l-15.75 44.009 8.074 2.951-30.522 83.394-7.286-2.758-4.135 11.514c-0.564 1.613-1.484 2.935-2.658 4.031l-2.362 6.596v33.378c0 4.531 2.435 12.562 6.202 17.721s7.129 7.192 11.322 7.192zM488.662 332.153h44.601c17.172 0 24.549-7.853 27.765-17.426l0.102-0.161 13.981-39.776c-0.323-2.193-0.226-4.515 0.693-7.095l15.753-44.011-8.074-2.951 30.522-83.394 7.286 2.758 4.135-11.514c0.564-1.613 1.484-2.935 2.658-4.031l2.362-6.596v-33.378c0-4.531-2.435-12.562-6.202-17.722s-7.129-7.192-11.322-7.192h-118.744c-12.669 0-15.394 3.209-19.101 9.643-3.707 6.45-5.809 17.922-5.809 28.749v205.089c0 9.53 2.988 17.489 6.794 22.351 3.801 4.87 7.545 6.692 12.602 6.692zM141.156 874.655c-18.506 0-33.42-10.627-42.337-22.842-8.918-12.207-13.489-26.227-13.489-40.367v-39.975l5.415-15.352c0.161-1.129 0.226-2.451 0.693-3.741l3.84-10.933-9.156-3.451 30.522-82.212 7.384 2.661 15.262-43.913c0.564-1.629 1.687-2.887 2.856-4.031l14.571-41.452c6.894-20.448 25.878-36.851 50.706-41.549v-158.32c-12.72-2.87-23.833-10.272-31.506-20.085-9.869-12.611-14.965-28.737-14.965-45.98v-205.087c0-14.594 1.651-31.888 10.83-47.851 9.182-15.965 28.479-28.848 52.379-28.848h118.74c18.506 0 33.42 10.627 42.337 22.842 8.918 12.207 13.588 26.227 13.588 40.367v40.073l-5.415 15.368c-0.161 1.129-0.323 2.354-0.79 3.644l-3.741 10.933 9.156 3.548-30.522 82.114-7.384-2.661-15.262 44.011c-0.564 1.629-1.687 2.79-2.856 3.935l-14.571 41.452v0.103c-6.983 20.709-26.381 37.116-51.69 41.545v158.122c13.115 2.693 24.63 10.127 32.491 20.183 9.869 12.611 14.965 28.835 14.965 46.078v205.087c0 14.594-1.75 31.888-10.929 47.851-9.182 15.965-28.479 28.749-52.379 28.749zM141.156 836.356h118.74c12.669 0 15.394-3.209 19.101-9.643 3.707-6.45 5.809-17.824 5.809-28.651v-205.087c0-9.53-2.988-17.489-6.794-22.351-3.801-4.87-7.545-6.789-12.602-6.789h-44.601c-17.172 0-24.55 7.966-27.765 17.524l-0.101 0.098-13.981 39.778c0.323 2.193 0.226 4.515-0.693 7.095l-15.75 44.009 8.074 2.951-30.522 83.394-7.286-2.758-4.135 11.514c-0.564 1.613-1.484 2.935-2.658 4.031l-2.362 6.596v33.378c0 4.531 2.435 12.562 6.202 17.721s7.129 7.192 11.322 7.192zM218.741 332.153h44.601c17.172 0 24.55-7.853 27.765-17.426l0.101-0.161 13.981-39.776c-0.323-2.193-0.226-4.515 0.693-7.095l15.753-44.011-8.074-2.951 30.522-83.394 7.286 2.758 4.135-11.514c0.564-1.613 1.484-2.935 2.658-4.031l2.362-6.596v-33.378c0-4.531-2.435-12.562-6.202-17.722s-7.129-7.192-11.322-7.192h-118.742c-12.669 0-15.394 3.209-19.101 9.643-3.707 6.45-5.809 17.924-5.809 28.751v205.087c0 9.53 2.988 17.489 6.794 22.351 3.801 4.87 7.545 6.692 12.602 6.692z" />
<glyph unicode="&#xe935;" glyph-name="grade" d="M676.091 874.667c0.013-17.428-0.003-34.843 0-52.256-17.419 0.003-34.803-0.012-52.256 0v-33.42c17.459-0.012 34.839 0.003 52.256 0-0.003-17.419 0.013-34.803 0-52.256h33.42c0.013 17.459-0.003 34.839 0 52.256 17.411 0.003 34.822-0.012 52.256 0v33.42c-17.428-0.012-34.842 0.003-52.256 0-0.003 17.411 0.013 34.822 0 52.256zM868.696 819.327l-189.604-189.688 23.919-23.586 189.354 189.604zM800.022 646.058v-33.42c46.084-0.034 92.247-0.034 138.265 0v33.42c-46.002-0.034-92.198-0.034-138.265 0zM630.152 48.973q12.128-9.435 34.354-9.435 21.555 0 38.058 20.544 16.502 20.882 22.565 45.467l31.322 122.257q7.403 33.343 7.403 45.467 0 17.176-9.773 29.975-9.435 12.805-26.606 12.805-21.892 0-41.089-13.805-19.198-13.467-32.333-34.691-13.128-20.881-18.523-42.435-1.289-4.387-5.386-4.387h-8.419q-5.387 0-5.387 6.403v2.016q6.741 25.596 22.903 49.845 16.165 24.587 39.405 39.742 23.576 15.16 50.182 15.16 25.259 0 45.468-13.467 20.545-13.467 28.965-36.71 11.789 21.218 29.973 35.7 18.525 14.483 40.416 14.483 14.821 0 30.311-5.387 15.499-5.048 25.261-15.837 9.773-10.773 9.773-26.943 0-17.513-11.451-30.312-11.112-12.467-28.628-12.467-11.112 0-18.525 7.064-7.403 7.080-7.403 17.85 0 14.483 9.773 25.259 10.112 11.112 23.913 13.128-12.467 9.773-34.352 9.773-22.229 0-38.732-20.545-16.166-20.545-22.902-45.804l-30.312-121.92q-7.403-27.617-7.403-45.467 0-17.513 9.773-30.312 10.112-12.467 26.606-12.467 32.333 0 57.592 28.29 25.596 28.628 33.68 62.645 1.289 4.048 5.386 4.048h8.419q2.693 0 4.37-2.016 1.677-1.694 1.677-4.048 0-0.645-0.644-2.016-9.773-41.090-41.089-73.085-31.322-31.996-70.727-31.996-25.259 0-45.805 13.467-20.207 13.805-28.627 37.047-10.774-20.206-29.975-35.363-18.86-15.16-40.415-15.16-14.821 0-30.649 5.387-15.499 5.048-25.259 15.821-9.773 10.773-9.773 27.28 0 16.166 11.112 29.301 11.451 13.467 28.291 13.467 11.451 0 19.197-7.080 7.741-6.741 7.741-17.85 0-14.483-9.773-25.259-9.435-10.773-23.913-13.467zM85.006 29.102v24.25q70.052 0 98.007 39.068l114.51 170.417-126.973 193.32q-10.773 12.805-29.301 16.166-18.187 3.709-46.477 3.709v24.25h192.983v-24.25q-12.467 0-28.628-5.048-16.166-4.709-16.166-13.467 0-1.29 0.644-2.693l90.261-137.412 79.484 118.552q2.693 6.064 2.693 9.773 0 14.144-14.144 22.229-13.805 8.080-29.301 8.080v24.25h168.396v-24.25q-70.052 0-98.007-39.405l-94.639-141.116 145.832-222.284q11.789-13.144 29.638-16.504 18.187-3.371 46.142-3.371v-24.25h-193.321v24.25q11.112 0 27.954 4.709 17.176 5.048 17.176 13.805 0 2.016-0.969 2.693l-108.785 166.377-99.354-147.853q-2.014-4.048-2.014-9.435 0-14.144 13.805-22.227 13.805-8.080 28.964-8.080v-24.25z" />
</font>
</defs>
</svg>
