<?xml version="1.0" encoding="UTF-8" standalone="no"?>
<svg
   xmlns:dc="http://purl.org/dc/elements/1.1/"
   xmlns:cc="http://creativecommons.org/ns#"
   xmlns:rdf="http://www.w3.org/1999/02/22-rdf-syntax-ns#"
   xmlns:svg="http://www.w3.org/2000/svg"
   xmlns="http://www.w3.org/2000/svg"
   xmlns:xlink="http://www.w3.org/1999/xlink"
   id="svg13551"
   version="1.1"
   viewBox="0 0 100 100"
   height="100mm"
   width="100mm">
  <defs
     id="defs13545">
    <linearGradient
       gradientUnits="userSpaceOnUse"
       y2="3799.1453"
       x2="1985.4464"
       y1="3802.9976"
       x1="1816.9026"
       id="linearGradient5208"
       xlink:href="#linearGradient5202" />
    <linearGradient
       id="linearGradient5202">
      <stop
         id="stop5204"
         offset="0"
         style="stop-color:#b4b4b4;stop-opacity:1;" />
      <stop
         style="stop-color:#e1e1e2;stop-opacity:1"
         offset="0.16270681"
         id="stop5210" />
      <stop
         id="stop5212"
         offset="0.35598543"
         style="stop-color:#959595;stop-opacity:1" />
      <stop
         style="stop-color:#b6b6b6;stop-opacity:1"
         offset="0.720599"
         id="stop5214" />
      <stop
         id="stop5206"
         offset="1"
         style="stop-color:#cccccc;stop-opacity:1" />
    </linearGradient>
    <linearGradient
       gradientUnits="userSpaceOnUse"
       y2="3815.9995"
       x2="1946.9221"
       y1="3824.186"
       x1="1921.8812"
       id="linearGradient5222"
       xlink:href="#linearGradient5216" />
    <linearGradient
       id="linearGradient5216">
      <stop
         id="stop5218"
         offset="0"
         style="stop-color:#d4d4d4;stop-opacity:1;" />
      <stop
         id="stop5220"
         offset="1"
         style="stop-color:#a9a9a9;stop-opacity:1" />
    </linearGradient>
  </defs>
  <metadata
     id="metadata13548">
    <rdf:RDF>
      <cc:Work
         rdf:about="">
        <dc:format>image/svg+xml</dc:format>
        <dc:type
           rdf:resource="http://purl.org/dc/dcmitype/StillImage" />
        <dc:title></dc:title>
      </cc:Work>
    </rdf:RDF>
  </metadata>
  <g
     transform="translate(-107.11924,-16.553385)"
     id="layer1">
    <g
       transform="matrix(0.17658257,0,0,0.17658257,-175.29997,-605.15977)"
       id="g5240">
      <circle
         style="opacity:1;fill:#8e49f3;fill-opacity:1;stroke:none;stroke-width:7;stroke-linecap:round;stroke-linejoin:round;stroke-miterlimit:4;stroke-dasharray:none;stroke-dashoffset:0;stroke-opacity:1"
         id="path5165"
         cx="1882.5143"
         cy="3803.9607"
         r="283.15366" />
      <path
         style="fill:#8031f1;fill-opacity:1;fill-rule:evenodd;stroke:none;stroke-width:1px;stroke-linecap:butt;stroke-linejoin:miter;stroke-opacity:1"
         d="m 1845.9141,3621.8691 -63.3926,32.8086 31.4316,296.2969 129.2012,129.2109 a 283.15366,283.15366 0 0 0 217.459,-223.8691 l -193.1875,-193.1875 z"
         id="path5235" />
      <g
         id="g5224"
         transform="matrix(1.2064943,0,0,1.2064943,-401.85576,-771.4534)">
        <path
           id="path5181"
           d="m 1863.0586,3641.3945 c -11.5442,0.2531 -22.5337,2.1394 -32.4024,6.8067 -13.1582,6.223 -24.134,20.5667 -23.6035,37.1406 3.021,94.3718 4.6779,107.122 9.92,183.2363 1.889,27.4291 15.9574,48.2846 36.4472,56.5762 20.1835,8.1677 43.56,6.105 68.4278,-0.2852 10.1214,-1.8306 17.7015,-7.9807 22.9921,-14.3847 5.3008,-6.4163 8.8574,-13.4636 11.5918,-20.0703 5.469,-13.2135 7.6075,-25.4746 7.6075,-25.4746 l -29.92,-5.379 c 0,0 -1.7905,9.5959 -5.7773,19.2286 -1.9934,4.8163 -4.5473,9.4407 -6.9375,12.3339 -2.3902,2.8932 -4.066,3.6743 -4.9688,3.836 l -0.5898,0.1074 -0.5801,0.1504 c -21.9695,5.7511 -40.0704,5.9546 -50.4414,1.7578 -10.3709,-4.1968 -16.1621,-10.7204 -17.5234,-30.4863 -5.2564,-76.3217 -6.8528,-88.0128 -9.8653,-182.1192 -0.1744,-5.4501 0.4811,-5.9739 6.2188,-8.6875 5.7377,-2.7136 16.7478,-4.443 29.3008,-3.6933 25.1059,1.4993 57.9556,11.3956 68.5273,24.3555 20.4014,25.0101 19.6898,41.5882 19.6898,41.5882 0,0 15.6379,16.4014 20.6772,23.5607 4.1992,5.9657 7.4307,2.3674 7.4839,-15.9192 0.085,-29.1383 -7.4852,-53.303 -27.2083,-71.5462 -21.4124,-19.8057 -55.7539,-30.4973 -87.3574,-32.3847 -3.9505,-0.2359 -7.8609,-0.3324 -11.709,-0.2481 z"
           style="color:#000000;font-style:normal;font-variant:normal;font-weight:normal;font-stretch:normal;font-size:medium;line-height:normal;font-family:sans-serif;text-indent:0;text-align:start;text-decoration:none;text-decoration-line:none;text-decoration-style:solid;text-decoration-color:#000000;letter-spacing:normal;word-spacing:normal;text-transform:none;writing-mode:lr-tb;direction:ltr;baseline-shift:baseline;text-anchor:start;white-space:normal;clip-rule:nonzero;display:inline;overflow:visible;visibility:visible;opacity:1;isolation:auto;mix-blend-mode:normal;color-interpolation:sRGB;color-interpolation-filters:linearRGB;solid-color:#000000;solid-opacity:1;fill:url(#linearGradient5208);fill-opacity:1;fill-rule:evenodd;stroke:none;stroke-width:30.39999962;stroke-linecap:butt;stroke-linejoin:miter;stroke-miterlimit:4;stroke-dasharray:none;stroke-dashoffset:0;stroke-opacity:1;color-rendering:auto;image-rendering:auto;shape-rendering:auto;text-rendering:auto;enable-background:accumulate" />
        <path
           id="path5195"
           d="m 1934.1191,3859.5605 c 0,0 -1.4743,7.8129 -4.6855,16.4122 l 29.6934,7.2226 c 3.4635,-10.1241 4.9121,-18.2558 4.9121,-18.2558 z"
           style="color:#000000;font-style:normal;font-variant:normal;font-weight:normal;font-stretch:normal;font-size:medium;line-height:normal;font-family:sans-serif;text-indent:0;text-align:start;text-decoration:none;text-decoration-line:none;text-decoration-style:solid;text-decoration-color:#000000;letter-spacing:normal;word-spacing:normal;text-transform:none;writing-mode:lr-tb;direction:ltr;baseline-shift:baseline;text-anchor:start;white-space:normal;clip-rule:nonzero;display:inline;overflow:visible;visibility:visible;opacity:1;isolation:auto;mix-blend-mode:normal;color-interpolation:sRGB;color-interpolation-filters:linearRGB;solid-color:#000000;solid-opacity:1;fill:#949494;fill-opacity:1;fill-rule:evenodd;stroke:none;stroke-width:30.39999962;stroke-linecap:butt;stroke-linejoin:miter;stroke-miterlimit:4;stroke-dasharray:none;stroke-dashoffset:0;stroke-opacity:1;color-rendering:auto;image-rendering:auto;shape-rendering:auto;text-rendering:auto;enable-background:accumulate" />
        <path
           id="path5183"
           d="m 1922.1778,3757.9269 -26.7617,10.3671 c 16.1819,34.2091 31.5668,68.8964 41.414,106.9063 l 26.7618,-10.3672 c -10.635,-38.8051 -25.7123,-73.1679 -41.4141,-106.9062 z"
           style="color:#000000;font-style:normal;font-variant:normal;font-weight:normal;font-stretch:normal;font-size:medium;line-height:normal;font-family:sans-serif;text-indent:0;text-align:start;text-decoration:none;text-decoration-line:none;text-decoration-style:solid;text-decoration-color:#000000;letter-spacing:normal;word-spacing:normal;text-transform:none;writing-mode:lr-tb;direction:ltr;baseline-shift:baseline;text-anchor:start;white-space:normal;clip-rule:nonzero;display:inline;overflow:visible;visibility:visible;opacity:1;isolation:auto;mix-blend-mode:normal;color-interpolation:sRGB;color-interpolation-filters:linearRGB;solid-color:#000000;solid-opacity:1;fill:url(#linearGradient5222);fill-opacity:1;fill-rule:evenodd;stroke:none;stroke-width:28.70000076;stroke-linecap:butt;stroke-linejoin:miter;stroke-miterlimit:4;stroke-dasharray:none;stroke-dashoffset:0;stroke-opacity:1;color-rendering:auto;image-rendering:auto;shape-rendering:auto;text-rendering:auto;enable-background:accumulate" />
        <path
           id="path5189"
           d="m 1987.7109,3723.5586 -28.9668,2.2949 c 2.5949,7.666 2.4278,12.0781 2.4278,12.0781 0,0 15.6384,16.4013 20.6777,23.5606 4.1992,5.9657 7.4312,2.3686 7.4844,-15.918 0.022,-7.6921 -0.4958,-15.0341 -1.6231,-22.0156 z"
           style="color:#000000;font-style:normal;font-variant:normal;font-weight:normal;font-stretch:normal;font-size:medium;line-height:normal;font-family:sans-serif;text-indent:0;text-align:start;text-decoration:none;text-decoration-line:none;text-decoration-style:solid;text-decoration-color:#000000;letter-spacing:normal;word-spacing:normal;text-transform:none;writing-mode:lr-tb;direction:ltr;baseline-shift:baseline;text-anchor:start;white-space:normal;clip-rule:nonzero;display:inline;overflow:visible;visibility:visible;opacity:1;isolation:auto;mix-blend-mode:normal;color-interpolation:sRGB;color-interpolation-filters:linearRGB;solid-color:#000000;solid-opacity:1;fill:#949494;fill-opacity:1;fill-rule:evenodd;stroke:none;stroke-width:30.39999962;stroke-linecap:butt;stroke-linejoin:miter;stroke-miterlimit:4;stroke-dasharray:none;stroke-dashoffset:0;stroke-opacity:1;color-rendering:auto;image-rendering:auto;shape-rendering:auto;text-rendering:auto;enable-background:accumulate" />
        <circle
           r="5.7786455"
           cy="3860.7839"
           cx="1947.6444"
           id="path5200"
           style="opacity:1;fill:#949494;fill-opacity:1;stroke:none;stroke-width:28.70000076;stroke-linecap:butt;stroke-linejoin:round;stroke-miterlimit:4;stroke-dasharray:none;stroke-dashoffset:0;stroke-opacity:1" />
      </g>
    </g>
  </g>
</svg>
