<?xml version="1.0" encoding="UTF-8" standalone="no"?>
<svg
   xmlns:dc="http://purl.org/dc/elements/1.1/"
   xmlns:cc="http://creativecommons.org/ns#"
   xmlns:rdf="http://www.w3.org/1999/02/22-rdf-syntax-ns#"
   xmlns:svg="http://www.w3.org/2000/svg"
   xmlns="http://www.w3.org/2000/svg"
   xmlns:xlink="http://www.w3.org/1999/xlink"
   id="svg12494"
   version="1.1"
   viewBox="0 0 99.999901 100"
   height="100mm"
   width="99.999901mm">
  <defs
     id="defs12488">
    <linearGradient
       gradientTransform="matrix(0.86278747,0,0,0.86278747,173.51569,269.28696)"
       gradientUnits="userSpaceOnUse"
       y2="1961.2488"
       x2="1287.9135"
       y1="1961.6809"
       x1="1241.2374"
       id="linearGradient4548"
       xlink:href="#linearGradient4542" />
    <linearGradient
       id="linearGradient4542">
      <stop
         id="stop4544"
         offset="0"
         style="stop-color:#7b7b7b;stop-opacity:1" />
      <stop
         style="stop-color:#858585;stop-opacity:1"
         offset="0.33337966"
         id="stop4550" />
      <stop
         id="stop4552"
         offset="0.5582478"
         style="stop-color:#4c4c4c;stop-opacity:1" />
      <stop
         id="stop4546"
         offset="1"
         style="stop-color:#8f8f8f;stop-opacity:1" />
    </linearGradient>
    <clipPath
       id="clipPath4611"
       clipPathUnits="userSpaceOnUse">
      <rect
         y="1914.3612"
         x="1253.3955"
         height="5.2009354"
         width="22.624126"
         id="rect4613"
         style="opacity:1;fill:#3b3b3b;fill-opacity:1;stroke:none;stroke-width:1.22000003;stroke-linecap:round;stroke-linejoin:round;stroke-miterlimit:4;stroke-dasharray:4.88000011, 4.88000011;stroke-dashoffset:0;stroke-opacity:1" />
    </clipPath>
    <filter
       height="3.0499902"
       y="-1.024995"
       width="1.1479603"
       x="-0.073980153"
       id="filter4599"
       style="color-interpolation-filters:sRGB">
      <feGaussianBlur
         id="feGaussianBlur4601"
         stdDeviation="0.72101672" />
    </filter>
    <clipPath
       id="clipPath4617"
       clipPathUnits="userSpaceOnUse">
      <rect
         y="1915.9928"
         x="1253.2582"
         height="3.9099803"
         width="22.693317"
         id="rect4619"
         style="opacity:1;fill:#3b3b3b;fill-opacity:1;stroke:none;stroke-width:1.22000003;stroke-linecap:round;stroke-linejoin:round;stroke-miterlimit:4;stroke-dasharray:4.88000011, 4.88000011;stroke-dashoffset:0;stroke-opacity:1" />
    </clipPath>
  </defs>
  <metadata
     id="metadata12491">
    <rdf:RDF>
      <cc:Work
         rdf:about="">
        <dc:format>image/svg+xml</dc:format>
        <dc:type
           rdf:resource="http://purl.org/dc/dcmitype/StillImage" />
        <dc:title></dc:title>
      </cc:Work>
    </rdf:RDF>
  </metadata>
  <g
     transform="translate(-52.127405,-115.39046)"
     id="layer1">
    <g
       transform="matrix(0.42938985,0,0,0.42938985,-18.183256,345.51446)"
       id="g9407">
      <g
         id="g4679"
         transform="matrix(0.85806016,0,0,0.85806016,-801.92535,-2103.4704)">
        <circle
           r="135.70631"
           cy="1962.5454"
           cx="1261.1179"
           id="path4504"
           style="opacity:1;fill:#ffe682;fill-opacity:1;stroke:none;stroke-width:1.22000003;stroke-linecap:round;stroke-linejoin:round;stroke-miterlimit:4;stroke-dasharray:4.88000011, 4.88000011;stroke-dashoffset:0;stroke-opacity:1" />
        <path
           id="path4639"
           d="m 1316.7356,1874.9034 -14.1965,29.581 -25.1348,10.2304 -30.377,99.2325 -5.498,21.7187 -5.9629,19.0449 -27.3418,-5.7207 49.0742,49.0703 c 1.2718,0.082 2.5448,0.1456 3.8184,0.1915 74.9491,4e-4 135.7074,-60.758 135.707,-135.7071 -0.012,-2.8012 -0.1113,-5.6014 -0.2969,-8.3965 z"
           style="fill:#ffd469;fill-opacity:1;fill-rule:evenodd;stroke:none;stroke-width:1px;stroke-linecap:butt;stroke-linejoin:miter;stroke-opacity:1" />
        <g
           transform="matrix(1.1451115,0.49281037,-0.49281037,1.1451115,776.8242,-910.36174)"
           id="g4621">
          <path
             style="opacity:1;fill:url(#linearGradient4548);fill-opacity:1;stroke:none;stroke-width:1.22000003;stroke-linecap:round;stroke-linejoin:round;stroke-miterlimit:4;stroke-dasharray:4.88000011, 4.88000011;stroke-dashoffset:0;stroke-opacity:1"
             d="m 1250.3335,1879.7809 c -5.5645,4.3702 -8.8147,11.0531 -8.8167,18.1286 0.011,8.1971 4.3733,15.772 11.4572,19.8964 v 86.8601 c -6.4565,4.0071 -10.388,11.0623 -10.3989,18.6612 5e-4,12.1504 9.8507,21.9998 22.0011,21.9993 12.1497,-5e-4 21.9988,-9.8496 21.9993,-21.9993 -0.01,-7.6039 -3.9368,-14.6661 -10.3972,-18.6764 v -86.8399 c 7.0855,-4.1253 11.4543,-11.7025 11.4572,-19.9014 0,-3.5332 -6.4121,-17.1418 -6.666,-16.9081 l -2.1531,1.9826 8e-4,10.5189 c 4e-4,5.2593 -4.233,9.494 -9.4923,9.494 h -9.4991 c -5.2592,0 -9.4923,-4.2347 -9.4923,-9.494 z m 20.2299,133.1523 6.0075,10.3821 -5.9872,10.3922 -11.9948,0.012 -6.0075,-10.3803 5.9873,-10.3939 11.9947,-0.012 z"
             id="rect4511" />
          <path
             style="opacity:1;fill:#5e5e5e;fill-opacity:1;stroke:none;stroke-width:1.22000003;stroke-linecap:round;stroke-linejoin:round;stroke-miterlimit:4;stroke-dasharray:4.88000011, 4.88000011;stroke-dashoffset:0;stroke-opacity:1"
             d="m 1250.334,1879.7812 c -0.8686,0.694 -1.6858,1.4499 -2.4453,2.2618 v 12.3769 c 0,5.2593 4.233,9.4942 9.4922,9.4942 h 9.5 c 1.6558,0 3.2082,-0.4209 4.5605,-1.1602 -0.6812,0.1543 -1.388,0.2422 -2.1172,0.2422 h -9.498 c -5.2592,0 -9.4922,-4.2348 -9.4922,-9.4941 z m 30.6355,1.2202 -2.1531,1.9826 c 4.074,4.2702 6.3556,9.94 6.375,15.8418 -0.01,8.1992 -4.3713,15.7768 -11.457,19.9023 v 86.8399 c 6.4599,4.0104 10.3911,11.0722 10.3965,18.6757 -0.01,8.7199 -5.1623,16.6131 -13.1446,20.1231 9.2589,-2.8202 15.5871,-11.3602 15.5899,-21.0391 -0.01,-7.6047 -3.9372,-14.6674 -10.3985,-18.6777 v -86.8399 c 7.0851,-4.1251 11.4472,-11.7018 11.4571,-19.9003 -0.2077,-6.9306 -2.1407,-12.0998 -6.6653,-16.9084 z m -22.4008,131.9459 h -1.918 l -6.514,11.3063 6.0078,10.3808 11.9942,-0.012 0.5273,-0.916 -10.0762,0.01 -6.0078,-10.379 5.9867,-10.3921 z"
             id="path4554" />
          <path
             style="color:#000000;font-style:normal;font-variant:normal;font-weight:normal;font-stretch:normal;font-size:medium;line-height:normal;font-family:sans-serif;text-indent:0;text-align:start;text-decoration:none;text-decoration-line:none;text-decoration-style:solid;text-decoration-color:#000000;letter-spacing:normal;word-spacing:normal;text-transform:none;writing-mode:lr-tb;direction:ltr;baseline-shift:baseline;text-anchor:start;white-space:normal;clip-rule:nonzero;display:inline;overflow:visible;visibility:visible;opacity:1;isolation:auto;mix-blend-mode:normal;color-interpolation:sRGB;color-interpolation-filters:linearRGB;solid-color:#000000;solid-opacity:1;fill:#3b3b3b;fill-opacity:1;fill-rule:evenodd;stroke:none;stroke-width:1px;stroke-linecap:butt;stroke-linejoin:miter;stroke-miterlimit:4;stroke-dasharray:none;stroke-dashoffset:0;stroke-opacity:1;filter:url(#filter4599);color-rendering:auto;image-rendering:auto;shape-rendering:auto;text-rendering:auto;enable-background:accumulate"
             d="m 1253.0076,1917.25 -0.082,0.998 c 0,0 8.0912,0.666 11.7265,0.6895 4.2733,0.027 11.6641,-0.6914 11.6641,-0.6914 l -0.096,-0.9941 c 0,0 -7.4098,0.7121 -11.5625,0.6855 -3.5213,-0.023 -11.6504,-0.6875 -11.6504,-0.6875 z"
             id="path4559"
             transform="matrix(1.0267805,0,0,0.98678441,-34.001555,25.348805)"
             clip-path="url(#clipPath4611)" />
          <path
             transform="matrix(1.026827,0,0,0.9867616,-33.951662,112.30748)"
             id="path4603"
             d="m 1253.0076,1917.25 -0.082,0.998 c 0,0 8.0912,0.666 11.7265,0.6895 4.2733,0.027 11.6641,-0.6914 11.6641,-0.6914 l -0.096,-0.9941 c 0,0 -7.4098,0.7121 -11.5625,0.6855 -3.5213,-0.023 -11.6504,-0.6875 -11.6504,-0.6875 z"
             style="color:#000000;font-style:normal;font-variant:normal;font-weight:normal;font-stretch:normal;font-size:medium;line-height:normal;font-family:sans-serif;text-indent:0;text-align:start;text-decoration:none;text-decoration-line:none;text-decoration-style:solid;text-decoration-color:#000000;letter-spacing:normal;word-spacing:normal;text-transform:none;writing-mode:lr-tb;direction:ltr;baseline-shift:baseline;text-anchor:start;white-space:normal;clip-rule:nonzero;display:inline;overflow:visible;visibility:visible;opacity:1;isolation:auto;mix-blend-mode:normal;color-interpolation:sRGB;color-interpolation-filters:linearRGB;solid-color:#000000;solid-opacity:1;fill:#3b3b3b;fill-opacity:1;fill-rule:evenodd;stroke:none;stroke-width:1px;stroke-linecap:butt;stroke-linejoin:miter;stroke-miterlimit:4;stroke-dasharray:none;stroke-dashoffset:0;stroke-opacity:1;filter:url(#filter4599);color-rendering:auto;image-rendering:auto;shape-rendering:auto;text-rendering:auto;enable-background:accumulate"
             clip-path="url(#clipPath4617)" />
        </g>
      </g>
    </g>
  </g>
</svg>
