<?xml version="1.0" encoding="UTF-8" standalone="no"?>
<svg
   xmlns:dc="http://purl.org/dc/elements/1.1/"
   xmlns:cc="http://creativecommons.org/ns#"
   xmlns:rdf="http://www.w3.org/1999/02/22-rdf-syntax-ns#"
   xmlns:svg="http://www.w3.org/2000/svg"
   xmlns="http://www.w3.org/2000/svg"
   xmlns:xlink="http://www.w3.org/1999/xlink"
   id="svg13713"
   version="1.1"
   viewBox="0 0 100 100"
   height="100mm"
   width="100mm">
  <defs
     id="defs13707">
    <linearGradient
       gradientUnits="userSpaceOnUse"
       y2="3666.1167"
       x2="1175.4404"
       y1="3719.2363"
       x1="1223.4523"
       id="linearGradient5345"
       xlink:href="#linearGradient5339" />
    <linearGradient
       id="linearGradient5339">
      <stop
         id="stop5341"
         offset="0"
         style="stop-color:#444444;stop-opacity:1;" />
      <stop
         id="stop5343"
         offset="1"
         style="stop-color:#ffffff;stop-opacity:1" />
    </linearGradient>
    <linearGradient
       gradientUnits="userSpaceOnUse"
       y2="3656.5825"
       x2="1268.7402"
       y1="3704.9348"
       x1="1337.8636"
       id="linearGradient5361"
       xlink:href="#linearGradient5339" />
    <linearGradient
       gradientUnits="userSpaceOnUse"
       y2="3617.7642"
       x2="1218.0042"
       y1="3681.4397"
       x1="1286.4467"
       id="linearGradient5353"
       xlink:href="#linearGradient5339" />
  </defs>
  <metadata
     id="metadata13710">
    <rdf:RDF>
      <cc:Work
         rdf:about="">
        <dc:format>image/svg+xml</dc:format>
        <dc:type
           rdf:resource="http://purl.org/dc/dcmitype/StillImage" />
        <dc:title></dc:title>
      </cc:Work>
    </rdf:RDF>
  </metadata>
  <g
     transform="translate(-39.599676,-50.81103)"
     id="layer1">
    <g
       transform="matrix(0.35576532,0,0,0.35576532,-368.1678,-1224.7524)"
       id="g5363">
      <circle
         r="140.54208"
         style="opacity:1;fill:#dfb400;fill-opacity:1;stroke:none;stroke-width:71.30599976;stroke-linecap:round;stroke-linejoin:round;stroke-miterlimit:4;stroke-dasharray:none;stroke-dashoffset:0;stroke-opacity:1"
         id="circle15426"
         cx="1286.7119"
         cy="3725.949" />
      <path
         style="fill:#c39d00;fill-opacity:1;fill-rule:evenodd;stroke:none;stroke-width:1px;stroke-linecap:butt;stroke-linejoin:miter;stroke-opacity:1"
         d="m 1335.4889,3659.8961 -40.1678,123.2221 -66.7291,-0.2405 -55.2276,-0.016 79.2454,79.2494 c 11.1453,2.8501 22.5984,4.321 34.1021,4.3798 33.1613,-0.036 65.2417,-11.7972 90.5686,-33.2034 25.3269,-21.4061 42.2687,-51.0785 47.8298,-83.7702 z"
         id="path15428" />
      <path
         id="path15432"
         d="m 1224.0069,3782.862 21.611,-66.4494 -21.6956,-30.0914 -24.6734,46.3225 -25.8845,50.0363 z"
         style="fill:url(#linearGradient5345);fill-opacity:1;fill-rule:evenodd;stroke:none;stroke-width:1px;stroke-linecap:butt;stroke-linejoin:miter;stroke-opacity:1" />
      <path
         id="path15434"
         d="m 1317.8539,3712.8019 -22.5329,70.3163 104.7381,0.3754 -64.5703,-123.5975 z"
         style="fill:url(#linearGradient5361);fill-opacity:1;fill-rule:evenodd;stroke:none;stroke-width:1px;stroke-linecap:butt;stroke-linejoin:miter;stroke-opacity:1" />
      <path
         id="path15436"
         d="m 1284.5252,3630.5346 -34.1707,87.0566 -21.7626,65.2865 60.6704,0.2179 25.2598,-75.7792 z"
         style="fill:url(#linearGradient5353);fill-opacity:1;fill-rule:evenodd;stroke:none;stroke-width:1px;stroke-linecap:butt;stroke-linejoin:miter;stroke-opacity:1" />
      <path
         id="path15438"
         d="m 1224.13,3691.7233 -9.2131,17.6427 5.9553,-2.1951 4.3732,6.2038 5.5937,-4.8817 7.6185,3.1017 z"
         style="fill:#ffffff;fill-rule:evenodd;stroke:none;stroke-width:1px;stroke-linecap:butt;stroke-linejoin:miter;stroke-opacity:1" />
      <path
         id="path15440"
         d="m 1284.8161,3639.8718 -9.0262,27.0801 6.2247,-1.7358 3.1016,2.3259 2.0698,-2.9927 6.795,3.504 z"
         style="fill:#ffffff;fill-opacity:1;fill-rule:evenodd;stroke:none;stroke-width:1px;stroke-linecap:butt;stroke-linejoin:miter;stroke-opacity:1" />
      <path
         id="path15442"
         d="m 1335.7853,3668.3535 -9.7219,29.1665 6.7807,-4.9268 5.2881,8.4413 4.4752,-6.2547 10.5219,8.261 z"
         style="fill:#ffffff;fill-opacity:1;fill-rule:evenodd;stroke:none;stroke-width:1px;stroke-linecap:butt;stroke-linejoin:miter;stroke-opacity:1" />
      <path
         id="path15444"
         d="m 1260.2079,3778.8783 26.0277,-0.302 22.5361,-70.5273 z"
         style="opacity:0.89499996;fill:#3a3a3a;fill-opacity:1;fill-rule:evenodd;stroke:none;stroke-width:1px;stroke-linecap:butt;stroke-linejoin:miter;stroke-opacity:1" />
      <path
         style="opacity:0.89499996;fill:#3a3a3a;fill-opacity:1;fill-rule:evenodd;stroke:none;stroke-width:1px;stroke-linecap:butt;stroke-linejoin:miter;stroke-opacity:1"
         d="m 1202.5002,3778.8783 h 19.7788 l 18.5421,-57.5844 z"
         id="path15446" />
    </g>
  </g>
</svg>
