<?xml version="1.0" encoding="UTF-8" standalone="no"?>
<svg
   xmlns:dc="http://purl.org/dc/elements/1.1/"
   xmlns:cc="http://creativecommons.org/ns#"
   xmlns:rdf="http://www.w3.org/1999/02/22-rdf-syntax-ns#"
   xmlns:svg="http://www.w3.org/2000/svg"
   xmlns="http://www.w3.org/2000/svg"
   xmlns:xlink="http://www.w3.org/1999/xlink"
   id="svg26917"
   version="1.1"
   viewBox="0 0 100 100"
   height="100mm"
   width="100mm">
  <defs
     id="defs26911">
    <linearGradient
       gradientTransform="matrix(0.3306104,0,0,0.3306104,380.01871,5659.098)"
       xlink:href="#linearGradient6889"
       id="linearGradient6895-8"
       x1="2696.7563"
       y1="8570.6572"
       x2="2945.7207"
       y2="8317.4004"
       gradientUnits="userSpaceOnUse" />
    <linearGradient
       id="linearGradient6889">
      <stop
         id="stop6891"
         offset="0"
         style="stop-color:#888888;stop-opacity:1;" />
      <stop
         style="stop-color:#c7c7c7;stop-opacity:1"
         offset="0.25628194"
         id="stop6897" />
      <stop
         id="stop6899"
         offset="0.44002917"
         style="stop-color:#686868;stop-opacity:1" />
      <stop
         style="stop-color:#969696;stop-opacity:1"
         offset="0.72001457"
         id="stop6901" />
      <stop
         id="stop6893"
         offset="1"
         style="stop-color:#818181;stop-opacity:1" />
    </linearGradient>
    <linearGradient
       xlink:href="#linearGradient6783"
       id="linearGradient6789-2"
       x1="3020.072"
       y1="8655.6592"
       x2="3052.7009"
       y2="8623.0303"
       gradientUnits="userSpaceOnUse"
       gradientTransform="matrix(0.32790344,0.04895675,-0.04895675,0.32790344,807.20887,5557.2502)" />
    <linearGradient
       id="linearGradient6783">
      <stop
         id="stop6785"
         offset="0"
         style="stop-color:#39322c;stop-opacity:1;" />
      <stop
         style="stop-color:#544a41;stop-opacity:1"
         offset="0.5"
         id="stop6791" />
      <stop
         id="stop6787"
         offset="1"
         style="stop-color:#322c27;stop-opacity:1" />
    </linearGradient>
  </defs>
  <metadata
     id="metadata26914">
    <rdf:RDF>
      <cc:Work
         rdf:about="">
        <dc:format>image/svg+xml</dc:format>
        <dc:type
           rdf:resource="http://purl.org/dc/dcmitype/StillImage" />
        <dc:title></dc:title>
      </cc:Work>
    </rdf:RDF>
  </metadata>
  <g
     transform="translate(-148.46314,-36.441594)"
     id="layer1">
    <g
       id="g9082"
       transform="matrix(0.28513453,0,0,0.28513453,-168.22258,-2330.9167)">
      <circle
         style="opacity:1;fill:#bfab4c;fill-opacity:1;stroke:none;stroke-width:3.69485426;stroke-linecap:butt;stroke-linejoin:round;stroke-miterlimit:4;stroke-dasharray:11.08456259, 11.08456259;stroke-dashoffset:0;stroke-opacity:1"
         id="circle6454-0"
         cx="1286.0095"
         cy="8477.957"
         r="175.35582" />
      <path
         id="path6995-3"
         d="m 1353.9631,8390.6796 -176.8255,139.739 122.3278,122.3272 a 175.35583,175.35583 0 0 0 160.7954,-155.7685 z"
         style="fill:#b19c40;fill-opacity:1;fill-rule:evenodd;stroke:none;stroke-width:1px;stroke-linecap:butt;stroke-linejoin:miter;stroke-opacity:1" />
      <path
         id="path6460-5"
         d="m 1181.1332,8389.0376 c -3.2602,0 -5.8849,2.6911 -5.8849,6.0341 v 130.9092 c 0,3.3429 2.6247,6.0343 5.8849,6.0343 h 67.9821 c 2.4931,2.7769 7.8741,6.3871 10.6917,8.1779 1.5235,0.9684 2.8842,1.4247 4.4384,1.4247 1.554,0 2.3698,-0.2417 3.9802,-1.1104 3.0389,-1.6393 8.9697,-5.5665 11.6519,-8.4922 h 70.0429 c 3.2602,0 5.885,-2.6914 5.885,-6.0343 v -130.9092 c 0,-3.343 -2.6248,-6.0341 -5.885,-6.0341 z"
         style="opacity:1;fill:#323232;fill-opacity:1;stroke:none;stroke-width:4.5;stroke-linecap:round;stroke-linejoin:round;stroke-miterlimit:4;stroke-dasharray:none;stroke-dashoffset:0;stroke-opacity:1" />
      <path
         id="path6462-9"
         d="m 1188.7589,8382.9675 v 138.0616 h 150.0983 v -138.0616 h -60.2202 c 0,0 -6.9402,1.0702 -10.7577,4.779 -2.4235,2.3545 -4.0716,6.1947 -4.0716,6.1947 0,0 -0.5737,-3.054 -4.0709,-6.1947 -3.0044,-2.6976 -9.5974,-4.779 -9.5974,-4.779 z m 75.0488,126.9276 c 0,0 1.6481,3.8409 4.0716,6.1952 3.8175,3.7091 10.7577,4.9561 10.7577,4.9561 h -28.4976 c 0,0 6.593,-2.2582 9.5974,-4.9561 3.4972,-3.1403 4.0709,-6.1952 4.0709,-6.1952 z"
         style="opacity:1;fill:#ffffff;fill-opacity:1;stroke:none;stroke-width:4.5;stroke-linecap:round;stroke-linejoin:round;stroke-miterlimit:4;stroke-dasharray:none;stroke-dashoffset:0;stroke-opacity:1" />
      <path
         style="opacity:1;fill:#77c6da;fill-opacity:1;stroke:none;stroke-width:2.20000005;stroke-linecap:butt;stroke-linejoin:miter;stroke-miterlimit:4;stroke-dasharray:none;stroke-dashoffset:0;stroke-opacity:1"
         d="m 1197.8261,8398.9865 60.04,0.4926 v 56.2339 h -60.04 z"
         id="path6464-3" />
      <path
         style="fill:#90d2e0;fill-opacity:1;fill-rule:evenodd;stroke:none;stroke-width:1px;stroke-linecap:butt;stroke-linejoin:miter;stroke-opacity:1"
         d="m 1198.1131,8449.37 16.5109,-39.9957 6.0225,10.6366 7.7998,-18.2251 6.8369,15.3616 4.4551,-11.1079 19.9705,43.9089 z"
         id="path6466-9" />
      <path
         style="fill:#3a3a3a;fill-opacity:1;fill-rule:evenodd;stroke:none;stroke-width:1px;stroke-linecap:butt;stroke-linejoin:miter;stroke-opacity:1"
         d="m 1213.3988,8447.6361 5.0986,-17.4931 -5.0163,-7.9592 -5.7903,12.1831 -6.0758,13.1606 z"
         id="path6468-6" />
      <path
         style="fill:#3a3a3a;fill-opacity:1;fill-rule:evenodd;stroke:none;stroke-width:1px;stroke-linecap:butt;stroke-linejoin:miter;stroke-opacity:1"
         d="m 1235.3098,8429.2774 -5.3174,18.5115 24.3708,0.2242 -14.8942,-32.6628 z"
         id="path6470-5" />
      <path
         style="fill:#3a3a3a;fill-opacity:1;fill-rule:evenodd;stroke:none;stroke-width:1px;stroke-linecap:butt;stroke-linejoin:miter;stroke-opacity:1"
         d="m 1227.6413,8407.5485 -8.0428,22.911 -5.133,17.1862 14.1171,0.13 5.9576,-19.9484 z"
         id="path6472-2" />
      <path
         style="fill:#ffffff;fill-rule:evenodd;stroke:none;stroke-width:1px;stroke-linecap:butt;stroke-linejoin:miter;stroke-opacity:1"
         d="m 1213.5237,8423.6082 -2.1626,4.6403 1.3881,-0.5715 1.0111,1.6408 1.3067,-1.2804 1.7695,0.8268 z"
         id="path6474-7" />
      <path
         style="fill:#ffffff;fill-opacity:1;fill-rule:evenodd;stroke:none;stroke-width:1px;stroke-linecap:butt;stroke-linejoin:miter;stroke-opacity:1"
         d="m 1227.6992,8410.0106 -2.1289,7.1287 1.4503,-0.4503 0.7192,0.617 0.4848,-0.7866 1.5775,0.9319 z"
         id="path6476-2" />
      <path
         style="fill:#ffffff;fill-opacity:1;fill-rule:evenodd;stroke:none;stroke-width:1px;stroke-linecap:butt;stroke-linejoin:miter;stroke-opacity:1"
         d="m 1239.5291,8417.5805 -2.293,7.6779 1.583,-1.2909 1.2216,2.2319 1.0479,-1.6436 2.4396,2.1905 z"
         id="path6478-2" />
      <path
         style="opacity:0.89499996;fill:#343434;fill-opacity:1;fill-rule:evenodd;stroke:none;stroke-width:1px;stroke-linecap:butt;stroke-linejoin:miter;stroke-opacity:1"
         d="m 1221.8264,8446.6291 6.0567,-0.048 5.3184,-18.5671 z"
         id="path6480-4" />
      <path
         id="path6482-1"
         d="m 1208.3987,8446.56 4.6022,0.023 4.3752,-15.1595 z"
         style="opacity:0.89499996;fill:#343434;fill-opacity:1;fill-rule:evenodd;stroke:none;stroke-width:1px;stroke-linecap:butt;stroke-linejoin:miter;stroke-opacity:1" />
      <path
         style="fill:none;fill-opacity:1;fill-rule:evenodd;stroke:#666666;stroke-width:1.53331113;stroke-linecap:butt;stroke-linejoin:miter;stroke-miterlimit:4;stroke-dasharray:none;stroke-opacity:1"
         d="m 1276.492,8468.7991 h 50.7799"
         id="path6484-1" />
      <path
         style="fill:none;fill-opacity:1;fill-rule:evenodd;stroke:#666666;stroke-width:1.53331113;stroke-linecap:butt;stroke-linejoin:miter;stroke-miterlimit:4;stroke-dasharray:none;stroke-opacity:1"
         d="m 1276.492,8481.7047 h 50.7799"
         id="path6486-3" />
      <path
         style="fill:none;fill-opacity:1;fill-rule:evenodd;stroke:#666666;stroke-width:1.53331113;stroke-linecap:butt;stroke-linejoin:miter;stroke-miterlimit:4;stroke-dasharray:none;stroke-opacity:1"
         d="m 1276.492,8494.6107 h 50.7799"
         id="path6488-6" />
      <path
         id="path6490-0"
         d="M 1199.0542,8494.6107 H 1254.79"
         style="fill:none;fill-opacity:1;fill-rule:evenodd;stroke:#666666;stroke-width:1.53331113;stroke-linecap:butt;stroke-linejoin:miter;stroke-miterlimit:4;stroke-dasharray:none;stroke-opacity:1" />
      <path
         style="fill:none;fill-opacity:1;fill-rule:evenodd;stroke:#666666;stroke-width:1.53331113;stroke-linecap:butt;stroke-linejoin:miter;stroke-miterlimit:4;stroke-dasharray:none;stroke-opacity:1"
         d="m 1276.492,8507.5162 h 50.7799"
         id="path6492-5" />
      <path
         id="path6494-0"
         d="M 1199.0542,8507.5163 H 1254.79"
         style="fill:none;fill-opacity:1;fill-rule:evenodd;stroke:#666666;stroke-width:1.53331113;stroke-linecap:butt;stroke-linejoin:miter;stroke-miterlimit:4;stroke-dasharray:none;stroke-opacity:1" />
      <path
         id="path6496-8"
         d="m 1276.492,8416.2819 h 50.7799"
         style="fill:none;fill-opacity:1;fill-rule:evenodd;stroke:#666666;stroke-width:1.53331113;stroke-linecap:butt;stroke-linejoin:miter;stroke-miterlimit:4;stroke-dasharray:none;stroke-opacity:1" />
      <path
         id="path6498-5"
         d="m 1276.492,8429.1876 h 50.7799"
         style="fill:none;fill-opacity:1;fill-rule:evenodd;stroke:#666666;stroke-width:1.53331113;stroke-linecap:butt;stroke-linejoin:miter;stroke-miterlimit:4;stroke-dasharray:none;stroke-opacity:1" />
      <path
         id="path6500-6"
         d="m 1276.492,8442.0934 h 50.7799"
         style="fill:none;fill-opacity:1;fill-rule:evenodd;stroke:#666666;stroke-width:1.53331113;stroke-linecap:butt;stroke-linejoin:miter;stroke-miterlimit:4;stroke-dasharray:none;stroke-opacity:1" />
      <path
         id="path6502-7"
         d="m 1276.492,8454.9988 h 50.7799"
         style="fill:none;fill-opacity:1;fill-rule:evenodd;stroke:#666666;stroke-width:1.53331113;stroke-linecap:butt;stroke-linejoin:miter;stroke-miterlimit:4;stroke-dasharray:none;stroke-opacity:1" />
      <path
         style="fill:none;fill-opacity:1;fill-rule:evenodd;stroke:#666666;stroke-width:1.53331113;stroke-linecap:butt;stroke-linejoin:miter;stroke-miterlimit:4;stroke-dasharray:none;stroke-opacity:1"
         d="m 1276.492,8405.3076 h 50.7799"
         id="path6504-3" />
      <path
         id="path6506-0"
         d="m 1250.1756,8521.0291 -0.036,0.022 h 28.4976 l -0.095,-0.022 z"
         style="color:#000000;font-style:normal;font-variant:normal;font-weight:normal;font-stretch:normal;font-size:medium;line-height:normal;font-family:sans-serif;text-indent:0;text-align:start;text-decoration:none;text-decoration-line:none;text-decoration-style:solid;text-decoration-color:#000000;letter-spacing:normal;word-spacing:normal;text-transform:none;writing-mode:lr-tb;direction:ltr;baseline-shift:baseline;text-anchor:start;white-space:normal;clip-rule:nonzero;display:inline;overflow:visible;visibility:visible;opacity:1;isolation:auto;mix-blend-mode:normal;color-interpolation:sRGB;color-interpolation-filters:linearRGB;solid-color:#000000;solid-opacity:1;fill:#ff6600;fill-opacity:1;fill-rule:evenodd;stroke:#3a3a3a;stroke-width:0.08634866;stroke-linecap:butt;stroke-linejoin:bevel;stroke-miterlimit:4;stroke-dasharray:none;stroke-dashoffset:0;stroke-opacity:1;color-rendering:auto;image-rendering:auto;shape-rendering:auto;text-rendering:auto;enable-background:accumulate" />
      <path
         id="path6508-4"
         d="m 1338.8572,8393.731 7.4116,0.3311 0.036,126.9241 -7.4484,0.043 z"
         style="opacity:1;fill:#2a2a2a;fill-opacity:1;fill-rule:evenodd;stroke:none;stroke-width:1px;stroke-linecap:butt;stroke-linejoin:miter;stroke-opacity:1" />
      <path
         id="path6510-6"
         d="m 1276.492,8468.7991 h 50.7799"
         style="fill:none;fill-opacity:1;fill-rule:evenodd;stroke:#666666;stroke-width:1.53331113;stroke-linecap:butt;stroke-linejoin:miter;stroke-miterlimit:4;stroke-dasharray:none;stroke-opacity:1" />
      <path
         id="path6512-0"
         d="m 1276.492,8481.7047 h 50.7799"
         style="fill:none;fill-opacity:1;fill-rule:evenodd;stroke:#666666;stroke-width:1.53331113;stroke-linecap:butt;stroke-linejoin:miter;stroke-miterlimit:4;stroke-dasharray:none;stroke-opacity:1" />
      <path
         style="fill:none;fill-opacity:1;fill-rule:evenodd;stroke:#666666;stroke-width:1.53331113;stroke-linecap:butt;stroke-linejoin:miter;stroke-miterlimit:4;stroke-dasharray:none;stroke-opacity:1"
         d="M 1199.0542,8468.5469 H 1254.79"
         id="path6514-5" />
      <path
         style="fill:none;fill-opacity:1;fill-rule:evenodd;stroke:#666666;stroke-width:1.53331113;stroke-linecap:butt;stroke-linejoin:miter;stroke-miterlimit:4;stroke-dasharray:none;stroke-opacity:1"
         d="M 1199.0542,8481.4527 H 1254.79"
         id="path6516-4" />
      <circle
         r="50.315006"
         cy="8452.708"
         cx="1313.9056"
         id="path6720-1"
         style="opacity:1;fill:#ffffff;fill-opacity:1;stroke:none;stroke-width:0.1;stroke-miterlimit:4;stroke-dasharray:none;stroke-opacity:1" />
      <path
         id="path6844-8"
         d="m 1349.8528,8419.6661 v 71.5611 l 17.3732,-15.3842 1.476,-36.8781 z"
         style="fill:#323232;fill-opacity:1;fill-rule:evenodd;stroke:none;stroke-width:1px;stroke-linecap:butt;stroke-linejoin:miter;stroke-opacity:1" />
      <path
         id="path6726-9"
         d="m 1283.284,8478.3682 h 55.5731"
         style="fill:none;fill-rule:evenodd;stroke:#4a4a4a;stroke-width:3.99355602;stroke-linecap:butt;stroke-linejoin:miter;stroke-miterlimit:4;stroke-dasharray:none;stroke-opacity:1" />
      <path
         id="path6712-2"
         d="m 1324.2946,8395.1431 a 61.900529,59.473221 8.4916668 0 0 -70.0053,49.6817 61.900529,59.473221 8.4916668 0 0 52.441,67.9608 61.900529,59.473221 8.4916668 0 0 70.0031,-49.6796 61.900529,59.473221 8.4916668 0 0 -52.4388,-67.9629 z m -2.0585,13.7872 a 47.392591,45.534187 8.4916668 0 1 40.1498,52.0336 47.392591,45.534187 8.4916668 0 1 -53.5971,38.0344 47.392591,45.534187 8.4916668 0 1 -40.1499,-52.031 47.392591,45.534187 8.4916668 0 1 53.5972,-38.037 z"
         style="opacity:1;fill:url(#linearGradient6895-8);fill-opacity:1;stroke:none;stroke-width:0.69999999;stroke-linecap:round;stroke-miterlimit:4;stroke-dasharray:none;stroke-opacity:1" />
      <path
         id="path6714-4"
         d="m 1344.9358,8506.6508 10.1251,-6.479 8.7042,10.6259 -10.1883,6.3743 z"
         style="fill:#2f2a25;fill-opacity:1;fill-rule:evenodd;stroke:none;stroke-width:1px;stroke-linecap:butt;stroke-linejoin:miter;stroke-opacity:1" />
      <path
         id="path6716-8"
         d="m 1353.5899,8517.1472 -2.5896,1.6734 44.4528,54.1256 c 0,0 1.6582,-0.074 2.4381,-0.3134 2.4114,-0.742 7.4818,-3.911 7.4818,-3.911 0,0 3.2045,-2.2365 4.4148,-3.7138 0.4591,-0.559 1.0318,-1.8937 1.0318,-1.8937 l -44.4699,-54.1454 z"
         style="fill:url(#linearGradient6789-2);fill-opacity:1;fill-rule:evenodd;stroke:none;stroke-width:1px;stroke-linecap:butt;stroke-linejoin:miter;stroke-opacity:1" />
      <path
         id="path6722-0"
         d="m 1281.9556,8436.3552 h 56.901"
         style="fill:none;fill-rule:evenodd;stroke:#4a4a4a;stroke-width:4.04098511;stroke-linecap:butt;stroke-linejoin:miter;stroke-miterlimit:4;stroke-dasharray:none;stroke-opacity:1" />
      <path
         style="fill:none;fill-rule:evenodd;stroke:#4a4a4a;stroke-width:4.03313637;stroke-linecap:butt;stroke-linejoin:miter;stroke-miterlimit:4;stroke-dasharray:none;stroke-opacity:1"
         d="m 1282.177,8456.7328 h 56.6796"
         id="path6724-9" />
      <circle
         style="opacity:0.21400003;fill:#878787;fill-opacity:1;stroke:none;stroke-width:0.1;stroke-miterlimit:4;stroke-dasharray:none;stroke-opacity:1"
         id="circle6903-2"
         cx="1313.9056"
         cy="8452.708"
         r="50.315006" />
      <ellipse
         transform="rotate(25.693429)"
         ry="7.4006996"
         rx="19.693386"
         cy="7012.5962"
         cx="4849.5317"
         id="path6887-7"
         style="opacity:1;fill:#cccccc;fill-opacity:1;stroke:none;stroke-width:14.90000057;stroke-miterlimit:4;stroke-dasharray:none;stroke-opacity:1" />
    </g>
  </g>
</svg>
