<?xml version="1.0" encoding="UTF-8" standalone="no"?>
<svg
   xmlns:dc="http://purl.org/dc/elements/1.1/"
   xmlns:cc="http://creativecommons.org/ns#"
   xmlns:rdf="http://www.w3.org/1999/02/22-rdf-syntax-ns#"
   xmlns:svg="http://www.w3.org/2000/svg"
   xmlns="http://www.w3.org/2000/svg"
   xmlns:xlink="http://www.w3.org/1999/xlink"
   id="svg11968"
   version="1.1"
   viewBox="0 0 100 100"
   height="100mm"
   width="100mm">
  <defs
     id="defs11962">
    <linearGradient
       gradientUnits="userSpaceOnUse"
       y2="-1825.0488"
       x2="231.19566"
       y1="-1787.2457"
       x1="249.50031"
       id="linearGradient19585"
       xlink:href="#linearGradient19579" />
    <linearGradient
       id="linearGradient19579">
      <stop
         id="stop19581"
         offset="0"
         style="stop-color:#a26a43;stop-opacity:1;" />
      <stop
         id="stop19583"
         offset="1"
         style="stop-color:#ffffff;stop-opacity:1" />
    </linearGradient>
    <linearGradient
       gradientUnits="userSpaceOnUse"
       y2="-1836.5887"
       x2="217.66614"
       y1="-1788.4395"
       x1="210.50345"
       id="linearGradient19577"
       xlink:href="#linearGradient19571" />
    <linearGradient
       id="linearGradient19571">
      <stop
         id="stop19573"
         offset="0"
         style="stop-color:#265c68;stop-opacity:1;" />
      <stop
         id="stop19575"
         offset="1"
         style="stop-color:#ffffff;stop-opacity:1" />
    </linearGradient>
  </defs>
  <metadata
     id="metadata11965">
    <rdf:RDF>
      <cc:Work
         rdf:about="">
        <dc:format>image/svg+xml</dc:format>
        <dc:type
           rdf:resource="http://purl.org/dc/dcmitype/StillImage" />
        <dc:title></dc:title>
      </cc:Work>
    </rdf:RDF>
  </metadata>
  <g
     transform="translate(-64.791055,-15.036328)"
     id="layer1">
    <g
       transform="matrix(0.48070272,0,0,0.48070272,-17.0855,916.73211)"
       id="g19587">
      <circle
         style="opacity:1;fill:#a4dc7f;fill-opacity:1;stroke:none;stroke-width:1.15235281;stroke-linecap:round;stroke-linejoin:round;stroke-miterlimit:4;stroke-dasharray:4.60941141, 4.60941141;stroke-dashoffset:0;stroke-opacity:1"
         id="path6846"
         cx="274.34119"
         cy="-1771.7723"
         r="104.01439" />
      <path
         style="fill:#93d566;fill-opacity:1;fill-rule:evenodd;stroke:none;stroke-width:1px;stroke-linecap:butt;stroke-linejoin:miter;stroke-opacity:1"
         d="m 299.42675,-1781.9848 -37.46855,57.246 49.95149,49.9521 a 104.01439,104.01439 0 0 0 65.63642,-84.6848 l -4.1299,-4.1299 z"
         id="path6912" />
      <rect
         style="opacity:1;fill:#ffa66c;fill-opacity:1;stroke:none;stroke-width:2.5999999;stroke-linecap:round;stroke-linejoin:round;stroke-miterlimit:4;stroke-dasharray:none;stroke-dashoffset:0;stroke-opacity:1"
         id="rect4370"
         width="18.729786"
         height="10.905172"
         x="1432.0751"
         y="-1031.7831"
         rx="5.4525862"
         ry="5.4525862"
         transform="rotate(-46.63803)" />
      <path
         style="fill:url(#linearGradient19585);fill-opacity:1;fill-rule:evenodd;stroke:none;stroke-width:1px;stroke-linecap:butt;stroke-linejoin:miter;stroke-opacity:1"
         d="m 229.62472,-1788.4927 -3.56588,34.4173 8.9844,2.7707 38.06652,29.2936 39.03489,-29.6246 -38.33785,-33.1099 -2.84624,-7.9017 -19.87379,-3.8618 c -3.43672,-1.1172 -12.06902,4.3773 -12.25956,8.3551 -0.054,1.1359 -9.20249,-0.7282 -9.20249,-0.3387 z"
         id="path4348" />
      <rect
         style="opacity:1;fill:#a26a43;fill-opacity:1;stroke:none;stroke-width:2.5999999;stroke-linecap:round;stroke-linejoin:round;stroke-miterlimit:4;stroke-dasharray:none;stroke-dashoffset:0;stroke-opacity:1"
         id="rect4354"
         width="20.021313"
         height="11.657146"
         x="-875.46277"
         y="-1523.9532"
         rx="5.8285728"
         ry="5.8285728"
         transform="rotate(38.840647)" />
      <rect
         transform="rotate(38.840647)"
         ry="5.8285728"
         rx="5.8285728"
         y="-1535.6586"
         x="-873.66486"
         height="11.657146"
         width="20.021313"
         id="rect4356"
         style="opacity:1;fill:#a26a43;fill-opacity:1;stroke:none;stroke-width:2.5999999;stroke-linecap:round;stroke-linejoin:round;stroke-miterlimit:4;stroke-dasharray:none;stroke-dashoffset:0;stroke-opacity:1" />
      <rect
         style="opacity:1;fill:#a26a43;fill-opacity:1;stroke:none;stroke-width:2.5999999;stroke-linecap:round;stroke-linejoin:round;stroke-miterlimit:4;stroke-dasharray:none;stroke-dashoffset:0;stroke-opacity:1"
         id="rect4358"
         width="20.021313"
         height="11.657146"
         x="-870.83923"
         y="-1547.4983"
         rx="5.8285728"
         ry="5.8285728"
         transform="rotate(38.840647)" />
      <path
         style="fill:#ffa66c;fill-opacity:1;fill-rule:evenodd;stroke:none;stroke-width:1px;stroke-linecap:butt;stroke-linejoin:miter;stroke-opacity:1"
         d="m 270.56228,-1792.5633 -19.56599,23.5267 c 0,0 4.66429,3.7787 8.13219,2.9053 7.05858,-1.7779 18.85352,-13.4601 18.85352,-13.4601 11.64594,9.9062 22.71662,18.0643 33.8986,28.4944 l 6.80863,-5.6893 0.17435,-34.1905 -13.00994,3.8899 c 0,0 -4.67597,-2.3146 -6.45731,-2.8887 -14.54828,-4.689 -28.83405,-2.5877 -28.83405,-2.5877 z"
         id="path4362" />
      <rect
         transform="rotate(38.840647)"
         ry="5.8285728"
         rx="5.8285728"
         y="-1559.3911"
         x="-871.1485"
         height="11.657146"
         width="20.021313"
         id="rect4360"
         style="opacity:1;fill:#a26a43;fill-opacity:1;stroke:none;stroke-width:2.5999999;stroke-linecap:round;stroke-linejoin:round;stroke-miterlimit:4;stroke-dasharray:none;stroke-dashoffset:0;stroke-opacity:1" />
      <rect
         transform="rotate(-46.63803)"
         ry="5.4525862"
         rx="5.4525862"
         y="-1021.5387"
         x="1432.5217"
         height="10.905172"
         width="18.729786"
         id="rect4364"
         style="opacity:1;fill:#ffa66c;fill-opacity:1;stroke:none;stroke-width:2.5999999;stroke-linecap:round;stroke-linejoin:round;stroke-miterlimit:4;stroke-dasharray:none;stroke-dashoffset:0;stroke-opacity:1" />
      <rect
         style="opacity:1;fill:#ffa66c;fill-opacity:1;stroke:none;stroke-width:2.5999999;stroke-linecap:round;stroke-linejoin:round;stroke-miterlimit:4;stroke-dasharray:none;stroke-dashoffset:0;stroke-opacity:1"
         id="rect4366"
         width="19.778818"
         height="11.506717"
         x="1426.0566"
         y="-1000.4616"
         rx="5.757978"
         ry="5.7533584"
         transform="matrix(0.68149304,-0.7318246,0.72219691,0.69168752,0,0)" />
      <rect
         transform="rotate(-46.63803)"
         ry="5.4525862"
         rx="5.4525862"
         y="-998.75879"
         x="1433.7811"
         height="10.905172"
         width="18.729786"
         id="rect4368"
         style="opacity:1;fill:#ffa66c;fill-opacity:1;stroke:none;stroke-width:2.5999999;stroke-linecap:round;stroke-linejoin:round;stroke-miterlimit:4;stroke-dasharray:none;stroke-dashoffset:0;stroke-opacity:1" />
      <path
         style="fill:#ffffff;fill-opacity:1;fill-rule:evenodd;stroke:none;stroke-width:1px;stroke-linecap:butt;stroke-linejoin:miter;stroke-opacity:1"
         d="m 232.05009,-1789.6774 c 0,0 5.2228,0 5.01385,0.8356 -0.20894,0.8356 -2.50692,38.2306 -2.50692,38.2306 l -6.26732,-1.6713 z"
         id="path6935" />
      <path
         style="fill:url(#linearGradient19577);fill-opacity:1;fill-rule:evenodd;stroke:none;stroke-width:1px;stroke-linecap:butt;stroke-linejoin:miter;stroke-opacity:1"
         d="m 181.87069,-1806.6066 c -3.33158,10.2925 -5.0371,24.827 -5.05495,35.6453 0.0419,4.5555 0.38197,9.1034 1.01972,13.6143 l 53.20009,7.8802 2.64667,-42.1338 z"
         id="path4372" />
      <path
         id="path6953"
         d="m 312.92423,-1790.7282 c 0,0 -5.21552,0.2738 -4.96316,1.0974 0.25248,0.8235 4.50758,38.0466 4.50758,38.0466 l 6.1711,-1.9976 z"
         style="fill:#ffffff;fill-opacity:1;fill-rule:evenodd;stroke:none;stroke-width:1px;stroke-linecap:butt;stroke-linejoin:miter;stroke-opacity:1" />
      <path
         style="fill:#373737;fill-opacity:1;fill-rule:evenodd;stroke:none;stroke-width:1px;stroke-linecap:butt;stroke-linejoin:miter;stroke-opacity:1"
         d="m 365.80418,-1810.313 -54.28715,18.659 4.92492,39.6522 56.97404,-11.5999 c 0.19616,-2.3366 0.31331,-4.6791 0.35122,-7.0236 -0.0298,-13.6231 -2.73527,-27.1076 -7.96303,-39.6877 z"
         id="path6606" />
      <path
         style="fill:#22545f;fill-opacity:1;fill-rule:evenodd;stroke:none;stroke-width:1px;stroke-linecap:butt;stroke-linejoin:miter;stroke-opacity:1"
         d="m 177.21214,-1762.8104 c 0.16024,1.8257 0.36687,3.6477 0.62354,5.4634 l 53.19987,7.8799 0.31243,-4.9746 -54.06916,-7.8759 c -0.0242,-0.1641 -0.0441,-0.3287 -0.0672,-0.4928 z"
         id="path6898" />
      <path
         style="fill:#333333;fill-opacity:1;fill-rule:evenodd;stroke:none;stroke-width:1px;stroke-linecap:butt;stroke-linejoin:miter;stroke-opacity:1"
         d="m 312.23435,-1785.8778 4.20749,33.8757 56.97437,-11.5993 c 0.12012,-1.4313 0.20674,-2.8653 0.26757,-4.3001 l -57.70954,11.5027 z"
         id="path6903" />
    </g>
  </g>
</svg>
