<?xml version="1.0" encoding="UTF-8" standalone="no"?>
<svg
   xmlns:dc="http://purl.org/dc/elements/1.1/"
   xmlns:cc="http://creativecommons.org/ns#"
   xmlns:rdf="http://www.w3.org/1999/02/22-rdf-syntax-ns#"
   xmlns:svg="http://www.w3.org/2000/svg"
   xmlns="http://www.w3.org/2000/svg"
   id="svg12817"
   version="1.1"
   viewBox="0 0 99.999954 100"
   height="100mm"
   width="99.999954mm">
  <defs
     id="defs12811">
    <filter
       style="color-interpolation-filters:sRGB"
       id="filter6458-3"
       x="-2.9280775"
       width="6.8561549"
       y="-0.015683558"
       height="1.0313671">
      <feGaussianBlur
         stdDeviation="1.2200323"
         id="feGaussianBlur6460-8" />
    </filter>
  </defs>
  <metadata
     id="metadata12814">
    <rdf:RDF>
      <cc:Work
         rdf:about="">
        <dc:format>image/svg+xml</dc:format>
        <dc:type
           rdf:resource="http://purl.org/dc/dcmitype/StillImage" />
        <dc:title></dc:title>
      </cc:Work>
    </rdf:RDF>
  </metadata>
  <g
     transform="translate(-74.670948,-24.811184)"
     id="layer1">
    <g
       transform="matrix(0.3786507,0,0,0.3786507,-327.89866,-891.11069)"
       id="g4630">
      <circle
         r="132.04776"
         cy="2550.9575"
         cx="1195.2166"
         id="path6326-6"
         style="opacity:1;fill:#1e78ff;fill-opacity:1;stroke:none;stroke-width:1.74600005;stroke-linecap:butt;stroke-linejoin:round;stroke-miterlimit:4;stroke-dasharray:none;stroke-dashoffset:0;stroke-opacity:1" />
      <path
         id="path5478"
         d="m 1277.5751,2478.1723 -161.8326,143.9775 59.115,59.1115 a 132.04776,132.04776 0 0 0 20.3583,1.7441 132.04776,132.04776 0 0 0 132.0471,-132.0471 132.04776,132.04776 0 0 0 -2.6631,-25.7577 z"
         style="fill:#0167ff;fill-opacity:1;fill-rule:evenodd;stroke:none;stroke-width:1px;stroke-linecap:butt;stroke-linejoin:miter;stroke-opacity:1" />
      <g
         transform="matrix(1.7823982,0,0,1.7823982,-3486.7038,896.05723)"
         id="g5439">
        <path
           style="fill:#ffffff;fill-opacity:1;fill-rule:evenodd;stroke:none;stroke-width:1px;stroke-linecap:butt;stroke-linejoin:miter;stroke-opacity:1"
           d="m 2667.1289,969.21043 c 0,0 -49.7016,0.22872 -83.0831,0 -1.4255,-0.009 -3.4478,-1.53027 -3.462,-4.88672 -0.082,-19.49688 0,-70.62309 0,-70.62309 l 13.4829,0.11883 z"
           id="path6334-1" />
        <path
           style="color:#000000;font-style:normal;font-variant:normal;font-weight:normal;font-stretch:normal;font-size:medium;line-height:normal;font-family:sans-serif;text-indent:0;text-align:start;text-decoration:none;text-decoration-line:none;text-decoration-style:solid;text-decoration-color:#000000;letter-spacing:normal;word-spacing:normal;text-transform:none;writing-mode:lr-tb;direction:ltr;baseline-shift:baseline;text-anchor:start;white-space:normal;clip-rule:nonzero;display:inline;overflow:visible;visibility:visible;opacity:0.8;isolation:auto;mix-blend-mode:normal;color-interpolation:sRGB;color-interpolation-filters:linearRGB;solid-color:#000000;solid-opacity:1;fill:#4d4d4d;fill-opacity:1;fill-rule:evenodd;stroke:none;stroke-width:1px;stroke-linecap:butt;stroke-linejoin:miter;stroke-miterlimit:4;stroke-dasharray:none;stroke-dashoffset:0;stroke-opacity:1;filter:url(#filter6458-3);color-rendering:auto;image-rendering:auto;shape-rendering:auto;text-rendering:auto;enable-background:accumulate"
           d="m -2691.458,663.87629 v 186.69727 h 1 V 663.87629 Z"
           id="path6370-0"
           transform="matrix(1.2537699,0,0,0.36556099,5965.7097,651.2263)" />
        <path
           style="opacity:1;fill:#ffffff;fill-opacity:1;stroke:none;stroke-width:1.74600005;stroke-linecap:butt;stroke-linejoin:round;stroke-miterlimit:4;stroke-dasharray:none;stroke-dashoffset:0;stroke-opacity:1"
           d="m 2600.4437,887.62457 h 65.9565 c 3.6337,0 6.5592,0.009 6.5592,0.009 v 75.05741 c 0,3.6338 -2.9255,6.5592 -6.5592,6.5592 h -65.9565 c -3.6338,0 -6.5593,-2.9254 -6.5593,-6.5592 V 887.6344 c 0,0 2.9255,-0.009 6.5593,-0.009 z"
           id="rect6332-2" />
        <path
           style="opacity:0.944;fill:none;fill-rule:evenodd;stroke:#cdcdcd;stroke-width:0.84424692;stroke-linecap:butt;stroke-linejoin:miter;stroke-miterlimit:4;stroke-dasharray:none;stroke-opacity:1"
           d="m 2593.4127,893.81361 v 68.88276 0"
           id="path6462-6" />
        <path
           style="fill:none;fill-rule:evenodd;stroke:#4d4d4d;stroke-width:0.60303348;stroke-linecap:butt;stroke-linejoin:miter;stroke-miterlimit:4;stroke-dasharray:none;stroke-opacity:1"
           d="M 2602.1229,895.67253 H 2625.16"
           id="path6464-6" />
        <path
           id="path6466-3"
           d="m 2642.2779,895.67253 h 23.0371"
           style="fill:none;fill-rule:evenodd;stroke:#4d4d4d;stroke-width:0.60303348;stroke-linecap:butt;stroke-linejoin:miter;stroke-miterlimit:4;stroke-dasharray:none;stroke-opacity:1" />
        <path
           id="path5819-7-9-2-3"
           d="m 2633.154,891.48807 c -0.3587,0 -0.7036,0.18023 -0.8909,0.43753 l -4.6242,6.35067 2.4735,3.72358 1.6216,1.6755 c 0.1581,0.16341 0.3875,0.10029 0.4861,-0.035 l 1.243,-1.70493 c 0.2126,-0.29142 0.5634,-0.25755 0.7496,-0.0649 l 2.1248,2.19552 c 0.1897,0.19582 0.4122,0.0961 0.5035,-0.0293 l 1.3053,-1.79012 c 0.1468,-0.20191 0.3904,-0.24672 0.5385,-0.24672 h 3.2706 c 0.3175,0 0.3909,-0.34723 0.246,-0.51622 l -8.2536,-9.62162 c -0.2277,-0.26549 -0.5151,-0.37407 -0.7938,-0.37395 z m -3.0416,10.51178 -2.9587,-3.05712 -0.434,-0.44852 -0.6375,-0.65871 c -0.3383,-0.34944 -0.9567,-0.37176 -1.2906,0.0864 l -2.6029,3.56974 c -0.1547,0.21228 0,0.50828 0.2467,0.50828 z"
           style="fill:#2d5d5e;fill-opacity:1;fill-rule:evenodd;stroke:none;stroke-width:1px;stroke-linecap:butt;stroke-linejoin:miter;stroke-opacity:1" />
        <path
           id="path5829-3-6-7-3"
           d="m 2627.6627,898.24351 2.4497,3.75634 -2.9587,-3.05709 z"
           style="fill:#254c4d;fill-opacity:1;fill-rule:evenodd;stroke:none;stroke-width:1px;stroke-linecap:butt;stroke-linejoin:miter;stroke-opacity:1" />
        <path
           id="path6515-0"
           d="m 2602.1229,898.55218 h 19.9827"
           style="fill:none;fill-rule:evenodd;stroke:#4d4d4d;stroke-width:0.60303348;stroke-linecap:butt;stroke-linejoin:miter;stroke-miterlimit:4;stroke-dasharray:none;stroke-opacity:1" />
        <path
           style="fill:none;fill-rule:evenodd;stroke:#4d4d4d;stroke-width:0.60303348;stroke-linecap:butt;stroke-linejoin:miter;stroke-miterlimit:4;stroke-dasharray:none;stroke-opacity:1"
           d="m 2644.3141,898.55218 h 21.0009"
           id="path6517-9" />
        <path
           style="fill:none;fill-rule:evenodd;stroke:#4d4d4d;stroke-width:0.60303348;stroke-linecap:butt;stroke-linejoin:miter;stroke-miterlimit:4;stroke-dasharray:none;stroke-opacity:1"
           d="m 2602.1229,901.43182 h 18.8629"
           id="path6519-3" />
        <path
           id="path6521-6"
           d="m 2644.3141,901.43182 h 21.0009"
           style="fill:none;fill-rule:evenodd;stroke:#4d4d4d;stroke-width:0.60303348;stroke-linecap:butt;stroke-linejoin:miter;stroke-miterlimit:4;stroke-dasharray:none;stroke-opacity:1" />
        <path
           id="path6523-7"
           d="m 2602.1229,906.79547 h 63.1921"
           style="fill:none;fill-rule:evenodd;stroke:#4d4d4d;stroke-width:1.04525805;stroke-linecap:butt;stroke-linejoin:miter;stroke-miterlimit:4;stroke-dasharray:none;stroke-opacity:1" />
        <rect
           style="opacity:1;fill:#7dc1c2;fill-opacity:1;stroke:none;stroke-width:1.5;stroke-linecap:butt;stroke-linejoin:round;stroke-miterlimit:4;stroke-dasharray:none;stroke-dashoffset:0;stroke-opacity:1"
           id="rect6529-8"
           width="63.169449"
           height="17.277897"
           x="2602.1455"
           y="910.23071" />
        <path
           style="fill:#5eb3b4;fill-opacity:1;fill-rule:evenodd;stroke:none;stroke-width:1px;stroke-linecap:butt;stroke-linejoin:miter;stroke-opacity:1"
           d="m 2602.1456,927.50864 20.4753,-16.04844 6.8439,5.09054 5.4865,-5.59958 7.353,4.92085 3.5069,-3.05433 17.9299,14.69095 z"
           id="path6597-6" />
        <path
           style="fill:#2d5d5e;fill-opacity:1;fill-rule:evenodd;stroke:none;stroke-width:1px;stroke-linecap:butt;stroke-linejoin:miter;stroke-opacity:1"
           d="m 2635.159,912.23017 -5.173,7.18458 -0.5865,0.81503 -5.2404,7.27881 h 13.4119 l 4.5942,-7.83787 z m -12.3191,1.12048 -14.6378,14.15794 h 14.7838 l 5.9535,-7.7617 z m 22.8776,2.23939 -2.2322,3.89065 -0.5678,0.98858 -4.0383,7.03932 h 19.557 z"
           id="path6535-9" />
        <path
           style="fill:#ffffff;fill-opacity:1;fill-rule:evenodd;stroke:none;stroke-width:1px;stroke-linecap:butt;stroke-linejoin:miter;stroke-opacity:1"
           d="m 2618.6273,919.16298 4.1067,-3.96971 4.0504,4.24799 -2.5797,-0.91086 -2.093,1.4706 -1.3007,-1.4706 z"
           id="path6537-6" />
        <path
           style="fill:#ffffff;fill-rule:evenodd;stroke:none;stroke-width:1px;stroke-linecap:butt;stroke-linejoin:miter;stroke-opacity:1"
           d="m 2635.2915,913.69482 -3.9155,5.43815 2.3629,-1.22316 2.4398,2.67966 0.9799,-2.55968 2.0197,2.3397 0.5199,-1.03986 2.1996,1.38 z"
           id="path6551-5" />
        <path
           style="fill:#ffffff;fill-rule:evenodd;stroke:none;stroke-width:1px;stroke-linecap:butt;stroke-linejoin:miter;stroke-opacity:1"
           d="m 2645.9672,917.42927 -1.6111,2.80793 1.1613,-0.34764 1.5998,1.29984 0.46,-1.15986 2.2753,1.04061 z"
           id="path6553-6" />
        <path
           style="fill:#254c4d;fill-opacity:1;fill-rule:evenodd;stroke:none;stroke-width:1px;stroke-linecap:butt;stroke-linejoin:miter;stroke-opacity:1"
           d="m 2640.0663,921.25936 c 0,0 -2.8017,4.8831 -2.8542,4.97447 -0.053,0.0914 -3.2182,0 -3.2182,0 z"
           id="path6569-4" />
        <path
           id="path6571-2"
           d="m 2626.9072,920.60427 c 0,0 -4.1138,5.69518 -4.1663,5.78657 -0.053,0.0913 -2.7415,0 -2.7415,0 z"
           style="fill:#254c4d;fill-opacity:1;fill-rule:evenodd;stroke:none;stroke-width:1px;stroke-linecap:butt;stroke-linejoin:miter;stroke-opacity:1" />
        <path
           style="fill:none;fill-rule:evenodd;stroke:#383838;stroke-width:1.04525805;stroke-linecap:butt;stroke-linejoin:miter;stroke-miterlimit:4;stroke-dasharray:none;stroke-opacity:1"
           d="m 2602.1229,932.35518 h 29.0151"
           id="path6573-7" />
        <path
           id="path6575-0"
           d="m 2602.1229,937.95447 h 29.0151"
           style="fill:none;fill-rule:evenodd;stroke:#383838;stroke-width:1.04525805;stroke-linecap:butt;stroke-linejoin:miter;stroke-miterlimit:4;stroke-dasharray:none;stroke-opacity:1" />
        <path
           style="fill:none;fill-rule:evenodd;stroke:#383838;stroke-width:1.04525805;stroke-linecap:butt;stroke-linejoin:miter;stroke-miterlimit:4;stroke-dasharray:none;stroke-opacity:1"
           d="m 2602.1229,943.55379 h 29.0151"
           id="path6577-2" />
        <path
           id="path6579-7"
           d="m 2602.1229,949.1531 h 29.0151"
           style="fill:none;fill-rule:evenodd;stroke:#383838;stroke-width:1.04525805;stroke-linecap:butt;stroke-linejoin:miter;stroke-miterlimit:4;stroke-dasharray:none;stroke-opacity:1" />
        <path
           style="fill:none;fill-rule:evenodd;stroke:#383838;stroke-width:1.04525805;stroke-linecap:butt;stroke-linejoin:miter;stroke-miterlimit:4;stroke-dasharray:none;stroke-opacity:1"
           d="m 2602.1229,954.75242 h 29.0151"
           id="path6581-05" />
        <path
           id="path6583-5"
           d="m 2602.1229,960.35174 h 29.0151"
           style="fill:none;fill-rule:evenodd;stroke:#383838;stroke-width:1.04525805;stroke-linecap:butt;stroke-linejoin:miter;stroke-miterlimit:4;stroke-dasharray:none;stroke-opacity:1" />
        <path
           id="path6585-9"
           d="m 2636.2999,932.39715 h 29.0151"
           style="fill:none;fill-rule:evenodd;stroke:#383838;stroke-width:1.04525805;stroke-linecap:butt;stroke-linejoin:miter;stroke-miterlimit:4;stroke-dasharray:none;stroke-opacity:1" />
        <path
           style="fill:none;fill-rule:evenodd;stroke:#383838;stroke-width:1.04525805;stroke-linecap:butt;stroke-linejoin:miter;stroke-miterlimit:4;stroke-dasharray:none;stroke-opacity:1"
           d="m 2636.2999,937.99646 h 29.0151"
           id="path6587-3" />
        <path
           id="path6589-9"
           d="m 2636.2999,943.59577 h 29.0151"
           style="fill:none;fill-rule:evenodd;stroke:#383838;stroke-width:1.04525805;stroke-linecap:butt;stroke-linejoin:miter;stroke-miterlimit:4;stroke-dasharray:none;stroke-opacity:1" />
        <path
           style="fill:none;fill-rule:evenodd;stroke:#383838;stroke-width:1.04525805;stroke-linecap:butt;stroke-linejoin:miter;stroke-miterlimit:4;stroke-dasharray:none;stroke-opacity:1"
           d="m 2636.2999,949.19509 h 29.0151"
           id="path6591-0" />
        <path
           id="path6593-3"
           d="m 2636.2999,954.7944 h 29.0151"
           style="fill:none;fill-rule:evenodd;stroke:#383838;stroke-width:1.04525805;stroke-linecap:butt;stroke-linejoin:miter;stroke-miterlimit:4;stroke-dasharray:none;stroke-opacity:1" />
        <path
           style="fill:none;fill-rule:evenodd;stroke:#383838;stroke-width:1.04525805;stroke-linecap:butt;stroke-linejoin:miter;stroke-miterlimit:4;stroke-dasharray:none;stroke-opacity:1"
           d="m 2636.2999,960.39373 h 29.0151"
           id="path6595-3" />
      </g>
    </g>
  </g>
</svg>
