<?xml version="1.0" encoding="UTF-8" standalone="no"?>
<svg
   xmlns:dc="http://purl.org/dc/elements/1.1/"
   xmlns:cc="http://creativecommons.org/ns#"
   xmlns:rdf="http://www.w3.org/1999/02/22-rdf-syntax-ns#"
   xmlns:svg="http://www.w3.org/2000/svg"
   xmlns="http://www.w3.org/2000/svg"
   xmlns:xlink="http://www.w3.org/1999/xlink"
   id="svg25966"
   version="1.1"
   viewBox="0 0 100 100"
   height="100mm"
   width="100mm">
  <defs
     id="defs25960">
    <linearGradient
       y2="6950.9805"
       x2="1243.7487"
       y1="6946.8892"
       x1="1243.7488"
       gradientUnits="userSpaceOnUse"
       id="linearGradient5062"
       xlink:href="#linearGradient5620" />
    <linearGradient
       id="linearGradient5620">
      <stop
         id="stop5622"
         offset="0"
         style="stop-color:#3d3d3d;stop-opacity:1" />
      <stop
         style="stop-color:#6a6866;stop-opacity:1"
         offset="0.5"
         id="stop5628" />
      <stop
         id="stop5624"
         offset="1"
         style="stop-color:#262626;stop-opacity:1" />
    </linearGradient>
    <linearGradient
       y2="7040.2505"
       x2="1254.8936"
       y1="7040.2505"
       x1="1242.2732"
       gradientUnits="userSpaceOnUse"
       id="linearGradient5064"
       xlink:href="#linearGradient5630" />
    <linearGradient
       id="linearGradient5630">
      <stop
         id="stop5632"
         offset="0"
         style="stop-color:#333333;stop-opacity:1;" />
      <stop
         style="stop-color:#555555;stop-opacity:1"
         offset="0.2688252"
         id="stop5638" />
      <stop
         id="stop5634"
         offset="1"
         style="stop-color:#1e1e1e;stop-opacity:1" />
    </linearGradient>
    <linearGradient
       y2="6900.7168"
       x2="1242.7445"
       y1="6894.3613"
       x1="1242.7445"
       gradientUnits="userSpaceOnUse"
       id="linearGradient5066"
       xlink:href="#linearGradient5610" />
    <linearGradient
       id="linearGradient5610">
      <stop
         id="stop5612"
         offset="0"
         style="stop-color:#404040;stop-opacity:1" />
      <stop
         style="stop-color:#545454;stop-opacity:1"
         offset="0.5"
         id="stop5618" />
      <stop
         id="stop5614"
         offset="1"
         style="stop-color:#343434;stop-opacity:1" />
    </linearGradient>
    <linearGradient
       y2="6950.9805"
       x2="1243.7487"
       y1="6946.8892"
       x1="1243.7488"
       gradientUnits="userSpaceOnUse"
       id="linearGradient26055"
       xlink:href="#linearGradient5620" />
    <linearGradient
       y2="7040.2505"
       x2="1254.8936"
       y1="7040.2505"
       x1="1242.2732"
       gradientUnits="userSpaceOnUse"
       id="linearGradient26057"
       xlink:href="#linearGradient5630" />
    <linearGradient
       y2="6900.7168"
       x2="1242.7445"
       y1="6894.3613"
       x1="1242.7445"
       gradientUnits="userSpaceOnUse"
       id="linearGradient26059"
       xlink:href="#linearGradient5610" />
  </defs>
  <metadata
     id="metadata25963">
    <rdf:RDF>
      <cc:Work
         rdf:about="">
        <dc:format>image/svg+xml</dc:format>
        <dc:type
           rdf:resource="http://purl.org/dc/dcmitype/StillImage" />
        <dc:title></dc:title>
      </cc:Work>
    </rdf:RDF>
  </metadata>
  <g
     transform="translate(-122.82635,-5.3819566)"
     id="layer1">
    <g
       transform="matrix(0.35496276,0,0,0.35496276,45.337722,-1100.991)"
       id="g5143">
      <g
         id="g5124"
         transform="translate(328.03463,-13.298701)">
        <circle
           style="opacity:1;fill:#ffccaa;fill-opacity:1;stroke:none;stroke-width:1.70000005;stroke-linecap:round;stroke-miterlimit:4;stroke-dasharray:none;stroke-dashoffset:0;stroke-opacity:1"
           id="circle5032"
           cx="31.125952"
           cy="3271.0291"
           r="140.85985" />
        <path
           id="path5119"
           d="m 91.272311,3178.6989 -13.084117,10.1331 -0.594938,44.2642 -14.255602,32.8378 -6.514058,-2.6124 -5.492464,-20.9335 -62.773665,-62.5521 -6.554414,8.6537 17.06977992,43.593 1.52050738,40.7739 20.5538387,92.2684 42.454151,42.4522 c 58.96822,-12.976 107.78557,-68.56 108.38447,-132.042 -0.0301,-4.0251 -0.0369,-12.5529 -0.41151,-16.5606 z"
           style="fill:#ffbf95;fill-opacity:1;fill-rule:evenodd;stroke:none;stroke-width:1px;stroke-linecap:butt;stroke-linejoin:miter;stroke-opacity:1" />
        <g
           transform="matrix(0.88720642,0,0,0.88720642,10.732408,363.72883)"
           id="g5101">
          <g
             transform="matrix(0.99461523,-0.33838284,0.33838284,0.99461523,-3620.2826,-3254.8123)"
             id="g5038">
            <rect
               style="opacity:1;fill:url(#linearGradient26055);fill-opacity:1;stroke:none;stroke-width:2.70000005;stroke-linecap:round;stroke-miterlimit:4;stroke-dasharray:none;stroke-dashoffset:0;stroke-opacity:1"
               id="rect5040"
               width="31.388826"
               height="5.6338921"
               x="1230.0664"
               y="6946.4863" />
            <path
               style="color:#000000;font-style:normal;font-variant:normal;font-weight:normal;font-stretch:normal;font-size:medium;line-height:normal;font-family:sans-serif;text-indent:0;text-align:start;text-decoration:none;text-decoration-line:none;text-decoration-style:solid;text-decoration-color:#000000;letter-spacing:normal;word-spacing:normal;text-transform:none;writing-mode:lr-tb;direction:ltr;baseline-shift:baseline;text-anchor:start;white-space:normal;clip-rule:nonzero;display:inline;overflow:visible;visibility:visible;opacity:1;isolation:auto;mix-blend-mode:normal;color-interpolation:sRGB;color-interpolation-filters:linearRGB;solid-color:#000000;solid-opacity:1;fill:url(#linearGradient26057);fill-opacity:1;fill-rule:evenodd;stroke:none;stroke-width:2.57680726;stroke-linecap:butt;stroke-linejoin:miter;stroke-miterlimit:4;stroke-dasharray:none;stroke-dashoffset:0;stroke-opacity:1;color-rendering:auto;image-rendering:auto;shape-rendering:auto;text-rendering:auto;enable-background:accumulate"
               d="m 1241.7012,6986.6523 v 2.1739 h -9.1992 v 5.2324 h 9.1992 v 91.9336 h -1.043 c -0.523,0 -0.8654,0.5782 -0.9434,1.2851 l -1.1406,10.377 c -0.078,0.7069 0.4223,1.2832 0.9453,1.2832 h 11.5957 c 0.523,0 1.0394,-0.5785 0.9434,-1.2832 l -1.4082,-10.377 c -0.096,-0.7047 -0.4204,-1.2851 -0.9434,-1.2851 h -0.7968 v -91.9336 h 9.0117 v -5.2324 h -9.0117 v -2.1739 z"
               id="path5042" />
            <path
               style="fill:none;fill-rule:evenodd;stroke:#ffffff;stroke-width:6.0999999;stroke-linecap:round;stroke-linejoin:miter;stroke-miterlimit:4;stroke-dasharray:none;stroke-opacity:1"
               d="m 1229.5816,6901.9454 v 50.4367 l 7.5332,28.9743 0.6286,41.3152"
               id="path5044" />
            <path
               id="path5046"
               d="m 1259.1813,6901.9454 v 50.4367 l -5.6362,28.9743 -0.985,41.3152"
               style="fill:none;fill-rule:evenodd;stroke:#ffffff;stroke-width:6.0999999;stroke-linecap:round;stroke-linejoin:miter;stroke-miterlimit:4;stroke-dasharray:none;stroke-opacity:1" />
            <path
               style="opacity:1;fill:url(#linearGradient26059);fill-opacity:1;stroke:none;stroke-width:6.0999999;stroke-linecap:round;stroke-miterlimit:4;stroke-dasharray:none;stroke-dashoffset:0;stroke-opacity:1"
               d="m 1223.1462,6891.678 c 13.5033,2.6548 27.5763,2.4441 41.2488,-0.068 1.8994,-0.349 3.9011,1.3187 4.4337,3.8105 0.5325,2.4914 -0.6655,4.8553 -2.768,5.2426 -14.6956,2.7076 -29.9116,2.9079 -44.6781,0.036 -2.1203,-0.4123 -3.284,-2.7962 -2.7056,-5.2789 0.5784,-2.4827 2.6013,-4.1101 4.4692,-3.7429 z"
               id="path5048" />
          </g>
          <g
             id="g5050"
             transform="matrix(-1.0464872,-0.09288087,-0.09288087,1.0464872,2007.8458,-3927.2144)">
            <rect
               y="6946.4863"
               x="1230.0664"
               height="5.6338921"
               width="31.388826"
               id="rect5052"
               style="opacity:1;fill:url(#linearGradient5062);fill-opacity:1;stroke:none;stroke-width:2.70000005;stroke-linecap:round;stroke-miterlimit:4;stroke-dasharray:none;stroke-dashoffset:0;stroke-opacity:1" />
            <path
               id="path5054"
               d="m 1241.7012,6986.6523 v 2.1739 h -9.1992 v 5.2324 h 9.1992 v 91.9336 h -1.043 c -0.523,0 -0.8654,0.5782 -0.9434,1.2851 l -1.1406,10.377 c -0.078,0.7069 0.4223,1.2832 0.9453,1.2832 h 11.5957 c 0.523,0 1.0394,-0.5785 0.9434,-1.2832 l -1.4082,-10.377 c -0.096,-0.7047 -0.4204,-1.2851 -0.9434,-1.2851 h -0.7968 v -91.9336 h 9.0117 v -5.2324 h -9.0117 v -2.1739 z"
               style="color:#000000;font-style:normal;font-variant:normal;font-weight:normal;font-stretch:normal;font-size:medium;line-height:normal;font-family:sans-serif;text-indent:0;text-align:start;text-decoration:none;text-decoration-line:none;text-decoration-style:solid;text-decoration-color:#000000;letter-spacing:normal;word-spacing:normal;text-transform:none;writing-mode:lr-tb;direction:ltr;baseline-shift:baseline;text-anchor:start;white-space:normal;clip-rule:nonzero;display:inline;overflow:visible;visibility:visible;opacity:1;isolation:auto;mix-blend-mode:normal;color-interpolation:sRGB;color-interpolation-filters:linearRGB;solid-color:#000000;solid-opacity:1;fill:url(#linearGradient5064);fill-opacity:1;fill-rule:evenodd;stroke:none;stroke-width:2.57680726;stroke-linecap:butt;stroke-linejoin:miter;stroke-miterlimit:4;stroke-dasharray:none;stroke-dashoffset:0;stroke-opacity:1;color-rendering:auto;image-rendering:auto;shape-rendering:auto;text-rendering:auto;enable-background:accumulate" />
            <path
               id="path5056"
               d="m 1229.5816,6901.9454 v 50.4367 l 7.5332,28.9743 0.6286,41.3152"
               style="fill:none;fill-rule:evenodd;stroke:#ffffff;stroke-width:6.0999999;stroke-linecap:round;stroke-linejoin:miter;stroke-miterlimit:4;stroke-dasharray:none;stroke-opacity:1" />
            <path
               style="fill:none;fill-rule:evenodd;stroke:#ffffff;stroke-width:6.0999999;stroke-linecap:round;stroke-linejoin:miter;stroke-miterlimit:4;stroke-dasharray:none;stroke-opacity:1"
               d="m 1259.1813,6901.9454 v 50.4367 l -5.6362,28.9743 -0.985,41.3152"
               id="path5058" />
            <path
               id="path5060"
               d="m 1223.1462,6891.678 c 13.5033,2.6548 27.5763,2.4441 41.2488,-0.068 1.8994,-0.349 3.9011,1.3187 4.4337,3.8105 0.5325,2.4914 -0.6655,4.8553 -2.768,5.2426 -14.6956,2.7076 -29.9116,2.9079 -44.6781,0.036 -2.1203,-0.4123 -3.284,-2.7962 -2.7056,-5.2789 0.5784,-2.4827 2.6013,-4.1101 4.4692,-3.7429 z"
               style="opacity:1;fill:url(#linearGradient5066);fill-opacity:1;stroke:none;stroke-width:6.0999999;stroke-linecap:round;stroke-miterlimit:4;stroke-dasharray:none;stroke-dashoffset:0;stroke-opacity:1" />
          </g>
        </g>
      </g>
    </g>
  </g>
</svg>
