<?xml version="1.0" encoding="UTF-8" standalone="no"?>
<svg
   xmlns:dc="http://purl.org/dc/elements/1.1/"
   xmlns:cc="http://creativecommons.org/ns#"
   xmlns:rdf="http://www.w3.org/1999/02/22-rdf-syntax-ns#"
   xmlns:svg="http://www.w3.org/2000/svg"
   xmlns="http://www.w3.org/2000/svg"
   xmlns:xlink="http://www.w3.org/1999/xlink"
   id="svg27202"
   version="1.1"
   viewBox="0 0 100 100"
   height="100mm"
   width="100mm">
  <defs
     id="defs27196">
    <linearGradient
       gradientUnits="userSpaceOnUse"
       y2="5067.0488"
       x2="257.17853"
       y1="5098.563"
       x1="294.88306"
       id="linearGradient18582"
       xlink:href="#linearGradient18576" />
    <linearGradient
       id="linearGradient18576">
      <stop
         id="stop18578"
         offset="0"
         style="stop-color:#afb7c1;stop-opacity:1;" />
      <stop
         id="stop18580"
         offset="1"
         style="stop-color:#ffffff;stop-opacity:1" />
    </linearGradient>
  </defs>
  <metadata
     id="metadata27199">
    <rdf:RDF>
      <cc:Work
         rdf:about="">
        <dc:format>image/svg+xml</dc:format>
        <dc:type
           rdf:resource="http://purl.org/dc/dcmitype/StillImage" />
        <dc:title></dc:title>
      </cc:Work>
    </rdf:RDF>
  </metadata>
  <g
     transform="translate(-100.08219,-40.221373)"
     id="layer1">
    <g
       transform="matrix(0.28513453,0,0,0.28513453,40.358748,-1385.8211)"
       id="g18584">
      <circle
         style="opacity:1;fill:#4d4d4d;fill-opacity:1;stroke:none;stroke-width:3.69485426;stroke-linecap:butt;stroke-linejoin:round;stroke-miterlimit:4;stroke-dasharray:11.08456259, 11.08456259;stroke-dashoffset:0;stroke-opacity:1"
         id="circle5022"
         cx="384.8129"
         cy="5176.6528"
         r="175.35582" />
      <path
         style="fill:#424242;fill-opacity:1;fill-rule:evenodd;stroke:none;stroke-width:1px;stroke-linecap:butt;stroke-linejoin:miter;stroke-opacity:1"
         d="m 486.77088,5115.7896 -186.4648,147.0352 89.0234,89.0234 a 175.35582,175.35582 0 0 0 170.2422,-163.2578 z"
         id="path5588" />
      <path
         id="path5030"
         d="m 304.80178,5114.1653 c -3.4346,0 -6.1998,2.8351 -6.1998,6.357 v 137.9163 c 0,3.5219 2.7652,6.3575 6.1998,6.3575 h 71.6211 c 2.6264,2.9254 8.2954,6.7288 11.264,8.6156 1.6048,1.0203 3.0385,1.5009 4.6758,1.5009 1.6372,0 2.4968,-0.2547 4.1934,-1.1698 3.2015,-1.727 9.4497,-5.8645 12.2755,-8.9467 h 73.7922 c 3.4346,0 6.1999,-2.8356 6.1999,-6.3575 v -137.9163 c 0,-3.5219 -2.7653,-6.357 -6.1999,-6.357 z"
         style="opacity:1;fill:#1f2227;fill-opacity:1;stroke:none;stroke-width:4.5;stroke-linecap:round;stroke-linejoin:round;stroke-miterlimit:4;stroke-dasharray:none;stroke-dashoffset:0;stroke-opacity:1" />
      <path
         id="path5032"
         d="m 312.83578,5107.7701 v 145.4517 h 158.1325 v -145.4517 h -63.4435 c 0,0 -7.3118,1.1276 -11.3336,5.035 -2.5533,2.4804 -4.2897,6.5262 -4.2897,6.5262 0,0 -0.6041,-3.2174 -4.2886,-6.5262 -3.1652,-2.842 -10.1112,-5.035 -10.1112,-5.035 z m 79.0657,133.7218 c 0,0 1.7364,4.0464 4.2897,6.5268 4.0218,3.9077 11.3336,5.2213 11.3336,5.2213 h -30.0231 c 0,0 6.946,-2.3791 10.1112,-5.2213 3.6845,-3.3085 4.2886,-6.5268 4.2886,-6.5268 z"
         style="opacity:1;fill:#ffffff;fill-opacity:1;stroke:none;stroke-width:4.5;stroke-linecap:round;stroke-linejoin:round;stroke-miterlimit:4;stroke-dasharray:none;stroke-dashoffset:0;stroke-opacity:1" />
      <path
         style="opacity:1;fill:#77c6da;fill-opacity:1;stroke:none;stroke-width:2.20000005;stroke-linecap:butt;stroke-linejoin:miter;stroke-miterlimit:4;stroke-dasharray:none;stroke-dashoffset:0;stroke-opacity:1"
         d="m 401.09239,5127.4321 64.57708,0.4953 v 56.5338 h -64.57708 z"
         id="path5034" />
      <path
         style="fill:#9bd5e4;fill-opacity:1;fill-rule:evenodd;stroke:none;stroke-width:1px;stroke-linecap:butt;stroke-linejoin:miter;stroke-opacity:1"
         d="m 402.35282,5177.6866 16.79506,-40.6835 6.12599,10.8195 7.93388,-18.5385 6.95468,15.6257 4.53167,-11.2989 20.31384,44.6641 z"
         id="path5036" />
      <path
         style="fill:#4b3526;fill-opacity:1;fill-rule:evenodd;stroke:none;stroke-width:1px;stroke-linecap:butt;stroke-linejoin:miter;stroke-opacity:1"
         d="m 418.37818,5175.9003 5.3717,-18.4293 -5.285,-8.3855 -6.1,12.8354 -6.4012,13.8652 z"
         id="path5038" />
      <path
         style="fill:#4b3526;fill-opacity:1;fill-rule:evenodd;stroke:none;stroke-width:1px;stroke-linecap:butt;stroke-linejoin:miter;stroke-opacity:1"
         d="m 441.46218,5156.559 -5.602,19.5023 25.6752,0.2362 -15.6914,-34.4111 z"
         id="path5041" />
      <path
         style="fill:#4b3526;fill-opacity:1;fill-rule:evenodd;stroke:none;stroke-width:1px;stroke-linecap:butt;stroke-linejoin:miter;stroke-opacity:1"
         d="m 433.38308,5133.667 -8.4733,24.1373 -5.4076,18.1062 14.8726,0.1368 6.2765,-21.0161 z"
         id="path5047" />
      <path
         style="fill:#ffffff;fill-rule:evenodd;stroke:none;stroke-width:1px;stroke-linecap:butt;stroke-linejoin:miter;stroke-opacity:1"
         d="m 418.50988,5150.5863 -2.2782,4.8887 1.4623,-0.6021 1.0651,1.7286 1.3766,-1.3489 1.8643,0.871 z"
         id="path5049" />
      <path
         style="fill:#ffffff;fill-opacity:1;fill-rule:evenodd;stroke:none;stroke-width:1px;stroke-linecap:butt;stroke-linejoin:miter;stroke-opacity:1"
         d="m 433.44418,5136.2608 -2.243,7.5103 1.528,-0.4744 0.7578,0.65 0.5107,-0.8286 1.6619,0.9817 z"
         id="path5051" />
      <path
         style="fill:#ffffff;fill-opacity:1;fill-rule:evenodd;stroke:none;stroke-width:1px;stroke-linecap:butt;stroke-linejoin:miter;stroke-opacity:1"
         d="m 445.90718,5144.2359 -2.4157,8.0889 1.6677,-1.3599 1.287,2.3513 1.104,-1.7316 2.5703,2.3078 z"
         id="path5053" />
      <path
         style="opacity:0.89499996;fill:#432e21;fill-opacity:1;fill-rule:evenodd;stroke:none;stroke-width:1px;stroke-linecap:butt;stroke-linejoin:miter;stroke-opacity:1"
         d="m 427.25708,5174.8395 6.3808,-0.051 5.6031,-19.5608 z"
         id="path5055" />
      <path
         id="path5057"
         d="m 413.11048,5174.7667 4.8487,0.025 4.6094,-15.9709 z"
         style="opacity:0.89499996;fill:#432e21;fill-opacity:1;fill-rule:evenodd;stroke:none;stroke-width:1px;stroke-linecap:butt;stroke-linejoin:miter;stroke-opacity:1" />
      <path
         style="fill:none;fill-opacity:1;fill-rule:evenodd;stroke:#666666;stroke-width:1.6153841;stroke-linecap:butt;stroke-linejoin:miter;stroke-miterlimit:4;stroke-dasharray:none;stroke-opacity:1"
         d="m 405.26488,5198.1962 h 53.498"
         id="path5059" />
      <path
         style="fill:none;fill-opacity:1;fill-rule:evenodd;stroke:#666666;stroke-width:1.6153841;stroke-linecap:butt;stroke-linejoin:miter;stroke-miterlimit:4;stroke-dasharray:none;stroke-opacity:1"
         d="m 405.26488,5211.7925 h 53.498"
         id="path5062" />
      <path
         style="fill:none;fill-opacity:1;fill-rule:evenodd;stroke:#666666;stroke-width:1.6153841;stroke-linecap:butt;stroke-linejoin:miter;stroke-miterlimit:4;stroke-dasharray:none;stroke-opacity:1"
         d="m 405.26488,5225.3894 h 53.498"
         id="path5064" />
      <path
         id="path5066"
         d="m 323.68218,5225.3894 h 58.7191"
         style="fill:none;fill-opacity:1;fill-rule:evenodd;stroke:#666666;stroke-width:1.6153841;stroke-linecap:butt;stroke-linejoin:miter;stroke-miterlimit:4;stroke-dasharray:none;stroke-opacity:1" />
      <path
         style="fill:none;fill-opacity:1;fill-rule:evenodd;stroke:#666666;stroke-width:1.6153841;stroke-linecap:butt;stroke-linejoin:miter;stroke-miterlimit:4;stroke-dasharray:none;stroke-opacity:1"
         d="m 405.26488,5238.9855 h 53.498"
         id="path5068" />
      <path
         id="path5070"
         d="m 323.68218,5238.9857 h 58.7191"
         style="fill:none;fill-opacity:1;fill-rule:evenodd;stroke:#666666;stroke-width:1.6153841;stroke-linecap:butt;stroke-linejoin:miter;stroke-miterlimit:4;stroke-dasharray:none;stroke-opacity:1" />
      <g
         id="g5413"
         transform="matrix(1.0629969,0,0,0.98214848,-1078.8319,-3507.1643)">
        <path
           style="fill:none;fill-opacity:1;fill-rule:evenodd;stroke:#666666;stroke-width:1.64474535;stroke-linecap:butt;stroke-linejoin:miter;stroke-miterlimit:4;stroke-dasharray:none;stroke-opacity:1"
           d="m 1319.5012,8807.2551 h 54.4704"
           id="path5072" />
        <path
           style="fill:none;fill-opacity:1;fill-rule:evenodd;stroke:#666666;stroke-width:1.64474535;stroke-linecap:butt;stroke-linejoin:miter;stroke-miterlimit:4;stroke-dasharray:none;stroke-opacity:1"
           d="m 1319.5012,8821.0987 h 54.4704"
           id="path5074" />
        <path
           style="fill:none;fill-opacity:1;fill-rule:evenodd;stroke:#666666;stroke-width:1.64474535;stroke-linecap:butt;stroke-linejoin:miter;stroke-miterlimit:4;stroke-dasharray:none;stroke-opacity:1"
           d="m 1319.5012,8834.9424 h 54.4704"
           id="path5076" />
        <path
           style="fill:none;fill-opacity:1;fill-rule:evenodd;stroke:#666666;stroke-width:1.64474535;stroke-linecap:butt;stroke-linejoin:miter;stroke-miterlimit:4;stroke-dasharray:none;stroke-opacity:1"
           d="m 1319.5012,8848.7857 h 54.4704"
           id="path5078" />
        <path
           id="path5080"
           d="m 1319.5012,8795.4832 h 54.4704"
           style="fill:none;fill-opacity:1;fill-rule:evenodd;stroke:#666666;stroke-width:1.64474535;stroke-linecap:butt;stroke-linejoin:miter;stroke-miterlimit:4;stroke-dasharray:none;stroke-opacity:1" />
      </g>
      <path
         id="path5082"
         d="m 377.53988,5253.2218 -0.038,0.024 h 30.023 l -0.099,-0.024 z"
         style="color:#000000;font-style:normal;font-variant:normal;font-weight:normal;font-stretch:normal;font-size:medium;line-height:normal;font-family:sans-serif;text-indent:0;text-align:start;text-decoration:none;text-decoration-line:none;text-decoration-style:solid;text-decoration-color:#000000;letter-spacing:normal;word-spacing:normal;text-transform:none;writing-mode:lr-tb;direction:ltr;baseline-shift:baseline;text-anchor:start;white-space:normal;clip-rule:nonzero;display:inline;overflow:visible;visibility:visible;opacity:1;isolation:auto;mix-blend-mode:normal;color-interpolation:sRGB;color-interpolation-filters:linearRGB;solid-color:#000000;solid-opacity:1;fill:#ff6600;fill-opacity:1;fill-rule:evenodd;stroke:#3a3a3a;stroke-width:0.09097061;stroke-linecap:butt;stroke-linejoin:bevel;stroke-miterlimit:4;stroke-dasharray:none;stroke-dashoffset:0;stroke-opacity:1;color-rendering:auto;image-rendering:auto;shape-rendering:auto;text-rendering:auto;enable-background:accumulate" />
      <path
         id="path5084"
         d="m 470.96828,5119.1099 7.8082,0.3489 0.039,133.7178 -7.8469,0.045 z"
         style="opacity:1;fill:#18191e;fill-opacity:1;fill-rule:evenodd;stroke:none;stroke-width:1px;stroke-linecap:butt;stroke-linejoin:miter;stroke-opacity:1" />
      <path
         id="path5086"
         d="m 405.26488,5198.1962 h 53.498"
         style="fill:none;fill-opacity:1;fill-rule:evenodd;stroke:#666666;stroke-width:1.6153841;stroke-linecap:butt;stroke-linejoin:miter;stroke-miterlimit:4;stroke-dasharray:none;stroke-opacity:1" />
      <path
         id="path5088"
         d="m 405.26488,5211.7925 h 53.498"
         style="fill:none;fill-opacity:1;fill-rule:evenodd;stroke:#666666;stroke-width:1.6153841;stroke-linecap:butt;stroke-linejoin:miter;stroke-miterlimit:4;stroke-dasharray:none;stroke-opacity:1" />
      <path
         style="fill:none;fill-opacity:1;fill-rule:evenodd;stroke:#666666;stroke-width:1.6153841;stroke-linecap:butt;stroke-linejoin:miter;stroke-miterlimit:4;stroke-dasharray:none;stroke-opacity:1"
         d="m 323.68218,5197.9304 h 58.7191"
         id="path5090" />
      <path
         style="fill:none;fill-opacity:1;fill-rule:evenodd;stroke:#666666;stroke-width:1.6153841;stroke-linecap:butt;stroke-linejoin:miter;stroke-miterlimit:4;stroke-dasharray:none;stroke-opacity:1"
         d="m 323.68218,5211.527 h 58.7191"
         id="path5092" />
      <path
         style="opacity:1;fill:url(#linearGradient18582);fill-opacity:1;stroke:none;stroke-width:5.05299997;stroke-linecap:round;stroke-miterlimit:4;stroke-dasharray:none;stroke-opacity:1"
         d="m 330.16428,5070.8415 a 68.638441,46.316993 0 0 1 68.6382,46.3164 68.638441,46.316993 0 0 1 -68.6382,46.3174 68.638441,46.316993 0 0 1 -26.3524,-3.5945 c -5.0447,3.002 -11.6878,4.9997 -21.8125,6.4861 -6.8891,1.1785 -20.9391,-1.122 -20.9391,-1.122 0,0 13.8727,-9.3469 17.7603,-14.8624 0.3887,-0.6619 0.7161,-1.1946 1.0674,-1.7774 a 68.638441,46.316993 0 0 1 -18.3626,-31.4472 68.638441,46.316993 0 0 1 68.6389,-46.3164 z"
         id="path5158-2-2" />
      <g
         style="fill:#353535;fill-opacity:1"
         transform="matrix(0.62100758,0,0,0.62100758,1687.0731,4180.0078)"
         id="g5231-2-2">
        <circle
           r="13.231963"
           cy="1512.7474"
           cx="-2219.7183"
           id="circle5233-1-3"
           style="opacity:1;fill:#353535;fill-opacity:1;stroke:none;stroke-width:0.16599999;stroke-linecap:round;stroke-miterlimit:4;stroke-dasharray:none;stroke-opacity:1" />
        <circle
           style="opacity:1;fill:#353535;fill-opacity:1;stroke:none;stroke-width:0.16599999;stroke-linecap:round;stroke-miterlimit:4;stroke-dasharray:none;stroke-opacity:1"
           id="circle5235-4-1"
           cx="-2182.5427"
           cy="1512.7474"
           r="13.231963" />
        <circle
           r="13.231963"
           cy="1512.7474"
           cx="-2145.3669"
           id="circle5237-1-4"
           style="opacity:1;fill:#353535;fill-opacity:1;stroke:none;stroke-width:0.16599999;stroke-linecap:round;stroke-miterlimit:4;stroke-dasharray:none;stroke-opacity:1" />
      </g>
    </g>
  </g>
</svg>
