<?xml version="1.0" encoding="UTF-8" standalone="no"?>
<svg
   xmlns:dc="http://purl.org/dc/elements/1.1/"
   xmlns:cc="http://creativecommons.org/ns#"
   xmlns:rdf="http://www.w3.org/1999/02/22-rdf-syntax-ns#"
   xmlns:svg="http://www.w3.org/2000/svg"
   xmlns="http://www.w3.org/2000/svg"
   id="svg11888"
   version="1.1"
   viewBox="0 0 100 100"
   height="100mm"
   width="100mm">
  <defs
     id="defs11882" />
  <metadata
     id="metadata11885">
    <rdf:RDF>
      <cc:Work
         rdf:about="">
        <dc:format>image/svg+xml</dc:format>
        <dc:type
           rdf:resource="http://purl.org/dc/dcmitype/StillImage" />
        <dc:title></dc:title>
      </cc:Work>
    </rdf:RDF>
  </metadata>
  <g
     transform="translate(-92.509515,-13.776198)"
     id="layer1">
    <g
       transform="matrix(0.59982063,0,0,0.59982063,-507.29502,-127.74978)"
       id="g4316">
      <circle
         style="opacity:1;fill:#ff2a2a;fill-opacity:1;stroke:none;stroke-width:2.5999999;stroke-linecap:round;stroke-linejoin:round;stroke-miterlimit:4;stroke-dasharray:none;stroke-dashoffset:0;stroke-opacity:1"
         id="path4282"
         cx="1083.3314"
         cy="319.30542"
         r="83.358253" />
      <path
         style="fill:#eb1e1e;fill-opacity:1;fill-rule:evenodd;stroke:none;stroke-width:1px;stroke-linecap:butt;stroke-linejoin:miter;stroke-opacity:1"
         d="m 1095.3574,257.97461 -44.1914,87.82812 -4.7051,14.07422 0.2813,5.21875 37.5273,37.53516 a 83.358253,83.358253 0 0 0 81.8379,-73.9082 z"
         id="path4311" />
      <g
         id="g4302">
        <path
           id="path4280"
           d="m 1045.9331,362.53184 c 0,0 4.0917,4.85982 6.9384,4.99571 6.0464,0.28862 9.6513,-9.6917 15.681,-9.1588 4.0532,0.35822 5.2343,8.12729 9.2976,7.90987 6.1751,-0.33045 6.5831,-13.39326 12.7668,-13.46065 7.032,-0.0767 7.8462,14.33597 14.8483,14.98712 6.158,0.57264 15.2647,-10.5465 15.2647,-10.5465"
           style="fill:none;fill-rule:evenodd;stroke:#ffffff;stroke-width:2.30155873;stroke-linecap:round;stroke-linejoin:miter;stroke-miterlimit:4;stroke-dasharray:none;stroke-opacity:1" />
        <path
           id="path4249"
           d="m 1095.3582,257.97367 c 0,0 -4.5395,3.24337 -10.7073,8.39052 -0.8038,2.12584 -1.3735,5.58619 -2.3946,8.24875 0.399,-2.23923 0.5128,-4.43125 0.4288,-6.59761 -4.1172,3.51968 -8.7813,7.76085 -13.3041,12.45698 -0.7805,2.13459 -1.3458,5.52156 -2.3479,8.13464 0.3684,-2.06789 0.4798,-4.09363 0.4305,-6.09796 -2.4761,2.67018 -4.8827,5.44784 -7.08,8.30754 -0.1561,1.39402 -0.2251,2.81351 -0.1764,4.27047 -0.2393,-1.05356 -0.3911,-2.20385 -0.5221,-3.35759 -1.4218,1.89742 -2.7515,3.82156 -3.9523,5.75908 -0.5764,3.75538 -0.7676,7.53854 -0.067,11.46803 -0.9213,-2.40227 -1.477,-5.43807 -2.1664,-7.57446 -1.1879,2.28152 -2.1698,4.56666 -2.8856,6.83101 -3.449,10.9111 -1.1774,40.82018 -1.1774,40.82018 0.049,-0.0512 0.1126,-0.10919 0.1625,-0.1608 0.093,-0.29486 3.7492,-11.92876 5.9217,-17.75617 2.0911,-5.60919 4.2267,-11.22021 6.8604,-16.59605 2.7472,-5.60766 9.2947,-16.26582 9.2947,-16.26582 l -22.0422,50.58519 c 3.4372,-3.53823 9.9305,-8.17876 19.2881,-18.85577 -2.0397,0.47978 -4.4773,1.22745 -6.6409,1.52146 3.8354,-1.29208 7.0979,-3.31747 10.1506,-5.66917 3.5236,-4.28214 7.3827,-9.34984 11.5925,-15.47916 -1.6576,0.43008 -3.4319,0.90916 -5.0623,1.13072 2.3046,-0.77636 4.3982,-1.82269 6.3694,-3.03774 1.4753,-2.18739 2.9778,-4.46159 4.5333,-6.90883 2.3352,-3.59593 3.7174,-9.53452 4.5367,-15.88027 -1.9827,1.04063 -4.7842,3.69475 -7.4379,5.294 3.5351,-3.17798 5.9495,-6.96823 8.0291,-11.00813 0.8909,-11.22649 0.3666,-21.97304 0.3666,-21.97304 z"
           style="fill:#ffffff;fill-rule:evenodd;stroke:none;stroke-width:0.1;stroke-linecap:butt;stroke-linejoin:miter;stroke-miterlimit:4;stroke-dasharray:none;stroke-opacity:1" />
        <path
           id="path4284"
           d="m 1050.1173,345.29067 c -1.2351,1.72868 -2.7183,4.43012 -3.2511,7.21204 l -0.4043,7.37382 c 0.7934,-1.99458 2.138,-4.2528 3.7896,-6.93399 0.5412,-2.99142 0.4642,-4.03028 0.8666,-5.60243 0.1259,-0.4917 0.066,-0.93641 0.047,-1.53713 z"
           style="fill:#ffffff;fill-opacity:1;fill-rule:evenodd;stroke:none;stroke-width:1px;stroke-linecap:butt;stroke-linejoin:miter;stroke-opacity:1" />
      </g>
    </g>
  </g>
</svg>
