<?xml version="1.0" encoding="UTF-8" standalone="no"?>
<svg
   xmlns:dc="http://purl.org/dc/elements/1.1/"
   xmlns:cc="http://creativecommons.org/ns#"
   xmlns:rdf="http://www.w3.org/1999/02/22-rdf-syntax-ns#"
   xmlns:svg="http://www.w3.org/2000/svg"
   xmlns="http://www.w3.org/2000/svg"
   id="svg6941"
   version="1.1"
   viewBox="0 0 114.72938 100"
   height="100mm"
   width="114.72938mm">
  <defs
     id="defs6935" />
  <metadata
     id="metadata6938">
    <rdf:RDF>
      <cc:Work
         rdf:about="">
        <dc:format>image/svg+xml</dc:format>
        <dc:type
           rdf:resource="http://purl.org/dc/dcmitype/StillImage" />
        <dc:title></dc:title>
      </cc:Work>
    </rdf:RDF>
  </metadata>
  <g
     transform="translate(-63.345119,-55.633892)"
     id="layer1">
    <path
       id="path6896"
       transform="matrix(0.26458333,0,0,0.26458333,63.345119,55.633892)"
       d="M 326.42773 0 L 290.88867 61.552734 L 275.90234 87.509766 L 259.1582 58.509766 L 246.92383 79.697266 L 241.69336 70.638672 L 224.22852 40.388672 L 206.76367 70.638672 L 189.29883 100.88672 L 224.22852 100.88672 L 234.68945 100.88672 L 210.22266 143.26562 L 259.1582 143.26562 L 308.0918 143.26562 L 296.45312 123.10547 L 326.42773 123.10547 L 341.54102 123.10547 L 335.75391 133.13086 L 384.6875 133.13086 L 433.62305 133.13086 L 409.15625 90.751953 L 384.6875 48.373047 L 369.52148 74.642578 L 361.96484 61.552734 L 326.42773 0 z M 113.72852 105.95117 L 56.863281 204.44336 L 0 302.93555 L 113.72852 302.93555 L 160.33789 302.93555 L 117.02539 377.95312 L 230.75391 377.95312 L 344.48242 377.95312 L 323.67969 341.91992 L 325.38477 341.91992 L 420.01367 341.91992 L 372.69922 259.96875 L 325.38477 178.01758 L 278.07031 259.96875 L 277.2168 261.44531 L 230.75391 180.96875 L 193.89648 244.80859 L 170.5918 204.44336 L 113.72852 105.95117 z "
       style="fill:#ffffff;stroke-width:4.41061115" />
  </g>
</svg>
