<?xml version="1.0" encoding="UTF-8" standalone="no"?>
<svg
   xmlns:dc="http://purl.org/dc/elements/1.1/"
   xmlns:cc="http://creativecommons.org/ns#"
   xmlns:rdf="http://www.w3.org/1999/02/22-rdf-syntax-ns#"
   xmlns:svg="http://www.w3.org/2000/svg"
   xmlns="http://www.w3.org/2000/svg"
   id="svg7248"
   version="1.1"
   viewBox="0 0 99.999947 100"
   height="100mm"
   width="99.999947mm">
  <defs
     id="defs7242" />
  <metadata
     id="metadata7245">
    <rdf:RDF>
      <cc:Work
         rdf:about="">
        <dc:format>image/svg+xml</dc:format>
        <dc:type
           rdf:resource="http://purl.org/dc/dcmitype/StillImage" />
        <dc:title></dc:title>
      </cc:Work>
    </rdf:RDF>
  </metadata>
  <g
     transform="translate(-97.763542,-3.23051)"
     id="layer1">
    <path
       id="circle6983"
       d="M 147.76351,3.23051 A 49.999989,49.999989 0 0 0 97.763542,53.230495 49.999989,49.999989 0 0 0 147.76351,103.23051 49.999989,49.999989 0 0 0 197.76349,53.230495 49.999989,49.999989 0 0 0 147.76351,3.23051 Z m 33.7218,27.516646 c 4.12173,0 7.49555,3.373853 7.49555,7.495508 0,4.121673 -3.37382,7.492329 -7.49555,7.492329 -0.67443,0 -1.31193,-0.07522 -1.91145,-0.262584 l -13.33888,13.303649 c 0.18712,0.599519 0.26271,1.272281 0.26271,1.946722 0,4.121673 -3.37065,7.495527 -7.49232,7.495527 -4.12167,0 -7.49548,-3.373854 -7.49548,-7.495527 0,-0.674441 0.075,-1.347196 0.2627,-1.946722 l -9.55427,-9.554291 c -0.59976,0.187366 -1.27549,0.262523 -1.94992,0.262523 -0.67449,0 -1.34719,-0.07522 -1.94677,-0.262523 l -17.04982,17.085029 c 0.18712,0.599519 0.26271,1.237051 0.26271,1.911511 0,4.121654 -3.37065,7.49231 -7.49232,7.49231 -4.12166,0 -7.49551,-3.370656 -7.49551,-7.49231 0,-4.121655 3.37385,-7.495527 7.49551,-7.495527 0.67443,0 1.30883,0.07522 1.90829,0.262585 l 17.08823,-17.04662 c -0.18712,-0.59952 -0.26271,-1.27546 -0.26271,-1.94992 0,-4.121654 3.37066,-7.492304 7.49232,-7.492304 4.12167,0 7.49549,3.37065 7.49549,7.492304 0,0.67446 -0.075,1.350413 -0.26271,1.94992 l 9.55427,9.554309 c 0.59977,-0.187365 1.2755,-0.262584 1.94993,-0.262584 0.67449,0 1.34724,0.07522 1.9467,0.262584 L 174.2557,40.154175 c -0.18712,-0.59952 -0.26271,-1.237052 -0.26271,-1.911511 0,-4.121655 3.37066,-7.495508 7.49232,-7.495508 z"
       style="fill:#ff5722;fill-opacity:1;stroke-width:1.63934386" />
  </g>
</svg>
