<?xml version="1.0" encoding="UTF-8" standalone="no"?>
<!-- Created with Inkscape (http://www.inkscape.org/) -->

<svg
   xmlns:dc="http://purl.org/dc/elements/1.1/"
   xmlns:cc="http://creativecommons.org/ns#"
   xmlns:rdf="http://www.w3.org/1999/02/22-rdf-syntax-ns#"
   xmlns:svg="http://www.w3.org/2000/svg"
   xmlns="http://www.w3.org/2000/svg"
   xmlns:sodipodi="http://sodipodi.sourceforge.net/DTD/sodipodi-0.dtd"
   xmlns:inkscape="http://www.inkscape.org/namespaces/inkscape"
   width="64.861954mm"
   height="100mm"
   viewBox="0 0 64.861954 100"
   version="1.1"
   id="svg6624"
   inkscape:version="0.92.1 r15371"
   sodipodi:docname="logo_greenspits.svg">
  <defs
     id="defs6618" />
  <sodipodi:namedview
     id="base"
     pagecolor="#ffffff"
     bordercolor="#666666"
     borderopacity="1.0"
     inkscape:pageopacity="0.0"
     inkscape:pageshadow="2"
     inkscape:zoom="0.35"
     inkscape:cx="163.7311"
     inkscape:cy="248.14677"
     inkscape:document-units="mm"
     inkscape:current-layer="layer1"
     showgrid="false"
     fit-margin-top="0"
     fit-margin-left="0"
     fit-margin-right="0"
     fit-margin-bottom="0"
     inkscape:window-width="1366"
     inkscape:window-height="704"
     inkscape:window-x="0"
     inkscape:window-y="27"
     inkscape:window-maximized="1" />
  <metadata
     id="metadata6621">
    <rdf:RDF>
      <cc:Work
         rdf:about="">
        <dc:format>image/svg+xml</dc:format>
        <dc:type
           rdf:resource="http://purl.org/dc/dcmitype/StillImage" />
        <dc:title></dc:title>
      </cc:Work>
    </rdf:RDF>
  </metadata>
  <g
     inkscape:label="Calque 1"
     inkscape:groupmode="layer"
     id="layer1"
     transform="translate(-62.512813,-114.48883)">
    <g
       transform="matrix(0.61900689,0,0,0.61900689,55.390047,111.36073)"
       id="g6605">
      <path
         sodipodi:nodetypes="sssccscscscssccccsccccsssssscccccsccscsccssscsssssssscsccsccssscscsssss"
         style="fill:#6da132;stroke-width:0.35277775"
         d="m 28.09394,144.14438 c -3.547266,-1.07903 -6.234542,-4.27622 -7.877067,-9.37177 -1.532081,-4.75292 -2.21573,-14.08726 -1.333641,-18.20915 0.876052,-4.09368 3.570326,-7.18086 7.702288,-8.8255 1.772394,-0.70546 2.664351,-0.8125 6.802371,-0.81631 6.619075,-0.006 12.185822,1.30252 20.196237,4.74771 12.692612,5.45895 16.371245,11.19573 10.708311,16.69947 -1.233353,1.19869 -4.578487,3.07201 -14.813438,8.29574 -7.271181,3.71108 -14.137734,6.98637 -15.259005,7.27842 -2.16267,0.56331 -4.665767,0.64559 -6.126056,0.20139 z m 6.705062,-8.45151 c 1.318634,-0.91654 2.235712,-2.9973 1.962623,-4.45299 -0.79371,-4.23084 -6.575575,-5.28273 -8.507043,-1.54768 -1.231424,2.38131 -0.291384,5.2604 2.069898,6.33953 1.641633,0.75025 3.062431,0.64265 4.474522,-0.33886 z M 50.85039,123.00136 c 3.762463,-1.71514 4.716547,-3.82483 2.495768,-5.5187 -2.171555,-1.65632 -11.266291,-4.45463 -16.573027,-5.09926 -5.849941,-0.71061 -8.158638,0.98555 -5.817198,4.2738 1.166106,1.63765 2.494095,2.34196 8.847694,4.69245 6.723302,2.48727 8.598676,2.76768 11.046763,1.65171 z m 7.678924,-15.91877 c -3.496941,-0.74227 -36.79168,-11.819416 -39.03431,-12.986697 -6.487224,-3.376585 -9.186983,-9.123048 -7.49488,-15.952935 1.324785,-5.347268 5.899608,-12.57023 12.009658,-18.961455 7.775659,-8.133482 14.162394,-9.873488 22.078108,-6.014974 2.537333,1.236821 3.571882,2.036395 6.725239,5.197767 5.78129,5.795984 10.413442,13.399844 14.409109,23.653114 2.81524,7.224179 3.66342,10.761969 3.682717,15.360759 0.01217,2.897891 -0.132429,4.205811 -0.570992,5.164991 -0.755495,1.65235 -2.549761,3.44016 -4.104548,4.0898 -1.509913,0.63088 -5.69493,0.87526 -7.700101,0.44963 z M 60.99275,89.72608 c 1.341618,-1.556744 0.425433,-4.788531 -3.480801,-12.278281 -3.128755,-5.999025 -6.312958,-10.681987 -9.043028,-13.299461 -2.271575,-2.177884 -3.360078,-2.741019 -4.867395,-2.518156 -2.022096,0.29898 -3.070797,4.649079 -1.948189,8.081253 0.88555,2.707414 7.062592,15.703885 8.127279,17.099763 1.234747,1.618833 3.538893,2.911644 6.243499,3.5031 2.631045,0.575367 4.117506,0.399391 4.968635,-0.588218 z M 31.229251,85.894092 c 5.357359,-3.011004 3.190639,-11.270089 -2.956638,-11.270089 -3.733552,0 -6.746765,3.572422 -6.031159,7.150456 0.329955,1.649772 1.731626,3.578602 3.085195,4.245511 1.660678,0.818222 4.323858,0.761429 5.902602,-0.125878 z m 51.992933,2.67947 C 80.973875,87.526811 78.260022,85.047806 76.254378,82.208725 74.255148,79.378721 53.002839,37.527955 51.926415,34.301274 46.575425,18.26119 56.618645,8.2193422 80.762183,5.4694421 86.213231,4.8485789 95.151614,4.9359547 98.475387,5.6425949 106.51018,7.3508058 112.31281,12.326315 114.66308,19.52284 c 1.2848,3.934067 1.62758,6.336991 1.62758,11.409383 0,9.415361 -2.23734,19.552825 -6.9567,31.520948 -5.53641,14.040131 -11.697739,23.211668 -17.408132,25.913113 -2.977546,1.408607 -5.970238,1.479878 -8.703644,0.207278 z M 96.19566,67.480254 c 1.640974,-1.107588 3.470384,-4.723398 5.57773,-11.024305 6.14911,-18.385743 6.69503,-31.220832 1.32792,-31.220832 -0.67573,0 -1.64476,0.158221 -2.15339,0.351603 -1.286056,0.488958 -4.660838,3.753739 -5.682779,5.497548 -0.467144,0.797124 -2.255604,5.323724 -3.974348,10.059112 -4.466741,12.306493 -4.633461,12.837138 -4.633461,14.747648 0,5.046479 4.493691,12.382976 7.584722,12.382976 0.427683,0 1.306805,-0.357188 1.953606,-0.79375 z M 74.486027,36.840102 c 1.943417,-0.489358 4.30749,-2.485442 5.155921,-4.353353 0.37913,-0.834691 0.649891,-2.239168 0.649891,-3.371076 0,-6.92475 -8.027525,-10.657658 -13.087801,-6.086005 -1.977821,1.786844 -2.773345,3.509089 -2.763958,5.983756 0.0099,2.609839 0.884764,4.542254 2.797726,6.179679 2.163462,1.851845 4.408642,2.362012 7.248221,1.646999 z"
         id="path6596"
         inkscape:connector-curvature="0" />
      <path
         style="fill:#464646;stroke-width:0.35277775"
         d="m 60.465048,166.3166 c -4.71569,-1.11169 -12.603289,-7.39105 -14.462657,-11.5138 -1.005032,-2.22843 -1.005032,-5.02362 0,-7.25205 2.415677,-5.35624 12.447816,-11.8143 21.811127,-14.04064 4.601104,-1.09402 6.932182,-0.65765 8.278039,1.5496 1.301958,2.13525 0.985263,3.92894 -2.675427,15.15303 -3.835446,11.7599 -4.278143,12.80245 -6.157218,14.50008 -1.987274,1.79538 -3.982843,2.26646 -6.793864,1.60378 z m 2.905058,-5.7892 c 3.559732,-1.84081 2.378498,-6.85167 -1.620288,-6.87333 -3.627483,-0.0196 -4.96384,4.55466 -1.928248,6.60034 1.389522,0.9364 2.152181,0.99507 3.548536,0.27299 z m -2.761524,-12.97893 c 5.719689,-2.71781 6.694742,-3.69641 6.930496,-6.95572 0.133392,-1.84411 0.06863,-2.09095 -0.649369,-2.47521 -1.07878,-0.57735 -2.765283,-0.0579 -7.053287,2.17241 -7.569467,3.93709 -10.929718,7.7498 -8.192282,9.29538 1.630874,0.9208 3.756356,0.43786 8.964442,-2.03686 z m 20.11089,14.18183 c -0.871943,-0.44393 -1.93234,-1.38832 -2.469444,-2.19929 -3.866899,-5.83863 3.058802,-25.47102 8.503334,-24.10454 1.9985,0.5016 3.00676,1.93504 7.125455,10.13025 3.861706,7.68387 4.067404,8.20221 4.067404,10.2495 0,2.02272 -0.08197,2.23786 -1.322917,3.47183 -2.113685,2.10183 -4.747979,2.91786 -9.965972,3.08717 -4.011771,0.13017 -4.547626,0.0729 -5.93786,-0.63492 z m 12.314996,-4.88194 c 1.217252,-1.21725 1.313233,-2.39566 0.300037,-3.68373 -1.482598,-1.88482 -4.913284,-0.75044 -4.913284,1.62461 0,2.83285 2.654628,4.01773 4.613247,2.05912 z m -10.106836,-1.52644 c 1.466666,-1.47684 3.498659,-6.80678 3.530455,-9.26042 0.04146,-3.19965 -2.421452,-5.28863 -3.847303,-3.2632 -0.878377,1.24775 -2.604462,7.00667 -2.866425,9.56356 -0.190224,1.85672 -0.12077,2.49983 0.347102,3.21389 0.77778,1.18704 1.466423,1.12541 2.836171,-0.25383 z m 16.958866,-8.43504 c -4.654264,-2.55873 -9.822528,-14.35593 -7.29236,-16.6457 0.387265,-0.35047 1.244377,-0.58385 2.144289,-0.58385 1.535535,0 11.466873,3.06462 13.872053,4.28064 2.66266,1.34621 3.01761,4.24191 0.92911,7.5798 -1.30564,2.08668 -3.66416,4.59558 -4.96127,5.27758 -1.12455,0.59127 -3.69171,0.64135 -4.691822,0.0915 z m 1.425572,-2.78905 c 0.5198,-0.84107 0.15228,-2.76733 -1.01231,-5.30564 -1.383072,-3.01451 -2.598783,-4.19597 -4.317619,-4.19597 -1.789564,0 -1.881572,0.98504 -0.376463,4.03042 2.050379,4.14867 4.859302,6.84181 5.706392,5.47119 z m 5.80637,-4.56272 c 1.16195,-1.16195 0.90102,-2.68796 -0.59417,-3.47497 -1.06497,-0.56055 -1.4146,-0.51348 -2.22805,0.29997 -0.95874,0.95874 -0.91931,2.6325 0.0785,3.33139 1.05525,0.73913 1.89614,0.6912 2.74372,-0.15639 z"
         id="path6594"
         inkscape:connector-curvature="0" />
    </g>
  </g>
</svg>
