<?xml version="1.0" encoding="UTF-8" standalone="no"?>
<svg
   xmlns:dc="http://purl.org/dc/elements/1.1/"
   xmlns:cc="http://creativecommons.org/ns#"
   xmlns:rdf="http://www.w3.org/1999/02/22-rdf-syntax-ns#"
   xmlns:svg="http://www.w3.org/2000/svg"
   xmlns="http://www.w3.org/2000/svg"
   xmlns:xlink="http://www.w3.org/1999/xlink"
   xmlns:sodipodi="http://sodipodi.sourceforge.net/DTD/sodipodi-0.dtd"
   xmlns:inkscape="http://www.inkscape.org/namespaces/inkscape"
   width="176.02014"
   height="100"
   viewBox="0 0 176.02014 99.999998"
   version="1.1"
   id="svg48"
   sodipodi:docname="logo_trumbowyg.svg"
   inkscape:version="0.92.1 r15371">
  <metadata
     id="metadata52">
    <rdf:RDF>
      <cc:Work
         rdf:about="">
        <dc:format>image/svg+xml</dc:format>
        <dc:type
           rdf:resource="http://purl.org/dc/dcmitype/StillImage" />
        <dc:title></dc:title>
      </cc:Work>
    </rdf:RDF>
  </metadata>
  <sodipodi:namedview
     pagecolor="#ffffff"
     bordercolor="#666666"
     borderopacity="1"
     objecttolerance="10"
     gridtolerance="10"
     guidetolerance="10"
     inkscape:pageopacity="0"
     inkscape:pageshadow="2"
     inkscape:window-width="1366"
     inkscape:window-height="704"
     id="namedview50"
     showgrid="false"
     showguides="true"
     inkscape:guide-bbox="true"
     fit-margin-top="0"
     fit-margin-left="0"
     fit-margin-right="0"
     fit-margin-bottom="0"
     inkscape:zoom="1.549874"
     inkscape:cx="172.1005"
     inkscape:cy="69.92977"
     inkscape:window-x="0"
     inkscape:window-y="27"
     inkscape:window-maximized="1"
     inkscape:current-layer="svg48">
    <sodipodi:guide
       position="0.00041509883,-169.87334"
       orientation="1,0"
       id="guide7435"
       inkscape:locked="false" />
  </sodipodi:namedview>
  <defs
     id="defs3">
    <path
       id="a"
       d="M 0,0 H 1522 V 287.26 H 0 Z"
       inkscape:connector-curvature="0" />
  </defs>
  <clipPath
     id="b">
    <use
       xlink:href="#a"
       overflow="visible"
       id="use5"
       style="overflow:visible"
       x="0"
       y="0"
       width="100%"
       height="100%" />
  </clipPath>
  <g
     id="g7492"
     transform="matrix(0.70147193,0,0,0.70147193,-891.62014,-30.988925)">
    <path
       id="path14"
       d="m 1514.873,48.480469 c -1.2883,-0.02511 -2.645,0.311078 -3.9687,1.080078 -37.5095,37.512588 -94.0731,53.667053 -239.834,59.134763 v 9.03907 c 141.4531,5.23696 200.865,20.84932 239.834,59.81835 5.295,3.076 11.0957,-0.74804 11.0957,-6.87304 V 56.470703 c 0,-4.59375 -3.2619,-7.914906 -7.127,-7.990234 z"
       clip-path="url(#b)"
       style="fill:#ffd23e;fill-opacity:1"
       inkscape:connector-curvature="0" />
    <path
       id="path22"
       d="m 1271.0703,146.78711 v 5 h 114.6348 6.2383 12.205 c 4.143,0 7.8699,1.67272 10.5879,4.38672 2.713,2.718 4.3828,6.44484 4.3848,10.58984 0,4.14 -1.6718,7.86794 -4.3848,10.58594 -2.72,2.713 -6.4449,4.38376 -10.5879,4.38477 h -133.0781 v 5 h 133.0762 c 11.032,-0.002 19.9736,-8.94166 19.9746,-19.97266 0,-11.033 -8.9426,-19.97456 -19.9746,-19.97656 v 0.002 h -13.6113 -5.7969 z"
       clip-path="url(#b)"
       style="fill:#ffd23e"
       inkscape:connector-curvature="0" />
    <path
       id="path34"
       clip-path="url(#b)"
       d="m 1515.063,183.442 h -1.125 c -3.83,0 -6.938,-3.105 -6.938,-6.937 V 51.115 c 0,-3.832 3.107,-6.938 6.938,-6.938 h 1.125 c 3.83,0 6.937,3.106 6.937,6.937 v 125.392 c 0,3.83 -3.106,6.936 -6.937,6.936"
       inkscape:connector-curvature="0"
       style="fill:#ffbf40" />
    <path
       id="path46"
       d="m 1271.0703,114.32812 v 5.59376 c 24.0544,0.74922 46.5768,1.35742 65.7422,1.35742 11.178,0.887 42.0513,3.54751 62.8809,7.41992 54.928,9.307 86.9139,24.55551 111.2109,48.85351 5.296,3.077 11.0957,-0.74809 11.0957,-6.87109 v -12.78125 c -32.64,-29.156 -80.0406,-39.29716 -122.3066,-42.66016 -4.445,-0.08 -40.0916,-1.57812 -44.2286,-1.57812 v 0.002 c -15.9361,0 -52.3467,0.37217 -84.3945,0.66406 z"
       clip-path="url(#b)"
       style="fill:#fcc74f"
       inkscape:connector-curvature="0" />
  </g>
</svg>
