<?xml version="1.0" encoding="UTF-8" standalone="no"?>
<!-- Created with Inkscape (http://www.inkscape.org/) -->

<svg
   xmlns:dc="http://purl.org/dc/elements/1.1/"
   xmlns:cc="http://creativecommons.org/ns#"
   xmlns:rdf="http://www.w3.org/1999/02/22-rdf-syntax-ns#"
   xmlns:svg="http://www.w3.org/2000/svg"
   xmlns="http://www.w3.org/2000/svg"
   xmlns:sodipodi="http://sodipodi.sourceforge.net/DTD/sodipodi-0.dtd"
   xmlns:inkscape="http://www.inkscape.org/namespaces/inkscape"
   width="137.98079mm"
   height="100mm"
   viewBox="0 0 137.98079 100"
   version="1.1"
   id="svg7629"
   inkscape:version="0.92.1 r15371"
   sodipodi:docname="logo_vieille_mule.svg">
  <defs
     id="defs7623" />
  <sodipodi:namedview
     id="base"
     pagecolor="#ffffff"
     bordercolor="#666666"
     borderopacity="1.0"
     inkscape:pageopacity="0.0"
     inkscape:pageshadow="2"
     inkscape:zoom="0.35"
     inkscape:cx="22.263362"
     inkscape:cy="214.82104"
     inkscape:document-units="mm"
     inkscape:current-layer="layer1"
     showgrid="false"
     fit-margin-top="0"
     fit-margin-left="0"
     fit-margin-right="0"
     fit-margin-bottom="0"
     inkscape:window-width="1366"
     inkscape:window-height="704"
     inkscape:window-x="0"
     inkscape:window-y="27"
     inkscape:window-maximized="1" />
  <metadata
     id="metadata7626">
    <rdf:RDF>
      <cc:Work
         rdf:about="">
        <dc:format>image/svg+xml</dc:format>
        <dc:type
           rdf:resource="http://purl.org/dc/dcmitype/StillImage" />
        <dc:title></dc:title>
      </cc:Work>
    </rdf:RDF>
  </metadata>
  <g
     inkscape:label="Calque 1"
     inkscape:groupmode="layer"
     id="layer1"
     transform="translate(-99.942819,-105.6714)">
    <g
       transform="matrix(1.9929798,0,0,1.9929798,-12.815231,83.945378)"
       id="g7586">
      <path
         sodipodi:nodetypes="csssssssscc"
         inkscape:connector-curvature="0"
         id="path6592"
         d="m 73.237744,11.931619 c 0.343131,3.993201 0.717132,7.986825 0.485635,11.979605 -0.01869,0.322392 -0.06674,0.395618 0.234862,0.316565 1.651612,-0.4329 3.575279,-0.132356 5.095705,-0.628899 0.26949,-0.08801 0.240822,-0.173518 0.234396,-0.405983 -0.01534,-0.554959 0.05471,-1.2516 -1.078597,-1.229956 -0.812312,0.01551 -1.390814,0.802965 -2.48126,0.767605 -0.331748,-0.01076 -0.3577,-0.05225 -0.355527,-0.342749 0.02467,-3.299325 -0.179451,-6.607451 -0.537492,-9.89622 -0.0713,-0.654881 -0.533633,-1.055897 -1.224695,-1.059776 -0.442753,-0.02456 -0.403745,0.141667 -0.373027,0.499808 z"
         style="fill:#b50111;fill-opacity:1;fill-rule:evenodd;stroke:none;stroke-width:0.26458332px;stroke-linecap:butt;stroke-linejoin:miter;stroke-opacity:1" />
      <path
         sodipodi:nodetypes="sssssssss"
         inkscape:connector-curvature="0"
         id="path6594"
         d="m 83.354683,23.349412 c -0.09739,0.903946 1.490119,0.683778 1.436574,0 -0.218429,-2.789366 0.873295,-5.288529 1.543572,-7.11742 0.144354,-0.393879 0.237104,-0.315978 0.307293,-0.01822 0.614472,2.606727 0.359918,5.026516 1.089099,7.402908 0.161102,0.52503 1.839044,0.776478 1.570209,-0.100226 -1.23959,-4.042451 -1.514662,-8.126209 -1.503392,-12.127354 0.0018,-0.645055 -0.976259,-0.655789 -1.269529,0 -1.464938,3.275791 -2.638044,6.987461 -3.173826,11.960312 z"
         style="fill:#b50111;fill-opacity:1;fill-rule:evenodd;stroke:none;stroke-width:0.26458332px;stroke-linecap:butt;stroke-linejoin:miter;stroke-opacity:1" />
      <path
         sodipodi:nodetypes="csssscsscc"
         inkscape:connector-curvature="0"
         id="path6596"
         d="m 79.563988,17.155877 c 1.318607,2.969263 3.188118,2.581889 5.125416,1.464914 0.304294,-0.175444 0.37014,-0.15703 0.599515,0.04471 0.664828,0.584723 1.370672,1.162495 2.356046,0.172402 0.250927,-0.252128 0.315708,-0.185496 0.567283,-0.02546 1.561302,0.993225 3.144587,1.63235 4.935258,-1.373086 0.412351,3.357923 -2.562721,7.017046 -6.345784,3.406945 -0.225807,-0.215483 -0.224401,-0.245612 -0.365999,0.0018 -1.168743,2.041903 -6.256606,3.381099 -6.871735,-3.6922 z"
         style="fill:#6f244d;fill-opacity:1;fill-rule:evenodd;stroke:none;stroke-width:0.26458332px;stroke-linecap:butt;stroke-linejoin:miter;stroke-opacity:1" />
      <path
         sodipodi:nodetypes="cccscccsccccccccccc"
         inkscape:connector-curvature="0"
         id="path7536"
         style="font-style:normal;font-variant:normal;font-weight:bold;font-stretch:normal;font-size:15.64077663px;line-height:125%;font-family:STIX;-inkscape-font-specification:'STIX Bold';letter-spacing:0px;word-spacing:0px;fill:none;fill-opacity:1;stroke:#572933;stroke-width:0.29100001;stroke-linecap:butt;stroke-linejoin:round;stroke-miterlimit:4;stroke-dasharray:none;stroke-opacity:1"
         d="m 88.114787,22.947404 h -2.915842 v 0.391019 c 1.110495,0.0782 1.345107,0.18769 1.345107,0.688194 0,0.250253 -0.04692,0.422301 -0.312816,1.110496 l -1.986378,5.145815 -2.158428,-5.224019 c -0.312815,-0.750758 -0.359737,-0.891525 -0.359737,-1.126136 0,-0.359738 0.234611,-0.531787 0.828961,-0.563068 l 0.516145,-0.03128 v -0.391019 h -5.255301 v 0.391019 c 0.782039,0.109486 0.938447,0.218971 1.313826,1.094855 l 4.004039,9.368825 h 0.0067 l 3.566098,-9.181136 c 0.375378,-0.969728 0.594349,-1.173058 1.407669,-1.282544 z"
         transform="scale(0.85254166,1.1729632)" />
      <path
         inkscape:connector-curvature="0"
         id="path7538"
         style="font-style:normal;font-variant:normal;font-weight:bold;font-stretch:normal;font-size:15.64077663px;line-height:125%;font-family:STIX;-inkscape-font-specification:'STIX Bold';letter-spacing:0px;word-spacing:0px;fill:none;fill-opacity:1;stroke:#572933;stroke-width:0.29100001;stroke-linecap:butt;stroke-linejoin:round;stroke-miterlimit:4;stroke-dasharray:none;stroke-opacity:1"
         d="m 94.656238,33.520569 v -0.39102 c -1.188699,-0.0782 -1.485873,-0.250252 -1.485873,-1.266902 v -7.351165 c 0,-0.875884 0.328456,-1.126136 1.485873,-1.173059 v -0.391019 h -5.474271 v 0.391019 c 1.126136,0.0782 1.454592,0.297175 1.454592,1.173059 v 7.351165 c 0,0.969728 -0.281534,1.157417 -1.454592,1.266902 v 0.39102 z"
         transform="scale(0.85254166,1.1729632)" />
      <path
         sodipodi:nodetypes="cccssccccccsscccccsscccc"
         inkscape:connector-curvature="0"
         id="path7540"
         style="font-style:normal;font-variant:normal;font-weight:bold;font-stretch:normal;font-size:15.64077663px;line-height:125%;font-family:STIX;-inkscape-font-specification:'STIX Bold';letter-spacing:0px;word-spacing:0px;fill:none;fill-opacity:1;stroke:#572933;stroke-width:0.29100001;stroke-linecap:butt;stroke-linejoin:round;stroke-miterlimit:4;stroke-dasharray:none;stroke-opacity:1"
         d="m 104.97402,30.267287 h -0.43794 c -0.46923,1.016651 -0.75076,1.485874 -1.28255,1.923816 -0.73511,0.60999 -1.62664,0.844602 -2.84662,0.844602 -1.016649,0 -1.298183,-0.20333 -1.298183,-0.875884 v -3.92748 c 1.704843,0 2.377393,0.563068 2.533803,2.424321 h 0.40666 v -4.930554 h -0.40666 c -0.18769,1.81433 -0.87588,2.286353 -2.533803,2.301994 v -3.70431 c 0,-0.594349 0.20333,-0.844602 1.016653,-0.844602 2.54944,0 3.34712,0.516146 3.70686,2.61201 h 0.39102 v -3.143796 h -9.024727 v 0.391019 c 1.079213,0.06256 1.376388,0.312816 1.376388,1.110495 v 7.491932 c 0,0.813321 -0.218971,1.063573 -1.376388,1.188699 v 0.39102 h 9.149857 z"
         transform="scale(0.85254166,1.1729632)" />
      <path
         inkscape:connector-curvature="0"
         id="path7542"
         style="font-style:normal;font-variant:normal;font-weight:bold;font-stretch:normal;font-size:15.64077663px;line-height:125%;font-family:STIX;-inkscape-font-specification:'STIX Bold';letter-spacing:0px;word-spacing:0px;fill:none;fill-opacity:1;stroke:#572933;stroke-width:0.29100001;stroke-linecap:butt;stroke-linejoin:round;stroke-miterlimit:4;stroke-dasharray:none;stroke-opacity:1"
         d="m 111.18292,33.520569 v -0.39102 c -1.1887,-0.0782 -1.48587,-0.250252 -1.48587,-1.266902 v -7.351165 c 0,-0.875884 0.32845,-1.126136 1.48587,-1.173059 v -0.391019 h -5.47427 v 0.391019 c 1.12613,0.0782 1.45459,0.297175 1.45459,1.173059 v 7.351165 c 0,0.969728 -0.28153,1.157417 -1.45459,1.266902 v 0.39102 z"
         transform="scale(0.85254166,1.1729632)" />
      <path
         inkscape:connector-curvature="0"
         id="path7544"
         style="font-style:normal;font-variant:normal;font-weight:bold;font-stretch:normal;font-size:15.64077663px;line-height:125%;font-family:STIX;-inkscape-font-specification:'STIX Bold';letter-spacing:0px;word-spacing:0px;fill:none;fill-opacity:1;stroke:#572933;stroke-width:0.29100001;stroke-linecap:butt;stroke-linejoin:round;stroke-miterlimit:4;stroke-dasharray:none;stroke-opacity:1"
         d="m 121.45378,29.970113 h -0.45359 c -0.4223,0.969728 -0.82896,1.720485 -1.36074,2.205349 -0.64128,0.578709 -1.36075,0.860243 -2.65894,0.860243 -1.01665,0 -1.32946,-0.234612 -1.32946,-0.907165 v -7.257321 c 0,-1.282543 0.20333,-1.485873 1.56408,-1.548437 v -0.391019 l -5.44299,0.01564 v 0.391019 c 1.06357,0.06256 1.3451,0.281534 1.3451,1.173059 v 7.476291 c 0,0.828961 -0.20333,1.001009 -1.3451,1.141776 v 0.39102 h 9.02472 z"
         transform="scale(0.85254166,1.1729632)" />
      <path
         inkscape:connector-curvature="0"
         id="path7546"
         style="font-style:normal;font-variant:normal;font-weight:bold;font-stretch:normal;font-size:15.64077663px;line-height:125%;font-family:STIX;-inkscape-font-specification:'STIX Bold';letter-spacing:0px;word-spacing:0px;fill:none;fill-opacity:1;stroke:#572933;stroke-width:0.29100001;stroke-linecap:butt;stroke-linejoin:round;stroke-miterlimit:4;stroke-dasharray:none;stroke-opacity:1"
         d="m 131.90133,29.970113 h -0.45358 c -0.42231,0.969728 -0.82897,1.720485 -1.36075,2.205349 -0.64127,0.578709 -1.36075,0.860243 -2.65893,0.860243 -1.01666,0 -1.32947,-0.234612 -1.32947,-0.907165 v -7.257321 c 0,-1.282543 0.20333,-1.485873 1.56408,-1.548437 v -0.391019 l -5.44299,0.01564 v 0.391019 c 1.06357,0.06256 1.3451,0.281534 1.3451,1.173059 v 7.476291 c 0,0.828961 -0.20333,1.001009 -1.3451,1.141776 v 0.39102 h 9.02472 z"
         transform="scale(0.85254166,1.1729632)" />
      <path
         sodipodi:nodetypes="cccccsscccccccccccccscsccccccccccccscscccccccccccccccscsccccccccccscscccsccccssccc"
         inkscape:connector-curvature="0"
         id="path7548"
         d="m 132.60547,22.802734 c -0.0742,0.0075 -0.13074,0.06993 -0.13086,0.144532 v 0.390625 c -6.6e-4,0.07743 0.0594,0.141807 0.13672,0.146484 0.52919,0.03068 0.84423,0.111498 1.00976,0.246094 0.16554,0.134596 0.23047,0.337979 0.23047,0.71875 v 7.492187 c 0,0.393603 -0.0507,0.603167 -0.20703,0.744141 -0.1563,0.140974 -0.46968,0.237274 -1.03906,0.298828 -0.0742,0.0075 -0.13074,0.06993 -0.13086,0.144531 v 0.392578 c 5.4e-4,0.08036 0.0661,0.145067 0.14648,0.144532 h 9.14844 c 0.0694,-7.2e-5 0.12907,-0.04913 0.14258,-0.117188 l 0.62695,-3.253906 c 0.0178,-0.08992 -0.0509,-0.173731 -0.14258,-0.173828 h -0.43945 c -0.0566,7.42e-4 -0.10768,0.03427 -0.13086,0.08594 -0.46709,1.012012 -0.73226,1.449553 -1.24414,1.871094 0,6.67e-4 0,0.0013 0,0.002 -0.70473,0.584781 -1.55258,0.810547 -2.75391,0.810547 -0.49862,0 -0.79705,-0.05754 -0.94726,-0.160156 -0.15021,-0.102617 -0.20508,-0.254338 -0.20508,-0.570313 v -3.601562 c 0.72453,0.02133 1.27175,0.128393 1.60352,0.4375 0.36164,0.33695 0.56377,0.899947 0.64062,1.814453 0.006,0.07576 0.0686,0.134459 0.14453,0.134765 h 0.40625 c 0.0811,5.46e-4 0.14703,-0.06536 0.14649,-0.146484 v -5.287109 c -5.4e-4,-0.08036 -0.0661,-0.145072 -0.14649,-0.144531 h -0.40625 c -0.0746,1.25e-4 -0.13702,0.05664 -0.14453,0.130859 -0.0921,0.890422 -0.30466,1.424925 -0.66797,1.744141 -0.33239,0.292054 -0.87223,0.389834 -1.57617,0.416015 v -3.333984 c 0,-0.280583 0.0452,-0.439205 0.1543,-0.53711 0.10909,-0.0979 0.32506,-0.162109 0.7168,-0.162109 1.2649,0 2.07188,0.133089 2.59179,0.494141 0.51992,0.361051 0.79548,0.963871 0.97266,1.996093 0.0118,0.06961 0.072,0.120671 0.14258,0.121094 h 0.39062 c 0.0804,5.41e-4 0.14595,-0.06417 0.14649,-0.144531 v -3.144531 c -5.4e-4,-0.08036 -0.0661,-0.145073 -0.14649,-0.144532 h -9.02344 c -0.005,-2.79e-4 -0.0104,-2.79e-4 -0.0156,0 z m 0.16015,0.291016 H 141.5 v 2.851562 h -0.13867 c -0.18515,-0.984194 -0.47794,-1.664528 -1.05664,-2.066406 -0.60622,-0.420988 -1.47328,-0.544922 -2.75781,-0.544922 -0.42159,0 -0.71426,0.06052 -0.91016,0.236328 -0.1959,0.17581 -0.25195,0.44014 -0.25195,0.753907 v 3.519531 c 5.4e-4,0.08036 0.0661,0.145066 0.14648,0.144531 0.84341,-0.008 1.47187,-0.138814 1.91406,-0.527343 0.41234,-0.362297 0.60693,-0.978974 0.71289,-1.802735 h 0.16797 v 4.996094 h -0.16601 c -0.0911,-0.847178 -0.27283,-1.488382 -0.6836,-1.871094 -0.43994,-0.409897 -1.07687,-0.554687 -1.94531,-0.554687 -0.0811,-5.4e-4 -0.14702,0.06536 -0.14648,0.146484 v 3.785156 c 0,0.356579 0.0873,0.64336 0.33203,0.810547 0.24472,0.167187 0.5933,0.210938 1.11132,0.210938 1.23864,0 2.17397,-0.243708 2.93946,-0.878907 0.52819,-0.434976 0.82767,-0.954625 1.26562,-1.890625 h 0.18555 l -0.34834,1.815937 c -0.10438,0.544141 -0.78048,1.146954 -1.688,1.146954 h -7.41679 v -0.140625 c 0.48504,-0.06296 0.85762,-0.138613 1.07422,-0.333984 0.24255,-0.218764 0.30274,-0.539267 0.30274,-0.958985 v -7.492187 c 0,-0.416908 -0.085,-0.737768 -0.33789,-0.94336 -0.22341,-0.181652 -0.58876,-0.237396 -1.03907,-0.27539 z"
         style="color:#000000;font-style:normal;font-variant:normal;font-weight:bold;font-stretch:normal;font-size:medium;line-height:125%;font-family:STIX;-inkscape-font-specification:'STIX Bold';font-variant-ligatures:normal;font-variant-position:normal;font-variant-caps:normal;font-variant-numeric:normal;font-variant-alternates:normal;font-feature-settings:normal;text-indent:0;text-align:start;text-decoration:none;text-decoration-line:none;text-decoration-style:solid;text-decoration-color:#000000;letter-spacing:0px;word-spacing:0px;text-transform:none;writing-mode:lr-tb;direction:ltr;text-orientation:mixed;dominant-baseline:auto;baseline-shift:baseline;text-anchor:start;white-space:normal;shape-padding:0;clip-rule:nonzero;display:inline;overflow:visible;visibility:visible;opacity:1;isolation:auto;mix-blend-mode:normal;color-interpolation:sRGB;color-interpolation-filters:linearRGB;solid-color:#000000;solid-opacity:1;vector-effect:none;fill:#572933;fill-opacity:1;fill-rule:nonzero;stroke:none;stroke-width:0.29100001;stroke-linecap:butt;stroke-linejoin:round;stroke-miterlimit:4;stroke-dasharray:none;stroke-dashoffset:0;stroke-opacity:1;color-rendering:auto;image-rendering:auto;shape-rendering:auto;text-rendering:auto;enable-background:accumulate"
         transform="scale(0.85254166,1.1729632)" />
      <path
         sodipodi:nodetypes="sssssssssssssssss"
         inkscape:connector-curvature="0"
         id="path7445"
         d="m 72.864355,55.78925 c -0.04195,0.934139 1.94609,1.11932 2.00452,-0.167044 0.0905,-1.992429 0.167524,-4.054272 0.581863,-6.555581 0.04622,-0.279035 0.274737,-0.205402 0.328524,-0.09275 0.717719,1.503233 0.525889,3.08696 1.19436,4.409949 0.335485,0.663966 1.429896,0.963233 1.870887,-0.03341 0.430142,-0.972124 0.582817,-2.226345 1.169305,-3.708366 0.179381,-0.453286 0.715068,0.05226 0.634765,0.434314 -0.34318,1.632725 -0.36998,2.990139 -0.420127,4.672816 -0.02687,0.901503 2.217511,1.275266 2.157378,0.0044 -0.191406,-4.045209 0.152613,-8.094392 0.534541,-12.294399 0.09291,-1.021716 -1.386717,-0.362127 -1.937705,0 -1.648498,1.083445 -1.83224,3.734286 -2.372016,6.514695 -0.08689,0.447585 -1.016232,0.604995 -1.03567,0 -0.106741,-3.322197 -1.122742,-5.59369 -2.204974,-8.352173 -0.172605,-0.439949 -0.973353,-0.829007 -1.135895,0.267271 C 73.478382,45.98606 73.064336,51.3357 72.864355,55.78925 Z"
         style="fill:#b40519;fill-opacity:1;fill-rule:evenodd;stroke:none;stroke-width:0.26458332px;stroke-linecap:butt;stroke-linejoin:miter;stroke-opacity:1" />
      <path
         sodipodi:nodetypes="ssssssss"
         inkscape:connector-curvature="0"
         id="path7447"
         d="m 88.198943,41.323286 c 0.440753,-1.130082 1.452232,-0.01513 1.403165,0.467722 -0.355166,3.49507 -1.273204,6.923117 -0.400905,10.289876 0.492093,1.8993 1.999664,1.395123 2.33861,0.668176 1.400864,-3.004474 1.300647,-6.255722 1.23612,-9.888974 -0.0073,-0.41144 1.166302,-0.565479 1.202714,0 0.655164,10.17477 -2.282984,13.507991 -4.457474,12.559878 -2.401844,-1.047243 -3.986352,-7.265915 -1.32223,-14.096678 z"
         style="fill:#b40519;fill-opacity:1;fill-rule:evenodd;stroke:none;stroke-width:0.26458332px;stroke-linecap:butt;stroke-linejoin:miter;stroke-opacity:1" />
      <path
         sodipodi:nodetypes="cccssssc"
         inkscape:connector-curvature="0"
         id="path7449"
         d="m 97.753828,41.924644 1.637027,1.637025 c -1.123356,2.783996 -2.123369,5.725596 -1.670436,10.523738 0.867878,0.01211 1.513948,-0.525074 3.006781,-0.501131 0.58498,0.0094 0.2197,1.445041 -0.797752,1.424415 -1.438853,-0.02917 -1.590206,0.471608 -2.540741,1.098432 -0.377081,0.248664 -1.132623,0.295624 -1.13827,-0.326225 -0.04888,-5.382402 0.209601,-10.507494 1.503391,-13.856254 z"
         style="fill:#b40519;fill-opacity:1;fill-rule:evenodd;stroke:none;stroke-width:0.26458332px;stroke-linecap:butt;stroke-linejoin:miter;stroke-opacity:1" />
      <path
         sodipodi:nodetypes="csssccsssscc"
         inkscape:connector-curvature="0"
         id="path7453"
         d="m 108.33743,54.811755 c 1.31211,-0.200281 3.19942,-0.32756 4.37034,0 1.71352,0.479353 3.16886,1.606814 4.37035,2.905691 0.54636,0.59064 1.47365,0.823365 1.55916,0.04725 0.14567,-1.322151 -0.1601,-2.274844 -0.11812,-3.330914 1.38591,-0.40812 2.77183,-0.426304 4.15774,0.04725 0.11401,1.556345 -4e-4,2.91099 -0.16537,4.157739 -0.12506,0.945151 -0.49646,1.847901 -1.58277,2.149739 -1.21144,0.336605 -2.46236,0.481011 -3.26005,-0.141742 -2.37109,-1.851094 -4.1217,-4.15302 -6.16574,-4.771949 -1.25812,-0.380956 -2.26319,-0.3041 -3.33091,-0.307107 z"
         style="fill:#6e2150;fill-opacity:1;fill-rule:evenodd;stroke:none;stroke-width:0.26458332px;stroke-linecap:butt;stroke-linejoin:miter;stroke-opacity:1" />
      <path
         sodipodi:nodetypes="csssssssssssssc"
         inkscape:connector-curvature="0"
         id="path7455"
         d="m 120.92876,54.835379 c 0.0108,-3.608007 -1.28113,-3.692632 -2.62221,-4.039621 -2.1218,-0.548989 -5.27764,0.473196 -6.4256,-1.393788 -0.80484,-1.308945 0.0105,-3.199329 1.65365,-3.165549 2.6023,0.0535 4.31964,3.549704 6.92169,3.614396 1.8633,0.04633 4.71221,-0.511307 5.07905,-2.338729 0.25887,-1.289529 -0.67002,-3.049174 -2.66946,-2.905691 -1.95603,0.140369 -3.88796,2.522577 -5.64601,1.653646 -0.82461,-0.407571 -1.09801,-1.661234 -0.99219,-2.574962 0.174,-1.502451 1.46883,-2.468305 2.74033,-2.787576 0.9524,-0.239147 2.29832,0.672892 2.12611,1.842635 -0.31562,2.143883 -3.9518,2.16103 -6.11849,2.196986 -0.48802,0.0081 -1.10211,-0.05749 -1.39378,-0.448847 -0.21651,-0.290505 -0.25729,-0.809802 -0.0236,-1.08668 0.27726,-0.328501 1.27567,-0.18899 1.27567,-0.18899"
         style="fill:none;fill-rule:evenodd;stroke:#572933;stroke-width:0.465;stroke-linecap:butt;stroke-linejoin:miter;stroke-miterlimit:4;stroke-dasharray:none;stroke-opacity:1" />
      <path
         sodipodi:nodetypes="csssc"
         inkscape:connector-curvature="0"
         id="path7457"
         d="m 74.284223,44.714268 -1.705318,-0.01669 c -3.075191,-0.0301 -6.249173,3.410851 -5.582626,5.720216 1.376609,4.7695 1.227677,7.671431 -0.236236,7.9375 -4.177233,0.75922 -4.720153,-1.481873 -6.661829,-2.882068"
         style="fill:none;fill-rule:evenodd;stroke:#b40519;stroke-width:0.465;stroke-linecap:butt;stroke-linejoin:miter;stroke-miterlimit:4;stroke-dasharray:none;stroke-opacity:1" />
      <path
         sodipodi:nodetypes="cccccccccc"
         inkscape:connector-curvature="0"
         id="path7459"
         d="m 60.181736,55.753024 -2.351292,-0.815695 -1.252826,-1.403165 h 1.169302 l 0.835219,-1.68714 0.701582,0.80181 0.701582,-0.350793 0.367496,2.021226 -0.02884,1.129086 z"
         style="fill:#b40519;fill-opacity:1;fill-rule:evenodd;stroke:none;stroke-width:0.26458332px;stroke-linecap:butt;stroke-linejoin:miter;stroke-opacity:1" />
      <path
         sodipodi:nodetypes="cssssscsscssssssssc"
         inkscape:connector-curvature="0"
         id="path7451"
         d="m 102.95174,57.494424 c 0.0589,0.623738 1.42274,0.571157 1.60362,0 0.50923,-1.60799 2.57262,-0.551981 3.74953,-1.327894 0.90626,-0.597478 1.15891,-1.672515 0.35401,-1.840486 -1.0494,-0.218994 -1.67526,0.471166 -3.26022,1.007295 -0.31418,0.106275 -0.85014,0.29478 -0.9297,-0.07863 -0.31458,-1.476407 -0.2638,-3.008214 0.16704,-4.543584 1.15961,-0.267799 2.42417,-0.168234 3.70836,0 1.06546,0.13958 0.8488,-2.012572 0.0668,-1.870884 -1.10249,0.199757 -2.20497,0.242613 -3.30746,0.03341 0.33894,-1.667296 0.83669,-3.34062 2.3052,-4.075858 1.43285,-0.71738 3.069,-0.402158 4.57699,-0.668174 0.60309,-0.106388 0.25192,-1.329172 -0.83522,-1.403165 -1.01807,-0.06929 -2.0118,-0.12964 -3.04019,0.367496 -0.60039,0.290237 -1.28162,0.312557 -1.90429,0.100224 -0.2511,-0.08563 -0.27626,-0.358009 -0.46772,-0.567946 -0.15968,-0.175095 -0.57495,-0.204011 -0.66818,0.100226 -1.35956,4.436781 -2.11857,9.176364 -2.11857,14.767972 z"
         style="fill:#b40519;fill-opacity:1;fill-rule:evenodd;stroke:none;stroke-width:0.26458332px;stroke-linecap:butt;stroke-linejoin:miter;stroke-opacity:1" />
      <path
         sodipodi:nodetypes="cccccccccccccccccc"
         style="fill:none;fill-rule:evenodd;stroke:#572933;stroke-width:0.16500001;stroke-linecap:butt;stroke-linejoin:miter;stroke-miterlimit:4;stroke-dasharray:none;stroke-opacity:1"
         d="m 120.78304,28.304555 h -0.62799 m -3.77587,0 h -1.54184 m -7.31147,0 h -1.5366 m -7.46704,0 h -1.660794 m -3.300397,0 h -1.861246 m -2.732449,0 h -0.601356 m -3.708365,0 h -1.319644 m -3.92552,0 h -1.862535 m -8.061364,0 h -1.748139"
         id="path7465"
         inkscape:connector-curvature="0" />
      <path
         sodipodi:nodetypes="cccccccccccccccccc"
         inkscape:connector-curvature="0"
         id="path7467"
         d="m 120.7056,29.724215 h -0.36749 m -3.96753,-1e-6 h -1.08894 m -7.80959,0 -1.62452,-1e-6 m -7.191665,0 h -0.971659 m -4.156575,0 -1.075099,-10e-7 m -3.501892,0 h -0.355597 m -4.004237,0 h -1.820774 m -3.407686,0 h -2.071339 m -7.861505,-1e-6 h -1.511905"
         style="fill:none;fill-rule:evenodd;stroke:#572933;stroke-width:0.16500001;stroke-linecap:butt;stroke-linejoin:miter;stroke-miterlimit:4;stroke-dasharray:none;stroke-opacity:1" />
      <path
         sodipodi:nodetypes="cccccccccccccccccc"
         style="fill:none;fill-rule:evenodd;stroke:#572933;stroke-width:0.16500001;stroke-linecap:butt;stroke-linejoin:miter;stroke-miterlimit:4;stroke-dasharray:none;stroke-opacity:1"
         d="m 118.86862,31.14388 h -0.43446 m -2.1051,-1e-6 h -1.50032 m -7.40309,-10e-7 h -0.94231 m -7.927701,-2e-6 h -1.698256 m -3.379866,0 -1.814345,-10e-7 m -4.750462,-1e-6 h -0.367496 m -2.088043,0 h -1.586913 m -3.524617,-1e-6 h -1.403165 m -7.508975,-10e-7 -1.630022,-1e-6"
         id="path7469"
         inkscape:connector-curvature="0" />
      <path
         sodipodi:nodetypes="ccccccccccccccccc"
         inkscape:connector-curvature="0"
         id="path7471"
         d="m 118.42787,32.563547 h -2.01529 -1.64695 m -7.33998,0 h -1.52884 m -7.307763,0 h -1.74718 m -3.330941,0 h -1.493402 m -5.021293,0 h -0.643117 m -1.84583,0 h -1.135896 m -3.908816,0 h -0.993909 m -7.562692,0 h -1.771763"
         style="fill:none;fill-rule:evenodd;stroke:#572933;stroke-width:0.16500001;stroke-linecap:butt;stroke-linejoin:miter;stroke-miterlimit:4;stroke-dasharray:none;stroke-opacity:1" />
      <path
         sodipodi:nodetypes="cccccccccccccccccc"
         style="fill:none;fill-rule:evenodd;stroke:#572933;stroke-width:0.16500001;stroke-linecap:butt;stroke-linejoin:miter;stroke-miterlimit:4;stroke-dasharray:none;stroke-opacity:1"
         d="m 118.61805,33.983196 h -0.58514 m -1.65373,0 h -1.16471 m -7.74242,0 h -1.79798 m -7.001501,0 h -1.12689 m -4.10157,0 h -1.583843 m -4.84733,0 h -0.409257 m -2.096395,0 h -1.737252 m -3.374278,0 h -1.5368 m -6.551383,0 h -1.559152"
         id="path7473"
         inkscape:connector-curvature="0" />
      <path
         sodipodi:nodetypes="cccccccccccccccccc"
         inkscape:connector-curvature="0"
         id="path7475"
         d="m 118.81801,35.402861 h -0.30068 m -2.22168,0 h -1.62619 m -7.14359,0 h -1.14849 m -7.85515,0 h -1.586217 m -3.4752,0 H 92.35028 m -5.337344,0 h -0.434313 m -2.03793,0 h -2.221678 m -2.923261,0 h -1.662082 m -5.800078,0 h -2.350539"
         style="fill:none;fill-rule:evenodd;stroke:#572933;stroke-width:0.16500001;stroke-linecap:butt;stroke-linejoin:miter;stroke-miterlimit:4;stroke-dasharray:none;stroke-opacity:1" />
      <path
         sodipodi:nodetypes="cccccccccccccccccccccc"
         style="fill:none;fill-rule:evenodd;stroke:#572933;stroke-width:0.16500001;stroke-linecap:butt;stroke-linejoin:miter;stroke-miterlimit:4;stroke-dasharray:none;stroke-opacity:1"
         d="m 121.32366,36.822511 h -0.47883 m -4.56588,0 h -0.71501 m -3.34415,0 h -0.51427 m -4.16294,0 h -1.93533 m -2.19065,0 h -0.56523 m -4.128688,0 h -1.393668 m -3.851497,0 h -1.837478 m -2.647638,0 h -0.342439 m -4.109269,0 h -1.687139 m -3.441095,0 h -0.885331 m -7.254992,0 h -0.921317"
         id="path7477"
         inkscape:connector-curvature="0" />
      <path
         sodipodi:nodetypes="cccccccccccccccccccccc"
         inkscape:connector-curvature="0"
         id="path7479"
         d="m 120.99817,38.24216 h -0.97221 m -3.60324,0 h -1.90919 m -2.99888,0 h -1.04881 m -2.90621,0 h -1.78737 m -3.29669,0 h -0.81292 m -3.020276,0 h -1.805749 m -3.242177,0 h -1.916599 m -2.593574,0 h -1.486687 m -3.157121,0 h -1.119191 m -3.741774,0 h -2.472243 m -5.841029,0 h -0.868164"
         style="fill:none;fill-rule:evenodd;stroke:#572933;stroke-width:0.16500001;stroke-linecap:butt;stroke-linejoin:miter;stroke-miterlimit:4;stroke-dasharray:none;stroke-opacity:1" />
    </g>
  </g>
</svg>
