<?xml version="1.0" encoding="UTF-8" standalone="no"?>
<svg
   xmlns:dc="http://purl.org/dc/elements/1.1/"
   xmlns:cc="http://creativecommons.org/ns#"
   xmlns:rdf="http://www.w3.org/1999/02/22-rdf-syntax-ns#"
   xmlns:svg="http://www.w3.org/2000/svg"
   xmlns="http://www.w3.org/2000/svg"
   id="svg7903"
   version="1.1"
   viewBox="0 0 99.999855 100"
   height="100mm"
   width="99.999855mm">
  <defs
     id="defs7897" />
  <metadata
     id="metadata7900">
    <rdf:RDF>
      <cc:Work
         rdf:about="">
        <dc:format>image/svg+xml</dc:format>
        <dc:type
           rdf:resource="http://purl.org/dc/dcmitype/StillImage" />
        <dc:title></dc:title>
      </cc:Work>
    </rdf:RDF>
  </metadata>
  <g
     transform="translate(-93.454571,-33.997851)"
     id="layer1">
    <g
       transform="matrix(2.2288394,0,0,2.2288394,-113.83584,-2512.5158)"
       id="g7810">
      <path
         id="path6971"
         d="m 115.436,1142.529 a 22.433036,22.433036 0 0 0 -22.432255,22.4341 22.433036,22.433036 0 0 0 22.432255,22.4323 22.433036,22.433036 0 0 0 22.43408,-22.4323 22.433036,22.433036 0 0 0 -22.43408,-22.4341 z"
         style="fill:#e5a228;stroke-width:0.93749994" />
      <path
         id="path6973"
         d="m 115.436,1142.529 v 44.8664 a 22.433036,22.433036 0 0 0 22.43408,-22.4323 22.433036,22.433036 0 0 0 -22.43408,-22.4341 z"
         style="fill:#f1bf26;stroke-width:0.93749994" />
      <text
         xml:space="preserve"
         style="font-style:normal;font-weight:normal;font-size:31.52326012px;line-height:125%;font-family:sans-serif;letter-spacing:0px;word-spacing:0px;fill:#ffffff;fill-opacity:1;stroke:none;stroke-width:0.78808147px;stroke-linecap:butt;stroke-linejoin:miter;stroke-opacity:1"
         x="102.11168"
         y="1088.9647"
         id="text6587"
         transform="scale(0.92669105,1.0791083)"><tspan
           id="tspan6585"
           x="102.11168"
           y="1088.9647"
           style="font-style:normal;font-variant:normal;font-weight:bold;font-stretch:normal;font-family:sans-serif;-inkscape-font-specification:'sans-serif Bold';fill:#ffffff;stroke-width:0.78808147px">{}</tspan></text>
    </g>
  </g>
</svg>
