<?xml version="1.0" encoding="UTF-8" standalone="no"?>
<svg
   xmlns:dc="http://purl.org/dc/elements/1.1/"
   xmlns:cc="http://creativecommons.org/ns#"
   xmlns:rdf="http://www.w3.org/1999/02/22-rdf-syntax-ns#"
   xmlns:svg="http://www.w3.org/2000/svg"
   xmlns="http://www.w3.org/2000/svg"
   version="1.1"
   id="svg6339"
   viewBox="0 0 74.880693 100"
   height="28.222223mm"
   width="21.132996mm">
  <defs
     id="defs6341" />
  <metadata
     id="metadata6344">
    <rdf:RDF>
      <cc:Work
         rdf:about="">
        <dc:format>image/svg+xml</dc:format>
        <dc:type
           rdf:resource="http://purl.org/dc/dcmitype/StillImage" />
        <dc:title></dc:title>
      </cc:Work>
    </rdf:RDF>
  </metadata>
  <g
     transform="translate(-249.51671,-254.93368)"
     id="layer1">
    <g
       id="g6302"
       transform="matrix(3.5714286,0,0,3.5714286,47.853108,-1255.0374)">
      <path
         id="path6304"
         d="m 66.949219,425.84961 a 7.4003067,7.4003067 0 0 0 -7.400391,7.40039 7.4003067,7.4003067 0 0 0 7.400391,7.40039 l 0,-14.80078 z"
         style="fill:#3771c8;fill-opacity:1;stroke:none" />
      <path
         id="path6306"
         d="m 66.949219,425.84961 0,14.80078 a 7.4003067,7.4003067 0 0 0 7.40039,-7.40039 7.4003067,7.4003067 0 0 0 -7.40039,-7.40039 z"
         style="fill:#ffcc00;fill-opacity:1;stroke:none" />
      <path
         style="fill:#ffffff;fill-rule:evenodd;stroke:none;stroke-width:1.50328279px;stroke-linecap:butt;stroke-linejoin:miter;stroke-opacity:1"
         d="m 66.949287,422.7919 c -5.789791,-1.6e-4 -10.483439,4.69332 -10.483479,10.48312 0.0047,2.27913 0.736513,4.49464 2.113258,6.31097 l 0,0 8.370218,11.20591 8.366976,-11.20591 0,0 c 1.375331,-1.81682 2.112596,-4.0323 2.116142,-6.31097 -4e-5,-5.78966 -4.693468,-10.48308 -10.483115,-10.48312 z m 0,3.5095 c 3.851302,1.4e-4 6.973305,3.12232 6.973258,6.97362 4.7e-5,3.85129 -3.121956,6.97347 -6.973258,6.97361 -3.851444,5e-5 -6.97367,-3.12217 -6.973622,-6.97361 -4.8e-5,-3.85145 3.122178,-6.97367 6.973622,-6.97362 z"
         id="path6308" />
    </g>
  </g>
</svg>
