<?xml version="1.0" encoding="UTF-8" standalone="no"?>
<svg
   xmlns:dc="http://purl.org/dc/elements/1.1/"
   xmlns:cc="http://creativecommons.org/ns#"
   xmlns:rdf="http://www.w3.org/1999/02/22-rdf-syntax-ns#"
   xmlns:svg="http://www.w3.org/2000/svg"
   xmlns="http://www.w3.org/2000/svg"
   id="svg7081"
   version="1.1"
   viewBox="0 0 74.880714 100"
   height="100mm"
   width="74.880714mm">
  <defs
     id="defs7075" />
  <metadata
     id="metadata7078">
    <rdf:RDF>
      <cc:Work
         rdf:about="">
        <dc:format>image/svg+xml</dc:format>
        <dc:type
           rdf:resource="http://purl.org/dc/dcmitype/StillImage" />
        <dc:title></dc:title>
      </cc:Work>
    </rdf:RDF>
  </metadata>
  <g
     transform="translate(-109.67829,-53.540364)"
     id="layer1">
    <g
       transform="matrix(3.5714286,0,0,3.5714286,-404.65336,-1738.0859)"
       id="g6969">
      <path
         style="fill:#ffcc00;fill-opacity:1;stroke:none"
         d="m 154.49616,512.11346 h -7.40039 a 7.4003067,7.4003067 0 0 0 7.40039,7.40039 z"
         id="path6947" />
      <path
         style="fill:#37c871;fill-opacity:1;stroke:none"
         d="m 154.49616,504.71306 a 7.4003067,7.4003067 0 0 0 -7.40039,7.4004 h 7.40039 z"
         id="path6949" />
      <path
         style="fill:#87cdde;fill-opacity:1;stroke:none"
         d="m 161.89655,512.11346 h -7.40039 v 7.40039 a 7.4003067,7.4003067 0 0 0 7.40039,-7.40039 z"
         id="path6951" />
      <path
         style="fill:#ff5555;fill-opacity:1;stroke:none"
         d="m 154.49616,504.71306 v 7.4004 h 7.40039 a 7.4003067,7.4003067 0 0 0 -7.40039,-7.4004 z"
         id="path6953" />
      <path
         style="fill:#ffffff;fill-rule:evenodd;stroke:none;stroke-width:1.50328279px;stroke-linecap:butt;stroke-linejoin:miter;stroke-opacity:1"
         d="m 154.49634,501.65535 c -5.78979,-1.6e-4 -10.48344,4.69332 -10.48348,10.48312 0.005,2.27913 0.73651,4.49464 2.11326,6.31097 v 0 l 8.37022,11.20591 8.36698,-11.20591 v 0 c 1.37532,-1.81682 2.11259,-4.0323 2.11614,-6.31097 -4e-5,-5.78966 -4.69347,-10.48308 -10.48312,-10.48312 z m 0,3.5095 c 3.8513,1.4e-4 6.97331,3.12232 6.97326,6.97362 5e-5,3.8513 -3.12196,6.97347 -6.97326,6.97361 -3.85144,5e-5 -6.97367,-3.12217 -6.97362,-6.97361 -5e-5,-3.85145 3.12218,-6.97367 6.97362,-6.97362 z"
         id="path6955" />
    </g>
  </g>
</svg>
