<?xml version="1.0" encoding="UTF-8" standalone="no"?>
<svg
   xmlns:dc="http://purl.org/dc/elements/1.1/"
   xmlns:cc="http://creativecommons.org/ns#"
   xmlns:rdf="http://www.w3.org/1999/02/22-rdf-syntax-ns#"
   xmlns:svg="http://www.w3.org/2000/svg"
   xmlns="http://www.w3.org/2000/svg"
   version="1.1"
   id="svg6391"
   viewBox="0 0 99.999997 133.54445"
   height="37.689213mm"
   width="28.222221mm">
  <defs
     id="defs6393" />
  <metadata
     id="metadata6396">
    <rdf:RDF>
      <cc:Work
         rdf:about="">
        <dc:format>image/svg+xml</dc:format>
        <dc:type
           rdf:resource="http://purl.org/dc/dcmitype/StillImage" />
        <dc:title></dc:title>
      </cc:Work>
    </rdf:RDF>
  </metadata>
  <g
     transform="translate(-303.80231,-287.10346)"
     id="layer1">
    <g
       transform="matrix(4.769445,0,0,4.769445,-1145.1661,-1585.6092)"
       id="g6407">
      <path
         style="fill:#ffffff;fill-rule:evenodd;stroke:none;stroke-width:1.50328279px;stroke-linecap:butt;stroke-linejoin:miter;stroke-opacity:1"
         d="m 306.62653,392.64792 c -1.56424,0 -2.82422,1.25997 -2.82422,2.82422 l 0,7.66015 0,7.66016 c 0,1.56424 1.25998,2.82226 2.82422,2.82226 l 2.40625,0 5.25391,7.03321 5.25195,-7.03321 2.40625,0 c 1.56425,0 2.82422,-1.25802 2.82422,-2.82226 l 0,-7.66016 0,-7.66015 c 0,-1.56425 -1.25997,-2.82422 -2.82422,-2.82422 l -7.6582,0 -7.66016,0 z"
         id="path6340" />
      <path
         style="fill:#0072bb;fill-rule:evenodd;stroke:none;stroke-width:1px;stroke-linecap:butt;stroke-linejoin:miter;stroke-opacity:1"
         d="m 308.28864,395.36862 c -0.97884,0 -1.76758,0.78678 -1.76758,1.76563 l 0,11.99414 c 0,0.97884 0.78874,1.76758 1.76758,1.76758 l 11.99414,0 c 0.97885,0 1.76758,-0.78874 1.76758,-1.76758 l 0,-11.99414 c 0,-0.97885 -0.78873,-1.76563 -1.76758,-1.76563 l -11.99414,0 z m 1.78125,2.64063 4.38477,0 c 1.30377,0 2.3027,0.29011 2.99804,0.87109 0.69992,0.57641 1.05078,1.40023 1.05078,2.4707 0,1.07505 -0.35086,1.9034 -1.05078,2.48438 -0.69534,0.5764 -1.69427,0.86523 -2.99804,0.86523 l -1.74414,0 0,3.55469 -2.64063,0 0,-10.24609 z m 2.64063,1.91406 0,2.86133 1.46289,0 c 0.51236,0 0.90649,-0.12211 1.18554,-0.36914 0.27906,-0.25161 0.41992,-0.60699 0.41992,-1.06446 0,-0.45746 -0.14086,-0.80961 -0.41992,-1.05664 -0.27905,-0.24703 -0.67318,-0.37109 -1.18554,-0.37109 l -1.46289,0 z"
         id="rect6349" />
    </g>
  </g>
</svg>
