<?xml version="1.0" encoding="UTF-8" standalone="no"?>
<svg
   xmlns:dc="http://purl.org/dc/elements/1.1/"
   xmlns:cc="http://creativecommons.org/ns#"
   xmlns:rdf="http://www.w3.org/1999/02/22-rdf-syntax-ns#"
   xmlns:svg="http://www.w3.org/2000/svg"
   xmlns="http://www.w3.org/2000/svg"
   version="1.1"
   id="svg6446"
   viewBox="0 0 74.880686 100"
   height="28.222223mm"
   width="21.132994mm">
  <defs
     id="defs6448" />
  <metadata
     id="metadata6451">
    <rdf:RDF>
      <cc:Work
         rdf:about="">
        <dc:format>image/svg+xml</dc:format>
        <dc:type
           rdf:resource="http://purl.org/dc/dcmitype/StillImage" />
        <dc:title></dc:title>
      </cc:Work>
    </rdf:RDF>
  </metadata>
  <g
     transform="translate(-312.37385,-232.07648)"
     id="layer1">
    <g
       id="g6307"
       transform="matrix(3.5714286,0,0,3.5714286,17.853105,-1277.8946)">
      <path
         style="fill:#3771c8;fill-opacity:1;stroke:none"
         d="m 92.94922,425.84961 a 7.4003067,7.4003067 0 0 0 -7.400392,7.40039 7.4003067,7.4003067 0 0 0 7.400392,7.40039 l 0,-14.80078 z"
         id="path6313" />
      <path
         style="fill:#87cdde;fill-opacity:1;stroke:none"
         d="m 92.94922,425.84961 0,14.80078 a 7.4003067,7.4003067 0 0 0 7.40039,-7.40039 7.4003067,7.4003067 0 0 0 -7.40039,-7.40039 z"
         id="path6315" />
      <path
         id="path6317"
         d="m 92.94929,422.7919 c -5.78979,-1.6e-4 -10.483442,4.69332 -10.483482,10.48312 0.0047,2.27913 0.736513,4.49464 2.113258,6.31097 l 0,0 8.370214,11.20591 8.36698,-11.20591 0,0 c 1.37533,-1.81682 2.1126,-4.0323 2.11614,-6.31097 -4e-5,-5.78966 -4.69347,-10.48308 -10.48311,-10.48312 z m 0,3.5095 c 3.8513,1.4e-4 6.9733,3.12232 6.97326,6.97362 4e-5,3.85129 -3.12196,6.97347 -6.97326,6.97361 -3.85145,5e-5 -6.973673,-3.12217 -6.973625,-6.97361 -4.8e-5,-3.85145 3.122175,-6.97367 6.973625,-6.97362 z"
         style="fill:#ffffff;fill-rule:evenodd;stroke:none;stroke-width:1.50328279px;stroke-linecap:butt;stroke-linejoin:miter;stroke-opacity:1" />
    </g>
  </g>
</svg>
