<?xml version="1.0" encoding="UTF-8" standalone="no"?>
<svg
   xmlns:dc="http://purl.org/dc/elements/1.1/"
   xmlns:cc="http://creativecommons.org/ns#"
   xmlns:rdf="http://www.w3.org/1999/02/22-rdf-syntax-ns#"
   xmlns:svg="http://www.w3.org/2000/svg"
   xmlns="http://www.w3.org/2000/svg"
   id="svg7722"
   version="1.1"
   viewBox="0 0 74.880653 100"
   height="100mm"
   width="74.880653mm">
  <defs
     id="defs7716" />
  <metadata
     id="metadata7719">
    <rdf:RDF>
      <cc:Work
         rdf:about="">
        <dc:format>image/svg+xml</dc:format>
        <dc:type
           rdf:resource="http://purl.org/dc/dcmitype/StillImage" />
        <dc:title></dc:title>
      </cc:Work>
    </rdf:RDF>
  </metadata>
  <g
     transform="translate(-107.41063,-40.689047)"
     id="layer1">
    <g
       id="g7702"
       transform="matrix(3.5716004,0,0,3.5716004,-1407.0033,-1255.0603)">
      <path
         style="fill:#ff5555;fill-opacity:1;fill-rule:evenodd;stroke:none;stroke-width:1.60350168px;stroke-linecap:butt;stroke-linejoin:miter;stroke-opacity:1"
         d="m 469.48438,408.7832 -6.01955,2.37728 -6.02147,-2.37728 6.02148,8.06055 z"
         id="path7685"
         transform="scale(0.9375)" />
      <path
         style="fill:#ffffff;fill-opacity:0;fill-rule:evenodd;stroke:none;stroke-width:1.60350168px;stroke-linecap:butt;stroke-linejoin:miter;stroke-opacity:1"
         d="m 463.46484,386.97852 c -6.17577,-1.8e-4 -11.18159,5.00585 -11.18164,11.18164 0.005,2.43107 0.78538,4.795 2.25391,6.73242 l 2.90625,3.89062 6.02147,2.37728 6.01955,-2.37728 2.90429,-3.89062 c 1.46702,-1.93794 2.25404,-4.30184 2.25781,-6.73242 -4e-5,-6.17564 -5.00601,-11.1816 -11.18164,-11.18164 z"
         id="path7669"
         transform="scale(0.9375)" />
      <path
         id="path7671"
         d="m 434.41534,364.8841 c -1.89712,0 -3.42796,1.53156 -3.42796,3.42868 0,1.89713 1.53084,3.42869 3.42796,3.42869 1.89713,0 3.42869,-1.53156 3.42869,-3.42869 0,-1.89712 -1.53156,-3.42868 -3.42869,-3.42868 z m 0,9.02875 c -2.28569,0 -6.82239,1.2459 -6.85665,3.52017 1.47428,2.21713 3.99953,3.67971 6.85665,3.67971 2.85712,0 5.38311,-1.46258 6.85737,-3.67971 -0.0343,-2.27427 -4.58309,-3.52017 -6.85737,-3.52017 z"
         style="fill:#c83737;fill-opacity:1;fill-rule:evenodd;stroke:none;stroke-width:0.37470406px;stroke-linecap:butt;stroke-linejoin:miter;stroke-opacity:1" />
    </g>
  </g>
</svg>
