<?xml version="1.0" encoding="UTF-8" standalone="no"?>
<svg
   xmlns:dc="http://purl.org/dc/elements/1.1/"
   xmlns:cc="http://creativecommons.org/ns#"
   xmlns:rdf="http://www.w3.org/1999/02/22-rdf-syntax-ns#"
   xmlns:svg="http://www.w3.org/2000/svg"
   xmlns="http://www.w3.org/2000/svg"
   width="21.132996mm"
   height="28.222223mm"
   viewBox="0 0 74.880693 100"
   id="svg6310"
   version="1.1">
  <defs
     id="defs6312" />
  <metadata
     id="metadata6315">
    <rdf:RDF>
      <cc:Work
         rdf:about="">
        <dc:format>image/svg+xml</dc:format>
        <dc:type
           rdf:resource="http://purl.org/dc/dcmitype/StillImage" />
        <dc:title></dc:title>
      </cc:Work>
    </rdf:RDF>
  </metadata>
  <g
     id="g6246">
    <path
       style="fill:#ff5555;fill-opacity:1;stroke:none"
       d="M 37.440755,10.92039 A 26.429667,26.429667 0 0 1 63.870723,37.350355 26.429667,26.429667 0 0 1 37.440755,63.780319 l 0,-52.859929 z"
       id="path6291" />
    <path
       style="fill:#3771c8;fill-opacity:1;stroke:none"
       d="m 37.440751,10.92039 0,52.859929 A 26.429667,26.429667 0 0 1 11.010787,37.350355 26.429667,26.429667 0 0 1 37.440751,10.92039 Z"
       id="circle6280" />
    <path
       id="path6282"
       d="M 37.440998,-2.4916601e-6 C 16.763172,-5.7392024e-4 1.4367045e-4,16.761855 8.1330879e-7,37.439712 0.01678653,45.579462 2.6304044,53.491998 7.5473509,59.978891 l 0,0 29.8936361,40.021107 29.882057,-40.021107 0,0 C 72.234941,53.490248 74.86803,45.577819 74.880694,37.439712 74.880551,16.762355 58.118308,1.4036548e-4 37.440998,-2.4916601e-6 Z m 0,12.5339284916601 c 13.75465,5e-4 24.90466,11.151143 24.904493,24.905786 1.67e-4,13.754607 -11.149843,24.90525 -24.904493,24.90575 C 23.68584,62.345641 12.535033,51.194855 12.535204,37.439712 12.535033,23.684533 23.68584,12.533748 37.440998,12.533926 Z"
       style="fill:#ffffff;fill-rule:evenodd;stroke:none;stroke-width:1.50328279px;stroke-linecap:butt;stroke-linejoin:miter;stroke-opacity:1" />
  </g>
</svg>
