<?xml version="1.0" encoding="UTF-8" standalone="no"?>
<svg
   xmlns:dc="http://purl.org/dc/elements/1.1/"
   xmlns:cc="http://creativecommons.org/ns#"
   xmlns:rdf="http://www.w3.org/1999/02/22-rdf-syntax-ns#"
   xmlns:svg="http://www.w3.org/2000/svg"
   xmlns="http://www.w3.org/2000/svg"
   version="1.1"
   id="svg6287"
   viewBox="0 0 74.880693 99.999997"
   height="28.222221mm"
   width="21.132996mm">
  <defs
     id="defs6289" />
  <metadata
     id="metadata6292">
    <rdf:RDF>
      <cc:Work
         rdf:about="">
        <dc:format>image/svg+xml</dc:format>
        <dc:type
           rdf:resource="http://purl.org/dc/dcmitype/StillImage" />
        <dc:title></dc:title>
      </cc:Work>
    </rdf:RDF>
  </metadata>
  <g
     transform="translate(-252.37384,-143.50505)"
     id="layer1">
    <g
       transform="matrix(2.0897104,0,0,2.0897104,106.19623,-632.24278)"
       id="g6349">
      <circle
         r="12.647526"
         cy="389.09607"
         cx="87.867966"
         id="circle6341"
         style="fill:#ffcc00;fill-opacity:1;stroke:none" />
      <path
         id="path6343"
         d="m 87.867968,371.22265 c -9.895066,-2.7e-4 -17.916766,8.02115 -17.916835,17.91622 0.008,3.89516 1.258741,7.6816 3.611674,10.7858 l 0,0 14.305157,19.1515 14.299616,-19.1515 0,0 c 2.35051,-3.10505 3.61054,-6.89142 3.6166,-10.7858 -7e-5,-9.89483 -8.02139,-17.91615 -17.916212,-17.91622 z m 0,5.99793 c 6.582084,2.5e-4 11.917758,5.33621 11.917676,11.91829 8.2e-5,6.58208 -5.335592,11.91804 -11.917676,11.91829 -6.582327,9e-5 -11.91838,-5.33596 -11.918298,-11.91829 -8.2e-5,-6.58233 5.335971,-11.91838 11.918298,-11.91829 z"
         style="fill:#ffffff;fill-rule:evenodd;stroke:none;stroke-width:1.50328279px;stroke-linecap:butt;stroke-linejoin:miter;stroke-opacity:1" />
    </g>
  </g>
</svg>
