<?xml version="1.0" encoding="UTF-8" standalone="no"?>
<svg
   xmlns:dc="http://purl.org/dc/elements/1.1/"
   xmlns:cc="http://creativecommons.org/ns#"
   xmlns:rdf="http://www.w3.org/1999/02/22-rdf-syntax-ns#"
   xmlns:svg="http://www.w3.org/2000/svg"
   xmlns="http://www.w3.org/2000/svg"
   id="svg7197"
   version="1.1"
   viewBox="0 0 74.880714 100"
   height="100mm"
   width="74.880714mm">
  <defs
     id="defs7191" />
  <metadata
     id="metadata7194">
    <rdf:RDF>
      <cc:Work
         rdf:about="">
        <dc:format>image/svg+xml</dc:format>
        <dc:type
           rdf:resource="http://purl.org/dc/dcmitype/StillImage" />
        <dc:title></dc:title>
      </cc:Work>
    </rdf:RDF>
  </metadata>
  <g
     transform="translate(-117.99377,-28.593977)"
     id="layer1">
    <g
       transform="matrix(3.5714286,0,0,3.5714286,-387.42302,-1623.5925)"
       id="g6721">
      <path
         style="fill:#ffcc00;fill-opacity:1;stroke:none"
         d="m 152,473.07031 h -7.40039 A 7.4003067,7.4003067 0 0 0 152,480.4707 Z"
         id="path6719" />
      <path
         style="fill:#3771c8;fill-opacity:1;stroke:none"
         d="m 152,465.66992 a 7.4003067,7.4003067 0 0 0 -7.40039,7.40039 H 152 Z"
         id="path6709" />
      <path
         style="fill:#87cdde;fill-opacity:1;stroke:none"
         d="M 159.40039,473.07031 H 152 v 7.40039 a 7.4003067,7.4003067 0 0 0 7.40039,-7.40039 z"
         id="path6716" />
      <path
         style="fill:#ff5555;fill-opacity:1;stroke:none"
         d="m 152,465.66992 v 7.40039 h 7.40039 A 7.4003067,7.4003067 0 0 0 152,465.66992 Z"
         id="circle6345-6" />
      <path
         style="fill:#ffffff;fill-rule:evenodd;stroke:none;stroke-width:1.50328279px;stroke-linecap:butt;stroke-linejoin:miter;stroke-opacity:1"
         d="m 152.00018,462.61221 c -5.78979,-1.6e-4 -10.48344,4.69332 -10.48348,10.48312 0.005,2.27913 0.73651,4.49464 2.11326,6.31097 v 0 l 8.37022,11.20591 8.36698,-11.20591 v 0 c 1.37532,-1.81682 2.11259,-4.0323 2.11614,-6.31097 -4e-5,-5.78966 -4.69347,-10.48308 -10.48312,-10.48312 z m 0,3.5095 c 3.8513,1.4e-4 6.97331,3.12232 6.97326,6.97362 5e-5,3.85129 -3.12196,6.97347 -6.97326,6.97361 -3.85144,5e-5 -6.97367,-3.12217 -6.97362,-6.97361 -5e-5,-3.85145 3.12218,-6.97367 6.97362,-6.97362 z"
         id="path6347-7" />
    </g>
  </g>
</svg>
