<?xml version="1.0" encoding="UTF-8" standalone="no"?>
<svg
   xmlns:dc="http://purl.org/dc/elements/1.1/"
   xmlns:cc="http://creativecommons.org/ns#"
   xmlns:rdf="http://www.w3.org/1999/02/22-rdf-syntax-ns#"
   xmlns:svg="http://www.w3.org/2000/svg"
   xmlns="http://www.w3.org/2000/svg"
   id="svg6808"
   version="1.1"
   viewBox="0 0 74.880676 100"
   height="100mm"
   width="74.880676mm">
  <defs
     id="defs6802" />
  <metadata
     id="metadata6805">
    <rdf:RDF>
      <cc:Work
         rdf:about="">
        <dc:format>image/svg+xml</dc:format>
        <dc:type
           rdf:resource="http://purl.org/dc/dcmitype/StillImage" />
        <dc:title></dc:title>
      </cc:Work>
    </rdf:RDF>
  </metadata>
  <g
     transform="translate(-105.89849,-35.397567)"
     id="layer1">
    <g
       id="g6789"
       transform="matrix(3.5714286,0,0,3.5714286,-1140.5822,-1260.2878)">
      <path
         id="path6762"
         d="m 359.49807,362.7919 c -5.78979,-1.6e-4 -10.48344,4.69332 -10.48348,10.48312 0.005,2.27913 0.73651,4.49464 2.11326,6.31097 v 0 l 8.37022,11.20591 8.36697,-11.20591 v 0 c 1.37533,-1.81682 2.1126,-4.0323 2.11614,-6.31097 -4e-5,-5.78966 -4.69346,-10.48308 -10.48311,-10.48312 z"
         style="fill:#ffffff;fill-rule:evenodd;stroke:none;stroke-width:1.50328279px;stroke-linecap:butt;stroke-linejoin:miter;stroke-opacity:1" />
      <path
         style="fill:#ff5722;fill-opacity:1;fill-rule:evenodd;stroke:none;stroke-width:0.37470406px;stroke-linecap:butt;stroke-linejoin:miter;stroke-opacity:1"
         d="m 359.41534,364.8841 c -1.89712,0 -3.42796,1.53156 -3.42796,3.42868 0,1.89713 1.53084,3.42869 3.42796,3.42869 1.89713,0 3.42869,-1.53156 3.42869,-3.42869 0,-1.89712 -1.53156,-3.42868 -3.42869,-3.42868 z m 0,9.02875 c -2.28569,0 -6.82239,1.2459 -6.85665,3.52017 1.47428,2.21713 3.99953,3.67971 6.85665,3.67971 2.85712,0 5.38311,-1.46258 6.85737,-3.67971 -0.0343,-2.27427 -4.58309,-3.52017 -6.85737,-3.52017 z"
         id="path6780" />
    </g>
  </g>
</svg>
