<?xml version="1.0" encoding="UTF-8" standalone="no"?>
<svg
   xmlns:dc="http://purl.org/dc/elements/1.1/"
   xmlns:cc="http://creativecommons.org/ns#"
   xmlns:rdf="http://www.w3.org/1999/02/22-rdf-syntax-ns#"
   xmlns:svg="http://www.w3.org/2000/svg"
   xmlns="http://www.w3.org/2000/svg"
   width="14.918248mm"
   height="14.918247mm"
   viewBox="0 0 52.859935 52.859929"
   id="svg6373"
   version="1.1">
  <defs
     id="defs6375" />
  <metadata
     id="metadata6378">
    <rdf:RDF>
      <cc:Work
         rdf:about="">
        <dc:format>image/svg+xml</dc:format>
        <dc:type
           rdf:resource="http://purl.org/dc/dcmitype/StillImage" />
        <dc:title></dc:title>
      </cc:Work>
    </rdf:RDF>
  </metadata>
  <g
     transform="translate(-11.010787,-10.92042)"
     id="g6596">
    <path
       style="fill:#3771c8;fill-opacity:1;stroke:none;stroke-width:3.57142854"
       d="M 37.440755,10.92042 A 26.429667,26.429667 0 0 0 11.010787,37.350385 26.429667,26.429667 0 0 0 14.582215,50.547921 L 37.440755,37.350385 Z"
       id="path6302" />
    <path
       style="fill:#ffcc00;fill-opacity:1;stroke:none;stroke-width:3.57142854"
       d="M 60.299291,50.547921 37.440755,37.350385 14.582215,50.547921 a 26.429667,26.429667 0 0 0 22.85854,13.232428 26.429667,26.429667 0 0 0 22.858536,-13.232428 z"
       id="path6309" />
    <path
       style="fill:#ff5555;fill-opacity:1;stroke:none;stroke-width:3.57142854"
       d="M 37.440755,10.92042 V 37.350385 L 60.299291,50.547921 A 26.429667,26.429667 0 0 0 63.870719,37.350385 26.429667,26.429667 0 0 0 37.440755,10.92042 Z"
       id="circle6291" />
  </g>
</svg>
