<?xml version="1.0" encoding="UTF-8" standalone="no"?>
<svg
   xmlns:dc="http://purl.org/dc/elements/1.1/"
   xmlns:cc="http://creativecommons.org/ns#"
   xmlns:rdf="http://www.w3.org/1999/02/22-rdf-syntax-ns#"
   xmlns:svg="http://www.w3.org/2000/svg"
   xmlns="http://www.w3.org/2000/svg"
   width="14.918247mm"
   height="14.918247mm"
   viewBox="0 0 52.859931 52.859929"
   id="svg6629"
   version="1.1">
  <defs
     id="defs6631" />
  <metadata
     id="metadata6634">
    <rdf:RDF>
      <cc:Work
         rdf:about="">
        <dc:format>image/svg+xml</dc:format>
        <dc:type
           rdf:resource="http://purl.org/dc/dcmitype/StillImage" />
        <dc:title></dc:title>
      </cc:Work>
    </rdf:RDF>
  </metadata>
  <g
     transform="translate(-11.010785,-10.92042)"
     id="g6596">
    <path
       id="path6328"
       d="M 37.440749,10.92042 A 26.429667,26.429667 0 0 0 11.010785,37.350385 26.429667,26.429667 0 0 0 14.582213,50.547921 L 37.440749,37.350385 Z"
       style="fill:#ff5555;fill-opacity:1;stroke:none;stroke-width:3.57142854" />
    <path
       id="path6330"
       d="M 60.299285,50.547921 37.440749,37.350385 14.582213,50.547921 A 26.429667,26.429667 0 0 0 37.440749,63.780349 26.429667,26.429667 0 0 0 60.299285,50.547921 Z"
       style="fill:#87cdde;fill-opacity:1;stroke:none;stroke-width:3.57142854" />
    <path
       id="path6332"
       d="M 37.440749,10.92042 V 37.350385 L 60.299285,50.547921 A 26.429667,26.429667 0 0 0 63.870714,37.350385 26.429667,26.429667 0 0 0 37.440749,10.92042 Z"
       style="fill:#ffcc00;fill-opacity:1;stroke:none;stroke-width:3.57142854" />
  </g>
</svg>
