<?xml version="1.0" encoding="UTF-8" standalone="no"?>
<svg
   xmlns:dc="http://purl.org/dc/elements/1.1/"
   xmlns:cc="http://creativecommons.org/ns#"
   xmlns:rdf="http://www.w3.org/1999/02/22-rdf-syntax-ns#"
   xmlns:svg="http://www.w3.org/2000/svg"
   xmlns="http://www.w3.org/2000/svg"
   width="52.859936mm"
   height="52.859928mm"
   viewBox="0 0 52.859936 52.859928"
   version="1.1"
   id="svg7254">
  <defs
     id="defs7248" />
  <metadata
     id="metadata7251">
    <rdf:RDF>
      <cc:Work
         rdf:about="">
        <dc:format>image/svg+xml</dc:format>
        <dc:type
           rdf:resource="http://purl.org/dc/dcmitype/StillImage" />
        <dc:title></dc:title>
      </cc:Work>
    </rdf:RDF>
  </metadata>
  <g
     transform="translate(-11.010782,-10.92042)"
     id="g6596">
    <path
       style="fill:#3771c8;fill-opacity:1;stroke:none;stroke-width:3.57142854"
       d="M 37.440751,10.92042 A 26.429667,26.429667 0 0 0 11.010782,37.350385 26.429667,26.429667 0 0 0 14.582211,50.547921 L 37.440751,37.350385 Z"
       id="path6775" />
    <path
       style="fill:#37c871;fill-opacity:1;stroke:none;stroke-width:3.57142854"
       d="M 60.29929,50.547921 37.440751,37.350385 14.582211,50.547921 A 26.429667,26.429667 0 0 0 37.440751,63.780349 26.429667,26.429667 0 0 0 60.29929,50.547921 Z"
       id="path6777" />
    <path
       style="fill:#ff5555;fill-opacity:1;stroke:none;stroke-width:3.57142854"
       d="M 37.440751,10.92042 V 37.350385 L 60.29929,50.547921 A 26.429667,26.429667 0 0 0 63.870719,37.350385 26.429667,26.429667 0 0 0 37.440751,10.92042 Z"
       id="path6779" />
  </g>
</svg>
