<?xml version="1.0" encoding="UTF-8" standalone="no"?>
<svg
   xmlns:dc="http://purl.org/dc/elements/1.1/"
   xmlns:cc="http://creativecommons.org/ns#"
   xmlns:rdf="http://www.w3.org/1999/02/22-rdf-syntax-ns#"
   xmlns:svg="http://www.w3.org/2000/svg"
   xmlns="http://www.w3.org/2000/svg"
   version="1.1"
   id="svg6455"
   viewBox="0 0 52.859934 52.859929"
   height="14.918247mm"
   width="14.918248mm">
  <defs
     id="defs6457" />
  <metadata
     id="metadata6460">
    <rdf:RDF>
      <cc:Work
         rdf:about="">
        <dc:format>image/svg+xml</dc:format>
        <dc:type
           rdf:resource="http://purl.org/dc/dcmitype/StillImage" />
        <dc:title></dc:title>
      </cc:Work>
    </rdf:RDF>
  </metadata>
  <g
     id="g6596"
     transform="translate(-11.010787,-10.92042)">
    <path
       style="fill:#3771c8;fill-opacity:1;stroke:none;stroke-width:3.57142854"
       d="M 37.440755,10.92042 A 26.429667,26.429667 0 0 0 11.010787,37.350385 26.429667,26.429667 0 0 0 14.582216,50.547921 L 37.440755,37.350385 Z"
       id="path6311" />
    <path
       style="fill:#87cdde;fill-opacity:1;stroke:none;stroke-width:3.57142854"
       d="M 60.299291,50.547921 37.440755,37.350385 14.582216,50.547921 A 26.429667,26.429667 0 0 0 37.440755,63.780349 26.429667,26.429667 0 0 0 60.299291,50.547921 Z"
       id="path6314" />
    <path
       style="fill:#ff5555;fill-opacity:1;stroke:none;stroke-width:3.57142854"
       d="M 37.440755,10.92042 V 37.350385 L 60.299291,50.547921 A 26.429667,26.429667 0 0 0 63.87072,37.350385 26.429667,26.429667 0 0 0 37.440755,10.92042 Z"
       id="path6316" />
  </g>
</svg>
