<?xml version="1.0" encoding="UTF-8" standalone="no"?>
<svg
   xmlns:dc="http://purl.org/dc/elements/1.1/"
   xmlns:cc="http://creativecommons.org/ns#"
   xmlns:rdf="http://www.w3.org/1999/02/22-rdf-syntax-ns#"
   xmlns:svg="http://www.w3.org/2000/svg"
   xmlns="http://www.w3.org/2000/svg"
   id="svg7340"
   version="1.1"
   viewBox="0 0 100.00001 100"
   height="100mm"
   width="100.00001mm">
  <defs
     id="defs7334" />
  <metadata
     id="metadata7337">
    <rdf:RDF>
      <cc:Work
         rdf:about="">
        <dc:format>image/svg+xml</dc:format>
        <dc:type
           rdf:resource="http://purl.org/dc/dcmitype/StillImage" />
        <dc:title></dc:title>
      </cc:Work>
    </rdf:RDF>
  </metadata>
  <g
     transform="translate(-106.38372,-8.21747)"
     id="layer1">
    <path
       id="circle9848-7"
       d="M 156.3819,8.21747 A 49.999896,49.999896 0 0 0 106.38372,58.215576 49.999896,49.999896 0 0 0 156.3819,108.21747 49.999896,49.999896 0 0 0 206.38373,58.215576 49.999896,49.999896 0 0 0 156.3819,8.21747 Z m -24.50323,23.006585 h 0.004 c 4.63466,-0.131328 6.66095,3.981412 9.97897,6.163607 l 0.34669,-0.505055 9.05376,4.847574 -0.22471,0.442352 0.26894,0.162145 c 8.58786,5.073016 18.08818,10.031239 26.62661,14.454253 l 2.27446,-1.142795 7.88514,2.83851 0.84418,3.892778 -4.00341,5.271478 c -0.51647,0.679827 -1.07688,0.792965 -1.41559,0.534303 l -9.34123,-7.133049 1.05062,-2.410926 c -8.47686,-5.236952 -16.85414,-9.827076 -25.23314,-14.421031 l -0.20259,0.394414 -9.45188,-4.840191 -0.007,-0.169493 0.0143,-0.01498 c -0.74717,-0.240686 -1.51766,-0.418953 -2.29286,-0.571326 0.6841,0.945709 1.38383,1.879854 2.21917,2.676308 l 0.43158,-0.435004 8.04365,6.384775 -0.2989,0.394414 0.23612,0.206445 c 7.54715,6.521776 16.01396,13.089776 23.62596,18.97367 l 2.43668,-0.715139 7.25474,4.195097 0.13625,3.984943 -4.87706,4.471594 c -0.62918,0.577104 -1.20257,0.587804 -1.48927,0.272501 l -7.92202,-8.681385 1.46716,-2.186005 C 161.90926,61.895531 154.4821,55.885659 147.05565,49.872649 l -0.26894,0.353824 -8.44177,-6.447451 0.0285,-0.165926 0.0143,-0.01498 c -0.42159,-0.225349 -0.8526,-0.431936 -1.29388,-0.622973 0.33884,0.660424 0.70479,1.302622 1.13538,1.89848 l 0.50505,-0.350186 6.74605,7.745029 -0.3688,0.335277 0.19189,0.246821 c 6.23101,7.788765 13.35878,15.790466 19.76999,22.962321 l 2.52884,-0.261801 6.36634,5.452171 -0.59351,3.937005 -5.61061,3.509421 c -0.72391,0.451553 -1.28604,0.362384 -1.51146,0 l -6.20411,-9.982616 1.83581,-1.883757 C 155.81579,68.680477 149.6101,61.418382 143.40498,54.151793 l -0.32814,0.302463 -7.12207,-7.881473 0.0571,-0.162145 0.0143,-0.0038 c -3.00914,-2.4081 -7.03218,-3.638224 -8.83618,-6.628079 -0.95568,-1.585738 -0.92451,-3.338729 0.22114,-4.143472 0.097,-0.499705 0.35881,-0.938761 0.79988,-1.268095 -0.3738,-1.463127 0.50363,-2.886262 3.21823,-3.122354 0.15694,-0.0093 0.3096,-0.01712 0.46083,-0.02211 z m 0.57139,0.803623 v 0.0038 c -0.21971,-0.01141 -0.44156,0.0093 -0.66698,0.03353 -1.85202,0.252742 -2.92412,0.966318 -2.85328,1.927977 0.55856,-0.192891 1.27155,-0.270575 2.15654,-0.187969 3.09361,0.286484 4.74438,2.180776 6.26682,4.254049 1.10442,0.212366 2.26462,0.475594 3.45785,0.862625 l 0.58638,-0.851582 c -3.17293,-2.177951 -5.75428,-5.959395 -8.94683,-6.041944 z m -1.69942,2.63576 c -0.57568,0.01284 -1.06832,0.09117 -1.46716,0.228559 0.0763,0.109857 0.15908,0.213793 0.26537,0.331782 0.33385,0.03638 0.69409,0.11114 1.0838,0.217502 1.41344,0.399978 2.44324,1.098723 3.25504,1.964821 0.67055,0.147593 1.38868,0.275926 2.13443,0.409181 -1.37892,-1.694182 -2.8139,-3.062333 -4.71856,-3.144476 -0.19118,-0.0078 -0.37737,-0.01141 -0.55285,-0.0078 z m -1.57038,1.478229 v 0.0038 c -0.40376,0.0019 -0.75145,0.05992 -1.03586,0.165927 0.0428,0.572681 0.42729,1.278517 1.21648,2.093867 1.3675,1.412029 3.53674,2.085821 5.99411,3.019132 -0.6142,-1.204814 -1.2314,-2.357709 -1.97593,-3.269805 -1.35352,-0.329427 -2.60645,-0.795754 -3.64952,-1.614628 -0.15836,-0.12498 -0.30389,-0.254882 -0.44228,-0.390776 -0.0357,-0.0019 -0.072,-0.0078 -0.107,-0.0078 z m -1.72518,0.70779 c -0.35739,0.586378 -0.20188,1.530525 0.64131,2.801644 1.59848,2.408672 5.18851,3.559976 8.59664,6.292618 l 0.85153,-0.589802 c -0.61277,-0.881864 -1.13773,-1.861792 -1.64043,-2.845872 -2.77424,-1.056971 -5.64357,-1.803846 -7.42061,-3.804336 -0.51932,-0.584523 -0.86929,-1.227712 -1.02851,-1.854237 z m 7.25475,1.585132 c 0.7294,1.059125 1.27448,2.264823 1.84316,3.461504 0.78783,0.323293 1.59792,0.691455 2.41093,1.128014 l 0.72619,-0.733586 c -1.05127,-1.041284 -1.97449,-2.299007 -2.89008,-3.490987 -0.70337,-0.119487 -1.40588,-0.236263 -2.0902,-0.364945 z m 15.99513,4.397832 -0.31673,0.622973 c 8.46345,4.541581 16.92134,9.102829 25.19626,14.520616 l 1.37506,-0.685534 c -8.55312,-4.35018 -17.98339,-9.232623 -26.25431,-14.45794 z m -2.70212,5.798655 -0.42373,0.56034 c 7.51911,5.976594 15.02888,11.973411 22.20659,18.778317 l 1.47828,-0.435146 c -7.64152,-5.804283 -16.05333,-12.288251 -23.261,-18.903632 z m -3.44301,4.475246 -0.51647,0.472241 c 6.30292,7.247614 12.59321,14.516485 18.40969,22.51626 l 1.52986,-0.158364 C 157.52805,68.835867 150.4398,60.925618 144.55947,53.106821 Z"
       style="color:#000000;display:inline;overflow:visible;visibility:visible;opacity:1;fill:#e92b2b;fill-opacity:1;fill-rule:nonzero;stroke:none;stroke-width:1.14170909;stroke-miterlimit:4;stroke-dasharray:none;stroke-dashoffset:0;stroke-opacity:1;marker:none;enable-background:accumulate" />
  </g>
</svg>
