<?xml version="1.0" encoding="UTF-8" standalone="no"?>
<svg
   xmlns:dc="http://purl.org/dc/elements/1.1/"
   xmlns:cc="http://creativecommons.org/ns#"
   xmlns:rdf="http://www.w3.org/1999/02/22-rdf-syntax-ns#"
   xmlns:svg="http://www.w3.org/2000/svg"
   xmlns="http://www.w3.org/2000/svg"
   version="1.1"
   id="svg8513"
   viewBox="0 0 124.62081 99.999997"
   height="28.222221mm"
   width="35.170761mm">
  <defs
     id="defs8515" />
  <metadata
     id="metadata8518">
    <rdf:RDF>
      <cc:Work
         rdf:about="">
        <dc:format>image/svg+xml</dc:format>
        <dc:type
           rdf:resource="http://purl.org/dc/dcmitype/StillImage" />
        <dc:title></dc:title>
      </cc:Work>
    </rdf:RDF>
  </metadata>
  <g
     transform="translate(-231.04799,-232.13789)"
     id="layer1">
    <g
       id="g7444"
       transform="matrix(3.5558324,0,0,3.5558324,82.876732,-1130.8649)">
      <path
         style="fill:#ffffff;fill-rule:evenodd;stroke:none;stroke-width:1px;stroke-linecap:butt;stroke-linejoin:miter;stroke-opacity:1"
         d="m 54.801581,383.31469 -11.740506,25.14568 32.199986,0 -8.27022,-16.9255 -4.67255,7.7881 -7.51671,-16.00828 z"
         id="path7331" />
      <path
         style="fill:#3771c8;fill-opacity:1;fill-rule:evenodd;stroke:none;stroke-width:1px;stroke-linecap:butt;stroke-linejoin:miter;stroke-opacity:1"
         d="m 50.398438,407.74609 -7.003907,0 -1.724609,3.69141 8.728516,0 0,-3.69141 z"
         id="path7362" />
      <path
         style="fill:#ff5555;fill-opacity:1;fill-rule:evenodd;stroke:none;stroke-width:1px;stroke-linecap:butt;stroke-linejoin:miter;stroke-opacity:1"
         d="m 59.193359,407.74609 -8.794921,0 0,3.69141 8.794921,0 0,-3.69141 z"
         id="path7365" />
      <path
         style="fill:#87cdde;fill-opacity:1;fill-rule:evenodd;stroke:none;stroke-width:1px;stroke-linecap:butt;stroke-linejoin:miter;stroke-opacity:1"
         d="m 67.988281,407.74609 -8.794922,0 0,3.69141 8.794922,0 0,-3.69141 z"
         id="path7368" />
      <path
         style="fill:#ffcc00;fill-opacity:1;fill-rule:evenodd;stroke:none;stroke-width:1px;stroke-linecap:butt;stroke-linejoin:miter;stroke-opacity:1"
         d="m 67.988281,407.74609 0,3.69141 8.728516,0 -1.804688,-3.69141 -6.923828,0 z"
         id="path7333" />
    </g>
  </g>
</svg>
