<?xml version="1.0" encoding="UTF-8" standalone="no"?>
<svg
   xmlns:dc="http://purl.org/dc/elements/1.1/"
   xmlns:cc="http://creativecommons.org/ns#"
   xmlns:rdf="http://www.w3.org/1999/02/22-rdf-syntax-ns#"
   xmlns:svg="http://www.w3.org/2000/svg"
   xmlns="http://www.w3.org/2000/svg"
   id="svg7438"
   version="1.1"
   viewBox="0 0 100 100"
   height="100mm"
   width="100mm">
  <defs
     id="defs7432" />
  <metadata
     id="metadata7435">
    <rdf:RDF>
      <cc:Work
         rdf:about="">
        <dc:format>image/svg+xml</dc:format>
        <dc:type
           rdf:resource="http://purl.org/dc/dcmitype/StillImage" />
        <dc:title></dc:title>
      </cc:Work>
    </rdf:RDF>
  </metadata>
  <g
     transform="translate(-111.51221,-56.005632)"
     id="layer1">
    <g
       transform="matrix(7.1199753,0,0,7.1199753,-6165.6123,-512.13514)"
       id="g6041">
      <circle
         style="color:#000000;display:inline;overflow:visible;visibility:visible;opacity:1;fill:#d73532;fill-opacity:1;fill-rule:nonzero;stroke:none;stroke-width:30;stroke-linecap:round;stroke-linejoin:round;stroke-miterlimit:4;stroke-dasharray:none;stroke-dashoffset:0;stroke-opacity:1;marker:none;enable-background:accumulate"
         id="circle6023"
         cx="888.64417"
         cy="86.817825"
         r="7.0224962" />
      <path
         id="path6037"
         d="m 888.92213,81.011165 c -0.30737,-0.0028 -0.61826,0.01187 -0.85355,0.04531 -1.78363,0.253505 -3.17942,1.338524 -3.71551,2.888888 -0.17283,0.4998 -0.20966,0.758479 -0.1935,1.372802 0.009,0.357006 0.031,0.599915 0.0661,0.742127 0.16911,0.68582 0.51339,1.211523 0.98827,1.509959 0.33372,0.209722 0.5107,0.222645 0.5915,0.04409 0.0752,-0.166427 0.20075,-0.720012 0.17879,-0.78988 -0.0114,-0.03608 -0.0788,-0.140919 -0.15063,-0.232682 -0.27951,-0.357068 -0.39047,-0.723698 -0.38821,-1.289529 8.9e-4,-0.320972 0.0172,-0.456073 0.0833,-0.726201 0.22763,-0.930372 0.81133,-1.671891 1.64221,-2.086763 0.5725,-0.285847 1.27726,-0.402896 1.96552,-0.328195 1.33127,0.144488 2.16029,0.905613 2.34761,2.155339 0.10747,0.717053 -0.081,1.873261 -0.42862,2.625595 -0.32806,0.710055 -0.85898,1.185446 -1.44139,1.28953 -0.6826,0.12199 -1.30572,-0.354028 -1.30544,-0.996849 10e-5,-0.189444 0.0723,-0.486006 0.30616,-1.246667 0.37105,-1.206557 0.39369,-1.661144 0.0992,-2.075734 -0.14493,-0.204047 -0.38044,-0.308607 -0.69435,-0.308607 -0.21349,0 -0.26788,0.01222 -0.44454,0.09919 -0.39115,0.19256 -0.67598,0.604718 -0.78621,1.138903 -0.091,0.440887 -0.0647,0.86576 0.0808,1.326266 l 0.0723,0.230231 -0.43963,1.86388 c -0.24223,1.024982 -0.4608,1.999522 -0.48496,2.166356 -0.0559,0.386782 -0.0557,1.188229 0,1.70958 0.0538,0.503507 0.0946,0.57138 0.24738,0.406572 0.15517,-0.1674 0.66828,-0.971825 0.83642,-1.311569 0.21951,-0.443546 0.30236,-0.698236 0.56945,-1.743866 0.1193,-0.467039 0.22264,-0.854542 0.229,-0.860913 0.006,-0.0063 0.0807,0.0642 0.16533,0.156753 0.42004,0.45959 1.08636,0.680942 1.80509,0.600065 0.79086,-0.08899 1.4121,-0.389742 1.97165,-0.955209 0.67157,-0.678674 1.07594,-1.564284 1.243,-2.722336 0.0692,-0.479335 0.062,-1.200564 -0.0159,-1.583439 -0.31822,-1.562021 -1.62361,-2.763612 -3.31629,-3.052989 -0.21984,-0.03758 -0.52291,-0.05721 -0.8303,-0.06001 z"
         style="fill:#ffffff;fill-rule:evenodd;stroke:none;stroke-width:1px;stroke-linecap:butt;stroke-linejoin:miter;stroke-opacity:1" />
    </g>
  </g>
</svg>
