<?xml version="1.0" encoding="UTF-8" standalone="no"?>
<svg
   xmlns:dc="http://purl.org/dc/elements/1.1/"
   xmlns:cc="http://creativecommons.org/ns#"
   xmlns:rdf="http://www.w3.org/1999/02/22-rdf-syntax-ns#"
   xmlns:svg="http://www.w3.org/2000/svg"
   xmlns="http://www.w3.org/2000/svg"
   id="svg7555"
   version="1.1"
   viewBox="0 0 100 100"
   height="100mm"
   width="100mm">
  <defs
     id="defs7549" />
  <metadata
     id="metadata7552">
    <rdf:RDF>
      <cc:Work
         rdf:about="">
        <dc:format>image/svg+xml</dc:format>
        <dc:type
           rdf:resource="http://purl.org/dc/dcmitype/StillImage" />
        <dc:title></dc:title>
      </cc:Work>
    </rdf:RDF>
  </metadata>
  <g
     transform="translate(-155.35743,-31.815155)"
     id="layer1">
    <g
       id="g5690"
       transform="matrix(7.1199753,0,0,7.1199753,-5570.5826,-680.6193)">
      <circle
         style="color:#000000;display:inline;overflow:visible;visibility:visible;opacity:1;fill:#5ac7fd;fill-opacity:1;fill-rule:nonzero;stroke:none;stroke-width:30;stroke-linecap:round;stroke-linejoin:round;stroke-miterlimit:4;stroke-dasharray:none;stroke-dashoffset:0;stroke-opacity:1;marker:none;enable-background:accumulate"
         id="circle5508-5"
         cx="811.23035"
         cy="107.08386"
         r="7.0224962" />
      <path
         style="fill:#ffffff;fill-rule:evenodd;stroke:none;stroke-width:1px;stroke-linecap:butt;stroke-linejoin:miter;stroke-opacity:1"
         d="m 814.99284,102.63161 c -0.18668,0 -0.38175,0.0156 -0.53324,0.0466 -0.99076,0.20218 -1.95102,0.91621 -2.30322,1.71254 -0.13016,0.29431 -0.20346,0.70384 -0.13368,0.74699 0.0137,0.009 0.1264,-0.003 0.25049,-0.0281 0.27547,-0.053 0.66891,-0.0598 0.83618,-0.0142 0.19662,0.0536 0.31431,0.1834 0.35199,0.38816 0.0434,0.23586 0.0111,0.66174 -0.0748,1.00482 -0.17772,0.70475 -0.74076,1.5301 -1.4551,2.13297 l -0.16659,0.1406 -0.0867,-0.0507 c -0.15728,-0.0916 -0.40751,-0.38838 -0.51717,-0.61335 -0.22557,-0.46255 -0.32841,-0.97256 -0.43638,-2.16383 -0.14469,-1.5967 -0.2175,-1.98464 -0.46559,-2.48116 -0.11756,-0.23527 -0.36326,-0.49212 -0.55706,-0.58233 -0.67189,-0.3127 -1.47649,-0.0402 -2.60261,0.8815 -0.96095,0.7865 -1.28007,1.13509 -1.35439,1.47946 -0.028,0.12996 0.06,0.31047 0.22569,0.46246 0.1178,0.10815 0.14795,0.12239 0.22632,0.10718 0.0498,-0.01 0.16119,-0.0688 0.24778,-0.13159 0.32,-0.23195 0.4019,-0.27024 0.60206,-0.28156 0.16995,-0.01 0.19681,-0.003 0.27848,0.0653 0.11941,0.10036 0.32767,0.41675 0.44744,0.67956 0.21535,0.47255 0.378,1.06348 0.67608,2.45617 0.36094,1.68651 0.60451,2.43448 0.96618,2.96705 0.2298,0.33841 0.59274,0.61475 0.91406,0.69605 0.16943,0.0429 0.59812,0.013 0.82444,-0.0575 1.01765,-0.3169 2.30268,-1.41096 3.4786,-2.96157 0.72095,-0.95067 1.1484,-1.77814 1.56846,-3.03594 0.22031,-0.65964 0.52038,-1.79282 0.52038,-1.96512 0,-0.0389 -0.0258,-0.1725 -0.0573,-0.29704 -0.16767,-0.66344 -0.57869,-1.09858 -1.18793,-1.25758 -0.11791,-0.0308 -0.29622,-0.0462 -0.48292,-0.046 z"
         id="path5514-9" />
    </g>
  </g>
</svg>
