<?xml version="1.0" encoding="UTF-8" standalone="no"?>
<svg
   xmlns:dc="http://purl.org/dc/elements/1.1/"
   xmlns:cc="http://creativecommons.org/ns#"
   xmlns:rdf="http://www.w3.org/1999/02/22-rdf-syntax-ns#"
   xmlns:svg="http://www.w3.org/2000/svg"
   xmlns="http://www.w3.org/2000/svg"
   id="svg7727"
   version="1.1"
   viewBox="0 0 100 100"
   height="100mm"
   width="100mm">
  <defs
     id="defs7721" />
  <metadata
     id="metadata7724">
    <rdf:RDF>
      <cc:Work
         rdf:about="">
        <dc:format>image/svg+xml</dc:format>
        <dc:type
           rdf:resource="http://purl.org/dc/dcmitype/StillImage" />
        <dc:title></dc:title>
      </cc:Work>
    </rdf:RDF>
  </metadata>
  <g
     transform="translate(-126.63122,7.4943594)"
     id="layer1">
    <g
       id="g6850"
       transform="matrix(2.1992415,0,0,2.1992415,1265.2269,-1753.4725)">
      <circle
         style="color:#000000;display:inline;overflow:visible;visibility:visible;opacity:1;fill:#36465d;fill-opacity:1;fill-rule:nonzero;stroke:none;stroke-width:30;stroke-linecap:round;stroke-linejoin:round;stroke-miterlimit:4;stroke-dasharray:none;stroke-dashoffset:0;stroke-opacity:1;marker:none;enable-background:accumulate"
         id="circle6804"
         cx="-494.98688"
         cy="816.63525"
         r="22.735111" />
      <path
         id="path6847"
         d="m -498.79063,798.0977 c -4.26842,-0.023 -4.44145,0.22808 -4.7416,1.93471 -0.61801,3.51388 -2.25809,5.87729 -4.96662,7.15862 l -1.59354,0.75428 0.0809,3.687 0.0812,3.6864 1.45075,0.0759 c 2.86502,0.14969 2.61139,-0.46857 2.61139,6.36748 0,6.01559 0.003,6.03804 0.80982,7.68169 0.94703,1.92849 2.33613,3.2417 4.45996,4.21403 3.21063,1.46986 8.1954,1.93221 12.04191,1.11697 3.05473,-0.64746 5.17513,-1.95708 5.17513,-3.19622 0,-0.33736 -0.43554,-1.9142 -0.96792,-3.50393 l -0.96794,-2.89076 -2.73152,-0.14514 -2.7315,-0.14514 v -4.64245 -4.64244 l 3.04661,-0.14513 3.0466,-0.14514 v -4.35229 -4.3523 l -3.0466,-0.14514 -3.04661,-0.14513 -0.14515,-4.06214 -0.14512,-4.06215 -5.62794,-0.0788 c -0.78924,-0.0114 -1.48249,-0.02 -2.09228,-0.0234 z m 3.12142,1.4519 c 0.25052,-0.001 0.527,0.003 0.83249,0.0147 l 2.31555,0.0855 0.14513,4.06212 0.14514,4.06215 3.0466,0.14513 3.04661,0.14514 v 2.90152 2.90152 l -3.04661,0.14514 -3.0466,0.14513 v 5.90168 5.90107 l 0.85458,0.73446 c 0.78202,0.67228 1.02511,0.72286 2.85904,0.59163 l 2.00443,-0.14334 0.40121,0.96001 c 0.22073,0.52824 0.56051,1.55539 0.75486,2.28211 0.32218,1.2046 0.30345,1.3591 -0.21364,1.74998 -1.4231,1.07579 -4.80801,1.68703 -7.29745,1.31816 -2.12075,-0.31425 -3.95487,-1.28474 -5.28622,-2.79724 -1.89887,-2.15724 -2.13073,-3.18215 -2.32236,-10.26019 l -0.16887,-6.2383 -1.88599,-0.14513 -1.88601,-0.14514 -0.0877,-1.87692 c -0.12185,-2.59937 0.0249,-2.9567 1.54597,-3.75781 0.73373,-0.38647 1.90656,-1.33953 2.60627,-2.11778 1.19486,-1.32894 2.46404,-3.96342 2.46404,-5.11449 0,-1.08554 0.46607,-1.44036 2.21977,-1.45135 z"
         style="fill:#e6e6e6;fill-rule:evenodd;stroke:none;stroke-width:1px;stroke-linecap:butt;stroke-linejoin:miter;stroke-opacity:1" />
    </g>
  </g>
</svg>
