<?xml version="1.0" encoding="UTF-8" standalone="no"?>
<svg
   xmlns:dc="http://purl.org/dc/elements/1.1/"
   xmlns:cc="http://creativecommons.org/ns#"
   xmlns:rdf="http://www.w3.org/1999/02/22-rdf-syntax-ns#"
   xmlns:svg="http://www.w3.org/2000/svg"
   xmlns="http://www.w3.org/2000/svg"
   id="svg7167"
   version="1.1"
   viewBox="0 0 100 100"
   height="100mm"
   width="100mm">
  <defs
     id="defs7161" />
  <metadata
     id="metadata7164">
    <rdf:RDF>
      <cc:Work
         rdf:about="">
        <dc:format>image/svg+xml</dc:format>
        <dc:type
           rdf:resource="http://purl.org/dc/dcmitype/StillImage" />
        <dc:title></dc:title>
      </cc:Work>
    </rdf:RDF>
  </metadata>
  <g
     transform="translate(-69.934837,-9.8925443)"
     id="layer1">
    <g
       transform="matrix(7.7925879,0,0,7.7925879,-44.60014,-190.52927)"
       id="g6767">
      <circle
         style="color:#000000;display:inline;overflow:visible;visibility:visible;opacity:1;fill:#2196f3;fill-opacity:1;fill-rule:nonzero;stroke:none;stroke-width:27.41056824;stroke-linecap:round;stroke-linejoin:round;stroke-miterlimit:4;stroke-dasharray:none;stroke-dashoffset:0;stroke-opacity:1;marker:none;enable-background:accumulate"
         id="circle5422-6-6"
         cx="21.114292"
         cy="32.135899"
         r="6.4163537" />
      <path
         d="m 21.10971,27.552938 c -2.529794,0 -4.578379,2.053166 -4.578379,4.582961 0,2.529795 2.048585,4.582961 4.578379,4.582961 2.534378,0 4.587544,-2.053166 4.587544,-4.582961 0,-2.529795 -2.053166,-4.582961 -4.587544,-4.582961 z m 3.175992,2.749777 h -1.351973 c -0.14666,-0.572871 -0.357471,-1.122827 -0.632448,-1.631535 0.843264,0.288726 1.544456,0.875345 1.984421,1.631535 z m -3.171409,-1.814852 c 0.380386,0.549955 0.678278,1.159487 0.875346,1.814852 h -1.750691 c 0.197066,-0.655365 0.49496,-1.264897 0.875345,-1.814852 z m -3.547212,4.564629 c -0.07332,-0.293311 -0.119154,-0.60037 -0.119154,-0.916593 0,-0.316225 0.04583,-0.623282 0.119154,-0.916593 h 1.549041 c -0.03667,0.302475 -0.06416,0.604951 -0.06416,0.916593 0,0.311642 0.02751,0.614118 0.06416,0.916593 z m 0.375802,0.916591 h 1.351975 c 0.146661,0.572869 0.35747,1.122826 0.632448,1.631535 -0.843264,-0.288728 -1.544458,-0.870762 -1.984423,-1.631535 z m 1.351975,-3.666368 h -1.351975 c 0.439965,-0.760773 1.141159,-1.342809 1.984423,-1.631535 -0.274978,0.508708 -0.485793,1.058664 -0.632448,1.631535 z m 1.819435,5.48122 C 20.733908,35.23398 20.436014,34.624446 20.238948,33.969083 h 1.750691 c -0.197068,0.655363 -0.49496,1.264897 -0.875346,1.814852 z m 1.072413,-2.731443 H 20.04188 c -0.04125,-0.302475 -0.07332,-0.604951 -0.07332,-0.916593 0,-0.311642 0.03208,-0.618701 0.07332,-0.916593 h 2.144826 c 0.04125,0.297892 0.07332,0.604951 0.07332,0.916593 0,0.311642 -0.03208,0.614118 -0.07332,0.916593 z m 0.114581,2.548126 c 0.274978,-0.508709 0.485794,-1.058666 0.632449,-1.631535 h 1.351972 c -0.439964,0.75619 -1.141156,1.342807 -1.984421,1.631535 z m 0.811184,-2.548126 c 0.03667,-0.302475 0.06416,-0.604951 0.06416,-0.916593 0,-0.311642 -0.02751,-0.614118 -0.06416,-0.916593 h 1.549041 c 0.07332,0.293311 0.119154,0.600368 0.119154,0.916593 0,0.316223 -0.04583,0.623282 -0.119154,0.916593 z"
         id="path4"
         style="fill:#ffffff;stroke-width:0.45829609" />
    </g>
  </g>
</svg>
