<?xml version="1.0" encoding="UTF-8" standalone="no"?>
<svg
   xmlns:dc="http://purl.org/dc/elements/1.1/"
   xmlns:cc="http://creativecommons.org/ns#"
   xmlns:rdf="http://www.w3.org/1999/02/22-rdf-syntax-ns#"
   xmlns:svg="http://www.w3.org/2000/svg"
   xmlns="http://www.w3.org/2000/svg"
   id="svg7613"
   version="1.1"
   viewBox="0 0 100 100"
   height="100mm"
   width="100mm">
  <defs
     id="defs7607" />
  <metadata
     id="metadata7610">
    <rdf:RDF>
      <cc:Work
         rdf:about="">
        <dc:format>image/svg+xml</dc:format>
        <dc:type
           rdf:resource="http://purl.org/dc/dcmitype/StillImage" />
        <dc:title></dc:title>
      </cc:Work>
    </rdf:RDF>
  </metadata>
  <g
     transform="translate(-88.833635,-9.1365922)"
     id="layer1">
    <g
       id="g5955"
       transform="matrix(7.1199753,0,0,7.1199753,-5922.4886,-559.00418)">
      <circle
         r="7.0224962"
         cy="86.817825"
         cx="851.31226"
         id="circle5938"
         style="color:#000000;display:inline;overflow:visible;visibility:visible;opacity:1;fill:#0065da;fill-opacity:1;fill-rule:nonzero;stroke:none;stroke-width:30;stroke-linecap:round;stroke-linejoin:round;stroke-miterlimit:4;stroke-dasharray:none;stroke-dashoffset:0;stroke-opacity:1;marker:none;enable-background:accumulate" />
      <path
         style="fill:#f5fbfb"
         d="m 849.6309,91.183586 c -2.12109,-1.056251 -2.65454,-3.693892 -1.10977,-5.487251 0.54231,-0.629599 1.13278,-0.979812 1.92053,-1.139099 0.78644,-0.159022 1.54786,-0.004 2.08171,0.424401 l 0.39088,0.313511 v -1.456705 -1.456704 l 0.59934,-0.124195 c 0.32963,-0.06835 0.76143,-0.164359 0.95953,-0.213459 0.25467,-0.06316 0.3845,-0.05185 0.44316,0.0385 0.0916,0.141084 0.10395,8.967033 0.013,9.204266 -0.0433,0.112725 -0.2787,0.148194 -0.98381,0.148194 h -0.92694 V 91.12234 c 0,-0.171981 -0.0244,-0.312697 -0.0541,-0.312697 -0.0299,0 -0.25261,0.128289 -0.49512,0.28508 -0.38292,0.247584 -0.5643,0.289236 -1.37901,0.31671 -0.82771,0.02791 -0.99943,10e-4 -1.45926,-0.227894 z m 2.63321,-1.798993 c 0.72229,-0.539264 0.9382,-1.363202 0.5602,-2.137756 -0.58933,-1.207583 -2.22791,-1.278002 -2.93969,-0.126343 -0.33633,0.544194 -0.25401,1.479502 0.16986,1.930032 0.16833,0.178906 0.44677,0.390694 0.61876,0.470628 0.41511,0.192954 1.24493,0.121729 1.59087,-0.136561 z"
         id="path5934-3" />
    </g>
  </g>
</svg>
