<?xml version="1.0" encoding="UTF-8" standalone="no"?>
<svg
   xmlns:dc="http://purl.org/dc/elements/1.1/"
   xmlns:cc="http://creativecommons.org/ns#"
   xmlns:rdf="http://www.w3.org/1999/02/22-rdf-syntax-ns#"
   xmlns:svg="http://www.w3.org/2000/svg"
   xmlns="http://www.w3.org/2000/svg"
   id="svg7670"
   version="1.1"
   viewBox="0 0 100 100"
   height="100mm"
   width="100mm">
  <defs
     id="defs7664" />
  <metadata
     id="metadata7667">
    <rdf:RDF>
      <cc:Work
         rdf:about="">
        <dc:format>image/svg+xml</dc:format>
        <dc:type
           rdf:resource="http://purl.org/dc/dcmitype/StillImage" />
        <dc:title></dc:title>
      </cc:Work>
    </rdf:RDF>
  </metadata>
  <g
     transform="translate(-96.393183,-21.231841)"
     id="layer1">
    <g
       id="g6703"
       transform="matrix(2.1992415,0,0,2.1992415,1666.0402,-1724.7463)">
      <circle
         r="22.735111"
         cy="816.63525"
         cx="-690.98688"
         id="circle6670"
         style="color:#000000;display:inline;overflow:visible;visibility:visible;opacity:1;fill:#333333;fill-opacity:1;fill-rule:nonzero;stroke:none;stroke-width:30;stroke-linecap:round;stroke-linejoin:round;stroke-miterlimit:4;stroke-dasharray:none;stroke-dashoffset:0;stroke-opacity:1;marker:none;enable-background:accumulate" />
      <path
         style="fill:#ffffff"
         d="m -700.16785,829.65643 c -1.36534,-0.98935 -2.5157,-1.89693 -2.55637,-2.01684 -0.0406,-0.11991 1.21372,-2.04898 2.78755,-4.28682 1.57384,-2.23784 2.81283,-4.19571 2.7533,-4.35082 -0.0596,-0.15511 -1.21237,-0.61771 -2.56188,-1.02802 -6.34688,-1.92966 -6.17763,-1.86447 -6.17243,-2.37808 0.002,-0.26464 0.39173,-1.69981 0.86454,-3.18926 0.60265,-1.89841 0.97211,-2.72988 1.2357,-2.78094 0.20681,-0.0401 2.14406,0.4931 4.305,1.18479 2.16094,0.6917 4.08884,1.25764 4.28422,1.25764 0.31102,0 0.3628,-0.63914 0.41589,-5.13411 l 0.0607,-5.13409 h 3.72362 3.72364 l 0.0607,5.13409 c 0.0542,4.58372 0.10038,5.13411 0.43082,5.13411 0.20361,0 2.13846,-0.56459 4.2997,-1.25466 2.16125,-0.69006 4.09678,-1.22244 4.30118,-1.18307 0.42324,0.0814 2.42354,6.01946 2.12748,6.3155 -0.0949,0.0949 -2.094,0.76757 -4.44242,1.49481 -2.34842,0.72724 -4.30863,1.43852 -4.356,1.58063 -0.0474,0.14212 1.19101,2.07984 2.75196,4.30606 1.56094,2.2262 2.83806,4.14002 2.83806,4.25293 0,0.2758 -5.08029,3.89727 -5.45745,3.89032 -0.16349,-0.002 -1.56167,-1.72942 -3.1071,-3.83645 -1.54542,-2.10706 -2.93214,-3.831 -3.08162,-3.831 -0.14946,0 -1.5762,1.7225 -3.17051,3.82778 -1.59432,2.10527 -3.05109,3.827 -3.23726,3.82605 -0.1862,-9.1e-4 -1.45561,-0.81119 -2.82094,-1.80055 z"
         id="path6696" />
    </g>
  </g>
</svg>
