<?xml version="1.0" encoding="UTF-8" standalone="no"?>
<svg
   xmlns:dc="http://purl.org/dc/elements/1.1/"
   xmlns:cc="http://creativecommons.org/ns#"
   xmlns:rdf="http://www.w3.org/1999/02/22-rdf-syntax-ns#"
   xmlns:svg="http://www.w3.org/2000/svg"
   xmlns="http://www.w3.org/2000/svg"
   id="svg7381"
   version="1.1"
   viewBox="0 0 100 100"
   height="100mm"
   width="100mm">
  <defs
     id="defs7375" />
  <metadata
     id="metadata7378">
    <rdf:RDF>
      <cc:Work
         rdf:about="">
        <dc:format>image/svg+xml</dc:format>
        <dc:type
           rdf:resource="http://purl.org/dc/dcmitype/StillImage" />
        <dc:title></dc:title>
      </cc:Work>
    </rdf:RDF>
  </metadata>
  <g
     transform="translate(-75.226441,-34.838972)"
     id="layer1">
    <g
       id="g5975"
       transform="matrix(7.1199753,0,0,7.1199753,-6078.4953,-533.3018)">
      <circle
         style="color:#000000;display:inline;overflow:visible;visibility:visible;opacity:1;fill:#2e5e86;fill-opacity:1;fill-rule:nonzero;stroke:none;stroke-width:30;stroke-linecap:round;stroke-linejoin:round;stroke-miterlimit:4;stroke-dasharray:none;stroke-dashoffset:0;stroke-opacity:1;marker:none;enable-background:accumulate"
         id="circle5961"
         cx="871.31226"
         cy="86.817825"
         r="7.0224962" />
      <path
         style="fill:#ffffff"
         d="m 867.70239,91.292579 c -0.36589,-0.08662 -0.68936,-0.395624 -0.80756,-0.771468 l -0.0504,-0.160256 v -3.544992 -3.544992 l 0.051,-0.162289 c 0.0992,-0.315556 0.34931,-0.590303 0.65541,-0.719977 l 0.14887,-0.06306 h 3.61251 3.61252 l 0.14887,0.06306 c 0.30609,0.129674 0.55621,0.404421 0.65541,0.719977 l 0.051,0.162289 v 3.544992 3.544992 l -0.051,0.162288 c -0.0992,0.315556 -0.34932,0.590303 -0.65541,0.719978 l -0.14887,0.06306 -3.5675,0.0036 c -2.10374,0.0021 -3.60335,-0.0049 -3.65487,-0.01714 z m 6.81509,-1.039007 c 0.0484,-0.02766 0.11924,-0.0892 0.15756,-0.13676 l 0.0697,-0.08649 0.006,-2.023627 0.006,-2.023627 h -0.38298 c -0.21844,0 -0.38299,0.0089 -0.38299,0.02073 0,0.0114 0.0222,0.110155 0.0493,0.219452 0.0405,0.162677 0.0496,0.266083 0.0506,0.5701 8.9e-4,0.40298 -0.0212,0.563089 -0.12414,0.880943 -0.27305,0.843161 -0.95274,1.52285 -1.7959,1.7959 -0.31083,0.100656 -0.48015,0.125389 -0.85844,0.125389 -0.37828,0 -0.54761,-0.02473 -0.85843,-0.125389 -0.84316,-0.27305 -1.52285,-0.952739 -1.7959,-1.7959 -0.10294,-0.317854 -0.12549,-0.477963 -0.12414,-0.880943 8.9e-4,-0.304017 0.0102,-0.407423 0.0506,-0.5701 0.0271,-0.109297 0.0493,-0.20805 0.0493,-0.219452 0,-0.01179 -0.16025,-0.02073 -0.37197,-0.02073 h -0.37196 l 0.006,1.997575 c 0.007,2.199445 -0.003,2.048935 0.1448,2.198108 0.13008,0.131227 -0.0603,0.124026 3.29386,0.12458 l 3.09484,5.11e-4 0.0879,-0.05027 z m -2.85486,-1.639121 c 0.45959,-0.08449 0.91524,-0.393353 1.18112,-0.800639 0.20295,-0.310888 0.29165,-0.615204 0.29165,-1.000612 0,-0.62817 -0.30147,-1.185274 -0.8281,-1.53033 -0.30626,-0.200665 -0.61313,-0.290146 -0.99505,-0.290146 -0.38191,0 -0.68877,0.08948 -0.99503,0.290146 -0.52664,0.345056 -0.8281,0.90216 -0.8281,1.53033 0,0.269238 0.029,0.434233 0.11586,0.660086 0.21615,0.56179 0.72965,1.004582 1.31339,1.132534 0.16766,0.03675 0.56615,0.04138 0.74426,0.0086 z m 2.85486,-3.695248 c 0.0484,-0.02765 0.11924,-0.08917 0.15756,-0.13671 l 0.0697,-0.08644 0.007,-0.514259 c 0.006,-0.473776 0.003,-0.521012 -0.0372,-0.600053 -0.0553,-0.107788 -0.1269,-0.175167 -0.23365,-0.219767 -0.0663,-0.02771 -0.18051,-0.03484 -0.55787,-0.03484 -0.50543,0 -0.5434,0.0068 -0.64564,0.116334 -0.10655,0.114121 -0.11924,0.187954 -0.11924,0.693949 0,0.505845 0.0125,0.578669 0.11924,0.694781 0.11158,0.121369 0.19039,0.137012 0.69104,0.137147 0.43638,1.12e-4 0.46618,-0.0026 0.5493,-0.05014 z"
         id="path5971" />
    </g>
  </g>
</svg>
