<?xml version="1.0" encoding="UTF-8" standalone="no"?>
<svg
   xmlns:dc="http://purl.org/dc/elements/1.1/"
   xmlns:cc="http://creativecommons.org/ns#"
   xmlns:rdf="http://www.w3.org/1999/02/22-rdf-syntax-ns#"
   xmlns:svg="http://www.w3.org/2000/svg"
   xmlns="http://www.w3.org/2000/svg"
   id="svg7876"
   version="1.1"
   viewBox="0 0 231.75192 100"
   height="100mm"
   width="231.75192mm">
  <defs
     id="defs7870" />
  <metadata
     id="metadata7873">
    <rdf:RDF>
      <cc:Work
         rdf:about="">
        <dc:format>image/svg+xml</dc:format>
        <dc:type
           rdf:resource="http://purl.org/dc/dcmitype/StillImage" />
        <dc:title></dc:title>
      </cc:Work>
    </rdf:RDF>
  </metadata>
  <g
     transform="translate(-86.241554,-31.77638)"
     id="layer1">
    <g
       transform="matrix(10.276066,0,0,10.276066,-799.98242,-1222.3665)"
       id="g7909">
      <g
         transform="matrix(0.28222223,0,0,0.28222223,-6.4396068,-83.155718)"
         id="g7844">
        <path
           id="path6991"
           d="m 340.13855,736.42639 -11.74072,25.14405 h 18.479 z"
           style="fill:#ff5722;fill-opacity:1;fill-rule:evenodd;stroke:none;stroke-width:1px;stroke-linecap:butt;stroke-linejoin:miter;stroke-opacity:1" />
        <path
           id="path7114-6"
           d="m 340.13855,736.42639 6.73828,25.14405 h 13.72193 l -8.27087,-16.92445 -4.67286,7.78748 z"
           style="fill:#d84315;fill-opacity:1;fill-rule:evenodd;stroke:none;stroke-width:1px;stroke-linecap:butt;stroke-linejoin:miter;stroke-opacity:1" />
      </g>
      <g
         id="g7840"
         transform="matrix(0.26644738,0,0,0.26644738,-1.2876118,-71.142068)">
        <path
           transform="scale(0.9375)"
           id="path7836"
           d="m 425.75391,783.93359 -4.58203,9.39649 -10.35157,1.45508 7.51953,7.26172 -1.8164,10.29492 9.23047,-4.91016 z"
           style="fill:#f1bf26;fill-opacity:1;fill-rule:nonzero;stroke-width:0.85352868" />
        <path
           transform="scale(0.9375)"
           id="path7814"
           d="m 425.75391,783.93359 v 23.49805 l 9.23047,4.91016 -1.81641,-10.29492 7.52148,-7.26172 -10.35351,-1.45508 z"
           style="fill:#e5a228;fill-opacity:1;fill-rule:nonzero;stroke-width:0.85352868" />
      </g>
      <g
         id="g7851"
         transform="matrix(0.28222223,0,0,0.28222223,-7.5971588,-83.155718)">
        <path
           id="path7818"
           transform="scale(0.9375)"
           d="m 400.57617,775.5625 c -0.29228,0.005 -0.62263,0.0342 -1.02539,0.0957 -1.05317,0.16074 -3.35693,0.99024 -4.27148,1.45508 -4.20263,2.13608 -4.02682,2.11166 -6.96094,4.13672 -0.5684,0.51102 -1.17452,0.983 -1.70508,1.5332 -1.23134,1.27694 -2.26464,2.77072 -2.63476,4.53125 -0.0624,0.29689 -0.10396,1.33649 -0.12305,1.74414 l 3.28906,-1.67578 c -0.0222,-0.45717 -0.0798,-1.25785 -0.004,-1.6582 0.30984,-1.6317 1.40244,-3.09735 2.54102,-4.24609 0.52634,-0.53106 1.12757,-0.9816 1.69141,-1.47266 2.3009,-1.61057 4.64402,-2.16565 5.54492,-2.32227 1.52998,-0.25808 1.94972,-0.0241 3.39062,0.30079 0.42945,0.26045 0.89622,0.46584 1.28711,0.78124 1.52015,1.22662 2.90805,3.25561 3.64062,5.01759 0.10401,0.22737 0.2085,0.45427 0.3125,0.68164 l 3.13282,-1.77734 c -0.1102,-0.2201 -0.22185,-0.44005 -0.33204,-0.66016 -0.84805,-1.78304 -2.31186,-3.8501 -3.86327,-5.12501 -0.41636,-0.34215 -0.91293,-0.57448 -1.36914,-0.86132 -1.12927,-0.27704 -1.66419,-0.49203 -2.54102,-0.47852 z"
           style="fill:#1a1a1a;fill-opacity:1;fill-rule:nonzero;stroke-width:1" />
        <path
           id="path7820"
           transform="scale(0.9375)"
           d="m 412.83203,778.58789 -3.10937,1.49414 c -0.45062,2.00291 -0.23131,0.97551 -0.65039,3.08594 -0.14288,0.87147 -0.32005,2.06871 -0.53907,2.93164 -0.0122,0.0482 -0.0502,0.11155 -0.0762,0.16797 -0.50375,-0.21102 -0.8774,-0.37391 -1.75781,-0.8125 -1.59461,-0.79439 -3.11522,-1.72946 -4.75586,-2.43164 l -2.99024,2.11133 c 1.73369,0.46819 3.28823,1.39769 4.87891,2.20117 1.32999,0.67179 1.18856,0.59449 2.44922,1.18164 0.29731,0.0789 0.58498,0.23733 0.89258,0.23633 0.25728,-9.7e-4 0.52027,-0.0967 0.73242,-0.24219 1.2114,-0.83106 2.48731,-1.60924 3.50781,-2.66602 0.29685,-0.30738 0.19379,-0.8325 0.27539,-1.25195 0.17697,-0.91007 0.33798,-2.02864 0.47657,-2.94141 0.40198,-2.09224 0.17744,-1.0717 0.66601,-3.06445 z"
           style="fill:#1a1a1a;fill-opacity:1;fill-rule:nonzero;stroke-width:1" />
      </g>
    </g>
  </g>
</svg>
