<?xml version="1.0" encoding="UTF-8" standalone="no"?>
<svg
   xmlns:dc="http://purl.org/dc/elements/1.1/"
   xmlns:cc="http://creativecommons.org/ns#"
   xmlns:rdf="http://www.w3.org/1999/02/22-rdf-syntax-ns#"
   xmlns:svg="http://www.w3.org/2000/svg"
   xmlns="http://www.w3.org/2000/svg"
   id="svg24806"
   version="1.1"
   viewBox="0 0 100 100"
   height="100mm"
   width="100mm">
  <defs
     id="defs24800" />
  <metadata
     id="metadata24803">
    <rdf:RDF>
      <cc:Work
         rdf:about="">
        <dc:format>image/svg+xml</dc:format>
        <dc:type
           rdf:resource="http://purl.org/dc/dcmitype/StillImage" />
        <dc:title></dc:title>
      </cc:Work>
    </rdf:RDF>
  </metadata>
  <g
     transform="translate(-85.5719,-0.30307375)"
     id="layer1">
    <g
       transform="matrix(0.2277175,0,0,0.2277175,-186.94057,-1102.7694)"
       id="g5752">
      <path
         style="color:#000000;display:inline;overflow:visible;visibility:visible;opacity:1;fill:#11aacc;fill-opacity:1;fill-rule:nonzero;stroke:none;stroke-width:5.05299997;stroke-miterlimit:4;stroke-dasharray:none;stroke-opacity:1;marker:none;enable-background:accumulate"
         d="m 1416.2832,4844.0391 a 219.56998,219.56998 0 0 0 -219.5703,219.5703 219.56998,219.56998 0 0 0 219.5703,219.5703 219.56998,219.56998 0 0 0 219.5703,-219.5703 219.56998,219.56998 0 0 0 -219.5703,-219.5703 z"
         id="path5691" />
      <path
         style="fill:#0e94b2;fill-opacity:1;fill-rule:evenodd;stroke:none;stroke-width:1px;stroke-linecap:butt;stroke-linejoin:miter;stroke-opacity:1"
         d="m 1564.0938,4980.9805 -58.0254,35.0918 -62.3418,-21.5274 -60.1778,21.6113 -61.541,-21.0761 c -20.3547,7.6807 -36.6087,21.9197 -54.1953,34.0293 l 25.125,25.125 -25.125,33.1718 25.125,25.127 -25.125,33.1719 136.8867,136.8945 a 219.56998,219.56998 0 0 0 11.584,0.5801 219.56998,219.56998 0 0 0 219.5703,-219.5703 219.56998,219.56998 0 0 0 -0.4004,-11.2696 z"
         id="path5737" />
      <g
         id="g5730"
         transform="translate(0.77874277,-6.663406)">
        <path
           id="path5709"
           d="m 1444.0241,4986.748 c -1.2656,0.03 -2.2108,0.2916 -3.1713,0.5577 -2.5617,0.7095 -5.0813,1.8562 -8.0371,3.3408 -5.9114,2.9692 -13.2223,7.3349 -20.6009,12.0095 -7.3785,4.6746 -14.7717,9.6377 -20.5959,13.7234 -2.9121,2.0429 -5.4271,3.8624 -7.3873,5.346 -0.5945,0.45 -1.0009,0.7538 -1.4607,1.0939 -1.306,-0.4835 -2.9048,-1.1138 -5.0991,-2.1466 -5.2596,-2.4753 -12.3351,-6.246 -19.4182,-10.3416 -7.0832,-4.0954 -14.2148,-8.5386 -19.6469,-12.3319 -2.716,-1.8966 -5.0129,-3.6415 -6.5796,-4.9939 -1.5668,-1.3524 -2.3772,-2.8094 -1.8341,-1.6432 -0.8693,-1.8664 -2.7703,-3.3364 -4.2488,-3.8738 -1.4784,-0.5375 -2.5675,-0.5235 -3.4411,-0.4705 -1.7473,0.1061 -2.8761,0.4993 -4.1073,0.9409 -2.4627,0.8833 -5.0842,2.1853 -8.1408,3.8359 -6.113,3.3013 -13.716,7.9877 -21.2538,12.8188 -8.3333,5.3409 -16.278,10.6677 -21.9679,14.5295 v 16.6301 c 0,0 14.585,-10.1234 29.3749,-19.6025 7.3949,-4.7394 14.8636,-9.3218 20.3705,-12.2956 1.9604,-1.0587 3.1864,-1.5751 4.4512,-2.1319 0.5924,0.5393 1.1557,1.0734 1.8275,1.6531 2.1357,1.8436 4.729,3.7899 7.6899,5.8576 5.922,4.1353 13.2895,8.7145 20.6354,12.9619 7.346,4.2474 14.6289,8.1415 20.4431,10.8778 2.9069,1.3682 5.4088,2.4445 7.6356,3.1829 1.1133,0.3693 2.1171,0.6738 3.4527,0.8389 0.6678,0.083 1.4232,0.1566 2.5545,-0.016 1.1314,-0.1726 2.9465,-0.6513 4.512,-2.4328 -0.7438,0.8465 0.7799,-0.6641 2.5364,-1.9936 1.7566,-1.3295 4.1702,-3.0778 6.9859,-5.0532 5.6318,-3.9506 12.8923,-8.8256 20.0598,-13.3665 7.1674,-4.5408 14.2961,-8.7674 19.4148,-11.3383 1.8351,-0.9218 2.892,-1.2962 3.9709,-1.7058 0.4508,0.3737 0.8611,0.7449 1.3817,1.1414 1.8791,1.4316 4.291,3.1058 7.139,4.999 5.6957,3.7864 13.0879,8.3979 20.5465,12.8435 7.4586,4.4456 14.9519,8.7092 20.8921,11.8039 2.97,1.5473 5.5236,2.7955 7.6898,3.6895 1.0833,0.4469 2.0322,0.813 3.1962,1.0988 0.582,0.1429 1.2044,0.2863 2.2009,0.3059 0.9961,0.019 2.6976,0.1351 4.8689,-1.6333 -0.2685,0.2187 1.2862,-0.8906 3.1878,-2.0775 1.9015,-1.1871 4.4431,-2.7277 7.3774,-4.4808 5.8687,-3.5062 13.3224,-7.8703 20.6388,-12.1213 9.0139,-5.2375 16.472,-9.5292 21.9069,-12.6494 v -15.8257 c 0,0 -14.1192,8.073 -28.8041,16.6053 -7.3424,4.2662 -14.8248,8.6463 -20.7818,12.2052 -2.9785,1.7796 -5.5734,3.3519 -7.6061,4.6207 -0.661,0.4125 -0.9753,0.6769 -1.4919,1.0017 -1.4721,-0.6313 -3.4955,-1.5874 -6.0402,-2.9131 -5.5463,-2.8896 -12.9072,-7.0718 -20.206,-11.4223 -7.299,-4.3504 -14.5662,-8.8871 -19.9758,-12.4832 -2.7047,-1.7981 -4.9576,-3.3733 -6.4201,-4.4874 -0.5789,-0.4411 -0.9006,-0.7173 -1.1662,-0.9474 0.1846,0.2697 0.3859,0.547 0.7616,1.783 -0.2088,-0.6866 -0.6142,-1.3764 -1.061,-2.0281 -8e-4,-8e-4 -0.01,3e-4 -0.01,-0.01 v -0.01 c -0.5871,-0.854 -1.2835,-1.631 -2.0693,-2.145 -1.3878,-0.9075 -2.6881,-1.1763 -3.6994,-1.2765 v 0.01 c -0.5056,-0.05 -0.9631,-0.066 -1.385,-0.056 z"
           style="color:#000000;font-style:normal;font-variant:normal;font-weight:normal;font-stretch:normal;font-size:medium;line-height:normal;font-family:sans-serif;text-indent:0;text-align:start;text-decoration:none;text-decoration-line:none;text-decoration-style:solid;text-decoration-color:#000000;letter-spacing:normal;word-spacing:normal;text-transform:none;writing-mode:lr-tb;direction:ltr;baseline-shift:baseline;text-anchor:start;white-space:normal;clip-rule:nonzero;display:inline;overflow:visible;visibility:visible;opacity:1;isolation:auto;mix-blend-mode:normal;color-interpolation:sRGB;color-interpolation-filters:linearRGB;solid-color:#000000;solid-opacity:1;fill:#ffffff;fill-opacity:1;fill-rule:evenodd;stroke:none;stroke-width:16.29999924;stroke-linecap:butt;stroke-linejoin:round;stroke-miterlimit:4;stroke-dasharray:none;stroke-dashoffset:0;stroke-opacity:1;color-rendering:auto;image-rendering:auto;shape-rendering:auto;text-rendering:auto;enable-background:accumulate" />
        <path
           style="color:#000000;font-style:normal;font-variant:normal;font-weight:normal;font-stretch:normal;font-size:medium;line-height:normal;font-family:sans-serif;text-indent:0;text-align:start;text-decoration:none;text-decoration-line:none;text-decoration-style:solid;text-decoration-color:#000000;letter-spacing:normal;word-spacing:normal;text-transform:none;writing-mode:lr-tb;direction:ltr;baseline-shift:baseline;text-anchor:start;white-space:normal;clip-rule:nonzero;display:inline;overflow:visible;visibility:visible;opacity:1;isolation:auto;mix-blend-mode:normal;color-interpolation:sRGB;color-interpolation-filters:linearRGB;solid-color:#000000;solid-opacity:1;fill:#ffffff;fill-opacity:1;fill-rule:evenodd;stroke:none;stroke-width:16.29999924;stroke-linecap:butt;stroke-linejoin:round;stroke-miterlimit:4;stroke-dasharray:none;stroke-dashoffset:0;stroke-opacity:1;color-rendering:auto;image-rendering:auto;shape-rendering:auto;text-rendering:auto;enable-background:accumulate"
           d="m 1444.0241,5045.0456 c -1.2656,0.03 -2.2108,0.2916 -3.1713,0.5577 -2.5617,0.7095 -5.0813,1.8562 -8.0371,3.3408 -5.9114,2.9692 -13.2223,7.3349 -20.6009,12.0095 -7.3785,4.6746 -14.7717,9.6377 -20.5959,13.7234 -2.9121,2.0429 -5.4271,3.8624 -7.3873,5.346 -0.5945,0.45 -1.0009,0.7538 -1.4607,1.0939 -1.306,-0.4835 -2.9048,-1.1138 -5.0991,-2.1466 -5.2596,-2.4753 -12.3351,-6.246 -19.4182,-10.3416 -7.0832,-4.0954 -14.2148,-8.5386 -19.6469,-12.3319 -2.716,-1.8966 -5.0129,-3.6415 -6.5796,-4.9939 -1.5668,-1.3524 -2.3772,-2.8094 -1.8341,-1.6432 -0.8693,-1.8664 -2.7703,-3.3364 -4.2488,-3.8738 -1.4784,-0.5375 -2.5675,-0.5235 -3.4411,-0.4705 -1.7473,0.1061 -2.8761,0.4993 -4.1073,0.9409 -2.4627,0.8833 -5.0842,2.1853 -8.1408,3.8359 -6.113,3.3013 -13.716,7.9877 -21.2538,12.8188 -8.3333,5.3409 -16.278,10.6677 -21.9679,14.5295 v 16.6301 c 0,0 14.585,-10.1234 29.3749,-19.6025 7.3949,-4.7394 14.8636,-9.3218 20.3705,-12.2956 1.9604,-1.0587 3.1864,-1.5751 4.4512,-2.1319 0.5924,0.5393 1.1557,1.0734 1.8275,1.6531 2.1357,1.8436 4.729,3.7899 7.6899,5.8576 5.922,4.1353 13.2895,8.7145 20.6354,12.9619 7.346,4.2474 14.6289,8.1415 20.4431,10.8778 2.9069,1.3683 5.4088,2.4445 7.6356,3.1829 1.1133,0.3693 2.1171,0.6738 3.4527,0.8389 0.6678,0.083 1.4232,0.1566 2.5545,-0.016 1.1314,-0.1726 2.9465,-0.6513 4.512,-2.4328 -0.7438,0.8465 0.7799,-0.6641 2.5364,-1.9936 1.7566,-1.3295 4.1702,-3.0778 6.9859,-5.0532 5.6318,-3.9506 12.8923,-8.8256 20.0598,-13.3665 7.1674,-4.5408 14.2961,-8.7674 19.4148,-11.3383 1.8351,-0.9218 2.892,-1.2962 3.9709,-1.7058 0.4508,0.3737 0.8611,0.7449 1.3817,1.1414 1.8791,1.4316 4.291,3.1058 7.139,4.999 5.6957,3.7864 13.0879,8.3979 20.5465,12.8435 7.4586,4.4456 14.9519,8.7092 20.8921,11.8039 2.97,1.5473 5.5236,2.7955 7.6898,3.6895 1.0833,0.4469 2.0322,0.813 3.1962,1.0988 0.582,0.1429 1.2044,0.2863 2.2009,0.3059 0.9961,0.019 2.6976,0.1351 4.8689,-1.6333 -0.2685,0.2187 1.2862,-0.8906 3.1878,-2.0775 1.9015,-1.1871 4.4431,-2.7277 7.3774,-4.4808 5.8687,-3.5062 13.3224,-7.8703 20.6388,-12.1213 9.0139,-5.2375 16.472,-9.5292 21.9069,-12.6494 v -15.8257 c 0,0 -14.1192,8.073 -28.8041,16.6053 -7.3424,4.2663 -14.8248,8.6463 -20.7818,12.2052 -2.9785,1.7796 -5.5734,3.3519 -7.6061,4.6207 -0.661,0.4125 -0.9753,0.6769 -1.4919,1.0017 -1.4721,-0.6313 -3.4955,-1.5874 -6.0402,-2.9131 -5.5463,-2.8896 -12.9072,-7.0718 -20.206,-11.4223 -7.299,-4.3504 -14.5662,-8.8871 -19.9758,-12.4832 -2.7047,-1.7981 -4.9576,-3.3733 -6.4201,-4.4874 -0.5789,-0.4411 -0.9006,-0.7173 -1.1662,-0.9474 0.1846,0.2697 0.3859,0.547 0.7616,1.783 -0.2088,-0.6866 -0.6142,-1.3764 -1.061,-2.0281 -8e-4,-8e-4 -0.01,3e-4 -0.01,-0.01 v -0.01 c -0.5871,-0.854 -1.2835,-1.631 -2.0693,-2.145 -1.3878,-0.9075 -2.6881,-1.1763 -3.6994,-1.2765 v 0.01 c -0.5056,-0.05 -0.9631,-0.066 -1.385,-0.056 z"
           id="path5724" />
        <path
           id="path5726"
           d="m 1444.0241,5103.3433 c -1.2656,0.03 -2.2108,0.2915 -3.1713,0.5576 -2.5617,0.7095 -5.0813,1.8562 -8.0371,3.3408 -5.9114,2.9692 -13.2223,7.3349 -20.6009,12.0095 -7.3785,4.6746 -14.7717,9.6378 -20.5959,13.7234 -2.9121,2.0429 -5.4271,3.8624 -7.3873,5.346 -0.5945,0.45 -1.0009,0.7538 -1.4607,1.0939 -1.306,-0.4835 -2.9048,-1.1138 -5.0991,-2.1466 -5.2596,-2.4753 -12.3351,-6.246 -19.4182,-10.3416 -7.0832,-4.0954 -14.2148,-8.5386 -19.6469,-12.3319 -2.716,-1.8966 -5.0129,-3.6415 -6.5796,-4.9939 -1.5668,-1.3524 -2.3772,-2.8094 -1.8341,-1.6432 -0.8693,-1.8664 -2.7703,-3.3364 -4.2488,-3.8738 -1.4784,-0.5375 -2.5675,-0.5235 -3.4411,-0.4705 -1.7473,0.1061 -2.8761,0.4993 -4.1073,0.9409 -2.4627,0.8833 -5.0842,2.1853 -8.1408,3.8359 -6.113,3.3013 -13.716,7.9877 -21.2538,12.8188 -8.3333,5.3409 -16.278,10.6677 -21.9679,14.5295 v 16.6301 c 0,0 14.585,-10.1234 29.3749,-19.6025 7.3949,-4.7394 14.8636,-9.3218 20.3705,-12.2956 1.9604,-1.0587 3.1864,-1.5751 4.4512,-2.1319 0.5924,0.5393 1.1557,1.0734 1.8275,1.6531 2.1357,1.8436 4.729,3.7899 7.6899,5.8576 5.922,4.1353 13.2895,8.7145 20.6354,12.9619 7.346,4.2474 14.6289,8.1415 20.4431,10.8778 2.9069,1.3683 5.4088,2.4445 7.6356,3.1829 1.1133,0.3693 2.1171,0.6738 3.4527,0.8389 0.6678,0.083 1.4232,0.1567 2.5545,-0.016 1.1314,-0.1726 2.9465,-0.6513 4.512,-2.4328 -0.7438,0.8465 0.7799,-0.6641 2.5364,-1.9936 1.7566,-1.3295 4.1702,-3.0778 6.9859,-5.0532 5.6318,-3.9505 12.8923,-8.8256 20.0598,-13.3665 7.1674,-4.5408 14.2961,-8.7674 19.4148,-11.3383 1.8351,-0.9218 2.892,-1.2962 3.9709,-1.7058 0.4508,0.3737 0.8611,0.7449 1.3817,1.1414 1.8791,1.4316 4.291,3.1058 7.139,4.999 5.6957,3.7864 13.0879,8.3979 20.5465,12.8435 7.4586,4.4456 14.9519,8.7092 20.8921,11.8039 2.97,1.5473 5.5236,2.7955 7.6898,3.6896 1.0833,0.4468 2.0322,0.8129 3.1962,1.0987 0.582,0.1429 1.2044,0.2864 2.2009,0.3059 0.9961,0.019 2.6976,0.1351 4.8689,-1.6333 -0.2685,0.2187 1.2862,-0.8906 3.1878,-2.0775 1.9015,-1.1871 4.4431,-2.7277 7.3774,-4.4808 5.8687,-3.5062 13.3224,-7.8703 20.6388,-12.1213 9.0139,-5.2375 16.472,-9.5292 21.9069,-12.6494 v -15.8257 c 0,0 -14.1192,8.073 -28.8041,16.6053 -7.3424,4.2663 -14.8248,8.6463 -20.7818,12.2052 -2.9785,1.7796 -5.5734,3.3519 -7.6061,4.6207 -0.661,0.4125 -0.9753,0.6769 -1.4919,1.0017 -1.4721,-0.6313 -3.4955,-1.5874 -6.0402,-2.9131 -5.5463,-2.8896 -12.9072,-7.0718 -20.206,-11.4223 -7.299,-4.3504 -14.5662,-8.8871 -19.9758,-12.4832 -2.7047,-1.7981 -4.9576,-3.3733 -6.4201,-4.4874 -0.5789,-0.4411 -0.9006,-0.7173 -1.1662,-0.9474 0.1846,0.2697 0.3859,0.547 0.7616,1.783 -0.2088,-0.6866 -0.6142,-1.3764 -1.061,-2.0281 -8e-4,-8e-4 -0.01,3e-4 -0.01,-0.01 v -0.01 c -0.5871,-0.854 -1.2835,-1.631 -2.0693,-2.145 -1.3878,-0.9075 -2.6881,-1.1763 -3.6994,-1.2765 v 0.01 c -0.5056,-0.05 -0.9631,-0.066 -1.385,-0.056 z"
           style="color:#000000;font-style:normal;font-variant:normal;font-weight:normal;font-stretch:normal;font-size:medium;line-height:normal;font-family:sans-serif;text-indent:0;text-align:start;text-decoration:none;text-decoration-line:none;text-decoration-style:solid;text-decoration-color:#000000;letter-spacing:normal;word-spacing:normal;text-transform:none;writing-mode:lr-tb;direction:ltr;baseline-shift:baseline;text-anchor:start;white-space:normal;clip-rule:nonzero;display:inline;overflow:visible;visibility:visible;opacity:1;isolation:auto;mix-blend-mode:normal;color-interpolation:sRGB;color-interpolation-filters:linearRGB;solid-color:#000000;solid-opacity:1;fill:#ffffff;fill-opacity:1;fill-rule:evenodd;stroke:none;stroke-width:16.29999924;stroke-linecap:butt;stroke-linejoin:round;stroke-miterlimit:4;stroke-dasharray:none;stroke-dashoffset:0;stroke-opacity:1;color-rendering:auto;image-rendering:auto;shape-rendering:auto;text-rendering:auto;enable-background:accumulate" />
      </g>
    </g>
  </g>
</svg>
