<?xml version="1.0" encoding="UTF-8" standalone="no"?>
<svg
   xmlns:dc="http://purl.org/dc/elements/1.1/"
   xmlns:cc="http://creativecommons.org/ns#"
   xmlns:rdf="http://www.w3.org/1999/02/22-rdf-syntax-ns#"
   xmlns:svg="http://www.w3.org/2000/svg"
   xmlns="http://www.w3.org/2000/svg"
   xmlns:xlink="http://www.w3.org/1999/xlink"
   id="svg23966"
   version="1.1"
   viewBox="0 0 100 100"
   height="100mm"
   width="100mm">
  <defs
     id="defs23960">
    <linearGradient
       gradientTransform="matrix(1.0569171,0,0,1.0569171,-56.384305,-26.00106)"
       gradientUnits="userSpaceOnUse"
       y2="356.55515"
       x2="857.88495"
       y1="382.67761"
       x1="939.81445"
       id="linearGradient9111"
       xlink:href="#linearGradient9105" />
    <linearGradient
       id="linearGradient9105">
      <stop
         id="stop9107"
         offset="0"
         style="stop-color:#ff80e5;stop-opacity:1;" />
      <stop
         id="stop9109"
         offset="1"
         style="stop-color:#ffffff;stop-opacity:1" />
    </linearGradient>
    <linearGradient
       gradientTransform="matrix(1.0569171,0,0,1.0569171,-51.991922,-22.236161)"
       gradientUnits="userSpaceOnUse"
       y2="352.99301"
       x2="740.92761"
       y1="390.3956"
       x1="807.42114"
       id="linearGradient9071"
       xlink:href="#linearGradient9105" />
    <linearGradient
       gradientTransform="matrix(1.0569171,0,0,1.0569171,-58.266754,-17.216295)"
       gradientUnits="userSpaceOnUse"
       y2="319.74625"
       x2="820.48236"
       y1="329.83902"
       x1="862.04083"
       id="linearGradient9079"
       xlink:href="#linearGradient9105" />
    <linearGradient
       gradientTransform="matrix(1.0569171,0,0,1.0569171,-58.266754,-17.216295)"
       gradientUnits="userSpaceOnUse"
       y2="300.15442"
       x2="827.60669"
       y1="298.96704"
       x1="867.97772"
       id="linearGradient9087"
       xlink:href="#linearGradient9105" />
    <linearGradient
       gradientTransform="matrix(1.0569171,0,0,1.0569171,-60.802714,-23.123556)"
       gradientUnits="userSpaceOnUse"
       y2="358.33624"
       x2="809.7959"
       y1="365.46054"
       x1="891.7254"
       id="linearGradient9095"
       xlink:href="#linearGradient9105" />
    <linearGradient
       gradientTransform="matrix(1.0569171,0,0,1.0569171,-51.991922,-22.236161)"
       gradientUnits="userSpaceOnUse"
       y2="301.3418"
       x2="772.39331"
       y1="329.83902"
       x1="816.92023"
       id="linearGradient9063"
       xlink:href="#linearGradient9105" />
    <linearGradient
       gradientTransform="matrix(1.0569171,0,0,1.0569171,-60.802714,-23.123556)"
       gradientUnits="userSpaceOnUse"
       y2="388.61453"
       x2="743.89612"
       y1="448.57742"
       x1="885.78851"
       id="linearGradient9103"
       xlink:href="#linearGradient9105" />
    <linearGradient
       gradientTransform="matrix(1.0569171,0,0,1.0569171,-56.384305,-26.00106)"
       gradientUnits="userSpaceOnUse"
       y2="325.68317"
       x2="895.88129"
       y1="339.93176"
       x1="948.12616"
       id="linearGradient9119"
       xlink:href="#linearGradient9105" />
  </defs>
  <metadata
     id="metadata23963">
    <rdf:RDF>
      <cc:Work
         rdf:about="">
        <dc:format>image/svg+xml</dc:format>
        <dc:type
           rdf:resource="http://purl.org/dc/dcmitype/StillImage" />
        <dc:title></dc:title>
      </cc:Work>
    </rdf:RDF>
  </metadata>
  <g
     transform="translate(-70.248904,30.487007)"
     id="layer1">
    <g
       id="g9244"
       transform="matrix(0.2731727,0,0,0.2731727,-119.71669,-88.319138)">
      <circle
         style="color:#000000;display:inline;overflow:visible;visibility:visible;opacity:1;fill:#31373f;fill-opacity:1;fill-rule:nonzero;stroke:none;stroke-width:3.4000001;stroke-miterlimit:4;stroke-dasharray:none;stroke-opacity:1;marker:none;enable-background:accumulate"
         id="path8962"
         cx="878.43915"
         cy="394.73978"
         r="183.03439" />
      <path
         style="fill:#2a2f36;fill-opacity:1;fill-rule:evenodd;stroke:none;stroke-width:1px;stroke-linecap:butt;stroke-linejoin:miter;stroke-opacity:1"
         d="m 843.46965,325.08209 -10.44794,-10.4479 -23.11137,14.89491 5.87641,25.87715 -38.02698,68.0332 148.02734,148.02735 c 72.65074,-19.49742 125.97569,-81.4584 134.43169,-156.20313 l -95.07622,-95.07812 -13.05065,30.79812 -14.88258,1.49471 -61.91502,-61.91498 -11.20915,24.42221 z"
         id="path9219" />
      <circle
         r="17.426584"
         cy="332.05753"
         cx="952.38385"
         id="circle9029"
         style="color:#000000;display:inline;overflow:visible;visibility:visible;opacity:1;fill:#ff70e2;fill-opacity:1;fill-rule:nonzero;stroke:none;stroke-width:3.4000001;stroke-miterlimit:4;stroke-dasharray:none;stroke-opacity:1;marker:none;enable-background:accumulate" />
      <circle
         style="color:#000000;display:inline;overflow:visible;visibility:visible;opacity:1;fill:#ff70e2;fill-opacity:1;fill-rule:nonzero;stroke:none;stroke-width:3.4000001;stroke-miterlimit:4;stroke-dasharray:none;stroke-opacity:1;marker:none;enable-background:accumulate"
         id="circle9021"
         cx="816.17212"
         cy="330.36871"
         r="23.053934" />
      <circle
         r="30.417425"
         cy="361.47974"
         cx="889.23102"
         id="circle9013"
         style="color:#000000;display:inline;overflow:visible;visibility:visible;opacity:1;fill:#ff70e2;fill-opacity:1;fill-rule:nonzero;stroke:none;stroke-width:3.4000001;stroke-miterlimit:4;stroke-dasharray:none;stroke-opacity:1;marker:none;enable-background:accumulate" />
      <path
         id="path9031"
         d="m 945.14117,350.98367 c -10.85262,0 -18.50682,7.22389 -20.26067,19.58937 -1.61814,11.40861 -1.89576,17.00834 -2.84364,28.41695 -0.25621,3.08371 3.16189,5.58598 6.25622,5.58598 h 46.98825 c 3.09433,0 5.71247,-2.49428 5.58494,-5.58598 -0.52133,-12.63741 -1.03519,-18.46146 -2.23418,-28.41695 -1.51304,-12.56304 -8.73678,-19.58937 -19.5894,-19.58937 z"
         style="color:#000000;display:inline;overflow:visible;visibility:visible;opacity:1;fill:url(#linearGradient9111);fill-opacity:1;fill-rule:nonzero;stroke:none;stroke-width:3.4000001;stroke-miterlimit:4;stroke-dasharray:none;stroke-opacity:1;marker:none;enable-background:accumulate" />
      <path
         style="color:#000000;display:inline;overflow:visible;visibility:visible;opacity:1;fill:url(#linearGradient9071);fill-opacity:1;fill-rule:nonzero;stroke:none;stroke-width:3.4000001;stroke-miterlimit:4;stroke-dasharray:none;stroke-opacity:1;marker:none;enable-background:accumulate"
         d="m 806.59062,355.40643 c -14.35712,0 -24.48299,9.55663 -26.8032,25.91513 -2.14066,15.09264 -2.50794,22.50061 -3.76191,37.59326 -0.33894,4.07951 4.18292,7.3898 8.27647,7.3898 h 62.16157 c 4.09356,0 7.55713,-3.29972 7.38842,-7.3898 -0.68967,-16.71823 -1.36946,-24.42297 -2.95563,-37.59326 -2.00162,-16.61988 -11.55804,-25.91513 -25.91513,-25.91513 z"
         id="path9023" />
      <circle
         style="color:#000000;display:inline;overflow:visible;visibility:visible;opacity:1;fill:#ff70e2;fill-opacity:1;fill-rule:nonzero;stroke:none;stroke-width:3.4000001;stroke-miterlimit:4;stroke-dasharray:none;stroke-opacity:1;marker:none;enable-background:accumulate"
         id="circle9037"
         cx="864.32245"
         cy="299.56949"
         r="14.194795" />
      <path
         style="color:#000000;display:inline;overflow:visible;visibility:visible;opacity:1;fill:url(#linearGradient9079);fill-opacity:1;fill-rule:nonzero;stroke:none;stroke-width:3.4000001;stroke-miterlimit:4;stroke-dasharray:none;stroke-opacity:1;marker:none;enable-background:accumulate"
         d="m 858.42293,314.9857 c -8.83997,0 -15.07469,5.88423 -16.50329,15.9565 -1.31805,9.29286 -1.54417,13.85411 -2.31627,23.14697 -0.2087,2.51184 2.57551,4.55005 5.09599,4.55005 h 38.27419 c 2.52049,0 4.65309,-2.0317 4.54921,-4.55005 -0.42466,-10.29378 -0.84322,-15.03774 -1.81985,-23.14697 -1.23244,-10.23322 -7.11653,-15.9565 -15.9565,-15.9565 z"
         id="path9039" />
      <path
         style="color:#000000;display:inline;overflow:visible;visibility:visible;opacity:1;fill:#ff70e2;fill-opacity:1;fill-rule:nonzero;stroke:none;stroke-width:3.4000001;stroke-miterlimit:4;stroke-dasharray:none;stroke-opacity:1;marker:none;enable-background:accumulate"
         d="m 864.08518,314.98561 v 43.6531 h 18.88801 c 2.52047,0 4.6534,-2.03118 4.54952,-4.54953 -0.42464,-10.29376 -0.8436,-15.03814 -1.82022,-23.14736 -1.23245,-10.23321 -7.11625,-15.95621 -15.95622,-15.95621 z"
         id="path9041" />
      <path
         style="color:#000000;display:inline;overflow:visible;visibility:visible;opacity:1;fill:url(#linearGradient9087);fill-opacity:1;fill-rule:nonzero;stroke:none;stroke-width:3.4000001;stroke-miterlimit:4;stroke-dasharray:none;stroke-opacity:1;marker:none;enable-background:accumulate"
         d="m 864.32211,285.37454 a 14.194794,14.194794 0 0 0 -14.19444,14.19443 14.194794,14.194794 0 0 0 14.19444,14.19548 z"
         id="path9043" />
      <path
         id="path9019"
         d="m 889.23033,331.06208 a 30.417426,30.417426 0 0 0 -30.41666,30.41665 30.417426,30.417426 0 0 0 30.41666,30.41889 z"
         style="color:#000000;display:inline;overflow:visible;visibility:visible;opacity:1;fill:url(#linearGradient9095);fill-opacity:1;fill-rule:nonzero;stroke:none;stroke-width:3.4000001;stroke-miterlimit:4;stroke-dasharray:none;stroke-opacity:1;marker:none;enable-background:accumulate" />
      <path
         style="color:#000000;display:inline;overflow:visible;visibility:visible;opacity:1;fill:#ff70e2;fill-opacity:1;fill-rule:nonzero;stroke:none;stroke-width:3.4000001;stroke-miterlimit:4;stroke-dasharray:none;stroke-opacity:1;marker:none;enable-background:accumulate"
         d="m 815.78675,355.40625 v 70.89755 h 30.67621 c 4.09354,0 7.55764,-3.29887 7.38893,-7.38895 -0.68965,-16.71823 -1.37008,-24.42363 -2.95625,-37.59391 -2.00163,-16.61988 -11.55758,-25.91469 -25.91468,-25.91469 z"
         id="path9025" />
      <path
         style="color:#000000;display:inline;overflow:visible;visibility:visible;opacity:1;fill:url(#linearGradient9063);fill-opacity:1;fill-rule:nonzero;stroke:none;stroke-width:3.4000001;stroke-miterlimit:4;stroke-dasharray:none;stroke-opacity:1;marker:none;enable-background:accumulate"
         d="m 816.17153,307.31459 a 23.053934,23.053934 0 0 0 -23.05335,23.05334 23.053934,23.053934 0 0 0 23.05335,23.05506 z"
         id="path9027" />
      <path
         id="path9015"
         d="m 876.58925,394.51458 c -18.94282,0 -32.30293,12.60904 -35.36422,34.1925 -2.82439,19.91327 -3.30897,29.68738 -4.96347,49.60066 -0.4472,5.38251 5.51896,9.75011 10.91999,9.75011 h 82.01617 c 5.40103,0 9.97089,-4.35364 9.74829,-9.75011 -0.90994,-22.05809 -1.80688,-32.22374 -3.89966,-49.60066 -2.64096,-21.92831 -15.24971,-34.1925 -34.19253,-34.1925 z"
         style="color:#000000;display:inline;overflow:visible;visibility:visible;opacity:1;fill:url(#linearGradient9103);fill-opacity:1;fill-rule:nonzero;stroke:none;stroke-width:3.4000001;stroke-miterlimit:4;stroke-dasharray:none;stroke-opacity:1;marker:none;enable-background:accumulate" />
      <path
         id="path9033"
         d="m 952.09257,350.98354 v 53.5918 h 23.1883 c 3.09433,0 5.71287,-2.49362 5.58533,-5.58533 -0.52131,-12.6374 -1.03565,-18.46195 -2.23464,-28.41743 -1.51305,-12.56305 -8.73643,-19.58904 -19.58903,-19.58904 z"
         style="color:#000000;display:inline;overflow:visible;visibility:visible;opacity:1;fill:#ff70e2;fill-opacity:1;fill-rule:nonzero;stroke:none;stroke-width:3.4000001;stroke-miterlimit:4;stroke-dasharray:none;stroke-opacity:1;marker:none;enable-background:accumulate" />
      <path
         id="path9017"
         d="m 888.72264,394.51436 v 93.54241 h 40.47429 c 5.40102,0 9.97157,-4.35252 9.74897,-9.74899 -0.90993,-22.05808 -1.8077,-32.2246 -3.90048,-49.60151 -2.64096,-21.92832 -15.24911,-34.19191 -34.1919,-34.19191 z"
         style="color:#000000;display:inline;overflow:visible;visibility:visible;opacity:1;fill:#ff70e2;fill-opacity:1;fill-rule:nonzero;stroke:none;stroke-width:3.4000001;stroke-miterlimit:4;stroke-dasharray:none;stroke-opacity:1;marker:none;enable-background:accumulate" />
      <path
         id="path9035"
         d="m 952.38343,314.6308 a 17.426585,17.426585 0 0 0 -17.42615,17.42614 17.426585,17.426585 0 0 0 17.42615,17.42743 z"
         style="color:#000000;display:inline;overflow:visible;visibility:visible;opacity:1;fill:url(#linearGradient9119);fill-opacity:1;fill-rule:nonzero;stroke:none;stroke-width:3.4000001;stroke-miterlimit:4;stroke-dasharray:none;stroke-opacity:1;marker:none;enable-background:accumulate" />
    </g>
  </g>
</svg>
