<?xml version="1.0" encoding="UTF-8" standalone="no"?>
<svg
   xmlns:dc="http://purl.org/dc/elements/1.1/"
   xmlns:cc="http://creativecommons.org/ns#"
   xmlns:rdf="http://www.w3.org/1999/02/22-rdf-syntax-ns#"
   xmlns:svg="http://www.w3.org/2000/svg"
   xmlns="http://www.w3.org/2000/svg"
   xmlns:xlink="http://www.w3.org/1999/xlink"
   id="svg12638"
   version="1.1"
   viewBox="0 0 100 100"
   height="100mm"
   width="100mm">
  <defs
     id="defs12632">
    <linearGradient
       gradientUnits="userSpaceOnUse"
       y2="4965.6064"
       x2="2040.8361"
       y1="5077.1587"
       x1="2114.249"
       id="linearGradient22007"
       xlink:href="#linearGradient22001" />
    <linearGradient
       id="linearGradient22001">
      <stop
         id="stop22003"
         offset="0"
         style="stop-color:#f4cc5f;stop-opacity:1;" />
      <stop
         id="stop22005"
         offset="1"
         style="stop-color:#d7d7d7;stop-opacity:1" />
    </linearGradient>
    <linearGradient
       gradientUnits="userSpaceOnUse"
       y2="4830.6455"
       x2="2072.5098"
       y1="5146.5112"
       x1="2233.6101"
       id="linearGradient21999"
       xlink:href="#linearGradient21993" />
    <linearGradient
       id="linearGradient21993">
      <stop
         id="stop21995"
         offset="0"
         style="stop-color:#269eda;stop-opacity:1;" />
      <stop
         id="stop21997"
         offset="1"
         style="stop-color:#d1d1d1;stop-opacity:1" />
    </linearGradient>
    <radialGradient
       gradientUnits="userSpaceOnUse"
       gradientTransform="matrix(0.60140688,-0.37260693,0.31183424,0.50330581,-733.14908,3393.0166)"
       r="81.5"
       fy="5170.2139"
       fx="2203"
       cy="5170.2139"
       cx="2203"
       id="radialGradient21916"
       xlink:href="#linearGradient21910" />
    <linearGradient
       id="linearGradient21910">
      <stop
         id="stop21912"
         offset="0"
         style="stop-color:#d1d1d1;stop-opacity:1" />
      <stop
         style="stop-color:#dbdcdc;stop-opacity:1"
         offset="0.5"
         id="stop21918" />
      <stop
         id="stop21914"
         offset="1"
         style="stop-color:#f9f9f9;stop-opacity:1" />
    </linearGradient>
    <linearGradient
       gradientTransform="translate(0.99999994)"
       gradientUnits="userSpaceOnUse"
       y2="5138.8623"
       x2="2211.8965"
       y1="5138.8623"
       x1="2204"
       id="linearGradient21936"
       xlink:href="#linearGradient21930" />
    <linearGradient
       id="linearGradient21930">
      <stop
         id="stop21932"
         offset="0"
         style="stop-color:#f2f2f2;stop-opacity:1" />
      <stop
         style="stop-color:#d8d8e2;stop-opacity:1"
         offset="0.5"
         id="stop21938" />
      <stop
         id="stop21934"
         offset="1"
         style="stop-color:#e9e9e9;stop-opacity:1" />
    </linearGradient>
    <linearGradient
       gradientUnits="userSpaceOnUse"
       y2="4931.5498"
       x2="2249.3066"
       y1="5053.8794"
       x1="2105.7639"
       id="linearGradient21946"
       xlink:href="#linearGradient21940" />
    <linearGradient
       id="linearGradient21940">
      <stop
         id="stop21942"
         offset="0"
         style="stop-color:#cccccc;stop-opacity:1;" />
      <stop
         style="stop-color:#e7e7e7;stop-opacity:1"
         offset="0.36617568"
         id="stop21948" />
      <stop
         id="stop21952"
         offset="0.46437567"
         style="stop-color:#bebebe;stop-opacity:1" />
      <stop
         id="stop21950"
         offset="0.59270018"
         style="stop-color:#e7e7e7;stop-opacity:1" />
      <stop
         id="stop21944"
         offset="1"
         style="stop-color:#e0e0e0;stop-opacity:1" />
    </linearGradient>
  </defs>
  <metadata
     id="metadata12635">
    <rdf:RDF>
      <cc:Work
         rdf:about="">
        <dc:format>image/svg+xml</dc:format>
        <dc:type
           rdf:resource="http://purl.org/dc/dcmitype/StillImage" />
        <dc:title></dc:title>
      </cc:Work>
    </rdf:RDF>
  </metadata>
  <g
     transform="translate(-77.1268,5.6149327)"
     id="layer1">
    <g
       id="g22072"
       transform="matrix(0.15243902,0,0,0.15243902,-212.20246,-721.5238)">
      <circle
         style="color:#000000;display:inline;overflow:visible;visibility:visible;opacity:1;fill:#50527e;fill-opacity:1;fill-rule:nonzero;stroke:none;stroke-width:19.9829998;stroke-miterlimit:4;stroke-dasharray:none;stroke-opacity:1;marker:none;enable-background:accumulate"
         id="path21892"
         cx="2226"
         cy="5024.3623"
         r="328" />
      <path
         style="fill:#45466a;fill-opacity:1;fill-rule:evenodd;stroke:none;stroke-width:1px;stroke-linecap:butt;stroke-linejoin:miter;stroke-opacity:1"
         d="m 2131.0781,4835.0176 -35.0722,49.1054 -20.1993,55.0118 39.627,114.3789 109.2226,73.4121 10.0586,77.7285 -91.416,15.2207 128.877,128.877 a 328,328 0 0 0 280.2012,-291.9649 l -201.1836,-201.1836 -200.4317,0.2031 z"
         id="path22067" />
      <g
         id="g22009"
         transform="matrix(1.1430762,0,0,1.1430762,-295.3698,-704.31917)">
        <path
           id="path21904"
           d="M 2122.7345,4845.99 2324.26,5058.8292"
           style="fill:none;fill-rule:evenodd;stroke:#ffffff;stroke-width:5.5999999;stroke-linecap:butt;stroke-linejoin:miter;stroke-miterlimit:4;stroke-dasharray:none;stroke-opacity:1" />
        <g
           transform="matrix(0.49663356,-0.20562232,0.20562232,0.49663356,30.164566,2838.4355)"
           id="g21884">
          <path
             id="path21888"
             d="m 2250.5914,5410.0744 c -52.6042,-6.7266 -98.4673,-29.6618 -135.066,-67.5438 -35.432,-36.6744 -56.5163,-82.6227 -61.7215,-134.5077 -1.2972,-12.9309 -0.7484,-41.0515 0.9856,-50.5 0.5551,-3.025 1.7678,-9.775 2.6947,-15 3.7104,-20.9133 14.9553,-49.8487 27.5509,-70.8943 11.3686,-18.9953 31.0619,-41.7658 49.2295,-56.9219 26.5448,-22.1448 63.2619,-39.6495 97.8383,-46.644 54.74,-11.0735 114.4984,-0.698 160.5904,27.8823 69.9374,43.3662 110.6552,118.1654 107.8261,198.0779 -1.2768,36.0631 -10.0161,68.7354 -26.7721,100.0882 -6.2222,11.6426 -18.1235,29.0663 -25.8959,37.9118 -37.3674,42.5271 -80.9479,67.1286 -135.5389,76.5127 -15.7429,2.7062 -46.5794,3.475 -61.7211,1.5388 z"
             style="fill:url(#linearGradient22007);fill-opacity:1" />
          <path
             id="path21886"
             d="m 2250.5914,5410.0744 c -52.6042,-6.7266 -98.4673,-29.6618 -135.066,-67.5438 -35.4314,-36.6738 -56.51,-82.6085 -61.7229,-134.5077 -1.2306,-12.2508 -0.6895,-42.5538 0.8838,-49.5 l 0.7927,-3.5 6.4525,0.3632 c 5.8754,0.3307 6.8304,0.7107 10.6801,4.25 3.4579,3.1791 4.9645,3.8868 8.2749,3.8868 5.3134,0 17.0051,5.8557 23.2046,11.6218 l 4.7071,4.3782 h 7.7507 c 7.6077,0 7.8214,0.069 11.5868,3.75 3.6708,3.5884 4.1896,3.7715 12.0421,4.25 l 8.2061,0.5 0.2956,3.5025 c 0.25,2.9617 -0.3255,4.1091 -3.7275,7.431 -3.4041,3.324 -4.6502,5.8104 -8.0994,16.1603 l -4.0763,12.232 4.4722,8.8371 c 3.3664,6.6521 6.2288,10.5679 11.5767,15.8371 l 7.1046,7 8.227,0.5 8.2271,0.5 0.5176,8.5 c 0.4992,8.1994 0.791,9.0388 8.25,23.7375 l 7.7324,15.2375 v 8.0347 c 0,7.3226 0.3419,8.7196 3.8581,15.7625 2.122,4.2503 5.7503,13.4386 8.063,20.4184 3.6545,11.0293 4.7207,13.1565 8.1448,16.25 3.7243,3.3647 4.3226,3.5594 10.937,3.5594 8.0586,0 8.7402,-0.9719 3.9017,-5.5629 -3.5757,-3.3927 -9.9046,-15.3165 -9.9046,-18.6603 0,-1.2502 1.6177,-7.1278 3.5949,-13.0615 l 3.5948,-10.7884 7.9052,-3.9746 7.9051,-3.9746 v -11.3339 c 0,-12.9918 -0.249,-12.5437 9.75,-17.5459 l 6.25,-3.1267 v -7.3632 c 0,-8.4296 -0.074,-8.3267 9.8259,-13.608 l 6.561,-3.5 3.8611,-11.6637 3.8611,-11.6637 -4.061,-8.077 c -3.991,-7.9376 -4.1861,-8.1397 -11.3046,-11.7082 -3.9839,-1.9971 -9.3617,-5.6013 -11.9507,-8.0092 -3.6372,-3.3831 -5.4771,-4.3782 -8.095,-4.3782 -4.0436,0 -5.4229,-1.4006 -9.5972,-9.7447 -2.9718,-5.9403 -3.5125,-6.4401 -11.0901,-10.25 -7.3082,-3.6745 -8.6257,-4.0053 -15.9535,-4.0053 -7.4489,0 -8.2177,0.2022 -11.4042,3 -1.8793,1.65 -3.9143,3 -4.5222,3 -0.608,0 -2.6918,-3.15 -4.6306,-7 l -3.5251,-7 h -8.0098 c -7.9699,0 -8.0316,0.02 -12.3987,4.0456 l -4.389,4.0456 -7.3387,-0.2956 -7.3387,-0.2956 -0.5704,-4.2739 c -0.4125,-3.0907 -1.5702,-5.3055 -4.1819,-8 -2.4705,-2.5489 -3.712,-4.8318 -3.9296,-7.2261 -0.2942,-3.2368 -0.5928,-3.5229 -3.9711,-3.8046 -2.901,-0.2419 -4.3693,0.3243 -7.1321,2.75 -1.9134,1.68 -3.9755,3.0546 -4.5825,3.0546 -1.1844,0 -7.1324,-11.0653 -7.1324,-13.2685 0,-0.7291 1.7065,-2.9919 3.7922,-5.0286 l 3.7921,-3.7029 h 11.7301 c 11.7115,0 11.7427,0.01 19.7641,4.0395 l 8.0342,4.0395 7.0417,-6.7895 c 3.873,-3.7342 7.6254,-7.9145 8.3388,-9.2895 0.7133,-1.375 2.9433,-9.025 4.9555,-17 l 3.6585,-14.5 8.1445,-8.22 8.1444,-8.22 11.552,-0.28 11.5519,-0.28 0.2968,-6.7994 c 0.1816,-4.1606 0.7675,-6.9799 1.5097,-7.2647 0.6671,-0.256 5.9094,1.1162 11.6497,3.0493 5.7402,1.9332 10.6171,3.5148 10.8375,3.5148 1.1128,0 14.2063,-13.5155 14.2063,-14.6641 0,-0.7347 -1.0125,-1.3428 -2.25,-1.3512 -3.414,-0.023 -4.1899,-0.8708 -8.2248,-8.9847 -4.1085,-8.2619 -8.9229,-14 -11.7463,-14 -1.0059,0 -4.9564,1.575 -8.7789,3.5 l -6.9501,3.5 h -16.0124 -16.0124 l -3.5251,7 c -1.9388,3.85 -4.0574,7 -4.7078,7 -0.6505,0 -2.4425,-1.2069 -3.9822,-2.6821 -1.7748,-1.7003 -4.3571,-2.8899 -7.0548,-3.25 l -4.2552,-0.5679 -0.2907,-7.0938 c -0.2006,-4.8976 0.109,-7.4104 1,-8.1163 1.5833,-1.2543 19.6895,-7.2899 21.8689,-7.2899 0.8652,0 2.6641,1.1663 3.9975,2.5918 4.3056,4.6032 4.8993,4.616 17.5087,0.3798 9.4831,-3.1859 13.2655,-3.9716 19.1188,-3.9716 4.3035,0 7.2968,-0.4193 7.2968,-1.0222 0,-2.7103 -8.2743,-17.0115 -11.4615,-19.8099 -3.409,-2.9931 -4.0499,-3.1679 -11.6161,-3.1679 h -8.0081 l -4.7071,4.3769 c -4.5188,4.2017 -15.6965,10.6231 -18.4916,10.6231 -0.7378,0 -2.6631,-1.3936 -4.2785,-3.0968 -3.4875,-3.6772 -19.3249,-11.9032 -22.9171,-11.9032 -1.386,0 -2.52,-0.4614 -2.52,-1.0254 0,-1.6218 11.2806,-8.4269 26.5,-15.9862 68.9201,-34.232 153.5997,-29.6125 218.25,11.906 l 8.25,5.2982 v 11.8689 11.8689 l 3.1679,3.6081 c 1.7424,1.9844 6.6924,5.3801 11,7.5459 4.3077,2.1659 7.8321,4.5196 7.8321,5.2306 0,0.711 -1.4839,2.7309 -3.2976,4.4888 -3.1378,3.0413 -3.6766,3.1962 -11.1177,3.1962 -7.7505,0 -7.8545,0.034 -11.7023,3.8823 -3.7826,3.7826 -3.8824,4.0654 -3.8824,11 0,3.9148 -0.2781,7.1177 -0.618,7.1177 -0.3399,0 -2.1555,-1.35 -4.0348,-3 -3.1839,-2.7955 -3.959,-3 -11.3708,-3 h -7.9541 l -4.0223,8 -4.0223,8 4.0223,8 4.0223,8 h 8.0317 8.0317 l 4.7071,-4.3791 c 2.589,-2.4085 8.3072,-6.1876 12.7072,-8.398 4.4,-2.2105 9.0909,-5.1899 10.4243,-6.6209 1.3334,-1.4311 3.0152,-2.602 3.7374,-2.602 2.1687,0 8.3383,13.3871 8.3383,18.0927 0,3.4848 0.6217,4.7643 3.9158,8.0584 l 3.9158,3.9158 7.5842,-3.7527 c 4.1713,-2.064 7.5842,-4.206 7.5842,-4.76 0,-0.5539 -3.2531,-4.2821 -7.2291,-8.2849 l -7.2292,-7.2777 3.7258,-3.7257 3.7257,-3.7258 7.9536,7.907 c 6.5877,6.5491 8.0051,8.5205 8.2534,11.4799 0.2759,3.2878 0.5792,3.5984 3.7998,3.8911 2.4039,0.2185 4.6813,1.4632 7.2719,3.9743 3.0914,2.9967 4.713,3.751 8.9891,4.1819 l 5.2172,0.5257 3.247,9.5 c 1.7859,5.225 3.2533,10.5125 3.2609,11.75 0.013,2.1475 -0.3515,2.25 -8.0083,2.25 -7.3702,0 -8.6705,-0.326 -15.9989,-4.0106 l -7.9767,-4.0106 -8.7511,4.4138 c -4.8131,2.4275 -10.0728,5.8073 -11.6882,7.5106 -1.6154,1.7032 -3.5407,3.0968 -4.2785,3.0968 -2.7951,0 -13.9728,-6.4215 -18.4916,-10.6231 l -4.7071,-4.3769 h -12.0651 -12.065 l -7.9556,4 c -7.334,3.6875 -8.5916,4 -16.0954,4 -8.1221,0 -8.1484,0.01 -12.0222,3.8823 l -3.8824,3.8824 v 11.7558 11.7558 l -4,4.3395 -4,4.3395 v 12.3056 c 0,11.5781 0.2251,12.9833 3.8073,23.7723 l 3.8073,11.4668 7.9427,4.2157 c 7.4584,3.9586 8.4471,4.2178 16.2149,4.25 7.6915,0.032 8.8306,-0.2465 16.2278,-3.9657 7.3116,-3.6762 8.607,-4 16.0028,-4 7.256,0 8.7574,0.3566 15.2722,3.6274 3.9737,1.9951 7.5556,4.1326 7.9597,4.75 0.4041,0.6174 0.7416,4.3963 0.75,8.3976 0.013,6.3066 0.4812,8.2 3.5153,14.225 1.925,3.8225 3.5,7.4915 3.5,8.1532 0,0.6618 -3.3938,4.6907 -7.5419,8.9532 l -7.5418,7.7499 8.0418,16.0601 8.0419,16.0601 v 8.0546 8.0546 l 4.5722,4.888 c 3.7021,3.9579 4.3862,5.2355 3.595,6.714 -1.5197,2.8395 -19.7817,20.2071 -28.632,27.2297 -31.0905,24.6697 -63.8524,39.1757 -104.1066,46.0953 -15.7429,2.7062 -46.5794,3.475 -61.7211,1.5388 z m -17.3946,-306.3562 c 3.4998,-3.653 3.3895,-5.1222 -0.6809,-9.0674 -2.825,-2.738 -3.9939,-3.2131 -7.25,-2.9461 -3.7236,0.3052 -3.895,0.4766 -4.2002,4.2002 -0.267,3.2561 0.2081,4.425 2.9461,7.25 3.9734,4.0995 5.6959,4.2051 9.185,0.5633 z m 16.5592,-8.5633 c 2.738,-2.825 3.2131,-3.9939 2.9461,-7.25 l -0.3182,-3.882 h -7.5 -7.5 l -0.3046,3.653 c -0.2437,2.9229 0.3267,4.372 2.8536,7.25 1.737,1.9784 3.9233,3.597 4.8584,3.597 0.9352,0 3.1693,-1.5156 4.9647,-3.368 z m 131.9292,-38.382 c 2.8108,-3.9895 6.1987,-10.927 6.1987,-12.6933 0,-0.8377 -2.2781,-2.6774 -5.0625,-4.0884 -9.3437,-4.7348 -9.5419,-4.7545 -13.4329,-1.3382 -1.9275,1.6924 -3.5046,3.8422 -3.5046,4.7773 0,0.9352 1.575,3.2268 3.5,5.0926 2.5353,2.4573 3.5,4.257 3.5,6.5295 0,3.8469 0.5717,4.4705 4.0986,4.4705 1.8802,0 3.3853,-0.8801 4.7027,-2.75 z m -20.4884,-1.0547 c 3.4998,-3.653 3.3895,-5.1222 -0.6809,-9.0674 -2.825,-2.738 -3.9939,-3.2131 -7.25,-2.9461 -3.7236,0.3052 -3.895,0.4766 -4.2002,4.2002 -0.267,3.2561 0.2081,4.425 2.9461,7.25 3.9734,4.0995 5.6959,4.2051 9.185,0.5633 z"
             style="fill:url(#linearGradient21999);fill-opacity:1" />
        </g>
        <ellipse
           ry="22.692389"
           rx="81.5"
           cy="5175.9629"
           cx="2211.2781"
           id="path21908"
           style="color:#000000;display:inline;overflow:visible;visibility:visible;opacity:1;fill:url(#radialGradient21916);fill-opacity:1;fill-rule:nonzero;stroke:none;stroke-width:8.80000019;stroke-miterlimit:4;stroke-dasharray:none;stroke-opacity:1;marker:none;enable-background:accumulate" />
        <path
           id="path21906"
           d="m 2208.9336,5096.9004 c -2.428,0.036 -4.3676,2.0328 -4.334,4.4609 v 68 c -0.2834,1.8467 8.5843,2.1064 8.8008,0 v -68 c 0.034,-2.4801 -1.9867,-4.4985 -4.4668,-4.4609 z"
           style="color:#000000;font-style:normal;font-variant:normal;font-weight:normal;font-stretch:normal;font-size:medium;line-height:normal;font-family:sans-serif;text-indent:0;text-align:start;text-decoration:none;text-decoration-line:none;text-decoration-style:solid;text-decoration-color:#000000;letter-spacing:normal;word-spacing:normal;text-transform:none;writing-mode:lr-tb;direction:ltr;baseline-shift:baseline;text-anchor:start;white-space:normal;clip-rule:nonzero;display:inline;overflow:visible;visibility:visible;opacity:1;isolation:auto;mix-blend-mode:normal;color-interpolation:sRGB;color-interpolation-filters:linearRGB;solid-color:#000000;solid-opacity:1;fill:url(#linearGradient21936);fill-opacity:1;fill-rule:evenodd;stroke:none;stroke-width:8.80000019;stroke-linecap:round;stroke-linejoin:miter;stroke-miterlimit:4;stroke-dasharray:none;stroke-dashoffset:0;stroke-opacity:1;color-rendering:auto;image-rendering:auto;shape-rendering:auto;text-rendering:auto;enable-background:accumulate" />
        <path
           id="path21896"
           d="m 2066.8176,4915.0883 a 164.04989,164.04989 0 0 0 128.7121,193.0233 164.04989,164.04989 0 0 0 151.0702,-47.9462 l -17.9799,-18.6005 a 138.31657,138.31657 0 0 1 -128.0463,41.3132 138.31657,138.31657 0 0 1 -108.5204,-162.7455 138.31657,138.31657 0 0 1 44.8018,-76.9755 l -17.9215,-18.5413 a 164.04989,164.04989 0 0 0 -52.116,90.4725 z"
           style="color:#000000;display:inline;overflow:visible;visibility:visible;opacity:1;fill:url(#linearGradient21946);fill-opacity:1;fill-rule:nonzero;stroke:none;stroke-width:19.9829998;stroke-miterlimit:4;stroke-dasharray:none;stroke-opacity:1;marker:none;enable-background:accumulate" />
        <path
           id="path21954"
           d="m 2250.0428,4827.7774 c 44.4514,17.8053 74.4326,66.1361 76.0971,115.7498 1.8433,56.723 -33.612,107.3376 -85.9298,122.67 62.0466,-6.1074 109.7568,-59.3302 107.6812,-121.6421 2.1024,-52.7598 -38.7244,-104.221 -97.8485,-116.7777 z"
           style="color:#000000;display:inline;overflow:visible;visibility:visible;opacity:0.469;fill:#2a5267;fill-opacity:1;fill-rule:nonzero;stroke:none;stroke-width:8.80000019;stroke-linecap:round;stroke-miterlimit:4;stroke-dasharray:none;stroke-opacity:1;marker:none;enable-background:accumulate" />
      </g>
    </g>
  </g>
</svg>
