<?xml version="1.0" encoding="UTF-8" standalone="no"?>
<svg
   xmlns:dc="http://purl.org/dc/elements/1.1/"
   xmlns:cc="http://creativecommons.org/ns#"
   xmlns:rdf="http://www.w3.org/1999/02/22-rdf-syntax-ns#"
   xmlns:svg="http://www.w3.org/2000/svg"
   xmlns="http://www.w3.org/2000/svg"
   xmlns:xlink="http://www.w3.org/1999/xlink"
   id="svg12376"
   version="1.1"
   viewBox="0 0 100 100"
   height="100mm"
   width="100mm">
  <defs
     id="defs12370">
    <linearGradient
       gradientTransform="matrix(0.67539267,0,0,0.67539267,-586.72526,-1832.7293)"
       gradientUnits="userSpaceOnUse"
       y2="1778.6238"
       x2="1254.3032"
       y1="1778.7716"
       x1="1292.8065"
       id="linearGradient7364"
       xlink:href="#linearGradient7358" />
    <linearGradient
       id="linearGradient7358">
      <stop
         id="stop7360"
         offset="0"
         style="stop-color:#373737;stop-opacity:1" />
      <stop
         style="stop-color:#666666;stop-opacity:1"
         offset="0.29830754"
         id="stop7370" />
      <stop
         id="stop7372"
         offset="0.59357029"
         style="stop-color:#353535;stop-opacity:1" />
      <stop
         style="stop-color:#505050;stop-opacity:1"
         offset="0.79678512"
         id="stop9395" />
      <stop
         id="stop7362"
         offset="1"
         style="stop-color:#454545;stop-opacity:1" />
    </linearGradient>
    <filter
       height="1.340766"
       y="-0.17038293"
       width="1.4591562"
       x="-0.22957809"
       id="filter7412"
       style="color-interpolation-filters:sRGB">
      <feGaussianBlur
         id="feGaussianBlur7414"
         stdDeviation="3.2392786" />
    </filter>
  </defs>
  <metadata
     id="metadata12373">
    <rdf:RDF>
      <cc:Work
         rdf:about="">
        <dc:format>image/svg+xml</dc:format>
        <dc:type
           rdf:resource="http://purl.org/dc/dcmitype/StillImage" />
        <dc:title></dc:title>
      </cc:Work>
    </rdf:RDF>
  </metadata>
  <g
     transform="translate(-53.632023,-47.362024)"
     id="layer1">
    <g
       transform="matrix(0.49963665,0,0,0.49963665,-32.01855,438.64609)"
       id="g9397">
      <circle
         style="opacity:1;fill:#ff80b2;fill-opacity:1;stroke:none;stroke-width:1.05499995;stroke-linecap:round;stroke-linejoin:round;stroke-miterlimit:4;stroke-dasharray:none;stroke-dashoffset:0;stroke-opacity:1"
         id="path7324"
         cx="271.49844"
         cy="-683.06451"
         r="100.07272" />
      <path
         style="fill:#ff6ea7;fill-opacity:1;fill-rule:evenodd;stroke:none;stroke-width:1px;stroke-linecap:butt;stroke-linejoin:miter;stroke-opacity:1"
         d="m 299.9937,-744.9353 -32.8423,81.6737 -1.9681,50.2191 27.6238,27.6291 a 100.07272,100.07272 0 0 0 78.3006,-88.4079 z"
         id="path7426" />
      <path
         style="opacity:1;fill:url(#linearGradient7364);fill-opacity:1;stroke:none;stroke-width:1.05499995;stroke-linecap:round;stroke-linejoin:round;stroke-miterlimit:4;stroke-dasharray:none;stroke-dashoffset:0;stroke-opacity:1"
         d="m 262.1233,-645.0209 c -1.0159,0 -1.8336,0.8177 -1.8336,1.8336 v 1.8903 c 0,1.0159 0.8177,1.8335 1.8336,1.8335 h 24.3035 c 1.016,0 1.8337,-0.8176 1.8337,-1.8335 v -1.8903 c 0,-1.0159 -0.8177,-1.8336 -1.8337,-1.8336 z m 0,8.1034 c -1.0159,0 -1.8336,0.8176 -1.8336,1.8336 v 1.889 c 0,1.0159 0.8177,1.8349 1.8336,1.8349 h 24.3035 c 1.016,0 1.8337,-0.819 1.8337,-1.8349 v -1.889 c 0,-1.016 -0.8177,-1.8336 -1.8337,-1.8336 z m 0,8.2933 c -1.0159,0 -1.8336,0.8177 -1.8336,1.8336 v 1.889 c 0,1.0159 0.8177,1.8349 1.8336,1.8349 h 24.3035 c 1.016,0 1.8337,-0.819 1.8337,-1.8349 v -1.889 c 0,-1.0159 -0.8177,-1.8336 -1.8337,-1.8336 z m -0.1056,8.1654 a 12.439556,10.29448 0 0 0 -0.032,0.5263 12.439556,10.29448 0 0 0 12.4394,10.2945 12.439556,10.29448 0 0 0 12.4394,-10.2945 12.439556,10.29448 0 0 0 -0.022,-0.5263 h -24.8247 z"
         id="rect7333" />
      <path
         id="path7347"
         d="m 272.7937,-756.4911 a 37.789184,37.789184 0 0 0 -37.789,37.789 37.789184,37.789184 0 0 0 1.2782,9.6706 h -0.021 c 0.017,0.049 0.036,0.097 0.054,0.1464 a 37.789184,37.789184 0 0 0 4.3953,10.1058 c 7.4641,14.9805 17.3975,28.036 19.6708,51.5805 h 27.9154 c 3.4551,-26.9664 11.403,-36.9511 18.7131,-55.5656 a 37.789184,37.789184 0 0 0 2.1371,-5.762 c 0.054,-0.1556 0.1096,-0.2968 0.1635,-0.4537 h -0.047 a 37.789184,37.789184 0 0 0 1.3191,-9.722 37.789184,37.789184 0 0 0 -37.789,-37.789 z"
         style="opacity:1;fill:#ffe680;fill-opacity:1;stroke:none;stroke-width:1.05499995;stroke-linecap:round;stroke-linejoin:round;stroke-miterlimit:4;stroke-dasharray:none;stroke-dashoffset:0;stroke-opacity:1" />
      <path
         style="opacity:1;fill:#ffe165;fill-opacity:1;stroke:none;stroke-width:1.05499995;stroke-linecap:round;stroke-linejoin:round;stroke-miterlimit:4;stroke-dasharray:none;stroke-dashoffset:0;stroke-opacity:1"
         d="m 272.7937,-756.4911 a 37.789184,37.789184 0 0 0 -2.5578,0.128 37.789184,37.789184 0 0 1 34.846,37.6611 37.789184,37.789184 0 0 1 -1.3191,9.7219 h 0.047 c -0.054,0.1569 -0.1096,0.2982 -0.1636,0.4538 a 37.789184,37.789184 0 0 1 -2.1369,5.7619 c -7.3102,18.6145 -15.2582,28.5992 -18.7132,55.5656 h 5.5008 c 3.455,-26.9664 11.4029,-36.9511 18.7131,-55.5656 a 37.789184,37.789184 0 0 0 2.137,-5.7619 c 0.054,-0.1556 0.1097,-0.2969 0.1636,-0.4538 h -0.047 a 37.789184,37.789184 0 0 0 1.3192,-9.7219 37.789184,37.789184 0 0 0 -37.789,-37.7891 z"
         id="path7354" />
      <ellipse
         style="opacity:1;fill:#fff2bf;fill-opacity:1;stroke:none;stroke-width:1.05499995;stroke-linecap:round;stroke-linejoin:round;stroke-miterlimit:4;stroke-dasharray:none;stroke-dashoffset:0;stroke-opacity:1;filter:url(#filter7412)"
         id="path7374"
         cx="1840.9014"
         cy="913.24695"
         rx="14.536401"
         ry="24.410183"
         transform="matrix(0.78335995,0.38678332,-0.38678332,0.78335995,-832.16888,-2159.3915)" />
    </g>
  </g>
</svg>
