<?xml version="1.0" encoding="UTF-8" standalone="no"?>
<svg
   xmlns:dc="http://purl.org/dc/elements/1.1/"
   xmlns:cc="http://creativecommons.org/ns#"
   xmlns:rdf="http://www.w3.org/1999/02/22-rdf-syntax-ns#"
   xmlns:svg="http://www.w3.org/2000/svg"
   xmlns="http://www.w3.org/2000/svg"
   xmlns:xlink="http://www.w3.org/1999/xlink"
   id="svg26680"
   version="1.1"
   viewBox="0 0 100 100"
   height="100mm"
   width="100mm">
  <defs
     id="defs26674">
    <linearGradient
       gradientUnits="userSpaceOnUse"
       y2="8173.8071"
       x2="1352.7874"
       y1="8112.562"
       x1="1354.1188"
       id="linearGradient18965"
       xlink:href="#linearGradient18959" />
    <linearGradient
       id="linearGradient18959">
      <stop
         id="stop18961"
         offset="0"
         style="stop-color:#ffc654;stop-opacity:1" />
      <stop
         style="stop-color:#ffc044;stop-opacity:1"
         offset="0.40505424"
         id="stop18967" />
      <stop
         id="stop18969"
         offset="0.73504174"
         style="stop-color:#ffb930;stop-opacity:1" />
      <stop
         id="stop18963"
         offset="1"
         style="stop-color:#ffb82c;stop-opacity:1" />
    </linearGradient>
    <path
       style="fill:none;fill-rule:evenodd;stroke:#000000;stroke-width:1px;stroke-linecap:butt;stroke-linejoin:miter;stroke-opacity:1"
       d="m 326.95955,4426.1015 c 39.85939,3.9156 80.40526,7.3514 119.77606,0"
       id="path18824" />
  </defs>
  <metadata
     id="metadata26677">
    <rdf:RDF>
      <cc:Work
         rdf:about="">
        <dc:format>image/svg+xml</dc:format>
        <dc:type
           rdf:resource="http://purl.org/dc/dcmitype/StillImage" />
        <dc:title></dc:title>
      </cc:Work>
    </rdf:RDF>
  </metadata>
  <g
     transform="translate(-109.29607,-11.352724)"
     id="layer1">
    <g
       transform="matrix(0.29029111,0,0,0.29029111,47.443503,-1198.2608)"
       id="g18977">
      <circle
         style="opacity:1;fill:#00a140;fill-opacity:1;stroke:none;stroke-width:3.69485426;stroke-linecap:butt;stroke-linejoin:round;stroke-miterlimit:4;stroke-dasharray:11.08456259, 11.08456259;stroke-dashoffset:0;stroke-opacity:1"
         id="circle10084"
         cx="385.31171"
         cy="4339.1392"
         r="172.24089" />
      <path
         style="fill:#008836;fill-opacity:1;fill-rule:evenodd;stroke:none;stroke-width:1px;stroke-linecap:butt;stroke-linejoin:miter;stroke-opacity:1"
         d="m 475.52257,4248.6139 -211.2285,172.584 86.7324,86.7305 a 172.24089,172.24089 0 0 0 34.2852,3.4511 172.24089,172.24089 0 0 0 172.2402,-172.2402 172.24089,172.24089 0 0 0 -0.3125,-8.8086 z"
         id="path6181" />
      <path
         style="fill:none;fill-rule:evenodd;stroke:#000000;stroke-width:1px;stroke-linecap:butt;stroke-linejoin:miter;stroke-opacity:1"
         d="m 326.95955,4426.1015 c 39.85939,3.9156 80.40526,7.3514 119.77606,0"
         id="path26632" />
      <path
         id="path10088"
         d="m 299.48096,4247.3101 c -3.32867,0 -6.00871,2.7477 -6.00871,6.1611 v 133.6627 c 0,3.4133 2.68004,6.1613 6.00871,6.1613 h 69.41207 c 2.5455,2.8353 8.03976,6.5214 10.91659,8.3499 1.55549,0.9888 2.94488,1.4547 4.53176,1.4547 1.58671,0 2.41969,-0.2468 4.06397,-1.1338 3.10278,-1.6738 9.1583,-5.6836 11.89688,-8.6708 h 71.51631 c 3.32867,0 6.00871,-2.748 6.00871,-6.1613 v -133.6627 c 0,-3.4134 -2.68004,-6.1611 -6.00871,-6.1611 z"
         style="opacity:1;fill:#3a3a3a;fill-opacity:1;stroke:none;stroke-width:4.5;stroke-linecap:round;stroke-linejoin:round;stroke-miterlimit:4;stroke-dasharray:none;stroke-dashoffset:0;stroke-opacity:1" />
      <path
         id="path10090"
         d="m 307.26707,4241.1124 v 140.9656 h 153.25552 v -140.9656 h -61.48685 c 0,0 -7.08616,1.0927 -10.98402,4.8795 -2.47444,2.404 -4.15725,6.325 -4.15725,6.325 0,0 -0.58568,-3.1183 -4.15653,-6.325 -3.06761,-2.7544 -9.79927,-4.8795 -9.79927,-4.8795 z m 76.6274,129.5974 c 0,0 1.68281,3.9217 4.15725,6.3255 3.89786,3.7871 10.98402,5.0603 10.98402,5.0603 h -29.09707 c 0,0 6.73166,-2.3057 9.79927,-5.0603 3.57085,-3.2064 4.15653,-6.3255 4.15653,-6.3255 z"
         style="opacity:1;fill:#ffffff;fill-opacity:1;stroke:none;stroke-width:4.5;stroke-linecap:round;stroke-linejoin:round;stroke-miterlimit:4;stroke-dasharray:none;stroke-dashoffset:0;stroke-opacity:1" />
      <path
         style="opacity:1;fill:#77c6da;fill-opacity:1;stroke:none;stroke-width:2.20000005;stroke-linecap:butt;stroke-linejoin:miter;stroke-miterlimit:4;stroke-dasharray:none;stroke-dashoffset:0;stroke-opacity:1"
         d="m 316.45585,4257.4683 60.98527,0.501 v 57.1838 h -60.98527 z"
         id="path10092" />
      <path
         style="fill:#8dcfe0;fill-opacity:1;fill-rule:evenodd;stroke:none;stroke-width:1px;stroke-linecap:butt;stroke-linejoin:miter;stroke-opacity:1"
         d="m 316.99014,4308.7682 16.3855,-39.6917 5.97667,10.5556 7.74049,-18.0864 6.78496,15.2448 4.42128,-11.0234 19.81862,43.575 z"
         id="path10094" />
      <path
         style="fill:#3a3a3a;fill-opacity:1;fill-rule:evenodd;stroke:none;stroke-width:1px;stroke-linecap:butt;stroke-linejoin:miter;stroke-opacity:1"
         d="m 332.42528,4307.1412 5.20588,-17.861 -5.12194,-8.1267 -5.91199,12.4394 -6.20355,13.4374 z"
         id="path10098" />
      <path
         style="fill:#3a3a3a;fill-opacity:1;fill-rule:evenodd;stroke:none;stroke-width:1px;stroke-linecap:butt;stroke-linejoin:miter;stroke-opacity:1"
         d="m 354.79714,4288.3964 -5.4292,18.9008 24.88341,0.2289 -15.20749,-33.3498 z"
         id="path10100" />
      <path
         style="fill:#3a3a3a;fill-opacity:1;fill-rule:evenodd;stroke:none;stroke-width:1px;stroke-linecap:butt;stroke-linejoin:miter;stroke-opacity:1"
         d="m 346.96738,4266.2104 -8.21203,23.3929 -5.24088,17.5477 14.414,0.1327 6.08285,-20.3679 z"
         id="path10102" />
      <path
         style="fill:#ffffff;fill-rule:evenodd;stroke:none;stroke-width:1px;stroke-linecap:butt;stroke-linejoin:miter;stroke-opacity:1"
         d="m 332.55277,4282.6079 -2.208,4.7379 1.41734,-0.5835 1.03223,1.6753 1.3342,-1.3073 1.80668,0.8442 z"
         id="path10104" />
      <path
         style="fill:#ffffff;fill-opacity:1;fill-rule:evenodd;stroke:none;stroke-width:1px;stroke-linecap:butt;stroke-linejoin:miter;stroke-opacity:1"
         d="m 347.02645,4268.7243 -2.1737,7.2786 1.48082,-0.4597 0.73441,0.6299 0.49496,-0.8031 1.6106,0.9515 z"
         id="path10106" />
      <path
         style="fill:#ffffff;fill-opacity:1;fill-rule:evenodd;stroke:none;stroke-width:1px;stroke-linecap:butt;stroke-linejoin:miter;stroke-opacity:1"
         d="m 359.10514,4276.4534 -2.34113,7.8394 1.61624,-1.318 1.24735,2.2788 1.06989,-1.6782 2.49092,2.2366 z"
         id="path10108" />
      <path
         style="opacity:0.89499996;fill:#343434;fill-opacity:1;fill-rule:evenodd;stroke:none;stroke-width:1px;stroke-linecap:butt;stroke-linejoin:miter;stroke-opacity:1"
         d="m 341.03018,4306.113 6.18407,-0.049 5.43016,-18.9576 z"
         id="path10110" />
      <path
         id="path10112"
         d="m 327.31992,4306.0425 4.69901,0.023 4.46732,-15.4784 z"
         style="opacity:0.89499996;fill:#343434;fill-opacity:1;fill-rule:evenodd;stroke:none;stroke-width:1px;stroke-linecap:butt;stroke-linejoin:miter;stroke-opacity:1" />
      <path
         style="fill:none;fill-opacity:1;fill-rule:evenodd;stroke:#666666;stroke-width:1.5655632;stroke-linecap:butt;stroke-linejoin:miter;stroke-miterlimit:4;stroke-dasharray:none;stroke-opacity:1"
         d="m 396.84555,4328.7494 h 51.84812"
         id="path10114" />
      <path
         style="fill:none;fill-opacity:1;fill-rule:evenodd;stroke:#666666;stroke-width:1.5655632;stroke-linecap:butt;stroke-linejoin:miter;stroke-miterlimit:4;stroke-dasharray:none;stroke-opacity:1"
         d="m 396.84555,4341.9264 h 51.84812"
         id="path10116" />
      <path
         style="fill:none;fill-opacity:1;fill-rule:evenodd;stroke:#666666;stroke-width:1.5655632;stroke-linecap:butt;stroke-linejoin:miter;stroke-miterlimit:4;stroke-dasharray:none;stroke-opacity:1"
         d="m 396.84555,4355.1039 h 51.84812"
         id="path10118" />
      <path
         id="path10120"
         d="m 317.77897,4355.1039 h 56.90818"
         style="fill:none;fill-opacity:1;fill-rule:evenodd;stroke:#666666;stroke-width:1.5655632;stroke-linecap:butt;stroke-linejoin:miter;stroke-miterlimit:4;stroke-dasharray:none;stroke-opacity:1" />
      <path
         style="fill:none;fill-opacity:1;fill-rule:evenodd;stroke:#666666;stroke-width:1.5655632;stroke-linecap:butt;stroke-linejoin:miter;stroke-miterlimit:4;stroke-dasharray:none;stroke-opacity:1"
         d="m 396.84555,4368.2808 h 51.84812"
         id="path10122" />
      <path
         id="path10124"
         d="m 317.77897,4368.281 h 56.90818"
         style="fill:none;fill-opacity:1;fill-rule:evenodd;stroke:#666666;stroke-width:1.5655632;stroke-linecap:butt;stroke-linejoin:miter;stroke-miterlimit:4;stroke-dasharray:none;stroke-opacity:1" />
      <path
         id="path10126"
         d="m 396.84555,4275.1275 h 51.84812"
         style="fill:none;fill-opacity:1;fill-rule:evenodd;stroke:#666666;stroke-width:1.5655632;stroke-linecap:butt;stroke-linejoin:miter;stroke-miterlimit:4;stroke-dasharray:none;stroke-opacity:1" />
      <path
         id="path10128"
         d="m 396.84555,4288.3047 h 51.84812"
         style="fill:none;fill-opacity:1;fill-rule:evenodd;stroke:#666666;stroke-width:1.5655632;stroke-linecap:butt;stroke-linejoin:miter;stroke-miterlimit:4;stroke-dasharray:none;stroke-opacity:1" />
      <path
         id="path10130"
         d="m 396.84555,4301.4819 h 51.84812"
         style="fill:none;fill-opacity:1;fill-rule:evenodd;stroke:#666666;stroke-width:1.5655632;stroke-linecap:butt;stroke-linejoin:miter;stroke-miterlimit:4;stroke-dasharray:none;stroke-opacity:1" />
      <path
         id="path10132"
         d="m 396.84555,4314.6588 h 51.84812"
         style="fill:none;fill-opacity:1;fill-rule:evenodd;stroke:#666666;stroke-width:1.5655632;stroke-linecap:butt;stroke-linejoin:miter;stroke-miterlimit:4;stroke-dasharray:none;stroke-opacity:1" />
      <path
         style="fill:none;fill-opacity:1;fill-rule:evenodd;stroke:#666666;stroke-width:1.5655632;stroke-linecap:butt;stroke-linejoin:miter;stroke-miterlimit:4;stroke-dasharray:none;stroke-opacity:1"
         d="m 396.84555,4263.9224 h 51.84812"
         id="path10134" />
      <path
         id="path10136"
         d="m 369.97561,4382.078 -0.037,0.022 h 29.09708 l -0.0967,-0.022 z"
         style="color:#000000;font-style:normal;font-variant:normal;font-weight:normal;font-stretch:normal;font-size:medium;line-height:normal;font-family:sans-serif;text-indent:0;text-align:start;text-decoration:none;text-decoration-line:none;text-decoration-style:solid;text-decoration-color:#000000;letter-spacing:normal;word-spacing:normal;text-transform:none;writing-mode:lr-tb;direction:ltr;baseline-shift:baseline;text-anchor:start;white-space:normal;clip-rule:nonzero;display:inline;overflow:visible;visibility:visible;opacity:1;isolation:auto;mix-blend-mode:normal;color-interpolation:sRGB;color-interpolation-filters:linearRGB;solid-color:#000000;solid-opacity:1;fill:#ff6600;fill-opacity:1;fill-rule:evenodd;stroke:#3a3a3a;stroke-width:0.08816494;stroke-linecap:butt;stroke-linejoin:bevel;stroke-miterlimit:4;stroke-dasharray:none;stroke-dashoffset:0;stroke-opacity:1;color-rendering:auto;image-rendering:auto;shape-rendering:auto;text-rendering:auto;enable-background:accumulate" />
      <path
         id="path10138"
         d="m 460.52259,4252.1023 7.56746,0.338 0.037,129.5939 -7.60511,0.044 z"
         style="opacity:1;fill:#2f2f2f;fill-opacity:1;fill-rule:evenodd;stroke:none;stroke-width:1px;stroke-linecap:butt;stroke-linejoin:miter;stroke-opacity:1" />
      <path
         id="path10140"
         d="m 396.84555,4328.7494 h 51.84812"
         style="fill:none;fill-opacity:1;fill-rule:evenodd;stroke:#666666;stroke-width:1.5655632;stroke-linecap:butt;stroke-linejoin:miter;stroke-miterlimit:4;stroke-dasharray:none;stroke-opacity:1" />
      <path
         id="path10142"
         d="m 396.84555,4341.9264 h 51.84812"
         style="fill:none;fill-opacity:1;fill-rule:evenodd;stroke:#666666;stroke-width:1.5655632;stroke-linecap:butt;stroke-linejoin:miter;stroke-miterlimit:4;stroke-dasharray:none;stroke-opacity:1" />
      <path
         style="fill:none;fill-opacity:1;fill-rule:evenodd;stroke:#666666;stroke-width:1.5655632;stroke-linecap:butt;stroke-linejoin:miter;stroke-miterlimit:4;stroke-dasharray:none;stroke-opacity:1"
         d="m 317.77897,4328.4919 h 56.90818"
         id="path10144" />
      <path
         style="fill:none;fill-opacity:1;fill-rule:evenodd;stroke:#666666;stroke-width:1.5655632;stroke-linecap:butt;stroke-linejoin:miter;stroke-miterlimit:4;stroke-dasharray:none;stroke-opacity:1"
         d="m 317.77897,4341.6691 h 56.90818"
         id="path10146" />
      <g
         id="g6125"
         transform="matrix(0.89662496,0,0,0.89662496,-830.13699,-2895.2907)">
        <path
           id="path6077"
           d="m 1260.3844,8072.7504 c -14.6899,-3.3435 -29.22,-7.4677 -43.4981,-12.335 1.3721,13.4893 3.2379,27.0328 5.6043,40.5997 -8.7923,7.9987 -17.9351,15.7661 -27.4136,23.2807 16.5093,5.6396 33.321,10.4122 50.3432,14.2801 z"
           style="fill:#ffdb4f;fill-opacity:1;fill-rule:evenodd;stroke:none;stroke-width:1px;stroke-linecap:butt;stroke-linejoin:miter;stroke-opacity:1" />
        <path
           style="fill:#ffdb4f;fill-opacity:1;fill-rule:evenodd;stroke:none;stroke-width:1px;stroke-linecap:butt;stroke-linejoin:miter;stroke-opacity:1"
           d="m 1451.6431,8070.3928 c 15.0624,-3.3178 30.1065,-7.2604 45.0864,-11.7017 -2.0829,13.4729 -4.4748,26.9779 -7.2124,40.494 8.6188,8.2169 17.4871,16.2758 26.57,24.1715 -16.4399,4.9388 -33.1137,9.3173 -49.9758,13.0093 z"
           id="path6079" />
        <path
           id="path6081"
           d="m 1260.3844,8072.7504 -5.4647,24.0384 c -5.9192,-0.9249 -11.8292,-1.9697 -17.725,-3.1331 8.0341,-6.7712 15.7683,-13.7457 23.1897,-20.9053 z"
           style="fill:#ffa22f;fill-opacity:1;fill-rule:evenodd;stroke:none;stroke-width:1px;stroke-linecap:butt;stroke-linejoin:miter;stroke-opacity:1" />
        <path
           style="fill:#ffa22f;fill-opacity:1;fill-rule:evenodd;stroke:none;stroke-width:1px;stroke-linecap:butt;stroke-linejoin:miter;stroke-opacity:1"
           d="m 1451.6431,8070.3928 5.2835,24.0924 c 5.9829,-0.8939 11.9669,-1.8814 17.9481,-2.9563 -7.9802,-6.9015 -15.734,-13.9479 -23.2316,-21.1361 z"
           id="path6083" />
        <path
           id="path6446"
           d="m 1272.5333,8161.3426 -0.1607,0.9869 c 29.8458,4.8513 60.1666,7.0279 90.534,6.3554 24.0343,-0.6045 47.8145,-2.8895 71.2341,-6.5616 l -0.1559,-0.9875 c -23.3797,3.6665 -47.1156,5.9473 -71.1012,6.5494 -30.3041,0.6717 -60.5637,-1.5007 -90.3503,-6.3426 z"
           style="color:#000000;font-style:normal;font-variant:normal;font-weight:normal;font-stretch:normal;font-size:medium;line-height:normal;font-family:sans-serif;text-indent:0;text-align:start;text-decoration:none;text-decoration-line:none;text-decoration-style:solid;text-decoration-color:#000000;letter-spacing:normal;word-spacing:normal;text-transform:none;writing-mode:lr-tb;direction:ltr;baseline-shift:baseline;text-anchor:start;white-space:normal;clip-rule:nonzero;display:inline;overflow:visible;visibility:visible;opacity:1;isolation:auto;mix-blend-mode:normal;color-interpolation:sRGB;color-interpolation-filters:linearRGB;solid-color:#000000;solid-opacity:1;fill:#000000;fill-opacity:1;fill-rule:evenodd;stroke:none;stroke-width:1px;stroke-linecap:butt;stroke-linejoin:miter;stroke-miterlimit:4;stroke-dasharray:none;stroke-dashoffset:0;stroke-opacity:1;color-rendering:auto;image-rendering:auto;shape-rendering:auto;text-rendering:auto;enable-background:accumulate" />
        <path
           id="rect6070"
           d="m 1240.2677,8091.9235 c 39.5557,10.4256 80.482,15.4794 121.2105,14.5222 37.0028,-0.7933 74.0697,-6.4938 110.6187,-15.4975 1.371,-0.3378 2.7454,0.4514 3.0776,1.7771 l 16.1449,64.4235 c 0.3321,1.3255 -0.6274,2.701 -2.1594,3.0782 -40.7146,10.024 -82.9239,16.3901 -126.046,17.4946 -47.6836,1.048 -95.2119,-4.7814 -141.0164,-16.849 -1.5639,-0.4121 -2.5292,-1.8119 -2.1739,-3.1305 l 17.271,-64.0864 c 0.3554,-1.3187 1.728,-2.0867 3.073,-1.7322 z"
           style="opacity:1;fill:url(#linearGradient18965);fill-opacity:1;stroke:none;stroke-width:0.11780352;stroke-miterlimit:4;stroke-dasharray:none;stroke-opacity:1" />
      </g>
      <text
         xml:space="preserve"
         style="font-style:normal;font-variant:normal;font-weight:bold;font-stretch:normal;font-size:58.49277496px;line-height:0%;font-family:'Advent Pro';-inkscape-font-specification:'Advent Pro Bold';letter-spacing:0px;word-spacing:0px;fill:#074859;fill-opacity:1;stroke:none;stroke-width:1px;stroke-linecap:butt;stroke-linejoin:miter;stroke-opacity:1"
         id="text18826"
         x="5.7298698"
         y="129.54419"
         transform="rotate(-1.3270614,291.24842,4406.8197)"><textPath
           xlink:href="#path18824"
           id="textPath18830"><tspan
   style="font-style:normal;font-variant:normal;font-weight:normal;font-stretch:normal;font-family:Bonkers;-inkscape-font-specification:Bonkers"
   id="tspan18828">NEW</tspan></textPath></text>
    </g>
  </g>
</svg>
