<?xml version="1.0" encoding="UTF-8" standalone="no"?>
<svg
   xmlns:dc="http://purl.org/dc/elements/1.1/"
   xmlns:cc="http://creativecommons.org/ns#"
   xmlns:rdf="http://www.w3.org/1999/02/22-rdf-syntax-ns#"
   xmlns:svg="http://www.w3.org/2000/svg"
   xmlns="http://www.w3.org/2000/svg"
   id="svg7113"
   version="1.1"
   viewBox="0 0 99.999939 100"
   height="100mm"
   width="99.999939mm">
  <defs
     id="defs7107" />
  <metadata
     id="metadata7110">
    <rdf:RDF>
      <cc:Work
         rdf:about="">
        <dc:format>image/svg+xml</dc:format>
        <dc:type
           rdf:resource="http://purl.org/dc/dcmitype/StillImage" />
        <dc:title></dc:title>
      </cc:Work>
    </rdf:RDF>
  </metadata>
  <g
     transform="translate(-119.68616,-38.00432)"
     id="layer1">
    <path
       id="path6905"
       d="M 169.68613,38.00432 A 49.99998,49.99998 0 0 0 119.68616,88.004289 49.99998,49.99998 0 0 0 169.68613,138.00432 49.99998,49.99998 0 0 0 219.6861,88.004289 49.99998,49.99998 0 0 0 169.68613,38.00432 Z m 18.44582,13.723087 6.33003,10.966326 1.34798,2.334136 2.70237,-4.681098 4.35773,7.550006 4.36089,7.549882 h -8.71862 -8.71863 l 1.03101,-1.786601 h -2.69276 -5.34066 l 2.07478,3.592471 h -8.71862 -8.71863 l 4.36096,-7.549944 h -1.86672 -6.22116 l 3.11222,-5.388675 3.10894,-5.391958 3.11222,5.391958 0.93175,1.613672 2.18042,-3.774941 2.98415,5.167789 2.67033,-4.626697 z m -37.89377,18.878113 10.13061,17.546047 4.15277,7.191384 6.56702,-11.372965 8.27673,14.334627 0.15056,-0.262708 8.43045,-14.600371 8.43045,14.600371 8.42723,14.600435 h -16.85768 -0.30422 l 3.70771,6.41968 h -20.26123 -20.26452 l 7.71649,-13.36453 h -8.30237 -20.2613 L 140.1075,88.151381 Z"
       style="fill:#ff5722;fill-opacity:1;stroke-width:1.6393435" />
  </g>
</svg>
