<?xml version="1.0" encoding="UTF-8" standalone="no"?>
<svg
   xmlns:dc="http://purl.org/dc/elements/1.1/"
   xmlns:cc="http://creativecommons.org/ns#"
   xmlns:rdf="http://www.w3.org/1999/02/22-rdf-syntax-ns#"
   xmlns:svg="http://www.w3.org/2000/svg"
   xmlns="http://www.w3.org/2000/svg"
   id="svg7849"
   version="1.1"
   viewBox="0 0 99.999847 100"
   height="100mm"
   width="99.999847mm">
  <defs
     id="defs7843" />
  <metadata
     id="metadata7846">
    <rdf:RDF>
      <cc:Work
         rdf:about="">
        <dc:format>image/svg+xml</dc:format>
        <dc:type
           rdf:resource="http://purl.org/dc/dcmitype/StillImage" />
        <dc:title></dc:title>
      </cc:Work>
    </rdf:RDF>
  </metadata>
  <g
     transform="translate(-116.8891,-2.2478508)"
     id="layer1">
    <g
       transform="matrix(2.2288394,0,0,2.2288394,33.913405,-2544.2658)"
       id="g7804">
      <path
         style="fill:#e44d26;stroke-width:0.93749994"
         d="m 59.660456,1142.529 a 22.433036,22.433036 0 0 0 -22.43225,22.4341 22.433036,22.433036 0 0 0 22.43225,22.4323 22.433036,22.433036 0 0 0 22.43408,-22.4323 22.433036,22.433036 0 0 0 -22.43408,-22.4341 z"
         id="path6614" />
      <path
         style="fill:#f16529;stroke-width:0.93749994"
         d="m 59.660456,1142.529 v 44.8664 a 22.433036,22.433036 0 0 0 22.43408,-22.4323 22.433036,22.433036 0 0 0 -22.43408,-22.4341 z"
         id="circle6603" />
      <text
         xml:space="preserve"
         style="font-style:normal;font-weight:normal;font-size:31.12953949px;line-height:125%;font-family:sans-serif;letter-spacing:0px;word-spacing:0px;fill:#ffffff;fill-opacity:1;stroke:none;stroke-width:0.77823853px;stroke-linecap:butt;stroke-linejoin:miter;stroke-opacity:1"
         x="50.230595"
         y="933.33698"
         id="text6583"
         transform="scale(0.7916228,1.2632279)"><tspan
           id="tspan6581"
           x="50.230595"
           y="933.33698"
           style="font-style:normal;font-variant:normal;font-weight:bold;font-stretch:normal;font-family:'Liberation Mono';-inkscape-font-specification:'Liberation Mono Bold';fill:#ffffff;stroke-width:0.77823853px"
           dx="0 -2.9100885 -2.8328958">&lt;/&gt;</tspan></text>
    </g>
  </g>
</svg>
