<?xml version="1.0" encoding="UTF-8" standalone="no"?>
<svg
   xmlns:dc="http://purl.org/dc/elements/1.1/"
   xmlns:cc="http://creativecommons.org/ns#"
   xmlns:rdf="http://www.w3.org/1999/02/22-rdf-syntax-ns#"
   xmlns:svg="http://www.w3.org/2000/svg"
   xmlns="http://www.w3.org/2000/svg"
   width="5.2879314mm"
   height="5.291667mm"
   viewBox="0 0 5.2879314 5.291667"
   version="1.1"
   id="svg7101">
  <defs
     id="defs7095" />
  <metadata
     id="metadata7098">
    <rdf:RDF>
      <cc:Work
         rdf:about="">
        <dc:format>image/svg+xml</dc:format>
        <dc:type
           rdf:resource="http://purl.org/dc/dcmitype/StillImage" />
        <dc:title></dc:title>
      </cc:Work>
    </rdf:RDF>
  </metadata>
  <g
     id="layer1"
     transform="matrix(0.05291667,0,0,0.05291667,-5.8640065,-0.72054672)">
    <path
       id="path7078"
       d="m 120.19157,112.99573 c -4.36551,-1.39543 -7.67531,-4.80933 -8.94049,-9.22123 -0.43713,-1.52407 -0.47906,-5.789934 -0.4068,-40.87753 l 0.0803,-39.175839 c 0.009,-5.439959 3.03271,-10.104501 10.10459,-10.104501 h 39.80575 39.80576 c 5.43996,0 10.10459,3.145914 10.10459,10.104501 v 39.805843 39.805756 c 0,7.80974 -6.24571,8.73164 -8.42048,9.41767 -1.68295,0.5308 -2.05032,0.68959 -14.00861,0.77613 l -12.32441,0.0901 V 95.690967 77.765304 h 6.58327 c 6.05248,0 6.63003,-0.04461 7.16324,-0.579867 0.65302,-0.65302 0.70209,-0.905396 1.57769,-8.211725 0.68602,-5.719811 0.61733,-6.293256 -0.81806,-6.839045 -0.42197,-0.160578 -3.85808,-0.291717 -7.63632,-0.291717 h -6.86956 l 0.005,-6.200478 c 0.005,-5.358866 0.0803,-6.366765 0.56916,-7.425335 1.23271,-2.68434 2.72279,-3.260728 8.91631,-3.448605 3.68136,-0.111513 4.86625,-0.249789 5.28188,-0.615551 0.4746,-0.417505 0.53615,-1.129404 0.53615,-6.241336 0,-5.362078 -0.0446,-5.813661 -0.61287,-6.382734 -0.57541,-0.575407 -1.01673,-0.611983 -7.27216,-0.60663 -7.7779,0.005 -9.76765,0.321157 -13.42938,2.125883 -4.31082,2.124545 -7.56869,6.30976 -8.88936,11.419729 -0.36576,1.417018 -0.5317,3.913926 -0.63875,9.643551 l -0.14452,7.731506 h -4.82726 c -4.42011,0 -4.89542,0.05353 -5.63417,0.634285 l -0.80646,0.634286 v 6.71415 c 0,8.619149 -0.53794,7.93892 6.27711,7.93892 h 5.05225 v 17.912549 17.91273 l -19.21395,-0.0179 c -17.76562,-0.0178 -19.34634,-0.0624 -20.97095,-0.57808 z"
       style="fill:#ffffff;stroke-width:0.30619842" />
  </g>
</svg>
