<?xml version="1.0" encoding="UTF-8" standalone="no"?>
<svg
   xmlns:dc="http://purl.org/dc/elements/1.1/"
   xmlns:cc="http://creativecommons.org/ns#"
   xmlns:rdf="http://www.w3.org/1999/02/22-rdf-syntax-ns#"
   xmlns:svg="http://www.w3.org/2000/svg"
   xmlns="http://www.w3.org/2000/svg"
   id="svg8024"
   version="1.1"
   viewBox="0 0 99.999847 100"
   height="100mm"
   width="99.999847mm">
  <defs
     id="defs8018" />
  <metadata
     id="metadata8021">
    <rdf:RDF>
      <cc:Work
         rdf:about="">
        <dc:format>image/svg+xml</dc:format>
        <dc:type
           rdf:resource="http://purl.org/dc/dcmitype/StillImage" />
        <dc:title></dc:title>
      </cc:Work>
    </rdf:RDF>
  </metadata>
  <g
     transform="translate(-89.674815,-30.974051)"
     id="layer1">
    <g
       transform="matrix(2.2288394,0,0,2.2288394,-410.88955,-2515.5396)"
       id="g7822">
      <path
         id="path6987"
         d="m 247.01746,1142.529 a 22.433036,22.433036 0 0 0 -22.43225,22.4341 22.433036,22.433036 0 0 0 22.43225,22.4323 22.433036,22.433036 0 0 0 22.43408,-22.4323 22.433036,22.433036 0 0 0 -22.43408,-22.4341 z"
         style="fill:#526191;stroke-width:0.93749994" />
      <path
         id="path6989"
         d="m 247.01746,1142.529 v 44.8664 a 22.433036,22.433036 0 0 0 22.43408,-22.4323 22.433036,22.433036 0 0 0 -22.43408,-22.4341 z"
         style="fill:#92a9ed;stroke-width:0.93749994" />
      <text
         transform="scale(0.7916228,1.2632279)"
         id="text6599"
         y="932.30328"
         x="285.51996"
         style="font-style:normal;font-weight:normal;font-size:30.17491341px;line-height:125%;font-family:sans-serif;letter-spacing:0px;word-spacing:0px;fill:#ffffff;fill-opacity:1;stroke:none;stroke-width:0.75437289px;stroke-linecap:butt;stroke-linejoin:miter;stroke-opacity:1"
         xml:space="preserve"><tspan
           dx="0 0 -1.2530744"
           style="font-style:normal;font-variant:normal;font-weight:bold;font-stretch:normal;font-family:'Liberation Mono';-inkscape-font-specification:'Liberation Mono Bold';fill:#ffffff;stroke-width:0.75437289px"
           y="932.30328"
           x="285.51996"
           id="tspan6597">&lt;?&gt;</tspan></text>
    </g>
  </g>
</svg>
