<?xml version="1.0" encoding="UTF-8" standalone="no"?>
<svg
   xmlns:dc="http://purl.org/dc/elements/1.1/"
   xmlns:cc="http://creativecommons.org/ns#"
   xmlns:rdf="http://www.w3.org/1999/02/22-rdf-syntax-ns#"
   xmlns:svg="http://www.w3.org/2000/svg"
   xmlns="http://www.w3.org/2000/svg"
   id="svg7957"
   version="1.1"
   viewBox="0 0 99.999847 100"
   height="100mm"
   width="99.999847mm">
  <defs
     id="defs7951" />
  <metadata
     id="metadata7954">
    <rdf:RDF>
      <cc:Work
         rdf:about="">
        <dc:format>image/svg+xml</dc:format>
        <dc:type
           rdf:resource="http://purl.org/dc/dcmitype/StillImage" />
        <dc:title></dc:title>
      </cc:Work>
    </rdf:RDF>
  </metadata>
  <g
     transform="translate(-79.091484,-24.170451)"
     id="layer1">
    <g
       transform="matrix(2.2288394,0,0,2.2288394,-256.20747,-2522.3432)"
       id="g7816">
      <path
         style="fill:#0070bb;stroke-width:0.93749994"
         d="m 172.86882,1142.529 a 22.433036,22.433036 0 0 0 -22.43225,22.4341 22.433036,22.433036 0 0 0 22.43225,22.4323 22.433036,22.433036 0 0 0 22.43408,-22.4323 22.433036,22.433036 0 0 0 -22.43408,-22.4341 z"
         id="path6979" />
      <path
         style="fill:#28aae1;stroke-width:0.93749994"
         d="m 172.86882,1142.529 v 44.8664 a 22.433036,22.433036 0 0 0 22.43408,-22.4323 22.433036,22.433036 0 0 0 -22.43408,-22.4341 z"
         id="path6981" />
      <text
         transform="scale(0.88518261,1.1297104)"
         id="text6595"
         y="1039.679"
         x="170.77974"
         style="font-style:normal;font-weight:normal;font-size:28.40592003px;line-height:125%;font-family:sans-serif;letter-spacing:0px;word-spacing:0px;fill:#ffffff;fill-opacity:1;stroke:none;stroke-width:0.71014798px;stroke-linecap:butt;stroke-linejoin:miter;stroke-opacity:1"
         xml:space="preserve"><tspan
           style="font-style:normal;font-variant:normal;font-weight:bold;font-stretch:normal;font-family:sans-serif;-inkscape-font-specification:'sans-serif Bold';fill:#ffffff;stroke-width:0.71014798px"
           y="1039.679"
           x="170.77974"
           id="tspan6593"
           dx="0 -1.1751567 -1.6452196">{;}</tspan></text>
    </g>
  </g>
</svg>
