<?xml version="1.0" encoding="UTF-8" standalone="no"?>
<svg
   xmlns:dc="http://purl.org/dc/elements/1.1/"
   xmlns:cc="http://creativecommons.org/ns#"
   xmlns:rdf="http://www.w3.org/1999/02/22-rdf-syntax-ns#"
   xmlns:svg="http://www.w3.org/2000/svg"
   xmlns="http://www.w3.org/2000/svg"
   id="svg7254"
   version="1.1"
   viewBox="0 0 74.880684 100"
   height="100mm"
   width="74.880684mm">
  <defs
     id="defs7248" />
  <metadata
     id="metadata7251">
    <rdf:RDF>
      <cc:Work
         rdf:about="">
        <dc:format>image/svg+xml</dc:format>
        <dc:type
           rdf:resource="http://purl.org/dc/dcmitype/StillImage" />
        <dc:title></dc:title>
      </cc:Work>
    </rdf:RDF>
  </metadata>
  <g
     transform="translate(-111.1902,-17.254727)"
     id="layer1">
    <g
       transform="matrix(3.5714286,0,0,3.5714286,-186.95087,-1635.5735)"
       id="g6873">
      <path
         style="fill:#3771c8;fill-opacity:1;stroke:none"
         d="m 93.962909,465.84961 a 7.4003067,7.4003067 0 0 0 -7.400391,7.40039 7.4003067,7.4003067 0 0 0 1,3.69531 L 93.962909,473.25 Z"
         id="path6775" />
      <path
         style="fill:#37c871;fill-opacity:1;stroke:none"
         d="m 100.3633,476.94531 -6.400391,-3.69531 -6.400391,3.69531 a 7.4003067,7.4003067 0 0 0 6.400391,3.70508 7.4003067,7.4003067 0 0 0 6.400391,-3.70508 z"
         id="path6777" />
      <path
         style="fill:#ff5555;fill-opacity:1;stroke:none"
         d="M 93.962909,465.84961 V 473.25 l 6.400391,3.69531 a 7.4003067,7.4003067 0 0 0 1,-3.69531 7.4003067,7.4003067 0 0 0 -7.400391,-7.40039 z"
         id="path6779" />
      <path
         id="path6781"
         d="m 93.962977,462.7919 c -5.789791,-1.6e-4 -10.483439,4.69332 -10.483479,10.48312 0.0047,2.27913 0.736513,4.49464 2.113258,6.31097 v 0 l 8.370218,11.20591 8.366976,-11.20591 v 0 c 1.37533,-1.81682 2.1126,-4.0323 2.11614,-6.31097 -4e-5,-5.78966 -4.693466,-10.48308 -10.483113,-10.48312 z m 0,3.5095 c 3.851302,1.4e-4 6.973303,3.12232 6.973253,6.97362 5e-5,3.85129 -3.121951,6.97347 -6.973253,6.97361 -3.851444,5e-5 -6.97367,-3.12217 -6.973622,-6.97361 -4.8e-5,-3.85145 3.122178,-6.97367 6.973622,-6.97362 z"
         style="fill:#ffffff;fill-rule:evenodd;stroke:none;stroke-width:1.50328279px;stroke-linecap:butt;stroke-linejoin:miter;stroke-opacity:1" />
    </g>
  </g>
</svg>
