<?xml version="1.0" encoding="UTF-8" standalone="no"?>
<svg
   xmlns:dc="http://purl.org/dc/elements/1.1/"
   xmlns:cc="http://creativecommons.org/ns#"
   xmlns:rdf="http://www.w3.org/1999/02/22-rdf-syntax-ns#"
   xmlns:svg="http://www.w3.org/2000/svg"
   xmlns="http://www.w3.org/2000/svg"
   id="svg6790"
   version="1.1"
   viewBox="0 0 74.880676 100"
   height="100mm"
   width="74.880676mm">
  <defs
     id="defs6784" />
  <metadata
     id="metadata6787">
    <rdf:RDF>
      <cc:Work
         rdf:about="">
        <dc:format>image/svg+xml</dc:format>
        <dc:type
           rdf:resource="http://purl.org/dc/dcmitype/StillImage" />
        <dc:title></dc:title>
      </cc:Work>
    </rdf:RDF>
  </metadata>
  <g
     transform="translate(-26.523502,-94.361867)"
     id="layer1">
    <g
       id="g6782"
       transform="matrix(3.5714286,0,0,3.5714286,-1103.7854,-1201.3235)">
      <circle
         style="fill:#28a22b;fill-opacity:1;stroke:none"
         id="circle6766"
         cx="326.96997"
         cy="373.24997"
         r="7.4003067" />
      <path
         style="fill:#ffffff;fill-rule:evenodd;stroke:none;stroke-width:1.50328279px;stroke-linecap:butt;stroke-linejoin:miter;stroke-opacity:1"
         d="m 326.96997,362.7919 c -5.78979,-1.6e-4 -10.48344,4.69332 -10.48348,10.48312 0.005,2.27913 0.73651,4.49464 2.11326,6.31097 v 0 l 8.37022,11.20591 8.36697,-11.20591 v 0 c 1.37533,-1.81682 2.1126,-4.0323 2.11614,-6.31097 -4e-5,-5.78966 -4.69346,-10.48308 -10.48311,-10.48312 z m 0,3.5095 c 3.8513,1.4e-4 6.97331,3.12232 6.97326,6.97362 5e-5,3.85129 -3.12196,6.97347 -6.97326,6.97361 -3.85144,5e-5 -6.97367,-3.12217 -6.97362,-6.97361 -5e-5,-3.85145 3.12218,-6.97367 6.97362,-6.97362 z"
         id="path6768" />
      <text
         xml:space="preserve"
         style="font-style:normal;font-variant:normal;font-weight:bold;font-stretch:normal;font-size:14.78430462px;line-height:125%;font-family:Lato;-inkscape-font-specification:'Lato Bold';letter-spacing:0px;word-spacing:0px;fill:#ffffff;fill-opacity:1;stroke:none;stroke-width:0.36960763px;stroke-linecap:butt;stroke-linejoin:miter;stroke-opacity:1"
         x="321.64264"
         y="378.59448"
         id="text6776"><tspan
           id="tspan6774"
           x="321.64264"
           y="378.59448"
           style="font-style:normal;font-variant:normal;font-weight:bold;font-stretch:normal;font-family:Lato;-inkscape-font-specification:'Lato Bold';fill:#ffffff;stroke-width:0.36960763px">€</tspan></text>
    </g>
  </g>
</svg>
