<?xml version="1.0" encoding="UTF-8" standalone="no"?>
<svg
   xmlns:dc="http://purl.org/dc/elements/1.1/"
   xmlns:cc="http://creativecommons.org/ns#"
   xmlns:rdf="http://www.w3.org/1999/02/22-rdf-syntax-ns#"
   xmlns:svg="http://www.w3.org/2000/svg"
   xmlns="http://www.w3.org/2000/svg"
   id="svg7396"
   version="1.1"
   viewBox="0 0 74.880676 100"
   height="100mm"
   width="74.880676mm">
  <defs
     id="defs7390" />
  <metadata
     id="metadata7393">
    <rdf:RDF>
      <cc:Work
         rdf:about="">
        <dc:format>image/svg+xml</dc:format>
        <dc:type
           rdf:resource="http://purl.org/dc/dcmitype/StillImage" />
        <dc:title></dc:title>
      </cc:Work>
    </rdf:RDF>
  </metadata>
  <g
     transform="translate(-112.7021,-13.474927)"
     id="layer1">
    <g
       transform="matrix(3.5714286,0,0,3.5714286,-389.00837,-1639.3533)"
       id="g6801">
      <path
         id="path6328"
         d="m 150.96234,465.84961 a 7.4003067,7.4003067 0 0 0 -7.40039,7.40039 7.4003067,7.4003067 0 0 0 1,3.69531 l 6.40039,-3.69531 z"
         style="fill:#3771c8;fill-opacity:1;stroke:none" />
      <path
         id="path6330"
         d="m 157.36273,476.94531 -6.40039,-3.69531 -6.40039,3.69531 a 7.4003067,7.4003067 0 0 0 6.40039,3.70508 7.4003067,7.4003067 0 0 0 6.40039,-3.70508 z"
         style="fill:#37c871;fill-opacity:1;stroke:none" />
      <path
         id="path6332"
         d="M 150.96234,465.84961 V 473.25 l 6.40039,3.69531 a 7.4003067,7.4003067 0 0 0 1,-3.69531 7.4003067,7.4003067 0 0 0 -7.40039,-7.40039 z"
         style="fill:#ffcc00;fill-opacity:1;stroke:none" />
      <path
         style="fill:#ffffff;fill-rule:evenodd;stroke:none;stroke-width:1.50328279px;stroke-linecap:butt;stroke-linejoin:miter;stroke-opacity:1"
         d="m 150.96241,462.7919 c -5.78979,-1.6e-4 -10.48344,4.69332 -10.48348,10.48312 0.005,2.27913 0.73651,4.49464 2.11326,6.31097 v 0 l 8.37022,11.20591 8.36697,-11.20591 v 0 c 1.37533,-1.81682 2.1126,-4.0323 2.11614,-6.31097 -4e-5,-5.78966 -4.69346,-10.48308 -10.48311,-10.48312 z m 0,3.5095 c 3.8513,1.4e-4 6.9733,3.12232 6.97326,6.97362 4e-5,3.85129 -3.12196,6.97347 -6.97326,6.97361 -3.85144,5e-5 -6.97367,-3.12217 -6.97362,-6.97361 -5e-5,-3.85145 3.12218,-6.97367 6.97362,-6.97362 z"
         id="path6334" />
    </g>
  </g>
</svg>
