<?xml version="1.0" encoding="UTF-8" standalone="no"?>
<svg
   xmlns:dc="http://purl.org/dc/elements/1.1/"
   xmlns:cc="http://creativecommons.org/ns#"
   xmlns:rdf="http://www.w3.org/1999/02/22-rdf-syntax-ns#"
   xmlns:svg="http://www.w3.org/2000/svg"
   xmlns="http://www.w3.org/2000/svg"
   version="1.1"
   id="svg6629"
   viewBox="0 0 74.88068 100"
   height="28.222223mm"
   width="21.132992mm">
  <defs
     id="defs6631" />
  <metadata
     id="metadata6634">
    <rdf:RDF>
      <cc:Work
         rdf:about="">
        <dc:format>image/svg+xml</dc:format>
        <dc:type
           rdf:resource="http://purl.org/dc/dcmitype/StillImage" />
        <dc:title></dc:title>
      </cc:Work>
    </rdf:RDF>
  </metadata>
  <g
     transform="translate(-140.94528,-152.07653)"
     id="layer1">
    <g
       id="g6354"
       transform="matrix(3.5714286,0,0,3.5714286,-258.96076,-1500.7517)">
      <path
         id="path6328"
         d="m 122.4571,465.84961 a 7.4003067,7.4003067 0 0 0 -7.40039,7.40039 7.4003067,7.4003067 0 0 0 1,3.69531 l 6.40039,-3.69531 0,-7.40039 z"
         style="fill:#ff5555;fill-opacity:1;stroke:none" />
      <path
         id="path6330"
         d="m 128.85749,476.94531 -6.40039,-3.69531 -6.40039,3.69531 a 7.4003067,7.4003067 0 0 0 6.40039,3.70508 7.4003067,7.4003067 0 0 0 6.40039,-3.70508 z"
         style="fill:#87cdde;fill-opacity:1;stroke:none" />
      <path
         id="path6332"
         d="m 122.4571,465.84961 0,7.40039 6.40039,3.69531 a 7.4003067,7.4003067 0 0 0 1,-3.69531 7.4003067,7.4003067 0 0 0 -7.40039,-7.40039 z"
         style="fill:#ffcc00;fill-opacity:1;stroke:none" />
      <path
         style="fill:#ffffff;fill-rule:evenodd;stroke:none;stroke-width:1.50328279px;stroke-linecap:butt;stroke-linejoin:miter;stroke-opacity:1"
         d="m 122.45717,462.7919 c -5.78979,-1.6e-4 -10.48344,4.69332 -10.48348,10.48312 0.005,2.27913 0.73651,4.49464 2.11326,6.31097 l 0,0 8.37022,11.20591 8.36697,-11.20591 0,0 c 1.37533,-1.81682 2.1126,-4.0323 2.11614,-6.31097 -4e-5,-5.78966 -4.69346,-10.48308 -10.48311,-10.48312 z m 0,3.5095 c 3.8513,1.4e-4 6.9733,3.12232 6.97326,6.97362 4e-5,3.85129 -3.12196,6.97347 -6.97326,6.97361 -3.85144,5e-5 -6.97367,-3.12217 -6.97362,-6.97361 -5e-5,-3.85145 3.12218,-6.97367 6.97362,-6.97362 z"
         id="path6334" />
    </g>
  </g>
</svg>
