<?xml version="1.0" encoding="UTF-8" standalone="no"?>
<svg
   xmlns:dc="http://purl.org/dc/elements/1.1/"
   xmlns:cc="http://creativecommons.org/ns#"
   xmlns:rdf="http://www.w3.org/1999/02/22-rdf-syntax-ns#"
   xmlns:svg="http://www.w3.org/2000/svg"
   xmlns="http://www.w3.org/2000/svg"
   version="1.1"
   id="svg6566"
   viewBox="0 0 74.88068 100"
   height="28.222223mm"
   width="21.132992mm">
  <defs
     id="defs6568" />
  <metadata
     id="metadata6571">
    <rdf:RDF>
      <cc:Work
         rdf:about="">
        <dc:format>image/svg+xml</dc:format>
        <dc:type
           rdf:resource="http://purl.org/dc/dcmitype/StillImage" />
        <dc:title></dc:title>
      </cc:Work>
    </rdf:RDF>
  </metadata>
  <g
     transform="translate(-152.37385,-89.219327)"
     id="layer1">
    <g
       id="g6348"
       transform="matrix(3.5714286,0,0,3.5714286,-148.41097,-1563.6089)">
      <path
         style="fill:#3771c8;fill-opacity:1;stroke:none"
         d="m 94.70316,465.84961 a 7.4003067,7.4003067 0 0 0 -7.400391,7.40039 7.4003067,7.4003067 0 0 0 1,3.69531 l 6.400391,-3.69531 0,-7.40039 z"
         id="path6320" />
      <path
         style="fill:#87cdde;fill-opacity:1;stroke:none"
         d="m 101.10355,476.94531 -6.40039,-3.69531 -6.400391,3.69531 a 7.4003067,7.4003067 0 0 0 6.400391,3.70508 7.4003067,7.4003067 0 0 0 6.40039,-3.70508 z"
         id="path6322" />
      <path
         style="fill:#ffcc00;fill-opacity:1;stroke:none"
         d="m 94.70316,465.84961 0,7.40039 6.40039,3.69531 a 7.4003067,7.4003067 0 0 0 1,-3.69531 7.4003067,7.4003067 0 0 0 -7.40039,-7.40039 z"
         id="path6324" />
      <path
         id="path6326"
         d="m 94.703228,462.7919 c -5.789791,-1.6e-4 -10.483439,4.69332 -10.483479,10.48312 0.0047,2.27913 0.736513,4.49464 2.113258,6.31097 l 0,0 8.370218,11.20591 8.366975,-11.20591 0,0 c 1.37533,-1.81682 2.1126,-4.0323 2.11614,-6.31097 -4e-5,-5.78966 -4.69346,-10.48308 -10.483112,-10.48312 z m 0,3.5095 c 3.851302,1.4e-4 6.973302,3.12232 6.973262,6.97362 4e-5,3.85129 -3.12196,6.97347 -6.973262,6.97361 -3.851444,5e-5 -6.97367,-3.12217 -6.973622,-6.97361 -4.8e-5,-3.85145 3.122178,-6.97367 6.973622,-6.97362 z"
         style="fill:#ffffff;fill-rule:evenodd;stroke:none;stroke-width:1.50328279px;stroke-linecap:butt;stroke-linejoin:miter;stroke-opacity:1" />
    </g>
  </g>
</svg>
