<?xml version="1.0" encoding="UTF-8" standalone="no"?>
<svg
   xmlns:dc="http://purl.org/dc/elements/1.1/"
   xmlns:cc="http://creativecommons.org/ns#"
   xmlns:rdf="http://www.w3.org/1999/02/22-rdf-syntax-ns#"
   xmlns:svg="http://www.w3.org/2000/svg"
   xmlns="http://www.w3.org/2000/svg"
   id="svg6772"
   version="1.1"
   viewBox="0 0 74.880676 100"
   height="100mm"
   width="74.880676mm">
  <defs
     id="defs6766" />
  <metadata
     id="metadata6769">
    <rdf:RDF>
      <cc:Work
         rdf:about="">
        <dc:format>image/svg+xml</dc:format>
        <dc:type
           rdf:resource="http://purl.org/dc/dcmitype/StillImage" />
        <dc:title></dc:title>
      </cc:Work>
    </rdf:RDF>
  </metadata>
  <g
     transform="translate(-88.511627,-33.885667)"
     id="layer1">
    <g
       transform="matrix(3.5714286,0,0,3.5714286,-738.25138,-1261.7997)"
       id="g6684">
      <circle
         r="7.4003067"
         cy="373.24997"
         cx="241.97713"
         id="circle6674"
         style="fill:#37c871;fill-opacity:1;stroke:none" />
      <path
         id="path6676"
         d="m 241.97712,362.7919 c -5.78979,-1.6e-4 -10.48344,4.69332 -10.48348,10.48312 0.005,2.27913 0.73651,4.49464 2.11326,6.31097 v 0 l 8.37022,11.20591 8.36697,-11.20591 v 0 c 1.37533,-1.81682 2.1126,-4.0323 2.11614,-6.31097 -4e-5,-5.78966 -4.69346,-10.48308 -10.48311,-10.48312 z m 0,3.5095 c 3.8513,1.4e-4 6.97331,3.12232 6.97326,6.97362 5e-5,3.85129 -3.12196,6.97347 -6.97326,6.97361 -3.85144,5e-5 -6.97367,-3.12217 -6.97362,-6.97361 -5e-5,-3.85145 3.12218,-6.97367 6.97362,-6.97362 z"
         style="fill:#ffffff;fill-rule:evenodd;stroke:none;stroke-width:1.50328279px;stroke-linecap:butt;stroke-linejoin:miter;stroke-opacity:1" />
    </g>
  </g>
</svg>
