<?xml version="1.0" encoding="UTF-8" standalone="no"?>
<svg
   xmlns:dc="http://purl.org/dc/elements/1.1/"
   xmlns:cc="http://creativecommons.org/ns#"
   xmlns:rdf="http://www.w3.org/1999/02/22-rdf-syntax-ns#"
   xmlns:svg="http://www.w3.org/2000/svg"
   xmlns="http://www.w3.org/2000/svg"
   width="52.859928mm"
   height="52.859928mm"
   viewBox="0 0 52.859928 52.859928"
   version="1.1"
   id="svg7478">
  <defs
     id="defs7472" />
  <metadata
     id="metadata7475">
    <rdf:RDF>
      <cc:Work
         rdf:about="">
        <dc:format>image/svg+xml</dc:format>
        <dc:type
           rdf:resource="http://purl.org/dc/dcmitype/StillImage" />
        <dc:title></dc:title>
      </cc:Work>
    </rdf:RDF>
  </metadata>
  <g
     transform="translate(-11.010788,-10.92042)"
     id="g6596">
    <path
       style="fill:#3771c8;fill-opacity:1;stroke:none;stroke-width:3.57142854"
       d="M 37.440752,10.92042 A 26.429667,26.429667 0 0 0 11.010788,37.350385 26.429667,26.429667 0 0 0 14.582216,50.547921 L 37.440752,37.350385 Z"
       id="path6789" />
    <path
       style="fill:#37c871;fill-opacity:1;stroke:none;stroke-width:3.57142854"
       d="M 60.299288,50.547921 37.440752,37.350385 14.582216,50.547921 A 26.429667,26.429667 0 0 0 37.440752,63.780349 26.429667,26.429667 0 0 0 60.299288,50.547921 Z"
       id="path6791" />
    <path
       style="fill:#87cdde;fill-opacity:1;stroke:none;stroke-width:3.57142854"
       d="M 37.440752,10.92042 V 37.350385 L 60.299288,50.547921 A 26.429667,26.429667 0 0 0 63.870717,37.350385 26.429667,26.429667 0 0 0 37.440752,10.92042 Z"
       id="path6793" />
  </g>
</svg>
