<?xml version="1.0" encoding="UTF-8" standalone="no"?>
<svg
   xmlns:dc="http://purl.org/dc/elements/1.1/"
   xmlns:cc="http://creativecommons.org/ns#"
   xmlns:rdf="http://www.w3.org/1999/02/22-rdf-syntax-ns#"
   xmlns:svg="http://www.w3.org/2000/svg"
   xmlns="http://www.w3.org/2000/svg"
   width="52.860538mm"
   height="52.860538mm"
   viewBox="0 0 52.860539 52.860538"
   version="1.1"
   id="svg6852">
  <defs
     id="defs6846" />
  <metadata
     id="metadata6849">
    <rdf:RDF>
      <cc:Work
         rdf:about="">
        <dc:format>image/svg+xml</dc:format>
        <dc:type
           rdf:resource="http://purl.org/dc/dcmitype/StillImage" />
        <dc:title></dc:title>
      </cc:Work>
    </rdf:RDF>
  </metadata>
  <g
     transform="translate(-11.013486,-10.921494)"
     id="g6604">
    <path
       style="fill:#87cdde;fill-opacity:1;stroke:none;stroke-width:3.57142854"
       d="M 52.961308,58.707654 37.443773,37.351781 21.926237,58.707654 a 26.429666,26.429666 0 0 0 15.517536,5.074378 26.429666,26.429666 0 0 0 15.517535,-5.074378 z"
       id="path7025" />
    <path
       style="fill:#ffcc00;fill-opacity:1;stroke:none;stroke-width:3.57142854"
       d="M 62.542361,29.193504 37.443773,37.351781 52.961308,58.707654 A 26.429666,26.429666 0 0 0 63.874023,37.351781 26.429666,26.429666 0 0 0 62.542361,29.193504 Z"
       id="path7022" />
    <path
       style="fill:#37c871;fill-opacity:1;stroke:none;stroke-width:3.57142854"
       d="m 12.331153,29.193504 a 26.429666,26.429666 0 0 0 -1.317667,8.158277 26.429666,26.429666 0 0 0 10.912751,21.355873 L 37.443773,37.351781 Z"
       id="path7019" />
    <path
       style="fill:#3771c8;fill-opacity:1;stroke:none;stroke-width:3.57142854"
       d="m 37.443773,10.921494 a 26.429666,26.429666 0 0 0 -25.11262,18.27201 l 25.11262,8.158277 z"
       id="path7016" />
    <path
       style="fill:#ff5555;fill-opacity:1;stroke:none;stroke-width:3.57142854"
       d="M 37.443773,10.921494 V 37.351781 L 62.542361,29.193504 A 26.429666,26.429666 0 0 0 37.443773,10.921494 Z"
       id="circle6987" />
  </g>
</svg>
