<?xml version="1.0" encoding="UTF-8" standalone="no"?>
<svg
   xmlns:dc="http://purl.org/dc/elements/1.1/"
   xmlns:cc="http://creativecommons.org/ns#"
   xmlns:rdf="http://www.w3.org/1999/02/22-rdf-syntax-ns#"
   xmlns:svg="http://www.w3.org/2000/svg"
   xmlns="http://www.w3.org/2000/svg"
   id="svg7494"
   version="1.1"
   viewBox="0 0 100 100"
   height="100mm"
   width="100mm">
  <defs
     id="defs7488" />
  <metadata
     id="metadata7491">
    <rdf:RDF>
      <cc:Work
         rdf:about="">
        <dc:format>image/svg+xml</dc:format>
        <dc:type
           rdf:resource="http://purl.org/dc/dcmitype/StillImage" />
        <dc:title></dc:title>
      </cc:Work>
    </rdf:RDF>
  </metadata>
  <g
     transform="translate(-128.30634,-30.89604)"
     id="layer1">
    <path
       id="circle9406-6"
       d="m 178.30452,30.89604 a 49.999892,49.999892 0 0 0 -49.99818,49.99811 49.999892,49.999892 0 0 0 49.99818,50.00189 49.999892,49.999892 0 0 0 50.00182,-50.00189 49.999892,49.999892 0 0 0 -50.00182,-49.99811 z m -17.38125,24.669164 11.5826,8.187458 11.60465,-8.187458 11.601,8.187458 9.69513,-6.867752 3.78221,5.356296 -13.47734,9.532988 -11.601,-8.187458 -11.60465,8.187458 -11.5826,-8.187458 -9.71353,6.867752 -3.78956,-5.356296 z m 0,17.211539 11.5826,8.183891 11.60465,-8.183891 11.601,8.183891 9.69513,-6.838361 3.78221,5.338033 -13.47734,9.532775 -11.601,-8.187459 -11.60465,8.187459 -11.5826,-8.187459 -9.71353,6.860405 -3.78956,-5.359863 z m 0,17.21532 11.5826,8.209572 11.60465,-8.209572 11.601,8.209572 9.69513,-6.863971 3.78221,5.356295 -13.47734,9.532921 -11.601,-8.209505 -11.60465,8.209505 -11.5826,-8.209505 -9.71353,6.863975 -3.78956,-5.356299 z"
       style="color:#000000;display:inline;overflow:visible;visibility:visible;opacity:1;fill:#87cdde;fill-opacity:1;fill-rule:nonzero;stroke:none;stroke-width:1.14170909;stroke-miterlimit:4;stroke-dasharray:none;stroke-dashoffset:0;stroke-opacity:1;marker:none;enable-background:accumulate" />
  </g>
</svg>
