<?xml version="1.0" encoding="UTF-8" standalone="no"?>
<svg
   xmlns:dc="http://purl.org/dc/elements/1.1/"
   xmlns:cc="http://creativecommons.org/ns#"
   xmlns:rdf="http://www.w3.org/1999/02/22-rdf-syntax-ns#"
   xmlns:svg="http://www.w3.org/2000/svg"
   xmlns="http://www.w3.org/2000/svg"
   id="svg7433"
   version="1.1"
   viewBox="0 0 100 100"
   height="100mm"
   width="100mm">
  <defs
     id="defs7427" />
  <metadata
     id="metadata7430">
    <rdf:RDF>
      <cc:Work
         rdf:about="">
        <dc:format>image/svg+xml</dc:format>
        <dc:type
           rdf:resource="http://purl.org/dc/dcmitype/StillImage" />
        <dc:title></dc:title>
      </cc:Work>
    </rdf:RDF>
  </metadata>
  <g
     transform="translate(-114.6992,-18.04485)"
     id="layer1">
    <path
       id="circle9560-3"
       d="M 164.69731,18.04485 A 49.999892,49.999892 0 0 0 114.6992,68.043031 49.999892,49.999892 0 0 0 164.69731,118.04485 49.999892,49.999892 0 0 0 214.6992,68.043031 49.999892,49.999892 0 0 0 164.69731,18.04485 Z m 9.72467,16.496472 0.004,0.0038 c 3.96646,2.279953 6.7987,4.349966 8.921,6.277879 2.72837,2.47741 4.26622,4.718628 5.4705,6.860333 3.178,5.651125 6.01786,11.537515 7.66029,18.195897 l -1.44133,1.588855 c -0.62561,-0.597078 -1.26314,-1.169831 -1.73631,-2.034916 0.5286,-0.596364 0.65557,-1.07845 0.17335,-1.515094 l -4.11399,-3.723213 c -1.39696,-1.979845 -2.93153,-3.907829 -4.97287,-5.636501 -1.27805,-0.07847 -2.44488,-0.65486 -3.52419,-1.607189 l -8.32378,9.201136 0.51219,0.471527 -27.24216,30.117554 -1.21285,2.197061 c -1.09614,1.480711 -2.52078,2.964988 -4.92129,0.792609 l -3.19975,-2.893795 c -1.11854,-1.009754 -1.62139,-2.515432 0.0214,-4.084527 l 2.22652,-1.437695 27.74358,-30.644723 0.48651,0.438713 8.32385,-9.201207 c -0.89112,-1.821765 -1.85023,-3.65737 -3.67534,-5.308358 L 169.146,40.372926 Z m 8.14315,8.898887 a 2.5438259,2.5438259 0 0 0 -1.79893,0.833127 2.5438259,2.5438259 0 0 0 -0.56427,1.04321 2.5438259,2.5438259 0 0 0 -0.0571,0.246821 2.5438259,2.5438259 0 0 0 0.79996,2.303922 2.5438259,2.5438259 0 0 0 3.59053,-0.180479 2.5438259,2.5438259 0 0 0 -0.17691,-3.590457 2.5438259,2.5438259 0 0 0 -1.03957,-0.567831 h -0.004 a 2.5438259,2.5438259 0 0 0 -0.74838,-0.08846 z m 6.3184,41.86237 c 0.443,0.08204 2.24158,2.978541 2.30029,3.704808 0.0499,0.620618 0.0285,0.629179 -3.57577,1.463447 -2.91412,0.677687 -2.99687,0.671267 -3.55364,-0.107003 -0.14553,-0.203306 -0.36025,-0.378792 -0.47938,-0.405186 -0.11842,-0.0214 -0.71614,0.136251 -1.32705,0.357391 -2.00774,0.727408 -15.29618,3.661365 -18.18484,4.014475 -0.47082,0.05707 -0.74981,0.0428 -1.06533,0.03567 l -0.0956,0.01427 -0.0357,-0.0071 c -0.56926,-0.0214 -1.02695,-0.124837 -1.4377,-0.43158 -0.26251,-0.195459 -0.44157,-0.430153 -0.39448,-0.512189 0.0499,-0.08275 0.53786,-0.277495 1.0838,-0.435146 0.54643,-0.157651 3.14275,-0.949689 5.77653,-1.75471 5.5474,-1.693932 9.43419,-2.849853 11.7411,-3.50193 3.52612,-0.995701 9.08016,-2.448733 9.23802,-2.42562 z m -2.30763,2.772096 c -0.65415,0.07134 -1.42642,0.42088 -1.59249,0.722557 -0.0571,0.105577 0.0713,0.258948 0.30603,0.390919 0.51076,0.283915 0.7757,0.338843 1.48192,0.280348 0.57639,-0.04993 1.42999,-0.431579 1.58878,-0.718847 0.21758,-0.393059 -0.80487,-0.780482 -1.78417,-0.674834 z m -44.70823,1.964865 a 0.75925417,0.75925417 0 0 0 -0.5343,0.250387 0.75925417,0.75925417 0 0 0 0.0571,1.072672 0.75925417,0.75925417 0 0 0 1.06903,-0.04994 0.75925417,0.75925417 0 0 0 -0.0571,-1.072672 0.75925417,0.75925417 0 0 0 -0.38735,-0.184758 v -0.0071 a 0.75925417,0.75925417 0 0 0 -0.14766,-0.01427 z m 54.18586,0.627039 c 0.4273,0.12983 1.73238,3.181205 1.6736,3.903834 -0.0571,0.617052 -0.0842,0.627039 -3.81166,1.050629 -3.01421,0.343837 -3.09311,0.32957 -3.51677,-0.497922 -0.11057,-0.217573 -0.29176,-0.421593 -0.40947,-0.45726 -0.11485,-0.03567 -0.73996,0.05707 -1.38612,0.206159 -2.1213,0.495782 -15.8394,1.930623 -18.77464,1.953808 -0.47581,0.01427 -0.74503,-0.0428 -1.05798,-0.08132 h -0.0956 l -0.0357,-0.01427 c -0.56284,-0.0856 -0.99877,-0.235407 -1.35659,-0.578531 -0.22827,-0.222566 -0.37237,-0.470814 -0.31316,-0.55285 0.0642,-0.08204 0.57924,-0.22328 1.15014,-0.316729 0.57068,-0.09416 3.29563,-0.581384 6.05296,-1.0838 5.8077,-1.05869 9.86933,-1.768121 12.27562,-2.156543 3.67791,-0.592798 9.45117,-1.422144 9.60297,-1.375063 z m -2.75005,2.469848 c -0.66271,-0.0019 -1.49384,0.256808 -1.71041,0.534303 -0.0721,0.09416 0.0285,0.263228 0.23968,0.420166 0.46083,0.33171 0.71821,0.415885 1.43028,0.438713 0.58139,0.0214 1.49583,-0.263941 1.70314,-0.530736 0.28248,-0.363811 -0.67056,-0.858594 -1.66255,-0.862589 z"
       style="color:#000000;display:inline;overflow:visible;visibility:visible;opacity:1;fill:#d40000;fill-opacity:1;fill-rule:nonzero;stroke:none;stroke-width:1.14170909;stroke-miterlimit:4;stroke-dasharray:none;stroke-dashoffset:0;stroke-opacity:1;marker:none;enable-background:accumulate" />
  </g>
</svg>
