<?xml version="1.0" encoding="UTF-8" standalone="no"?>
<svg
   xmlns:dc="http://purl.org/dc/elements/1.1/"
   xmlns:cc="http://creativecommons.org/ns#"
   xmlns:rdf="http://www.w3.org/1999/02/22-rdf-syntax-ns#"
   xmlns:svg="http://www.w3.org/2000/svg"
   xmlns="http://www.w3.org/2000/svg"
   id="svg7909"
   version="1.1"
   viewBox="0 0 100 100"
   height="100mm"
   width="100mm">
  <defs
     id="defs7903" />
  <metadata
     id="metadata7906">
    <rdf:RDF>
      <cc:Work
         rdf:about="">
        <dc:format>image/svg+xml</dc:format>
        <dc:type
           rdf:resource="http://purl.org/dc/dcmitype/StillImage" />
        <dc:title></dc:title>
      </cc:Work>
    </rdf:RDF>
  </metadata>
  <g
     transform="translate(-85.809822,-37.106841)"
     id="layer1">
    <g
       id="g6751"
       transform="matrix(2.1992415,0,0,2.1992415,1510.3069,-1708.8713)">
      <circle
         style="color:#000000;display:inline;overflow:visible;visibility:visible;opacity:1;fill:#1377ff;fill-opacity:1;fill-rule:nonzero;stroke:none;stroke-width:30;stroke-linecap:round;stroke-linejoin:round;stroke-miterlimit:4;stroke-dasharray:none;stroke-dashoffset:0;stroke-opacity:1;marker:none;enable-background:accumulate"
         id="circle6720"
         cx="-624.98688"
         cy="816.63525"
         r="22.735111" />
      <path
         id="path6748"
         d="m -642.06765,805.06682 -0.0246,11.21507 c -0.0134,6.16829 -0.003,11.2707 0.0223,11.33864 0.0379,0.0996 1.3354,0.11782 6.68668,0.0937 6.54744,-0.0293 6.65012,-0.0329 7.40633,-0.24544 1.30146,-0.36583 2.29674,-0.92179 3.11942,-1.74262 1.30261,-1.2997 1.74406,-2.5109 1.74748,-4.79538 0.002,-1.55944 -0.16493,-2.39633 -0.68428,-3.42515 -0.51084,-1.01197 -1.49533,-1.81653 -2.43963,-1.99368 -0.19537,-0.0367 -0.37685,-0.10185 -0.40345,-0.14491 -0.0265,-0.043 0.23189,-0.21621 0.57457,-0.38492 1.59587,-0.78564 2.39299,-2.53552 2.15881,-4.73922 -0.25834,-2.43091 -1.57019,-4.08847 -3.88215,-4.90547 l -0.7659,-0.27072 h -6.75781 -6.75781 z m 23.77214,1.34196 -0.0269,1.19295 c -0.0149,0.65609 -0.005,1.24963 0.0213,1.31896 0.0392,0.10227 0.92246,0.12128 4.67594,0.1011 l 4.62764,-0.0248 v -1.29405 -1.29405 h -4.64898 -4.64899 z m -13.9814,2.64988 c 1.23115,-0.002 2.17419,0.0107 2.29679,0.0322 0.44957,0.0805 0.97531,0.66522 1.15551,1.28505 0.3134,1.07805 0.0408,2.8038 -0.52179,3.30309 -0.45497,0.40379 -0.7775,0.43761 -4.21707,0.44202 -2.56844,0.003 -3.29619,-0.0224 -3.33265,-0.11739 -0.0257,-0.0668 -0.035,-1.19914 -0.021,-2.5162 l 0.0257,-2.3947 3.30701,-0.0275 c 0.45471,-0.003 0.89714,-0.005 1.30752,-0.006 z m 19.02224,1.72727 c -4.32801,-0.0629 -7.30897,2.08649 -8.47721,6.12857 -1.03103,3.56734 -0.0674,7.44546 2.34752,9.44793 1.03964,0.86205 2.45393,1.47856 3.91659,1.70742 1.16134,0.18171 3.23183,0.17784 4.3206,-0.009 2.38871,-0.40823 4.13331,-1.51904 4.93075,-3.13927 0.35413,-0.7195 0.65134,-1.90435 0.60266,-2.40275 l -0.0289,-0.29468 -1.85682,-0.026 c -1.14906,-0.0162 -1.90126,0.0109 -1.97347,0.0707 -0.0641,0.0533 -0.16646,0.26298 -0.22727,0.46598 -0.31004,1.03482 -1.22052,1.64357 -2.76596,1.84934 -1.98476,0.26425 -3.63803,-0.43495 -4.34643,-1.83829 -0.28111,-0.55686 -0.53982,-1.70428 -0.44183,-1.95961 0.0473,-0.12331 0.83861,-0.14559 5.92917,-0.16699 l 5.87432,-0.0247 0.0283,-1.05441 c 0.0748,-2.80314 -0.83614,-5.34625 -2.45873,-6.86527 -1.26026,-1.17982 -2.83905,-1.77836 -4.95041,-1.87685 -0.14239,-0.006 -0.28331,-0.011 -0.42292,-0.0129 z m -0.1043,3.39238 c 0.99524,-0.005 1.1545,0.0193 1.63796,0.24601 0.61824,0.28991 1.15274,0.78792 1.43091,1.33317 0.24211,0.47458 0.51038,1.49958 0.44033,1.68216 -0.044,0.11466 -0.63246,0.13629 -3.69211,0.13629 -2.19058,0 -3.66225,-0.0361 -3.69605,-0.0908 -0.09,-0.14571 0.30321,-1.15226 0.6605,-1.69039 0.39326,-0.59227 0.99111,-1.10081 1.64002,-1.39514 0.40241,-0.18252 0.64682,-0.21687 1.57844,-0.2213 z m -23.53249,3.44556 h 3.54664 3.54665 l 0.50381,0.27914 c 0.99058,0.54886 1.31744,1.2527 1.31744,2.83615 0,1.01775 -0.0209,1.14518 -0.27295,1.65857 -0.30448,0.62007 -0.71719,0.95288 -1.45824,1.17591 -0.62652,0.18855 -7.11592,0.20324 -7.18766,0.0163 -0.0256,-0.0664 -0.0349,-1.43597 -0.021,-3.04341 l 0.0253,-2.92264 z"
         style="fill:#ffffff;fill-rule:evenodd;stroke:none;stroke-width:1px;stroke-linecap:butt;stroke-linejoin:miter;stroke-opacity:1" />
    </g>
  </g>
</svg>
