<?xml version="1.0" encoding="UTF-8" standalone="no"?>
<svg
   xmlns:dc="http://purl.org/dc/elements/1.1/"
   xmlns:cc="http://creativecommons.org/ns#"
   xmlns:rdf="http://www.w3.org/1999/02/22-rdf-syntax-ns#"
   xmlns:svg="http://www.w3.org/2000/svg"
   xmlns="http://www.w3.org/2000/svg"
   id="svg7216"
   version="1.1"
   viewBox="0 0 100 100"
   height="100mm"
   width="100mm">
  <defs
     id="defs7210" />
  <metadata
     id="metadata7213">
    <rdf:RDF>
      <cc:Work
         rdf:about="">
        <dc:format>image/svg+xml</dc:format>
        <dc:type
           rdf:resource="http://purl.org/dc/dcmitype/StillImage" />
        <dc:title></dc:title>
      </cc:Work>
    </rdf:RDF>
  </metadata>
  <g
     transform="translate(-90.345507,-18.96397)"
     id="layer1">
    <g
       id="g5718"
       transform="matrix(7.1199753,0,0,7.1199753,-5065.9965,-693.47092)">
      <circle
         style="color:#000000;display:inline;overflow:visible;visibility:visible;opacity:1;fill:#3a569c;fill-opacity:1;fill-rule:nonzero;stroke:none;stroke-width:30;stroke-linecap:round;stroke-linejoin:round;stroke-miterlimit:4;stroke-dasharray:none;stroke-dashoffset:0;stroke-opacity:1;marker:none;enable-background:accumulate"
         id="path5364-7"
         cx="731.23035"
         cy="107.08392"
         r="7.0224962" />
      <g
         style="fill:#ffffff"
         transform="matrix(0.40004066,0,0,0.40004066,452.42459,66.509759)"
         id="g5705">
        <path
           id="path5711"
           d="m 700.52973,87.599251 c -1.67182,-0.004 -1.97271,0.0233 -2.7876,0.25759 -2.04811,0.5889 -3.48085,2.04385 -4.05196,4.11464 -0.24972,0.90547 -0.26628,1.10954 -0.29624,3.66772 l -0.0283,2.42053 -2.17625,0.0245 -2.17581,0.0245 v 2.493949 2.49394 l 2.17581,0.0245 2.17625,0.0245 0.0124,6.54033 0.0124,6.54032 5.23131,0.002 0.0124,-6.54161 0.0124,-6.54118 2.14962,-0.0129 c 1.18235,-0.007 2.16743,-0.0302 2.18869,-0.0515 0.0589,-0.0589 0.68215,-4.911089 0.63669,-4.956549 -0.0218,-0.0218 -1.15012,-0.0454 -2.50725,-0.0524 l -2.46775,-0.0124 -0.0133,-1.8096 c -0.008,-1.07075 0.007,-1.94335 0.0369,-2.13803 0.13843,-0.90343 0.54951,-1.38778 1.39444,-1.64217 0.18927,-0.057 0.64775,-0.0801 2.02942,-0.10261 l 1.78513,-0.0292 0.0124,-2.28272 c 0.0119,-2.14283 0.008,-2.28398 -0.073,-2.30805 -0.23715,-0.0706 -1.87377,-0.14431 -3.28905,-0.14811 z"
           style="fill:#ffffff;fill-opacity:1;fill-rule:evenodd;stroke:none;stroke-width:1px;stroke-linecap:butt;stroke-linejoin:miter;stroke-opacity:1" />
      </g>
    </g>
  </g>
</svg>
