<?xml version="1.0" encoding="UTF-8" standalone="no"?>
<svg
   xmlns:dc="http://purl.org/dc/elements/1.1/"
   xmlns:cc="http://creativecommons.org/ns#"
   xmlns:rdf="http://www.w3.org/1999/02/22-rdf-syntax-ns#"
   xmlns:svg="http://www.w3.org/2000/svg"
   xmlns="http://www.w3.org/2000/svg"
   id="svg7266"
   version="1.1"
   viewBox="0 0 100 100"
   height="100mm"
   width="100mm">
  <defs
     id="defs7260" />
  <metadata
     id="metadata7263">
    <rdf:RDF>
      <cc:Work
         rdf:about="">
        <dc:format>image/svg+xml</dc:format>
        <dc:type
           rdf:resource="http://purl.org/dc/dcmitype/StillImage" />
        <dc:title></dc:title>
      </cc:Work>
    </rdf:RDF>
  </metadata>
  <g
     transform="translate(-93.369313,-35.59492)"
     id="layer1">
    <g
       id="g5686"
       transform="matrix(7.1199753,0,0,7.1199753,-5205.3722,-676.83997)">
      <circle
         r="7.0224962"
         cy="107.08392"
         cx="751.23035"
         id="circle5377-6"
         style="color:#000000;display:inline;overflow:visible;visibility:visible;opacity:1;fill:#2ca9e0;fill-opacity:1;fill-rule:nonzero;stroke:none;stroke-width:30;stroke-linecap:round;stroke-linejoin:round;stroke-miterlimit:4;stroke-dasharray:none;stroke-dashoffset:0;stroke-opacity:1;marker:none;enable-background:accumulate" />
      <path
         style="fill:#ffffff;fill-rule:evenodd;stroke:none;stroke-width:0.01060753px;stroke-linecap:butt;stroke-linejoin:miter;stroke-opacity:1"
         d="m 753.59966,102.9687 c -1.06716,0 -1.96126,0.75336 -2.1493,1.811 -0.0331,0.18616 -0.0336,0.55311 -0.002,0.72662 0.0117,0.063 0.017,0.11571 0.0117,0.12132 -0.0102,0.0112 -0.25836,-0.006 -0.45491,-0.0316 -0.56124,-0.0728 -1.1177,-0.22343 -1.63152,-0.44149 -0.56944,-0.24168 -1.12395,-0.58619 -1.613,-1.00218 -0.16652,-0.14165 -0.51433,-0.48846 -0.65276,-0.65088 -0.0572,-0.0671 -0.10895,-0.12199 -0.11506,-0.12199 -0.0345,0 -0.17325,0.32631 -0.22547,0.53001 -0.17348,0.67692 -0.0202,1.38664 0.41605,1.92563 0.0823,0.1017 0.27388,0.28772 0.36636,0.35573 0.0823,0.0606 0.0923,0.084 0.0319,0.0754 -0.0218,-0.003 -0.0684,-0.009 -0.10345,-0.0122 -0.19808,-0.0197 -0.47934,-0.10064 -0.67357,-0.19379 -0.0612,-0.0293 -0.11495,-0.0512 -0.11934,-0.0486 -0.0112,0.007 -0.01,0.0993 0.004,0.2279 0.0787,0.76909 0.54064,1.4241 1.2388,1.75676 0.11712,0.0557 0.32663,0.13082 0.40784,0.14606 0.0924,0.0174 0.0163,0.0442 -0.20827,0.0735 -0.15768,0.0206 -0.40111,0.0207 -0.55328,0 -0.0642,-0.009 -0.11788,-0.0157 -0.11933,-0.0157 -0.01,0 0.002,0.0495 0.0283,0.11806 0.0744,0.19313 0.2045,0.41763 0.33733,0.58197 0.084,0.10391 0.28397,0.29751 0.38591,0.37357 0.32788,0.24471 0.73382,0.39965 1.12003,0.42753 0.11811,0.009 0.12645,0.011 0.10907,0.032 -0.0234,0.0283 -0.24746,0.18257 -0.39365,0.27122 -0.43183,0.26186 -0.92265,0.45259 -1.41466,0.54965 -0.40395,0.0797 -0.78413,0.10053 -1.25169,0.0685 l -0.0955,-0.007 0.0212,0.0215 c 0.0695,0.0702 0.66979,0.38045 0.96651,0.49948 0.69062,0.27704 1.3699,0.42008 2.1415,0.45092 0.14596,0.006 0.51123,-0.004 0.71833,-0.0205 1.30106,-0.10028 2.45065,-0.56064 3.4186,-1.36898 0.16818,-0.14046 0.47811,-0.44256 0.62684,-0.61101 0.75996,-0.86076 1.27958,-1.91927 1.49853,-3.05263 0.0749,-0.38809 0.0978,-0.61951 0.10453,-1.05828 l 0.005,-0.3635 0.11266,-0.087 c 0.31684,-0.24461 0.59937,-0.53333 0.84696,-0.8655 0.0834,-0.11193 0.10521,-0.14722 0.0963,-0.15611 -0.004,-0.004 -0.0458,0.0107 -0.0946,0.0309 -0.22998,0.0952 -0.54016,0.18795 -0.7995,0.2391 -0.19273,0.038 -0.28108,0.0493 -0.28108,0.0358 0,-0.005 0.0394,-0.0368 0.0875,-0.0697 0.33195,-0.22649 0.62544,-0.60171 0.7777,-0.99423 0.0193,-0.0496 0.0311,-0.0942 0.0263,-0.0991 -0.004,-0.005 -0.0653,0.022 -0.13453,0.0597 -0.32352,0.17631 -0.69178,0.3177 -1.05601,0.40548 l -0.16645,0.0402 -0.10935,-0.0988 c -0.43527,-0.39307 -0.92482,-0.58573 -1.48835,-0.58573 z"
         id="path5409-6" />
    </g>
  </g>
</svg>
