<?xml version="1.0" encoding="UTF-8" standalone="no"?>
<svg
   xmlns:dc="http://purl.org/dc/elements/1.1/"
   xmlns:cc="http://creativecommons.org/ns#"
   xmlns:rdf="http://www.w3.org/1999/02/22-rdf-syntax-ns#"
   xmlns:svg="http://www.w3.org/2000/svg"
   xmlns="http://www.w3.org/2000/svg"
   id="svg7848"
   version="1.1"
   viewBox="0 0 100 100"
   height="100mm"
   width="100mm">
  <defs
     id="defs7842" />
  <metadata
     id="metadata7845">
    <rdf:RDF>
      <cc:Work
         rdf:about="">
        <dc:format>image/svg+xml</dc:format>
        <dc:type
           rdf:resource="http://purl.org/dc/dcmitype/StillImage" />
        <dc:title></dc:title>
      </cc:Work>
    </rdf:RDF>
  </metadata>
  <g
     transform="translate(-121.33959,-36.350841)"
     id="layer1">
    <g
       id="g6984"
       transform="matrix(2.1992415,0,0,2.1992415,992.79294,-1709.6273)">
      <circle
         r="22.735111"
         cy="816.63525"
         cx="-373.51666"
         id="circle6959"
         style="color:#000000;display:inline;overflow:visible;visibility:visible;opacity:1;fill:#3198d2;fill-opacity:1;fill-rule:nonzero;stroke:none;stroke-width:30;stroke-linecap:round;stroke-linejoin:round;stroke-miterlimit:4;stroke-dasharray:none;stroke-dashoffset:0;stroke-opacity:1;marker:none;enable-background:accumulate" />
      <g
         style="fill:#ffffff"
         transform="matrix(0.2880229,0,0,0.2880229,-275.5692,655.90942)"
         id="g6951">
        <path
           id="path6953"
           d="m -336.17471,597.9141 c -10.73741,-11.06542 -17.58511,-19.94679 -22.14016,-28.71546 -2.76407,-5.32097 -3.11967,-6.96196 -3.14212,-14.5 -0.0223,-7.49457 0.34823,-9.28844 3.13263,-15.16555 3.45225,-7.28675 5.83648,-9.23285 10.07154,-8.22077 4.99211,1.193 5.52372,2.29669 2.7144,5.63539 -3.88336,4.61511 -6.49421,10.38024 -7.12929,15.74252 -0.47928,4.04675 -0.0781,5.90788 2.41024,11.18161 3.32603,7.04909 9.36936,15.33032 17.72378,24.28706 5.08222,5.44863 5.69597,5.82373 7.14988,4.36982 0.87474,-0.87474 11.60498,-15.70685 23.84498,-32.96025 l 22.25455,-31.36983 5.23494,-0.30517 c 4.32716,-0.25225 5.17703,-0.0331 4.90099,1.2635 -0.57303,2.69173 -54.89396,78.54167 -56.24865,78.54167 -0.70576,0 -5.55574,-4.40304 -10.77771,-9.78454 z m -27.4864,0.0719 c -10.7694,-11.06431 -17.39505,-19.82466 -22.07445,-29.18656 -3.26562,-6.53338 -3.69104,-8.23648 -3.63555,-14.55412 0.14014,-15.95492 10.78385,-29.47927 26.83055,-34.09204 16.33607,-4.69595 35.7882,4.53284 42.77634,20.29463 2.98309,6.72836 3.57032,17.87549 1.26487,24.01051 -2.02078,5.3775 -9.23744,16.99881 -11.92964,19.21083 -1.61912,1.33034 -2.01648,1.18729 -4.16659,-1.5 -1.30723,-1.63382 -2.37902,-3.3395 -2.38175,-3.79041 -0.003,-0.4509 1.36384,-2.80932 3.03684,-5.24093 4.35764,-6.33362 7.93707,-14.44309 7.94842,-18.00774 0.0595,-18.68768 -20.47799,-32.05196 -37.61995,-24.48028 -14.34521,6.33634 -20.11792,21.24767 -13.41004,34.63906 3.1661,6.32068 13.24458,19.39098 19.9314,25.84807 l 4.07847,3.93836 2.3294,-2.18836 c 3.09466,-2.90729 4.15225,-2.76702 6.76104,0.89669 l 2.19675,3.08504 -4.84106,4.91496 c -2.66258,2.7032 -5.69011,4.91493 -6.72783,4.91493 -1.05577,0 -5.62189,-3.83739 -10.36722,-8.71267 z m 56.03174,-62.1667 c -3.57964,-3.34042 -6.62493,-5.18854 -10,-6.0688 -2.66911,-0.69614 -5.52793,-1.45725 -6.35293,-1.69136 -0.825,-0.23411 -3.3,-1.98695 -5.5,-3.89521 -4.73204,-4.10451 -3.84482,-5.42532 3.66091,-5.44998 11.36403,-0.0373 28.9037,9.35288 28.80582,15.42178 -0.0348,2.15769 -3.17835,6.59056 -4.62702,6.52479 -0.46184,-0.021 -3.15589,-2.19952 -5.98678,-4.84122 z"
           style="fill:#ffffff" />
      </g>
    </g>
  </g>
</svg>
