<?xml version="1.0" encoding="UTF-8" standalone="no"?>
<svg
   xmlns:dc="http://purl.org/dc/elements/1.1/"
   xmlns:cc="http://creativecommons.org/ns#"
   xmlns:rdf="http://www.w3.org/1999/02/22-rdf-syntax-ns#"
   xmlns:svg="http://www.w3.org/2000/svg"
   xmlns="http://www.w3.org/2000/svg"
   id="svg7786"
   version="1.1"
   viewBox="0 0 100 100"
   height="100mm"
   width="100mm">
  <defs
     id="defs7780" />
  <metadata
     id="metadata7783">
    <rdf:RDF>
      <cc:Work
         rdf:about="">
        <dc:format>image/svg+xml</dc:format>
        <dc:type
           rdf:resource="http://purl.org/dc/dcmitype/StillImage" />
        <dc:title></dc:title>
      </cc:Work>
    </rdf:RDF>
  </metadata>
  <g
     transform="translate(-60.863431,-40.130631)"
     id="layer1">
    <g
       id="g6934"
       transform="matrix(2.1992415,0,0,2.1992415,1055.4743,-1837.802)">
      <circle
         style="color:#000000;display:inline;overflow:visible;visibility:visible;opacity:1;fill:#f58d20;fill-opacity:1;fill-rule:nonzero;stroke:none;stroke-width:30;stroke-linecap:round;stroke-linejoin:round;stroke-miterlimit:4;stroke-dasharray:none;stroke-dashoffset:0;stroke-opacity:1;marker:none;enable-background:accumulate"
         id="circle6922"
         cx="-429.51666"
         cy="876.63525"
         r="22.735111" />
      <g
         id="g6924"
         transform="matrix(1.1040623,0,0,1.1040623,42.439639,-21.58422)">
        <path
           id="path6926"
           d="m -418.35609,819.17735 c -3.53529,-0.92955 -6.38783,-1.93713 -8.24218,-2.91132 -0.54795,-0.28787 -1.03319,-0.5234 -1.07831,-0.5234 l -1.26073,-0.78866 c 0,-0.05 -0.38565,-0.45788 -0.85699,-0.90643 -1.04851,-0.99779 -1.70185,-1.92566 -2.4002,-3.40873 -0.99663,-2.1165 -1.9977,-3.16475 -3.48261,-3.64675 -0.81084,-0.26319 -0.78848,-0.77555 0.0387,-0.8865 0.98521,-0.13214 2.63073,0.57565 4.04253,1.73883 0.81892,0.67471 1.41973,1.32491 3.14434,3.40282 0.39718,0.47855 0.99464,1.14326 1.32769,1.47715 0.15338,0.20439 0.95047,0.81843 1.5702,1.3196 0,0.0274 0.61968,0.49025 1.37706,1.02859 1.39498,0.99156 4.13081,2.45003 6.53004,3.48118 0.91084,0.39146 0.99243,0.44793 0.96676,0.66923 -0.0395,0.34109 -0.22477,0.33605 -1.67629,-0.0456 z m -29.1457,-2.1329 c -0.10072,-0.12136 -0.0897,-0.2468 0.0607,-0.69024 0.10107,-0.29805 0.27077,-0.60216 0.37711,-0.67579 0.10635,-0.0736 0.85098,-0.56501 1.65474,-1.09194 0.80376,-0.52692 1.91311,-1.31471 2.46523,-1.75064 1.30754,-1.03238 3.13527,-2.87829 3.60711,-3.64299 0.39418,-0.63883 0.50302,-0.6954 0.87235,-0.4534 0.35922,0.23537 0.36078,0.379 0.0128,1.17965 -0.1788,0.41144 -0.35724,0.85682 -0.39653,0.98975 -0.13871,0.46929 -0.97544,1.59504 -1.83511,2.469 -2.30122,2.33944 -6.18604,4.42852 -6.81838,3.6666 z"
           style="fill:#2e2a2b;fill-opacity:1" />
        <path
           id="path6928"
           d="m -408.87711,818.57655 c -4.46702,-0.57587 -6.75496,-1.12528 -8.70081,-2.08935 -1.46718,-0.7269 -2.20596,-1.35169 -3.29389,-2.78561 -0.9807,-1.2926 -1.64961,-1.78088 -2.89246,-2.11146 -0.73971,-0.19674 -0.82743,-0.42711 -0.22447,-0.58951 0.78985,-0.21273 2.21259,0.18721 3.58414,1.00753 0.35951,0.21501 1.27309,0.89002 2.03019,1.50001 1.74261,1.404 2.38088,1.8148 4.0807,2.62635 1.30362,0.62239 3.17143,1.27589 5.46494,1.91204 0.70984,0.19688 1.0245,0.32888 1.04636,0.43895 0.0253,0.12764 -0.0478,0.15467 -0.38671,0.14292 -0.22988,-0.008 -0.54847,-0.0313 -0.70799,-0.0519 z m -22.76712,-1.65938 c 0,-0.0984 0.0465,-0.31224 0.10327,-0.47517 0.0881,-0.25269 0.21955,-0.34243 0.89425,-0.61038 0.43504,-0.17277 1.04409,-0.43961 1.35345,-0.59297 l 0.56246,-0.27885 0.43016,0.27057 c 0.24592,0.15469 0.41908,0.33269 0.40429,0.41559 -0.0142,0.0798 -0.4174,0.35086 -0.89595,0.60244 -1.46963,0.77262 -2.85193,1.09677 -2.85193,0.66877 z m 5.56672,-3.2381 c -0.25548,-0.20443 -0.26919,-0.24366 -0.14501,-0.41499 0.41474,-0.57226 0.73449,-0.90509 0.86953,-0.90509 0.22261,-10e-6 0.608,0.4429 0.51953,0.59706 -0.18571,0.32361 -0.7447,0.9497 -0.84752,0.94927 -0.0629,-2.5e-4 -0.24135,-0.10208 -0.39653,-0.22625 z"
           style="fill:#2e2a2b" />
      </g>
    </g>
  </g>
</svg>
