<?xml version="1.0" encoding="UTF-8" standalone="no"?>
<svg
   xmlns:dc="http://purl.org/dc/elements/1.1/"
   xmlns:cc="http://creativecommons.org/ns#"
   xmlns:rdf="http://www.w3.org/1999/02/22-rdf-syntax-ns#"
   xmlns:svg="http://www.w3.org/2000/svg"
   xmlns="http://www.w3.org/2000/svg"
   id="svg7324"
   version="1.1"
   viewBox="0 0 100 100"
   height="100mm"
   width="100mm">
  <defs
     id="defs7318" />
  <metadata
     id="metadata7321">
    <rdf:RDF>
      <cc:Work
         rdf:about="">
        <dc:format>image/svg+xml</dc:format>
        <dc:type
           rdf:resource="http://purl.org/dc/dcmitype/StillImage" />
        <dc:title></dc:title>
      </cc:Work>
    </rdf:RDF>
  </metadata>
  <g
     transform="translate(-88.833619,-26.52349)"
     id="layer1">
    <g
       id="g5682"
       transform="matrix(7.1199753,0,0,7.1199753,-5352.3074,-685.9114)">
      <circle
         style="color:#000000;display:inline;overflow:visible;visibility:visible;opacity:1;fill:#bd2f1d;fill-opacity:1;fill-rule:nonzero;stroke:none;stroke-width:30;stroke-linecap:round;stroke-linejoin:round;stroke-miterlimit:4;stroke-dasharray:none;stroke-dashoffset:0;stroke-opacity:1;marker:none;enable-background:accumulate"
         id="circle5422-6"
         cx="771.23035"
         cy="107.08392"
         r="7.0224962" />
      <path
         style="fill:#ffffff"
         d="m 769.17006,112.29326 c -0.90034,-0.0357 -1.67569,-0.28758 -2.15542,-0.70046 -0.18639,-0.16044 -0.34288,-0.39697 -0.4153,-0.62777 -0.0261,-0.0833 -0.03,-0.12393 -0.0299,-0.31463 0,-0.24151 0.0107,-0.2985 0.0939,-0.50762 0.28922,-0.72749 1.10762,-1.28744 2.10856,-1.44266 0.16863,-0.0261 0.40749,-0.04 0.69266,-0.0402 0.18085,0 0.28429,-0.005 0.2898,-0.014 0.01,-0.0159 -0.005,-0.0381 -0.10656,-0.15867 -0.0858,-0.10213 -0.18402,-0.29073 -0.21415,-0.41142 -0.0457,-0.18302 -0.0211,-0.41078 0.0649,-0.60102 0.0533,-0.11802 0.0484,-0.12269 -0.12656,-0.11811 -0.38582,0.0101 -0.7602,-0.0649 -1.08037,-0.21654 -0.2153,-0.10194 -0.37179,-0.21328 -0.54914,-0.39067 -0.37979,-0.37991 -0.57077,-0.8441 -0.57368,-1.39434 -0.002,-0.30658 0.0457,-0.50013 0.19143,-0.78301 0.29607,-0.57469 0.9115,-1.0303 1.62345,-1.20187 0.29762,-0.0718 0.29664,-0.0718 1.87506,-0.072 0.84257,0 1.46319,0.005 1.46319,0.0115 0,0.01 -0.48133,0.3613 -0.55741,0.40747 -0.011,0.006 -0.20156,0.0151 -0.42358,0.0187 -0.28379,0.005 -0.40518,0.0112 -0.40871,0.0217 -0.003,0.009 0.0356,0.0373 0.0852,0.0644 0.28577,0.15655 0.50752,0.44443 0.63297,0.82175 0.10363,0.31164 0.13998,0.67831 0.0937,0.94509 -0.0845,0.48768 -0.33661,0.87257 -0.82892,1.26596 -0.36281,0.28993 -0.46864,0.44816 -0.47031,0.70327 -5.5e-4,0.11412 0.003,0.13301 0.0375,0.19908 0.12515,0.23865 0.34434,0.46272 0.74896,0.7657 0.34867,0.26108 0.59833,0.53367 0.73184,0.79907 0.0588,0.11675 0.12556,0.32667 0.15458,0.48567 0.0186,0.10187 0.0244,0.20057 0.0246,0.4247 0,0.26072 -0.003,0.30467 -0.0298,0.41068 -0.16031,0.6309 -0.63039,1.13186 -1.3224,1.40926 -0.47987,0.19235 -0.97754,0.26638 -1.62013,0.24097 z m 0.7432,-0.4565 c 0.92798,-0.10782 1.4384,-0.52647 1.51923,-1.24609 0.0465,-0.41414 -0.0427,-0.68469 -0.31503,-0.95565 -0.11982,-0.11921 -0.30541,-0.26091 -0.62075,-0.47397 -0.22488,-0.15194 -0.22693,-0.15297 -0.37161,-0.18662 -0.2268,-0.0528 -0.3774,-0.0667 -0.63989,-0.0591 -0.25586,0.007 -0.39565,0.0279 -0.61928,0.0909 -0.61712,0.17386 -1.10542,0.57474 -1.2592,1.03375 -0.0769,0.22947 -0.0598,0.54718 0.0435,0.80957 0.21974,0.55783 0.86169,0.96747 1.57947,1.0079 0.20696,0.0117 0.47539,0.003 0.68348,-0.0207 z m -0.0133,-4.77137 c 0.43079,-0.0747 0.76217,-0.47238 0.86539,-1.03832 0.0332,-0.18197 0.0296,-0.52669 -0.007,-0.72974 -0.16875,-0.91931 -0.84279,-1.62159 -1.55439,-1.61947 -0.42406,9.1e-4 -0.77597,0.26149 -0.95151,0.70358 -0.14535,0.36614 -0.15493,0.80945 -0.0277,1.27886 0.19533,0.72018 0.73955,1.30689 1.30428,1.4061 0.14408,0.0253 0.22111,0.0251 0.37161,-9.1e-4 z m 5.08553,0.27188 c -0.005,-0.005 -0.01,-0.40185 -0.01,-0.8818 0,-0.47994 -0.004,-0.88207 -0.007,-0.89361 -0.007,-0.0188 -0.0978,-0.021 -0.88586,-0.0212 -0.4828,0 -0.88544,-0.005 -0.89477,-0.011 -0.0129,-0.007 -0.0161,-0.0606 -0.0132,-0.21546 l 0.004,-0.20472 0.88432,-0.003 c 0.71872,-0.003 0.88708,-0.006 0.89906,-0.0211 0.0103,-0.0125 0.0157,-0.27771 0.0181,-0.89905 l 0.003,-0.88131 h 0.21236 0.21233 l 0.003,0.88131 c 0.002,0.62414 0.007,0.88651 0.0182,0.89915 0.0121,0.0146 0.17425,0.0179 0.89494,0.0179 0.57659,0 0.883,0.005 0.88842,0.0133 0.0106,0.0172 0.0105,0.39413 0,0.41144 -0.005,0.009 -0.32046,0.0132 -0.88828,0.0132 -0.7207,0 -0.88285,0.003 -0.89496,0.0179 -0.0104,0.0127 -0.0158,0.27501 -0.0182,0.89915 l -0.003,0.88131 -0.20649,0.004 c -0.11356,0.002 -0.21061,-5.5e-4 -0.21566,-0.005 z"
         id="path5543" />
    </g>
  </g>
</svg>
