<?xml version="1.0" encoding="UTF-8" standalone="no"?>
<svg
   xmlns:dc="http://purl.org/dc/elements/1.1/"
   xmlns:cc="http://creativecommons.org/ns#"
   xmlns:rdf="http://www.w3.org/1999/02/22-rdf-syntax-ns#"
   xmlns:svg="http://www.w3.org/2000/svg"
   xmlns="http://www.w3.org/2000/svg"
   id="svg7496"
   version="1.1"
   viewBox="0 0 100 100"
   height="100mm"
   width="100mm">
  <defs
     id="defs7490" />
  <metadata
     id="metadata7493">
    <rdf:RDF>
      <cc:Work
         rdf:about="">
        <dc:format>image/svg+xml</dc:format>
        <dc:type
           rdf:resource="http://purl.org/dc/dcmitype/StillImage" />
        <dc:title></dc:title>
      </cc:Work>
    </rdf:RDF>
  </metadata>
  <g
     transform="translate(-122.85143,-65.83302)"
     id="layer1">
    <g
       id="g5753"
       transform="matrix(7.1199753,0,0,7.1199753,-5460.6891,-646.60187)">
      <circle
         r="7.0224962"
         cy="107.08392"
         cx="791.23035"
         id="circle5463-2"
         style="color:#000000;display:inline;overflow:visible;visibility:visible;opacity:1;fill:#be2729;fill-opacity:1;fill-rule:nonzero;stroke:none;stroke-width:30;stroke-linecap:round;stroke-linejoin:round;stroke-miterlimit:4;stroke-dasharray:none;stroke-dashoffset:0;stroke-opacity:1;marker:none;enable-background:accumulate" />
      <path
         id="path5742"
         d="m 787.74529,102.56336 c -0.0304,-7e-5 -0.0382,0.92437 -0.0382,4.52057 0,4.10243 0.004,4.52056 0.0483,4.52056 0.0266,0 1.23266,-0.61362 2.68026,-1.36371 5.46863,-2.83364 5.97678,-3.10061 5.9761,-3.14001 -3.5e-4,-0.0176 -1.72759,-0.93248 -3.83845,-2.03286 -2.11085,-1.10038 -4.05206,-2.11399 -4.31388,-2.25253 -0.26179,-0.13851 -0.49313,-0.25198 -0.51415,-0.25202 z"
         style="fill:#ffffff;fill-rule:evenodd;stroke:none;stroke-width:0.05461607px;stroke-linecap:butt;stroke-linejoin:miter;stroke-opacity:1" />
      <path
         id="path5747-4"
         d="m 795.35469,107.65074 -7.6094,-5.08738 8.66646,4.53741 z"
         style="fill:#e5deda;fill-opacity:1;fill-rule:evenodd;stroke:none;stroke-width:1px;stroke-linecap:butt;stroke-linejoin:miter;stroke-opacity:1" />
    </g>
  </g>
</svg>
